<!-- Generated by readme-aura https://github.com/collectioneur/readme-aura -->
<svg width="860" height="140" viewBox="0 0 860 140" xmlns="http://www.w3.org/2000/svg"><defs><clipPath id="satori_bc-id"><path x="0" y="0" width="860" height="140" d="M16,0 h828 a16,16 0 0 1 16,16 v108 a16,16 0 0 1 -16,16 h-828 a16,16 0 0 1 -16,-16 v-108 a16,16 0 0 1 16,-16"/></clipPath></defs><clipPath id="satori_cp-id"><path x="0" y="0" width="860" height="140" d="M16,0 h828 a16,16 0 0 1 16,16 v108 a16,16 0 0 1 -16,16 h-828 a16,16 0 0 1 -16,-16 v-108 a16,16 0 0 1 16,-16"/></clipPath><mask id="satori_om-id"><rect x="1" y="1" width="858" height="138" fill="#fff"/><path width="860" height="140" fill="none" stroke="#000" stroke-width="2" d="M4.686,4.686 A16,16 0 0 1 16,0 h828 a16,16 0 0 1 16,16 v108 a16,16 0 0 1 -16,16 h-828 a16,16 0 0 1 -16,-16 v-108 A16,16 0 0 1 4.686,4.686"/></mask><path x="0" y="0" width="860" height="140" fill="#08080c" d="M16,0 h828 a16,16 0 0 1 16,16 v108 a16,16 0 0 1 -16,16 h-828 a16,16 0 0 1 -16,-16 v-108 a16,16 0 0 1 16,-16"/><path width="860" height="140" clip-path="url(#satori_bc-id)" fill="none" stroke="rgba(110,80,220,0.18)" stroke-width="2" d="M4.686,4.686 A16,16 0 0 1 16,0 h828 a16,16 0 0 1 16,16 v108 a16,16 0 0 1 -16,16 h-828 a16,16 0 0 1 -16,-16 v-108 A16,16 0 0 1 4.686,4.686"/><clipPath id="satori_cp-id-0" clip-path="url(#satori_cp-id)"><rect x="1" y="1" width="860" height="140"/></clipPath><mask id="satori_om-id-0"><rect x="1" y="1" width="860" height="140" fill="#fff" mask="url(#satori_om-id)"/></mask><svg x="1" y="1" width="860" height="140" preserveAspectRatio="none" clip-path="url(#satori_cp-id-0)" mask="url(#satori_om-id-0)"><defs><radialGradient id="g1" cx="50%" cy="50%" r="50%"><stop offset="0%" stop-color="rgba(110,20,210,0.65)"></stop><stop offset="45%" stop-color="rgba(80,15,170,0.28)"></stop><stop offset="70%" stop-color="rgba(80,15,170,0)"></stop></radialGradient><radialGradient id="g2" cx="50%" cy="50%" r="50%"><stop offset="0%" stop-color="rgba(40,70,255,0.55)"></stop><stop offset="45%" stop-color="rgba(20,50,200,0.22)"></stop><stop offset="70%" stop-color="rgba(20,50,200,0)"></stop></radialGradient><radialGradient id="g3" cx="50%" cy="50%" r="50%"><stop offset="0%" stop-color="rgba(0,140,255,0.42)"></stop><stop offset="70%" stop-color="rgba(0,140,255,0)"></stop></radialGradient><radialGradient id="g4" cx="50%" cy="50%" r="50%"><stop offset="0%" stop-color="rgba(0,195,235,0.30)"></stop><stop offset="70%" stop-color="rgba(0,195,235,0)"></stop></radialGradient><radialGradient id="g5" cx="50%" cy="50%" r="50%"><stop offset="0%" stop-color="rgba(100,30,210,0.40)"></stop><stop offset="70%" stop-color="rgba(100,30,210,0)"></stop></radialGradient></defs><ellipse id="glow-1" cx="710" cy="150" rx="210" ry="150" fill="url(#g1)"></ellipse><ellipse id="glow-2" cx="550" cy="140" rx="190" ry="140" fill="url(#g2)"></ellipse><ellipse id="glow-3" cx="400" cy="130" rx="170" ry="130" fill="url(#g3)"></ellipse><ellipse id="glow-4" cx="250" cy="140" rx="150" ry="120" fill="url(#g4)"></ellipse><ellipse id="glow-5" cx="100" cy="150" rx="130" ry="110" fill="url(#g5)"></ellipse><style>

         @keyframes float-slow {
           0%, 100% { transform: translateX(0px); opacity: 0.8; }
           50% { transform: translateX(350px); opacity: 1.2; }
         }
         @keyframes float-medium {
           0%, 100% { transform: translateX(0px); opacity: 0.7; }
           50% { transform: translateX(-250px); opacity: 1.1; }
         }
         @keyframes float-fast {
           0%, 100% { transform: translateX(0px); opacity: 0.9; }
           50% { transform: translateX(200px); opacity: 0.6; }
         }
         @keyframes float-diagonal {
           0%, 100% { transform: translate(0px, 0px); opacity: 0.75; }
           50% { transform: translate(120px, 30px); opacity: 1.0; }
         }
         @keyframes float-wave {
           0%, 100% { transform: translateX(0px); opacity: 0.65; }
           33% { transform: translateX(-160px); opacity: 0.9; }
           66% { transform: translateX(80px); opacity: 1.0; }
         }
         @keyframes float-pulse {
           0%, 100% { transform: scale(1); opacity: 0.8; }
           50% { transform: scale(1.3); opacity: 0.4; }
         }
         #glow-1 { animation: float-slow 8s ease-in-out infinite; }
         #glow-2 { animation: float-medium 12s ease-in-out infinite; }
         #glow-3 { animation: float-fast 9s ease-in-out infinite; }
         #glow-4 { animation: float-diagonal 10s ease-in-out infinite; }
         #glow-5 { animation: float-wave 14s ease-in-out infinite; }
       
</style>
</svg><mask id="satori_om-id-0-0"><rect x="1" y="1" width="0" height="140" fill="#fff" mask="url(#satori_om-id)"/></mask><mask id="satori_om-id-0-0-0"><rect x="1" y="1" width="0" height="140" fill="#fff" mask="url(#satori_om-id)"/></mask><mask id="satori_om-id-0-0-0-0"><rect x="1" y="1" width="0" height="140" fill="#fff" mask="url(#satori_om-id)"/></mask><mask id="satori_om-id-0-0-0-1"><rect x="1" y="1" width="0" height="140" fill="#fff" mask="url(#satori_om-id)"/></mask><mask id="satori_om-id-0-0-0-2"><rect x="1" y="1" width="0" height="140" fill="#fff" mask="url(#satori_om-id)"/></mask><mask id="satori_om-id-0-0-1"><rect x="1" y="1" width="0" height="140" fill="#fff" mask="url(#satori_om-id)"/></mask><mask id="satori_om-id-0-0-1-0"><rect x="1" y="1" width="0" height="140" fill="#fff" mask="url(#satori_om-id)"/></mask><mask id="satori_om-id-0-0-1-1"><rect x="1" y="1" width="0" height="140" fill="#fff" mask="url(#satori_om-id)"/></mask><mask id="satori_om-id-0-0-1-2"><rect x="1" y="1" width="0" height="140" fill="#fff" mask="url(#satori_om-id)"/></mask><mask id="satori_om-id-0-0-2"><rect x="1" y="1" width="0" height="140" fill="#fff" mask="url(#satori_om-id)"/></mask><mask id="satori_om-id-0-0-2-0"><rect x="1" y="1" width="0" height="140" fill="#fff" mask="url(#satori_om-id)"/></mask><mask id="satori_om-id-0-0-2-1"><rect x="1" y="1" width="0" height="140" fill="#fff" mask="url(#satori_om-id)"/></mask><mask id="satori_om-id-0-0-3"><rect x="1" y="1" width="0" height="140" fill="#fff" mask="url(#satori_om-id)"/></mask><mask id="satori_om-id-0-0-3-0"><rect x="1" y="1" width="0" height="140" fill="#fff" mask="url(#satori_om-id)"/></mask><mask id="satori_om-id-0-0-3-1"><rect x="1" y="1" width="0" height="140" fill="#fff" mask="url(#satori_om-id)"/></mask><mask id="satori_om-id-0-0-4"><rect x="1" y="1" width="0" height="140" fill="#fff" mask="url(#satori_om-id)"/></mask><mask id="satori_om-id-0-0-4-0"><rect x="1" y="1" width="0" height="140" fill="#fff" mask="url(#satori_om-id)"/></mask><mask id="satori_om-id-0-0-4-1"><rect x="1" y="1" width="0" height="140" fill="#fff" mask="url(#satori_om-id)"/></mask><mask id="satori_om-id-0-1"><rect x="1" y="1" width="0" height="140" fill="#fff" mask="url(#satori_om-id)"/></mask><mask id="satori_om-id-0-2"><rect x="1" y="1" width="0" height="140" fill="#fff" mask="url(#satori_om-id)"/></mask><mask id="satori_om-id-0-3"><rect x="1" y="1" width="0" height="140" fill="#fff" mask="url(#satori_om-id)"/></mask><mask id="satori_om-id-0-4"><rect x="1" y="1" width="0" height="140" fill="#fff" mask="url(#satori_om-id)"/></mask><mask id="satori_om-id-0-5"><rect x="1" y="1" width="0" height="140" fill="#fff" mask="url(#satori_om-id)"/></mask><defs><clipPath id="satori_bc-id-1" clip-path="url(#satori_cp-id)"><rect x="1" y="30" width="272" height="80"/></clipPath></defs><mask id="satori_om-id-1"><rect x="1" y="30" width="271" height="80" fill="#fff" mask="url(#satori_om-id)"/><path width="272" height="80" fill="none" stroke="#000" stroke-width="2" d="M273,30 A0,0 0 0 1 273,30 v80 A0,0 0 0 1 273,110"/></mask><path width="272" height="80" clip-path="url(#satori_bc-id-1)" fill="none" stroke="rgba(255,255,255,0.06)" stroke-width="2" d="M273,30 A0,0 0 0 1 273,30 v80 A0,0 0 0 1 273,110"/><mask id="satori_om-id-1-0"><rect x="124" y="46" width="26" height="30" fill="#fff" mask="url(#satori_om-id)"/></mask><g mask="url(#satori_om-id)" clip-path="url(#satori_cp-id)"><path fill="#a78bfa" d="M130.2 50.2L135.0 50.2L135.0 72L130.5 72L130.5 54.1L130.4 54.1L125.4 57.7L125.4 53.6L130.2 50.2ZM143.1 50.2L147.9 50.2L147.9 72L143.4 72L143.4 54.1L143.3 54.1L138.3 57.7L138.3 53.6L143.1 50.2Z "/></g><mask id="satori_om-id-1-1"><rect x="114" y="81" width="45" height="13" fill="#fff" mask="url(#satori_om-id)"/></mask><g mask="url(#satori_om-id)" clip-path="url(#satori_cp-id)"><path fill="rgba(200,195,225,0.45)" d="M116.4 92L114.7 92L114.7 84.0L117.8 84.0Q118.8 84.0 119.4 84.3Q120.0 84.6 120.4 85.2Q120.7 85.8 120.7 86.6Q120.7 87.4 120.4 88.0Q120.0 88.5 119.4 88.8L119.4 88.8Q119.3 88.9 119.3 88.9L119.3 88.9L121.0 92L119.2 92L117.6 89.1L116.4 89.1L116.4 92ZM116.4 85.4L116.4 87.8L117.5 87.8Q118.0 87.8 118.4 87.7Q118.7 87.5 118.9 87.3Q119.0 87.0 119.0 86.6L119.0 86.6Q119.0 86.2 118.9 85.9Q118.7 85.6 118.4 85.5Q118.0 85.4 117.5 85.4L117.5 85.4L116.4 85.4ZM128.8 92L123.4 92L123.4 84.0L128.8 84.0L128.8 85.4L125.1 85.4L125.1 87.3L128.5 87.3L128.5 88.6L125.1 88.6L125.1 90.6L128.8 90.6L128.8 92ZM133.3 92L131.6 92L131.6 84.0L134.8 84.0Q135.7 84.0 136.3 84.3Q136.9 84.7 137.3 85.3Q137.6 85.9 137.6 86.7L137.6 86.7Q137.6 87.5 137.3 88.1Q136.9 88.7 136.3 89.0Q135.6 89.4 134.7 89.4L134.7 89.4L133.3 89.4L133.3 92ZM133.3 85.4L133.3 88.1L134.5 88.1Q135.0 88.1 135.3 87.9Q135.6 87.7 135.8 87.4Q135.9 87.1 135.9 86.7Q135.9 86.3 135.8 86.0Q135.6 85.7 135.3 85.5Q135.0 85.4 134.4 85.4L134.4 85.4L133.3 85.4ZM143.8 92.1L143.8 92.1Q142.7 92.1 141.9 91.6Q141.0 91.1 140.5 90.2Q140.0 89.3 140.0 88.0L140.0 88.0Q140.0 86.7 140.5 85.8Q141.0 84.9 141.9 84.4Q142.7 83.9 143.8 83.9L143.8 83.9Q144.8 83.9 145.7 84.4Q146.5 84.9 147.0 85.8Q147.5 86.7 147.5 88.0L147.5 88.0Q147.5 89.3 147.0 90.2Q146.5 91.1 145.7 91.6Q144.8 92.1 143.8 92.1ZM143.8 90.7L143.8 90.7Q144.4 90.7 144.9 90.3Q145.3 90.0 145.6 89.5Q145.8 88.9 145.8 88.0L145.8 88.0Q145.8 87.1 145.6 86.5Q145.3 86.0 144.9 85.6Q144.4 85.3 143.8 85.3L143.8 85.3Q143.2 85.3 142.7 85.7Q142.2 86.0 142.0 86.6Q141.7 87.1 141.7 88.0L141.7 88.0Q141.7 88.9 142.0 89.4Q142.2 90.0 142.7 90.3Q143.2 90.7 143.8 90.7ZM153.2 92.1L153.2 92.1Q152.2 92.1 151.5 91.8Q150.8 91.5 150.4 90.9Q150.0 90.4 150.0 89.5L150.0 89.5L151.6 89.5Q151.6 89.9 151.8 90.2Q152.0 90.5 152.4 90.6Q152.7 90.7 153.2 90.7L153.2 90.7Q153.6 90.7 153.9 90.6Q154.2 90.5 154.4 90.2Q154.6 90.0 154.6 89.7L154.6 89.7Q154.6 89.4 154.4 89.3Q154.3 89.1 154.0 88.9Q153.7 88.8 153.2 88.7L153.2 88.7L152.3 88.5Q151.3 88.2 150.8 87.7Q150.2 87.2 150.2 86.3L150.2 86.3Q150.2 85.6 150.6 85.0Q151.0 84.5 151.6 84.2Q152.3 83.9 153.2 83.9L153.2 83.9Q154.1 83.9 154.7 84.2Q155.4 84.5 155.8 85.0Q156.1 85.6 156.1 86.3L156.1 86.3L154.6 86.3Q154.5 85.8 154.2 85.5Q153.8 85.3 153.2 85.3L153.2 85.3Q152.8 85.3 152.5 85.4Q152.2 85.5 152.0 85.7Q151.9 85.9 151.9 86.2L151.9 86.2Q151.9 86.5 152.0 86.7Q152.2 86.9 152.5 87.0Q152.8 87.1 153.1 87.2L153.1 87.2L153.9 87.4Q154.4 87.5 154.8 87.7Q155.2 87.9 155.6 88.2Q155.9 88.4 156.1 88.8Q156.3 89.2 156.3 89.7L156.3 89.7Q156.3 90.4 155.9 91.0Q155.5 91.5 154.8 91.8Q154.1 92.1 153.2 92.1Z "/></g><defs><clipPath id="satori_bc-id-2" clip-path="url(#satori_cp-id)"><rect x="273" y="30" width="280" height="80"/></clipPath></defs><mask id="satori_om-id-2"><rect x="273" y="30" width="279" height="80" fill="#fff" mask="url(#satori_om-id)"/><path width="280" height="80" fill="none" stroke="#000" stroke-width="2" d="M553,30 A0,0 0 0 1 553,30 v80 A0,0 0 0 1 553,110"/></mask><path width="280" height="80" clip-path="url(#satori_bc-id-2)" fill="none" stroke="rgba(255,255,255,0.06)" stroke-width="2" d="M553,30 A0,0 0 0 1 553,30 v80 A0,0 0 0 1 553,110"/><mask id="satori_om-id-2-0"><rect x="386" y="46" width="52" height="30" fill="#fff" mask="url(#satori_om-id)"/></mask><g mask="url(#satori_om-id)" clip-path="url(#satori_cp-id)"><path fill="#60a5fa" d="M392.2 50.2L397.0 50.2L397.0 72L392.5 72L392.5 54.1L392.4 54.1L387.4 57.7L387.4 53.6L392.2 50.2ZM408.6 72.3L408.6 72.3Q406.2 72.3 404.4 71.5Q402.5 70.7 401.5 69.2Q400.4 67.8 400.4 65.9L400.4 65.9L404.9 65.9Q404.9 66.7 405.4 67.3Q405.9 67.9 406.7 68.3Q407.6 68.6 408.6 68.6L408.6 68.6Q409.7 68.6 410.5 68.2Q411.3 67.8 411.8 67.2Q412.3 66.5 412.3 65.6L412.3 65.6Q412.3 64.7 411.8 64.0Q411.3 63.3 410.4 62.9Q409.5 62.5 408.2 62.5L408.2 62.5L406.2 62.5L406.2 59.2L408.2 59.2Q409.3 59.2 410.1 58.8Q410.9 58.5 411.3 57.8Q411.8 57.2 411.8 56.3L411.8 56.3Q411.8 55.4 411.4 54.8Q411.0 54.2 410.3 53.8Q409.6 53.5 408.6 53.5L408.6 53.5Q407.7 53.5 406.9 53.8Q406.1 54.1 405.6 54.8Q405.1 55.4 405.1 56.2L405.1 56.2L400.8 56.2Q400.8 54.4 401.9 52.9Q402.9 51.5 404.7 50.7Q406.4 49.9 408.7 49.9L408.7 49.9Q410.9 49.9 412.6 50.7Q414.3 51.5 415.2 52.9Q416.1 54.3 416.1 56.0L416.1 56.0Q416.1 57.8 415.0 59.1Q413.9 60.3 412.0 60.6L412.0 60.6L412.0 60.8Q413.6 61.0 414.7 61.7Q415.8 62.4 416.4 63.5Q416.9 64.5 416.9 65.9L416.9 65.9Q416.9 67.7 415.9 69.2Q414.8 70.6 412.9 71.5Q411.0 72.3 408.6 72.3ZM427.6 72.3L427.6 72.3Q425.5 72.3 423.8 71.5Q422.1 70.6 421.1 69.2Q420.1 67.7 419.9 65.9L419.9 65.9L424.3 65.9Q424.6 67.1 425.4 67.8Q426.3 68.5 427.6 68.5L427.6 68.5Q429.1 68.5 430.0 67.6Q431.0 66.8 431.5 65.2Q432.0 63.6 432.0 61.5L432.0 61.5L431.9 61.5Q431.4 62.4 430.6 63.1Q429.7 63.8 428.7 64.1Q427.6 64.5 426.4 64.5L426.4 64.5Q424.5 64.5 423.0 63.6Q421.4 62.7 420.5 61.1Q419.7 59.5 419.7 57.5L419.7 57.5Q419.7 55.2 420.7 53.5Q421.7 51.8 423.6 50.8Q425.4 49.8 427.8 49.9L427.8 49.9Q429.5 49.9 431 50.4Q432.5 51.0 433.8 52.2Q435.0 53.5 435.7 55.5Q436.4 57.6 436.4 60.6L436.4 60.6Q436.4 63.3 435.8 65.5Q435.2 67.7 434.0 69.2Q432.9 70.7 431.2 71.5Q429.6 72.3 427.6 72.3ZM427.8 61.2L427.8 61.2Q428.6 61.2 429.3 60.9Q430.0 60.6 430.5 60.1Q431 59.5 431.3 58.8Q431.6 58.1 431.6 57.3L431.6 57.3Q431.6 56.3 431.1 55.4Q430.6 54.5 429.8 54.0Q428.9 53.4 427.8 53.4L427.8 53.4Q426.7 53.4 425.9 53.9Q425.0 54.5 424.5 55.4Q424.0 56.2 424.0 57.3L424.0 57.3Q424.0 58.4 424.5 59.3Q425.0 60.2 425.9 60.7Q426.7 61.2 427.8 61.2Z "/></g><mask id="satori_om-id-2-1"><rect x="390" y="81" width="45" height="13" fill="#fff" mask="url(#satori_om-id)"/></mask><g mask="url(#satori_om-id)" clip-path="url(#satori_cp-id)"><path fill="rgba(200,195,225,0.45)" d="M393.7 92.1L393.7 92.1Q392.7 92.1 392.0 91.8Q391.3 91.5 390.9 90.9Q390.5 90.4 390.5 89.5L390.5 89.5L392.1 89.5Q392.1 89.9 392.3 90.2Q392.5 90.5 392.9 90.6Q393.2 90.7 393.6 90.7L393.6 90.7Q394.1 90.7 394.4 90.6Q394.7 90.5 394.9 90.2Q395.1 90.0 395.1 89.7L395.1 89.7Q395.1 89.4 394.9 89.3Q394.8 89.1 394.5 88.9Q394.2 88.8 393.7 88.7L393.7 88.7L392.8 88.5Q391.8 88.2 391.2 87.7Q390.7 87.2 390.7 86.3L390.7 86.3Q390.7 85.6 391.1 85.0Q391.5 84.5 392.1 84.2Q392.8 83.9 393.7 83.9L393.7 83.9Q394.6 83.9 395.2 84.2Q395.9 84.5 396.3 85.0Q396.6 85.6 396.6 86.3L396.6 86.3L395.1 86.3Q395.0 85.8 394.6 85.5Q394.3 85.3 393.7 85.3L393.7 85.3Q393.2 85.3 393.0 85.4Q392.7 85.5 392.5 85.7Q392.4 85.9 392.4 86.2L392.4 86.2Q392.4 86.5 392.5 86.7Q392.7 86.9 393.0 87.0Q393.3 87.1 393.6 87.2L393.6 87.2L394.4 87.4Q394.9 87.5 395.3 87.7Q395.7 87.9 396.1 88.2Q396.4 88.4 396.6 88.8Q396.7 89.2 396.7 89.7L396.7 89.7Q396.7 90.4 396.4 91.0Q396.0 91.5 395.3 91.8Q394.6 92.1 393.7 92.1ZM401.6 85.4L399.1 85.4L399.1 84.0L405.6 84.0L405.6 85.4L403.2 85.4L403.2 92L401.6 92L401.6 85.4ZM409.6 92L407.8 92L410.5 84.0L412.7 84.0L415.5 92L413.7 92L413.1 90.1L410.2 90.1L409.6 92ZM410.6 88.9L412.6 88.9L412.4 88.1Q412.2 87.4 411.9 86.5L411.9 86.5Q411.8 85.9 411.6 85.3L411.6 85.3Q411.4 85.9 411.3 86.5L411.3 86.5Q411.1 87.4 410.9 88.1L410.9 88.1L410.6 88.9ZM419.6 92L418.0 92L418.0 84.0L421.1 84.0Q422.0 84.0 422.7 84.3Q423.3 84.6 423.6 85.2Q424.0 85.8 424.0 86.6Q424.0 87.4 423.6 88.0Q423.3 88.5 422.6 88.8L422.6 88.8Q422.6 88.9 422.5 88.9L422.5 88.9L424.3 92L422.4 92L420.9 89.1L419.6 89.1L419.6 92ZM419.6 85.4L419.6 87.8L420.8 87.8Q421.3 87.8 421.6 87.7Q422.0 87.5 422.1 87.3Q422.3 87.0 422.3 86.6L422.3 86.6Q422.3 86.2 422.1 85.9Q422.0 85.6 421.6 85.5Q421.3 85.4 420.8 85.4L420.8 85.4L419.6 85.4ZM429.6 92.1L429.6 92.1Q428.7 92.1 428.0 91.8Q427.3 91.5 426.9 90.9Q426.5 90.4 426.4 89.5L426.4 89.5L428.0 89.5Q428.1 89.9 428.3 90.2Q428.5 90.5 428.8 90.6Q429.2 90.7 429.6 90.7L429.6 90.7Q430.1 90.7 430.4 90.6Q430.7 90.5 430.9 90.2Q431.1 90.0 431.1 89.7L431.1 89.7Q431.1 89.4 430.9 89.3Q430.8 89.1 430.4 88.9Q430.1 88.8 429.7 88.7L429.7 88.7L428.8 88.5Q427.8 88.2 427.2 87.7Q426.7 87.2 426.7 86.3L426.7 86.3Q426.7 85.6 427.0 85.0Q427.4 84.5 428.1 84.2Q428.8 83.9 429.7 83.9L429.7 83.9Q430.5 83.9 431.2 84.2Q431.9 84.5 432.2 85.0Q432.6 85.6 432.6 86.3L432.6 86.3L431.0 86.3Q431.0 85.8 430.6 85.5Q430.3 85.3 429.6 85.3L429.6 85.3Q429.2 85.3 428.9 85.4Q428.6 85.5 428.5 85.7Q428.3 85.9 428.3 86.2L428.3 86.2Q428.3 86.5 428.5 86.7Q428.7 86.9 429.0 87.0Q429.3 87.1 429.6 87.2L429.6 87.2L430.3 87.4Q430.8 87.5 431.3 87.7Q431.7 87.9 432.0 88.2Q432.4 88.4 432.5 88.8Q432.7 89.2 432.7 89.7L432.7 89.7Q432.7 90.4 432.4 91.0Q432.0 91.5 431.3 91.8Q430.6 92.1 429.6 92.1Z "/></g><mask id="satori_om-id-3"><rect x="553" y="30" width="306" height="80" fill="#fff" mask="url(#satori_om-id)"/></mask><mask id="satori_om-id-3-0"><rect x="666" y="46" width="80" height="30" fill="#fff" mask="url(#satori_om-id)"/></mask><g mask="url(#satori_om-id)" clip-path="url(#satori_cp-id)"><path fill="#f59e0b" d="M683.3 72L667.8 72L667.8 68.8L675.6 61.5Q676.5 60.6 677.2 59.8Q677.9 59.0 678.3 58.2Q678.6 57.5 678.6 56.6L678.6 56.6Q678.6 55.6 678.2 54.9Q677.7 54.2 677.0 53.8Q676.2 53.5 675.2 53.5L675.2 53.5Q674.2 53.5 673.5 53.9Q672.7 54.3 672.3 55.0Q671.9 55.8 671.9 56.9L671.9 56.9L667.6 56.9Q667.6 54.7 668.6 53.2Q669.6 51.6 671.3 50.7Q673.0 49.9 675.3 49.9L675.3 49.9Q677.6 49.9 679.3 50.7Q681.0 51.5 682.0 53.0Q683.0 54.4 683.0 56.3L683.0 56.3Q683.0 57.5 682.5 58.7Q682.0 59.9 680.8 61.4Q679.6 62.9 677.3 64.9L677.3 64.9L674.0 68.2L674.0 68.3L683.3 68.3L683.3 72ZM696.4 68.1L685.9 68.1L685.9 64.6L695.0 50.2L700.6 50.2L700.6 64.5L703.4 64.5L703.4 68.1L700.6 68.1L700.6 72L696.4 72L696.4 68.1ZM690.4 64.5L696.4 64.5L696.4 55.1L696.3 55.1L690.4 64.3L690.4 64.5ZM716.6 68.1L706.2 68.1L706.2 64.6L715.3 50.2L720.9 50.2L720.9 64.5L723.7 64.5L723.7 68.1L720.9 68.1L720.9 72L716.6 72L716.6 68.1ZM710.7 64.5L716.7 64.5L716.7 55.1L716.6 55.1L710.7 64.3L710.7 64.5ZM735.1 72.3L735.1 72.3Q732.4 72.3 730.4 71.0Q728.5 69.6 727.4 67.1Q726.4 64.6 726.4 61.1L726.4 61.1Q726.4 57.6 727.4 55.1Q728.5 52.5 730.4 51.2Q732.4 49.9 735.1 49.9L735.1 49.9Q737.9 49.9 739.8 51.2Q741.8 52.6 742.8 55.1Q743.9 57.6 743.9 61.1L743.9 61.1Q743.9 64.6 742.8 67.1Q741.8 69.6 739.8 71.0Q737.9 72.3 735.1 72.3ZM735.1 68.6L735.1 68.6Q736.5 68.6 737.4 67.7Q738.3 66.8 738.8 65.2Q739.3 63.5 739.3 61.1L739.3 61.1Q739.3 58.7 738.8 57.0Q738.3 55.3 737.4 54.5Q736.5 53.6 735.1 53.6L735.1 53.6Q733.8 53.6 732.8 54.5Q731.9 55.3 731.4 57.0Q730.9 58.7 730.9 61.1L730.9 61.1Q730.9 63.5 731.4 65.2Q731.9 66.8 732.8 67.7Q733.8 68.6 735.1 68.6Z "/></g><mask id="satori_om-id-3-1"><rect x="673" y="81" width="66" height="13" fill="#fff" mask="url(#satori_om-id)"/></mask><g mask="url(#satori_om-id)" clip-path="url(#satori_cp-id)"><path fill="rgba(200,195,225,0.45)" d="M677.2 92.1L677.2 92.1Q676.2 92.1 675.3 91.6Q674.5 91.1 674.0 90.2Q673.5 89.3 673.5 88.0L673.5 88.0Q673.5 86.7 674.0 85.8Q674.5 84.9 675.3 84.4Q676.2 83.9 677.2 83.9L677.2 83.9Q677.9 83.9 678.5 84.1Q679.1 84.3 679.5 84.6Q680.0 85.0 680.3 85.5Q680.6 86.1 680.7 86.7L680.7 86.7L679.0 86.7Q679.0 86.4 678.8 86.1Q678.6 85.9 678.4 85.7Q678.2 85.5 677.9 85.4Q677.6 85.3 677.3 85.3L677.3 85.3Q676.6 85.3 676.2 85.7Q675.7 86.0 675.4 86.6Q675.2 87.2 675.2 88.0L675.2 88.0Q675.2 88.9 675.4 89.5Q675.7 90.1 676.2 90.4Q676.6 90.7 677.2 90.7L677.2 90.7Q677.6 90.7 677.9 90.6Q678.2 90.5 678.4 90.3Q678.6 90.1 678.8 89.8Q679.0 89.6 679.0 89.3L679.0 89.3L680.7 89.3Q680.6 89.8 680.3 90.3Q680.1 90.8 679.6 91.2Q679.2 91.6 678.6 91.9Q678.0 92.1 677.2 92.1ZM686.9 92.1L686.9 92.1Q685.8 92.1 685.0 91.6Q684.1 91.1 683.6 90.2Q683.1 89.3 683.1 88.0L683.1 88.0Q683.1 86.7 683.6 85.8Q684.1 84.9 685.0 84.4Q685.8 83.9 686.9 83.9L686.9 83.9Q687.9 83.9 688.8 84.4Q689.6 84.9 690.1 85.8Q690.6 86.7 690.6 88.0L690.6 88.0Q690.6 89.3 690.1 90.2Q689.6 91.1 688.8 91.6Q687.9 92.1 686.9 92.1ZM686.9 90.7L686.9 90.7Q687.5 90.7 688.0 90.3Q688.4 90.0 688.7 89.5Q688.9 88.9 688.9 88.0L688.9 88.0Q688.9 87.1 688.7 86.5Q688.4 86.0 688.0 85.6Q687.5 85.3 686.9 85.3L686.9 85.3Q686.3 85.3 685.8 85.7Q685.3 86.0 685.1 86.6Q684.8 87.1 684.8 88.0L684.8 88.0Q684.8 88.9 685.1 89.4Q685.3 90.0 685.8 90.3Q686.3 90.7 686.9 90.7ZM695.0 92L693.3 92L693.3 84.0L695.9 84.0L697.2 87.7Q697.2 87.9 697.3 88.3Q697.4 88.7 697.5 89.2L697.5 89.2Q697.7 89.7 697.7 90.1L697.7 90.1Q697.8 89.7 697.9 89.2L697.9 89.2Q698.0 88.8 698.2 88.3Q698.3 87.9 698.3 87.7L698.3 87.7L699.6 84.0L702.1 84.0L702.1 92L700.5 92L700.5 88.2Q700.5 88.0 700.5 87.6Q700.5 87.2 700.5 86.7Q700.5 86.3 700.5 85.8L700.5 85.8Q700.6 85.6 700.6 85.4L700.6 85.4Q700.5 85.6 700.4 85.9L700.4 85.9Q700.3 86.3 700.2 86.8Q700.1 87.2 699.9 87.6Q699.8 88.0 699.8 88.2L699.8 88.2L698.4 92L697.0 92L695.7 88.2Q695.6 88.0 695.5 87.6Q695.4 87.2 695.3 86.8Q695.1 86.4 695.0 85.9L695.0 85.9Q695.0 85.7 694.9 85.5L694.9 85.5Q694.9 85.6 694.9 85.8L694.9 85.8Q694.9 86.2 694.9 86.7Q694.9 87.2 695.0 87.6Q695.0 88.0 695.0 88.2L695.0 88.2L695.0 92ZM706.7 92L705.1 92L705.1 84.0L707.6 84.0L708.9 87.7Q709.0 87.9 709.1 88.3Q709.2 88.7 709.3 89.2L709.3 89.2Q709.4 89.7 709.5 90.1L709.5 90.1Q709.6 89.7 709.7 89.2L709.7 89.2Q709.8 88.8 709.9 88.3Q710.0 87.9 710.1 87.7L710.1 87.7L711.4 84.0L713.9 84.0L713.9 92L712.2 92L712.2 88.2Q712.2 88.0 712.2 87.6Q712.3 87.2 712.3 86.7Q712.3 86.3 712.3 85.8L712.3 85.8Q712.3 85.6 712.3 85.4L712.3 85.4Q712.2 85.6 712.2 85.9L712.2 85.9Q712.1 86.3 711.9 86.8Q711.8 87.2 711.7 87.6Q711.6 88.0 711.5 88.2L711.5 88.2L710.2 92L708.8 92L707.4 88.2Q707.4 88.0 707.3 87.6Q707.1 87.2 707.0 86.8Q706.9 86.4 706.8 85.9L706.8 85.9Q706.7 85.7 706.7 85.5L706.7 85.5Q706.7 85.6 706.7 85.8L706.7 85.8Q706.7 86.2 706.7 86.7Q706.7 87.2 706.7 87.6Q706.7 88.0 706.7 88.2L706.7 88.2L706.7 92ZM716.8 84.0L718.5 84.0L718.5 92L716.8 92L716.8 84.0ZM723.5 85.4L721.1 85.4L721.1 84.0L727.6 84.0L727.6 85.4L725.2 85.4L725.2 92L723.5 92L723.5 85.4ZM733.2 92.1L733.2 92.1Q732.2 92.1 731.5 91.8Q730.8 91.5 730.4 90.9Q730.0 90.4 730.0 89.5L730.0 89.5L731.6 89.5Q731.6 89.9 731.8 90.2Q732.0 90.5 732.4 90.6Q732.7 90.7 733.2 90.7L733.2 90.7Q733.6 90.7 733.9 90.6Q734.3 90.5 734.5 90.2Q734.6 90.0 734.6 89.7L734.6 89.7Q734.6 89.4 734.5 89.3Q734.3 89.1 734.0 88.9Q733.7 88.8 733.3 88.7L733.3 88.7L732.4 88.5Q731.4 88.2 730.8 87.7Q730.2 87.2 730.2 86.3L730.2 86.3Q730.2 85.6 730.6 85.0Q731.0 84.5 731.7 84.2Q732.3 83.9 733.2 83.9L733.2 83.9Q734.1 83.9 734.8 84.2Q735.4 84.5 735.8 85.0Q736.2 85.6 736.2 86.3L736.2 86.3L734.6 86.3Q734.6 85.8 734.2 85.5Q733.8 85.3 733.2 85.3L733.2 85.3Q732.8 85.3 732.5 85.4Q732.2 85.5 732.0 85.7Q731.9 85.9 731.9 86.2L731.9 86.2Q731.9 86.5 732.1 86.7Q732.2 86.9 732.5 87.0Q732.8 87.1 733.2 87.2L733.2 87.2L733.9 87.4Q734.4 87.5 734.8 87.7Q735.3 87.9 735.6 88.2Q735.9 88.4 736.1 88.8Q736.3 89.2 736.3 89.7L736.3 89.7Q736.3 90.4 735.9 91.0Q735.6 91.5 734.9 91.8Q734.2 92.1 733.2 92.1Z "/></g></svg>