<!-- Generated by readme-aura https://github.com/collectioneur/readme-aura -->
<svg width="860" height="140" viewBox="0 0 860 140" xmlns="http://www.w3.org/2000/svg"><defs><clipPath id="satori_bc-id"><path x="0" y="0" width="860" height="140" d="M16,0 h828 a16,16 0 0 1 16,16 v108 a16,16 0 0 1 -16,16 h-828 a16,16 0 0 1 -16,-16 v-108 a16,16 0 0 1 16,-16"/></clipPath></defs><clipPath id="satori_cp-id"><path x="0" y="0" width="860" height="140" d="M16,0 h828 a16,16 0 0 1 16,16 v108 a16,16 0 0 1 -16,16 h-828 a16,16 0 0 1 -16,-16 v-108 a16,16 0 0 1 16,-16"/></clipPath><mask id="satori_om-id"><rect x="1" y="1" width="858" height="138" fill="#fff"/><path width="860" height="140" fill="none" stroke="#000" stroke-width="2" d="M4.686,4.686 A16,16 0 0 1 16,0 h828 a16,16 0 0 1 16,16 v108 a16,16 0 0 1 -16,16 h-828 a16,16 0 0 1 -16,-16 v-108 A16,16 0 0 1 4.686,4.686"/></mask><path x="0" y="0" width="860" height="140" fill="#08080c" d="M16,0 h828 a16,16 0 0 1 16,16 v108 a16,16 0 0 1 -16,16 h-828 a16,16 0 0 1 -16,-16 v-108 a16,16 0 0 1 16,-16"/><path width="860" height="140" clip-path="url(#satori_bc-id)" fill="none" stroke="rgba(110,80,220,0.18)" stroke-width="2" d="M4.686,4.686 A16,16 0 0 1 16,0 h828 a16,16 0 0 1 16,16 v108 a16,16 0 0 1 -16,16 h-828 a16,16 0 0 1 -16,-16 v-108 A16,16 0 0 1 4.686,4.686"/><clipPath id="satori_cp-id-0" clip-path="url(#satori_cp-id)"><rect x="1" y="1" width="860" height="140"/></clipPath><mask id="satori_om-id-0"><rect x="1" y="1" width="860" height="140" fill="#fff" mask="url(#satori_om-id)"/></mask><svg x="1" y="1" width="860" height="140" preserveAspectRatio="none" clip-path="url(#satori_cp-id-0)" mask="url(#satori_om-id-0)"><defs><radialGradient id="g1" cx="50%" cy="50%" r="50%"><stop offset="0%" stop-color="rgba(110,20,210,0.65)"></stop><stop offset="45%" stop-color="rgba(80,15,170,0.28)"></stop><stop offset="70%" stop-color="rgba(80,15,170,0)"></stop></radialGradient><radialGradient id="g2" cx="50%" cy="50%" r="50%"><stop offset="0%" stop-color="rgba(40,70,255,0.55)"></stop><stop offset="45%" stop-color="rgba(20,50,200,0.22)"></stop><stop offset="70%" stop-color="rgba(20,50,200,0)"></stop></radialGradient><radialGradient id="g3" cx="50%" cy="50%" r="50%"><stop offset="0%" stop-color="rgba(0,140,255,0.42)"></stop><stop offset="70%" stop-color="rgba(0,140,255,0)"></stop></radialGradient><radialGradient id="g4" cx="50%" cy="50%" r="50%"><stop offset="0%" stop-color="rgba(0,195,235,0.30)"></stop><stop offset="70%" stop-color="rgba(0,195,235,0)"></stop></radialGradient><radialGradient id="g5" cx="50%" cy="50%" r="50%"><stop offset="0%" stop-color="rgba(100,30,210,0.40)"></stop><stop offset="70%" stop-color="rgba(100,30,210,0)"></stop></radialGradient></defs><ellipse id="glow-1" cx="710" cy="150" rx="210" ry="150" fill="url(#g1)"></ellipse><ellipse id="glow-2" cx="550" cy="140" rx="190" ry="140" fill="url(#g2)"></ellipse><ellipse id="glow-3" cx="400" cy="130" rx="170" ry="130" fill="url(#g3)"></ellipse><ellipse id="glow-4" cx="250" cy="140" rx="150" ry="120" fill="url(#g4)"></ellipse><ellipse id="glow-5" cx="100" cy="150" rx="130" ry="110" fill="url(#g5)"></ellipse><style>

         @keyframes float-slow {
           0%, 100% { transform: translateX(0px); opacity: 0.8; }
           50% { transform: translateX(350px); opacity: 1.2; }
         }
         @keyframes float-medium {
           0%, 100% { transform: translateX(0px); opacity: 0.7; }
           50% { transform: translateX(-250px); opacity: 1.1; }
         }
         @keyframes float-fast {
           0%, 100% { transform: translateX(0px); opacity: 0.9; }
           50% { transform: translateX(200px); opacity: 0.6; }
         }
         @keyframes float-diagonal {
           0%, 100% { transform: translate(0px, 0px); opacity: 0.75; }
           50% { transform: translate(120px, 30px); opacity: 1.0; }
         }
         @keyframes float-wave {
           0%, 100% { transform: translateX(0px); opacity: 0.65; }
           33% { transform: translateX(-160px); opacity: 0.9; }
           66% { transform: translateX(80px); opacity: 1.0; }
         }
         @keyframes float-pulse {
           0%, 100% { transform: scale(1); opacity: 0.8; }
           50% { transform: scale(1.3); opacity: 0.4; }
         }
         #glow-1 { animation: float-slow 8s ease-in-out infinite; }
         #glow-2 { animation: float-medium 12s ease-in-out infinite; }
         #glow-3 { animation: float-fast 9s ease-in-out infinite; }
         #glow-4 { animation: float-diagonal 10s ease-in-out infinite; }
         #glow-5 { animation: float-wave 14s ease-in-out infinite; }
       
</style>
</svg><mask id="satori_om-id-0-0"><rect x="1" y="1" width="0" height="140" fill="#fff" mask="url(#satori_om-id)"/></mask><mask id="satori_om-id-0-0-0"><rect x="1" y="1" width="0" height="140" fill="#fff" mask="url(#satori_om-id)"/></mask><mask id="satori_om-id-0-0-0-0"><rect x="1" y="1" width="0" height="140" fill="#fff" mask="url(#satori_om-id)"/></mask><mask id="satori_om-id-0-0-0-1"><rect x="1" y="1" width="0" height="140" fill="#fff" mask="url(#satori_om-id)"/></mask><mask id="satori_om-id-0-0-0-2"><rect x="1" y="1" width="0" height="140" fill="#fff" mask="url(#satori_om-id)"/></mask><mask id="satori_om-id-0-0-1"><rect x="1" y="1" width="0" height="140" fill="#fff" mask="url(#satori_om-id)"/></mask><mask id="satori_om-id-0-0-1-0"><rect x="1" y="1" width="0" height="140" fill="#fff" mask="url(#satori_om-id)"/></mask><mask id="satori_om-id-0-0-1-1"><rect x="1" y="1" width="0" height="140" fill="#fff" mask="url(#satori_om-id)"/></mask><mask id="satori_om-id-0-0-1-2"><rect x="1" y="1" width="0" height="140" fill="#fff" mask="url(#satori_om-id)"/></mask><mask id="satori_om-id-0-0-2"><rect x="1" y="1" width="0" height="140" fill="#fff" mask="url(#satori_om-id)"/></mask><mask id="satori_om-id-0-0-2-0"><rect x="1" y="1" width="0" height="140" fill="#fff" mask="url(#satori_om-id)"/></mask><mask id="satori_om-id-0-0-2-1"><rect x="1" y="1" width="0" height="140" fill="#fff" mask="url(#satori_om-id)"/></mask><mask id="satori_om-id-0-0-3"><rect x="1" y="1" width="0" height="140" fill="#fff" mask="url(#satori_om-id)"/></mask><mask id="satori_om-id-0-0-3-0"><rect x="1" y="1" width="0" height="140" fill="#fff" mask="url(#satori_om-id)"/></mask><mask id="satori_om-id-0-0-3-1"><rect x="1" y="1" width="0" height="140" fill="#fff" mask="url(#satori_om-id)"/></mask><mask id="satori_om-id-0-0-4"><rect x="1" y="1" width="0" height="140" fill="#fff" mask="url(#satori_om-id)"/></mask><mask id="satori_om-id-0-0-4-0"><rect x="1" y="1" width="0" height="140" fill="#fff" mask="url(#satori_om-id)"/></mask><mask id="satori_om-id-0-0-4-1"><rect x="1" y="1" width="0" height="140" fill="#fff" mask="url(#satori_om-id)"/></mask><mask id="satori_om-id-0-1"><rect x="1" y="1" width="0" height="140" fill="#fff" mask="url(#satori_om-id)"/></mask><mask id="satori_om-id-0-2"><rect x="1" y="1" width="0" height="140" fill="#fff" mask="url(#satori_om-id)"/></mask><mask id="satori_om-id-0-3"><rect x="1" y="1" width="0" height="140" fill="#fff" mask="url(#satori_om-id)"/></mask><mask id="satori_om-id-0-4"><rect x="1" y="1" width="0" height="140" fill="#fff" mask="url(#satori_om-id)"/></mask><mask id="satori_om-id-0-5"><rect x="1" y="1" width="0" height="140" fill="#fff" mask="url(#satori_om-id)"/></mask><defs><clipPath id="satori_bc-id-1" clip-path="url(#satori_cp-id)"><rect x="1" y="30" width="275" height="80"/></clipPath></defs><mask id="satori_om-id-1"><rect x="1" y="30" width="274" height="80" fill="#fff" mask="url(#satori_om-id)"/><path width="275" height="80" fill="none" stroke="#000" stroke-width="2" d="M276,30 A0,0 0 0 1 276,30 v80 A0,0 0 0 1 276,110"/></mask><path width="275" height="80" clip-path="url(#satori_bc-id-1)" fill="none" stroke="rgba(255,255,255,0.06)" stroke-width="2" d="M276,30 A0,0 0 0 1 276,30 v80 A0,0 0 0 1 276,110"/><mask id="satori_om-id-1-0"><rect x="122" y="46" width="33" height="30" fill="#fff" mask="url(#satori_om-id)"/></mask><g mask="url(#satori_om-id)" clip-path="url(#satori_cp-id)"><path fill="#a78bfa" d="M128.2 50.2L133.0 50.2L133.0 72L128.5 72L128.5 54.1L128.4 54.1L123.4 57.7L123.4 53.6L128.2 50.2ZM144.6 72.3L144.6 72.3Q142.2 72.3 140.4 71.5Q138.5 70.7 137.5 69.2Q136.4 67.8 136.4 65.9L136.4 65.9L140.9 65.9Q140.9 66.7 141.4 67.3Q141.9 67.9 142.7 68.3Q143.6 68.6 144.6 68.6L144.6 68.6Q145.7 68.6 146.5 68.2Q147.3 67.8 147.8 67.2Q148.3 66.5 148.3 65.6L148.3 65.6Q148.3 64.7 147.8 64.0Q147.3 63.3 146.4 62.9Q145.5 62.5 144.2 62.5L144.2 62.5L142.2 62.5L142.2 59.2L144.2 59.2Q145.3 59.2 146.1 58.8Q146.9 58.5 147.3 57.8Q147.8 57.2 147.8 56.3L147.8 56.3Q147.8 55.4 147.4 54.8Q147.0 54.2 146.3 53.8Q145.6 53.5 144.6 53.5L144.6 53.5Q143.7 53.5 142.9 53.8Q142.1 54.1 141.6 54.8Q141.1 55.4 141.1 56.2L141.1 56.2L136.8 56.2Q136.8 54.4 137.9 52.9Q138.9 51.5 140.7 50.7Q142.4 49.9 144.7 49.9L144.7 49.9Q146.9 49.9 148.6 50.7Q150.3 51.5 151.2 52.9Q152.1 54.3 152.1 56.0L152.1 56.0Q152.1 57.8 151.0 59.1Q149.9 60.3 148.0 60.6L148.0 60.6L148.0 60.8Q149.6 61.0 150.7 61.7Q151.8 62.4 152.4 63.5Q152.9 64.5 152.9 65.9L152.9 65.9Q152.9 67.7 151.9 69.2Q150.8 70.6 148.9 71.5Q147.0 72.3 144.6 72.3Z "/></g><mask id="satori_om-id-1-1"><rect x="116" y="81" width="45" height="13" fill="#fff" mask="url(#satori_om-id)"/></mask><g mask="url(#satori_om-id)" clip-path="url(#satori_cp-id)"><path fill="rgba(200,195,225,0.45)" d="M118.4 92L116.7 92L116.7 84.0L119.8 84.0Q120.8 84.0 121.4 84.3Q122.0 84.6 122.4 85.2Q122.7 85.8 122.7 86.6Q122.7 87.4 122.4 88.0Q122.0 88.5 121.4 88.8L121.4 88.8Q121.3 88.9 121.3 88.9L121.3 88.9L123.0 92L121.2 92L119.6 89.1L118.4 89.1L118.4 92ZM118.4 85.4L118.4 87.8L119.5 87.8Q120.0 87.8 120.4 87.7Q120.7 87.5 120.9 87.3Q121.0 87.0 121.0 86.6L121.0 86.6Q121.0 86.2 120.9 85.9Q120.7 85.6 120.4 85.5Q120.0 85.4 119.5 85.4L119.5 85.4L118.4 85.4ZM130.8 92L125.4 92L125.4 84.0L130.8 84.0L130.8 85.4L127.1 85.4L127.1 87.3L130.5 87.3L130.5 88.6L127.1 88.6L127.1 90.6L130.8 90.6L130.8 92ZM135.3 92L133.6 92L133.6 84.0L136.8 84.0Q137.7 84.0 138.3 84.3Q138.9 84.7 139.3 85.3Q139.6 85.9 139.6 86.7L139.6 86.7Q139.6 87.5 139.3 88.1Q138.9 88.7 138.3 89.0Q137.6 89.4 136.7 89.4L136.7 89.4L135.3 89.4L135.3 92ZM135.3 85.4L135.3 88.1L136.5 88.1Q137.0 88.1 137.3 87.9Q137.6 87.7 137.8 87.4Q137.9 87.1 137.9 86.7Q137.9 86.3 137.8 86.0Q137.6 85.7 137.3 85.5Q137.0 85.4 136.4 85.4L136.4 85.4L135.3 85.4ZM145.8 92.1L145.8 92.1Q144.7 92.1 143.9 91.6Q143.0 91.1 142.5 90.2Q142.0 89.3 142.0 88.0L142.0 88.0Q142.0 86.7 142.5 85.8Q143.0 84.9 143.9 84.4Q144.7 83.9 145.8 83.9L145.8 83.9Q146.8 83.9 147.7 84.4Q148.5 84.9 149.0 85.8Q149.5 86.7 149.5 88.0L149.5 88.0Q149.5 89.3 149.0 90.2Q148.5 91.1 147.7 91.6Q146.8 92.1 145.8 92.1ZM145.8 90.7L145.8 90.7Q146.4 90.7 146.9 90.3Q147.3 90.0 147.6 89.5Q147.8 88.9 147.8 88.0L147.8 88.0Q147.8 87.1 147.6 86.5Q147.3 86.0 146.9 85.6Q146.4 85.3 145.8 85.3L145.8 85.3Q145.2 85.3 144.7 85.7Q144.2 86.0 144.0 86.6Q143.7 87.1 143.7 88.0L143.7 88.0Q143.7 88.9 144.0 89.4Q144.2 90.0 144.7 90.3Q145.2 90.7 145.8 90.7ZM155.2 92.1L155.2 92.1Q154.2 92.1 153.5 91.8Q152.8 91.5 152.4 90.9Q152.0 90.4 152.0 89.5L152.0 89.5L153.6 89.5Q153.6 89.9 153.8 90.2Q154.0 90.5 154.4 90.6Q154.7 90.7 155.2 90.7L155.2 90.7Q155.6 90.7 155.9 90.6Q156.2 90.5 156.4 90.2Q156.6 90.0 156.6 89.7L156.6 89.7Q156.6 89.4 156.4 89.3Q156.3 89.1 156.0 88.9Q155.7 88.8 155.2 88.7L155.2 88.7L154.3 88.5Q153.3 88.2 152.8 87.7Q152.2 87.2 152.2 86.3L152.2 86.3Q152.2 85.6 152.6 85.0Q153.0 84.5 153.6 84.2Q154.3 83.9 155.2 83.9L155.2 83.9Q156.1 83.9 156.7 84.2Q157.4 84.5 157.8 85.0Q158.1 85.6 158.1 86.3L158.1 86.3L156.6 86.3Q156.5 85.8 156.2 85.5Q155.8 85.3 155.2 85.3L155.2 85.3Q154.8 85.3 154.5 85.4Q154.2 85.5 154.0 85.7Q153.9 85.9 153.9 86.2L153.9 86.2Q153.9 86.5 154.0 86.7Q154.2 86.9 154.5 87.0Q154.8 87.1 155.1 87.2L155.1 87.2L155.9 87.4Q156.4 87.5 156.8 87.7Q157.2 87.9 157.6 88.2Q157.9 88.4 158.1 88.8Q158.3 89.2 158.3 89.7L158.3 89.7Q158.3 90.4 157.9 91.0Q157.5 91.5 156.8 91.8Q156.1 92.1 155.2 92.1Z "/></g><defs><clipPath id="satori_bc-id-2" clip-path="url(#satori_cp-id)"><rect x="276" y="30" width="283" height="80"/></clipPath></defs><mask id="satori_om-id-2"><rect x="276" y="30" width="282" height="80" fill="#fff" mask="url(#satori_om-id)"/><path width="283" height="80" fill="none" stroke="#000" stroke-width="2" d="M559,30 A0,0 0 0 1 559,30 v80 A0,0 0 0 1 559,110"/></mask><path width="283" height="80" clip-path="url(#satori_bc-id-2)" fill="none" stroke="rgba(255,255,255,0.06)" stroke-width="2" d="M559,30 A0,0 0 0 1 559,30 v80 A0,0 0 0 1 559,110"/><mask id="satori_om-id-2-0"><rect x="391" y="46" width="53" height="30" fill="#fff" mask="url(#satori_om-id)"/></mask><g mask="url(#satori_om-id)" clip-path="url(#satori_cp-id)"><path fill="#60a5fa" d="M397.2 50.2L402.0 50.2L402.0 72L397.5 72L397.5 54.1L397.4 54.1L392.4 57.7L392.4 53.6L397.2 50.2ZM414.0 72.3L414.0 72.3Q411.3 72.3 409.3 71.0Q407.4 69.6 406.4 67.1Q405.3 64.6 405.3 61.1L405.3 61.1Q405.3 57.6 406.4 55.1Q407.4 52.5 409.3 51.2Q411.3 49.9 414.0 49.9L414.0 49.9Q416.8 49.9 418.8 51.2Q420.7 52.6 421.7 55.1Q422.8 57.6 422.8 61.1L422.8 61.1Q422.8 64.6 421.8 67.1Q420.7 69.6 418.8 71.0Q416.8 72.3 414.0 72.3ZM414.0 68.6L414.0 68.6Q415.4 68.6 416.3 67.7Q417.3 66.8 417.7 65.2Q418.2 63.5 418.2 61.1L418.2 61.1Q418.2 58.7 417.7 57.0Q417.3 55.3 416.3 54.5Q415.4 53.6 414.0 53.6L414.0 53.6Q412.7 53.6 411.8 54.5Q410.8 55.3 410.4 57.0Q409.9 58.7 409.9 61.1L409.9 61.1Q409.9 63.5 410.4 65.2Q410.8 66.8 411.8 67.7Q412.7 68.6 414.0 68.6ZM441.4 72L426.0 72L426.0 68.8L433.7 61.5Q434.7 60.6 435.4 59.8Q436.1 59.0 436.4 58.2Q436.8 57.5 436.8 56.6L436.8 56.6Q436.8 55.6 436.4 54.9Q435.9 54.2 435.2 53.8Q434.4 53.5 433.4 53.5L433.4 53.5Q432.4 53.5 431.6 53.9Q430.9 54.3 430.5 55.0Q430.1 55.8 430.1 56.9L430.1 56.9L425.8 56.9Q425.8 54.7 426.7 53.2Q427.7 51.6 429.5 50.7Q431.2 49.9 433.4 49.9L433.4 49.9Q435.8 49.9 437.5 50.7Q439.2 51.5 440.2 53.0Q441.1 54.4 441.1 56.3L441.1 56.3Q441.1 57.5 440.7 58.7Q440.2 59.9 439.0 61.4Q437.7 62.9 435.5 64.9L435.5 64.9L432.2 68.2L432.2 68.3L441.4 68.3L441.4 72Z "/></g><mask id="satori_om-id-2-1"><rect x="395" y="81" width="45" height="13" fill="#fff" mask="url(#satori_om-id)"/></mask><g mask="url(#satori_om-id)" clip-path="url(#satori_cp-id)"><path fill="rgba(200,195,225,0.45)" d="M398.7 92.1L398.7 92.1Q397.7 92.1 397.0 91.8Q396.3 91.5 395.9 90.9Q395.5 90.4 395.5 89.5L395.5 89.5L397.1 89.5Q397.1 89.9 397.3 90.2Q397.5 90.5 397.9 90.6Q398.2 90.7 398.6 90.7L398.6 90.7Q399.1 90.7 399.4 90.6Q399.7 90.5 399.9 90.2Q400.1 90.0 400.1 89.7L400.1 89.7Q400.1 89.4 399.9 89.3Q399.8 89.1 399.5 88.9Q399.2 88.8 398.7 88.7L398.7 88.7L397.8 88.5Q396.8 88.2 396.2 87.7Q395.7 87.2 395.7 86.3L395.7 86.3Q395.7 85.6 396.1 85.0Q396.5 84.5 397.1 84.2Q397.8 83.9 398.7 83.9L398.7 83.9Q399.6 83.9 400.2 84.2Q400.9 84.5 401.3 85.0Q401.6 85.6 401.6 86.3L401.6 86.3L400.1 86.3Q400.0 85.8 399.6 85.5Q399.3 85.3 398.7 85.3L398.7 85.3Q398.2 85.3 398.0 85.4Q397.7 85.5 397.5 85.7Q397.4 85.9 397.4 86.2L397.4 86.2Q397.4 86.5 397.5 86.7Q397.7 86.9 398.0 87.0Q398.3 87.1 398.6 87.2L398.6 87.2L399.4 87.4Q399.9 87.5 400.3 87.7Q400.7 87.9 401.1 88.2Q401.4 88.4 401.6 88.8Q401.7 89.2 401.7 89.7L401.7 89.7Q401.7 90.4 401.4 91.0Q401.0 91.5 400.3 91.8Q399.6 92.1 398.7 92.1ZM406.6 85.4L404.1 85.4L404.1 84.0L410.6 84.0L410.6 85.4L408.2 85.4L408.2 92L406.6 92L406.6 85.4ZM414.6 92L412.8 92L415.5 84.0L417.7 84.0L420.5 92L418.7 92L418.1 90.1L415.2 90.1L414.6 92ZM415.6 88.9L417.6 88.9L417.4 88.1Q417.2 87.4 416.9 86.5L416.9 86.5Q416.8 85.9 416.6 85.3L416.6 85.3Q416.4 85.9 416.3 86.5L416.3 86.5Q416.1 87.4 415.9 88.1L415.9 88.1L415.6 88.9ZM424.6 92L423.0 92L423.0 84.0L426.1 84.0Q427.0 84.0 427.7 84.3Q428.3 84.6 428.6 85.2Q429.0 85.8 429.0 86.6Q429.0 87.4 428.6 88.0Q428.3 88.5 427.6 88.8L427.6 88.8Q427.6 88.9 427.5 88.9L427.5 88.9L429.3 92L427.4 92L425.9 89.1L424.6 89.1L424.6 92ZM424.6 85.4L424.6 87.8L425.8 87.8Q426.3 87.8 426.6 87.7Q427.0 87.5 427.1 87.3Q427.3 87.0 427.3 86.6L427.3 86.6Q427.3 86.2 427.1 85.9Q427.0 85.6 426.6 85.5Q426.3 85.4 425.8 85.4L425.8 85.4L424.6 85.4ZM434.6 92.1L434.6 92.1Q433.7 92.1 433.0 91.8Q432.3 91.5 431.9 90.9Q431.5 90.4 431.4 89.5L431.4 89.5L433.0 89.5Q433.1 89.9 433.3 90.2Q433.5 90.5 433.8 90.6Q434.2 90.7 434.6 90.7L434.6 90.7Q435.1 90.7 435.4 90.6Q435.7 90.5 435.9 90.2Q436.1 90.0 436.1 89.7L436.1 89.7Q436.1 89.4 435.9 89.3Q435.8 89.1 435.4 88.9Q435.1 88.8 434.7 88.7L434.7 88.7L433.8 88.5Q432.8 88.2 432.2 87.7Q431.7 87.2 431.7 86.3L431.7 86.3Q431.7 85.6 432.0 85.0Q432.4 84.5 433.1 84.2Q433.8 83.9 434.7 83.9L434.7 83.9Q435.5 83.9 436.2 84.2Q436.9 84.5 437.2 85.0Q437.6 85.6 437.6 86.3L437.6 86.3L436.0 86.3Q436.0 85.8 435.6 85.5Q435.3 85.3 434.6 85.3L434.6 85.3Q434.2 85.3 433.9 85.4Q433.6 85.5 433.5 85.7Q433.3 85.9 433.3 86.2L433.3 86.2Q433.3 86.5 433.5 86.7Q433.7 86.9 434.0 87.0Q434.3 87.1 434.6 87.2L434.6 87.2L435.3 87.4Q435.8 87.5 436.3 87.7Q436.7 87.9 437.0 88.2Q437.4 88.4 437.5 88.8Q437.7 89.2 437.7 89.7L437.7 89.7Q437.7 90.4 437.4 91.0Q437.0 91.5 436.3 91.8Q435.6 92.1 434.6 92.1Z "/></g><mask id="satori_om-id-3"><rect x="559" y="30" width="300" height="80" fill="#fff" mask="url(#satori_om-id)"/></mask><mask id="satori_om-id-3-0"><rect x="674" y="46" width="71" height="30" fill="#fff" mask="url(#satori_om-id)"/></mask><g mask="url(#satori_om-id)" clip-path="url(#satori_cp-id)"><path fill="#f59e0b" d="M691.3 72L675.8 72L675.8 68.8L683.6 61.5Q684.5 60.6 685.2 59.8Q685.9 59.0 686.3 58.2Q686.6 57.5 686.6 56.6L686.6 56.6Q686.6 55.6 686.2 54.9Q685.7 54.2 685.0 53.8Q684.2 53.5 683.2 53.5L683.2 53.5Q682.2 53.5 681.5 53.9Q680.7 54.3 680.3 55.0Q679.9 55.8 679.9 56.9L679.9 56.9L675.6 56.9Q675.6 54.7 676.6 53.2Q677.6 51.6 679.3 50.7Q681.0 49.9 683.3 49.9L683.3 49.9Q685.6 49.9 687.3 50.7Q689.0 51.5 690.0 53.0Q691.0 54.4 691.0 56.3L691.0 56.3Q691.0 57.5 690.5 58.7Q690.0 59.9 688.8 61.4Q687.6 62.9 685.3 64.9L685.3 64.9L682.0 68.2L682.0 68.3L691.3 68.3L691.3 72ZM702.5 72.3L702.5 72.3Q700.2 72.3 698.3 71.5Q696.5 70.7 695.4 69.2Q694.4 67.8 694.3 65.9L694.3 65.9L698.8 65.9Q698.9 66.7 699.4 67.3Q699.9 67.9 700.7 68.3Q701.5 68.6 702.6 68.6L702.6 68.6Q703.6 68.6 704.5 68.2Q705.3 67.8 705.8 67.2Q706.2 66.5 706.2 65.6L706.2 65.6Q706.2 64.7 705.7 64.0Q705.2 63.3 704.3 62.9Q703.4 62.5 702.2 62.5L702.2 62.5L700.1 62.5L700.1 59.2L702.2 59.2Q703.2 59.2 704.0 58.8Q704.8 58.5 705.3 57.8Q705.8 57.2 705.8 56.3L705.8 56.3Q705.8 55.4 705.4 54.8Q705.0 54.2 704.3 53.8Q703.5 53.5 702.6 53.5L702.6 53.5Q701.6 53.5 700.9 53.8Q700.1 54.1 699.6 54.8Q699.1 55.4 699.1 56.2L699.1 56.2L694.8 56.2Q694.8 54.4 695.8 52.9Q696.9 51.5 698.6 50.7Q700.4 49.9 702.6 49.9L702.6 49.9Q704.9 49.9 706.5 50.7Q708.2 51.5 709.2 52.9Q710.1 54.3 710.1 56.0L710.1 56.0Q710.1 57.8 709.0 59.1Q707.8 60.3 706.0 60.6L706.0 60.6L706.0 60.8Q707.6 61.0 708.7 61.7Q709.8 62.4 710.3 63.5Q710.9 64.5 710.9 65.9L710.9 65.9Q710.9 67.7 709.8 69.2Q708.7 70.6 706.9 71.5Q705.0 72.3 702.5 72.3ZM722.3 72.3L722.3 72.3Q720.6 72.3 719.1 71.7Q717.5 71.2 716.3 69.9Q715.1 68.7 714.4 66.7Q713.6 64.6 713.6 61.6L713.6 61.6Q713.6 58.8 714.3 56.7Q714.9 54.5 716.0 53.0Q717.2 51.5 718.8 50.7Q720.4 49.9 722.4 49.9L722.4 49.9Q724.6 49.9 726.3 50.7Q727.9 51.6 728.9 53.0Q729.9 54.4 730.1 56.2L730.1 56.2L725.8 56.2Q725.5 55.1 724.6 54.4Q723.7 53.7 722.4 53.7L722.4 53.7Q721.0 53.7 720.0 54.6Q719.0 55.4 718.5 57.0Q718.0 58.6 718.0 60.7L718.0 60.7L718.2 60.7Q718.7 59.8 719.5 59.1Q720.3 58.4 721.4 58.0Q722.5 57.7 723.7 57.7L723.7 57.7Q725.6 57.7 727.1 58.6Q728.6 59.5 729.5 61.1Q730.4 62.7 730.4 64.7L730.4 64.7Q730.4 66.9 729.4 68.6Q728.3 70.3 726.5 71.3Q724.7 72.3 722.3 72.3ZM722.3 68.7L722.3 68.7Q723.3 68.7 724.2 68.2Q725.0 67.7 725.5 66.8Q726.0 65.9 726.0 64.8L726.0 64.8Q726.0 63.7 725.5 62.8Q725.1 62.0 724.2 61.4Q723.4 60.9 722.3 60.9L722.3 60.9Q721.5 60.9 720.8 61.2Q720.1 61.5 719.6 62.1Q719.1 62.6 718.8 63.3Q718.5 64.0 718.5 64.8L718.5 64.8Q718.5 65.9 719.0 66.8Q719.5 67.7 720.3 68.2Q721.2 68.7 722.3 68.7ZM737.9 50.2L742.7 50.2L742.7 72L738.2 72L738.2 54.1L738.1 54.1L733.1 57.7L733.1 53.6L737.9 50.2Z "/></g><mask id="satori_om-id-3-1"><rect x="676" y="81" width="66" height="13" fill="#fff" mask="url(#satori_om-id)"/></mask><g mask="url(#satori_om-id)" clip-path="url(#satori_cp-id)"><path fill="rgba(200,195,225,0.45)" d="M680.2 92.1L680.2 92.1Q679.2 92.1 678.3 91.6Q677.5 91.1 677.0 90.2Q676.5 89.3 676.5 88.0L676.5 88.0Q676.5 86.7 677.0 85.8Q677.5 84.9 678.3 84.4Q679.2 83.9 680.2 83.9L680.2 83.9Q680.9 83.9 681.5 84.1Q682.1 84.3 682.5 84.6Q683.0 85.0 683.3 85.5Q683.6 86.1 683.7 86.7L683.7 86.7L682.0 86.7Q682.0 86.4 681.8 86.1Q681.6 85.9 681.4 85.7Q681.2 85.5 680.9 85.4Q680.6 85.3 680.3 85.3L680.3 85.3Q679.6 85.3 679.2 85.7Q678.7 86.0 678.4 86.6Q678.2 87.2 678.2 88.0L678.2 88.0Q678.2 88.9 678.4 89.5Q678.7 90.1 679.2 90.4Q679.6 90.7 680.2 90.7L680.2 90.7Q680.6 90.7 680.9 90.6Q681.2 90.5 681.4 90.3Q681.6 90.1 681.8 89.8Q682.0 89.6 682.0 89.3L682.0 89.3L683.7 89.3Q683.6 89.8 683.3 90.3Q683.1 90.8 682.6 91.2Q682.2 91.6 681.6 91.9Q681.0 92.1 680.2 92.1ZM689.9 92.1L689.9 92.1Q688.8 92.1 688.0 91.6Q687.1 91.1 686.6 90.2Q686.1 89.3 686.1 88.0L686.1 88.0Q686.1 86.7 686.6 85.8Q687.1 84.9 688.0 84.4Q688.8 83.9 689.9 83.9L689.9 83.9Q690.9 83.9 691.8 84.4Q692.6 84.9 693.1 85.8Q693.6 86.7 693.6 88.0L693.6 88.0Q693.6 89.3 693.1 90.2Q692.6 91.1 691.8 91.6Q690.9 92.1 689.9 92.1ZM689.9 90.7L689.9 90.7Q690.5 90.7 691.0 90.3Q691.4 90.0 691.7 89.5Q691.9 88.9 691.9 88.0L691.9 88.0Q691.9 87.1 691.7 86.5Q691.4 86.0 691.0 85.6Q690.5 85.3 689.9 85.3L689.9 85.3Q689.3 85.3 688.8 85.7Q688.3 86.0 688.1 86.6Q687.8 87.1 687.8 88.0L687.8 88.0Q687.8 88.9 688.1 89.4Q688.3 90.0 688.8 90.3Q689.3 90.7 689.9 90.7ZM698.0 92L696.3 92L696.3 84.0L698.9 84.0L700.2 87.7Q700.2 87.9 700.3 88.3Q700.4 88.7 700.5 89.2L700.5 89.2Q700.7 89.7 700.7 90.1L700.7 90.1Q700.8 89.7 700.9 89.2L700.9 89.2Q701.0 88.8 701.2 88.3Q701.3 87.9 701.3 87.7L701.3 87.7L702.6 84.0L705.1 84.0L705.1 92L703.5 92L703.5 88.2Q703.5 88.0 703.5 87.6Q703.5 87.2 703.5 86.7Q703.5 86.3 703.5 85.8L703.5 85.8Q703.6 85.6 703.6 85.4L703.6 85.4Q703.5 85.6 703.4 85.9L703.4 85.9Q703.3 86.3 703.2 86.8Q703.1 87.2 702.9 87.6Q702.8 88.0 702.8 88.2L702.8 88.2L701.4 92L700.0 92L698.7 88.2Q698.6 88.0 698.5 87.6Q698.4 87.2 698.3 86.8Q698.1 86.4 698.0 85.9L698.0 85.9Q698.0 85.7 697.9 85.5L697.9 85.5Q697.9 85.6 697.9 85.8L697.9 85.8Q697.9 86.2 697.9 86.7Q697.9 87.2 698.0 87.6Q698.0 88.0 698.0 88.2L698.0 88.2L698.0 92ZM709.7 92L708.1 92L708.1 84.0L710.6 84.0L711.9 87.7Q712.0 87.9 712.1 88.3Q712.2 88.7 712.3 89.2L712.3 89.2Q712.4 89.7 712.5 90.1L712.5 90.1Q712.6 89.7 712.7 89.2L712.7 89.2Q712.8 88.8 712.9 88.3Q713.0 87.9 713.1 87.7L713.1 87.7L714.4 84.0L716.9 84.0L716.9 92L715.2 92L715.2 88.2Q715.2 88.0 715.2 87.6Q715.3 87.2 715.3 86.7Q715.3 86.3 715.3 85.8L715.3 85.8Q715.3 85.6 715.3 85.4L715.3 85.4Q715.2 85.6 715.2 85.9L715.2 85.9Q715.1 86.3 714.9 86.8Q714.8 87.2 714.7 87.6Q714.6 88.0 714.5 88.2L714.5 88.2L713.2 92L711.8 92L710.4 88.2Q710.4 88.0 710.3 87.6Q710.1 87.2 710.0 86.8Q709.9 86.4 709.8 85.9L709.8 85.9Q709.7 85.7 709.7 85.5L709.7 85.5Q709.7 85.6 709.7 85.8L709.7 85.8Q709.7 86.2 709.7 86.7Q709.7 87.2 709.7 87.6Q709.7 88.0 709.7 88.2L709.7 88.2L709.7 92ZM719.8 84.0L721.5 84.0L721.5 92L719.8 92L719.8 84.0ZM726.5 85.4L724.1 85.4L724.1 84.0L730.6 84.0L730.6 85.4L728.2 85.4L728.2 92L726.5 92L726.5 85.4ZM736.2 92.1L736.2 92.1Q735.2 92.1 734.5 91.8Q733.8 91.5 733.4 90.9Q733.0 90.4 733.0 89.5L733.0 89.5L734.6 89.5Q734.6 89.9 734.8 90.2Q735.0 90.5 735.4 90.6Q735.7 90.7 736.2 90.7L736.2 90.7Q736.6 90.7 736.9 90.6Q737.3 90.5 737.5 90.2Q737.6 90.0 737.6 89.7L737.6 89.7Q737.6 89.4 737.5 89.3Q737.3 89.1 737.0 88.9Q736.7 88.8 736.3 88.7L736.3 88.7L735.4 88.5Q734.4 88.2 733.8 87.7Q733.2 87.2 733.2 86.3L733.2 86.3Q733.2 85.6 733.6 85.0Q734.0 84.5 734.7 84.2Q735.3 83.9 736.2 83.9L736.2 83.9Q737.1 83.9 737.8 84.2Q738.4 84.5 738.8 85.0Q739.2 85.6 739.2 86.3L739.2 86.3L737.6 86.3Q737.6 85.8 737.2 85.5Q736.8 85.3 736.2 85.3L736.2 85.3Q735.8 85.3 735.5 85.4Q735.2 85.5 735.0 85.7Q734.9 85.9 734.9 86.2L734.9 86.2Q734.9 86.5 735.1 86.7Q735.2 86.9 735.5 87.0Q735.8 87.1 736.2 87.2L736.2 87.2L736.9 87.4Q737.4 87.5 737.8 87.7Q738.3 87.9 738.6 88.2Q738.9 88.4 739.1 88.8Q739.3 89.2 739.3 89.7L739.3 89.7Q739.3 90.4 738.9 91.0Q738.6 91.5 737.9 91.8Q737.2 92.1 736.2 92.1Z "/></g></svg>