<!-- Generated by readme-aura https://github.com/collectioneur/readme-aura -->
<svg width="860" height="140" viewBox="0 0 860 140" xmlns="http://www.w3.org/2000/svg"><defs><clipPath id="satori_bc-id"><path x="0" y="0" width="860" height="140" d="M16,0 h828 a16,16 0 0 1 16,16 v108 a16,16 0 0 1 -16,16 h-828 a16,16 0 0 1 -16,-16 v-108 a16,16 0 0 1 16,-16"/></clipPath></defs><clipPath id="satori_cp-id"><path x="0" y="0" width="860" height="140" d="M16,0 h828 a16,16 0 0 1 16,16 v108 a16,16 0 0 1 -16,16 h-828 a16,16 0 0 1 -16,-16 v-108 a16,16 0 0 1 16,-16"/></clipPath><mask id="satori_om-id"><rect x="1" y="1" width="858" height="138" fill="#fff"/><path width="860" height="140" fill="none" stroke="#000" stroke-width="2" d="M4.686,4.686 A16,16 0 0 1 16,0 h828 a16,16 0 0 1 16,16 v108 a16,16 0 0 1 -16,16 h-828 a16,16 0 0 1 -16,-16 v-108 A16,16 0 0 1 4.686,4.686"/></mask><path x="0" y="0" width="860" height="140" fill="#08080c" d="M16,0 h828 a16,16 0 0 1 16,16 v108 a16,16 0 0 1 -16,16 h-828 a16,16 0 0 1 -16,-16 v-108 a16,16 0 0 1 16,-16"/><path width="860" height="140" clip-path="url(#satori_bc-id)" fill="none" stroke="rgba(110,80,220,0.18)" stroke-width="2" d="M4.686,4.686 A16,16 0 0 1 16,0 h828 a16,16 0 0 1 16,16 v108 a16,16 0 0 1 -16,16 h-828 a16,16 0 0 1 -16,-16 v-108 A16,16 0 0 1 4.686,4.686"/><clipPath id="satori_cp-id-0" clip-path="url(#satori_cp-id)"><rect x="1" y="1" width="860" height="140"/></clipPath><mask id="satori_om-id-0"><rect x="1" y="1" width="860" height="140" fill="#fff" mask="url(#satori_om-id)"/></mask><svg x="1" y="1" width="860" height="140" preserveAspectRatio="none" clip-path="url(#satori_cp-id-0)" mask="url(#satori_om-id-0)"><defs><radialGradient id="g1" cx="50%" cy="50%" r="50%"><stop offset="0%" stop-color="rgba(110,20,210,0.65)"></stop><stop offset="45%" stop-color="rgba(80,15,170,0.28)"></stop><stop offset="70%" stop-color="rgba(80,15,170,0)"></stop></radialGradient><radialGradient id="g2" cx="50%" cy="50%" r="50%"><stop offset="0%" stop-color="rgba(40,70,255,0.55)"></stop><stop offset="45%" stop-color="rgba(20,50,200,0.22)"></stop><stop offset="70%" stop-color="rgba(20,50,200,0)"></stop></radialGradient><radialGradient id="g3" cx="50%" cy="50%" r="50%"><stop offset="0%" stop-color="rgba(0,140,255,0.42)"></stop><stop offset="70%" stop-color="rgba(0,140,255,0)"></stop></radialGradient><radialGradient id="g4" cx="50%" cy="50%" r="50%"><stop offset="0%" stop-color="rgba(0,195,235,0.30)"></stop><stop offset="70%" stop-color="rgba(0,195,235,0)"></stop></radialGradient><radialGradient id="g5" cx="50%" cy="50%" r="50%"><stop offset="0%" stop-color="rgba(100,30,210,0.40)"></stop><stop offset="70%" stop-color="rgba(100,30,210,0)"></stop></radialGradient></defs><ellipse id="glow-1" cx="710" cy="150" rx="210" ry="150" fill="url(#g1)"></ellipse><ellipse id="glow-2" cx="550" cy="140" rx="190" ry="140" fill="url(#g2)"></ellipse><ellipse id="glow-3" cx="400" cy="130" rx="170" ry="130" fill="url(#g3)"></ellipse><ellipse id="glow-4" cx="250" cy="140" rx="150" ry="120" fill="url(#g4)"></ellipse><ellipse id="glow-5" cx="100" cy="150" rx="130" ry="110" fill="url(#g5)"></ellipse><style>

         @keyframes float-slow {
           0%, 100% { transform: translateX(0px); opacity: 0.8; }
           50% { transform: translateX(350px); opacity: 1.2; }
         }
         @keyframes float-medium {
           0%, 100% { transform: translateX(0px); opacity: 0.7; }
           50% { transform: translateX(-250px); opacity: 1.1; }
         }
         @keyframes float-fast {
           0%, 100% { transform: translateX(0px); opacity: 0.9; }
           50% { transform: translateX(200px); opacity: 0.6; }
         }
         @keyframes float-diagonal {
           0%, 100% { transform: translate(0px, 0px); opacity: 0.75; }
           50% { transform: translate(120px, 30px); opacity: 1.0; }
         }
         @keyframes float-wave {
           0%, 100% { transform: translateX(0px); opacity: 0.65; }
           33% { transform: translateX(-160px); opacity: 0.9; }
           66% { transform: translateX(80px); opacity: 1.0; }
         }
         @keyframes float-pulse {
           0%, 100% { transform: scale(1); opacity: 0.8; }
           50% { transform: scale(1.3); opacity: 0.4; }
         }
         #glow-1 { animation: float-slow 8s ease-in-out infinite; }
         #glow-2 { animation: float-medium 12s ease-in-out infinite; }
         #glow-3 { animation: float-fast 9s ease-in-out infinite; }
         #glow-4 { animation: float-diagonal 10s ease-in-out infinite; }
         #glow-5 { animation: float-wave 14s ease-in-out infinite; }
       
</style>
</svg><mask id="satori_om-id-0-0"><rect x="1" y="1" width="0" height="140" fill="#fff" mask="url(#satori_om-id)"/></mask><mask id="satori_om-id-0-0-0"><rect x="1" y="1" width="0" height="140" fill="#fff" mask="url(#satori_om-id)"/></mask><mask id="satori_om-id-0-0-0-0"><rect x="1" y="1" width="0" height="140" fill="#fff" mask="url(#satori_om-id)"/></mask><mask id="satori_om-id-0-0-0-1"><rect x="1" y="1" width="0" height="140" fill="#fff" mask="url(#satori_om-id)"/></mask><mask id="satori_om-id-0-0-0-2"><rect x="1" y="1" width="0" height="140" fill="#fff" mask="url(#satori_om-id)"/></mask><mask id="satori_om-id-0-0-1"><rect x="1" y="1" width="0" height="140" fill="#fff" mask="url(#satori_om-id)"/></mask><mask id="satori_om-id-0-0-1-0"><rect x="1" y="1" width="0" height="140" fill="#fff" mask="url(#satori_om-id)"/></mask><mask id="satori_om-id-0-0-1-1"><rect x="1" y="1" width="0" height="140" fill="#fff" mask="url(#satori_om-id)"/></mask><mask id="satori_om-id-0-0-1-2"><rect x="1" y="1" width="0" height="140" fill="#fff" mask="url(#satori_om-id)"/></mask><mask id="satori_om-id-0-0-2"><rect x="1" y="1" width="0" height="140" fill="#fff" mask="url(#satori_om-id)"/></mask><mask id="satori_om-id-0-0-2-0"><rect x="1" y="1" width="0" height="140" fill="#fff" mask="url(#satori_om-id)"/></mask><mask id="satori_om-id-0-0-2-1"><rect x="1" y="1" width="0" height="140" fill="#fff" mask="url(#satori_om-id)"/></mask><mask id="satori_om-id-0-0-3"><rect x="1" y="1" width="0" height="140" fill="#fff" mask="url(#satori_om-id)"/></mask><mask id="satori_om-id-0-0-3-0"><rect x="1" y="1" width="0" height="140" fill="#fff" mask="url(#satori_om-id)"/></mask><mask id="satori_om-id-0-0-3-1"><rect x="1" y="1" width="0" height="140" fill="#fff" mask="url(#satori_om-id)"/></mask><mask id="satori_om-id-0-0-4"><rect x="1" y="1" width="0" height="140" fill="#fff" mask="url(#satori_om-id)"/></mask><mask id="satori_om-id-0-0-4-0"><rect x="1" y="1" width="0" height="140" fill="#fff" mask="url(#satori_om-id)"/></mask><mask id="satori_om-id-0-0-4-1"><rect x="1" y="1" width="0" height="140" fill="#fff" mask="url(#satori_om-id)"/></mask><mask id="satori_om-id-0-1"><rect x="1" y="1" width="0" height="140" fill="#fff" mask="url(#satori_om-id)"/></mask><mask id="satori_om-id-0-2"><rect x="1" y="1" width="0" height="140" fill="#fff" mask="url(#satori_om-id)"/></mask><mask id="satori_om-id-0-3"><rect x="1" y="1" width="0" height="140" fill="#fff" mask="url(#satori_om-id)"/></mask><mask id="satori_om-id-0-4"><rect x="1" y="1" width="0" height="140" fill="#fff" mask="url(#satori_om-id)"/></mask><mask id="satori_om-id-0-5"><rect x="1" y="1" width="0" height="140" fill="#fff" mask="url(#satori_om-id)"/></mask><defs><clipPath id="satori_bc-id-1" clip-path="url(#satori_cp-id)"><rect x="1" y="30" width="274" height="80"/></clipPath></defs><mask id="satori_om-id-1"><rect x="1" y="30" width="273" height="80" fill="#fff" mask="url(#satori_om-id)"/><path width="274" height="80" fill="none" stroke="#000" stroke-width="2" d="M275,30 A0,0 0 0 1 275,30 v80 A0,0 0 0 1 275,110"/></mask><path width="274" height="80" clip-path="url(#satori_bc-id-1)" fill="none" stroke="rgba(255,255,255,0.06)" stroke-width="2" d="M275,30 A0,0 0 0 1 275,30 v80 A0,0 0 0 1 275,110"/><mask id="satori_om-id-1-0"><rect x="122" y="46" width="32" height="30" fill="#fff" mask="url(#satori_om-id)"/></mask><g mask="url(#satori_om-id)" clip-path="url(#satori_cp-id)"><path fill="#a78bfa" d="M128.2 50.2L133.0 50.2L133.0 72L128.5 72L128.5 54.1L128.4 54.1L123.4 57.7L123.4 53.6L128.2 50.2ZM144.1 72.3L144.1 72.3Q141.9 72.3 140.1 71.5Q138.4 70.6 137.4 69.2Q136.4 67.7 136.3 65.9L136.3 65.9L140.7 65.9Q140.7 66.7 141.2 67.4Q141.7 68.0 142.4 68.4Q143.2 68.7 144.1 68.7L144.1 68.7Q145.2 68.7 146.1 68.3Q146.9 67.8 147.4 66.9Q147.9 66.0 147.9 64.9L147.9 64.9Q147.9 63.7 147.4 62.8Q146.9 61.9 146.0 61.4Q145.2 60.9 144.1 60.9L144.1 60.9Q143.1 60.9 142.2 61.3Q141.3 61.7 140.8 62.3L140.8 62.3L136.8 61.6L137.8 50.2L151.0 50.2L151.0 53.9L141.5 53.9L141.0 59.4L141.1 59.4Q141.7 58.6 142.8 58.1Q144.0 57.6 145.4 57.6L145.4 57.6Q146.8 57.6 148.1 58.1Q149.3 58.6 150.3 59.6Q151.2 60.5 151.7 61.9Q152.2 63.2 152.2 64.7L152.2 64.7Q152.2 66.9 151.2 68.6Q150.2 70.3 148.4 71.3Q146.5 72.3 144.1 72.3Z "/></g><mask id="satori_om-id-1-1"><rect x="115" y="81" width="45" height="13" fill="#fff" mask="url(#satori_om-id)"/></mask><g mask="url(#satori_om-id)" clip-path="url(#satori_cp-id)"><path fill="rgba(200,195,225,0.45)" d="M117.4 92L115.7 92L115.7 84.0L118.8 84.0Q119.8 84.0 120.4 84.3Q121.0 84.6 121.4 85.2Q121.7 85.8 121.7 86.6Q121.7 87.4 121.4 88.0Q121.0 88.5 120.4 88.8L120.4 88.8Q120.3 88.9 120.3 88.9L120.3 88.9L122.0 92L120.2 92L118.6 89.1L117.4 89.1L117.4 92ZM117.4 85.4L117.4 87.8L118.5 87.8Q119.0 87.8 119.4 87.7Q119.7 87.5 119.9 87.3Q120.0 87.0 120.0 86.6L120.0 86.6Q120.0 86.2 119.9 85.9Q119.7 85.6 119.4 85.5Q119.0 85.4 118.5 85.4L118.5 85.4L117.4 85.4ZM129.8 92L124.4 92L124.4 84.0L129.8 84.0L129.8 85.4L126.1 85.4L126.1 87.3L129.5 87.3L129.5 88.6L126.1 88.6L126.1 90.6L129.8 90.6L129.8 92ZM134.3 92L132.6 92L132.6 84.0L135.8 84.0Q136.7 84.0 137.3 84.3Q137.9 84.7 138.3 85.3Q138.6 85.9 138.6 86.7L138.6 86.7Q138.6 87.5 138.3 88.1Q137.9 88.7 137.3 89.0Q136.6 89.4 135.7 89.4L135.7 89.4L134.3 89.4L134.3 92ZM134.3 85.4L134.3 88.1L135.5 88.1Q136.0 88.1 136.3 87.9Q136.6 87.7 136.8 87.4Q136.9 87.1 136.9 86.7Q136.9 86.3 136.8 86.0Q136.6 85.7 136.3 85.5Q136.0 85.4 135.4 85.4L135.4 85.4L134.3 85.4ZM144.8 92.1L144.8 92.1Q143.7 92.1 142.9 91.6Q142.0 91.1 141.5 90.2Q141.0 89.3 141.0 88.0L141.0 88.0Q141.0 86.7 141.5 85.8Q142.0 84.9 142.9 84.4Q143.7 83.9 144.8 83.9L144.8 83.9Q145.8 83.9 146.7 84.4Q147.5 84.9 148.0 85.8Q148.5 86.7 148.5 88.0L148.5 88.0Q148.5 89.3 148.0 90.2Q147.5 91.1 146.7 91.6Q145.8 92.1 144.8 92.1ZM144.8 90.7L144.8 90.7Q145.4 90.7 145.9 90.3Q146.3 90.0 146.6 89.5Q146.8 88.9 146.8 88.0L146.8 88.0Q146.8 87.1 146.6 86.5Q146.3 86.0 145.9 85.6Q145.4 85.3 144.8 85.3L144.8 85.3Q144.2 85.3 143.7 85.7Q143.2 86.0 143.0 86.6Q142.7 87.1 142.7 88.0L142.7 88.0Q142.7 88.9 143.0 89.4Q143.2 90.0 143.7 90.3Q144.2 90.7 144.8 90.7ZM154.2 92.1L154.2 92.1Q153.2 92.1 152.5 91.8Q151.8 91.5 151.4 90.9Q151.0 90.4 151.0 89.5L151.0 89.5L152.6 89.5Q152.6 89.9 152.8 90.2Q153.0 90.5 153.4 90.6Q153.7 90.7 154.2 90.7L154.2 90.7Q154.6 90.7 154.9 90.6Q155.2 90.5 155.4 90.2Q155.6 90.0 155.6 89.7L155.6 89.7Q155.6 89.4 155.4 89.3Q155.3 89.1 155.0 88.9Q154.7 88.8 154.2 88.7L154.2 88.7L153.3 88.5Q152.3 88.2 151.8 87.7Q151.2 87.2 151.2 86.3L151.2 86.3Q151.2 85.6 151.6 85.0Q152.0 84.5 152.6 84.2Q153.3 83.9 154.2 83.9L154.2 83.9Q155.1 83.9 155.7 84.2Q156.4 84.5 156.8 85.0Q157.1 85.6 157.1 86.3L157.1 86.3L155.6 86.3Q155.5 85.8 155.2 85.5Q154.8 85.3 154.2 85.3L154.2 85.3Q153.8 85.3 153.5 85.4Q153.2 85.5 153.0 85.7Q152.9 85.9 152.9 86.2L152.9 86.2Q152.9 86.5 153.0 86.7Q153.2 86.9 153.5 87.0Q153.8 87.1 154.1 87.2L154.1 87.2L154.9 87.4Q155.4 87.5 155.8 87.7Q156.2 87.9 156.6 88.2Q156.9 88.4 157.1 88.8Q157.3 89.2 157.3 89.7L157.3 89.7Q157.3 90.4 156.9 91.0Q156.5 91.5 155.8 91.8Q155.1 92.1 154.2 92.1Z "/></g><defs><clipPath id="satori_bc-id-2" clip-path="url(#satori_cp-id)"><rect x="275" y="30" width="276" height="80"/></clipPath></defs><mask id="satori_om-id-2"><rect x="275" y="30" width="275" height="80" fill="#fff" mask="url(#satori_om-id)"/><path width="276" height="80" fill="none" stroke="#000" stroke-width="2" d="M551,30 A0,0 0 0 1 551,30 v80 A0,0 0 0 1 551,110"/></mask><path width="276" height="80" clip-path="url(#satori_bc-id-2)" fill="none" stroke="rgba(255,255,255,0.06)" stroke-width="2" d="M551,30 A0,0 0 0 1 551,30 v80 A0,0 0 0 1 551,110"/><mask id="satori_om-id-2-0"><rect x="389" y="46" width="46" height="30" fill="#fff" mask="url(#satori_om-id)"/></mask><g mask="url(#satori_om-id)" clip-path="url(#satori_cp-id)"><path fill="#60a5fa" d="M395.2 50.2L400.0 50.2L400.0 72L395.5 72L395.5 54.1L395.4 54.1L390.4 57.7L390.4 53.6L395.2 50.2ZM408.1 50.2L412.9 50.2L412.9 72L408.4 72L408.4 54.1L408.3 54.1L403.3 57.7L403.3 53.6L408.1 50.2ZM424.6 72.3L424.6 72.3Q422.2 72.3 420.3 71.5Q418.4 70.7 417.3 69.3Q416.2 67.9 416.2 66.1L416.2 66.1Q416.2 64.8 416.9 63.6Q417.5 62.5 418.6 61.7Q419.6 60.9 420.9 60.7L420.9 60.7L420.9 60.6Q419.2 60.2 418.1 58.9Q417.0 57.5 417.0 55.7L417.0 55.7Q417.0 54.1 418.0 52.7Q419 51.4 420.7 50.6Q422.4 49.9 424.6 49.9L424.6 49.9Q426.8 49.9 428.5 50.6Q430.3 51.4 431.2 52.7Q432.2 54.1 432.2 55.7L432.2 55.7Q432.2 57.5 431.1 58.9Q430.0 60.2 428.3 60.6L428.3 60.6L428.3 60.7Q429.6 60.9 430.7 61.7Q431.8 62.5 432.4 63.6Q433.0 64.8 433.0 66.1L433.0 66.1Q433.0 67.9 431.9 69.3Q430.9 70.7 429.0 71.5Q427.1 72.3 424.6 72.3ZM424.6 69.0L424.6 69.0Q425.8 69.0 426.6 68.6Q427.4 68.2 427.9 67.5Q428.4 66.7 428.4 65.8L428.4 65.8Q428.4 64.8 427.9 64.1Q427.4 63.3 426.6 62.9Q425.7 62.5 424.6 62.5L424.6 62.5Q423.5 62.5 422.7 62.9Q421.9 63.3 421.4 64.1Q420.9 64.8 420.9 65.8L420.9 65.8Q420.9 66.7 421.4 67.4Q421.8 68.2 422.7 68.6Q423.5 69.0 424.6 69.0ZM424.6 59.2L424.6 59.2Q425.6 59.2 426.3 58.8Q427.0 58.4 427.4 57.8Q427.8 57.1 427.8 56.2L427.8 56.2Q427.8 55.3 427.4 54.7Q427.0 54.0 426.3 53.7Q425.6 53.3 424.6 53.3L424.6 53.3Q423.7 53.3 422.9 53.7Q422.2 54.0 421.8 54.7Q421.4 55.3 421.4 56.2L421.4 56.2Q421.4 57.1 421.8 57.8Q422.2 58.4 423.0 58.8Q423.7 59.2 424.6 59.2Z "/></g><mask id="satori_om-id-2-1"><rect x="390" y="81" width="45" height="13" fill="#fff" mask="url(#satori_om-id)"/></mask><g mask="url(#satori_om-id)" clip-path="url(#satori_cp-id)"><path fill="rgba(200,195,225,0.45)" d="M393.7 92.1L393.7 92.1Q392.7 92.1 392.0 91.8Q391.3 91.5 390.9 90.9Q390.5 90.4 390.5 89.5L390.5 89.5L392.1 89.5Q392.1 89.9 392.3 90.2Q392.5 90.5 392.9 90.6Q393.2 90.7 393.6 90.7L393.6 90.7Q394.1 90.7 394.4 90.6Q394.7 90.5 394.9 90.2Q395.1 90.0 395.1 89.7L395.1 89.7Q395.1 89.4 394.9 89.3Q394.8 89.1 394.5 88.9Q394.2 88.8 393.7 88.7L393.7 88.7L392.8 88.5Q391.8 88.2 391.2 87.7Q390.7 87.2 390.7 86.3L390.7 86.3Q390.7 85.6 391.1 85.0Q391.5 84.5 392.1 84.2Q392.8 83.9 393.7 83.9L393.7 83.9Q394.6 83.9 395.2 84.2Q395.9 84.5 396.3 85.0Q396.6 85.6 396.6 86.3L396.6 86.3L395.1 86.3Q395.0 85.8 394.6 85.5Q394.3 85.3 393.7 85.3L393.7 85.3Q393.2 85.3 393.0 85.4Q392.7 85.5 392.5 85.7Q392.4 85.9 392.4 86.2L392.4 86.2Q392.4 86.5 392.5 86.7Q392.7 86.9 393.0 87.0Q393.3 87.1 393.6 87.2L393.6 87.2L394.4 87.4Q394.9 87.5 395.3 87.7Q395.7 87.9 396.1 88.2Q396.4 88.4 396.6 88.8Q396.7 89.2 396.7 89.7L396.7 89.7Q396.7 90.4 396.4 91.0Q396.0 91.5 395.3 91.8Q394.6 92.1 393.7 92.1ZM401.6 85.4L399.1 85.4L399.1 84.0L405.6 84.0L405.6 85.4L403.2 85.4L403.2 92L401.6 92L401.6 85.4ZM409.6 92L407.8 92L410.5 84.0L412.7 84.0L415.5 92L413.7 92L413.1 90.1L410.2 90.1L409.6 92ZM410.6 88.9L412.6 88.9L412.4 88.1Q412.2 87.4 411.9 86.5L411.9 86.5Q411.8 85.9 411.6 85.3L411.6 85.3Q411.4 85.9 411.3 86.5L411.3 86.5Q411.1 87.4 410.9 88.1L410.9 88.1L410.6 88.9ZM419.6 92L418.0 92L418.0 84.0L421.1 84.0Q422.0 84.0 422.7 84.3Q423.3 84.6 423.6 85.2Q424.0 85.8 424.0 86.6Q424.0 87.4 423.6 88.0Q423.3 88.5 422.6 88.8L422.6 88.8Q422.6 88.9 422.5 88.9L422.5 88.9L424.3 92L422.4 92L420.9 89.1L419.6 89.1L419.6 92ZM419.6 85.4L419.6 87.8L420.8 87.8Q421.3 87.8 421.6 87.7Q422.0 87.5 422.1 87.3Q422.3 87.0 422.3 86.6L422.3 86.6Q422.3 86.2 422.1 85.9Q422.0 85.6 421.6 85.5Q421.3 85.4 420.8 85.4L420.8 85.4L419.6 85.4ZM429.6 92.1L429.6 92.1Q428.7 92.1 428.0 91.8Q427.3 91.5 426.9 90.9Q426.5 90.4 426.4 89.5L426.4 89.5L428.0 89.5Q428.1 89.9 428.3 90.2Q428.5 90.5 428.8 90.6Q429.2 90.7 429.6 90.7L429.6 90.7Q430.1 90.7 430.4 90.6Q430.7 90.5 430.9 90.2Q431.1 90.0 431.1 89.7L431.1 89.7Q431.1 89.4 430.9 89.3Q430.8 89.1 430.4 88.9Q430.1 88.8 429.7 88.7L429.7 88.7L428.8 88.5Q427.8 88.2 427.2 87.7Q426.7 87.2 426.7 86.3L426.7 86.3Q426.7 85.6 427.0 85.0Q427.4 84.5 428.1 84.2Q428.8 83.9 429.7 83.9L429.7 83.9Q430.5 83.9 431.2 84.2Q431.9 84.5 432.2 85.0Q432.6 85.6 432.6 86.3L432.6 86.3L431.0 86.3Q431.0 85.8 430.6 85.5Q430.3 85.3 429.6 85.3L429.6 85.3Q429.2 85.3 428.9 85.4Q428.6 85.5 428.5 85.7Q428.3 85.9 428.3 86.2L428.3 86.2Q428.3 86.5 428.5 86.7Q428.7 86.9 429.0 87.0Q429.3 87.1 429.6 87.2L429.6 87.2L430.3 87.4Q430.8 87.5 431.3 87.7Q431.7 87.9 432.0 88.2Q432.4 88.4 432.5 88.8Q432.7 89.2 432.7 89.7L432.7 89.7Q432.7 90.4 432.4 91.0Q432.0 91.5 431.3 91.8Q430.6 92.1 429.6 92.1Z "/></g><mask id="satori_om-id-3"><rect x="551" y="30" width="308" height="80" fill="#fff" mask="url(#satori_om-id)"/></mask><mask id="satori_om-id-3-0"><rect x="665" y="46" width="80" height="30" fill="#fff" mask="url(#satori_om-id)"/></mask><g mask="url(#satori_om-id)" clip-path="url(#satori_cp-id)"><path fill="#f59e0b" d="M682.3 72L666.8 72L666.8 68.8L674.6 61.5Q675.5 60.6 676.2 59.8Q676.9 59.0 677.3 58.2Q677.6 57.5 677.6 56.6L677.6 56.6Q677.6 55.6 677.2 54.9Q676.7 54.2 676.0 53.8Q675.2 53.5 674.2 53.5L674.2 53.5Q673.2 53.5 672.5 53.9Q671.7 54.3 671.3 55.0Q670.9 55.8 670.9 56.9L670.9 56.9L666.6 56.9Q666.6 54.7 667.6 53.2Q668.6 51.6 670.3 50.7Q672.0 49.9 674.3 49.9L674.3 49.9Q676.6 49.9 678.3 50.7Q680.0 51.5 681.0 53.0Q682.0 54.4 682.0 56.3L682.0 56.3Q682.0 57.5 681.5 58.7Q681.0 59.9 679.8 61.4Q678.6 62.9 676.3 64.9L676.3 64.9L673.0 68.2L673.0 68.3L682.3 68.3L682.3 72ZM695.4 68.1L684.9 68.1L684.9 64.6L694.0 50.2L699.6 50.2L699.6 64.5L702.4 64.5L702.4 68.1L699.6 68.1L699.6 72L695.4 72L695.4 68.1ZM689.4 64.5L695.4 64.5L695.4 55.1L695.3 55.1L689.4 64.3L689.4 64.5ZM715.6 68.1L705.2 68.1L705.2 64.6L714.3 50.2L719.9 50.2L719.9 64.5L722.7 64.5L722.7 68.1L719.9 68.1L719.9 72L715.6 72L715.6 68.1ZM709.7 64.5L715.7 64.5L715.7 55.1L715.6 55.1L709.7 64.3L709.7 64.5ZM734.1 72.3L734.1 72.3Q731.4 72.3 729.4 71.0Q727.5 69.6 726.4 67.1Q725.4 64.6 725.4 61.1L725.4 61.1Q725.4 57.6 726.4 55.1Q727.5 52.5 729.4 51.2Q731.4 49.9 734.1 49.9L734.1 49.9Q736.9 49.9 738.8 51.2Q740.8 52.6 741.8 55.1Q742.9 57.6 742.9 61.1L742.9 61.1Q742.9 64.6 741.8 67.1Q740.8 69.6 738.8 71.0Q736.9 72.3 734.1 72.3ZM734.1 68.6L734.1 68.6Q735.5 68.6 736.4 67.7Q737.3 66.8 737.8 65.2Q738.3 63.5 738.3 61.1L738.3 61.1Q738.3 58.7 737.8 57.0Q737.3 55.3 736.4 54.5Q735.5 53.6 734.1 53.6L734.1 53.6Q732.8 53.6 731.8 54.5Q730.9 55.3 730.4 57.0Q729.9 58.7 729.9 61.1L729.9 61.1Q729.9 63.5 730.4 65.2Q730.9 66.8 731.8 67.7Q732.8 68.6 734.1 68.6Z "/></g><mask id="satori_om-id-3-1"><rect x="672" y="81" width="66" height="13" fill="#fff" mask="url(#satori_om-id)"/></mask><g mask="url(#satori_om-id)" clip-path="url(#satori_cp-id)"><path fill="rgba(200,195,225,0.45)" d="M676.2 92.1L676.2 92.1Q675.2 92.1 674.3 91.6Q673.5 91.1 673.0 90.2Q672.5 89.3 672.5 88.0L672.5 88.0Q672.5 86.7 673.0 85.8Q673.5 84.9 674.3 84.4Q675.2 83.9 676.2 83.9L676.2 83.9Q676.9 83.9 677.5 84.1Q678.1 84.3 678.5 84.6Q679.0 85.0 679.3 85.5Q679.6 86.1 679.7 86.7L679.7 86.7L678.0 86.7Q678.0 86.4 677.8 86.1Q677.6 85.9 677.4 85.7Q677.2 85.5 676.9 85.4Q676.6 85.3 676.3 85.3L676.3 85.3Q675.6 85.3 675.2 85.7Q674.7 86.0 674.4 86.6Q674.2 87.2 674.2 88.0L674.2 88.0Q674.2 88.9 674.4 89.5Q674.7 90.1 675.2 90.4Q675.6 90.7 676.2 90.7L676.2 90.7Q676.6 90.7 676.9 90.6Q677.2 90.5 677.4 90.3Q677.6 90.1 677.8 89.8Q678.0 89.6 678.0 89.3L678.0 89.3L679.7 89.3Q679.6 89.8 679.3 90.3Q679.1 90.8 678.6 91.2Q678.2 91.6 677.6 91.9Q677.0 92.1 676.2 92.1ZM685.9 92.1L685.9 92.1Q684.8 92.1 684.0 91.6Q683.1 91.1 682.6 90.2Q682.1 89.3 682.1 88.0L682.1 88.0Q682.1 86.7 682.6 85.8Q683.1 84.9 684.0 84.4Q684.8 83.9 685.9 83.9L685.9 83.9Q686.9 83.9 687.8 84.4Q688.6 84.9 689.1 85.8Q689.6 86.7 689.6 88.0L689.6 88.0Q689.6 89.3 689.1 90.2Q688.6 91.1 687.8 91.6Q686.9 92.1 685.9 92.1ZM685.9 90.7L685.9 90.7Q686.5 90.7 687.0 90.3Q687.4 90.0 687.7 89.5Q687.9 88.9 687.9 88.0L687.9 88.0Q687.9 87.1 687.7 86.5Q687.4 86.0 687.0 85.6Q686.5 85.3 685.9 85.3L685.9 85.3Q685.3 85.3 684.8 85.7Q684.3 86.0 684.1 86.6Q683.8 87.1 683.8 88.0L683.8 88.0Q683.8 88.9 684.1 89.4Q684.3 90.0 684.8 90.3Q685.3 90.7 685.9 90.7ZM694.0 92L692.3 92L692.3 84.0L694.9 84.0L696.2 87.7Q696.2 87.9 696.3 88.3Q696.4 88.7 696.5 89.2L696.5 89.2Q696.7 89.7 696.7 90.1L696.7 90.1Q696.8 89.7 696.9 89.2L696.9 89.2Q697.0 88.8 697.2 88.3Q697.3 87.9 697.3 87.7L697.3 87.7L698.6 84.0L701.1 84.0L701.1 92L699.5 92L699.5 88.2Q699.5 88.0 699.5 87.6Q699.5 87.2 699.5 86.7Q699.5 86.3 699.5 85.8L699.5 85.8Q699.6 85.6 699.6 85.4L699.6 85.4Q699.5 85.6 699.4 85.9L699.4 85.9Q699.3 86.3 699.2 86.8Q699.1 87.2 698.9 87.6Q698.8 88.0 698.8 88.2L698.8 88.2L697.4 92L696.0 92L694.7 88.2Q694.6 88.0 694.5 87.6Q694.4 87.2 694.3 86.8Q694.1 86.4 694.0 85.9L694.0 85.9Q694.0 85.7 693.9 85.5L693.9 85.5Q693.9 85.6 693.9 85.8L693.9 85.8Q693.9 86.2 693.9 86.7Q693.9 87.2 694.0 87.6Q694.0 88.0 694.0 88.2L694.0 88.2L694.0 92ZM705.7 92L704.1 92L704.1 84.0L706.6 84.0L707.9 87.7Q708.0 87.9 708.1 88.3Q708.2 88.7 708.3 89.2L708.3 89.2Q708.4 89.7 708.5 90.1L708.5 90.1Q708.6 89.7 708.7 89.2L708.7 89.2Q708.8 88.8 708.9 88.3Q709.0 87.9 709.1 87.7L709.1 87.7L710.4 84.0L712.9 84.0L712.9 92L711.2 92L711.2 88.2Q711.2 88.0 711.2 87.6Q711.3 87.2 711.3 86.7Q711.3 86.3 711.3 85.8L711.3 85.8Q711.3 85.6 711.3 85.4L711.3 85.4Q711.2 85.6 711.2 85.9L711.2 85.9Q711.1 86.3 710.9 86.8Q710.8 87.2 710.7 87.6Q710.6 88.0 710.5 88.2L710.5 88.2L709.2 92L707.8 92L706.4 88.2Q706.4 88.0 706.3 87.6Q706.1 87.2 706.0 86.8Q705.9 86.4 705.8 85.9L705.8 85.9Q705.7 85.7 705.7 85.5L705.7 85.5Q705.7 85.6 705.7 85.8L705.7 85.8Q705.7 86.2 705.7 86.7Q705.7 87.2 705.7 87.6Q705.7 88.0 705.7 88.2L705.7 88.2L705.7 92ZM715.8 84.0L717.5 84.0L717.5 92L715.8 92L715.8 84.0ZM722.5 85.4L720.1 85.4L720.1 84.0L726.6 84.0L726.6 85.4L724.2 85.4L724.2 92L722.5 92L722.5 85.4ZM732.2 92.1L732.2 92.1Q731.2 92.1 730.5 91.8Q729.8 91.5 729.4 90.9Q729.0 90.4 729.0 89.5L729.0 89.5L730.6 89.5Q730.6 89.9 730.8 90.2Q731.0 90.5 731.4 90.6Q731.7 90.7 732.2 90.7L732.2 90.7Q732.6 90.7 732.9 90.6Q733.3 90.5 733.5 90.2Q733.6 90.0 733.6 89.7L733.6 89.7Q733.6 89.4 733.5 89.3Q733.3 89.1 733.0 88.9Q732.7 88.8 732.3 88.7L732.3 88.7L731.4 88.5Q730.4 88.2 729.8 87.7Q729.2 87.2 729.2 86.3L729.2 86.3Q729.2 85.6 729.6 85.0Q730.0 84.5 730.7 84.2Q731.3 83.9 732.2 83.9L732.2 83.9Q733.1 83.9 733.8 84.2Q734.4 84.5 734.8 85.0Q735.2 85.6 735.2 86.3L735.2 86.3L733.6 86.3Q733.6 85.8 733.2 85.5Q732.8 85.3 732.2 85.3L732.2 85.3Q731.8 85.3 731.5 85.4Q731.2 85.5 731.0 85.7Q730.9 85.9 730.9 86.2L730.9 86.2Q730.9 86.5 731.1 86.7Q731.2 86.9 731.5 87.0Q731.8 87.1 732.2 87.2L732.2 87.2L732.9 87.4Q733.4 87.5 733.8 87.7Q734.3 87.9 734.6 88.2Q734.9 88.4 735.1 88.8Q735.3 89.2 735.3 89.7L735.3 89.7Q735.3 90.4 734.9 91.0Q734.6 91.5 733.9 91.8Q733.2 92.1 732.2 92.1Z "/></g></svg>