<!-- Generated by readme-aura https://github.com/collectioneur/readme-aura -->
<svg width="860" height="140" viewBox="0 0 860 140" xmlns="http://www.w3.org/2000/svg"><defs><clipPath id="satori_bc-id"><path x="0" y="0" width="860" height="140" d="M16,0 h828 a16,16 0 0 1 16,16 v108 a16,16 0 0 1 -16,16 h-828 a16,16 0 0 1 -16,-16 v-108 a16,16 0 0 1 16,-16"/></clipPath></defs><clipPath id="satori_cp-id"><path x="0" y="0" width="860" height="140" d="M16,0 h828 a16,16 0 0 1 16,16 v108 a16,16 0 0 1 -16,16 h-828 a16,16 0 0 1 -16,-16 v-108 a16,16 0 0 1 16,-16"/></clipPath><mask id="satori_om-id"><rect x="1" y="1" width="858" height="138" fill="#fff"/><path width="860" height="140" fill="none" stroke="#000" stroke-width="2" d="M4.686,4.686 A16,16 0 0 1 16,0 h828 a16,16 0 0 1 16,16 v108 a16,16 0 0 1 -16,16 h-828 a16,16 0 0 1 -16,-16 v-108 A16,16 0 0 1 4.686,4.686"/></mask><path x="0" y="0" width="860" height="140" fill="#08080c" d="M16,0 h828 a16,16 0 0 1 16,16 v108 a16,16 0 0 1 -16,16 h-828 a16,16 0 0 1 -16,-16 v-108 a16,16 0 0 1 16,-16"/><path width="860" height="140" clip-path="url(#satori_bc-id)" fill="none" stroke="rgba(110,80,220,0.18)" stroke-width="2" d="M4.686,4.686 A16,16 0 0 1 16,0 h828 a16,16 0 0 1 16,16 v108 a16,16 0 0 1 -16,16 h-828 a16,16 0 0 1 -16,-16 v-108 A16,16 0 0 1 4.686,4.686"/><clipPath id="satori_cp-id-0" clip-path="url(#satori_cp-id)"><rect x="1" y="1" width="860" height="140"/></clipPath><mask id="satori_om-id-0"><rect x="1" y="1" width="860" height="140" fill="#fff" mask="url(#satori_om-id)"/></mask><svg x="1" y="1" width="860" height="140" preserveAspectRatio="none" clip-path="url(#satori_cp-id-0)" mask="url(#satori_om-id-0)"><defs><radialGradient id="g1" cx="50%" cy="50%" r="50%"><stop offset="0%" stop-color="rgba(110,20,210,0.65)"></stop><stop offset="45%" stop-color="rgba(80,15,170,0.28)"></stop><stop offset="70%" stop-color="rgba(80,15,170,0)"></stop></radialGradient><radialGradient id="g2" cx="50%" cy="50%" r="50%"><stop offset="0%" stop-color="rgba(40,70,255,0.55)"></stop><stop offset="45%" stop-color="rgba(20,50,200,0.22)"></stop><stop offset="70%" stop-color="rgba(20,50,200,0)"></stop></radialGradient><radialGradient id="g3" cx="50%" cy="50%" r="50%"><stop offset="0%" stop-color="rgba(0,140,255,0.42)"></stop><stop offset="70%" stop-color="rgba(0,140,255,0)"></stop></radialGradient><radialGradient id="g4" cx="50%" cy="50%" r="50%"><stop offset="0%" stop-color="rgba(0,195,235,0.30)"></stop><stop offset="70%" stop-color="rgba(0,195,235,0)"></stop></radialGradient><radialGradient id="g5" cx="50%" cy="50%" r="50%"><stop offset="0%" stop-color="rgba(100,30,210,0.40)"></stop><stop offset="70%" stop-color="rgba(100,30,210,0)"></stop></radialGradient></defs><ellipse id="glow-1" cx="710" cy="150" rx="210" ry="150" fill="url(#g1)"></ellipse><ellipse id="glow-2" cx="550" cy="140" rx="190" ry="140" fill="url(#g2)"></ellipse><ellipse id="glow-3" cx="400" cy="130" rx="170" ry="130" fill="url(#g3)"></ellipse><ellipse id="glow-4" cx="250" cy="140" rx="150" ry="120" fill="url(#g4)"></ellipse><ellipse id="glow-5" cx="100" cy="150" rx="130" ry="110" fill="url(#g5)"></ellipse><style>

         @keyframes float-slow {
           0%, 100% { transform: translateX(0px); opacity: 0.8; }
           50% { transform: translateX(350px); opacity: 1.2; }
         }
         @keyframes float-medium {
           0%, 100% { transform: translateX(0px); opacity: 0.7; }
           50% { transform: translateX(-250px); opacity: 1.1; }
         }
         @keyframes float-fast {
           0%, 100% { transform: translateX(0px); opacity: 0.9; }
           50% { transform: translateX(200px); opacity: 0.6; }
         }
         @keyframes float-diagonal {
           0%, 100% { transform: translate(0px, 0px); opacity: 0.75; }
           50% { transform: translate(120px, 30px); opacity: 1.0; }
         }
         @keyframes float-wave {
           0%, 100% { transform: translateX(0px); opacity: 0.65; }
           33% { transform: translateX(-160px); opacity: 0.9; }
           66% { transform: translateX(80px); opacity: 1.0; }
         }
         @keyframes float-pulse {
           0%, 100% { transform: scale(1); opacity: 0.8; }
           50% { transform: scale(1.3); opacity: 0.4; }
         }
         #glow-1 { animation: float-slow 8s ease-in-out infinite; }
         #glow-2 { animation: float-medium 12s ease-in-out infinite; }
         #glow-3 { animation: float-fast 9s ease-in-out infinite; }
         #glow-4 { animation: float-diagonal 10s ease-in-out infinite; }
         #glow-5 { animation: float-wave 14s ease-in-out infinite; }
       
</style>
</svg><mask id="satori_om-id-0-0"><rect x="1" y="1" width="0" height="140" fill="#fff" mask="url(#satori_om-id)"/></mask><mask id="satori_om-id-0-0-0"><rect x="1" y="1" width="0" height="140" fill="#fff" mask="url(#satori_om-id)"/></mask><mask id="satori_om-id-0-0-0-0"><rect x="1" y="1" width="0" height="140" fill="#fff" mask="url(#satori_om-id)"/></mask><mask id="satori_om-id-0-0-0-1"><rect x="1" y="1" width="0" height="140" fill="#fff" mask="url(#satori_om-id)"/></mask><mask id="satori_om-id-0-0-0-2"><rect x="1" y="1" width="0" height="140" fill="#fff" mask="url(#satori_om-id)"/></mask><mask id="satori_om-id-0-0-1"><rect x="1" y="1" width="0" height="140" fill="#fff" mask="url(#satori_om-id)"/></mask><mask id="satori_om-id-0-0-1-0"><rect x="1" y="1" width="0" height="140" fill="#fff" mask="url(#satori_om-id)"/></mask><mask id="satori_om-id-0-0-1-1"><rect x="1" y="1" width="0" height="140" fill="#fff" mask="url(#satori_om-id)"/></mask><mask id="satori_om-id-0-0-1-2"><rect x="1" y="1" width="0" height="140" fill="#fff" mask="url(#satori_om-id)"/></mask><mask id="satori_om-id-0-0-2"><rect x="1" y="1" width="0" height="140" fill="#fff" mask="url(#satori_om-id)"/></mask><mask id="satori_om-id-0-0-2-0"><rect x="1" y="1" width="0" height="140" fill="#fff" mask="url(#satori_om-id)"/></mask><mask id="satori_om-id-0-0-2-1"><rect x="1" y="1" width="0" height="140" fill="#fff" mask="url(#satori_om-id)"/></mask><mask id="satori_om-id-0-0-3"><rect x="1" y="1" width="0" height="140" fill="#fff" mask="url(#satori_om-id)"/></mask><mask id="satori_om-id-0-0-3-0"><rect x="1" y="1" width="0" height="140" fill="#fff" mask="url(#satori_om-id)"/></mask><mask id="satori_om-id-0-0-3-1"><rect x="1" y="1" width="0" height="140" fill="#fff" mask="url(#satori_om-id)"/></mask><mask id="satori_om-id-0-0-4"><rect x="1" y="1" width="0" height="140" fill="#fff" mask="url(#satori_om-id)"/></mask><mask id="satori_om-id-0-0-4-0"><rect x="1" y="1" width="0" height="140" fill="#fff" mask="url(#satori_om-id)"/></mask><mask id="satori_om-id-0-0-4-1"><rect x="1" y="1" width="0" height="140" fill="#fff" mask="url(#satori_om-id)"/></mask><mask id="satori_om-id-0-1"><rect x="1" y="1" width="0" height="140" fill="#fff" mask="url(#satori_om-id)"/></mask><mask id="satori_om-id-0-2"><rect x="1" y="1" width="0" height="140" fill="#fff" mask="url(#satori_om-id)"/></mask><mask id="satori_om-id-0-3"><rect x="1" y="1" width="0" height="140" fill="#fff" mask="url(#satori_om-id)"/></mask><mask id="satori_om-id-0-4"><rect x="1" y="1" width="0" height="140" fill="#fff" mask="url(#satori_om-id)"/></mask><mask id="satori_om-id-0-5"><rect x="1" y="1" width="0" height="140" fill="#fff" mask="url(#satori_om-id)"/></mask><defs><clipPath id="satori_bc-id-1" clip-path="url(#satori_cp-id)"><rect x="1" y="30" width="277" height="80"/></clipPath></defs><mask id="satori_om-id-1"><rect x="1" y="30" width="276" height="80" fill="#fff" mask="url(#satori_om-id)"/><path width="277" height="80" fill="none" stroke="#000" stroke-width="2" d="M278,30 A0,0 0 0 1 278,30 v80 A0,0 0 0 1 278,110"/></mask><path width="277" height="80" clip-path="url(#satori_bc-id-1)" fill="none" stroke="rgba(255,255,255,0.06)" stroke-width="2" d="M278,30 A0,0 0 0 1 278,30 v80 A0,0 0 0 1 278,110"/><mask id="satori_om-id-1-0"><rect x="126" y="46" width="26" height="30" fill="#fff" mask="url(#satori_om-id)"/></mask><g mask="url(#satori_om-id)" clip-path="url(#satori_cp-id)"><path fill="#a78bfa" d="M132.2 50.2L137.0 50.2L137.0 72L132.5 72L132.5 54.1L132.4 54.1L127.4 57.7L127.4 53.6L132.2 50.2ZM145.1 50.2L149.9 50.2L149.9 72L145.4 72L145.4 54.1L145.3 54.1L140.3 57.7L140.3 53.6L145.1 50.2Z "/></g><mask id="satori_om-id-1-1"><rect x="117" y="81" width="45" height="13" fill="#fff" mask="url(#satori_om-id)"/></mask><g mask="url(#satori_om-id)" clip-path="url(#satori_cp-id)"><path fill="rgba(200,195,225,0.45)" d="M119.4 92L117.7 92L117.7 84.0L120.8 84.0Q121.8 84.0 122.4 84.3Q123.0 84.6 123.4 85.2Q123.7 85.8 123.7 86.6Q123.7 87.4 123.4 88.0Q123.0 88.5 122.4 88.8L122.4 88.8Q122.3 88.9 122.3 88.9L122.3 88.9L124.0 92L122.2 92L120.6 89.1L119.4 89.1L119.4 92ZM119.4 85.4L119.4 87.8L120.5 87.8Q121.0 87.8 121.4 87.7Q121.7 87.5 121.9 87.3Q122.0 87.0 122.0 86.6L122.0 86.6Q122.0 86.2 121.9 85.9Q121.7 85.6 121.4 85.5Q121.0 85.4 120.5 85.4L120.5 85.4L119.4 85.4ZM131.8 92L126.4 92L126.4 84.0L131.8 84.0L131.8 85.4L128.1 85.4L128.1 87.3L131.5 87.3L131.5 88.6L128.1 88.6L128.1 90.6L131.8 90.6L131.8 92ZM136.3 92L134.6 92L134.6 84.0L137.8 84.0Q138.7 84.0 139.3 84.3Q139.9 84.7 140.3 85.3Q140.6 85.9 140.6 86.7L140.6 86.7Q140.6 87.5 140.3 88.1Q139.9 88.7 139.3 89.0Q138.6 89.4 137.7 89.4L137.7 89.4L136.3 89.4L136.3 92ZM136.3 85.4L136.3 88.1L137.5 88.1Q138.0 88.1 138.3 87.9Q138.6 87.7 138.8 87.4Q138.9 87.1 138.9 86.7Q138.9 86.3 138.8 86.0Q138.6 85.7 138.3 85.5Q138.0 85.4 137.4 85.4L137.4 85.4L136.3 85.4ZM146.8 92.1L146.8 92.1Q145.7 92.1 144.9 91.6Q144.0 91.1 143.5 90.2Q143.0 89.3 143.0 88.0L143.0 88.0Q143.0 86.7 143.5 85.8Q144.0 84.9 144.9 84.4Q145.7 83.9 146.8 83.9L146.8 83.9Q147.8 83.9 148.7 84.4Q149.5 84.9 150.0 85.8Q150.5 86.7 150.5 88.0L150.5 88.0Q150.5 89.3 150.0 90.2Q149.5 91.1 148.7 91.6Q147.8 92.1 146.8 92.1ZM146.8 90.7L146.8 90.7Q147.4 90.7 147.9 90.3Q148.3 90.0 148.6 89.5Q148.8 88.9 148.8 88.0L148.8 88.0Q148.8 87.1 148.6 86.5Q148.3 86.0 147.9 85.6Q147.4 85.3 146.8 85.3L146.8 85.3Q146.2 85.3 145.7 85.7Q145.2 86.0 145.0 86.6Q144.7 87.1 144.7 88.0L144.7 88.0Q144.7 88.9 145.0 89.4Q145.2 90.0 145.7 90.3Q146.2 90.7 146.8 90.7ZM156.2 92.1L156.2 92.1Q155.2 92.1 154.5 91.8Q153.8 91.5 153.4 90.9Q153.0 90.4 153.0 89.5L153.0 89.5L154.6 89.5Q154.6 89.9 154.8 90.2Q155.0 90.5 155.4 90.6Q155.7 90.7 156.2 90.7L156.2 90.7Q156.6 90.7 156.9 90.6Q157.2 90.5 157.4 90.2Q157.6 90.0 157.6 89.7L157.6 89.7Q157.6 89.4 157.4 89.3Q157.3 89.1 157.0 88.9Q156.7 88.8 156.2 88.7L156.2 88.7L155.3 88.5Q154.3 88.2 153.8 87.7Q153.2 87.2 153.2 86.3L153.2 86.3Q153.2 85.6 153.6 85.0Q154.0 84.5 154.6 84.2Q155.3 83.9 156.2 83.9L156.2 83.9Q157.1 83.9 157.7 84.2Q158.4 84.5 158.8 85.0Q159.1 85.6 159.1 86.3L159.1 86.3L157.6 86.3Q157.5 85.8 157.2 85.5Q156.8 85.3 156.2 85.3L156.2 85.3Q155.8 85.3 155.5 85.4Q155.2 85.5 155.0 85.7Q154.9 85.9 154.9 86.2L154.9 86.2Q154.9 86.5 155.0 86.7Q155.2 86.9 155.5 87.0Q155.8 87.1 156.1 87.2L156.1 87.2L156.9 87.4Q157.4 87.5 157.8 87.7Q158.2 87.9 158.6 88.2Q158.9 88.4 159.1 88.8Q159.3 89.2 159.3 89.7L159.3 89.7Q159.3 90.4 158.9 91.0Q158.5 91.5 157.8 91.8Q157.1 92.1 156.2 92.1Z "/></g><defs><clipPath id="satori_bc-id-2" clip-path="url(#satori_cp-id)"><rect x="278" y="30" width="284" height="80"/></clipPath></defs><mask id="satori_om-id-2"><rect x="278" y="30" width="283" height="80" fill="#fff" mask="url(#satori_om-id)"/><path width="284" height="80" fill="none" stroke="#000" stroke-width="2" d="M562,30 A0,0 0 0 1 562,30 v80 A0,0 0 0 1 562,110"/></mask><path width="284" height="80" clip-path="url(#satori_bc-id-2)" fill="none" stroke="rgba(255,255,255,0.06)" stroke-width="2" d="M562,30 A0,0 0 0 1 562,30 v80 A0,0 0 0 1 562,110"/><mask id="satori_om-id-2-0"><rect x="394" y="46" width="52" height="30" fill="#fff" mask="url(#satori_om-id)"/></mask><g mask="url(#satori_om-id)" clip-path="url(#satori_cp-id)"><path fill="#60a5fa" d="M400.2 50.2L405.0 50.2L405.0 72L400.5 72L400.5 54.1L400.4 54.1L395.4 57.7L395.4 53.6L400.2 50.2ZM424.2 72L408.8 72L408.8 68.8L416.5 61.5Q417.5 60.6 418.2 59.8Q418.8 59.0 419.2 58.2Q419.6 57.5 419.6 56.6L419.6 56.6Q419.6 55.6 419.1 54.9Q418.7 54.2 417.9 53.8Q417.2 53.5 416.2 53.5L416.2 53.5Q415.2 53.5 414.4 53.9Q413.6 54.3 413.2 55.0Q412.8 55.8 412.8 56.9L412.8 56.9L408.5 56.9Q408.5 54.7 409.5 53.2Q410.5 51.6 412.2 50.7Q414.0 49.9 416.2 49.9L416.2 49.9Q418.5 49.9 420.3 50.7Q422.0 51.5 422.9 53.0Q423.9 54.4 423.9 56.3L423.9 56.3Q423.9 57.5 423.4 58.7Q422.9 59.9 421.7 61.4Q420.5 62.9 418.3 64.9L418.3 64.9L415.0 68.2L415.0 68.3L424.2 68.3L424.2 72ZM435.9 72.3L435.9 72.3Q434.2 72.3 432.6 71.7Q431.1 71.2 429.9 69.9Q428.6 68.7 427.9 66.7Q427.2 64.6 427.2 61.6L427.2 61.6Q427.2 58.8 427.8 56.7Q428.4 54.5 429.6 53.0Q430.8 51.5 432.4 50.7Q434.0 49.9 436.0 49.9L436.0 49.9Q438.2 49.9 439.8 50.7Q441.5 51.6 442.5 53.0Q443.5 54.4 443.7 56.2L443.7 56.2L439.3 56.2Q439.0 55.1 438.2 54.4Q437.3 53.7 436.0 53.7L436.0 53.7Q434.6 53.7 433.6 54.6Q432.6 55.4 432.1 57.0Q431.6 58.6 431.6 60.7L431.6 60.7L431.7 60.7Q432.2 59.8 433.1 59.1Q433.9 58.4 435.0 58.0Q436.0 57.7 437.2 57.7L437.2 57.7Q439.2 57.7 440.7 58.6Q442.2 59.5 443.1 61.1Q444.0 62.7 444.0 64.7L444.0 64.7Q444.0 66.9 442.9 68.6Q441.9 70.3 440.1 71.3Q438.3 72.3 435.9 72.3ZM435.8 68.7L435.8 68.7Q436.9 68.7 437.8 68.2Q438.6 67.7 439.1 66.8Q439.6 65.9 439.6 64.8L439.6 64.8Q439.6 63.7 439.1 62.8Q438.6 62.0 437.8 61.4Q436.9 60.9 435.9 60.9L435.9 60.9Q435.0 60.9 434.4 61.2Q433.7 61.5 433.1 62.1Q432.6 62.6 432.3 63.3Q432.1 64.0 432.1 64.8L432.1 64.8Q432.1 65.9 432.5 66.8Q433.0 67.7 433.9 68.2Q434.7 68.7 435.8 68.7Z "/></g><mask id="satori_om-id-2-1"><rect x="397" y="81" width="45" height="13" fill="#fff" mask="url(#satori_om-id)"/></mask><g mask="url(#satori_om-id)" clip-path="url(#satori_cp-id)"><path fill="rgba(200,195,225,0.45)" d="M400.7 92.1L400.7 92.1Q399.7 92.1 399.0 91.8Q398.3 91.5 397.9 90.9Q397.5 90.4 397.5 89.5L397.5 89.5L399.1 89.5Q399.1 89.9 399.3 90.2Q399.5 90.5 399.9 90.6Q400.2 90.7 400.6 90.7L400.6 90.7Q401.1 90.7 401.4 90.6Q401.7 90.5 401.9 90.2Q402.1 90.0 402.1 89.7L402.1 89.7Q402.1 89.4 401.9 89.3Q401.8 89.1 401.5 88.9Q401.2 88.8 400.7 88.7L400.7 88.7L399.8 88.5Q398.8 88.2 398.2 87.7Q397.7 87.2 397.7 86.3L397.7 86.3Q397.7 85.6 398.1 85.0Q398.5 84.5 399.1 84.2Q399.8 83.9 400.7 83.9L400.7 83.9Q401.6 83.9 402.2 84.2Q402.9 84.5 403.3 85.0Q403.6 85.6 403.6 86.3L403.6 86.3L402.1 86.3Q402.0 85.8 401.6 85.5Q401.3 85.3 400.7 85.3L400.7 85.3Q400.2 85.3 400.0 85.4Q399.7 85.5 399.5 85.7Q399.4 85.9 399.4 86.2L399.4 86.2Q399.4 86.5 399.5 86.7Q399.7 86.9 400.0 87.0Q400.3 87.1 400.6 87.2L400.6 87.2L401.4 87.4Q401.9 87.5 402.3 87.7Q402.7 87.9 403.1 88.2Q403.4 88.4 403.6 88.8Q403.7 89.2 403.7 89.7L403.7 89.7Q403.7 90.4 403.4 91.0Q403.0 91.5 402.3 91.8Q401.6 92.1 400.7 92.1ZM408.6 85.4L406.1 85.4L406.1 84.0L412.6 84.0L412.6 85.4L410.2 85.4L410.2 92L408.6 92L408.6 85.4ZM416.6 92L414.8 92L417.5 84.0L419.7 84.0L422.5 92L420.7 92L420.1 90.1L417.2 90.1L416.6 92ZM417.6 88.9L419.6 88.9L419.4 88.1Q419.2 87.4 418.9 86.5L418.9 86.5Q418.8 85.9 418.6 85.3L418.6 85.3Q418.4 85.9 418.3 86.5L418.3 86.5Q418.1 87.4 417.9 88.1L417.9 88.1L417.6 88.9ZM426.6 92L425.0 92L425.0 84.0L428.1 84.0Q429.0 84.0 429.7 84.3Q430.3 84.6 430.6 85.2Q431.0 85.8 431.0 86.6Q431.0 87.4 430.6 88.0Q430.3 88.5 429.6 88.8L429.6 88.8Q429.6 88.9 429.5 88.9L429.5 88.9L431.3 92L429.4 92L427.9 89.1L426.6 89.1L426.6 92ZM426.6 85.4L426.6 87.8L427.8 87.8Q428.3 87.8 428.6 87.7Q429.0 87.5 429.1 87.3Q429.3 87.0 429.3 86.6L429.3 86.6Q429.3 86.2 429.1 85.9Q429.0 85.6 428.6 85.5Q428.3 85.4 427.8 85.4L427.8 85.4L426.6 85.4ZM436.6 92.1L436.6 92.1Q435.7 92.1 435.0 91.8Q434.3 91.5 433.9 90.9Q433.5 90.4 433.4 89.5L433.4 89.5L435.0 89.5Q435.1 89.9 435.3 90.2Q435.5 90.5 435.8 90.6Q436.2 90.7 436.6 90.7L436.6 90.7Q437.1 90.7 437.4 90.6Q437.7 90.5 437.9 90.2Q438.1 90.0 438.1 89.7L438.1 89.7Q438.1 89.4 437.9 89.3Q437.8 89.1 437.4 88.9Q437.1 88.8 436.7 88.7L436.7 88.7L435.8 88.5Q434.8 88.2 434.2 87.7Q433.7 87.2 433.7 86.3L433.7 86.3Q433.7 85.6 434.0 85.0Q434.4 84.5 435.1 84.2Q435.8 83.9 436.7 83.9L436.7 83.9Q437.5 83.9 438.2 84.2Q438.9 84.5 439.2 85.0Q439.6 85.6 439.6 86.3L439.6 86.3L438.0 86.3Q438.0 85.8 437.6 85.5Q437.3 85.3 436.6 85.3L436.6 85.3Q436.2 85.3 435.9 85.4Q435.6 85.5 435.5 85.7Q435.3 85.9 435.3 86.2L435.3 86.2Q435.3 86.5 435.5 86.7Q435.7 86.9 436.0 87.0Q436.3 87.1 436.6 87.2L436.6 87.2L437.3 87.4Q437.8 87.5 438.3 87.7Q438.7 87.9 439.0 88.2Q439.4 88.4 439.5 88.8Q439.7 89.2 439.7 89.7L439.7 89.7Q439.7 90.4 439.4 91.0Q439.0 91.5 438.3 91.8Q437.6 92.1 436.6 92.1Z "/></g><mask id="satori_om-id-3"><rect x="562" y="30" width="297" height="80" fill="#fff" mask="url(#satori_om-id)"/></mask><mask id="satori_om-id-3-0"><rect x="678" y="46" width="66" height="30" fill="#fff" mask="url(#satori_om-id)"/></mask><g mask="url(#satori_om-id)" clip-path="url(#satori_cp-id)"><path fill="#f59e0b" d="M695.3 72L679.8 72L679.8 68.8L687.6 61.5Q688.5 60.6 689.2 59.8Q689.9 59.0 690.3 58.2Q690.6 57.5 690.6 56.6L690.6 56.6Q690.6 55.6 690.2 54.9Q689.7 54.2 689.0 53.8Q688.2 53.5 687.2 53.5L687.2 53.5Q686.2 53.5 685.5 53.9Q684.7 54.3 684.3 55.0Q683.9 55.8 683.9 56.9L683.9 56.9L679.6 56.9Q679.6 54.7 680.6 53.2Q681.6 51.6 683.3 50.7Q685.0 49.9 687.3 49.9L687.3 49.9Q689.6 49.9 691.3 50.7Q693.0 51.5 694.0 53.0Q695.0 54.4 695.0 56.3L695.0 56.3Q695.0 57.5 694.5 58.7Q694.0 59.9 692.8 61.4Q691.6 62.9 689.3 64.9L689.3 64.9L686.0 68.2L686.0 68.3L695.3 68.3L695.3 72ZM708.4 68.1L697.9 68.1L697.9 64.6L707.0 50.2L712.6 50.2L712.6 64.5L715.4 64.5L715.4 68.1L712.6 68.1L712.6 72L708.4 72L708.4 68.1ZM702.4 64.5L708.4 64.5L708.4 55.1L708.3 55.1L702.4 64.3L702.4 64.5ZM721.8 50.2L726.5 50.2L726.5 72L722.1 72L722.1 54.1L721.9 54.1L716.9 57.7L716.9 53.6L721.8 50.2ZM734.7 50.2L739.5 50.2L739.5 72L735.0 72L735.0 54.1L734.9 54.1L729.9 57.7L729.9 53.6L734.7 50.2Z "/></g><mask id="satori_om-id-3-1"><rect x="678" y="81" width="66" height="13" fill="#fff" mask="url(#satori_om-id)"/></mask><g mask="url(#satori_om-id)" clip-path="url(#satori_cp-id)"><path fill="rgba(200,195,225,0.45)" d="M682.2 92.1L682.2 92.1Q681.2 92.1 680.3 91.6Q679.5 91.1 679.0 90.2Q678.5 89.3 678.5 88.0L678.5 88.0Q678.5 86.7 679.0 85.8Q679.5 84.9 680.3 84.4Q681.2 83.9 682.2 83.9L682.2 83.9Q682.9 83.9 683.5 84.1Q684.1 84.3 684.5 84.6Q685.0 85.0 685.3 85.5Q685.6 86.1 685.7 86.7L685.7 86.7L684.0 86.7Q684.0 86.4 683.8 86.1Q683.6 85.9 683.4 85.7Q683.2 85.5 682.9 85.4Q682.6 85.3 682.3 85.3L682.3 85.3Q681.6 85.3 681.2 85.7Q680.7 86.0 680.4 86.6Q680.2 87.2 680.2 88.0L680.2 88.0Q680.2 88.9 680.4 89.5Q680.7 90.1 681.2 90.4Q681.6 90.7 682.2 90.7L682.2 90.7Q682.6 90.7 682.9 90.6Q683.2 90.5 683.4 90.3Q683.6 90.1 683.8 89.8Q684.0 89.6 684.0 89.3L684.0 89.3L685.7 89.3Q685.6 89.8 685.3 90.3Q685.1 90.8 684.6 91.2Q684.2 91.6 683.6 91.9Q683.0 92.1 682.2 92.1ZM691.9 92.1L691.9 92.1Q690.8 92.1 690.0 91.6Q689.1 91.1 688.6 90.2Q688.1 89.3 688.1 88.0L688.1 88.0Q688.1 86.7 688.6 85.8Q689.1 84.9 690.0 84.4Q690.8 83.9 691.9 83.9L691.9 83.9Q692.9 83.9 693.8 84.4Q694.6 84.9 695.1 85.8Q695.6 86.7 695.6 88.0L695.6 88.0Q695.6 89.3 695.1 90.2Q694.6 91.1 693.8 91.6Q692.9 92.1 691.9 92.1ZM691.9 90.7L691.9 90.7Q692.5 90.7 693.0 90.3Q693.4 90.0 693.7 89.5Q693.9 88.9 693.9 88.0L693.9 88.0Q693.9 87.1 693.7 86.5Q693.4 86.0 693.0 85.6Q692.5 85.3 691.9 85.3L691.9 85.3Q691.3 85.3 690.8 85.7Q690.3 86.0 690.1 86.6Q689.8 87.1 689.8 88.0L689.8 88.0Q689.8 88.9 690.1 89.4Q690.3 90.0 690.8 90.3Q691.3 90.7 691.9 90.7ZM700.0 92L698.3 92L698.3 84.0L700.9 84.0L702.2 87.7Q702.2 87.9 702.3 88.3Q702.4 88.7 702.5 89.2L702.5 89.2Q702.7 89.7 702.7 90.1L702.7 90.1Q702.8 89.7 702.9 89.2L702.9 89.2Q703.0 88.8 703.2 88.3Q703.3 87.9 703.3 87.7L703.3 87.7L704.6 84.0L707.1 84.0L707.1 92L705.5 92L705.5 88.2Q705.5 88.0 705.5 87.6Q705.5 87.2 705.5 86.7Q705.5 86.3 705.5 85.8L705.5 85.8Q705.6 85.6 705.6 85.4L705.6 85.4Q705.5 85.6 705.4 85.9L705.4 85.9Q705.3 86.3 705.2 86.8Q705.1 87.2 704.9 87.6Q704.8 88.0 704.8 88.2L704.8 88.2L703.4 92L702.0 92L700.7 88.2Q700.6 88.0 700.5 87.6Q700.4 87.2 700.3 86.8Q700.1 86.4 700.0 85.9L700.0 85.9Q700.0 85.7 699.9 85.5L699.9 85.5Q699.9 85.6 699.9 85.8L699.9 85.8Q699.9 86.2 699.9 86.7Q699.9 87.2 700.0 87.6Q700.0 88.0 700.0 88.2L700.0 88.2L700.0 92ZM711.7 92L710.1 92L710.1 84.0L712.6 84.0L713.9 87.7Q714.0 87.9 714.1 88.3Q714.2 88.7 714.3 89.2L714.3 89.2Q714.4 89.7 714.5 90.1L714.5 90.1Q714.6 89.7 714.7 89.2L714.7 89.2Q714.8 88.8 714.9 88.3Q715.0 87.9 715.1 87.7L715.1 87.7L716.4 84.0L718.9 84.0L718.9 92L717.2 92L717.2 88.2Q717.2 88.0 717.2 87.6Q717.3 87.2 717.3 86.7Q717.3 86.3 717.3 85.8L717.3 85.8Q717.3 85.6 717.3 85.4L717.3 85.4Q717.2 85.6 717.2 85.9L717.2 85.9Q717.1 86.3 716.9 86.8Q716.8 87.2 716.7 87.6Q716.6 88.0 716.5 88.2L716.5 88.2L715.2 92L713.8 92L712.4 88.2Q712.4 88.0 712.3 87.6Q712.1 87.2 712.0 86.8Q711.9 86.4 711.8 85.9L711.8 85.9Q711.7 85.7 711.7 85.5L711.7 85.5Q711.7 85.6 711.7 85.8L711.7 85.8Q711.7 86.2 711.7 86.7Q711.7 87.2 711.7 87.6Q711.7 88.0 711.7 88.2L711.7 88.2L711.7 92ZM721.8 84.0L723.5 84.0L723.5 92L721.8 92L721.8 84.0ZM728.5 85.4L726.1 85.4L726.1 84.0L732.6 84.0L732.6 85.4L730.2 85.4L730.2 92L728.5 92L728.5 85.4ZM738.2 92.1L738.2 92.1Q737.2 92.1 736.5 91.8Q735.8 91.5 735.4 90.9Q735.0 90.4 735.0 89.5L735.0 89.5L736.6 89.5Q736.6 89.9 736.8 90.2Q737.0 90.5 737.4 90.6Q737.7 90.7 738.2 90.7L738.2 90.7Q738.6 90.7 738.9 90.6Q739.3 90.5 739.5 90.2Q739.6 90.0 739.6 89.7L739.6 89.7Q739.6 89.4 739.5 89.3Q739.3 89.1 739.0 88.9Q738.7 88.8 738.3 88.7L738.3 88.7L737.4 88.5Q736.4 88.2 735.8 87.7Q735.2 87.2 735.2 86.3L735.2 86.3Q735.2 85.6 735.6 85.0Q736.0 84.5 736.7 84.2Q737.3 83.9 738.2 83.9L738.2 83.9Q739.1 83.9 739.8 84.2Q740.4 84.5 740.8 85.0Q741.2 85.6 741.2 86.3L741.2 86.3L739.6 86.3Q739.6 85.8 739.2 85.5Q738.8 85.3 738.2 85.3L738.2 85.3Q737.8 85.3 737.5 85.4Q737.2 85.5 737.0 85.7Q736.9 85.9 736.9 86.2L736.9 86.2Q736.9 86.5 737.1 86.7Q737.2 86.9 737.5 87.0Q737.8 87.1 738.2 87.2L738.2 87.2L738.9 87.4Q739.4 87.5 739.8 87.7Q740.3 87.9 740.6 88.2Q740.9 88.4 741.1 88.8Q741.3 89.2 741.3 89.7L741.3 89.7Q741.3 90.4 740.9 91.0Q740.6 91.5 739.9 91.8Q739.2 92.1 738.2 92.1Z "/></g></svg>