<!-- Generated by readme-aura https://github.com/collectioneur/readme-aura -->
<svg width="860" height="140" viewBox="0 0 860 140" xmlns="http://www.w3.org/2000/svg"><defs><clipPath id="satori_bc-id"><path x="0" y="0" width="860" height="140" d="M16,0 h828 a16,16 0 0 1 16,16 v108 a16,16 0 0 1 -16,16 h-828 a16,16 0 0 1 -16,-16 v-108 a16,16 0 0 1 16,-16"/></clipPath></defs><clipPath id="satori_cp-id"><path x="0" y="0" width="860" height="140" d="M16,0 h828 a16,16 0 0 1 16,16 v108 a16,16 0 0 1 -16,16 h-828 a16,16 0 0 1 -16,-16 v-108 a16,16 0 0 1 16,-16"/></clipPath><mask id="satori_om-id"><rect x="1" y="1" width="858" height="138" fill="#fff"/><path width="860" height="140" fill="none" stroke="#000" stroke-width="2" d="M4.686,4.686 A16,16 0 0 1 16,0 h828 a16,16 0 0 1 16,16 v108 a16,16 0 0 1 -16,16 h-828 a16,16 0 0 1 -16,-16 v-108 A16,16 0 0 1 4.686,4.686"/></mask><path x="0" y="0" width="860" height="140" fill="#08080c" d="M16,0 h828 a16,16 0 0 1 16,16 v108 a16,16 0 0 1 -16,16 h-828 a16,16 0 0 1 -16,-16 v-108 a16,16 0 0 1 16,-16"/><path width="860" height="140" clip-path="url(#satori_bc-id)" fill="none" stroke="rgba(110,80,220,0.18)" stroke-width="2" d="M4.686,4.686 A16,16 0 0 1 16,0 h828 a16,16 0 0 1 16,16 v108 a16,16 0 0 1 -16,16 h-828 a16,16 0 0 1 -16,-16 v-108 A16,16 0 0 1 4.686,4.686"/><clipPath id="satori_cp-id-0" clip-path="url(#satori_cp-id)"><rect x="1" y="1" width="860" height="140"/></clipPath><mask id="satori_om-id-0"><rect x="1" y="1" width="860" height="140" fill="#fff" mask="url(#satori_om-id)"/></mask><svg x="1" y="1" width="860" height="140" preserveAspectRatio="none" clip-path="url(#satori_cp-id-0)" mask="url(#satori_om-id-0)"><defs><radialGradient id="g1" cx="50%" cy="50%" r="50%"><stop offset="0%" stop-color="rgba(110,20,210,0.65)"></stop><stop offset="45%" stop-color="rgba(80,15,170,0.28)"></stop><stop offset="70%" stop-color="rgba(80,15,170,0)"></stop></radialGradient><radialGradient id="g2" cx="50%" cy="50%" r="50%"><stop offset="0%" stop-color="rgba(40,70,255,0.55)"></stop><stop offset="45%" stop-color="rgba(20,50,200,0.22)"></stop><stop offset="70%" stop-color="rgba(20,50,200,0)"></stop></radialGradient><radialGradient id="g3" cx="50%" cy="50%" r="50%"><stop offset="0%" stop-color="rgba(0,140,255,0.42)"></stop><stop offset="70%" stop-color="rgba(0,140,255,0)"></stop></radialGradient><radialGradient id="g4" cx="50%" cy="50%" r="50%"><stop offset="0%" stop-color="rgba(0,195,235,0.30)"></stop><stop offset="70%" stop-color="rgba(0,195,235,0)"></stop></radialGradient><radialGradient id="g5" cx="50%" cy="50%" r="50%"><stop offset="0%" stop-color="rgba(100,30,210,0.40)"></stop><stop offset="70%" stop-color="rgba(100,30,210,0)"></stop></radialGradient></defs><ellipse id="glow-1" cx="710" cy="150" rx="210" ry="150" fill="url(#g1)"></ellipse><ellipse id="glow-2" cx="550" cy="140" rx="190" ry="140" fill="url(#g2)"></ellipse><ellipse id="glow-3" cx="400" cy="130" rx="170" ry="130" fill="url(#g3)"></ellipse><ellipse id="glow-4" cx="250" cy="140" rx="150" ry="120" fill="url(#g4)"></ellipse><ellipse id="glow-5" cx="100" cy="150" rx="130" ry="110" fill="url(#g5)"></ellipse><style>

         @keyframes float-slow {
           0%, 100% { transform: translateX(0px); opacity: 0.8; }
           50% { transform: translateX(350px); opacity: 1.2; }
         }
         @keyframes float-medium {
           0%, 100% { transform: translateX(0px); opacity: 0.7; }
           50% { transform: translateX(-250px); opacity: 1.1; }
         }
         @keyframes float-fast {
           0%, 100% { transform: translateX(0px); opacity: 0.9; }
           50% { transform: translateX(200px); opacity: 0.6; }
         }
         @keyframes float-diagonal {
           0%, 100% { transform: translate(0px, 0px); opacity: 0.75; }
           50% { transform: translate(120px, 30px); opacity: 1.0; }
         }
         @keyframes float-wave {
           0%, 100% { transform: translateX(0px); opacity: 0.65; }
           33% { transform: translateX(-160px); opacity: 0.9; }
           66% { transform: translateX(80px); opacity: 1.0; }
         }
         @keyframes float-pulse {
           0%, 100% { transform: scale(1); opacity: 0.8; }
           50% { transform: scale(1.3); opacity: 0.4; }
         }
         #glow-1 { animation: float-slow 8s ease-in-out infinite; }
         #glow-2 { animation: float-medium 12s ease-in-out infinite; }
         #glow-3 { animation: float-fast 9s ease-in-out infinite; }
         #glow-4 { animation: float-diagonal 10s ease-in-out infinite; }
         #glow-5 { animation: float-wave 14s ease-in-out infinite; }
       
</style>
</svg><mask id="satori_om-id-0-0"><rect x="1" y="1" width="0" height="140" fill="#fff" mask="url(#satori_om-id)"/></mask><mask id="satori_om-id-0-0-0"><rect x="1" y="1" width="0" height="140" fill="#fff" mask="url(#satori_om-id)"/></mask><mask id="satori_om-id-0-0-0-0"><rect x="1" y="1" width="0" height="140" fill="#fff" mask="url(#satori_om-id)"/></mask><mask id="satori_om-id-0-0-0-1"><rect x="1" y="1" width="0" height="140" fill="#fff" mask="url(#satori_om-id)"/></mask><mask id="satori_om-id-0-0-0-2"><rect x="1" y="1" width="0" height="140" fill="#fff" mask="url(#satori_om-id)"/></mask><mask id="satori_om-id-0-0-1"><rect x="1" y="1" width="0" height="140" fill="#fff" mask="url(#satori_om-id)"/></mask><mask id="satori_om-id-0-0-1-0"><rect x="1" y="1" width="0" height="140" fill="#fff" mask="url(#satori_om-id)"/></mask><mask id="satori_om-id-0-0-1-1"><rect x="1" y="1" width="0" height="140" fill="#fff" mask="url(#satori_om-id)"/></mask><mask id="satori_om-id-0-0-1-2"><rect x="1" y="1" width="0" height="140" fill="#fff" mask="url(#satori_om-id)"/></mask><mask id="satori_om-id-0-0-2"><rect x="1" y="1" width="0" height="140" fill="#fff" mask="url(#satori_om-id)"/></mask><mask id="satori_om-id-0-0-2-0"><rect x="1" y="1" width="0" height="140" fill="#fff" mask="url(#satori_om-id)"/></mask><mask id="satori_om-id-0-0-2-1"><rect x="1" y="1" width="0" height="140" fill="#fff" mask="url(#satori_om-id)"/></mask><mask id="satori_om-id-0-0-3"><rect x="1" y="1" width="0" height="140" fill="#fff" mask="url(#satori_om-id)"/></mask><mask id="satori_om-id-0-0-3-0"><rect x="1" y="1" width="0" height="140" fill="#fff" mask="url(#satori_om-id)"/></mask><mask id="satori_om-id-0-0-3-1"><rect x="1" y="1" width="0" height="140" fill="#fff" mask="url(#satori_om-id)"/></mask><mask id="satori_om-id-0-0-4"><rect x="1" y="1" width="0" height="140" fill="#fff" mask="url(#satori_om-id)"/></mask><mask id="satori_om-id-0-0-4-0"><rect x="1" y="1" width="0" height="140" fill="#fff" mask="url(#satori_om-id)"/></mask><mask id="satori_om-id-0-0-4-1"><rect x="1" y="1" width="0" height="140" fill="#fff" mask="url(#satori_om-id)"/></mask><mask id="satori_om-id-0-1"><rect x="1" y="1" width="0" height="140" fill="#fff" mask="url(#satori_om-id)"/></mask><mask id="satori_om-id-0-2"><rect x="1" y="1" width="0" height="140" fill="#fff" mask="url(#satori_om-id)"/></mask><mask id="satori_om-id-0-3"><rect x="1" y="1" width="0" height="140" fill="#fff" mask="url(#satori_om-id)"/></mask><mask id="satori_om-id-0-4"><rect x="1" y="1" width="0" height="140" fill="#fff" mask="url(#satori_om-id)"/></mask><mask id="satori_om-id-0-5"><rect x="1" y="1" width="0" height="140" fill="#fff" mask="url(#satori_om-id)"/></mask><defs><clipPath id="satori_bc-id-1" clip-path="url(#satori_cp-id)"><rect x="1" y="30" width="275" height="80"/></clipPath></defs><mask id="satori_om-id-1"><rect x="1" y="30" width="274" height="80" fill="#fff" mask="url(#satori_om-id)"/><path width="275" height="80" fill="none" stroke="#000" stroke-width="2" d="M276,30 A0,0 0 0 1 276,30 v80 A0,0 0 0 1 276,110"/></mask><path width="275" height="80" clip-path="url(#satori_bc-id-1)" fill="none" stroke="rgba(255,255,255,0.06)" stroke-width="2" d="M276,30 A0,0 0 0 1 276,30 v80 A0,0 0 0 1 276,110"/><mask id="satori_om-id-1-0"><rect x="125" y="46" width="26" height="30" fill="#fff" mask="url(#satori_om-id)"/></mask><g mask="url(#satori_om-id)" clip-path="url(#satori_cp-id)"><path fill="#a78bfa" d="M131.2 50.2L136.0 50.2L136.0 72L131.5 72L131.5 54.1L131.4 54.1L126.4 57.7L126.4 53.6L131.2 50.2ZM144.1 50.2L148.9 50.2L148.9 72L144.4 72L144.4 54.1L144.3 54.1L139.3 57.7L139.3 53.6L144.1 50.2Z "/></g><mask id="satori_om-id-1-1"><rect x="115" y="81" width="45" height="13" fill="#fff" mask="url(#satori_om-id)"/></mask><g mask="url(#satori_om-id)" clip-path="url(#satori_cp-id)"><path fill="rgba(200,195,225,0.45)" d="M117.4 92L115.7 92L115.7 84.0L118.8 84.0Q119.8 84.0 120.4 84.3Q121.0 84.6 121.4 85.2Q121.7 85.8 121.7 86.6Q121.7 87.4 121.4 88.0Q121.0 88.5 120.4 88.8L120.4 88.8Q120.3 88.9 120.3 88.9L120.3 88.9L122.0 92L120.2 92L118.6 89.1L117.4 89.1L117.4 92ZM117.4 85.4L117.4 87.8L118.5 87.8Q119.0 87.8 119.4 87.7Q119.7 87.5 119.9 87.3Q120.0 87.0 120.0 86.6L120.0 86.6Q120.0 86.2 119.9 85.9Q119.7 85.6 119.4 85.5Q119.0 85.4 118.5 85.4L118.5 85.4L117.4 85.4ZM129.8 92L124.4 92L124.4 84.0L129.8 84.0L129.8 85.4L126.1 85.4L126.1 87.3L129.5 87.3L129.5 88.6L126.1 88.6L126.1 90.6L129.8 90.6L129.8 92ZM134.3 92L132.6 92L132.6 84.0L135.8 84.0Q136.7 84.0 137.3 84.3Q137.9 84.7 138.3 85.3Q138.6 85.9 138.6 86.7L138.6 86.7Q138.6 87.5 138.3 88.1Q137.9 88.7 137.3 89.0Q136.6 89.4 135.7 89.4L135.7 89.4L134.3 89.4L134.3 92ZM134.3 85.4L134.3 88.1L135.5 88.1Q136.0 88.1 136.3 87.9Q136.6 87.7 136.8 87.4Q136.9 87.1 136.9 86.7Q136.9 86.3 136.8 86.0Q136.6 85.7 136.3 85.5Q136.0 85.4 135.4 85.4L135.4 85.4L134.3 85.4ZM144.8 92.1L144.8 92.1Q143.7 92.1 142.9 91.6Q142.0 91.1 141.5 90.2Q141.0 89.3 141.0 88.0L141.0 88.0Q141.0 86.7 141.5 85.8Q142.0 84.9 142.9 84.4Q143.7 83.9 144.8 83.9L144.8 83.9Q145.8 83.9 146.7 84.4Q147.5 84.9 148.0 85.8Q148.5 86.7 148.5 88.0L148.5 88.0Q148.5 89.3 148.0 90.2Q147.5 91.1 146.7 91.6Q145.8 92.1 144.8 92.1ZM144.8 90.7L144.8 90.7Q145.4 90.7 145.9 90.3Q146.3 90.0 146.6 89.5Q146.8 88.9 146.8 88.0L146.8 88.0Q146.8 87.1 146.6 86.5Q146.3 86.0 145.9 85.6Q145.4 85.3 144.8 85.3L144.8 85.3Q144.2 85.3 143.7 85.7Q143.2 86.0 143.0 86.6Q142.7 87.1 142.7 88.0L142.7 88.0Q142.7 88.9 143.0 89.4Q143.2 90.0 143.7 90.3Q144.2 90.7 144.8 90.7ZM154.2 92.1L154.2 92.1Q153.2 92.1 152.5 91.8Q151.8 91.5 151.4 90.9Q151.0 90.4 151.0 89.5L151.0 89.5L152.6 89.5Q152.6 89.9 152.8 90.2Q153.0 90.5 153.4 90.6Q153.7 90.7 154.2 90.7L154.2 90.7Q154.6 90.7 154.9 90.6Q155.2 90.5 155.4 90.2Q155.6 90.0 155.6 89.7L155.6 89.7Q155.6 89.4 155.4 89.3Q155.3 89.1 155.0 88.9Q154.7 88.8 154.2 88.7L154.2 88.7L153.3 88.5Q152.3 88.2 151.8 87.7Q151.2 87.2 151.2 86.3L151.2 86.3Q151.2 85.6 151.6 85.0Q152.0 84.5 152.6 84.2Q153.3 83.9 154.2 83.9L154.2 83.9Q155.1 83.9 155.7 84.2Q156.4 84.5 156.8 85.0Q157.1 85.6 157.1 86.3L157.1 86.3L155.6 86.3Q155.5 85.8 155.2 85.5Q154.8 85.3 154.2 85.3L154.2 85.3Q153.8 85.3 153.5 85.4Q153.2 85.5 153.0 85.7Q152.9 85.9 152.9 86.2L152.9 86.2Q152.9 86.5 153.0 86.7Q153.2 86.9 153.5 87.0Q153.8 87.1 154.1 87.2L154.1 87.2L154.9 87.4Q155.4 87.5 155.8 87.7Q156.2 87.9 156.6 88.2Q156.9 88.4 157.1 88.8Q157.3 89.2 157.3 89.7L157.3 89.7Q157.3 90.4 156.9 91.0Q156.5 91.5 155.8 91.8Q155.1 92.1 154.2 92.1Z "/></g><defs><clipPath id="satori_bc-id-2" clip-path="url(#satori_cp-id)"><rect x="276" y="30" width="274" height="80"/></clipPath></defs><mask id="satori_om-id-2"><rect x="276" y="30" width="273" height="80" fill="#fff" mask="url(#satori_om-id)"/><path width="274" height="80" fill="none" stroke="#000" stroke-width="2" d="M550,30 A0,0 0 0 1 550,30 v80 A0,0 0 0 1 550,110"/></mask><path width="274" height="80" clip-path="url(#satori_bc-id-2)" fill="none" stroke="rgba(255,255,255,0.06)" stroke-width="2" d="M550,30 A0,0 0 0 1 550,30 v80 A0,0 0 0 1 550,110"/><mask id="satori_om-id-2-0"><rect x="390" y="46" width="45" height="30" fill="#fff" mask="url(#satori_om-id)"/></mask><g mask="url(#satori_om-id)" clip-path="url(#satori_cp-id)"><path fill="#60a5fa" d="M396.2 50.2L401.0 50.2L401.0 72L396.5 72L396.5 54.1L396.4 54.1L391.4 57.7L391.4 53.6L396.2 50.2ZM420.2 72L404.8 72L404.8 68.8L412.5 61.5Q413.5 60.6 414.2 59.8Q414.8 59.0 415.2 58.2Q415.6 57.5 415.6 56.6L415.6 56.6Q415.6 55.6 415.1 54.9Q414.7 54.2 413.9 53.8Q413.2 53.5 412.2 53.5L412.2 53.5Q411.2 53.5 410.4 53.9Q409.6 54.3 409.2 55.0Q408.8 55.8 408.8 56.9L408.8 56.9L404.5 56.9Q404.5 54.7 405.5 53.2Q406.5 51.6 408.2 50.7Q410.0 49.9 412.2 49.9L412.2 49.9Q414.5 49.9 416.3 50.7Q418.0 51.5 418.9 53.0Q419.9 54.4 419.9 56.3L419.9 56.3Q419.9 57.5 419.4 58.7Q418.9 59.9 417.7 61.4Q416.5 62.9 414.3 64.9L414.3 64.9L411.0 68.2L411.0 68.3L420.2 68.3L420.2 72ZM428.0 50.2L432.8 50.2L432.8 72L428.3 72L428.3 54.1L428.2 54.1L423.2 57.7L423.2 53.6L428.0 50.2Z "/></g><mask id="satori_om-id-2-1"><rect x="390" y="81" width="45" height="13" fill="#fff" mask="url(#satori_om-id)"/></mask><g mask="url(#satori_om-id)" clip-path="url(#satori_cp-id)"><path fill="rgba(200,195,225,0.45)" d="M393.7 92.1L393.7 92.1Q392.7 92.1 392.0 91.8Q391.3 91.5 390.9 90.9Q390.5 90.4 390.5 89.5L390.5 89.5L392.1 89.5Q392.1 89.9 392.3 90.2Q392.5 90.5 392.9 90.6Q393.2 90.7 393.6 90.7L393.6 90.7Q394.1 90.7 394.4 90.6Q394.7 90.5 394.9 90.2Q395.1 90.0 395.1 89.7L395.1 89.7Q395.1 89.4 394.9 89.3Q394.8 89.1 394.5 88.9Q394.2 88.8 393.7 88.7L393.7 88.7L392.8 88.5Q391.8 88.2 391.2 87.7Q390.7 87.2 390.7 86.3L390.7 86.3Q390.7 85.6 391.1 85.0Q391.5 84.5 392.1 84.2Q392.8 83.9 393.7 83.9L393.7 83.9Q394.6 83.9 395.2 84.2Q395.9 84.5 396.3 85.0Q396.6 85.6 396.6 86.3L396.6 86.3L395.1 86.3Q395.0 85.8 394.6 85.5Q394.3 85.3 393.7 85.3L393.7 85.3Q393.2 85.3 393.0 85.4Q392.7 85.5 392.5 85.7Q392.4 85.9 392.4 86.2L392.4 86.2Q392.4 86.5 392.5 86.7Q392.7 86.9 393.0 87.0Q393.3 87.1 393.6 87.2L393.6 87.2L394.4 87.4Q394.9 87.5 395.3 87.7Q395.7 87.9 396.1 88.2Q396.4 88.4 396.6 88.8Q396.7 89.2 396.7 89.7L396.7 89.7Q396.7 90.4 396.4 91.0Q396.0 91.5 395.3 91.8Q394.6 92.1 393.7 92.1ZM401.6 85.4L399.1 85.4L399.1 84.0L405.6 84.0L405.6 85.4L403.2 85.4L403.2 92L401.6 92L401.6 85.4ZM409.6 92L407.8 92L410.5 84.0L412.7 84.0L415.5 92L413.7 92L413.1 90.1L410.2 90.1L409.6 92ZM410.6 88.9L412.6 88.9L412.4 88.1Q412.2 87.4 411.9 86.5L411.9 86.5Q411.8 85.9 411.6 85.3L411.6 85.3Q411.4 85.9 411.3 86.5L411.3 86.5Q411.1 87.4 410.9 88.1L410.9 88.1L410.6 88.9ZM419.6 92L418.0 92L418.0 84.0L421.1 84.0Q422.0 84.0 422.7 84.3Q423.3 84.6 423.6 85.2Q424.0 85.8 424.0 86.6Q424.0 87.4 423.6 88.0Q423.3 88.5 422.6 88.8L422.6 88.8Q422.6 88.9 422.5 88.9L422.5 88.9L424.3 92L422.4 92L420.9 89.1L419.6 89.1L419.6 92ZM419.6 85.4L419.6 87.8L420.8 87.8Q421.3 87.8 421.6 87.7Q422.0 87.5 422.1 87.3Q422.3 87.0 422.3 86.6L422.3 86.6Q422.3 86.2 422.1 85.9Q422.0 85.6 421.6 85.5Q421.3 85.4 420.8 85.4L420.8 85.4L419.6 85.4ZM429.6 92.1L429.6 92.1Q428.7 92.1 428.0 91.8Q427.3 91.5 426.9 90.9Q426.5 90.4 426.4 89.5L426.4 89.5L428.0 89.5Q428.1 89.9 428.3 90.2Q428.5 90.5 428.8 90.6Q429.2 90.7 429.6 90.7L429.6 90.7Q430.1 90.7 430.4 90.6Q430.7 90.5 430.9 90.2Q431.1 90.0 431.1 89.7L431.1 89.7Q431.1 89.4 430.9 89.3Q430.8 89.1 430.4 88.9Q430.1 88.8 429.7 88.7L429.7 88.7L428.8 88.5Q427.8 88.2 427.2 87.7Q426.7 87.2 426.7 86.3L426.7 86.3Q426.7 85.6 427.0 85.0Q427.4 84.5 428.1 84.2Q428.8 83.9 429.7 83.9L429.7 83.9Q430.5 83.9 431.2 84.2Q431.9 84.5 432.2 85.0Q432.6 85.6 432.6 86.3L432.6 86.3L431.0 86.3Q431.0 85.8 430.6 85.5Q430.3 85.3 429.6 85.3L429.6 85.3Q429.2 85.3 428.9 85.4Q428.6 85.5 428.5 85.7Q428.3 85.9 428.3 86.2L428.3 86.2Q428.3 86.5 428.5 86.7Q428.7 86.9 429.0 87.0Q429.3 87.1 429.6 87.2L429.6 87.2L430.3 87.4Q430.8 87.5 431.3 87.7Q431.7 87.9 432.0 88.2Q432.4 88.4 432.5 88.8Q432.7 89.2 432.7 89.7L432.7 89.7Q432.7 90.4 432.4 91.0Q432.0 91.5 431.3 91.8Q430.6 92.1 429.6 92.1Z "/></g><mask id="satori_om-id-3"><rect x="550" y="30" width="309" height="80" fill="#fff" mask="url(#satori_om-id)"/></mask><mask id="satori_om-id-3-0"><rect x="664" y="46" width="80" height="30" fill="#fff" mask="url(#satori_om-id)"/></mask><g mask="url(#satori_om-id)" clip-path="url(#satori_cp-id)"><path fill="#f59e0b" d="M681.3 72L665.8 72L665.8 68.8L673.6 61.5Q674.5 60.6 675.2 59.8Q675.9 59.0 676.3 58.2Q676.6 57.5 676.6 56.6L676.6 56.6Q676.6 55.6 676.2 54.9Q675.7 54.2 675.0 53.8Q674.2 53.5 673.2 53.5L673.2 53.5Q672.2 53.5 671.5 53.9Q670.7 54.3 670.3 55.0Q669.9 55.8 669.9 56.9L669.9 56.9L665.6 56.9Q665.6 54.7 666.6 53.2Q667.6 51.6 669.3 50.7Q671.0 49.9 673.3 49.9L673.3 49.9Q675.6 49.9 677.3 50.7Q679.0 51.5 680.0 53.0Q681.0 54.4 681.0 56.3L681.0 56.3Q681.0 57.5 680.5 58.7Q680.0 59.9 678.8 61.4Q677.6 62.9 675.3 64.9L675.3 64.9L672.0 68.2L672.0 68.3L681.3 68.3L681.3 72ZM694.4 68.1L683.9 68.1L683.9 64.6L693.0 50.2L698.6 50.2L698.6 64.5L701.4 64.5L701.4 68.1L698.6 68.1L698.6 72L694.4 72L694.4 68.1ZM688.4 64.5L694.4 64.5L694.4 55.1L694.3 55.1L688.4 64.3L688.4 64.5ZM712.8 72.3L712.8 72.3Q710.1 72.3 708.1 71.0Q706.2 69.6 705.1 67.1Q704.1 64.6 704.1 61.1L704.1 61.1Q704.1 57.6 705.1 55.1Q706.2 52.5 708.1 51.2Q710.1 49.9 712.8 49.9L712.8 49.9Q715.6 49.9 717.5 51.2Q719.5 52.6 720.5 55.1Q721.6 57.6 721.6 61.1L721.6 61.1Q721.6 64.6 720.5 67.1Q719.5 69.6 717.5 71.0Q715.6 72.3 712.8 72.3ZM712.8 68.6L712.8 68.6Q714.2 68.6 715.1 67.7Q716.0 66.8 716.5 65.2Q717.0 63.5 717.0 61.1L717.0 61.1Q717.0 58.7 716.5 57.0Q716.0 55.3 715.1 54.5Q714.2 53.6 712.8 53.6L712.8 53.6Q711.5 53.6 710.6 54.5Q709.6 55.3 709.1 57.0Q708.6 58.7 708.6 61.1L708.6 61.1Q708.6 63.5 709.1 65.2Q709.6 66.8 710.6 67.7Q711.5 68.6 712.8 68.6ZM734.9 68.1L724.4 68.1L724.4 64.6L733.6 50.2L739.2 50.2L739.2 64.5L741.9 64.5L741.9 68.1L739.2 68.1L739.2 72L734.9 72L734.9 68.1ZM728.9 64.5L735.0 64.5L735.0 55.1L734.8 55.1L728.9 64.3L728.9 64.5Z "/></g><mask id="satori_om-id-3-1"><rect x="671" y="81" width="66" height="13" fill="#fff" mask="url(#satori_om-id)"/></mask><g mask="url(#satori_om-id)" clip-path="url(#satori_cp-id)"><path fill="rgba(200,195,225,0.45)" d="M675.2 92.1L675.2 92.1Q674.2 92.1 673.3 91.6Q672.5 91.1 672.0 90.2Q671.5 89.3 671.5 88.0L671.5 88.0Q671.5 86.7 672.0 85.8Q672.5 84.9 673.3 84.4Q674.2 83.9 675.2 83.9L675.2 83.9Q675.9 83.9 676.5 84.1Q677.1 84.3 677.5 84.6Q678.0 85.0 678.3 85.5Q678.6 86.1 678.7 86.7L678.7 86.7L677.0 86.7Q677.0 86.4 676.8 86.1Q676.6 85.9 676.4 85.7Q676.2 85.5 675.9 85.4Q675.6 85.3 675.3 85.3L675.3 85.3Q674.6 85.3 674.2 85.7Q673.7 86.0 673.4 86.6Q673.2 87.2 673.2 88.0L673.2 88.0Q673.2 88.9 673.4 89.5Q673.7 90.1 674.2 90.4Q674.6 90.7 675.2 90.7L675.2 90.7Q675.6 90.7 675.9 90.6Q676.2 90.5 676.4 90.3Q676.6 90.1 676.8 89.8Q677.0 89.6 677.0 89.3L677.0 89.3L678.7 89.3Q678.6 89.8 678.3 90.3Q678.1 90.8 677.6 91.2Q677.2 91.6 676.6 91.9Q676.0 92.1 675.2 92.1ZM684.9 92.1L684.9 92.1Q683.8 92.1 683.0 91.6Q682.1 91.1 681.6 90.2Q681.1 89.3 681.1 88.0L681.1 88.0Q681.1 86.7 681.6 85.8Q682.1 84.9 683.0 84.4Q683.8 83.9 684.9 83.9L684.9 83.9Q685.9 83.9 686.8 84.4Q687.6 84.9 688.1 85.8Q688.6 86.7 688.6 88.0L688.6 88.0Q688.6 89.3 688.1 90.2Q687.6 91.1 686.8 91.6Q685.9 92.1 684.9 92.1ZM684.9 90.7L684.9 90.7Q685.5 90.7 686.0 90.3Q686.4 90.0 686.7 89.5Q686.9 88.9 686.9 88.0L686.9 88.0Q686.9 87.1 686.7 86.5Q686.4 86.0 686.0 85.6Q685.5 85.3 684.9 85.3L684.9 85.3Q684.3 85.3 683.8 85.7Q683.3 86.0 683.1 86.6Q682.8 87.1 682.8 88.0L682.8 88.0Q682.8 88.9 683.1 89.4Q683.3 90.0 683.8 90.3Q684.3 90.7 684.9 90.7ZM693.0 92L691.3 92L691.3 84.0L693.9 84.0L695.2 87.7Q695.2 87.9 695.3 88.3Q695.4 88.7 695.5 89.2L695.5 89.2Q695.7 89.7 695.7 90.1L695.7 90.1Q695.8 89.7 695.9 89.2L695.9 89.2Q696.0 88.8 696.2 88.3Q696.3 87.9 696.3 87.7L696.3 87.7L697.6 84.0L700.1 84.0L700.1 92L698.5 92L698.5 88.2Q698.5 88.0 698.5 87.6Q698.5 87.2 698.5 86.7Q698.5 86.3 698.5 85.8L698.5 85.8Q698.6 85.6 698.6 85.4L698.6 85.4Q698.5 85.6 698.4 85.9L698.4 85.9Q698.3 86.3 698.2 86.8Q698.1 87.2 697.9 87.6Q697.8 88.0 697.8 88.2L697.8 88.2L696.4 92L695.0 92L693.7 88.2Q693.6 88.0 693.5 87.6Q693.4 87.2 693.3 86.8Q693.1 86.4 693.0 85.9L693.0 85.9Q693.0 85.7 692.9 85.5L692.9 85.5Q692.9 85.6 692.9 85.8L692.9 85.8Q692.9 86.2 692.9 86.7Q692.9 87.2 693.0 87.6Q693.0 88.0 693.0 88.2L693.0 88.2L693.0 92ZM704.7 92L703.1 92L703.1 84.0L705.6 84.0L706.9 87.7Q707.0 87.9 707.1 88.3Q707.2 88.7 707.3 89.2L707.3 89.2Q707.4 89.7 707.5 90.1L707.5 90.1Q707.6 89.7 707.7 89.2L707.7 89.2Q707.8 88.8 707.9 88.3Q708.0 87.9 708.1 87.7L708.1 87.7L709.4 84.0L711.9 84.0L711.9 92L710.2 92L710.2 88.2Q710.2 88.0 710.2 87.6Q710.3 87.2 710.3 86.7Q710.3 86.3 710.3 85.8L710.3 85.8Q710.3 85.6 710.3 85.4L710.3 85.4Q710.2 85.6 710.2 85.9L710.2 85.9Q710.1 86.3 709.9 86.8Q709.8 87.2 709.7 87.6Q709.6 88.0 709.5 88.2L709.5 88.2L708.2 92L706.8 92L705.4 88.2Q705.4 88.0 705.3 87.6Q705.1 87.2 705.0 86.8Q704.9 86.4 704.8 85.9L704.8 85.9Q704.7 85.7 704.7 85.5L704.7 85.5Q704.7 85.6 704.7 85.8L704.7 85.8Q704.7 86.2 704.7 86.7Q704.7 87.2 704.7 87.6Q704.7 88.0 704.7 88.2L704.7 88.2L704.7 92ZM714.8 84.0L716.5 84.0L716.5 92L714.8 92L714.8 84.0ZM721.5 85.4L719.1 85.4L719.1 84.0L725.6 84.0L725.6 85.4L723.2 85.4L723.2 92L721.5 92L721.5 85.4ZM731.2 92.1L731.2 92.1Q730.2 92.1 729.5 91.8Q728.8 91.5 728.4 90.9Q728.0 90.4 728.0 89.5L728.0 89.5L729.6 89.5Q729.6 89.9 729.8 90.2Q730.0 90.5 730.4 90.6Q730.7 90.7 731.2 90.7L731.2 90.7Q731.6 90.7 731.9 90.6Q732.3 90.5 732.5 90.2Q732.6 90.0 732.6 89.7L732.6 89.7Q732.6 89.4 732.5 89.3Q732.3 89.1 732.0 88.9Q731.7 88.8 731.3 88.7L731.3 88.7L730.4 88.5Q729.4 88.2 728.8 87.7Q728.2 87.2 728.2 86.3L728.2 86.3Q728.2 85.6 728.6 85.0Q729.0 84.5 729.7 84.2Q730.3 83.9 731.2 83.9L731.2 83.9Q732.1 83.9 732.8 84.2Q733.4 84.5 733.8 85.0Q734.2 85.6 734.2 86.3L734.2 86.3L732.6 86.3Q732.6 85.8 732.2 85.5Q731.8 85.3 731.2 85.3L731.2 85.3Q730.8 85.3 730.5 85.4Q730.2 85.5 730.0 85.7Q729.9 85.9 729.9 86.2L729.9 86.2Q729.9 86.5 730.1 86.7Q730.2 86.9 730.5 87.0Q730.8 87.1 731.2 87.2L731.2 87.2L731.9 87.4Q732.4 87.5 732.8 87.7Q733.3 87.9 733.6 88.2Q733.9 88.4 734.1 88.8Q734.3 89.2 734.3 89.7L734.3 89.7Q734.3 90.4 733.9 91.0Q733.6 91.5 732.9 91.8Q732.2 92.1 731.2 92.1Z "/></g></svg>