<!-- Generated by readme-aura https://github.com/collectioneur/readme-aura -->
<svg width="860" height="140" viewBox="0 0 860 140" xmlns="http://www.w3.org/2000/svg"><defs><clipPath id="satori_bc-id"><path x="0" y="0" width="860" height="140" d="M16,0 h828 a16,16 0 0 1 16,16 v108 a16,16 0 0 1 -16,16 h-828 a16,16 0 0 1 -16,-16 v-108 a16,16 0 0 1 16,-16"/></clipPath></defs><clipPath id="satori_cp-id"><path x="0" y="0" width="860" height="140" d="M16,0 h828 a16,16 0 0 1 16,16 v108 a16,16 0 0 1 -16,16 h-828 a16,16 0 0 1 -16,-16 v-108 a16,16 0 0 1 16,-16"/></clipPath><mask id="satori_om-id"><rect x="1" y="1" width="858" height="138" fill="#fff"/><path width="860" height="140" fill="none" stroke="#000" stroke-width="2" d="M4.686,4.686 A16,16 0 0 1 16,0 h828 a16,16 0 0 1 16,16 v108 a16,16 0 0 1 -16,16 h-828 a16,16 0 0 1 -16,-16 v-108 A16,16 0 0 1 4.686,4.686"/></mask><path x="0" y="0" width="860" height="140" fill="#08080c" d="M16,0 h828 a16,16 0 0 1 16,16 v108 a16,16 0 0 1 -16,16 h-828 a16,16 0 0 1 -16,-16 v-108 a16,16 0 0 1 16,-16"/><path width="860" height="140" clip-path="url(#satori_bc-id)" fill="none" stroke="rgba(110,80,220,0.18)" stroke-width="2" d="M4.686,4.686 A16,16 0 0 1 16,0 h828 a16,16 0 0 1 16,16 v108 a16,16 0 0 1 -16,16 h-828 a16,16 0 0 1 -16,-16 v-108 A16,16 0 0 1 4.686,4.686"/><clipPath id="satori_cp-id-0" clip-path="url(#satori_cp-id)"><rect x="1" y="1" width="860" height="140"/></clipPath><mask id="satori_om-id-0"><rect x="1" y="1" width="860" height="140" fill="#fff" mask="url(#satori_om-id)"/></mask><svg x="1" y="1" width="860" height="140" preserveAspectRatio="none" clip-path="url(#satori_cp-id-0)" mask="url(#satori_om-id-0)"><defs><radialGradient id="g1" cx="50%" cy="50%" r="50%"><stop offset="0%" stop-color="rgba(110,20,210,0.65)"></stop><stop offset="45%" stop-color="rgba(80,15,170,0.28)"></stop><stop offset="70%" stop-color="rgba(80,15,170,0)"></stop></radialGradient><radialGradient id="g2" cx="50%" cy="50%" r="50%"><stop offset="0%" stop-color="rgba(40,70,255,0.55)"></stop><stop offset="45%" stop-color="rgba(20,50,200,0.22)"></stop><stop offset="70%" stop-color="rgba(20,50,200,0)"></stop></radialGradient><radialGradient id="g3" cx="50%" cy="50%" r="50%"><stop offset="0%" stop-color="rgba(0,140,255,0.42)"></stop><stop offset="70%" stop-color="rgba(0,140,255,0)"></stop></radialGradient><radialGradient id="g4" cx="50%" cy="50%" r="50%"><stop offset="0%" stop-color="rgba(0,195,235,0.30)"></stop><stop offset="70%" stop-color="rgba(0,195,235,0)"></stop></radialGradient><radialGradient id="g5" cx="50%" cy="50%" r="50%"><stop offset="0%" stop-color="rgba(100,30,210,0.40)"></stop><stop offset="70%" stop-color="rgba(100,30,210,0)"></stop></radialGradient></defs><ellipse id="glow-1" cx="710" cy="150" rx="210" ry="150" fill="url(#g1)"></ellipse><ellipse id="glow-2" cx="550" cy="140" rx="190" ry="140" fill="url(#g2)"></ellipse><ellipse id="glow-3" cx="400" cy="130" rx="170" ry="130" fill="url(#g3)"></ellipse><ellipse id="glow-4" cx="250" cy="140" rx="150" ry="120" fill="url(#g4)"></ellipse><ellipse id="glow-5" cx="100" cy="150" rx="130" ry="110" fill="url(#g5)"></ellipse><style>

         @keyframes float-slow {
           0%, 100% { transform: translateX(0px); opacity: 0.8; }
           50% { transform: translateX(350px); opacity: 1.2; }
         }
         @keyframes float-medium {
           0%, 100% { transform: translateX(0px); opacity: 0.7; }
           50% { transform: translateX(-250px); opacity: 1.1; }
         }
         @keyframes float-fast {
           0%, 100% { transform: translateX(0px); opacity: 0.9; }
           50% { transform: translateX(200px); opacity: 0.6; }
         }
         @keyframes float-diagonal {
           0%, 100% { transform: translate(0px, 0px); opacity: 0.75; }
           50% { transform: translate(120px, 30px); opacity: 1.0; }
         }
         @keyframes float-wave {
           0%, 100% { transform: translateX(0px); opacity: 0.65; }
           33% { transform: translateX(-160px); opacity: 0.9; }
           66% { transform: translateX(80px); opacity: 1.0; }
         }
         @keyframes float-pulse {
           0%, 100% { transform: scale(1); opacity: 0.8; }
           50% { transform: scale(1.3); opacity: 0.4; }
         }
         #glow-1 { animation: float-slow 8s ease-in-out infinite; }
         #glow-2 { animation: float-medium 12s ease-in-out infinite; }
         #glow-3 { animation: float-fast 9s ease-in-out infinite; }
         #glow-4 { animation: float-diagonal 10s ease-in-out infinite; }
         #glow-5 { animation: float-wave 14s ease-in-out infinite; }
       
</style>
</svg><mask id="satori_om-id-0-0"><rect x="1" y="1" width="0" height="140" fill="#fff" mask="url(#satori_om-id)"/></mask><mask id="satori_om-id-0-0-0"><rect x="1" y="1" width="0" height="140" fill="#fff" mask="url(#satori_om-id)"/></mask><mask id="satori_om-id-0-0-0-0"><rect x="1" y="1" width="0" height="140" fill="#fff" mask="url(#satori_om-id)"/></mask><mask id="satori_om-id-0-0-0-1"><rect x="1" y="1" width="0" height="140" fill="#fff" mask="url(#satori_om-id)"/></mask><mask id="satori_om-id-0-0-0-2"><rect x="1" y="1" width="0" height="140" fill="#fff" mask="url(#satori_om-id)"/></mask><mask id="satori_om-id-0-0-1"><rect x="1" y="1" width="0" height="140" fill="#fff" mask="url(#satori_om-id)"/></mask><mask id="satori_om-id-0-0-1-0"><rect x="1" y="1" width="0" height="140" fill="#fff" mask="url(#satori_om-id)"/></mask><mask id="satori_om-id-0-0-1-1"><rect x="1" y="1" width="0" height="140" fill="#fff" mask="url(#satori_om-id)"/></mask><mask id="satori_om-id-0-0-1-2"><rect x="1" y="1" width="0" height="140" fill="#fff" mask="url(#satori_om-id)"/></mask><mask id="satori_om-id-0-0-2"><rect x="1" y="1" width="0" height="140" fill="#fff" mask="url(#satori_om-id)"/></mask><mask id="satori_om-id-0-0-2-0"><rect x="1" y="1" width="0" height="140" fill="#fff" mask="url(#satori_om-id)"/></mask><mask id="satori_om-id-0-0-2-1"><rect x="1" y="1" width="0" height="140" fill="#fff" mask="url(#satori_om-id)"/></mask><mask id="satori_om-id-0-0-3"><rect x="1" y="1" width="0" height="140" fill="#fff" mask="url(#satori_om-id)"/></mask><mask id="satori_om-id-0-0-3-0"><rect x="1" y="1" width="0" height="140" fill="#fff" mask="url(#satori_om-id)"/></mask><mask id="satori_om-id-0-0-3-1"><rect x="1" y="1" width="0" height="140" fill="#fff" mask="url(#satori_om-id)"/></mask><mask id="satori_om-id-0-0-4"><rect x="1" y="1" width="0" height="140" fill="#fff" mask="url(#satori_om-id)"/></mask><mask id="satori_om-id-0-0-4-0"><rect x="1" y="1" width="0" height="140" fill="#fff" mask="url(#satori_om-id)"/></mask><mask id="satori_om-id-0-0-4-1"><rect x="1" y="1" width="0" height="140" fill="#fff" mask="url(#satori_om-id)"/></mask><mask id="satori_om-id-0-1"><rect x="1" y="1" width="0" height="140" fill="#fff" mask="url(#satori_om-id)"/></mask><mask id="satori_om-id-0-2"><rect x="1" y="1" width="0" height="140" fill="#fff" mask="url(#satori_om-id)"/></mask><mask id="satori_om-id-0-3"><rect x="1" y="1" width="0" height="140" fill="#fff" mask="url(#satori_om-id)"/></mask><mask id="satori_om-id-0-4"><rect x="1" y="1" width="0" height="140" fill="#fff" mask="url(#satori_om-id)"/></mask><mask id="satori_om-id-0-5"><rect x="1" y="1" width="0" height="140" fill="#fff" mask="url(#satori_om-id)"/></mask><defs><clipPath id="satori_bc-id-1" clip-path="url(#satori_cp-id)"><rect x="1" y="30" width="274" height="80"/></clipPath></defs><mask id="satori_om-id-1"><rect x="1" y="30" width="273" height="80" fill="#fff" mask="url(#satori_om-id)"/><path width="274" height="80" fill="none" stroke="#000" stroke-width="2" d="M275,30 A0,0 0 0 1 275,30 v80 A0,0 0 0 1 275,110"/></mask><path width="274" height="80" clip-path="url(#satori_bc-id-1)" fill="none" stroke="rgba(255,255,255,0.06)" stroke-width="2" d="M275,30 A0,0 0 0 1 275,30 v80 A0,0 0 0 1 275,110"/><mask id="satori_om-id-1-0"><rect x="124" y="46" width="26" height="30" fill="#fff" mask="url(#satori_om-id)"/></mask><g mask="url(#satori_om-id)" clip-path="url(#satori_cp-id)"><path fill="#a78bfa" d="M130.2 50.2L135.0 50.2L135.0 72L130.5 72L130.5 54.1L130.4 54.1L125.4 57.7L125.4 53.6L130.2 50.2ZM143.1 50.2L147.9 50.2L147.9 72L143.4 72L143.4 54.1L143.3 54.1L138.3 57.7L138.3 53.6L143.1 50.2Z "/></g><mask id="satori_om-id-1-1"><rect x="115" y="81" width="45" height="13" fill="#fff" mask="url(#satori_om-id)"/></mask><g mask="url(#satori_om-id)" clip-path="url(#satori_cp-id)"><path fill="rgba(200,195,225,0.45)" d="M117.4 92L115.7 92L115.7 84.0L118.8 84.0Q119.8 84.0 120.4 84.3Q121.0 84.6 121.4 85.2Q121.7 85.8 121.7 86.6Q121.7 87.4 121.4 88.0Q121.0 88.5 120.4 88.8L120.4 88.8Q120.3 88.9 120.3 88.9L120.3 88.9L122.0 92L120.2 92L118.6 89.1L117.4 89.1L117.4 92ZM117.4 85.4L117.4 87.8L118.5 87.8Q119.0 87.8 119.4 87.7Q119.7 87.5 119.9 87.3Q120.0 87.0 120.0 86.6L120.0 86.6Q120.0 86.2 119.9 85.9Q119.7 85.6 119.4 85.5Q119.0 85.4 118.5 85.4L118.5 85.4L117.4 85.4ZM129.8 92L124.4 92L124.4 84.0L129.8 84.0L129.8 85.4L126.1 85.4L126.1 87.3L129.5 87.3L129.5 88.6L126.1 88.6L126.1 90.6L129.8 90.6L129.8 92ZM134.3 92L132.6 92L132.6 84.0L135.8 84.0Q136.7 84.0 137.3 84.3Q137.9 84.7 138.3 85.3Q138.6 85.9 138.6 86.7L138.6 86.7Q138.6 87.5 138.3 88.1Q137.9 88.7 137.3 89.0Q136.6 89.4 135.7 89.4L135.7 89.4L134.3 89.4L134.3 92ZM134.3 85.4L134.3 88.1L135.5 88.1Q136.0 88.1 136.3 87.9Q136.6 87.7 136.8 87.4Q136.9 87.1 136.9 86.7Q136.9 86.3 136.8 86.0Q136.6 85.7 136.3 85.5Q136.0 85.4 135.4 85.4L135.4 85.4L134.3 85.4ZM144.8 92.1L144.8 92.1Q143.7 92.1 142.9 91.6Q142.0 91.1 141.5 90.2Q141.0 89.3 141.0 88.0L141.0 88.0Q141.0 86.7 141.5 85.8Q142.0 84.9 142.9 84.4Q143.7 83.9 144.8 83.9L144.8 83.9Q145.8 83.9 146.7 84.4Q147.5 84.9 148.0 85.8Q148.5 86.7 148.5 88.0L148.5 88.0Q148.5 89.3 148.0 90.2Q147.5 91.1 146.7 91.6Q145.8 92.1 144.8 92.1ZM144.8 90.7L144.8 90.7Q145.4 90.7 145.9 90.3Q146.3 90.0 146.6 89.5Q146.8 88.9 146.8 88.0L146.8 88.0Q146.8 87.1 146.6 86.5Q146.3 86.0 145.9 85.6Q145.4 85.3 144.8 85.3L144.8 85.3Q144.2 85.3 143.7 85.7Q143.2 86.0 143.0 86.6Q142.7 87.1 142.7 88.0L142.7 88.0Q142.7 88.9 143.0 89.4Q143.2 90.0 143.7 90.3Q144.2 90.7 144.8 90.7ZM154.2 92.1L154.2 92.1Q153.2 92.1 152.5 91.8Q151.8 91.5 151.4 90.9Q151.0 90.4 151.0 89.5L151.0 89.5L152.6 89.5Q152.6 89.9 152.8 90.2Q153.0 90.5 153.4 90.6Q153.7 90.7 154.2 90.7L154.2 90.7Q154.6 90.7 154.9 90.6Q155.2 90.5 155.4 90.2Q155.6 90.0 155.6 89.7L155.6 89.7Q155.6 89.4 155.4 89.3Q155.3 89.1 155.0 88.9Q154.7 88.8 154.2 88.7L154.2 88.7L153.3 88.5Q152.3 88.2 151.8 87.7Q151.2 87.2 151.2 86.3L151.2 86.3Q151.2 85.6 151.6 85.0Q152.0 84.5 152.6 84.2Q153.3 83.9 154.2 83.9L154.2 83.9Q155.1 83.9 155.7 84.2Q156.4 84.5 156.8 85.0Q157.1 85.6 157.1 86.3L157.1 86.3L155.6 86.3Q155.5 85.8 155.2 85.5Q154.8 85.3 154.2 85.3L154.2 85.3Q153.8 85.3 153.5 85.4Q153.2 85.5 153.0 85.7Q152.9 85.9 152.9 86.2L152.9 86.2Q152.9 86.5 153.0 86.7Q153.2 86.9 153.5 87.0Q153.8 87.1 154.1 87.2L154.1 87.2L154.9 87.4Q155.4 87.5 155.8 87.7Q156.2 87.9 156.6 88.2Q156.9 88.4 157.1 88.8Q157.3 89.2 157.3 89.7L157.3 89.7Q157.3 90.4 156.9 91.0Q156.5 91.5 155.8 91.8Q155.1 92.1 154.2 92.1Z "/></g><defs><clipPath id="satori_bc-id-2" clip-path="url(#satori_cp-id)"><rect x="275" y="30" width="279" height="80"/></clipPath></defs><mask id="satori_om-id-2"><rect x="275" y="30" width="278" height="80" fill="#fff" mask="url(#satori_om-id)"/><path width="279" height="80" fill="none" stroke="#000" stroke-width="2" d="M554,30 A0,0 0 0 1 554,30 v80 A0,0 0 0 1 554,110"/></mask><path width="279" height="80" clip-path="url(#satori_bc-id-2)" fill="none" stroke="rgba(255,255,255,0.06)" stroke-width="2" d="M554,30 A0,0 0 0 1 554,30 v80 A0,0 0 0 1 554,110"/><mask id="satori_om-id-2-0"><rect x="389" y="46" width="51" height="30" fill="#fff" mask="url(#satori_om-id)"/></mask><g mask="url(#satori_om-id)" clip-path="url(#satori_cp-id)"><path fill="#60a5fa" d="M395.2 50.2L400.0 50.2L400.0 72L395.5 72L395.5 54.1L395.4 54.1L390.4 57.7L390.4 53.6L395.2 50.2ZM413.9 68.1L403.4 68.1L403.4 64.6L412.5 50.2L418.2 50.2L418.2 64.5L420.9 64.5L420.9 68.1L418.2 68.1L418.2 72L413.9 72L413.9 68.1ZM407.9 64.5L413.9 64.5L413.9 55.1L413.8 55.1L407.9 64.3L407.9 64.5ZM429.5 72L424.8 72L433.9 54.0L433.9 53.9L423.3 53.9L423.3 50.2L438.6 50.2L438.6 53.9L429.5 72Z "/></g><mask id="satori_om-id-2-1"><rect x="392" y="81" width="45" height="13" fill="#fff" mask="url(#satori_om-id)"/></mask><g mask="url(#satori_om-id)" clip-path="url(#satori_cp-id)"><path fill="rgba(200,195,225,0.45)" d="M395.7 92.1L395.7 92.1Q394.7 92.1 394.0 91.8Q393.3 91.5 392.9 90.9Q392.5 90.4 392.5 89.5L392.5 89.5L394.1 89.5Q394.1 89.9 394.3 90.2Q394.5 90.5 394.9 90.6Q395.2 90.7 395.6 90.7L395.6 90.7Q396.1 90.7 396.4 90.6Q396.7 90.5 396.9 90.2Q397.1 90.0 397.1 89.7L397.1 89.7Q397.1 89.4 396.9 89.3Q396.8 89.1 396.5 88.9Q396.2 88.8 395.7 88.7L395.7 88.7L394.8 88.5Q393.8 88.2 393.2 87.7Q392.7 87.2 392.7 86.3L392.7 86.3Q392.7 85.6 393.1 85.0Q393.5 84.5 394.1 84.2Q394.8 83.9 395.7 83.9L395.7 83.9Q396.6 83.9 397.2 84.2Q397.9 84.5 398.3 85.0Q398.6 85.6 398.6 86.3L398.6 86.3L397.1 86.3Q397.0 85.8 396.6 85.5Q396.3 85.3 395.7 85.3L395.7 85.3Q395.2 85.3 395.0 85.4Q394.7 85.5 394.5 85.7Q394.4 85.9 394.4 86.2L394.4 86.2Q394.4 86.5 394.5 86.7Q394.7 86.9 395.0 87.0Q395.3 87.1 395.6 87.2L395.6 87.2L396.4 87.4Q396.9 87.5 397.3 87.7Q397.7 87.9 398.1 88.2Q398.4 88.4 398.6 88.8Q398.7 89.2 398.7 89.7L398.7 89.7Q398.7 90.4 398.4 91.0Q398.0 91.5 397.3 91.8Q396.6 92.1 395.7 92.1ZM403.6 85.4L401.1 85.4L401.1 84.0L407.6 84.0L407.6 85.4L405.2 85.4L405.2 92L403.6 92L403.6 85.4ZM411.6 92L409.8 92L412.5 84.0L414.7 84.0L417.5 92L415.7 92L415.1 90.1L412.2 90.1L411.6 92ZM412.6 88.9L414.6 88.9L414.4 88.1Q414.2 87.4 413.9 86.5L413.9 86.5Q413.8 85.9 413.6 85.3L413.6 85.3Q413.4 85.9 413.3 86.5L413.3 86.5Q413.1 87.4 412.9 88.1L412.9 88.1L412.6 88.9ZM421.6 92L420.0 92L420.0 84.0L423.1 84.0Q424.0 84.0 424.7 84.3Q425.3 84.6 425.6 85.2Q426.0 85.8 426.0 86.6Q426.0 87.4 425.6 88.0Q425.3 88.5 424.6 88.8L424.6 88.8Q424.6 88.9 424.5 88.9L424.5 88.9L426.3 92L424.4 92L422.9 89.1L421.6 89.1L421.6 92ZM421.6 85.4L421.6 87.8L422.8 87.8Q423.3 87.8 423.6 87.7Q424.0 87.5 424.1 87.3Q424.3 87.0 424.3 86.6L424.3 86.6Q424.3 86.2 424.1 85.9Q424.0 85.6 423.6 85.5Q423.3 85.4 422.8 85.4L422.8 85.4L421.6 85.4ZM431.6 92.1L431.6 92.1Q430.7 92.1 430.0 91.8Q429.3 91.5 428.9 90.9Q428.5 90.4 428.4 89.5L428.4 89.5L430.0 89.5Q430.1 89.9 430.3 90.2Q430.5 90.5 430.8 90.6Q431.2 90.7 431.6 90.7L431.6 90.7Q432.1 90.7 432.4 90.6Q432.7 90.5 432.9 90.2Q433.1 90.0 433.1 89.7L433.1 89.7Q433.1 89.4 432.9 89.3Q432.8 89.1 432.4 88.9Q432.1 88.8 431.7 88.7L431.7 88.7L430.8 88.5Q429.8 88.2 429.2 87.7Q428.7 87.2 428.7 86.3L428.7 86.3Q428.7 85.6 429.0 85.0Q429.4 84.5 430.1 84.2Q430.8 83.9 431.7 83.9L431.7 83.9Q432.5 83.9 433.2 84.2Q433.9 84.5 434.2 85.0Q434.6 85.6 434.6 86.3L434.6 86.3L433.0 86.3Q433.0 85.8 432.6 85.5Q432.3 85.3 431.6 85.3L431.6 85.3Q431.2 85.3 430.9 85.4Q430.6 85.5 430.5 85.7Q430.3 85.9 430.3 86.2L430.3 86.2Q430.3 86.5 430.5 86.7Q430.7 86.9 431.0 87.0Q431.3 87.1 431.6 87.2L431.6 87.2L432.3 87.4Q432.8 87.5 433.3 87.7Q433.7 87.9 434.0 88.2Q434.4 88.4 434.5 88.8Q434.7 89.2 434.7 89.7L434.7 89.7Q434.7 90.4 434.4 91.0Q434.0 91.5 433.3 91.8Q432.6 92.1 431.6 92.1Z "/></g><mask id="satori_om-id-3"><rect x="554" y="30" width="305" height="80" fill="#fff" mask="url(#satori_om-id)"/></mask><mask id="satori_om-id-3-0"><rect x="668" y="46" width="77" height="30" fill="#fff" mask="url(#satori_om-id)"/></mask><g mask="url(#satori_om-id)" clip-path="url(#satori_cp-id)"><path fill="#f59e0b" d="M685.3 72L669.8 72L669.8 68.8L677.6 61.5Q678.5 60.6 679.2 59.8Q679.9 59.0 680.3 58.2Q680.6 57.5 680.6 56.6L680.6 56.6Q680.6 55.6 680.2 54.9Q679.7 54.2 679.0 53.8Q678.2 53.5 677.2 53.5L677.2 53.5Q676.2 53.5 675.5 53.9Q674.7 54.3 674.3 55.0Q673.9 55.8 673.9 56.9L673.9 56.9L669.6 56.9Q669.6 54.7 670.6 53.2Q671.6 51.6 673.3 50.7Q675.0 49.9 677.3 49.9L677.3 49.9Q679.6 49.9 681.3 50.7Q683.0 51.5 684.0 53.0Q685.0 54.4 685.0 56.3L685.0 56.3Q685.0 57.5 684.5 58.7Q684.0 59.9 682.8 61.4Q681.6 62.9 679.3 64.9L679.3 64.9L676.0 68.2L676.0 68.3L685.3 68.3L685.3 72ZM698.4 68.1L687.9 68.1L687.9 64.6L697.0 50.2L702.6 50.2L702.6 64.5L705.4 64.5L705.4 68.1L702.6 68.1L702.6 72L698.4 72L698.4 68.1ZM692.4 64.5L698.4 64.5L698.4 55.1L698.3 55.1L692.4 64.3L692.4 64.5ZM716.7 72.3L716.7 72.3Q715.1 72.3 713.5 71.7Q712.0 71.2 710.8 69.9Q709.5 68.7 708.8 66.7Q708.1 64.6 708.1 61.6L708.1 61.6Q708.1 58.8 708.7 56.7Q709.3 54.5 710.5 53.0Q711.6 51.5 713.3 50.7Q714.9 49.9 716.9 49.9L716.9 49.9Q719.0 49.9 720.7 50.7Q722.4 51.6 723.4 53.0Q724.4 54.4 724.6 56.2L724.6 56.2L720.2 56.2Q719.9 55.1 719.1 54.4Q718.2 53.7 716.9 53.7L716.9 53.7Q715.5 53.7 714.5 54.6Q713.5 55.4 713.0 57.0Q712.5 58.6 712.5 60.7L712.5 60.7L712.6 60.7Q713.1 59.8 714.0 59.1Q714.8 58.4 715.9 58.0Q716.9 57.7 718.1 57.7L718.1 57.7Q720.0 57.7 721.6 58.6Q723.1 59.5 724.0 61.1Q724.8 62.7 724.8 64.7L724.8 64.7Q724.8 66.9 723.8 68.6Q722.8 70.3 721.0 71.3Q719.2 72.3 716.7 72.3ZM716.7 68.7L716.7 68.7Q717.8 68.7 718.6 68.2Q719.5 67.7 720.0 66.8Q720.5 65.9 720.5 64.8L720.5 64.8Q720.5 63.7 720.0 62.8Q719.5 62.0 718.7 61.4Q717.8 60.9 716.7 60.9L716.7 60.9Q715.9 60.9 715.2 61.2Q714.6 61.5 714.0 62.1Q713.5 62.6 713.2 63.3Q712.9 64.0 712.9 64.8L712.9 64.8Q712.9 65.9 713.4 66.8Q713.9 67.7 714.8 68.2Q715.6 68.7 716.7 68.7ZM733.4 72L728.8 72L737.9 54.0L737.9 53.9L727.3 53.9L727.3 50.2L742.5 50.2L742.5 53.9L733.4 72Z "/></g><mask id="satori_om-id-3-1"><rect x="673" y="81" width="66" height="13" fill="#fff" mask="url(#satori_om-id)"/></mask><g mask="url(#satori_om-id)" clip-path="url(#satori_cp-id)"><path fill="rgba(200,195,225,0.45)" d="M677.2 92.1L677.2 92.1Q676.2 92.1 675.3 91.6Q674.5 91.1 674.0 90.2Q673.5 89.3 673.5 88.0L673.5 88.0Q673.5 86.7 674.0 85.8Q674.5 84.9 675.3 84.4Q676.2 83.9 677.2 83.9L677.2 83.9Q677.9 83.9 678.5 84.1Q679.1 84.3 679.5 84.6Q680.0 85.0 680.3 85.5Q680.6 86.1 680.7 86.7L680.7 86.7L679.0 86.7Q679.0 86.4 678.8 86.1Q678.6 85.9 678.4 85.7Q678.2 85.5 677.9 85.4Q677.6 85.3 677.3 85.3L677.3 85.3Q676.6 85.3 676.2 85.7Q675.7 86.0 675.4 86.6Q675.2 87.2 675.2 88.0L675.2 88.0Q675.2 88.9 675.4 89.5Q675.7 90.1 676.2 90.4Q676.6 90.7 677.2 90.7L677.2 90.7Q677.6 90.7 677.9 90.6Q678.2 90.5 678.4 90.3Q678.6 90.1 678.8 89.8Q679.0 89.6 679.0 89.3L679.0 89.3L680.7 89.3Q680.6 89.8 680.3 90.3Q680.1 90.8 679.6 91.2Q679.2 91.6 678.6 91.9Q678.0 92.1 677.2 92.1ZM686.9 92.1L686.9 92.1Q685.8 92.1 685.0 91.6Q684.1 91.1 683.6 90.2Q683.1 89.3 683.1 88.0L683.1 88.0Q683.1 86.7 683.6 85.8Q684.1 84.9 685.0 84.4Q685.8 83.9 686.9 83.9L686.9 83.9Q687.9 83.9 688.8 84.4Q689.6 84.9 690.1 85.8Q690.6 86.7 690.6 88.0L690.6 88.0Q690.6 89.3 690.1 90.2Q689.6 91.1 688.8 91.6Q687.9 92.1 686.9 92.1ZM686.9 90.7L686.9 90.7Q687.5 90.7 688.0 90.3Q688.4 90.0 688.7 89.5Q688.9 88.9 688.9 88.0L688.9 88.0Q688.9 87.1 688.7 86.5Q688.4 86.0 688.0 85.6Q687.5 85.3 686.9 85.3L686.9 85.3Q686.3 85.3 685.8 85.7Q685.3 86.0 685.1 86.6Q684.8 87.1 684.8 88.0L684.8 88.0Q684.8 88.9 685.1 89.4Q685.3 90.0 685.8 90.3Q686.3 90.7 686.9 90.7ZM695.0 92L693.3 92L693.3 84.0L695.9 84.0L697.2 87.7Q697.2 87.9 697.3 88.3Q697.4 88.7 697.5 89.2L697.5 89.2Q697.7 89.7 697.7 90.1L697.7 90.1Q697.8 89.7 697.9 89.2L697.9 89.2Q698.0 88.8 698.2 88.3Q698.3 87.9 698.3 87.7L698.3 87.7L699.6 84.0L702.1 84.0L702.1 92L700.5 92L700.5 88.2Q700.5 88.0 700.5 87.6Q700.5 87.2 700.5 86.7Q700.5 86.3 700.5 85.8L700.5 85.8Q700.6 85.6 700.6 85.4L700.6 85.4Q700.5 85.6 700.4 85.9L700.4 85.9Q700.3 86.3 700.2 86.8Q700.1 87.2 699.9 87.6Q699.8 88.0 699.8 88.2L699.8 88.2L698.4 92L697.0 92L695.7 88.2Q695.6 88.0 695.5 87.6Q695.4 87.2 695.3 86.8Q695.1 86.4 695.0 85.9L695.0 85.9Q695.0 85.7 694.9 85.5L694.9 85.5Q694.9 85.6 694.9 85.8L694.9 85.8Q694.9 86.2 694.9 86.7Q694.9 87.2 695.0 87.6Q695.0 88.0 695.0 88.2L695.0 88.2L695.0 92ZM706.7 92L705.1 92L705.1 84.0L707.6 84.0L708.9 87.7Q709.0 87.9 709.1 88.3Q709.2 88.7 709.3 89.2L709.3 89.2Q709.4 89.7 709.5 90.1L709.5 90.1Q709.6 89.7 709.7 89.2L709.7 89.2Q709.8 88.8 709.9 88.3Q710.0 87.9 710.1 87.7L710.1 87.7L711.4 84.0L713.9 84.0L713.9 92L712.2 92L712.2 88.2Q712.2 88.0 712.2 87.6Q712.3 87.2 712.3 86.7Q712.3 86.3 712.3 85.8L712.3 85.8Q712.3 85.6 712.3 85.4L712.3 85.4Q712.2 85.6 712.2 85.9L712.2 85.9Q712.1 86.3 711.9 86.8Q711.8 87.2 711.7 87.6Q711.6 88.0 711.5 88.2L711.5 88.2L710.2 92L708.8 92L707.4 88.2Q707.4 88.0 707.3 87.6Q707.1 87.2 707.0 86.8Q706.9 86.4 706.8 85.9L706.8 85.9Q706.7 85.7 706.7 85.5L706.7 85.5Q706.7 85.6 706.7 85.8L706.7 85.8Q706.7 86.2 706.7 86.7Q706.7 87.2 706.7 87.6Q706.7 88.0 706.7 88.2L706.7 88.2L706.7 92ZM716.8 84.0L718.5 84.0L718.5 92L716.8 92L716.8 84.0ZM723.5 85.4L721.1 85.4L721.1 84.0L727.6 84.0L727.6 85.4L725.2 85.4L725.2 92L723.5 92L723.5 85.4ZM733.2 92.1L733.2 92.1Q732.2 92.1 731.5 91.8Q730.8 91.5 730.4 90.9Q730.0 90.4 730.0 89.5L730.0 89.5L731.6 89.5Q731.6 89.9 731.8 90.2Q732.0 90.5 732.4 90.6Q732.7 90.7 733.2 90.7L733.2 90.7Q733.6 90.7 733.9 90.6Q734.3 90.5 734.5 90.2Q734.6 90.0 734.6 89.7L734.6 89.7Q734.6 89.4 734.5 89.3Q734.3 89.1 734.0 88.9Q733.7 88.8 733.3 88.7L733.3 88.7L732.4 88.5Q731.4 88.2 730.8 87.7Q730.2 87.2 730.2 86.3L730.2 86.3Q730.2 85.6 730.6 85.0Q731.0 84.5 731.7 84.2Q732.3 83.9 733.2 83.9L733.2 83.9Q734.1 83.9 734.8 84.2Q735.4 84.5 735.8 85.0Q736.2 85.6 736.2 86.3L736.2 86.3L734.6 86.3Q734.6 85.8 734.2 85.5Q733.8 85.3 733.2 85.3L733.2 85.3Q732.8 85.3 732.5 85.4Q732.2 85.5 732.0 85.7Q731.9 85.9 731.9 86.2L731.9 86.2Q731.9 86.5 732.1 86.7Q732.2 86.9 732.5 87.0Q732.8 87.1 733.2 87.2L733.2 87.2L733.9 87.4Q734.4 87.5 734.8 87.7Q735.3 87.9 735.6 88.2Q735.9 88.4 736.1 88.8Q736.3 89.2 736.3 89.7L736.3 89.7Q736.3 90.4 735.9 91.0Q735.6 91.5 734.9 91.8Q734.2 92.1 733.2 92.1Z "/></g></svg>