<!-- Generated by readme-aura https://github.com/collectioneur/readme-aura -->
<svg width="860" height="140" viewBox="0 0 860 140" xmlns="http://www.w3.org/2000/svg"><defs><clipPath id="satori_bc-id"><path x="0" y="0" width="860" height="140" d="M16,0 h828 a16,16 0 0 1 16,16 v108 a16,16 0 0 1 -16,16 h-828 a16,16 0 0 1 -16,-16 v-108 a16,16 0 0 1 16,-16"/></clipPath></defs><clipPath id="satori_cp-id"><path x="0" y="0" width="860" height="140" d="M16,0 h828 a16,16 0 0 1 16,16 v108 a16,16 0 0 1 -16,16 h-828 a16,16 0 0 1 -16,-16 v-108 a16,16 0 0 1 16,-16"/></clipPath><mask id="satori_om-id"><rect x="1" y="1" width="858" height="138" fill="#fff"/><path width="860" height="140" fill="none" stroke="#000" stroke-width="2" d="M4.686,4.686 A16,16 0 0 1 16,0 h828 a16,16 0 0 1 16,16 v108 a16,16 0 0 1 -16,16 h-828 a16,16 0 0 1 -16,-16 v-108 A16,16 0 0 1 4.686,4.686"/></mask><path x="0" y="0" width="860" height="140" fill="#08080c" d="M16,0 h828 a16,16 0 0 1 16,16 v108 a16,16 0 0 1 -16,16 h-828 a16,16 0 0 1 -16,-16 v-108 a16,16 0 0 1 16,-16"/><path width="860" height="140" clip-path="url(#satori_bc-id)" fill="none" stroke="rgba(110,80,220,0.18)" stroke-width="2" d="M4.686,4.686 A16,16 0 0 1 16,0 h828 a16,16 0 0 1 16,16 v108 a16,16 0 0 1 -16,16 h-828 a16,16 0 0 1 -16,-16 v-108 A16,16 0 0 1 4.686,4.686"/><clipPath id="satori_cp-id-0" clip-path="url(#satori_cp-id)"><rect x="1" y="1" width="860" height="140"/></clipPath><mask id="satori_om-id-0"><rect x="1" y="1" width="860" height="140" fill="#fff" mask="url(#satori_om-id)"/></mask><svg x="1" y="1" width="860" height="140" preserveAspectRatio="none" clip-path="url(#satori_cp-id-0)" mask="url(#satori_om-id-0)"><defs><radialGradient id="g1" cx="50%" cy="50%" r="50%"><stop offset="0%" stop-color="rgba(110,20,210,0.65)"></stop><stop offset="45%" stop-color="rgba(80,15,170,0.28)"></stop><stop offset="70%" stop-color="rgba(80,15,170,0)"></stop></radialGradient><radialGradient id="g2" cx="50%" cy="50%" r="50%"><stop offset="0%" stop-color="rgba(40,70,255,0.55)"></stop><stop offset="45%" stop-color="rgba(20,50,200,0.22)"></stop><stop offset="70%" stop-color="rgba(20,50,200,0)"></stop></radialGradient><radialGradient id="g3" cx="50%" cy="50%" r="50%"><stop offset="0%" stop-color="rgba(0,140,255,0.42)"></stop><stop offset="70%" stop-color="rgba(0,140,255,0)"></stop></radialGradient><radialGradient id="g4" cx="50%" cy="50%" r="50%"><stop offset="0%" stop-color="rgba(0,195,235,0.30)"></stop><stop offset="70%" stop-color="rgba(0,195,235,0)"></stop></radialGradient><radialGradient id="g5" cx="50%" cy="50%" r="50%"><stop offset="0%" stop-color="rgba(100,30,210,0.40)"></stop><stop offset="70%" stop-color="rgba(100,30,210,0)"></stop></radialGradient></defs><ellipse id="glow-1" cx="710" cy="150" rx="210" ry="150" fill="url(#g1)"></ellipse><ellipse id="glow-2" cx="550" cy="140" rx="190" ry="140" fill="url(#g2)"></ellipse><ellipse id="glow-3" cx="400" cy="130" rx="170" ry="130" fill="url(#g3)"></ellipse><ellipse id="glow-4" cx="250" cy="140" rx="150" ry="120" fill="url(#g4)"></ellipse><ellipse id="glow-5" cx="100" cy="150" rx="130" ry="110" fill="url(#g5)"></ellipse><style>

         @keyframes float-slow {
           0%, 100% { transform: translateX(0px); opacity: 0.8; }
           50% { transform: translateX(350px); opacity: 1.2; }
         }
         @keyframes float-medium {
           0%, 100% { transform: translateX(0px); opacity: 0.7; }
           50% { transform: translateX(-250px); opacity: 1.1; }
         }
         @keyframes float-fast {
           0%, 100% { transform: translateX(0px); opacity: 0.9; }
           50% { transform: translateX(200px); opacity: 0.6; }
         }
         @keyframes float-diagonal {
           0%, 100% { transform: translate(0px, 0px); opacity: 0.75; }
           50% { transform: translate(120px, 30px); opacity: 1.0; }
         }
         @keyframes float-wave {
           0%, 100% { transform: translateX(0px); opacity: 0.65; }
           33% { transform: translateX(-160px); opacity: 0.9; }
           66% { transform: translateX(80px); opacity: 1.0; }
         }
         @keyframes float-pulse {
           0%, 100% { transform: scale(1); opacity: 0.8; }
           50% { transform: scale(1.3); opacity: 0.4; }
         }
         #glow-1 { animation: float-slow 8s ease-in-out infinite; }
         #glow-2 { animation: float-medium 12s ease-in-out infinite; }
         #glow-3 { animation: float-fast 9s ease-in-out infinite; }
         #glow-4 { animation: float-diagonal 10s ease-in-out infinite; }
         #glow-5 { animation: float-wave 14s ease-in-out infinite; }
       
</style>
</svg><mask id="satori_om-id-0-0"><rect x="1" y="1" width="0" height="140" fill="#fff" mask="url(#satori_om-id)"/></mask><mask id="satori_om-id-0-0-0"><rect x="1" y="1" width="0" height="140" fill="#fff" mask="url(#satori_om-id)"/></mask><mask id="satori_om-id-0-0-0-0"><rect x="1" y="1" width="0" height="140" fill="#fff" mask="url(#satori_om-id)"/></mask><mask id="satori_om-id-0-0-0-1"><rect x="1" y="1" width="0" height="140" fill="#fff" mask="url(#satori_om-id)"/></mask><mask id="satori_om-id-0-0-0-2"><rect x="1" y="1" width="0" height="140" fill="#fff" mask="url(#satori_om-id)"/></mask><mask id="satori_om-id-0-0-1"><rect x="1" y="1" width="0" height="140" fill="#fff" mask="url(#satori_om-id)"/></mask><mask id="satori_om-id-0-0-1-0"><rect x="1" y="1" width="0" height="140" fill="#fff" mask="url(#satori_om-id)"/></mask><mask id="satori_om-id-0-0-1-1"><rect x="1" y="1" width="0" height="140" fill="#fff" mask="url(#satori_om-id)"/></mask><mask id="satori_om-id-0-0-1-2"><rect x="1" y="1" width="0" height="140" fill="#fff" mask="url(#satori_om-id)"/></mask><mask id="satori_om-id-0-0-2"><rect x="1" y="1" width="0" height="140" fill="#fff" mask="url(#satori_om-id)"/></mask><mask id="satori_om-id-0-0-2-0"><rect x="1" y="1" width="0" height="140" fill="#fff" mask="url(#satori_om-id)"/></mask><mask id="satori_om-id-0-0-2-1"><rect x="1" y="1" width="0" height="140" fill="#fff" mask="url(#satori_om-id)"/></mask><mask id="satori_om-id-0-0-3"><rect x="1" y="1" width="0" height="140" fill="#fff" mask="url(#satori_om-id)"/></mask><mask id="satori_om-id-0-0-3-0"><rect x="1" y="1" width="0" height="140" fill="#fff" mask="url(#satori_om-id)"/></mask><mask id="satori_om-id-0-0-3-1"><rect x="1" y="1" width="0" height="140" fill="#fff" mask="url(#satori_om-id)"/></mask><mask id="satori_om-id-0-0-4"><rect x="1" y="1" width="0" height="140" fill="#fff" mask="url(#satori_om-id)"/></mask><mask id="satori_om-id-0-0-4-0"><rect x="1" y="1" width="0" height="140" fill="#fff" mask="url(#satori_om-id)"/></mask><mask id="satori_om-id-0-0-4-1"><rect x="1" y="1" width="0" height="140" fill="#fff" mask="url(#satori_om-id)"/></mask><mask id="satori_om-id-0-1"><rect x="1" y="1" width="0" height="140" fill="#fff" mask="url(#satori_om-id)"/></mask><mask id="satori_om-id-0-2"><rect x="1" y="1" width="0" height="140" fill="#fff" mask="url(#satori_om-id)"/></mask><mask id="satori_om-id-0-3"><rect x="1" y="1" width="0" height="140" fill="#fff" mask="url(#satori_om-id)"/></mask><mask id="satori_om-id-0-4"><rect x="1" y="1" width="0" height="140" fill="#fff" mask="url(#satori_om-id)"/></mask><mask id="satori_om-id-0-5"><rect x="1" y="1" width="0" height="140" fill="#fff" mask="url(#satori_om-id)"/></mask><defs><clipPath id="satori_bc-id-1" clip-path="url(#satori_cp-id)"><rect x="1" y="30" width="274" height="80"/></clipPath></defs><mask id="satori_om-id-1"><rect x="1" y="30" width="273" height="80" fill="#fff" mask="url(#satori_om-id)"/><path width="274" height="80" fill="none" stroke="#000" stroke-width="2" d="M275,30 A0,0 0 0 1 275,30 v80 A0,0 0 0 1 275,110"/></mask><path width="274" height="80" clip-path="url(#satori_bc-id-1)" fill="none" stroke="rgba(255,255,255,0.06)" stroke-width="2" d="M275,30 A0,0 0 0 1 275,30 v80 A0,0 0 0 1 275,110"/><mask id="satori_om-id-1-0"><rect x="121" y="46" width="33" height="30" fill="#fff" mask="url(#satori_om-id)"/></mask><g mask="url(#satori_om-id)" clip-path="url(#satori_cp-id)"><path fill="#a78bfa" d="M127.2 50.2L132.0 50.2L132.0 72L127.5 72L127.5 54.1L127.4 54.1L122.4 57.7L122.4 53.6L127.2 50.2ZM143.6 72.3L143.6 72.3Q141.2 72.3 139.4 71.5Q137.5 70.7 136.5 69.2Q135.4 67.8 135.4 65.9L135.4 65.9L139.9 65.9Q139.9 66.7 140.4 67.3Q140.9 67.9 141.7 68.3Q142.6 68.6 143.6 68.6L143.6 68.6Q144.7 68.6 145.5 68.2Q146.3 67.8 146.8 67.2Q147.3 66.5 147.3 65.6L147.3 65.6Q147.3 64.7 146.8 64.0Q146.3 63.3 145.4 62.9Q144.5 62.5 143.2 62.5L143.2 62.5L141.2 62.5L141.2 59.2L143.2 59.2Q144.3 59.2 145.1 58.8Q145.9 58.5 146.3 57.8Q146.8 57.2 146.8 56.3L146.8 56.3Q146.8 55.4 146.4 54.8Q146.0 54.2 145.3 53.8Q144.6 53.5 143.6 53.5L143.6 53.5Q142.7 53.5 141.9 53.8Q141.1 54.1 140.6 54.8Q140.1 55.4 140.1 56.2L140.1 56.2L135.8 56.2Q135.8 54.4 136.9 52.9Q137.9 51.5 139.7 50.7Q141.4 49.9 143.7 49.9L143.7 49.9Q145.9 49.9 147.6 50.7Q149.3 51.5 150.2 52.9Q151.1 54.3 151.1 56.0L151.1 56.0Q151.1 57.8 150.0 59.1Q148.9 60.3 147.0 60.6L147.0 60.6L147.0 60.8Q148.6 61.0 149.7 61.7Q150.8 62.4 151.4 63.5Q151.9 64.5 151.9 65.9L151.9 65.9Q151.9 67.7 150.9 69.2Q149.8 70.6 147.9 71.5Q146.0 72.3 143.6 72.3Z "/></g><mask id="satori_om-id-1-1"><rect x="115" y="81" width="45" height="13" fill="#fff" mask="url(#satori_om-id)"/></mask><g mask="url(#satori_om-id)" clip-path="url(#satori_cp-id)"><path fill="rgba(200,195,225,0.45)" d="M117.4 92L115.7 92L115.7 84.0L118.8 84.0Q119.8 84.0 120.4 84.3Q121.0 84.6 121.4 85.2Q121.7 85.8 121.7 86.6Q121.7 87.4 121.4 88.0Q121.0 88.5 120.4 88.8L120.4 88.8Q120.3 88.9 120.3 88.9L120.3 88.9L122.0 92L120.2 92L118.6 89.1L117.4 89.1L117.4 92ZM117.4 85.4L117.4 87.8L118.5 87.8Q119.0 87.8 119.4 87.7Q119.7 87.5 119.9 87.3Q120.0 87.0 120.0 86.6L120.0 86.6Q120.0 86.2 119.9 85.9Q119.7 85.6 119.4 85.5Q119.0 85.4 118.5 85.4L118.5 85.4L117.4 85.4ZM129.8 92L124.4 92L124.4 84.0L129.8 84.0L129.8 85.4L126.1 85.4L126.1 87.3L129.5 87.3L129.5 88.6L126.1 88.6L126.1 90.6L129.8 90.6L129.8 92ZM134.3 92L132.6 92L132.6 84.0L135.8 84.0Q136.7 84.0 137.3 84.3Q137.9 84.7 138.3 85.3Q138.6 85.9 138.6 86.7L138.6 86.7Q138.6 87.5 138.3 88.1Q137.9 88.7 137.3 89.0Q136.6 89.4 135.7 89.4L135.7 89.4L134.3 89.4L134.3 92ZM134.3 85.4L134.3 88.1L135.5 88.1Q136.0 88.1 136.3 87.9Q136.6 87.7 136.8 87.4Q136.9 87.1 136.9 86.7Q136.9 86.3 136.8 86.0Q136.6 85.7 136.3 85.5Q136.0 85.4 135.4 85.4L135.4 85.4L134.3 85.4ZM144.8 92.1L144.8 92.1Q143.7 92.1 142.9 91.6Q142.0 91.1 141.5 90.2Q141.0 89.3 141.0 88.0L141.0 88.0Q141.0 86.7 141.5 85.8Q142.0 84.9 142.9 84.4Q143.7 83.9 144.8 83.9L144.8 83.9Q145.8 83.9 146.7 84.4Q147.5 84.9 148.0 85.8Q148.5 86.7 148.5 88.0L148.5 88.0Q148.5 89.3 148.0 90.2Q147.5 91.1 146.7 91.6Q145.8 92.1 144.8 92.1ZM144.8 90.7L144.8 90.7Q145.4 90.7 145.9 90.3Q146.3 90.0 146.6 89.5Q146.8 88.9 146.8 88.0L146.8 88.0Q146.8 87.1 146.6 86.5Q146.3 86.0 145.9 85.6Q145.4 85.3 144.8 85.3L144.8 85.3Q144.2 85.3 143.7 85.7Q143.2 86.0 143.0 86.6Q142.7 87.1 142.7 88.0L142.7 88.0Q142.7 88.9 143.0 89.4Q143.2 90.0 143.7 90.3Q144.2 90.7 144.8 90.7ZM154.2 92.1L154.2 92.1Q153.2 92.1 152.5 91.8Q151.8 91.5 151.4 90.9Q151.0 90.4 151.0 89.5L151.0 89.5L152.6 89.5Q152.6 89.9 152.8 90.2Q153.0 90.5 153.4 90.6Q153.7 90.7 154.2 90.7L154.2 90.7Q154.6 90.7 154.9 90.6Q155.2 90.5 155.4 90.2Q155.6 90.0 155.6 89.7L155.6 89.7Q155.6 89.4 155.4 89.3Q155.3 89.1 155.0 88.9Q154.7 88.8 154.2 88.7L154.2 88.7L153.3 88.5Q152.3 88.2 151.8 87.7Q151.2 87.2 151.2 86.3L151.2 86.3Q151.2 85.6 151.6 85.0Q152.0 84.5 152.6 84.2Q153.3 83.9 154.2 83.9L154.2 83.9Q155.1 83.9 155.7 84.2Q156.4 84.5 156.8 85.0Q157.1 85.6 157.1 86.3L157.1 86.3L155.6 86.3Q155.5 85.8 155.2 85.5Q154.8 85.3 154.2 85.3L154.2 85.3Q153.8 85.3 153.5 85.4Q153.2 85.5 153.0 85.7Q152.9 85.9 152.9 86.2L152.9 86.2Q152.9 86.5 153.0 86.7Q153.2 86.9 153.5 87.0Q153.8 87.1 154.1 87.2L154.1 87.2L154.9 87.4Q155.4 87.5 155.8 87.7Q156.2 87.9 156.6 88.2Q156.9 88.4 157.1 88.8Q157.3 89.2 157.3 89.7L157.3 89.7Q157.3 90.4 156.9 91.0Q156.5 91.5 155.8 91.8Q155.1 92.1 154.2 92.1Z "/></g><defs><clipPath id="satori_bc-id-2" clip-path="url(#satori_cp-id)"><rect x="275" y="30" width="281" height="80"/></clipPath></defs><mask id="satori_om-id-2"><rect x="275" y="30" width="280" height="80" fill="#fff" mask="url(#satori_om-id)"/><path width="281" height="80" fill="none" stroke="#000" stroke-width="2" d="M556,30 A0,0 0 0 1 556,30 v80 A0,0 0 0 1 556,110"/></mask><path width="281" height="80" clip-path="url(#satori_bc-id-2)" fill="none" stroke="rgba(255,255,255,0.06)" stroke-width="2" d="M556,30 A0,0 0 0 1 556,30 v80 A0,0 0 0 1 556,110"/><mask id="satori_om-id-2-0"><rect x="389" y="46" width="53" height="30" fill="#fff" mask="url(#satori_om-id)"/></mask><g mask="url(#satori_om-id)" clip-path="url(#satori_cp-id)"><path fill="#60a5fa" d="M395.2 50.2L400.0 50.2L400.0 72L395.5 72L395.5 54.1L395.4 54.1L390.4 57.7L390.4 53.6L395.2 50.2ZM412.0 72.3L412.0 72.3Q409.3 72.3 407.3 71.0Q405.4 69.6 404.4 67.1Q403.3 64.6 403.3 61.1L403.3 61.1Q403.3 57.6 404.4 55.1Q405.4 52.5 407.3 51.2Q409.3 49.9 412.0 49.9L412.0 49.9Q414.8 49.9 416.8 51.2Q418.7 52.6 419.7 55.1Q420.8 57.6 420.8 61.1L420.8 61.1Q420.8 64.6 419.8 67.1Q418.7 69.6 416.8 71.0Q414.8 72.3 412.0 72.3ZM412.0 68.6L412.0 68.6Q413.4 68.6 414.3 67.7Q415.3 66.8 415.7 65.2Q416.2 63.5 416.2 61.1L416.2 61.1Q416.2 58.7 415.7 57.0Q415.3 55.3 414.3 54.5Q413.4 53.6 412.0 53.6L412.0 53.6Q410.7 53.6 409.8 54.5Q408.8 55.3 408.4 57.0Q407.9 58.7 407.9 61.1L407.9 61.1Q407.9 63.5 408.4 65.2Q408.8 66.8 409.8 67.7Q410.7 68.6 412.0 68.6ZM431.5 72.3L431.5 72.3Q429.3 72.3 427.7 71.5Q426.0 70.6 425.0 69.2Q424.0 67.7 423.8 65.9L423.8 65.9L428.2 65.9Q428.4 67.1 429.3 67.8Q430.2 68.5 431.5 68.5L431.5 68.5Q432.9 68.5 433.9 67.6Q434.9 66.8 435.4 65.2Q435.9 63.6 435.9 61.5L435.9 61.5L435.8 61.5Q435.3 62.4 434.4 63.1Q433.6 63.8 432.5 64.1Q431.5 64.5 430.3 64.5L430.3 64.5Q428.3 64.5 426.8 63.6Q425.3 62.7 424.4 61.1Q423.5 59.5 423.5 57.5L423.5 57.5Q423.5 55.2 424.6 53.5Q425.6 51.8 427.4 50.8Q429.3 49.8 431.7 49.9L431.7 49.9Q433.3 49.9 434.9 50.4Q436.4 51.0 437.6 52.2Q438.8 53.5 439.6 55.5Q440.3 57.6 440.3 60.6L440.3 60.6Q440.3 63.3 439.7 65.5Q439.0 67.7 437.9 69.2Q436.7 70.7 435.1 71.5Q433.5 72.3 431.5 72.3ZM431.6 61.2L431.6 61.2Q432.4 61.2 433.1 60.9Q433.8 60.6 434.4 60.1Q434.9 59.5 435.2 58.8Q435.5 58.1 435.5 57.3L435.5 57.3Q435.5 56.3 435.0 55.4Q434.5 54.5 433.6 54.0Q432.8 53.4 431.7 53.4L431.7 53.4Q430.6 53.4 429.7 53.9Q428.9 54.5 428.4 55.4Q427.9 56.2 427.9 57.3L427.9 57.3Q427.9 58.4 428.4 59.3Q428.9 60.2 429.7 60.7Q430.6 61.2 431.6 61.2Z "/></g><mask id="satori_om-id-2-1"><rect x="393" y="81" width="45" height="13" fill="#fff" mask="url(#satori_om-id)"/></mask><g mask="url(#satori_om-id)" clip-path="url(#satori_cp-id)"><path fill="rgba(200,195,225,0.45)" d="M396.7 92.1L396.7 92.1Q395.7 92.1 395.0 91.8Q394.3 91.5 393.9 90.9Q393.5 90.4 393.5 89.5L393.5 89.5L395.1 89.5Q395.1 89.9 395.3 90.2Q395.5 90.5 395.9 90.6Q396.2 90.7 396.6 90.7L396.6 90.7Q397.1 90.7 397.4 90.6Q397.7 90.5 397.9 90.2Q398.1 90.0 398.1 89.7L398.1 89.7Q398.1 89.4 397.9 89.3Q397.8 89.1 397.5 88.9Q397.2 88.8 396.7 88.7L396.7 88.7L395.8 88.5Q394.8 88.2 394.2 87.7Q393.7 87.2 393.7 86.3L393.7 86.3Q393.7 85.6 394.1 85.0Q394.5 84.5 395.1 84.2Q395.8 83.9 396.7 83.9L396.7 83.9Q397.6 83.9 398.2 84.2Q398.9 84.5 399.3 85.0Q399.6 85.6 399.6 86.3L399.6 86.3L398.1 86.3Q398.0 85.8 397.6 85.5Q397.3 85.3 396.7 85.3L396.7 85.3Q396.2 85.3 396.0 85.4Q395.7 85.5 395.5 85.7Q395.4 85.9 395.4 86.2L395.4 86.2Q395.4 86.5 395.5 86.7Q395.7 86.9 396.0 87.0Q396.3 87.1 396.6 87.2L396.6 87.2L397.4 87.4Q397.9 87.5 398.3 87.7Q398.7 87.9 399.1 88.2Q399.4 88.4 399.6 88.8Q399.7 89.2 399.7 89.7L399.7 89.7Q399.7 90.4 399.4 91.0Q399.0 91.5 398.3 91.8Q397.6 92.1 396.7 92.1ZM404.6 85.4L402.1 85.4L402.1 84.0L408.6 84.0L408.6 85.4L406.2 85.4L406.2 92L404.6 92L404.6 85.4ZM412.6 92L410.8 92L413.5 84.0L415.7 84.0L418.5 92L416.7 92L416.1 90.1L413.2 90.1L412.6 92ZM413.6 88.9L415.6 88.9L415.4 88.1Q415.2 87.4 414.9 86.5L414.9 86.5Q414.8 85.9 414.6 85.3L414.6 85.3Q414.4 85.9 414.3 86.5L414.3 86.5Q414.1 87.4 413.9 88.1L413.9 88.1L413.6 88.9ZM422.6 92L421.0 92L421.0 84.0L424.1 84.0Q425.0 84.0 425.7 84.3Q426.3 84.6 426.6 85.2Q427.0 85.8 427.0 86.6Q427.0 87.4 426.6 88.0Q426.3 88.5 425.6 88.8L425.6 88.8Q425.6 88.9 425.5 88.9L425.5 88.9L427.3 92L425.4 92L423.9 89.1L422.6 89.1L422.6 92ZM422.6 85.4L422.6 87.8L423.8 87.8Q424.3 87.8 424.6 87.7Q425.0 87.5 425.1 87.3Q425.3 87.0 425.3 86.6L425.3 86.6Q425.3 86.2 425.1 85.9Q425.0 85.6 424.6 85.5Q424.3 85.4 423.8 85.4L423.8 85.4L422.6 85.4ZM432.6 92.1L432.6 92.1Q431.7 92.1 431.0 91.8Q430.3 91.5 429.9 90.9Q429.5 90.4 429.4 89.5L429.4 89.5L431.0 89.5Q431.1 89.9 431.3 90.2Q431.5 90.5 431.8 90.6Q432.2 90.7 432.6 90.7L432.6 90.7Q433.1 90.7 433.4 90.6Q433.7 90.5 433.9 90.2Q434.1 90.0 434.1 89.7L434.1 89.7Q434.1 89.4 433.9 89.3Q433.8 89.1 433.4 88.9Q433.1 88.8 432.7 88.7L432.7 88.7L431.8 88.5Q430.8 88.2 430.2 87.7Q429.7 87.2 429.7 86.3L429.7 86.3Q429.7 85.6 430.0 85.0Q430.4 84.5 431.1 84.2Q431.8 83.9 432.7 83.9L432.7 83.9Q433.5 83.9 434.2 84.2Q434.9 84.5 435.2 85.0Q435.6 85.6 435.6 86.3L435.6 86.3L434.0 86.3Q434.0 85.8 433.6 85.5Q433.3 85.3 432.6 85.3L432.6 85.3Q432.2 85.3 431.9 85.4Q431.6 85.5 431.5 85.7Q431.3 85.9 431.3 86.2L431.3 86.2Q431.3 86.5 431.5 86.7Q431.7 86.9 432.0 87.0Q432.3 87.1 432.6 87.2L432.6 87.2L433.3 87.4Q433.8 87.5 434.3 87.7Q434.7 87.9 435.0 88.2Q435.4 88.4 435.5 88.8Q435.7 89.2 435.7 89.7L435.7 89.7Q435.7 90.4 435.4 91.0Q435.0 91.5 434.3 91.8Q433.6 92.1 432.6 92.1Z "/></g><mask id="satori_om-id-3"><rect x="556" y="30" width="303" height="80" fill="#fff" mask="url(#satori_om-id)"/></mask><mask id="satori_om-id-3-0"><rect x="670" y="46" width="75" height="30" fill="#fff" mask="url(#satori_om-id)"/></mask><g mask="url(#satori_om-id)" clip-path="url(#satori_cp-id)"><path fill="#f59e0b" d="M687.3 72L671.8 72L671.8 68.8L679.6 61.5Q680.5 60.6 681.2 59.8Q681.9 59.0 682.3 58.2Q682.6 57.5 682.6 56.6L682.6 56.6Q682.6 55.6 682.2 54.9Q681.7 54.2 681.0 53.8Q680.2 53.5 679.2 53.5L679.2 53.5Q678.2 53.5 677.5 53.9Q676.7 54.3 676.3 55.0Q675.9 55.8 675.9 56.9L675.9 56.9L671.6 56.9Q671.6 54.7 672.6 53.2Q673.6 51.6 675.3 50.7Q677.0 49.9 679.3 49.9L679.3 49.9Q681.6 49.9 683.3 50.7Q685.0 51.5 686.0 53.0Q687.0 54.4 687.0 56.3L687.0 56.3Q687.0 57.5 686.5 58.7Q686.0 59.9 684.8 61.4Q683.6 62.9 681.3 64.9L681.3 64.9L678.0 68.2L678.0 68.3L687.3 68.3L687.3 72ZM698.5 72.3L698.5 72.3Q696.2 72.3 694.3 71.5Q692.5 70.7 691.4 69.2Q690.4 67.8 690.3 65.9L690.3 65.9L694.8 65.9Q694.9 66.7 695.4 67.3Q695.9 67.9 696.7 68.3Q697.5 68.6 698.6 68.6L698.6 68.6Q699.6 68.6 700.5 68.2Q701.3 67.8 701.8 67.2Q702.2 66.5 702.2 65.6L702.2 65.6Q702.2 64.7 701.7 64.0Q701.2 63.3 700.3 62.9Q699.4 62.5 698.2 62.5L698.2 62.5L696.1 62.5L696.1 59.2L698.2 59.2Q699.2 59.2 700.0 58.8Q700.8 58.5 701.3 57.8Q701.8 57.2 701.8 56.3L701.8 56.3Q701.8 55.4 701.4 54.8Q701.0 54.2 700.3 53.8Q699.5 53.5 698.6 53.5L698.6 53.5Q697.6 53.5 696.9 53.8Q696.1 54.1 695.6 54.8Q695.1 55.4 695.1 56.2L695.1 56.2L690.8 56.2Q690.8 54.4 691.8 52.9Q692.9 51.5 694.6 50.7Q696.4 49.9 698.6 49.9L698.6 49.9Q700.9 49.9 702.5 50.7Q704.2 51.5 705.2 52.9Q706.1 54.3 706.1 56.0L706.1 56.0Q706.1 57.8 705.0 59.1Q703.8 60.3 702.0 60.6L702.0 60.6L702.0 60.8Q703.6 61.0 704.7 61.7Q705.8 62.4 706.3 63.5Q706.9 64.5 706.9 65.9L706.9 65.9Q706.9 67.7 705.8 69.2Q704.7 70.6 702.9 71.5Q701.0 72.3 698.5 72.3ZM715.5 72L710.9 72L719.9 54.0L719.9 53.9L709.4 53.9L709.4 50.2L724.6 50.2L724.6 53.9L715.5 72ZM734.6 72.3L734.6 72.3Q732.4 72.3 730.6 71.5Q728.9 70.6 727.9 69.2Q726.8 67.7 726.8 65.9L726.8 65.9L731.1 65.9Q731.2 66.7 731.7 67.4Q732.1 68.0 732.9 68.4Q733.7 68.7 734.6 68.7L734.6 68.7Q735.7 68.7 736.6 68.3Q737.4 67.8 737.9 66.9Q738.4 66.0 738.4 64.9L738.4 64.9Q738.4 63.7 737.9 62.8Q737.4 61.9 736.5 61.4Q735.7 60.9 734.5 60.9L734.5 60.9Q733.6 60.9 732.7 61.3Q731.8 61.7 731.3 62.3L731.3 62.3L727.2 61.6L728.3 50.2L741.5 50.2L741.5 53.9L732.0 53.9L731.4 59.4L731.6 59.4Q732.1 58.6 733.3 58.1Q734.4 57.6 735.8 57.6L735.8 57.6Q737.3 57.6 738.6 58.1Q739.8 58.6 740.8 59.6Q741.7 60.5 742.2 61.9Q742.7 63.2 742.7 64.7L742.7 64.7Q742.7 66.9 741.7 68.6Q740.7 70.3 738.8 71.3Q737.0 72.3 734.6 72.3Z "/></g><mask id="satori_om-id-3-1"><rect x="674" y="81" width="66" height="13" fill="#fff" mask="url(#satori_om-id)"/></mask><g mask="url(#satori_om-id)" clip-path="url(#satori_cp-id)"><path fill="rgba(200,195,225,0.45)" d="M678.2 92.1L678.2 92.1Q677.2 92.1 676.3 91.6Q675.5 91.1 675.0 90.2Q674.5 89.3 674.5 88.0L674.5 88.0Q674.5 86.7 675.0 85.8Q675.5 84.9 676.3 84.4Q677.2 83.9 678.2 83.9L678.2 83.9Q678.9 83.9 679.5 84.1Q680.1 84.3 680.5 84.6Q681.0 85.0 681.3 85.5Q681.6 86.1 681.7 86.7L681.7 86.7L680.0 86.7Q680.0 86.4 679.8 86.1Q679.6 85.9 679.4 85.7Q679.2 85.5 678.9 85.4Q678.6 85.3 678.3 85.3L678.3 85.3Q677.6 85.3 677.2 85.7Q676.7 86.0 676.4 86.6Q676.2 87.2 676.2 88.0L676.2 88.0Q676.2 88.9 676.4 89.5Q676.7 90.1 677.2 90.4Q677.6 90.7 678.2 90.7L678.2 90.7Q678.6 90.7 678.9 90.6Q679.2 90.5 679.4 90.3Q679.6 90.1 679.8 89.8Q680.0 89.6 680.0 89.3L680.0 89.3L681.7 89.3Q681.6 89.8 681.3 90.3Q681.1 90.8 680.6 91.2Q680.2 91.6 679.6 91.9Q679.0 92.1 678.2 92.1ZM687.9 92.1L687.9 92.1Q686.8 92.1 686.0 91.6Q685.1 91.1 684.6 90.2Q684.1 89.3 684.1 88.0L684.1 88.0Q684.1 86.7 684.6 85.8Q685.1 84.9 686.0 84.4Q686.8 83.9 687.9 83.9L687.9 83.9Q688.9 83.9 689.8 84.4Q690.6 84.9 691.1 85.8Q691.6 86.7 691.6 88.0L691.6 88.0Q691.6 89.3 691.1 90.2Q690.6 91.1 689.8 91.6Q688.9 92.1 687.9 92.1ZM687.9 90.7L687.9 90.7Q688.5 90.7 689.0 90.3Q689.4 90.0 689.7 89.5Q689.9 88.9 689.9 88.0L689.9 88.0Q689.9 87.1 689.7 86.5Q689.4 86.0 689.0 85.6Q688.5 85.3 687.9 85.3L687.9 85.3Q687.3 85.3 686.8 85.7Q686.3 86.0 686.1 86.6Q685.8 87.1 685.8 88.0L685.8 88.0Q685.8 88.9 686.1 89.4Q686.3 90.0 686.8 90.3Q687.3 90.7 687.9 90.7ZM696.0 92L694.3 92L694.3 84.0L696.9 84.0L698.2 87.7Q698.2 87.9 698.3 88.3Q698.4 88.7 698.5 89.2L698.5 89.2Q698.7 89.7 698.7 90.1L698.7 90.1Q698.8 89.7 698.9 89.2L698.9 89.2Q699.0 88.8 699.2 88.3Q699.3 87.9 699.3 87.7L699.3 87.7L700.6 84.0L703.1 84.0L703.1 92L701.5 92L701.5 88.2Q701.5 88.0 701.5 87.6Q701.5 87.2 701.5 86.7Q701.5 86.3 701.5 85.8L701.5 85.8Q701.6 85.6 701.6 85.4L701.6 85.4Q701.5 85.6 701.4 85.9L701.4 85.9Q701.3 86.3 701.2 86.8Q701.1 87.2 700.9 87.6Q700.8 88.0 700.8 88.2L700.8 88.2L699.4 92L698.0 92L696.7 88.2Q696.6 88.0 696.5 87.6Q696.4 87.2 696.3 86.8Q696.1 86.4 696.0 85.9L696.0 85.9Q696.0 85.7 695.9 85.5L695.9 85.5Q695.9 85.6 695.9 85.8L695.9 85.8Q695.9 86.2 695.9 86.7Q695.9 87.2 696.0 87.6Q696.0 88.0 696.0 88.2L696.0 88.2L696.0 92ZM707.7 92L706.1 92L706.1 84.0L708.6 84.0L709.9 87.7Q710.0 87.9 710.1 88.3Q710.2 88.7 710.3 89.2L710.3 89.2Q710.4 89.7 710.5 90.1L710.5 90.1Q710.6 89.7 710.7 89.2L710.7 89.2Q710.8 88.8 710.9 88.3Q711.0 87.9 711.1 87.7L711.1 87.7L712.4 84.0L714.9 84.0L714.9 92L713.2 92L713.2 88.2Q713.2 88.0 713.2 87.6Q713.3 87.2 713.3 86.7Q713.3 86.3 713.3 85.8L713.3 85.8Q713.3 85.6 713.3 85.4L713.3 85.4Q713.2 85.6 713.2 85.9L713.2 85.9Q713.1 86.3 712.9 86.8Q712.8 87.2 712.7 87.6Q712.6 88.0 712.5 88.2L712.5 88.2L711.2 92L709.8 92L708.4 88.2Q708.4 88.0 708.3 87.6Q708.1 87.2 708.0 86.8Q707.9 86.4 707.8 85.9L707.8 85.9Q707.7 85.7 707.7 85.5L707.7 85.5Q707.7 85.6 707.7 85.8L707.7 85.8Q707.7 86.2 707.7 86.7Q707.7 87.2 707.7 87.6Q707.7 88.0 707.7 88.2L707.7 88.2L707.7 92ZM717.8 84.0L719.5 84.0L719.5 92L717.8 92L717.8 84.0ZM724.5 85.4L722.1 85.4L722.1 84.0L728.6 84.0L728.6 85.4L726.2 85.4L726.2 92L724.5 92L724.5 85.4ZM734.2 92.1L734.2 92.1Q733.2 92.1 732.5 91.8Q731.8 91.5 731.4 90.9Q731.0 90.4 731.0 89.5L731.0 89.5L732.6 89.5Q732.6 89.9 732.8 90.2Q733.0 90.5 733.4 90.6Q733.7 90.7 734.2 90.7L734.2 90.7Q734.6 90.7 734.9 90.6Q735.3 90.5 735.5 90.2Q735.6 90.0 735.6 89.7L735.6 89.7Q735.6 89.4 735.5 89.3Q735.3 89.1 735.0 88.9Q734.7 88.8 734.3 88.7L734.3 88.7L733.4 88.5Q732.4 88.2 731.8 87.7Q731.2 87.2 731.2 86.3L731.2 86.3Q731.2 85.6 731.6 85.0Q732.0 84.5 732.7 84.2Q733.3 83.9 734.2 83.9L734.2 83.9Q735.1 83.9 735.8 84.2Q736.4 84.5 736.8 85.0Q737.2 85.6 737.2 86.3L737.2 86.3L735.6 86.3Q735.6 85.8 735.2 85.5Q734.8 85.3 734.2 85.3L734.2 85.3Q733.8 85.3 733.5 85.4Q733.2 85.5 733.0 85.7Q732.9 85.9 732.9 86.2L732.9 86.2Q732.9 86.5 733.1 86.7Q733.2 86.9 733.5 87.0Q733.8 87.1 734.2 87.2L734.2 87.2L734.9 87.4Q735.4 87.5 735.8 87.7Q736.3 87.9 736.6 88.2Q736.9 88.4 737.1 88.8Q737.3 89.2 737.3 89.7L737.3 89.7Q737.3 90.4 736.9 91.0Q736.6 91.5 735.9 91.8Q735.2 92.1 734.2 92.1Z "/></g></svg>