<!-- Generated by readme-aura https://github.com/collectioneur/readme-aura -->
<svg width="860" height="140" viewBox="0 0 860 140" xmlns="http://www.w3.org/2000/svg"><defs><clipPath id="satori_bc-id"><path x="0" y="0" width="860" height="140" d="M16,0 h828 a16,16 0 0 1 16,16 v108 a16,16 0 0 1 -16,16 h-828 a16,16 0 0 1 -16,-16 v-108 a16,16 0 0 1 16,-16"/></clipPath></defs><clipPath id="satori_cp-id"><path x="0" y="0" width="860" height="140" d="M16,0 h828 a16,16 0 0 1 16,16 v108 a16,16 0 0 1 -16,16 h-828 a16,16 0 0 1 -16,-16 v-108 a16,16 0 0 1 16,-16"/></clipPath><mask id="satori_om-id"><rect x="1" y="1" width="858" height="138" fill="#fff"/><path width="860" height="140" fill="none" stroke="#000" stroke-width="2" d="M4.686,4.686 A16,16 0 0 1 16,0 h828 a16,16 0 0 1 16,16 v108 a16,16 0 0 1 -16,16 h-828 a16,16 0 0 1 -16,-16 v-108 A16,16 0 0 1 4.686,4.686"/></mask><path x="0" y="0" width="860" height="140" fill="#08080c" d="M16,0 h828 a16,16 0 0 1 16,16 v108 a16,16 0 0 1 -16,16 h-828 a16,16 0 0 1 -16,-16 v-108 a16,16 0 0 1 16,-16"/><path width="860" height="140" clip-path="url(#satori_bc-id)" fill="none" stroke="rgba(110,80,220,0.18)" stroke-width="2" d="M4.686,4.686 A16,16 0 0 1 16,0 h828 a16,16 0 0 1 16,16 v108 a16,16 0 0 1 -16,16 h-828 a16,16 0 0 1 -16,-16 v-108 A16,16 0 0 1 4.686,4.686"/><clipPath id="satori_cp-id-0" clip-path="url(#satori_cp-id)"><rect x="1" y="1" width="860" height="140"/></clipPath><mask id="satori_om-id-0"><rect x="1" y="1" width="860" height="140" fill="#fff" mask="url(#satori_om-id)"/></mask><svg x="1" y="1" width="860" height="140" preserveAspectRatio="none" clip-path="url(#satori_cp-id-0)" mask="url(#satori_om-id-0)"><defs><radialGradient id="g1" cx="50%" cy="50%" r="50%"><stop offset="0%" stop-color="rgba(110,20,210,0.65)"></stop><stop offset="45%" stop-color="rgba(80,15,170,0.28)"></stop><stop offset="70%" stop-color="rgba(80,15,170,0)"></stop></radialGradient><radialGradient id="g2" cx="50%" cy="50%" r="50%"><stop offset="0%" stop-color="rgba(40,70,255,0.55)"></stop><stop offset="45%" stop-color="rgba(20,50,200,0.22)"></stop><stop offset="70%" stop-color="rgba(20,50,200,0)"></stop></radialGradient><radialGradient id="g3" cx="50%" cy="50%" r="50%"><stop offset="0%" stop-color="rgba(0,140,255,0.42)"></stop><stop offset="70%" stop-color="rgba(0,140,255,0)"></stop></radialGradient><radialGradient id="g4" cx="50%" cy="50%" r="50%"><stop offset="0%" stop-color="rgba(0,195,235,0.30)"></stop><stop offset="70%" stop-color="rgba(0,195,235,0)"></stop></radialGradient><radialGradient id="g5" cx="50%" cy="50%" r="50%"><stop offset="0%" stop-color="rgba(100,30,210,0.40)"></stop><stop offset="70%" stop-color="rgba(100,30,210,0)"></stop></radialGradient></defs><ellipse id="glow-1" cx="710" cy="150" rx="210" ry="150" fill="url(#g1)"></ellipse><ellipse id="glow-2" cx="550" cy="140" rx="190" ry="140" fill="url(#g2)"></ellipse><ellipse id="glow-3" cx="400" cy="130" rx="170" ry="130" fill="url(#g3)"></ellipse><ellipse id="glow-4" cx="250" cy="140" rx="150" ry="120" fill="url(#g4)"></ellipse><ellipse id="glow-5" cx="100" cy="150" rx="130" ry="110" fill="url(#g5)"></ellipse><style>

         @keyframes float-slow {
           0%, 100% { transform: translateX(0px); opacity: 0.8; }
           50% { transform: translateX(350px); opacity: 1.2; }
         }
         @keyframes float-medium {
           0%, 100% { transform: translateX(0px); opacity: 0.7; }
           50% { transform: translateX(-250px); opacity: 1.1; }
         }
         @keyframes float-fast {
           0%, 100% { transform: translateX(0px); opacity: 0.9; }
           50% { transform: translateX(200px); opacity: 0.6; }
         }
         @keyframes float-diagonal {
           0%, 100% { transform: translate(0px, 0px); opacity: 0.75; }
           50% { transform: translate(120px, 30px); opacity: 1.0; }
         }
         @keyframes float-wave {
           0%, 100% { transform: translateX(0px); opacity: 0.65; }
           33% { transform: translateX(-160px); opacity: 0.9; }
           66% { transform: translateX(80px); opacity: 1.0; }
         }
         @keyframes float-pulse {
           0%, 100% { transform: scale(1); opacity: 0.8; }
           50% { transform: scale(1.3); opacity: 0.4; }
         }
         #glow-1 { animation: float-slow 8s ease-in-out infinite; }
         #glow-2 { animation: float-medium 12s ease-in-out infinite; }
         #glow-3 { animation: float-fast 9s ease-in-out infinite; }
         #glow-4 { animation: float-diagonal 10s ease-in-out infinite; }
         #glow-5 { animation: float-wave 14s ease-in-out infinite; }
       
</style>
</svg><mask id="satori_om-id-0-0"><rect x="1" y="1" width="0" height="140" fill="#fff" mask="url(#satori_om-id)"/></mask><mask id="satori_om-id-0-0-0"><rect x="1" y="1" width="0" height="140" fill="#fff" mask="url(#satori_om-id)"/></mask><mask id="satori_om-id-0-0-0-0"><rect x="1" y="1" width="0" height="140" fill="#fff" mask="url(#satori_om-id)"/></mask><mask id="satori_om-id-0-0-0-1"><rect x="1" y="1" width="0" height="140" fill="#fff" mask="url(#satori_om-id)"/></mask><mask id="satori_om-id-0-0-0-2"><rect x="1" y="1" width="0" height="140" fill="#fff" mask="url(#satori_om-id)"/></mask><mask id="satori_om-id-0-0-1"><rect x="1" y="1" width="0" height="140" fill="#fff" mask="url(#satori_om-id)"/></mask><mask id="satori_om-id-0-0-1-0"><rect x="1" y="1" width="0" height="140" fill="#fff" mask="url(#satori_om-id)"/></mask><mask id="satori_om-id-0-0-1-1"><rect x="1" y="1" width="0" height="140" fill="#fff" mask="url(#satori_om-id)"/></mask><mask id="satori_om-id-0-0-1-2"><rect x="1" y="1" width="0" height="140" fill="#fff" mask="url(#satori_om-id)"/></mask><mask id="satori_om-id-0-0-2"><rect x="1" y="1" width="0" height="140" fill="#fff" mask="url(#satori_om-id)"/></mask><mask id="satori_om-id-0-0-2-0"><rect x="1" y="1" width="0" height="140" fill="#fff" mask="url(#satori_om-id)"/></mask><mask id="satori_om-id-0-0-2-1"><rect x="1" y="1" width="0" height="140" fill="#fff" mask="url(#satori_om-id)"/></mask><mask id="satori_om-id-0-0-3"><rect x="1" y="1" width="0" height="140" fill="#fff" mask="url(#satori_om-id)"/></mask><mask id="satori_om-id-0-0-3-0"><rect x="1" y="1" width="0" height="140" fill="#fff" mask="url(#satori_om-id)"/></mask><mask id="satori_om-id-0-0-3-1"><rect x="1" y="1" width="0" height="140" fill="#fff" mask="url(#satori_om-id)"/></mask><mask id="satori_om-id-0-0-4"><rect x="1" y="1" width="0" height="140" fill="#fff" mask="url(#satori_om-id)"/></mask><mask id="satori_om-id-0-0-4-0"><rect x="1" y="1" width="0" height="140" fill="#fff" mask="url(#satori_om-id)"/></mask><mask id="satori_om-id-0-0-4-1"><rect x="1" y="1" width="0" height="140" fill="#fff" mask="url(#satori_om-id)"/></mask><mask id="satori_om-id-0-1"><rect x="1" y="1" width="0" height="140" fill="#fff" mask="url(#satori_om-id)"/></mask><mask id="satori_om-id-0-2"><rect x="1" y="1" width="0" height="140" fill="#fff" mask="url(#satori_om-id)"/></mask><mask id="satori_om-id-0-3"><rect x="1" y="1" width="0" height="140" fill="#fff" mask="url(#satori_om-id)"/></mask><mask id="satori_om-id-0-4"><rect x="1" y="1" width="0" height="140" fill="#fff" mask="url(#satori_om-id)"/></mask><mask id="satori_om-id-0-5"><rect x="1" y="1" width="0" height="140" fill="#fff" mask="url(#satori_om-id)"/></mask><defs><clipPath id="satori_bc-id-1" clip-path="url(#satori_cp-id)"><rect x="1" y="30" width="275" height="80"/></clipPath></defs><mask id="satori_om-id-1"><rect x="1" y="30" width="274" height="80" fill="#fff" mask="url(#satori_om-id)"/><path width="275" height="80" fill="none" stroke="#000" stroke-width="2" d="M276,30 A0,0 0 0 1 276,30 v80 A0,0 0 0 1 276,110"/></mask><path width="275" height="80" clip-path="url(#satori_bc-id-1)" fill="none" stroke="rgba(255,255,255,0.06)" stroke-width="2" d="M276,30 A0,0 0 0 1 276,30 v80 A0,0 0 0 1 276,110"/><mask id="satori_om-id-1-0"><rect x="125" y="46" width="26" height="30" fill="#fff" mask="url(#satori_om-id)"/></mask><g mask="url(#satori_om-id)" clip-path="url(#satori_cp-id)"><path fill="#a78bfa" d="M131.2 50.2L136.0 50.2L136.0 72L131.5 72L131.5 54.1L131.4 54.1L126.4 57.7L126.4 53.6L131.2 50.2ZM144.1 50.2L148.9 50.2L148.9 72L144.4 72L144.4 54.1L144.3 54.1L139.3 57.7L139.3 53.6L144.1 50.2Z "/></g><mask id="satori_om-id-1-1"><rect x="116" y="81" width="45" height="13" fill="#fff" mask="url(#satori_om-id)"/></mask><g mask="url(#satori_om-id)" clip-path="url(#satori_cp-id)"><path fill="rgba(200,195,225,0.45)" d="M118.4 92L116.7 92L116.7 84.0L119.8 84.0Q120.8 84.0 121.4 84.3Q122.0 84.6 122.4 85.2Q122.7 85.8 122.7 86.6Q122.7 87.4 122.4 88.0Q122.0 88.5 121.4 88.8L121.4 88.8Q121.3 88.9 121.3 88.9L121.3 88.9L123.0 92L121.2 92L119.6 89.1L118.4 89.1L118.4 92ZM118.4 85.4L118.4 87.8L119.5 87.8Q120.0 87.8 120.4 87.7Q120.7 87.5 120.9 87.3Q121.0 87.0 121.0 86.6L121.0 86.6Q121.0 86.2 120.9 85.9Q120.7 85.6 120.4 85.5Q120.0 85.4 119.5 85.4L119.5 85.4L118.4 85.4ZM130.8 92L125.4 92L125.4 84.0L130.8 84.0L130.8 85.4L127.1 85.4L127.1 87.3L130.5 87.3L130.5 88.6L127.1 88.6L127.1 90.6L130.8 90.6L130.8 92ZM135.3 92L133.6 92L133.6 84.0L136.8 84.0Q137.7 84.0 138.3 84.3Q138.9 84.7 139.3 85.3Q139.6 85.9 139.6 86.7L139.6 86.7Q139.6 87.5 139.3 88.1Q138.9 88.7 138.3 89.0Q137.6 89.4 136.7 89.4L136.7 89.4L135.3 89.4L135.3 92ZM135.3 85.4L135.3 88.1L136.5 88.1Q137.0 88.1 137.3 87.9Q137.6 87.7 137.8 87.4Q137.9 87.1 137.9 86.7Q137.9 86.3 137.8 86.0Q137.6 85.7 137.3 85.5Q137.0 85.4 136.4 85.4L136.4 85.4L135.3 85.4ZM145.8 92.1L145.8 92.1Q144.7 92.1 143.9 91.6Q143.0 91.1 142.5 90.2Q142.0 89.3 142.0 88.0L142.0 88.0Q142.0 86.7 142.5 85.8Q143.0 84.9 143.9 84.4Q144.7 83.9 145.8 83.9L145.8 83.9Q146.8 83.9 147.7 84.4Q148.5 84.9 149.0 85.8Q149.5 86.7 149.5 88.0L149.5 88.0Q149.5 89.3 149.0 90.2Q148.5 91.1 147.7 91.6Q146.8 92.1 145.8 92.1ZM145.8 90.7L145.8 90.7Q146.4 90.7 146.9 90.3Q147.3 90.0 147.6 89.5Q147.8 88.9 147.8 88.0L147.8 88.0Q147.8 87.1 147.6 86.5Q147.3 86.0 146.9 85.6Q146.4 85.3 145.8 85.3L145.8 85.3Q145.2 85.3 144.7 85.7Q144.2 86.0 144.0 86.6Q143.7 87.1 143.7 88.0L143.7 88.0Q143.7 88.9 144.0 89.4Q144.2 90.0 144.7 90.3Q145.2 90.7 145.8 90.7ZM155.2 92.1L155.2 92.1Q154.2 92.1 153.5 91.8Q152.8 91.5 152.4 90.9Q152.0 90.4 152.0 89.5L152.0 89.5L153.6 89.5Q153.6 89.9 153.8 90.2Q154.0 90.5 154.4 90.6Q154.7 90.7 155.2 90.7L155.2 90.7Q155.6 90.7 155.9 90.6Q156.2 90.5 156.4 90.2Q156.6 90.0 156.6 89.7L156.6 89.7Q156.6 89.4 156.4 89.3Q156.3 89.1 156.0 88.9Q155.7 88.8 155.2 88.7L155.2 88.7L154.3 88.5Q153.3 88.2 152.8 87.7Q152.2 87.2 152.2 86.3L152.2 86.3Q152.2 85.6 152.6 85.0Q153.0 84.5 153.6 84.2Q154.3 83.9 155.2 83.9L155.2 83.9Q156.1 83.9 156.7 84.2Q157.4 84.5 157.8 85.0Q158.1 85.6 158.1 86.3L158.1 86.3L156.6 86.3Q156.5 85.8 156.2 85.5Q155.8 85.3 155.2 85.3L155.2 85.3Q154.8 85.3 154.5 85.4Q154.2 85.5 154.0 85.7Q153.9 85.9 153.9 86.2L153.9 86.2Q153.9 86.5 154.0 86.7Q154.2 86.9 154.5 87.0Q154.8 87.1 155.1 87.2L155.1 87.2L155.9 87.4Q156.4 87.5 156.8 87.7Q157.2 87.9 157.6 88.2Q157.9 88.4 158.1 88.8Q158.3 89.2 158.3 89.7L158.3 89.7Q158.3 90.4 157.9 91.0Q157.5 91.5 156.8 91.8Q156.1 92.1 155.2 92.1Z "/></g><defs><clipPath id="satori_bc-id-2" clip-path="url(#satori_cp-id)"><rect x="276" y="30" width="282" height="80"/></clipPath></defs><mask id="satori_om-id-2"><rect x="276" y="30" width="281" height="80" fill="#fff" mask="url(#satori_om-id)"/><path width="282" height="80" fill="none" stroke="#000" stroke-width="2" d="M558,30 A0,0 0 0 1 558,30 v80 A0,0 0 0 1 558,110"/></mask><path width="282" height="80" clip-path="url(#satori_bc-id-2)" fill="none" stroke="rgba(255,255,255,0.06)" stroke-width="2" d="M558,30 A0,0 0 0 1 558,30 v80 A0,0 0 0 1 558,110"/><mask id="satori_om-id-2-0"><rect x="391" y="46" width="52" height="30" fill="#fff" mask="url(#satori_om-id)"/></mask><g mask="url(#satori_om-id)" clip-path="url(#satori_cp-id)"><path fill="#60a5fa" d="M397.2 50.2L402.0 50.2L402.0 72L397.5 72L397.5 54.1L397.4 54.1L392.4 57.7L392.4 53.6L397.2 50.2ZM421.2 72L405.8 72L405.8 68.8L413.5 61.5Q414.5 60.6 415.2 59.8Q415.8 59.0 416.2 58.2Q416.6 57.5 416.6 56.6L416.6 56.6Q416.6 55.6 416.1 54.9Q415.7 54.2 414.9 53.8Q414.2 53.5 413.2 53.5L413.2 53.5Q412.2 53.5 411.4 53.9Q410.6 54.3 410.2 55.0Q409.8 55.8 409.8 56.9L409.8 56.9L405.5 56.9Q405.5 54.7 406.5 53.2Q407.5 51.6 409.2 50.7Q411.0 49.9 413.2 49.9L413.2 49.9Q415.5 49.9 417.3 50.7Q419.0 51.5 419.9 53.0Q420.9 54.4 420.9 56.3L420.9 56.3Q420.9 57.5 420.4 58.7Q419.9 59.9 418.7 61.4Q417.5 62.9 415.3 64.9L415.3 64.9L412.0 68.2L412.0 68.3L421.2 68.3L421.2 72ZM432.6 72.3L432.6 72.3Q430.1 72.3 428.3 71.5Q426.4 70.7 425.3 69.3Q424.2 67.9 424.2 66.1L424.2 66.1Q424.2 64.8 424.8 63.6Q425.5 62.5 426.5 61.7Q427.6 60.9 428.9 60.7L428.9 60.7L428.9 60.6Q427.2 60.2 426.1 58.9Q425.0 57.5 425.0 55.7L425.0 55.7Q425.0 54.1 426.0 52.7Q427.0 51.4 428.7 50.6Q430.4 49.9 432.6 49.9L432.6 49.9Q434.8 49.9 436.5 50.6Q438.2 51.4 439.2 52.7Q440.2 54.1 440.2 55.7L440.2 55.7Q440.2 57.5 439.1 58.9Q438.0 60.2 436.3 60.6L436.3 60.6L436.3 60.7Q437.6 60.9 438.7 61.7Q439.7 62.5 440.4 63.6Q441.0 64.8 441.0 66.1L441.0 66.1Q441.0 67.9 439.9 69.3Q438.8 70.7 436.9 71.5Q435.0 72.3 432.6 72.3ZM432.6 69.0L432.6 69.0Q433.7 69.0 434.5 68.6Q435.4 68.2 435.9 67.5Q436.3 66.7 436.3 65.8L436.3 65.8Q436.3 64.8 435.8 64.1Q435.4 63.3 434.5 62.9Q433.7 62.5 432.6 62.5L432.6 62.5Q431.5 62.5 430.7 62.9Q429.8 63.3 429.3 64.1Q428.9 64.8 428.9 65.8L428.9 65.8Q428.9 66.7 429.3 67.4Q429.8 68.2 430.6 68.6Q431.5 69.0 432.6 69.0ZM432.6 59.2L432.6 59.2Q433.5 59.2 434.2 58.8Q435.0 58.4 435.4 57.8Q435.8 57.1 435.8 56.2L435.8 56.2Q435.8 55.3 435.4 54.7Q435.0 54.0 434.3 53.7Q433.5 53.3 432.6 53.3L432.6 53.3Q431.6 53.3 430.9 53.7Q430.2 54.0 429.8 54.7Q429.4 55.3 429.4 56.2L429.4 56.2Q429.4 57.1 429.8 57.8Q430.2 58.4 430.9 58.8Q431.6 59.2 432.6 59.2Z "/></g><mask id="satori_om-id-2-1"><rect x="394" y="81" width="45" height="13" fill="#fff" mask="url(#satori_om-id)"/></mask><g mask="url(#satori_om-id)" clip-path="url(#satori_cp-id)"><path fill="rgba(200,195,225,0.45)" d="M397.7 92.1L397.7 92.1Q396.7 92.1 396.0 91.8Q395.3 91.5 394.9 90.9Q394.5 90.4 394.5 89.5L394.5 89.5L396.1 89.5Q396.1 89.9 396.3 90.2Q396.5 90.5 396.9 90.6Q397.2 90.7 397.6 90.7L397.6 90.7Q398.1 90.7 398.4 90.6Q398.7 90.5 398.9 90.2Q399.1 90.0 399.1 89.7L399.1 89.7Q399.1 89.4 398.9 89.3Q398.8 89.1 398.5 88.9Q398.2 88.8 397.7 88.7L397.7 88.7L396.8 88.5Q395.8 88.2 395.2 87.7Q394.7 87.2 394.7 86.3L394.7 86.3Q394.7 85.6 395.1 85.0Q395.5 84.5 396.1 84.2Q396.8 83.9 397.7 83.9L397.7 83.9Q398.6 83.9 399.2 84.2Q399.9 84.5 400.3 85.0Q400.6 85.6 400.6 86.3L400.6 86.3L399.1 86.3Q399.0 85.8 398.6 85.5Q398.3 85.3 397.7 85.3L397.7 85.3Q397.2 85.3 397.0 85.4Q396.7 85.5 396.5 85.7Q396.4 85.9 396.4 86.2L396.4 86.2Q396.4 86.5 396.5 86.7Q396.7 86.9 397.0 87.0Q397.3 87.1 397.6 87.2L397.6 87.2L398.4 87.4Q398.9 87.5 399.3 87.7Q399.7 87.9 400.1 88.2Q400.4 88.4 400.6 88.8Q400.7 89.2 400.7 89.7L400.7 89.7Q400.7 90.4 400.4 91.0Q400.0 91.5 399.3 91.8Q398.6 92.1 397.7 92.1ZM405.6 85.4L403.1 85.4L403.1 84.0L409.6 84.0L409.6 85.4L407.2 85.4L407.2 92L405.6 92L405.6 85.4ZM413.6 92L411.8 92L414.5 84.0L416.7 84.0L419.5 92L417.7 92L417.1 90.1L414.2 90.1L413.6 92ZM414.6 88.9L416.6 88.9L416.4 88.1Q416.2 87.4 415.9 86.5L415.9 86.5Q415.8 85.9 415.6 85.3L415.6 85.3Q415.4 85.9 415.3 86.5L415.3 86.5Q415.1 87.4 414.9 88.1L414.9 88.1L414.6 88.9ZM423.6 92L422.0 92L422.0 84.0L425.1 84.0Q426.0 84.0 426.7 84.3Q427.3 84.6 427.6 85.2Q428.0 85.8 428.0 86.6Q428.0 87.4 427.6 88.0Q427.3 88.5 426.6 88.8L426.6 88.8Q426.6 88.9 426.5 88.9L426.5 88.9L428.3 92L426.4 92L424.9 89.1L423.6 89.1L423.6 92ZM423.6 85.4L423.6 87.8L424.8 87.8Q425.3 87.8 425.6 87.7Q426.0 87.5 426.1 87.3Q426.3 87.0 426.3 86.6L426.3 86.6Q426.3 86.2 426.1 85.9Q426.0 85.6 425.6 85.5Q425.3 85.4 424.8 85.4L424.8 85.4L423.6 85.4ZM433.6 92.1L433.6 92.1Q432.7 92.1 432.0 91.8Q431.3 91.5 430.9 90.9Q430.5 90.4 430.4 89.5L430.4 89.5L432.0 89.5Q432.1 89.9 432.3 90.2Q432.5 90.5 432.8 90.6Q433.2 90.7 433.6 90.7L433.6 90.7Q434.1 90.7 434.4 90.6Q434.7 90.5 434.9 90.2Q435.1 90.0 435.1 89.7L435.1 89.7Q435.1 89.4 434.9 89.3Q434.8 89.1 434.4 88.9Q434.1 88.8 433.7 88.7L433.7 88.7L432.8 88.5Q431.8 88.2 431.2 87.7Q430.7 87.2 430.7 86.3L430.7 86.3Q430.7 85.6 431.0 85.0Q431.4 84.5 432.1 84.2Q432.8 83.9 433.7 83.9L433.7 83.9Q434.5 83.9 435.2 84.2Q435.9 84.5 436.2 85.0Q436.6 85.6 436.6 86.3L436.6 86.3L435.0 86.3Q435.0 85.8 434.6 85.5Q434.3 85.3 433.6 85.3L433.6 85.3Q433.2 85.3 432.9 85.4Q432.6 85.5 432.5 85.7Q432.3 85.9 432.3 86.2L432.3 86.2Q432.3 86.5 432.5 86.7Q432.7 86.9 433.0 87.0Q433.3 87.1 433.6 87.2L433.6 87.2L434.3 87.4Q434.8 87.5 435.3 87.7Q435.7 87.9 436.0 88.2Q436.4 88.4 436.5 88.8Q436.7 89.2 436.7 89.7L436.7 89.7Q436.7 90.4 436.4 91.0Q436.0 91.5 435.3 91.8Q434.6 92.1 433.6 92.1Z "/></g><mask id="satori_om-id-3"><rect x="558" y="30" width="301" height="80" fill="#fff" mask="url(#satori_om-id)"/></mask><mask id="satori_om-id-3-0"><rect x="673" y="46" width="72" height="30" fill="#fff" mask="url(#satori_om-id)"/></mask><g mask="url(#satori_om-id)" clip-path="url(#satori_cp-id)"><path fill="#f59e0b" d="M690.3 72L674.8 72L674.8 68.8L682.6 61.5Q683.5 60.6 684.2 59.8Q684.9 59.0 685.3 58.2Q685.6 57.5 685.6 56.6L685.6 56.6Q685.6 55.6 685.2 54.9Q684.7 54.2 684.0 53.8Q683.2 53.5 682.2 53.5L682.2 53.5Q681.2 53.5 680.5 53.9Q679.7 54.3 679.3 55.0Q678.9 55.8 678.9 56.9L678.9 56.9L674.6 56.9Q674.6 54.7 675.6 53.2Q676.6 51.6 678.3 50.7Q680.0 49.9 682.3 49.9L682.3 49.9Q684.6 49.9 686.3 50.7Q688.0 51.5 689.0 53.0Q690.0 54.4 690.0 56.3L690.0 56.3Q690.0 57.5 689.5 58.7Q689.0 59.9 687.8 61.4Q686.6 62.9 684.3 64.9L684.3 64.9L681.0 68.2L681.0 68.3L690.3 68.3L690.3 72ZM703.4 68.1L692.9 68.1L692.9 64.6L702.0 50.2L707.6 50.2L707.6 64.5L710.4 64.5L710.4 68.1L707.6 68.1L707.6 72L703.4 72L703.4 68.1ZM697.4 64.5L703.4 64.5L703.4 55.1L703.3 55.1L697.4 64.3L697.4 64.5ZM716.8 50.2L721.5 50.2L721.5 72L717.1 72L717.1 54.1L716.9 54.1L711.9 57.7L711.9 53.6L716.8 50.2ZM733.5 72.3L733.5 72.3Q731.9 72.3 730.3 71.7Q728.8 71.2 727.5 69.9Q726.3 68.7 725.6 66.7Q724.9 64.6 724.9 61.6L724.9 61.6Q724.9 58.8 725.5 56.7Q726.1 54.5 727.3 53.0Q728.4 51.5 730.1 50.7Q731.7 49.9 733.7 49.9L733.7 49.9Q735.8 49.9 737.5 50.7Q739.2 51.6 740.2 53.0Q741.2 54.4 741.4 56.2L741.4 56.2L737.0 56.2Q736.7 55.1 735.8 54.4Q735.0 53.7 733.7 53.7L733.7 53.7Q732.3 53.7 731.3 54.6Q730.3 55.4 729.8 57.0Q729.3 58.6 729.3 60.7L729.3 60.7L729.4 60.7Q729.9 59.8 730.8 59.1Q731.6 58.4 732.6 58.0Q733.7 57.7 734.9 57.7L734.9 57.7Q736.8 57.7 738.4 58.6Q739.9 59.5 740.7 61.1Q741.6 62.7 741.6 64.7L741.6 64.7Q741.6 66.9 740.6 68.6Q739.6 70.3 737.8 71.3Q735.9 72.3 733.5 72.3ZM733.5 68.7L733.5 68.7Q734.6 68.7 735.4 68.2Q736.3 67.7 736.8 66.8Q737.3 65.9 737.3 64.8L737.3 64.8Q737.3 63.7 736.8 62.8Q736.3 62.0 735.5 61.4Q734.6 60.9 733.5 60.9L733.5 60.9Q732.7 60.9 732.0 61.2Q731.3 61.5 730.8 62.1Q730.3 62.6 730.0 63.3Q729.7 64.0 729.7 64.8L729.7 64.8Q729.7 65.9 730.2 66.8Q730.7 67.7 731.6 68.2Q732.4 68.7 733.5 68.7Z "/></g><mask id="satori_om-id-3-1"><rect x="676" y="81" width="66" height="13" fill="#fff" mask="url(#satori_om-id)"/></mask><g mask="url(#satori_om-id)" clip-path="url(#satori_cp-id)"><path fill="rgba(200,195,225,0.45)" d="M680.2 92.1L680.2 92.1Q679.2 92.1 678.3 91.6Q677.5 91.1 677.0 90.2Q676.5 89.3 676.5 88.0L676.5 88.0Q676.5 86.7 677.0 85.8Q677.5 84.9 678.3 84.4Q679.2 83.9 680.2 83.9L680.2 83.9Q680.9 83.9 681.5 84.1Q682.1 84.3 682.5 84.6Q683.0 85.0 683.3 85.5Q683.6 86.1 683.7 86.7L683.7 86.7L682.0 86.7Q682.0 86.4 681.8 86.1Q681.6 85.9 681.4 85.7Q681.2 85.5 680.9 85.4Q680.6 85.3 680.3 85.3L680.3 85.3Q679.6 85.3 679.2 85.7Q678.7 86.0 678.4 86.6Q678.2 87.2 678.2 88.0L678.2 88.0Q678.2 88.9 678.4 89.5Q678.7 90.1 679.2 90.4Q679.6 90.7 680.2 90.7L680.2 90.7Q680.6 90.7 680.9 90.6Q681.2 90.5 681.4 90.3Q681.6 90.1 681.8 89.8Q682.0 89.6 682.0 89.3L682.0 89.3L683.7 89.3Q683.6 89.8 683.3 90.3Q683.1 90.8 682.6 91.2Q682.2 91.6 681.6 91.9Q681.0 92.1 680.2 92.1ZM689.9 92.1L689.9 92.1Q688.8 92.1 688.0 91.6Q687.1 91.1 686.6 90.2Q686.1 89.3 686.1 88.0L686.1 88.0Q686.1 86.7 686.6 85.8Q687.1 84.9 688.0 84.4Q688.8 83.9 689.9 83.9L689.9 83.9Q690.9 83.9 691.8 84.4Q692.6 84.9 693.1 85.8Q693.6 86.7 693.6 88.0L693.6 88.0Q693.6 89.3 693.1 90.2Q692.6 91.1 691.8 91.6Q690.9 92.1 689.9 92.1ZM689.9 90.7L689.9 90.7Q690.5 90.7 691.0 90.3Q691.4 90.0 691.7 89.5Q691.9 88.9 691.9 88.0L691.9 88.0Q691.9 87.1 691.7 86.5Q691.4 86.0 691.0 85.6Q690.5 85.3 689.9 85.3L689.9 85.3Q689.3 85.3 688.8 85.7Q688.3 86.0 688.1 86.6Q687.8 87.1 687.8 88.0L687.8 88.0Q687.8 88.9 688.1 89.4Q688.3 90.0 688.8 90.3Q689.3 90.7 689.9 90.7ZM698.0 92L696.3 92L696.3 84.0L698.9 84.0L700.2 87.7Q700.2 87.9 700.3 88.3Q700.4 88.7 700.5 89.2L700.5 89.2Q700.7 89.7 700.7 90.1L700.7 90.1Q700.8 89.7 700.9 89.2L700.9 89.2Q701.0 88.8 701.2 88.3Q701.3 87.9 701.3 87.7L701.3 87.7L702.6 84.0L705.1 84.0L705.1 92L703.5 92L703.5 88.2Q703.5 88.0 703.5 87.6Q703.5 87.2 703.5 86.7Q703.5 86.3 703.5 85.8L703.5 85.8Q703.6 85.6 703.6 85.4L703.6 85.4Q703.5 85.6 703.4 85.9L703.4 85.9Q703.3 86.3 703.2 86.8Q703.1 87.2 702.9 87.6Q702.8 88.0 702.8 88.2L702.8 88.2L701.4 92L700.0 92L698.7 88.2Q698.6 88.0 698.5 87.6Q698.4 87.2 698.3 86.8Q698.1 86.4 698.0 85.9L698.0 85.9Q698.0 85.7 697.9 85.5L697.9 85.5Q697.9 85.6 697.9 85.8L697.9 85.8Q697.9 86.2 697.9 86.7Q697.9 87.2 698.0 87.6Q698.0 88.0 698.0 88.2L698.0 88.2L698.0 92ZM709.7 92L708.1 92L708.1 84.0L710.6 84.0L711.9 87.7Q712.0 87.9 712.1 88.3Q712.2 88.7 712.3 89.2L712.3 89.2Q712.4 89.7 712.5 90.1L712.5 90.1Q712.6 89.7 712.7 89.2L712.7 89.2Q712.8 88.8 712.9 88.3Q713.0 87.9 713.1 87.7L713.1 87.7L714.4 84.0L716.9 84.0L716.9 92L715.2 92L715.2 88.2Q715.2 88.0 715.2 87.6Q715.3 87.2 715.3 86.7Q715.3 86.3 715.3 85.8L715.3 85.8Q715.3 85.6 715.3 85.4L715.3 85.4Q715.2 85.6 715.2 85.9L715.2 85.9Q715.1 86.3 714.9 86.8Q714.8 87.2 714.7 87.6Q714.6 88.0 714.5 88.2L714.5 88.2L713.2 92L711.8 92L710.4 88.2Q710.4 88.0 710.3 87.6Q710.1 87.2 710.0 86.8Q709.9 86.4 709.8 85.9L709.8 85.9Q709.7 85.7 709.7 85.5L709.7 85.5Q709.7 85.6 709.7 85.8L709.7 85.8Q709.7 86.2 709.7 86.7Q709.7 87.2 709.7 87.6Q709.7 88.0 709.7 88.2L709.7 88.2L709.7 92ZM719.8 84.0L721.5 84.0L721.5 92L719.8 92L719.8 84.0ZM726.5 85.4L724.1 85.4L724.1 84.0L730.6 84.0L730.6 85.4L728.2 85.4L728.2 92L726.5 92L726.5 85.4ZM736.2 92.1L736.2 92.1Q735.2 92.1 734.5 91.8Q733.8 91.5 733.4 90.9Q733.0 90.4 733.0 89.5L733.0 89.5L734.6 89.5Q734.6 89.9 734.8 90.2Q735.0 90.5 735.4 90.6Q735.7 90.7 736.2 90.7L736.2 90.7Q736.6 90.7 736.9 90.6Q737.3 90.5 737.5 90.2Q737.6 90.0 737.6 89.7L737.6 89.7Q737.6 89.4 737.5 89.3Q737.3 89.1 737.0 88.9Q736.7 88.8 736.3 88.7L736.3 88.7L735.4 88.5Q734.4 88.2 733.8 87.7Q733.2 87.2 733.2 86.3L733.2 86.3Q733.2 85.6 733.6 85.0Q734.0 84.5 734.7 84.2Q735.3 83.9 736.2 83.9L736.2 83.9Q737.1 83.9 737.8 84.2Q738.4 84.5 738.8 85.0Q739.2 85.6 739.2 86.3L739.2 86.3L737.6 86.3Q737.6 85.8 737.2 85.5Q736.8 85.3 736.2 85.3L736.2 85.3Q735.8 85.3 735.5 85.4Q735.2 85.5 735.0 85.7Q734.9 85.9 734.9 86.2L734.9 86.2Q734.9 86.5 735.1 86.7Q735.2 86.9 735.5 87.0Q735.8 87.1 736.2 87.2L736.2 87.2L736.9 87.4Q737.4 87.5 737.8 87.7Q738.3 87.9 738.6 88.2Q738.9 88.4 739.1 88.8Q739.3 89.2 739.3 89.7L739.3 89.7Q739.3 90.4 738.9 91.0Q738.6 91.5 737.9 91.8Q737.2 92.1 736.2 92.1Z "/></g></svg>