<!-- Generated by readme-aura https://github.com/collectioneur/readme-aura -->
<svg width="860" height="140" viewBox="0 0 860 140" xmlns="http://www.w3.org/2000/svg"><defs><clipPath id="satori_bc-id"><path x="0" y="0" width="860" height="140" d="M16,0 h828 a16,16 0 0 1 16,16 v108 a16,16 0 0 1 -16,16 h-828 a16,16 0 0 1 -16,-16 v-108 a16,16 0 0 1 16,-16"/></clipPath></defs><clipPath id="satori_cp-id"><path x="0" y="0" width="860" height="140" d="M16,0 h828 a16,16 0 0 1 16,16 v108 a16,16 0 0 1 -16,16 h-828 a16,16 0 0 1 -16,-16 v-108 a16,16 0 0 1 16,-16"/></clipPath><mask id="satori_om-id"><rect x="1" y="1" width="858" height="138" fill="#fff"/><path width="860" height="140" fill="none" stroke="#000" stroke-width="2" d="M4.686,4.686 A16,16 0 0 1 16,0 h828 a16,16 0 0 1 16,16 v108 a16,16 0 0 1 -16,16 h-828 a16,16 0 0 1 -16,-16 v-108 A16,16 0 0 1 4.686,4.686"/></mask><path x="0" y="0" width="860" height="140" fill="#08080c" d="M16,0 h828 a16,16 0 0 1 16,16 v108 a16,16 0 0 1 -16,16 h-828 a16,16 0 0 1 -16,-16 v-108 a16,16 0 0 1 16,-16"/><path width="860" height="140" clip-path="url(#satori_bc-id)" fill="none" stroke="rgba(110,80,220,0.18)" stroke-width="2" d="M4.686,4.686 A16,16 0 0 1 16,0 h828 a16,16 0 0 1 16,16 v108 a16,16 0 0 1 -16,16 h-828 a16,16 0 0 1 -16,-16 v-108 A16,16 0 0 1 4.686,4.686"/><clipPath id="satori_cp-id-0" clip-path="url(#satori_cp-id)"><rect x="1" y="1" width="860" height="140"/></clipPath><mask id="satori_om-id-0"><rect x="1" y="1" width="860" height="140" fill="#fff" mask="url(#satori_om-id)"/></mask><svg x="1" y="1" width="860" height="140" preserveAspectRatio="none" clip-path="url(#satori_cp-id-0)" mask="url(#satori_om-id-0)"><defs><radialGradient id="g1" cx="50%" cy="50%" r="50%"><stop offset="0%" stop-color="rgba(110,20,210,0.65)"></stop><stop offset="45%" stop-color="rgba(80,15,170,0.28)"></stop><stop offset="70%" stop-color="rgba(80,15,170,0)"></stop></radialGradient><radialGradient id="g2" cx="50%" cy="50%" r="50%"><stop offset="0%" stop-color="rgba(40,70,255,0.55)"></stop><stop offset="45%" stop-color="rgba(20,50,200,0.22)"></stop><stop offset="70%" stop-color="rgba(20,50,200,0)"></stop></radialGradient><radialGradient id="g3" cx="50%" cy="50%" r="50%"><stop offset="0%" stop-color="rgba(0,140,255,0.42)"></stop><stop offset="70%" stop-color="rgba(0,140,255,0)"></stop></radialGradient><radialGradient id="g4" cx="50%" cy="50%" r="50%"><stop offset="0%" stop-color="rgba(0,195,235,0.30)"></stop><stop offset="70%" stop-color="rgba(0,195,235,0)"></stop></radialGradient><radialGradient id="g5" cx="50%" cy="50%" r="50%"><stop offset="0%" stop-color="rgba(100,30,210,0.40)"></stop><stop offset="70%" stop-color="rgba(100,30,210,0)"></stop></radialGradient></defs><ellipse id="glow-1" cx="710" cy="150" rx="210" ry="150" fill="url(#g1)"></ellipse><ellipse id="glow-2" cx="550" cy="140" rx="190" ry="140" fill="url(#g2)"></ellipse><ellipse id="glow-3" cx="400" cy="130" rx="170" ry="130" fill="url(#g3)"></ellipse><ellipse id="glow-4" cx="250" cy="140" rx="150" ry="120" fill="url(#g4)"></ellipse><ellipse id="glow-5" cx="100" cy="150" rx="130" ry="110" fill="url(#g5)"></ellipse><style>

         @keyframes float-slow {
           0%, 100% { transform: translateX(0px); opacity: 0.8; }
           50% { transform: translateX(350px); opacity: 1.2; }
         }
         @keyframes float-medium {
           0%, 100% { transform: translateX(0px); opacity: 0.7; }
           50% { transform: translateX(-250px); opacity: 1.1; }
         }
         @keyframes float-fast {
           0%, 100% { transform: translateX(0px); opacity: 0.9; }
           50% { transform: translateX(200px); opacity: 0.6; }
         }
         @keyframes float-diagonal {
           0%, 100% { transform: translate(0px, 0px); opacity: 0.75; }
           50% { transform: translate(120px, 30px); opacity: 1.0; }
         }
         @keyframes float-wave {
           0%, 100% { transform: translateX(0px); opacity: 0.65; }
           33% { transform: translateX(-160px); opacity: 0.9; }
           66% { transform: translateX(80px); opacity: 1.0; }
         }
         @keyframes float-pulse {
           0%, 100% { transform: scale(1); opacity: 0.8; }
           50% { transform: scale(1.3); opacity: 0.4; }
         }
         #glow-1 { animation: float-slow 8s ease-in-out infinite; }
         #glow-2 { animation: float-medium 12s ease-in-out infinite; }
         #glow-3 { animation: float-fast 9s ease-in-out infinite; }
         #glow-4 { animation: float-diagonal 10s ease-in-out infinite; }
         #glow-5 { animation: float-wave 14s ease-in-out infinite; }
       
</style>
</svg><mask id="satori_om-id-0-0"><rect x="1" y="1" width="0" height="140" fill="#fff" mask="url(#satori_om-id)"/></mask><mask id="satori_om-id-0-0-0"><rect x="1" y="1" width="0" height="140" fill="#fff" mask="url(#satori_om-id)"/></mask><mask id="satori_om-id-0-0-0-0"><rect x="1" y="1" width="0" height="140" fill="#fff" mask="url(#satori_om-id)"/></mask><mask id="satori_om-id-0-0-0-1"><rect x="1" y="1" width="0" height="140" fill="#fff" mask="url(#satori_om-id)"/></mask><mask id="satori_om-id-0-0-0-2"><rect x="1" y="1" width="0" height="140" fill="#fff" mask="url(#satori_om-id)"/></mask><mask id="satori_om-id-0-0-1"><rect x="1" y="1" width="0" height="140" fill="#fff" mask="url(#satori_om-id)"/></mask><mask id="satori_om-id-0-0-1-0"><rect x="1" y="1" width="0" height="140" fill="#fff" mask="url(#satori_om-id)"/></mask><mask id="satori_om-id-0-0-1-1"><rect x="1" y="1" width="0" height="140" fill="#fff" mask="url(#satori_om-id)"/></mask><mask id="satori_om-id-0-0-1-2"><rect x="1" y="1" width="0" height="140" fill="#fff" mask="url(#satori_om-id)"/></mask><mask id="satori_om-id-0-0-2"><rect x="1" y="1" width="0" height="140" fill="#fff" mask="url(#satori_om-id)"/></mask><mask id="satori_om-id-0-0-2-0"><rect x="1" y="1" width="0" height="140" fill="#fff" mask="url(#satori_om-id)"/></mask><mask id="satori_om-id-0-0-2-1"><rect x="1" y="1" width="0" height="140" fill="#fff" mask="url(#satori_om-id)"/></mask><mask id="satori_om-id-0-0-3"><rect x="1" y="1" width="0" height="140" fill="#fff" mask="url(#satori_om-id)"/></mask><mask id="satori_om-id-0-0-3-0"><rect x="1" y="1" width="0" height="140" fill="#fff" mask="url(#satori_om-id)"/></mask><mask id="satori_om-id-0-0-3-1"><rect x="1" y="1" width="0" height="140" fill="#fff" mask="url(#satori_om-id)"/></mask><mask id="satori_om-id-0-0-4"><rect x="1" y="1" width="0" height="140" fill="#fff" mask="url(#satori_om-id)"/></mask><mask id="satori_om-id-0-0-4-0"><rect x="1" y="1" width="0" height="140" fill="#fff" mask="url(#satori_om-id)"/></mask><mask id="satori_om-id-0-0-4-1"><rect x="1" y="1" width="0" height="140" fill="#fff" mask="url(#satori_om-id)"/></mask><mask id="satori_om-id-0-1"><rect x="1" y="1" width="0" height="140" fill="#fff" mask="url(#satori_om-id)"/></mask><mask id="satori_om-id-0-2"><rect x="1" y="1" width="0" height="140" fill="#fff" mask="url(#satori_om-id)"/></mask><mask id="satori_om-id-0-3"><rect x="1" y="1" width="0" height="140" fill="#fff" mask="url(#satori_om-id)"/></mask><mask id="satori_om-id-0-4"><rect x="1" y="1" width="0" height="140" fill="#fff" mask="url(#satori_om-id)"/></mask><mask id="satori_om-id-0-5"><rect x="1" y="1" width="0" height="140" fill="#fff" mask="url(#satori_om-id)"/></mask><defs><clipPath id="satori_bc-id-1" clip-path="url(#satori_cp-id)"><rect x="1" y="30" width="276" height="80"/></clipPath></defs><mask id="satori_om-id-1"><rect x="1" y="30" width="275" height="80" fill="#fff" mask="url(#satori_om-id)"/><path width="276" height="80" fill="none" stroke="#000" stroke-width="2" d="M277,30 A0,0 0 0 1 277,30 v80 A0,0 0 0 1 277,110"/></mask><path width="276" height="80" clip-path="url(#satori_bc-id-1)" fill="none" stroke="rgba(255,255,255,0.06)" stroke-width="2" d="M277,30 A0,0 0 0 1 277,30 v80 A0,0 0 0 1 277,110"/><mask id="satori_om-id-1-0"><rect x="125" y="46" width="26" height="30" fill="#fff" mask="url(#satori_om-id)"/></mask><g mask="url(#satori_om-id)" clip-path="url(#satori_cp-id)"><path fill="#a78bfa" d="M131.2 50.2L136.0 50.2L136.0 72L131.5 72L131.5 54.1L131.4 54.1L126.4 57.7L126.4 53.6L131.2 50.2ZM144.1 50.2L148.9 50.2L148.9 72L144.4 72L144.4 54.1L144.3 54.1L139.3 57.7L139.3 53.6L144.1 50.2Z "/></g><mask id="satori_om-id-1-1"><rect x="116" y="81" width="45" height="13" fill="#fff" mask="url(#satori_om-id)"/></mask><g mask="url(#satori_om-id)" clip-path="url(#satori_cp-id)"><path fill="rgba(200,195,225,0.45)" d="M118.4 92L116.7 92L116.7 84.0L119.8 84.0Q120.8 84.0 121.4 84.3Q122.0 84.6 122.4 85.2Q122.7 85.8 122.7 86.6Q122.7 87.4 122.4 88.0Q122.0 88.5 121.4 88.8L121.4 88.8Q121.3 88.9 121.3 88.9L121.3 88.9L123.0 92L121.2 92L119.6 89.1L118.4 89.1L118.4 92ZM118.4 85.4L118.4 87.8L119.5 87.8Q120.0 87.8 120.4 87.7Q120.7 87.5 120.9 87.3Q121.0 87.0 121.0 86.6L121.0 86.6Q121.0 86.2 120.9 85.9Q120.7 85.6 120.4 85.5Q120.0 85.4 119.5 85.4L119.5 85.4L118.4 85.4ZM130.8 92L125.4 92L125.4 84.0L130.8 84.0L130.8 85.4L127.1 85.4L127.1 87.3L130.5 87.3L130.5 88.6L127.1 88.6L127.1 90.6L130.8 90.6L130.8 92ZM135.3 92L133.6 92L133.6 84.0L136.8 84.0Q137.7 84.0 138.3 84.3Q138.9 84.7 139.3 85.3Q139.6 85.9 139.6 86.7L139.6 86.7Q139.6 87.5 139.3 88.1Q138.9 88.7 138.3 89.0Q137.6 89.4 136.7 89.4L136.7 89.4L135.3 89.4L135.3 92ZM135.3 85.4L135.3 88.1L136.5 88.1Q137.0 88.1 137.3 87.9Q137.6 87.7 137.8 87.4Q137.9 87.1 137.9 86.7Q137.9 86.3 137.8 86.0Q137.6 85.7 137.3 85.5Q137.0 85.4 136.4 85.4L136.4 85.4L135.3 85.4ZM145.8 92.1L145.8 92.1Q144.7 92.1 143.9 91.6Q143.0 91.1 142.5 90.2Q142.0 89.3 142.0 88.0L142.0 88.0Q142.0 86.7 142.5 85.8Q143.0 84.9 143.9 84.4Q144.7 83.9 145.8 83.9L145.8 83.9Q146.8 83.9 147.7 84.4Q148.5 84.9 149.0 85.8Q149.5 86.7 149.5 88.0L149.5 88.0Q149.5 89.3 149.0 90.2Q148.5 91.1 147.7 91.6Q146.8 92.1 145.8 92.1ZM145.8 90.7L145.8 90.7Q146.4 90.7 146.9 90.3Q147.3 90.0 147.6 89.5Q147.8 88.9 147.8 88.0L147.8 88.0Q147.8 87.1 147.6 86.5Q147.3 86.0 146.9 85.6Q146.4 85.3 145.8 85.3L145.8 85.3Q145.2 85.3 144.7 85.7Q144.2 86.0 144.0 86.6Q143.7 87.1 143.7 88.0L143.7 88.0Q143.7 88.9 144.0 89.4Q144.2 90.0 144.7 90.3Q145.2 90.7 145.8 90.7ZM155.2 92.1L155.2 92.1Q154.2 92.1 153.5 91.8Q152.8 91.5 152.4 90.9Q152.0 90.4 152.0 89.5L152.0 89.5L153.6 89.5Q153.6 89.9 153.8 90.2Q154.0 90.5 154.4 90.6Q154.7 90.7 155.2 90.7L155.2 90.7Q155.6 90.7 155.9 90.6Q156.2 90.5 156.4 90.2Q156.6 90.0 156.6 89.7L156.6 89.7Q156.6 89.4 156.4 89.3Q156.3 89.1 156.0 88.9Q155.7 88.8 155.2 88.7L155.2 88.7L154.3 88.5Q153.3 88.2 152.8 87.7Q152.2 87.2 152.2 86.3L152.2 86.3Q152.2 85.6 152.6 85.0Q153.0 84.5 153.6 84.2Q154.3 83.9 155.2 83.9L155.2 83.9Q156.1 83.9 156.7 84.2Q157.4 84.5 157.8 85.0Q158.1 85.6 158.1 86.3L158.1 86.3L156.6 86.3Q156.5 85.8 156.2 85.5Q155.8 85.3 155.2 85.3L155.2 85.3Q154.8 85.3 154.5 85.4Q154.2 85.5 154.0 85.7Q153.9 85.9 153.9 86.2L153.9 86.2Q153.9 86.5 154.0 86.7Q154.2 86.9 154.5 87.0Q154.8 87.1 155.1 87.2L155.1 87.2L155.9 87.4Q156.4 87.5 156.8 87.7Q157.2 87.9 157.6 88.2Q157.9 88.4 158.1 88.8Q158.3 89.2 158.3 89.7L158.3 89.7Q158.3 90.4 157.9 91.0Q157.5 91.5 156.8 91.8Q156.1 92.1 155.2 92.1Z "/></g><defs><clipPath id="satori_bc-id-2" clip-path="url(#satori_cp-id)"><rect x="277" y="30" width="280" height="80"/></clipPath></defs><mask id="satori_om-id-2"><rect x="277" y="30" width="279" height="80" fill="#fff" mask="url(#satori_om-id)"/><path width="280" height="80" fill="none" stroke="#000" stroke-width="2" d="M557,30 A0,0 0 0 1 557,30 v80 A0,0 0 0 1 557,110"/></mask><path width="280" height="80" clip-path="url(#satori_bc-id-2)" fill="none" stroke="rgba(255,255,255,0.06)" stroke-width="2" d="M557,30 A0,0 0 0 1 557,30 v80 A0,0 0 0 1 557,110"/><mask id="satori_om-id-2-0"><rect x="392" y="46" width="50" height="30" fill="#fff" mask="url(#satori_om-id)"/></mask><g mask="url(#satori_om-id)" clip-path="url(#satori_cp-id)"><path fill="#60a5fa" d="M398.2 50.2L403.0 50.2L403.0 72L398.5 72L398.5 54.1L398.4 54.1L393.4 57.7L393.4 53.6L398.2 50.2ZM422.2 72L406.8 72L406.8 68.8L414.5 61.5Q415.5 60.6 416.2 59.8Q416.8 59.0 417.2 58.2Q417.6 57.5 417.6 56.6L417.6 56.6Q417.6 55.6 417.1 54.9Q416.7 54.2 415.9 53.8Q415.2 53.5 414.2 53.5L414.2 53.5Q413.2 53.5 412.4 53.9Q411.6 54.3 411.2 55.0Q410.8 55.8 410.8 56.9L410.8 56.9L406.5 56.9Q406.5 54.7 407.5 53.2Q408.5 51.6 410.2 50.7Q412.0 49.9 414.2 49.9L414.2 49.9Q416.5 49.9 418.3 50.7Q420.0 51.5 420.9 53.0Q421.9 54.4 421.9 56.3L421.9 56.3Q421.9 57.5 421.4 58.7Q420.9 59.9 419.7 61.4Q418.5 62.9 416.3 64.9L416.3 64.9L413.0 68.2L413.0 68.3L422.2 68.3L422.2 72ZM431.1 72L426.4 72L435.5 54.0L435.5 53.9L424.9 53.9L424.9 50.2L440.2 50.2L440.2 53.9L431.1 72Z "/></g><mask id="satori_om-id-2-1"><rect x="394" y="81" width="45" height="13" fill="#fff" mask="url(#satori_om-id)"/></mask><g mask="url(#satori_om-id)" clip-path="url(#satori_cp-id)"><path fill="rgba(200,195,225,0.45)" d="M397.7 92.1L397.7 92.1Q396.7 92.1 396.0 91.8Q395.3 91.5 394.9 90.9Q394.5 90.4 394.5 89.5L394.5 89.5L396.1 89.5Q396.1 89.9 396.3 90.2Q396.5 90.5 396.9 90.6Q397.2 90.7 397.6 90.7L397.6 90.7Q398.1 90.7 398.4 90.6Q398.7 90.5 398.9 90.2Q399.1 90.0 399.1 89.7L399.1 89.7Q399.1 89.4 398.9 89.3Q398.8 89.1 398.5 88.9Q398.2 88.8 397.7 88.7L397.7 88.7L396.8 88.5Q395.8 88.2 395.2 87.7Q394.7 87.2 394.7 86.3L394.7 86.3Q394.7 85.6 395.1 85.0Q395.5 84.5 396.1 84.2Q396.8 83.9 397.7 83.9L397.7 83.9Q398.6 83.9 399.2 84.2Q399.9 84.5 400.3 85.0Q400.6 85.6 400.6 86.3L400.6 86.3L399.1 86.3Q399.0 85.8 398.6 85.5Q398.3 85.3 397.7 85.3L397.7 85.3Q397.2 85.3 397.0 85.4Q396.7 85.5 396.5 85.7Q396.4 85.9 396.4 86.2L396.4 86.2Q396.4 86.5 396.5 86.7Q396.7 86.9 397.0 87.0Q397.3 87.1 397.6 87.2L397.6 87.2L398.4 87.4Q398.9 87.5 399.3 87.7Q399.7 87.9 400.1 88.2Q400.4 88.4 400.6 88.8Q400.7 89.2 400.7 89.7L400.7 89.7Q400.7 90.4 400.4 91.0Q400.0 91.5 399.3 91.8Q398.6 92.1 397.7 92.1ZM405.6 85.4L403.1 85.4L403.1 84.0L409.6 84.0L409.6 85.4L407.2 85.4L407.2 92L405.6 92L405.6 85.4ZM413.6 92L411.8 92L414.5 84.0L416.7 84.0L419.5 92L417.7 92L417.1 90.1L414.2 90.1L413.6 92ZM414.6 88.9L416.6 88.9L416.4 88.1Q416.2 87.4 415.9 86.5L415.9 86.5Q415.8 85.9 415.6 85.3L415.6 85.3Q415.4 85.9 415.3 86.5L415.3 86.5Q415.1 87.4 414.9 88.1L414.9 88.1L414.6 88.9ZM423.6 92L422.0 92L422.0 84.0L425.1 84.0Q426.0 84.0 426.7 84.3Q427.3 84.6 427.6 85.2Q428.0 85.8 428.0 86.6Q428.0 87.4 427.6 88.0Q427.3 88.5 426.6 88.8L426.6 88.8Q426.6 88.9 426.5 88.9L426.5 88.9L428.3 92L426.4 92L424.9 89.1L423.6 89.1L423.6 92ZM423.6 85.4L423.6 87.8L424.8 87.8Q425.3 87.8 425.6 87.7Q426.0 87.5 426.1 87.3Q426.3 87.0 426.3 86.6L426.3 86.6Q426.3 86.2 426.1 85.9Q426.0 85.6 425.6 85.5Q425.3 85.4 424.8 85.4L424.8 85.4L423.6 85.4ZM433.6 92.1L433.6 92.1Q432.7 92.1 432.0 91.8Q431.3 91.5 430.9 90.9Q430.5 90.4 430.4 89.5L430.4 89.5L432.0 89.5Q432.1 89.9 432.3 90.2Q432.5 90.5 432.8 90.6Q433.2 90.7 433.6 90.7L433.6 90.7Q434.1 90.7 434.4 90.6Q434.7 90.5 434.9 90.2Q435.1 90.0 435.1 89.7L435.1 89.7Q435.1 89.4 434.9 89.3Q434.8 89.1 434.4 88.9Q434.1 88.8 433.7 88.7L433.7 88.7L432.8 88.5Q431.8 88.2 431.2 87.7Q430.7 87.2 430.7 86.3L430.7 86.3Q430.7 85.6 431.0 85.0Q431.4 84.5 432.1 84.2Q432.8 83.9 433.7 83.9L433.7 83.9Q434.5 83.9 435.2 84.2Q435.9 84.5 436.2 85.0Q436.6 85.6 436.6 86.3L436.6 86.3L435.0 86.3Q435.0 85.8 434.6 85.5Q434.3 85.3 433.6 85.3L433.6 85.3Q433.2 85.3 432.9 85.4Q432.6 85.5 432.5 85.7Q432.3 85.9 432.3 86.2L432.3 86.2Q432.3 86.5 432.5 86.7Q432.7 86.9 433.0 87.0Q433.3 87.1 433.6 87.2L433.6 87.2L434.3 87.4Q434.8 87.5 435.3 87.7Q435.7 87.9 436.0 88.2Q436.4 88.4 436.5 88.8Q436.7 89.2 436.7 89.7L436.7 89.7Q436.7 90.4 436.4 91.0Q436.0 91.5 435.3 91.8Q434.6 92.1 433.6 92.1Z "/></g><mask id="satori_om-id-3"><rect x="557" y="30" width="302" height="80" fill="#fff" mask="url(#satori_om-id)"/></mask><mask id="satori_om-id-3-0"><rect x="672" y="46" width="72" height="30" fill="#fff" mask="url(#satori_om-id)"/></mask><g mask="url(#satori_om-id)" clip-path="url(#satori_cp-id)"><path fill="#f59e0b" d="M689.3 72L673.8 72L673.8 68.8L681.6 61.5Q682.5 60.6 683.2 59.8Q683.9 59.0 684.3 58.2Q684.6 57.5 684.6 56.6L684.6 56.6Q684.6 55.6 684.2 54.9Q683.7 54.2 683.0 53.8Q682.2 53.5 681.2 53.5L681.2 53.5Q680.2 53.5 679.5 53.9Q678.7 54.3 678.3 55.0Q677.9 55.8 677.9 56.9L677.9 56.9L673.6 56.9Q673.6 54.7 674.6 53.2Q675.6 51.6 677.3 50.7Q679.0 49.9 681.3 49.9L681.3 49.9Q683.6 49.9 685.3 50.7Q687.0 51.5 688.0 53.0Q689.0 54.4 689.0 56.3L689.0 56.3Q689.0 57.5 688.5 58.7Q688.0 59.9 686.8 61.4Q685.6 62.9 683.3 64.9L683.3 64.9L680.0 68.2L680.0 68.3L689.3 68.3L689.3 72ZM702.4 68.1L691.9 68.1L691.9 64.6L701.0 50.2L706.6 50.2L706.6 64.5L709.4 64.5L709.4 68.1L706.6 68.1L706.6 72L702.4 72L702.4 68.1ZM696.4 64.5L702.4 64.5L702.4 55.1L702.3 55.1L696.4 64.3L696.4 64.5ZM715.8 50.2L720.5 50.2L720.5 72L716.1 72L716.1 54.1L715.9 54.1L710.9 57.7L710.9 53.6L715.8 50.2ZM732.2 72.3L732.2 72.3Q729.8 72.3 727.9 71.5Q726.1 70.7 725.0 69.2Q724.0 67.8 724.0 65.9L724.0 65.9L728.5 65.9Q728.5 66.7 729.0 67.3Q729.5 67.9 730.3 68.3Q731.2 68.6 732.2 68.6L732.2 68.6Q733.3 68.6 734.1 68.2Q734.9 67.8 735.4 67.2Q735.8 66.5 735.8 65.6L735.8 65.6Q735.8 64.7 735.3 64.0Q734.9 63.3 733.9 62.9Q733.0 62.5 731.8 62.5L731.8 62.5L729.7 62.5L729.7 59.2L731.8 59.2Q732.8 59.2 733.6 58.8Q734.4 58.5 734.9 57.8Q735.4 57.2 735.4 56.3L735.4 56.3Q735.4 55.4 735.0 54.8Q734.6 54.2 733.9 53.8Q733.2 53.5 732.2 53.5L732.2 53.5Q731.3 53.5 730.5 53.8Q729.7 54.1 729.2 54.8Q728.7 55.4 728.7 56.2L728.7 56.2L724.4 56.2Q724.4 54.4 725.4 52.9Q726.5 51.5 728.3 50.7Q730.0 49.9 732.2 49.9L732.2 49.9Q734.5 49.9 736.2 50.7Q737.8 51.5 738.8 52.9Q739.7 54.3 739.7 56.0L739.7 56.0Q739.7 57.8 738.6 59.1Q737.4 60.3 735.6 60.6L735.6 60.6L735.6 60.8Q737.2 61.0 738.3 61.7Q739.4 62.4 739.9 63.5Q740.5 64.5 740.5 65.9L740.5 65.9Q740.5 67.7 739.4 69.2Q738.4 70.6 736.5 71.5Q734.6 72.3 732.2 72.3Z "/></g><mask id="satori_om-id-3-1"><rect x="675" y="81" width="66" height="13" fill="#fff" mask="url(#satori_om-id)"/></mask><g mask="url(#satori_om-id)" clip-path="url(#satori_cp-id)"><path fill="rgba(200,195,225,0.45)" d="M679.2 92.1L679.2 92.1Q678.2 92.1 677.3 91.6Q676.5 91.1 676.0 90.2Q675.5 89.3 675.5 88.0L675.5 88.0Q675.5 86.7 676.0 85.8Q676.5 84.9 677.3 84.4Q678.2 83.9 679.2 83.9L679.2 83.9Q679.9 83.9 680.5 84.1Q681.1 84.3 681.5 84.6Q682.0 85.0 682.3 85.5Q682.6 86.1 682.7 86.7L682.7 86.7L681.0 86.7Q681.0 86.4 680.8 86.1Q680.6 85.9 680.4 85.7Q680.2 85.5 679.9 85.4Q679.6 85.3 679.3 85.3L679.3 85.3Q678.6 85.3 678.2 85.7Q677.7 86.0 677.4 86.6Q677.2 87.2 677.2 88.0L677.2 88.0Q677.2 88.9 677.4 89.5Q677.7 90.1 678.2 90.4Q678.6 90.7 679.2 90.7L679.2 90.7Q679.6 90.7 679.9 90.6Q680.2 90.5 680.4 90.3Q680.6 90.1 680.8 89.8Q681.0 89.6 681.0 89.3L681.0 89.3L682.7 89.3Q682.6 89.8 682.3 90.3Q682.1 90.8 681.6 91.2Q681.2 91.6 680.6 91.9Q680.0 92.1 679.2 92.1ZM688.9 92.1L688.9 92.1Q687.8 92.1 687.0 91.6Q686.1 91.1 685.6 90.2Q685.1 89.3 685.1 88.0L685.1 88.0Q685.1 86.7 685.6 85.8Q686.1 84.9 687.0 84.4Q687.8 83.9 688.9 83.9L688.9 83.9Q689.9 83.9 690.8 84.4Q691.6 84.9 692.1 85.8Q692.6 86.7 692.6 88.0L692.6 88.0Q692.6 89.3 692.1 90.2Q691.6 91.1 690.8 91.6Q689.9 92.1 688.9 92.1ZM688.9 90.7L688.9 90.7Q689.5 90.7 690.0 90.3Q690.4 90.0 690.7 89.5Q690.9 88.9 690.9 88.0L690.9 88.0Q690.9 87.1 690.7 86.5Q690.4 86.0 690.0 85.6Q689.5 85.3 688.9 85.3L688.9 85.3Q688.3 85.3 687.8 85.7Q687.3 86.0 687.1 86.6Q686.8 87.1 686.8 88.0L686.8 88.0Q686.8 88.9 687.1 89.4Q687.3 90.0 687.8 90.3Q688.3 90.7 688.9 90.7ZM697.0 92L695.3 92L695.3 84.0L697.9 84.0L699.2 87.7Q699.2 87.9 699.3 88.3Q699.4 88.7 699.5 89.2L699.5 89.2Q699.7 89.7 699.7 90.1L699.7 90.1Q699.8 89.7 699.9 89.2L699.9 89.2Q700.0 88.8 700.2 88.3Q700.3 87.9 700.3 87.7L700.3 87.7L701.6 84.0L704.1 84.0L704.1 92L702.5 92L702.5 88.2Q702.5 88.0 702.5 87.6Q702.5 87.2 702.5 86.7Q702.5 86.3 702.5 85.8L702.5 85.8Q702.6 85.6 702.6 85.4L702.6 85.4Q702.5 85.6 702.4 85.9L702.4 85.9Q702.3 86.3 702.2 86.8Q702.1 87.2 701.9 87.6Q701.8 88.0 701.8 88.2L701.8 88.2L700.4 92L699.0 92L697.7 88.2Q697.6 88.0 697.5 87.6Q697.4 87.2 697.3 86.8Q697.1 86.4 697.0 85.9L697.0 85.9Q697.0 85.7 696.9 85.5L696.9 85.5Q696.9 85.6 696.9 85.8L696.9 85.8Q696.9 86.2 696.9 86.7Q696.9 87.2 697.0 87.6Q697.0 88.0 697.0 88.2L697.0 88.2L697.0 92ZM708.7 92L707.1 92L707.1 84.0L709.6 84.0L710.9 87.7Q711.0 87.9 711.1 88.3Q711.2 88.7 711.3 89.2L711.3 89.2Q711.4 89.7 711.5 90.1L711.5 90.1Q711.6 89.7 711.7 89.2L711.7 89.2Q711.8 88.8 711.9 88.3Q712.0 87.9 712.1 87.7L712.1 87.7L713.4 84.0L715.9 84.0L715.9 92L714.2 92L714.2 88.2Q714.2 88.0 714.2 87.6Q714.3 87.2 714.3 86.7Q714.3 86.3 714.3 85.8L714.3 85.8Q714.3 85.6 714.3 85.4L714.3 85.4Q714.2 85.6 714.2 85.9L714.2 85.9Q714.1 86.3 713.9 86.8Q713.8 87.2 713.7 87.6Q713.6 88.0 713.5 88.2L713.5 88.2L712.2 92L710.8 92L709.4 88.2Q709.4 88.0 709.3 87.6Q709.1 87.2 709.0 86.8Q708.9 86.4 708.8 85.9L708.8 85.9Q708.7 85.7 708.7 85.5L708.7 85.5Q708.7 85.6 708.7 85.8L708.7 85.8Q708.7 86.2 708.7 86.7Q708.7 87.2 708.7 87.6Q708.7 88.0 708.7 88.2L708.7 88.2L708.7 92ZM718.8 84.0L720.5 84.0L720.5 92L718.8 92L718.8 84.0ZM725.5 85.4L723.1 85.4L723.1 84.0L729.6 84.0L729.6 85.4L727.2 85.4L727.2 92L725.5 92L725.5 85.4ZM735.2 92.1L735.2 92.1Q734.2 92.1 733.5 91.8Q732.8 91.5 732.4 90.9Q732.0 90.4 732.0 89.5L732.0 89.5L733.6 89.5Q733.6 89.9 733.8 90.2Q734.0 90.5 734.4 90.6Q734.7 90.7 735.2 90.7L735.2 90.7Q735.6 90.7 735.9 90.6Q736.3 90.5 736.5 90.2Q736.6 90.0 736.6 89.7L736.6 89.7Q736.6 89.4 736.5 89.3Q736.3 89.1 736.0 88.9Q735.7 88.8 735.3 88.7L735.3 88.7L734.4 88.5Q733.4 88.2 732.8 87.7Q732.2 87.2 732.2 86.3L732.2 86.3Q732.2 85.6 732.6 85.0Q733.0 84.5 733.7 84.2Q734.3 83.9 735.2 83.9L735.2 83.9Q736.1 83.9 736.8 84.2Q737.4 84.5 737.8 85.0Q738.2 85.6 738.2 86.3L738.2 86.3L736.6 86.3Q736.6 85.8 736.2 85.5Q735.8 85.3 735.2 85.3L735.2 85.3Q734.8 85.3 734.5 85.4Q734.2 85.5 734.0 85.7Q733.9 85.9 733.9 86.2L733.9 86.2Q733.9 86.5 734.1 86.7Q734.2 86.9 734.5 87.0Q734.8 87.1 735.2 87.2L735.2 87.2L735.9 87.4Q736.4 87.5 736.8 87.7Q737.3 87.9 737.6 88.2Q737.9 88.4 738.1 88.8Q738.3 89.2 738.3 89.7L738.3 89.7Q738.3 90.4 737.9 91.0Q737.6 91.5 736.9 91.8Q736.2 92.1 735.2 92.1Z "/></g></svg>