<!-- Generated by readme-aura https://github.com/collectioneur/readme-aura -->
<svg width="860" height="140" viewBox="0 0 860 140" xmlns="http://www.w3.org/2000/svg"><defs><clipPath id="satori_bc-id"><path x="0" y="0" width="860" height="140" d="M16,0 h828 a16,16 0 0 1 16,16 v108 a16,16 0 0 1 -16,16 h-828 a16,16 0 0 1 -16,-16 v-108 a16,16 0 0 1 16,-16"/></clipPath></defs><clipPath id="satori_cp-id"><path x="0" y="0" width="860" height="140" d="M16,0 h828 a16,16 0 0 1 16,16 v108 a16,16 0 0 1 -16,16 h-828 a16,16 0 0 1 -16,-16 v-108 a16,16 0 0 1 16,-16"/></clipPath><mask id="satori_om-id"><rect x="1" y="1" width="858" height="138" fill="#fff"/><path width="860" height="140" fill="none" stroke="#000" stroke-width="2" d="M4.686,4.686 A16,16 0 0 1 16,0 h828 a16,16 0 0 1 16,16 v108 a16,16 0 0 1 -16,16 h-828 a16,16 0 0 1 -16,-16 v-108 A16,16 0 0 1 4.686,4.686"/></mask><path x="0" y="0" width="860" height="140" fill="#08080c" d="M16,0 h828 a16,16 0 0 1 16,16 v108 a16,16 0 0 1 -16,16 h-828 a16,16 0 0 1 -16,-16 v-108 a16,16 0 0 1 16,-16"/><path width="860" height="140" clip-path="url(#satori_bc-id)" fill="none" stroke="rgba(110,80,220,0.18)" stroke-width="2" d="M4.686,4.686 A16,16 0 0 1 16,0 h828 a16,16 0 0 1 16,16 v108 a16,16 0 0 1 -16,16 h-828 a16,16 0 0 1 -16,-16 v-108 A16,16 0 0 1 4.686,4.686"/><clipPath id="satori_cp-id-0" clip-path="url(#satori_cp-id)"><rect x="1" y="1" width="860" height="140"/></clipPath><mask id="satori_om-id-0"><rect x="1" y="1" width="860" height="140" fill="#fff" mask="url(#satori_om-id)"/></mask><svg x="1" y="1" width="860" height="140" preserveAspectRatio="none" clip-path="url(#satori_cp-id-0)" mask="url(#satori_om-id-0)"><defs><radialGradient id="g1" cx="50%" cy="50%" r="50%"><stop offset="0%" stop-color="rgba(110,20,210,0.65)"></stop><stop offset="45%" stop-color="rgba(80,15,170,0.28)"></stop><stop offset="70%" stop-color="rgba(80,15,170,0)"></stop></radialGradient><radialGradient id="g2" cx="50%" cy="50%" r="50%"><stop offset="0%" stop-color="rgba(40,70,255,0.55)"></stop><stop offset="45%" stop-color="rgba(20,50,200,0.22)"></stop><stop offset="70%" stop-color="rgba(20,50,200,0)"></stop></radialGradient><radialGradient id="g3" cx="50%" cy="50%" r="50%"><stop offset="0%" stop-color="rgba(0,140,255,0.42)"></stop><stop offset="70%" stop-color="rgba(0,140,255,0)"></stop></radialGradient><radialGradient id="g4" cx="50%" cy="50%" r="50%"><stop offset="0%" stop-color="rgba(0,195,235,0.30)"></stop><stop offset="70%" stop-color="rgba(0,195,235,0)"></stop></radialGradient><radialGradient id="g5" cx="50%" cy="50%" r="50%"><stop offset="0%" stop-color="rgba(100,30,210,0.40)"></stop><stop offset="70%" stop-color="rgba(100,30,210,0)"></stop></radialGradient></defs><ellipse id="glow-1" cx="710" cy="150" rx="210" ry="150" fill="url(#g1)"></ellipse><ellipse id="glow-2" cx="550" cy="140" rx="190" ry="140" fill="url(#g2)"></ellipse><ellipse id="glow-3" cx="400" cy="130" rx="170" ry="130" fill="url(#g3)"></ellipse><ellipse id="glow-4" cx="250" cy="140" rx="150" ry="120" fill="url(#g4)"></ellipse><ellipse id="glow-5" cx="100" cy="150" rx="130" ry="110" fill="url(#g5)"></ellipse><style>

         @keyframes float-slow {
           0%, 100% { transform: translateX(0px); opacity: 0.8; }
           50% { transform: translateX(350px); opacity: 1.2; }
         }
         @keyframes float-medium {
           0%, 100% { transform: translateX(0px); opacity: 0.7; }
           50% { transform: translateX(-250px); opacity: 1.1; }
         }
         @keyframes float-fast {
           0%, 100% { transform: translateX(0px); opacity: 0.9; }
           50% { transform: translateX(200px); opacity: 0.6; }
         }
         @keyframes float-diagonal {
           0%, 100% { transform: translate(0px, 0px); opacity: 0.75; }
           50% { transform: translate(120px, 30px); opacity: 1.0; }
         }
         @keyframes float-wave {
           0%, 100% { transform: translateX(0px); opacity: 0.65; }
           33% { transform: translateX(-160px); opacity: 0.9; }
           66% { transform: translateX(80px); opacity: 1.0; }
         }
         @keyframes float-pulse {
           0%, 100% { transform: scale(1); opacity: 0.8; }
           50% { transform: scale(1.3); opacity: 0.4; }
         }
         #glow-1 { animation: float-slow 8s ease-in-out infinite; }
         #glow-2 { animation: float-medium 12s ease-in-out infinite; }
         #glow-3 { animation: float-fast 9s ease-in-out infinite; }
         #glow-4 { animation: float-diagonal 10s ease-in-out infinite; }
         #glow-5 { animation: float-wave 14s ease-in-out infinite; }
       
</style>
</svg><mask id="satori_om-id-0-0"><rect x="1" y="1" width="0" height="140" fill="#fff" mask="url(#satori_om-id)"/></mask><mask id="satori_om-id-0-0-0"><rect x="1" y="1" width="0" height="140" fill="#fff" mask="url(#satori_om-id)"/></mask><mask id="satori_om-id-0-0-0-0"><rect x="1" y="1" width="0" height="140" fill="#fff" mask="url(#satori_om-id)"/></mask><mask id="satori_om-id-0-0-0-1"><rect x="1" y="1" width="0" height="140" fill="#fff" mask="url(#satori_om-id)"/></mask><mask id="satori_om-id-0-0-0-2"><rect x="1" y="1" width="0" height="140" fill="#fff" mask="url(#satori_om-id)"/></mask><mask id="satori_om-id-0-0-1"><rect x="1" y="1" width="0" height="140" fill="#fff" mask="url(#satori_om-id)"/></mask><mask id="satori_om-id-0-0-1-0"><rect x="1" y="1" width="0" height="140" fill="#fff" mask="url(#satori_om-id)"/></mask><mask id="satori_om-id-0-0-1-1"><rect x="1" y="1" width="0" height="140" fill="#fff" mask="url(#satori_om-id)"/></mask><mask id="satori_om-id-0-0-1-2"><rect x="1" y="1" width="0" height="140" fill="#fff" mask="url(#satori_om-id)"/></mask><mask id="satori_om-id-0-0-2"><rect x="1" y="1" width="0" height="140" fill="#fff" mask="url(#satori_om-id)"/></mask><mask id="satori_om-id-0-0-2-0"><rect x="1" y="1" width="0" height="140" fill="#fff" mask="url(#satori_om-id)"/></mask><mask id="satori_om-id-0-0-2-1"><rect x="1" y="1" width="0" height="140" fill="#fff" mask="url(#satori_om-id)"/></mask><mask id="satori_om-id-0-0-3"><rect x="1" y="1" width="0" height="140" fill="#fff" mask="url(#satori_om-id)"/></mask><mask id="satori_om-id-0-0-3-0"><rect x="1" y="1" width="0" height="140" fill="#fff" mask="url(#satori_om-id)"/></mask><mask id="satori_om-id-0-0-3-1"><rect x="1" y="1" width="0" height="140" fill="#fff" mask="url(#satori_om-id)"/></mask><mask id="satori_om-id-0-0-4"><rect x="1" y="1" width="0" height="140" fill="#fff" mask="url(#satori_om-id)"/></mask><mask id="satori_om-id-0-0-4-0"><rect x="1" y="1" width="0" height="140" fill="#fff" mask="url(#satori_om-id)"/></mask><mask id="satori_om-id-0-0-4-1"><rect x="1" y="1" width="0" height="140" fill="#fff" mask="url(#satori_om-id)"/></mask><mask id="satori_om-id-0-1"><rect x="1" y="1" width="0" height="140" fill="#fff" mask="url(#satori_om-id)"/></mask><mask id="satori_om-id-0-2"><rect x="1" y="1" width="0" height="140" fill="#fff" mask="url(#satori_om-id)"/></mask><mask id="satori_om-id-0-3"><rect x="1" y="1" width="0" height="140" fill="#fff" mask="url(#satori_om-id)"/></mask><mask id="satori_om-id-0-4"><rect x="1" y="1" width="0" height="140" fill="#fff" mask="url(#satori_om-id)"/></mask><mask id="satori_om-id-0-5"><rect x="1" y="1" width="0" height="140" fill="#fff" mask="url(#satori_om-id)"/></mask><defs><clipPath id="satori_bc-id-1" clip-path="url(#satori_cp-id)"><rect x="1" y="30" width="273" height="80"/></clipPath></defs><mask id="satori_om-id-1"><rect x="1" y="30" width="272" height="80" fill="#fff" mask="url(#satori_om-id)"/><path width="273" height="80" fill="none" stroke="#000" stroke-width="2" d="M274,30 A0,0 0 0 1 274,30 v80 A0,0 0 0 1 274,110"/></mask><path width="273" height="80" clip-path="url(#satori_bc-id-1)" fill="none" stroke="rgba(255,255,255,0.06)" stroke-width="2" d="M274,30 A0,0 0 0 1 274,30 v80 A0,0 0 0 1 274,110"/><mask id="satori_om-id-1-0"><rect x="121" y="46" width="33" height="30" fill="#fff" mask="url(#satori_om-id)"/></mask><g mask="url(#satori_om-id)" clip-path="url(#satori_cp-id)"><path fill="#a78bfa" d="M127.2 50.2L132.0 50.2L132.0 72L127.5 72L127.5 54.1L127.4 54.1L122.4 57.7L122.4 53.6L127.2 50.2ZM143.6 72.3L143.6 72.3Q141.2 72.3 139.4 71.5Q137.5 70.7 136.5 69.2Q135.4 67.8 135.4 65.9L135.4 65.9L139.9 65.9Q139.9 66.7 140.4 67.3Q140.9 67.9 141.7 68.3Q142.6 68.6 143.6 68.6L143.6 68.6Q144.7 68.6 145.5 68.2Q146.3 67.8 146.8 67.2Q147.3 66.5 147.3 65.6L147.3 65.6Q147.3 64.7 146.8 64.0Q146.3 63.3 145.4 62.9Q144.5 62.5 143.2 62.5L143.2 62.5L141.2 62.5L141.2 59.2L143.2 59.2Q144.3 59.2 145.1 58.8Q145.9 58.5 146.3 57.8Q146.8 57.2 146.8 56.3L146.8 56.3Q146.8 55.4 146.4 54.8Q146.0 54.2 145.3 53.8Q144.6 53.5 143.6 53.5L143.6 53.5Q142.7 53.5 141.9 53.8Q141.1 54.1 140.6 54.8Q140.1 55.4 140.1 56.2L140.1 56.2L135.8 56.2Q135.8 54.4 136.9 52.9Q137.9 51.5 139.7 50.7Q141.4 49.9 143.7 49.9L143.7 49.9Q145.9 49.9 147.6 50.7Q149.3 51.5 150.2 52.9Q151.1 54.3 151.1 56.0L151.1 56.0Q151.1 57.8 150.0 59.1Q148.9 60.3 147.0 60.6L147.0 60.6L147.0 60.8Q148.6 61.0 149.7 61.7Q150.8 62.4 151.4 63.5Q151.9 64.5 151.9 65.9L151.9 65.9Q151.9 67.7 150.9 69.2Q149.8 70.6 147.9 71.5Q146.0 72.3 143.6 72.3Z "/></g><mask id="satori_om-id-1-1"><rect x="115" y="81" width="45" height="13" fill="#fff" mask="url(#satori_om-id)"/></mask><g mask="url(#satori_om-id)" clip-path="url(#satori_cp-id)"><path fill="rgba(200,195,225,0.45)" d="M117.4 92L115.7 92L115.7 84.0L118.8 84.0Q119.8 84.0 120.4 84.3Q121.0 84.6 121.4 85.2Q121.7 85.8 121.7 86.6Q121.7 87.4 121.4 88.0Q121.0 88.5 120.4 88.8L120.4 88.8Q120.3 88.9 120.3 88.9L120.3 88.9L122.0 92L120.2 92L118.6 89.1L117.4 89.1L117.4 92ZM117.4 85.4L117.4 87.8L118.5 87.8Q119.0 87.8 119.4 87.7Q119.7 87.5 119.9 87.3Q120.0 87.0 120.0 86.6L120.0 86.6Q120.0 86.2 119.9 85.9Q119.7 85.6 119.4 85.5Q119.0 85.4 118.5 85.4L118.5 85.4L117.4 85.4ZM129.8 92L124.4 92L124.4 84.0L129.8 84.0L129.8 85.4L126.1 85.4L126.1 87.3L129.5 87.3L129.5 88.6L126.1 88.6L126.1 90.6L129.8 90.6L129.8 92ZM134.3 92L132.6 92L132.6 84.0L135.8 84.0Q136.7 84.0 137.3 84.3Q137.9 84.7 138.3 85.3Q138.6 85.9 138.6 86.7L138.6 86.7Q138.6 87.5 138.3 88.1Q137.9 88.7 137.3 89.0Q136.6 89.4 135.7 89.4L135.7 89.4L134.3 89.4L134.3 92ZM134.3 85.4L134.3 88.1L135.5 88.1Q136.0 88.1 136.3 87.9Q136.6 87.7 136.8 87.4Q136.9 87.1 136.9 86.7Q136.9 86.3 136.8 86.0Q136.6 85.7 136.3 85.5Q136.0 85.4 135.4 85.4L135.4 85.4L134.3 85.4ZM144.8 92.1L144.8 92.1Q143.7 92.1 142.9 91.6Q142.0 91.1 141.5 90.2Q141.0 89.3 141.0 88.0L141.0 88.0Q141.0 86.7 141.5 85.8Q142.0 84.9 142.9 84.4Q143.7 83.9 144.8 83.9L144.8 83.9Q145.8 83.9 146.7 84.4Q147.5 84.9 148.0 85.8Q148.5 86.7 148.5 88.0L148.5 88.0Q148.5 89.3 148.0 90.2Q147.5 91.1 146.7 91.6Q145.8 92.1 144.8 92.1ZM144.8 90.7L144.8 90.7Q145.4 90.7 145.9 90.3Q146.3 90.0 146.6 89.5Q146.8 88.9 146.8 88.0L146.8 88.0Q146.8 87.1 146.6 86.5Q146.3 86.0 145.9 85.6Q145.4 85.3 144.8 85.3L144.8 85.3Q144.2 85.3 143.7 85.7Q143.2 86.0 143.0 86.6Q142.7 87.1 142.7 88.0L142.7 88.0Q142.7 88.9 143.0 89.4Q143.2 90.0 143.7 90.3Q144.2 90.7 144.8 90.7ZM154.2 92.1L154.2 92.1Q153.2 92.1 152.5 91.8Q151.8 91.5 151.4 90.9Q151.0 90.4 151.0 89.5L151.0 89.5L152.6 89.5Q152.6 89.9 152.8 90.2Q153.0 90.5 153.4 90.6Q153.7 90.7 154.2 90.7L154.2 90.7Q154.6 90.7 154.9 90.6Q155.2 90.5 155.4 90.2Q155.6 90.0 155.6 89.7L155.6 89.7Q155.6 89.4 155.4 89.3Q155.3 89.1 155.0 88.9Q154.7 88.8 154.2 88.7L154.2 88.7L153.3 88.5Q152.3 88.2 151.8 87.7Q151.2 87.2 151.2 86.3L151.2 86.3Q151.2 85.6 151.6 85.0Q152.0 84.5 152.6 84.2Q153.3 83.9 154.2 83.9L154.2 83.9Q155.1 83.9 155.7 84.2Q156.4 84.5 156.8 85.0Q157.1 85.6 157.1 86.3L157.1 86.3L155.6 86.3Q155.5 85.8 155.2 85.5Q154.8 85.3 154.2 85.3L154.2 85.3Q153.8 85.3 153.5 85.4Q153.2 85.5 153.0 85.7Q152.9 85.9 152.9 86.2L152.9 86.2Q152.9 86.5 153.0 86.7Q153.2 86.9 153.5 87.0Q153.8 87.1 154.1 87.2L154.1 87.2L154.9 87.4Q155.4 87.5 155.8 87.7Q156.2 87.9 156.6 88.2Q156.9 88.4 157.1 88.8Q157.3 89.2 157.3 89.7L157.3 89.7Q157.3 90.4 156.9 91.0Q156.5 91.5 155.8 91.8Q155.1 92.1 154.2 92.1Z "/></g><defs><clipPath id="satori_bc-id-2" clip-path="url(#satori_cp-id)"><rect x="274" y="30" width="280" height="80"/></clipPath></defs><mask id="satori_om-id-2"><rect x="274" y="30" width="279" height="80" fill="#fff" mask="url(#satori_om-id)"/><path width="280" height="80" fill="none" stroke="#000" stroke-width="2" d="M554,30 A0,0 0 0 1 554,30 v80 A0,0 0 0 1 554,110"/></mask><path width="280" height="80" clip-path="url(#satori_bc-id-2)" fill="none" stroke="rgba(255,255,255,0.06)" stroke-width="2" d="M554,30 A0,0 0 0 1 554,30 v80 A0,0 0 0 1 554,110"/><mask id="satori_om-id-2-0"><rect x="388" y="46" width="52" height="30" fill="#fff" mask="url(#satori_om-id)"/></mask><g mask="url(#satori_om-id)" clip-path="url(#satori_cp-id)"><path fill="#60a5fa" d="M394.2 50.2L399.0 50.2L399.0 72L394.5 72L394.5 54.1L394.4 54.1L389.4 57.7L389.4 53.6L394.2 50.2ZM411.0 72.3L411.0 72.3Q408.3 72.3 406.3 71.0Q404.4 69.6 403.4 67.1Q402.3 64.6 402.3 61.1L402.3 61.1Q402.3 57.6 403.4 55.1Q404.4 52.5 406.3 51.2Q408.3 49.9 411.0 49.9L411.0 49.9Q413.8 49.9 415.8 51.2Q417.7 52.6 418.7 55.1Q419.8 57.6 419.8 61.1L419.8 61.1Q419.8 64.6 418.8 67.1Q417.7 69.6 415.8 71.0Q413.8 72.3 411.0 72.3ZM411.0 68.6L411.0 68.6Q412.4 68.6 413.3 67.7Q414.3 66.8 414.7 65.2Q415.2 63.5 415.2 61.1L415.2 61.1Q415.2 58.7 414.7 57.0Q414.3 55.3 413.3 54.5Q412.4 53.6 411.0 53.6L411.0 53.6Q409.7 53.6 408.8 54.5Q407.8 55.3 407.4 57.0Q406.9 58.7 406.9 61.1L406.9 61.1Q406.9 63.5 407.4 65.2Q407.8 66.8 408.8 67.7Q409.7 68.6 411.0 68.6ZM430.4 72.3L430.4 72.3Q428.1 72.3 426.4 71.5Q424.6 70.6 423.6 69.2Q422.6 67.7 422.5 65.9L422.5 65.9L426.9 65.9Q426.9 66.7 427.4 67.4Q427.9 68.0 428.7 68.4Q429.4 68.7 430.4 68.7L430.4 68.7Q431.5 68.7 432.3 68.3Q433.1 67.8 433.6 66.9Q434.1 66.0 434.1 64.9L434.1 64.9Q434.1 63.7 433.6 62.8Q433.1 61.9 432.3 61.4Q431.4 60.9 430.3 60.9L430.3 60.9Q429.3 60.9 428.4 61.3Q427.5 61.7 427.0 62.3L427.0 62.3L423.0 61.6L424.0 50.2L437.2 50.2L437.2 53.9L427.7 53.9L427.2 59.4L427.3 59.4Q427.9 58.6 429.0 58.1Q430.2 57.6 431.6 57.6L431.6 57.6Q433.1 57.6 434.3 58.1Q435.6 58.6 436.5 59.6Q437.4 60.5 437.9 61.9Q438.4 63.2 438.4 64.7L438.4 64.7Q438.4 66.9 437.4 68.6Q436.4 70.3 434.6 71.3Q432.8 72.3 430.4 72.3Z "/></g><mask id="satori_om-id-2-1"><rect x="391" y="81" width="45" height="13" fill="#fff" mask="url(#satori_om-id)"/></mask><g mask="url(#satori_om-id)" clip-path="url(#satori_cp-id)"><path fill="rgba(200,195,225,0.45)" d="M394.7 92.1L394.7 92.1Q393.7 92.1 393.0 91.8Q392.3 91.5 391.9 90.9Q391.5 90.4 391.5 89.5L391.5 89.5L393.1 89.5Q393.1 89.9 393.3 90.2Q393.5 90.5 393.9 90.6Q394.2 90.7 394.6 90.7L394.6 90.7Q395.1 90.7 395.4 90.6Q395.7 90.5 395.9 90.2Q396.1 90.0 396.1 89.7L396.1 89.7Q396.1 89.4 395.9 89.3Q395.8 89.1 395.5 88.9Q395.2 88.8 394.7 88.7L394.7 88.7L393.8 88.5Q392.8 88.2 392.2 87.7Q391.7 87.2 391.7 86.3L391.7 86.3Q391.7 85.6 392.1 85.0Q392.5 84.5 393.1 84.2Q393.8 83.9 394.7 83.9L394.7 83.9Q395.6 83.9 396.2 84.2Q396.9 84.5 397.3 85.0Q397.6 85.6 397.6 86.3L397.6 86.3L396.1 86.3Q396.0 85.8 395.6 85.5Q395.3 85.3 394.7 85.3L394.7 85.3Q394.2 85.3 394.0 85.4Q393.7 85.5 393.5 85.7Q393.4 85.9 393.4 86.2L393.4 86.2Q393.4 86.5 393.5 86.7Q393.7 86.9 394.0 87.0Q394.3 87.1 394.6 87.2L394.6 87.2L395.4 87.4Q395.9 87.5 396.3 87.7Q396.7 87.9 397.1 88.2Q397.4 88.4 397.6 88.8Q397.7 89.2 397.7 89.7L397.7 89.7Q397.7 90.4 397.4 91.0Q397.0 91.5 396.3 91.8Q395.6 92.1 394.7 92.1ZM402.6 85.4L400.1 85.4L400.1 84.0L406.6 84.0L406.6 85.4L404.2 85.4L404.2 92L402.6 92L402.6 85.4ZM410.6 92L408.8 92L411.5 84.0L413.7 84.0L416.5 92L414.7 92L414.1 90.1L411.2 90.1L410.6 92ZM411.6 88.9L413.6 88.9L413.4 88.1Q413.2 87.4 412.9 86.5L412.9 86.5Q412.8 85.9 412.6 85.3L412.6 85.3Q412.4 85.9 412.3 86.5L412.3 86.5Q412.1 87.4 411.9 88.1L411.9 88.1L411.6 88.9ZM420.6 92L419.0 92L419.0 84.0L422.1 84.0Q423.0 84.0 423.7 84.3Q424.3 84.6 424.6 85.2Q425.0 85.8 425.0 86.6Q425.0 87.4 424.6 88.0Q424.3 88.5 423.6 88.8L423.6 88.8Q423.6 88.9 423.5 88.9L423.5 88.9L425.3 92L423.4 92L421.9 89.1L420.6 89.1L420.6 92ZM420.6 85.4L420.6 87.8L421.8 87.8Q422.3 87.8 422.6 87.7Q423.0 87.5 423.1 87.3Q423.3 87.0 423.3 86.6L423.3 86.6Q423.3 86.2 423.1 85.9Q423.0 85.6 422.6 85.5Q422.3 85.4 421.8 85.4L421.8 85.4L420.6 85.4ZM430.6 92.1L430.6 92.1Q429.7 92.1 429.0 91.8Q428.3 91.5 427.9 90.9Q427.5 90.4 427.4 89.5L427.4 89.5L429.0 89.5Q429.1 89.9 429.3 90.2Q429.5 90.5 429.8 90.6Q430.2 90.7 430.6 90.7L430.6 90.7Q431.1 90.7 431.4 90.6Q431.7 90.5 431.9 90.2Q432.1 90.0 432.1 89.7L432.1 89.7Q432.1 89.4 431.9 89.3Q431.8 89.1 431.4 88.9Q431.1 88.8 430.7 88.7L430.7 88.7L429.8 88.5Q428.8 88.2 428.2 87.7Q427.7 87.2 427.7 86.3L427.7 86.3Q427.7 85.6 428.0 85.0Q428.4 84.5 429.1 84.2Q429.8 83.9 430.7 83.9L430.7 83.9Q431.5 83.9 432.2 84.2Q432.9 84.5 433.2 85.0Q433.6 85.6 433.6 86.3L433.6 86.3L432.0 86.3Q432.0 85.8 431.6 85.5Q431.3 85.3 430.6 85.3L430.6 85.3Q430.2 85.3 429.9 85.4Q429.6 85.5 429.5 85.7Q429.3 85.9 429.3 86.2L429.3 86.2Q429.3 86.5 429.5 86.7Q429.7 86.9 430.0 87.0Q430.3 87.1 430.6 87.2L430.6 87.2L431.3 87.4Q431.8 87.5 432.3 87.7Q432.7 87.9 433.0 88.2Q433.4 88.4 433.5 88.8Q433.7 89.2 433.7 89.7L433.7 89.7Q433.7 90.4 433.4 91.0Q433.0 91.5 432.3 91.8Q431.6 92.1 430.6 92.1Z "/></g><mask id="satori_om-id-3"><rect x="554" y="30" width="305" height="80" fill="#fff" mask="url(#satori_om-id)"/></mask><mask id="satori_om-id-3-0"><rect x="668" y="46" width="78" height="30" fill="#fff" mask="url(#satori_om-id)"/></mask><g mask="url(#satori_om-id)" clip-path="url(#satori_cp-id)"><path fill="#f59e0b" d="M685.3 72L669.8 72L669.8 68.8L677.6 61.5Q678.5 60.6 679.2 59.8Q679.9 59.0 680.3 58.2Q680.6 57.5 680.6 56.6L680.6 56.6Q680.6 55.6 680.2 54.9Q679.7 54.2 679.0 53.8Q678.2 53.5 677.2 53.5L677.2 53.5Q676.2 53.5 675.5 53.9Q674.7 54.3 674.3 55.0Q673.9 55.8 673.9 56.9L673.9 56.9L669.6 56.9Q669.6 54.7 670.6 53.2Q671.6 51.6 673.3 50.7Q675.0 49.9 677.3 49.9L677.3 49.9Q679.6 49.9 681.3 50.7Q683.0 51.5 684.0 53.0Q685.0 54.4 685.0 56.3L685.0 56.3Q685.0 57.5 684.5 58.7Q684.0 59.9 682.8 61.4Q681.6 62.9 679.3 64.9L679.3 64.9L676.0 68.2L676.0 68.3L685.3 68.3L685.3 72ZM696.5 72.3L696.5 72.3Q694.2 72.3 692.3 71.5Q690.5 70.7 689.4 69.2Q688.4 67.8 688.3 65.9L688.3 65.9L692.8 65.9Q692.9 66.7 693.4 67.3Q693.9 67.9 694.7 68.3Q695.5 68.6 696.6 68.6L696.6 68.6Q697.6 68.6 698.5 68.2Q699.3 67.8 699.8 67.2Q700.2 66.5 700.2 65.6L700.2 65.6Q700.2 64.7 699.7 64.0Q699.2 63.3 698.3 62.9Q697.4 62.5 696.2 62.5L696.2 62.5L694.1 62.5L694.1 59.2L696.2 59.2Q697.2 59.2 698.0 58.8Q698.8 58.5 699.3 57.8Q699.8 57.2 699.8 56.3L699.8 56.3Q699.8 55.4 699.4 54.8Q699.0 54.2 698.3 53.8Q697.5 53.5 696.6 53.5L696.6 53.5Q695.6 53.5 694.9 53.8Q694.1 54.1 693.6 54.8Q693.1 55.4 693.1 56.2L693.1 56.2L688.8 56.2Q688.8 54.4 689.8 52.9Q690.9 51.5 692.6 50.7Q694.4 49.9 696.6 49.9L696.6 49.9Q698.9 49.9 700.5 50.7Q702.2 51.5 703.2 52.9Q704.1 54.3 704.1 56.0L704.1 56.0Q704.1 57.8 703.0 59.1Q701.8 60.3 700.0 60.6L700.0 60.6L700.0 60.8Q701.6 61.0 702.7 61.7Q703.8 62.4 704.3 63.5Q704.9 64.5 704.9 65.9L704.9 65.9Q704.9 67.7 703.8 69.2Q702.7 70.6 700.9 71.5Q699.0 72.3 696.5 72.3ZM716.3 72.3L716.3 72.3Q714.6 72.3 713.1 71.7Q711.5 71.2 710.3 69.9Q709.1 68.7 708.4 66.7Q707.6 64.6 707.6 61.6L707.6 61.6Q707.6 58.8 708.3 56.7Q708.9 54.5 710.0 53.0Q711.2 51.5 712.8 50.7Q714.4 49.9 716.4 49.9L716.4 49.9Q718.6 49.9 720.3 50.7Q721.9 51.6 722.9 53.0Q723.9 54.4 724.1 56.2L724.1 56.2L719.8 56.2Q719.5 55.1 718.6 54.4Q717.7 53.7 716.4 53.7L716.4 53.7Q715.0 53.7 714.0 54.6Q713.0 55.4 712.5 57.0Q712.0 58.6 712.0 60.7L712.0 60.7L712.2 60.7Q712.7 59.8 713.5 59.1Q714.3 58.4 715.4 58.0Q716.5 57.7 717.7 57.7L717.7 57.7Q719.6 57.7 721.1 58.6Q722.6 59.5 723.5 61.1Q724.4 62.7 724.4 64.7L724.4 64.7Q724.4 66.9 723.4 68.6Q722.3 70.3 720.5 71.3Q718.7 72.3 716.3 72.3ZM716.3 68.7L716.3 68.7Q717.3 68.7 718.2 68.2Q719.0 67.7 719.5 66.8Q720.0 65.9 720.0 64.8L720.0 64.8Q720.0 63.7 719.5 62.8Q719.1 62.0 718.2 61.4Q717.4 60.9 716.3 60.9L716.3 60.9Q715.5 60.9 714.8 61.2Q714.1 61.5 713.6 62.1Q713.1 62.6 712.8 63.3Q712.5 64.0 712.5 64.8L712.5 64.8Q712.5 65.9 713.0 66.8Q713.5 67.7 714.3 68.2Q715.2 68.7 716.3 68.7ZM735.4 72.3L735.4 72.3Q733.0 72.3 731.2 71.5Q729.3 70.7 728.3 69.2Q727.2 67.8 727.2 65.9L727.2 65.9L731.7 65.9Q731.7 66.7 732.2 67.3Q732.7 67.9 733.6 68.3Q734.4 68.6 735.4 68.6L735.4 68.6Q736.5 68.6 737.3 68.2Q738.1 67.8 738.6 67.2Q739.1 66.5 739.1 65.6L739.1 65.6Q739.1 64.7 738.6 64.0Q738.1 63.3 737.2 62.9Q736.3 62.5 735.0 62.5L735.0 62.5L733.0 62.5L733.0 59.2L735.0 59.2Q736.1 59.2 736.9 58.8Q737.7 58.5 738.1 57.8Q738.6 57.2 738.6 56.3L738.6 56.3Q738.6 55.4 738.2 54.8Q737.8 54.2 737.1 53.8Q736.4 53.5 735.4 53.5L735.4 53.5Q734.5 53.5 733.7 53.8Q732.9 54.1 732.4 54.8Q731.9 55.4 731.9 56.2L731.9 56.2L727.6 56.2Q727.6 54.4 728.7 52.9Q729.7 51.5 731.5 50.7Q733.3 49.9 735.5 49.9L735.5 49.9Q737.7 49.9 739.4 50.7Q741.1 51.5 742.0 52.9Q742.9 54.3 742.9 56.0L742.9 56.0Q742.9 57.8 741.8 59.1Q740.7 60.3 738.9 60.6L738.9 60.6L738.9 60.8Q740.4 61.0 741.5 61.7Q742.6 62.4 743.2 63.5Q743.7 64.5 743.7 65.9L743.7 65.9Q743.7 67.7 742.7 69.2Q741.6 70.6 739.7 71.5Q737.8 72.3 735.4 72.3Z "/></g><mask id="satori_om-id-3-1"><rect x="674" y="81" width="66" height="13" fill="#fff" mask="url(#satori_om-id)"/></mask><g mask="url(#satori_om-id)" clip-path="url(#satori_cp-id)"><path fill="rgba(200,195,225,0.45)" d="M678.2 92.1L678.2 92.1Q677.2 92.1 676.3 91.6Q675.5 91.1 675.0 90.2Q674.5 89.3 674.5 88.0L674.5 88.0Q674.5 86.7 675.0 85.8Q675.5 84.9 676.3 84.4Q677.2 83.9 678.2 83.9L678.2 83.9Q678.9 83.9 679.5 84.1Q680.1 84.3 680.5 84.6Q681.0 85.0 681.3 85.5Q681.6 86.1 681.7 86.7L681.7 86.7L680.0 86.7Q680.0 86.4 679.8 86.1Q679.6 85.9 679.4 85.7Q679.2 85.5 678.9 85.4Q678.6 85.3 678.3 85.3L678.3 85.3Q677.6 85.3 677.2 85.7Q676.7 86.0 676.4 86.6Q676.2 87.2 676.2 88.0L676.2 88.0Q676.2 88.9 676.4 89.5Q676.7 90.1 677.2 90.4Q677.6 90.7 678.2 90.7L678.2 90.7Q678.6 90.7 678.9 90.6Q679.2 90.5 679.4 90.3Q679.6 90.1 679.8 89.8Q680.0 89.6 680.0 89.3L680.0 89.3L681.7 89.3Q681.6 89.8 681.3 90.3Q681.1 90.8 680.6 91.2Q680.2 91.6 679.6 91.9Q679.0 92.1 678.2 92.1ZM687.9 92.1L687.9 92.1Q686.8 92.1 686.0 91.6Q685.1 91.1 684.6 90.2Q684.1 89.3 684.1 88.0L684.1 88.0Q684.1 86.7 684.6 85.8Q685.1 84.9 686.0 84.4Q686.8 83.9 687.9 83.9L687.9 83.9Q688.9 83.9 689.8 84.4Q690.6 84.9 691.1 85.8Q691.6 86.7 691.6 88.0L691.6 88.0Q691.6 89.3 691.1 90.2Q690.6 91.1 689.8 91.6Q688.9 92.1 687.9 92.1ZM687.9 90.7L687.9 90.7Q688.5 90.7 689.0 90.3Q689.4 90.0 689.7 89.5Q689.9 88.9 689.9 88.0L689.9 88.0Q689.9 87.1 689.7 86.5Q689.4 86.0 689.0 85.6Q688.5 85.3 687.9 85.3L687.9 85.3Q687.3 85.3 686.8 85.7Q686.3 86.0 686.1 86.6Q685.8 87.1 685.8 88.0L685.8 88.0Q685.8 88.9 686.1 89.4Q686.3 90.0 686.8 90.3Q687.3 90.7 687.9 90.7ZM696.0 92L694.3 92L694.3 84.0L696.9 84.0L698.2 87.7Q698.2 87.9 698.3 88.3Q698.4 88.7 698.5 89.2L698.5 89.2Q698.7 89.7 698.7 90.1L698.7 90.1Q698.8 89.7 698.9 89.2L698.9 89.2Q699.0 88.8 699.2 88.3Q699.3 87.9 699.3 87.7L699.3 87.7L700.6 84.0L703.1 84.0L703.1 92L701.5 92L701.5 88.2Q701.5 88.0 701.5 87.6Q701.5 87.2 701.5 86.7Q701.5 86.3 701.5 85.8L701.5 85.8Q701.6 85.6 701.6 85.4L701.6 85.4Q701.5 85.6 701.4 85.9L701.4 85.9Q701.3 86.3 701.2 86.8Q701.1 87.2 700.9 87.6Q700.8 88.0 700.8 88.2L700.8 88.2L699.4 92L698.0 92L696.7 88.2Q696.6 88.0 696.5 87.6Q696.4 87.2 696.3 86.8Q696.1 86.4 696.0 85.9L696.0 85.9Q696.0 85.7 695.9 85.5L695.9 85.5Q695.9 85.6 695.9 85.8L695.9 85.8Q695.9 86.2 695.9 86.7Q695.9 87.2 696.0 87.6Q696.0 88.0 696.0 88.2L696.0 88.2L696.0 92ZM707.7 92L706.1 92L706.1 84.0L708.6 84.0L709.9 87.7Q710.0 87.9 710.1 88.3Q710.2 88.7 710.3 89.2L710.3 89.2Q710.4 89.7 710.5 90.1L710.5 90.1Q710.6 89.7 710.7 89.2L710.7 89.2Q710.8 88.8 710.9 88.3Q711.0 87.9 711.1 87.7L711.1 87.7L712.4 84.0L714.9 84.0L714.9 92L713.2 92L713.2 88.2Q713.2 88.0 713.2 87.6Q713.3 87.2 713.3 86.7Q713.3 86.3 713.3 85.8L713.3 85.8Q713.3 85.6 713.3 85.4L713.3 85.4Q713.2 85.6 713.2 85.9L713.2 85.9Q713.1 86.3 712.9 86.8Q712.8 87.2 712.7 87.6Q712.6 88.0 712.5 88.2L712.5 88.2L711.2 92L709.8 92L708.4 88.2Q708.4 88.0 708.3 87.6Q708.1 87.2 708.0 86.8Q707.9 86.4 707.8 85.9L707.8 85.9Q707.7 85.7 707.7 85.5L707.7 85.5Q707.7 85.6 707.7 85.8L707.7 85.8Q707.7 86.2 707.7 86.7Q707.7 87.2 707.7 87.6Q707.7 88.0 707.7 88.2L707.7 88.2L707.7 92ZM717.8 84.0L719.5 84.0L719.5 92L717.8 92L717.8 84.0ZM724.5 85.4L722.1 85.4L722.1 84.0L728.6 84.0L728.6 85.4L726.2 85.4L726.2 92L724.5 92L724.5 85.4ZM734.2 92.1L734.2 92.1Q733.2 92.1 732.5 91.8Q731.8 91.5 731.4 90.9Q731.0 90.4 731.0 89.5L731.0 89.5L732.6 89.5Q732.6 89.9 732.8 90.2Q733.0 90.5 733.4 90.6Q733.7 90.7 734.2 90.7L734.2 90.7Q734.6 90.7 734.9 90.6Q735.3 90.5 735.5 90.2Q735.6 90.0 735.6 89.7L735.6 89.7Q735.6 89.4 735.5 89.3Q735.3 89.1 735.0 88.9Q734.7 88.8 734.3 88.7L734.3 88.7L733.4 88.5Q732.4 88.2 731.8 87.7Q731.2 87.2 731.2 86.3L731.2 86.3Q731.2 85.6 731.6 85.0Q732.0 84.5 732.7 84.2Q733.3 83.9 734.2 83.9L734.2 83.9Q735.1 83.9 735.8 84.2Q736.4 84.5 736.8 85.0Q737.2 85.6 737.2 86.3L737.2 86.3L735.6 86.3Q735.6 85.8 735.2 85.5Q734.8 85.3 734.2 85.3L734.2 85.3Q733.8 85.3 733.5 85.4Q733.2 85.5 733.0 85.7Q732.9 85.9 732.9 86.2L732.9 86.2Q732.9 86.5 733.1 86.7Q733.2 86.9 733.5 87.0Q733.8 87.1 734.2 87.2L734.2 87.2L734.9 87.4Q735.4 87.5 735.8 87.7Q736.3 87.9 736.6 88.2Q736.9 88.4 737.1 88.8Q737.3 89.2 737.3 89.7L737.3 89.7Q737.3 90.4 736.9 91.0Q736.6 91.5 735.9 91.8Q735.2 92.1 734.2 92.1Z "/></g></svg>