<!-- Generated by readme-aura https://github.com/collectioneur/readme-aura -->
<svg width="860" height="140" viewBox="0 0 860 140" xmlns="http://www.w3.org/2000/svg"><defs><clipPath id="satori_bc-id"><path x="0" y="0" width="860" height="140" d="M16,0 h828 a16,16 0 0 1 16,16 v108 a16,16 0 0 1 -16,16 h-828 a16,16 0 0 1 -16,-16 v-108 a16,16 0 0 1 16,-16"/></clipPath></defs><clipPath id="satori_cp-id"><path x="0" y="0" width="860" height="140" d="M16,0 h828 a16,16 0 0 1 16,16 v108 a16,16 0 0 1 -16,16 h-828 a16,16 0 0 1 -16,-16 v-108 a16,16 0 0 1 16,-16"/></clipPath><mask id="satori_om-id"><rect x="1" y="1" width="858" height="138" fill="#fff"/><path width="860" height="140" fill="none" stroke="#000" stroke-width="2" d="M4.686,4.686 A16,16 0 0 1 16,0 h828 a16,16 0 0 1 16,16 v108 a16,16 0 0 1 -16,16 h-828 a16,16 0 0 1 -16,-16 v-108 A16,16 0 0 1 4.686,4.686"/></mask><path x="0" y="0" width="860" height="140" fill="#08080c" d="M16,0 h828 a16,16 0 0 1 16,16 v108 a16,16 0 0 1 -16,16 h-828 a16,16 0 0 1 -16,-16 v-108 a16,16 0 0 1 16,-16"/><path width="860" height="140" clip-path="url(#satori_bc-id)" fill="none" stroke="rgba(110,80,220,0.18)" stroke-width="2" d="M4.686,4.686 A16,16 0 0 1 16,0 h828 a16,16 0 0 1 16,16 v108 a16,16 0 0 1 -16,16 h-828 a16,16 0 0 1 -16,-16 v-108 A16,16 0 0 1 4.686,4.686"/><clipPath id="satori_cp-id-0" clip-path="url(#satori_cp-id)"><rect x="1" y="1" width="860" height="140"/></clipPath><mask id="satori_om-id-0"><rect x="1" y="1" width="860" height="140" fill="#fff" mask="url(#satori_om-id)"/></mask><svg x="1" y="1" width="860" height="140" preserveAspectRatio="none" clip-path="url(#satori_cp-id-0)" mask="url(#satori_om-id-0)"><defs><radialGradient id="g1" cx="50%" cy="50%" r="50%"><stop offset="0%" stop-color="rgba(110,20,210,0.65)"></stop><stop offset="45%" stop-color="rgba(80,15,170,0.28)"></stop><stop offset="70%" stop-color="rgba(80,15,170,0)"></stop></radialGradient><radialGradient id="g2" cx="50%" cy="50%" r="50%"><stop offset="0%" stop-color="rgba(40,70,255,0.55)"></stop><stop offset="45%" stop-color="rgba(20,50,200,0.22)"></stop><stop offset="70%" stop-color="rgba(20,50,200,0)"></stop></radialGradient><radialGradient id="g3" cx="50%" cy="50%" r="50%"><stop offset="0%" stop-color="rgba(0,140,255,0.42)"></stop><stop offset="70%" stop-color="rgba(0,140,255,0)"></stop></radialGradient><radialGradient id="g4" cx="50%" cy="50%" r="50%"><stop offset="0%" stop-color="rgba(0,195,235,0.30)"></stop><stop offset="70%" stop-color="rgba(0,195,235,0)"></stop></radialGradient><radialGradient id="g5" cx="50%" cy="50%" r="50%"><stop offset="0%" stop-color="rgba(100,30,210,0.40)"></stop><stop offset="70%" stop-color="rgba(100,30,210,0)"></stop></radialGradient></defs><ellipse id="glow-1" cx="710" cy="150" rx="210" ry="150" fill="url(#g1)"></ellipse><ellipse id="glow-2" cx="550" cy="140" rx="190" ry="140" fill="url(#g2)"></ellipse><ellipse id="glow-3" cx="400" cy="130" rx="170" ry="130" fill="url(#g3)"></ellipse><ellipse id="glow-4" cx="250" cy="140" rx="150" ry="120" fill="url(#g4)"></ellipse><ellipse id="glow-5" cx="100" cy="150" rx="130" ry="110" fill="url(#g5)"></ellipse><style>

         @keyframes float-slow {
           0%, 100% { transform: translateX(0px); opacity: 0.8; }
           50% { transform: translateX(350px); opacity: 1.2; }
         }
         @keyframes float-medium {
           0%, 100% { transform: translateX(0px); opacity: 0.7; }
           50% { transform: translateX(-250px); opacity: 1.1; }
         }
         @keyframes float-fast {
           0%, 100% { transform: translateX(0px); opacity: 0.9; }
           50% { transform: translateX(200px); opacity: 0.6; }
         }
         @keyframes float-diagonal {
           0%, 100% { transform: translate(0px, 0px); opacity: 0.75; }
           50% { transform: translate(120px, 30px); opacity: 1.0; }
         }
         @keyframes float-wave {
           0%, 100% { transform: translateX(0px); opacity: 0.65; }
           33% { transform: translateX(-160px); opacity: 0.9; }
           66% { transform: translateX(80px); opacity: 1.0; }
         }
         @keyframes float-pulse {
           0%, 100% { transform: scale(1); opacity: 0.8; }
           50% { transform: scale(1.3); opacity: 0.4; }
         }
         #glow-1 { animation: float-slow 8s ease-in-out infinite; }
         #glow-2 { animation: float-medium 12s ease-in-out infinite; }
         #glow-3 { animation: float-fast 9s ease-in-out infinite; }
         #glow-4 { animation: float-diagonal 10s ease-in-out infinite; }
         #glow-5 { animation: float-wave 14s ease-in-out infinite; }
       
</style>
</svg><mask id="satori_om-id-0-0"><rect x="1" y="1" width="0" height="140" fill="#fff" mask="url(#satori_om-id)"/></mask><mask id="satori_om-id-0-0-0"><rect x="1" y="1" width="0" height="140" fill="#fff" mask="url(#satori_om-id)"/></mask><mask id="satori_om-id-0-0-0-0"><rect x="1" y="1" width="0" height="140" fill="#fff" mask="url(#satori_om-id)"/></mask><mask id="satori_om-id-0-0-0-1"><rect x="1" y="1" width="0" height="140" fill="#fff" mask="url(#satori_om-id)"/></mask><mask id="satori_om-id-0-0-0-2"><rect x="1" y="1" width="0" height="140" fill="#fff" mask="url(#satori_om-id)"/></mask><mask id="satori_om-id-0-0-1"><rect x="1" y="1" width="0" height="140" fill="#fff" mask="url(#satori_om-id)"/></mask><mask id="satori_om-id-0-0-1-0"><rect x="1" y="1" width="0" height="140" fill="#fff" mask="url(#satori_om-id)"/></mask><mask id="satori_om-id-0-0-1-1"><rect x="1" y="1" width="0" height="140" fill="#fff" mask="url(#satori_om-id)"/></mask><mask id="satori_om-id-0-0-1-2"><rect x="1" y="1" width="0" height="140" fill="#fff" mask="url(#satori_om-id)"/></mask><mask id="satori_om-id-0-0-2"><rect x="1" y="1" width="0" height="140" fill="#fff" mask="url(#satori_om-id)"/></mask><mask id="satori_om-id-0-0-2-0"><rect x="1" y="1" width="0" height="140" fill="#fff" mask="url(#satori_om-id)"/></mask><mask id="satori_om-id-0-0-2-1"><rect x="1" y="1" width="0" height="140" fill="#fff" mask="url(#satori_om-id)"/></mask><mask id="satori_om-id-0-0-3"><rect x="1" y="1" width="0" height="140" fill="#fff" mask="url(#satori_om-id)"/></mask><mask id="satori_om-id-0-0-3-0"><rect x="1" y="1" width="0" height="140" fill="#fff" mask="url(#satori_om-id)"/></mask><mask id="satori_om-id-0-0-3-1"><rect x="1" y="1" width="0" height="140" fill="#fff" mask="url(#satori_om-id)"/></mask><mask id="satori_om-id-0-0-4"><rect x="1" y="1" width="0" height="140" fill="#fff" mask="url(#satori_om-id)"/></mask><mask id="satori_om-id-0-0-4-0"><rect x="1" y="1" width="0" height="140" fill="#fff" mask="url(#satori_om-id)"/></mask><mask id="satori_om-id-0-0-4-1"><rect x="1" y="1" width="0" height="140" fill="#fff" mask="url(#satori_om-id)"/></mask><mask id="satori_om-id-0-1"><rect x="1" y="1" width="0" height="140" fill="#fff" mask="url(#satori_om-id)"/></mask><mask id="satori_om-id-0-2"><rect x="1" y="1" width="0" height="140" fill="#fff" mask="url(#satori_om-id)"/></mask><mask id="satori_om-id-0-3"><rect x="1" y="1" width="0" height="140" fill="#fff" mask="url(#satori_om-id)"/></mask><mask id="satori_om-id-0-4"><rect x="1" y="1" width="0" height="140" fill="#fff" mask="url(#satori_om-id)"/></mask><mask id="satori_om-id-0-5"><rect x="1" y="1" width="0" height="140" fill="#fff" mask="url(#satori_om-id)"/></mask><defs><clipPath id="satori_bc-id-1" clip-path="url(#satori_cp-id)"><rect x="1" y="30" width="275" height="80"/></clipPath></defs><mask id="satori_om-id-1"><rect x="1" y="30" width="274" height="80" fill="#fff" mask="url(#satori_om-id)"/><path width="275" height="80" fill="none" stroke="#000" stroke-width="2" d="M276,30 A0,0 0 0 1 276,30 v80 A0,0 0 0 1 276,110"/></mask><path width="275" height="80" clip-path="url(#satori_bc-id-1)" fill="none" stroke="rgba(255,255,255,0.06)" stroke-width="2" d="M276,30 A0,0 0 0 1 276,30 v80 A0,0 0 0 1 276,110"/><mask id="satori_om-id-1-0"><rect x="122" y="46" width="32" height="30" fill="#fff" mask="url(#satori_om-id)"/></mask><g mask="url(#satori_om-id)" clip-path="url(#satori_cp-id)"><path fill="#a78bfa" d="M128.2 50.2L133.0 50.2L133.0 72L128.5 72L128.5 54.1L128.4 54.1L123.4 57.7L123.4 53.6L128.2 50.2ZM152.2 72L136.8 72L136.8 68.8L144.5 61.5Q145.5 60.6 146.2 59.8Q146.8 59.0 147.2 58.2Q147.6 57.5 147.6 56.6L147.6 56.6Q147.6 55.6 147.1 54.9Q146.7 54.2 145.9 53.8Q145.2 53.5 144.2 53.5L144.2 53.5Q143.2 53.5 142.4 53.9Q141.6 54.3 141.2 55.0Q140.8 55.8 140.8 56.9L140.8 56.9L136.5 56.9Q136.5 54.7 137.5 53.2Q138.5 51.6 140.2 50.7Q142.0 49.9 144.2 49.9L144.2 49.9Q146.5 49.9 148.3 50.7Q150.0 51.5 150.9 53.0Q151.9 54.4 151.9 56.3L151.9 56.3Q151.9 57.5 151.4 58.7Q150.9 59.9 149.7 61.4Q148.5 62.9 146.3 64.9L146.3 64.9L143.0 68.2L143.0 68.3L152.2 68.3L152.2 72Z "/></g><mask id="satori_om-id-1-1"><rect x="116" y="81" width="45" height="13" fill="#fff" mask="url(#satori_om-id)"/></mask><g mask="url(#satori_om-id)" clip-path="url(#satori_cp-id)"><path fill="rgba(200,195,225,0.45)" d="M118.4 92L116.7 92L116.7 84.0L119.8 84.0Q120.8 84.0 121.4 84.3Q122.0 84.6 122.4 85.2Q122.7 85.8 122.7 86.6Q122.7 87.4 122.4 88.0Q122.0 88.5 121.4 88.8L121.4 88.8Q121.3 88.9 121.3 88.9L121.3 88.9L123.0 92L121.2 92L119.6 89.1L118.4 89.1L118.4 92ZM118.4 85.4L118.4 87.8L119.5 87.8Q120.0 87.8 120.4 87.7Q120.7 87.5 120.9 87.3Q121.0 87.0 121.0 86.6L121.0 86.6Q121.0 86.2 120.9 85.9Q120.7 85.6 120.4 85.5Q120.0 85.4 119.5 85.4L119.5 85.4L118.4 85.4ZM130.8 92L125.4 92L125.4 84.0L130.8 84.0L130.8 85.4L127.1 85.4L127.1 87.3L130.5 87.3L130.5 88.6L127.1 88.6L127.1 90.6L130.8 90.6L130.8 92ZM135.3 92L133.6 92L133.6 84.0L136.8 84.0Q137.7 84.0 138.3 84.3Q138.9 84.7 139.3 85.3Q139.6 85.9 139.6 86.7L139.6 86.7Q139.6 87.5 139.3 88.1Q138.9 88.7 138.3 89.0Q137.6 89.4 136.7 89.4L136.7 89.4L135.3 89.4L135.3 92ZM135.3 85.4L135.3 88.1L136.5 88.1Q137.0 88.1 137.3 87.9Q137.6 87.7 137.8 87.4Q137.9 87.1 137.9 86.7Q137.9 86.3 137.8 86.0Q137.6 85.7 137.3 85.5Q137.0 85.4 136.4 85.4L136.4 85.4L135.3 85.4ZM145.8 92.1L145.8 92.1Q144.7 92.1 143.9 91.6Q143.0 91.1 142.5 90.2Q142.0 89.3 142.0 88.0L142.0 88.0Q142.0 86.7 142.5 85.8Q143.0 84.9 143.9 84.4Q144.7 83.9 145.8 83.9L145.8 83.9Q146.8 83.9 147.7 84.4Q148.5 84.9 149.0 85.8Q149.5 86.7 149.5 88.0L149.5 88.0Q149.5 89.3 149.0 90.2Q148.5 91.1 147.7 91.6Q146.8 92.1 145.8 92.1ZM145.8 90.7L145.8 90.7Q146.4 90.7 146.9 90.3Q147.3 90.0 147.6 89.5Q147.8 88.9 147.8 88.0L147.8 88.0Q147.8 87.1 147.6 86.5Q147.3 86.0 146.9 85.6Q146.4 85.3 145.8 85.3L145.8 85.3Q145.2 85.3 144.7 85.7Q144.2 86.0 144.0 86.6Q143.7 87.1 143.7 88.0L143.7 88.0Q143.7 88.9 144.0 89.4Q144.2 90.0 144.7 90.3Q145.2 90.7 145.8 90.7ZM155.2 92.1L155.2 92.1Q154.2 92.1 153.5 91.8Q152.8 91.5 152.4 90.9Q152.0 90.4 152.0 89.5L152.0 89.5L153.6 89.5Q153.6 89.9 153.8 90.2Q154.0 90.5 154.4 90.6Q154.7 90.7 155.2 90.7L155.2 90.7Q155.6 90.7 155.9 90.6Q156.2 90.5 156.4 90.2Q156.6 90.0 156.6 89.7L156.6 89.7Q156.6 89.4 156.4 89.3Q156.3 89.1 156.0 88.9Q155.7 88.8 155.2 88.7L155.2 88.7L154.3 88.5Q153.3 88.2 152.8 87.7Q152.2 87.2 152.2 86.3L152.2 86.3Q152.2 85.6 152.6 85.0Q153.0 84.5 153.6 84.2Q154.3 83.9 155.2 83.9L155.2 83.9Q156.1 83.9 156.7 84.2Q157.4 84.5 157.8 85.0Q158.1 85.6 158.1 86.3L158.1 86.3L156.6 86.3Q156.5 85.8 156.2 85.5Q155.8 85.3 155.2 85.3L155.2 85.3Q154.8 85.3 154.5 85.4Q154.2 85.5 154.0 85.7Q153.9 85.9 153.9 86.2L153.9 86.2Q153.9 86.5 154.0 86.7Q154.2 86.9 154.5 87.0Q154.8 87.1 155.1 87.2L155.1 87.2L155.9 87.4Q156.4 87.5 156.8 87.7Q157.2 87.9 157.6 88.2Q157.9 88.4 158.1 88.8Q158.3 89.2 158.3 89.7L158.3 89.7Q158.3 90.4 157.9 91.0Q157.5 91.5 156.8 91.8Q156.1 92.1 155.2 92.1Z "/></g><defs><clipPath id="satori_bc-id-2" clip-path="url(#satori_cp-id)"><rect x="276" y="30" width="275" height="80"/></clipPath></defs><mask id="satori_om-id-2"><rect x="276" y="30" width="274" height="80" fill="#fff" mask="url(#satori_om-id)"/><path width="275" height="80" fill="none" stroke="#000" stroke-width="2" d="M551,30 A0,0 0 0 1 551,30 v80 A0,0 0 0 1 551,110"/></mask><path width="275" height="80" clip-path="url(#satori_bc-id-2)" fill="none" stroke="rgba(255,255,255,0.06)" stroke-width="2" d="M551,30 A0,0 0 0 1 551,30 v80 A0,0 0 0 1 551,110"/><mask id="satori_om-id-2-0"><rect x="394" y="46" width="38" height="30" fill="#fff" mask="url(#satori_om-id)"/></mask><g mask="url(#satori_om-id)" clip-path="url(#satori_cp-id)"><path fill="#60a5fa" d="M403.2 72.3L403.2 72.3Q401.0 72.3 399.2 71.5Q397.5 70.6 396.4 69.2Q395.4 67.7 395.4 65.9L395.4 65.9L399.7 65.9Q399.8 66.7 400.2 67.4Q400.7 68.0 401.5 68.4Q402.3 68.7 403.2 68.7L403.2 68.7Q404.3 68.7 405.1 68.3Q406.0 67.8 406.5 66.9Q406.9 66.0 406.9 64.9L406.9 64.9Q406.9 63.7 406.5 62.8Q406.0 61.9 405.1 61.4Q404.3 60.9 403.1 60.9L403.1 60.9Q402.1 60.9 401.2 61.3Q400.3 61.7 399.8 62.3L399.8 62.3L395.8 61.6L396.9 50.2L410.1 50.2L410.1 53.9L400.6 53.9L400.0 59.4L400.1 59.4Q400.7 58.6 401.9 58.1Q403.0 57.6 404.4 57.6L404.4 57.6Q405.9 57.6 407.2 58.1Q408.4 58.6 409.3 59.6Q410.3 60.5 410.8 61.9Q411.3 63.2 411.3 64.7L411.3 64.7Q411.3 66.9 410.3 68.6Q409.2 70.3 407.4 71.3Q405.6 72.3 403.2 72.3ZM421.9 72.3L421.9 72.3Q419.6 72.3 417.9 71.5Q416.1 70.6 415.1 69.2Q414.1 67.7 414.0 65.9L414.0 65.9L418.4 65.9Q418.4 66.7 418.9 67.4Q419.4 68.0 420.2 68.4Q420.9 68.7 421.9 68.7L421.9 68.7Q423.0 68.7 423.8 68.3Q424.6 67.8 425.1 66.9Q425.6 66.0 425.6 64.9L425.6 64.9Q425.6 63.7 425.1 62.8Q424.6 61.9 423.8 61.4Q422.9 60.9 421.8 60.9L421.8 60.9Q420.8 60.9 419.9 61.3Q419.0 61.7 418.5 62.3L418.5 62.3L414.5 61.6L415.5 50.2L428.7 50.2L428.7 53.9L419.2 53.9L418.7 59.4L418.8 59.4Q419.4 58.6 420.5 58.1Q421.7 57.6 423.1 57.6L423.1 57.6Q424.6 57.6 425.8 58.1Q427.1 58.6 428.0 59.6Q428.9 60.5 429.4 61.9Q429.9 63.2 429.9 64.7L429.9 64.7Q429.9 66.9 428.9 68.6Q427.9 70.3 426.1 71.3Q424.3 72.3 421.9 72.3Z "/></g><mask id="satori_om-id-2-1"><rect x="391" y="81" width="45" height="13" fill="#fff" mask="url(#satori_om-id)"/></mask><g mask="url(#satori_om-id)" clip-path="url(#satori_cp-id)"><path fill="rgba(200,195,225,0.45)" d="M394.7 92.1L394.7 92.1Q393.7 92.1 393.0 91.8Q392.3 91.5 391.9 90.9Q391.5 90.4 391.5 89.5L391.5 89.5L393.1 89.5Q393.1 89.9 393.3 90.2Q393.5 90.5 393.9 90.6Q394.2 90.7 394.6 90.7L394.6 90.7Q395.1 90.7 395.4 90.6Q395.7 90.5 395.9 90.2Q396.1 90.0 396.1 89.7L396.1 89.7Q396.1 89.4 395.9 89.3Q395.8 89.1 395.5 88.9Q395.2 88.8 394.7 88.7L394.7 88.7L393.8 88.5Q392.8 88.2 392.2 87.7Q391.7 87.2 391.7 86.3L391.7 86.3Q391.7 85.6 392.1 85.0Q392.5 84.5 393.1 84.2Q393.8 83.9 394.7 83.9L394.7 83.9Q395.6 83.9 396.2 84.2Q396.9 84.5 397.3 85.0Q397.6 85.6 397.6 86.3L397.6 86.3L396.1 86.3Q396.0 85.8 395.6 85.5Q395.3 85.3 394.7 85.3L394.7 85.3Q394.2 85.3 394.0 85.4Q393.7 85.5 393.5 85.7Q393.4 85.9 393.4 86.2L393.4 86.2Q393.4 86.5 393.5 86.7Q393.7 86.9 394.0 87.0Q394.3 87.1 394.6 87.2L394.6 87.2L395.4 87.4Q395.9 87.5 396.3 87.7Q396.7 87.9 397.1 88.2Q397.4 88.4 397.6 88.8Q397.7 89.2 397.7 89.7L397.7 89.7Q397.7 90.4 397.4 91.0Q397.0 91.5 396.3 91.8Q395.6 92.1 394.7 92.1ZM402.6 85.4L400.1 85.4L400.1 84.0L406.6 84.0L406.6 85.4L404.2 85.4L404.2 92L402.6 92L402.6 85.4ZM410.6 92L408.8 92L411.5 84.0L413.7 84.0L416.5 92L414.7 92L414.1 90.1L411.2 90.1L410.6 92ZM411.6 88.9L413.6 88.9L413.4 88.1Q413.2 87.4 412.9 86.5L412.9 86.5Q412.8 85.9 412.6 85.3L412.6 85.3Q412.4 85.9 412.3 86.5L412.3 86.5Q412.1 87.4 411.9 88.1L411.9 88.1L411.6 88.9ZM420.6 92L419.0 92L419.0 84.0L422.1 84.0Q423.0 84.0 423.7 84.3Q424.3 84.6 424.6 85.2Q425.0 85.8 425.0 86.6Q425.0 87.4 424.6 88.0Q424.3 88.5 423.6 88.8L423.6 88.8Q423.6 88.9 423.5 88.9L423.5 88.9L425.3 92L423.4 92L421.9 89.1L420.6 89.1L420.6 92ZM420.6 85.4L420.6 87.8L421.8 87.8Q422.3 87.8 422.6 87.7Q423.0 87.5 423.1 87.3Q423.3 87.0 423.3 86.6L423.3 86.6Q423.3 86.2 423.1 85.9Q423.0 85.6 422.6 85.5Q422.3 85.4 421.8 85.4L421.8 85.4L420.6 85.4ZM430.6 92.1L430.6 92.1Q429.7 92.1 429.0 91.8Q428.3 91.5 427.9 90.9Q427.5 90.4 427.4 89.5L427.4 89.5L429.0 89.5Q429.1 89.9 429.3 90.2Q429.5 90.5 429.8 90.6Q430.2 90.7 430.6 90.7L430.6 90.7Q431.1 90.7 431.4 90.6Q431.7 90.5 431.9 90.2Q432.1 90.0 432.1 89.7L432.1 89.7Q432.1 89.4 431.9 89.3Q431.8 89.1 431.4 88.9Q431.1 88.8 430.7 88.7L430.7 88.7L429.8 88.5Q428.8 88.2 428.2 87.7Q427.7 87.2 427.7 86.3L427.7 86.3Q427.7 85.6 428.0 85.0Q428.4 84.5 429.1 84.2Q429.8 83.9 430.7 83.9L430.7 83.9Q431.5 83.9 432.2 84.2Q432.9 84.5 433.2 85.0Q433.6 85.6 433.6 86.3L433.6 86.3L432.0 86.3Q432.0 85.8 431.6 85.5Q431.3 85.3 430.6 85.3L430.6 85.3Q430.2 85.3 429.9 85.4Q429.6 85.5 429.5 85.7Q429.3 85.9 429.3 86.2L429.3 86.2Q429.3 86.5 429.5 86.7Q429.7 86.9 430.0 87.0Q430.3 87.1 430.6 87.2L430.6 87.2L431.3 87.4Q431.8 87.5 432.3 87.7Q432.7 87.9 433.0 88.2Q433.4 88.4 433.5 88.8Q433.7 89.2 433.7 89.7L433.7 89.7Q433.7 90.4 433.4 91.0Q433.0 91.5 432.3 91.8Q431.6 92.1 430.6 92.1Z "/></g><mask id="satori_om-id-3"><rect x="551" y="30" width="308" height="80" fill="#fff" mask="url(#satori_om-id)"/></mask><mask id="satori_om-id-3-0"><rect x="666" y="46" width="79" height="30" fill="#fff" mask="url(#satori_om-id)"/></mask><g mask="url(#satori_om-id)" clip-path="url(#satori_cp-id)"><path fill="#f59e0b" d="M683.3 72L667.8 72L667.8 68.8L675.6 61.5Q676.5 60.6 677.2 59.8Q677.9 59.0 678.3 58.2Q678.6 57.5 678.6 56.6L678.6 56.6Q678.6 55.6 678.2 54.9Q677.7 54.2 677.0 53.8Q676.2 53.5 675.2 53.5L675.2 53.5Q674.2 53.5 673.5 53.9Q672.7 54.3 672.3 55.0Q671.9 55.8 671.9 56.9L671.9 56.9L667.6 56.9Q667.6 54.7 668.6 53.2Q669.6 51.6 671.3 50.7Q673.0 49.9 675.3 49.9L675.3 49.9Q677.6 49.9 679.3 50.7Q681.0 51.5 682.0 53.0Q683.0 54.4 683.0 56.3L683.0 56.3Q683.0 57.5 682.5 58.7Q682.0 59.9 680.8 61.4Q679.6 62.9 677.3 64.9L677.3 64.9L674.0 68.2L674.0 68.3L683.3 68.3L683.3 72ZM694.5 72.3L694.5 72.3Q692.2 72.3 690.3 71.5Q688.5 70.7 687.4 69.2Q686.4 67.8 686.3 65.9L686.3 65.9L690.8 65.9Q690.9 66.7 691.4 67.3Q691.9 67.9 692.7 68.3Q693.5 68.6 694.6 68.6L694.6 68.6Q695.6 68.6 696.5 68.2Q697.3 67.8 697.8 67.2Q698.2 66.5 698.2 65.6L698.2 65.6Q698.2 64.7 697.7 64.0Q697.2 63.3 696.3 62.9Q695.4 62.5 694.2 62.5L694.2 62.5L692.1 62.5L692.1 59.2L694.2 59.2Q695.2 59.2 696.0 58.8Q696.8 58.5 697.3 57.8Q697.8 57.2 697.8 56.3L697.8 56.3Q697.8 55.4 697.4 54.8Q697.0 54.2 696.3 53.8Q695.5 53.5 694.6 53.5L694.6 53.5Q693.6 53.5 692.9 53.8Q692.1 54.1 691.6 54.8Q691.1 55.4 691.1 56.2L691.1 56.2L686.8 56.2Q686.8 54.4 687.8 52.9Q688.9 51.5 690.6 50.7Q692.4 49.9 694.6 49.9L694.6 49.9Q696.9 49.9 698.5 50.7Q700.2 51.5 701.2 52.9Q702.1 54.3 702.1 56.0L702.1 56.0Q702.1 57.8 701.0 59.1Q699.8 60.3 698.0 60.6L698.0 60.6L698.0 60.8Q699.6 61.0 700.7 61.7Q701.8 62.4 702.3 63.5Q702.9 64.5 702.9 65.9L702.9 65.9Q702.9 67.7 701.8 69.2Q700.7 70.6 698.9 71.5Q697.0 72.3 694.5 72.3ZM714.4 72.3L714.4 72.3Q711.6 72.3 709.7 71.0Q707.7 69.6 706.7 67.1Q705.6 64.6 705.6 61.1L705.6 61.1Q705.6 57.6 706.7 55.1Q707.7 52.5 709.7 51.2Q711.6 49.9 714.4 49.9L714.4 49.9Q717.1 49.9 719.1 51.2Q721.0 52.6 722.1 55.1Q723.1 57.6 723.1 61.1L723.1 61.1Q723.1 64.6 722.1 67.1Q721.0 69.6 719.1 71.0Q717.1 72.3 714.4 72.3ZM714.4 68.6L714.4 68.6Q715.7 68.6 716.6 67.7Q717.6 66.8 718.1 65.2Q718.6 63.5 718.6 61.1L718.6 61.1Q718.6 58.7 718.1 57.0Q717.6 55.3 716.6 54.5Q715.7 53.6 714.4 53.6L714.4 53.6Q713.0 53.6 712.1 54.5Q711.2 55.3 710.7 57.0Q710.2 58.7 710.2 61.1L710.2 61.1Q710.2 63.5 710.7 65.2Q711.2 66.8 712.1 67.7Q713.0 68.6 714.4 68.6ZM734.2 72.3L734.2 72.3Q731.8 72.3 729.9 71.5Q728.0 70.7 726.9 69.3Q725.9 67.9 725.9 66.1L725.9 66.1Q725.9 64.8 726.5 63.6Q727.1 62.5 728.2 61.7Q729.2 60.9 730.6 60.7L730.6 60.7L730.6 60.6Q728.8 60.2 727.7 58.9Q726.7 57.5 726.7 55.7L726.7 55.7Q726.7 54.1 727.6 52.7Q728.6 51.4 730.3 50.6Q732.0 49.9 734.2 49.9L734.2 49.9Q736.4 49.9 738.2 50.6Q739.9 51.4 740.9 52.7Q741.8 54.1 741.8 55.7L741.8 55.7Q741.8 57.5 740.8 58.9Q739.7 60.2 738.0 60.6L738.0 60.6L738.0 60.7Q739.3 60.9 740.3 61.7Q741.4 62.5 742.0 63.6Q742.7 64.8 742.7 66.1L742.7 66.1Q742.7 67.9 741.6 69.3Q740.5 70.7 738.6 71.5Q736.7 72.3 734.2 72.3ZM734.2 69.0L734.2 69.0Q735.4 69.0 736.2 68.6Q737.0 68.2 737.5 67.5Q738.0 66.7 738.0 65.8L738.0 65.8Q738.0 64.8 737.5 64.1Q737.0 63.3 736.2 62.9Q735.3 62.5 734.2 62.5L734.2 62.5Q733.2 62.5 732.3 62.9Q731.5 63.3 731.0 64.1Q730.5 64.8 730.5 65.8L730.5 65.8Q730.5 66.7 731.0 67.4Q731.4 68.2 732.3 68.6Q733.1 69.0 734.2 69.0ZM734.2 59.2L734.2 59.2Q735.2 59.2 735.9 58.8Q736.6 58.4 737.1 57.8Q737.5 57.1 737.5 56.2L737.5 56.2Q737.5 55.3 737.1 54.7Q736.6 54.0 735.9 53.7Q735.2 53.3 734.2 53.3L734.2 53.3Q733.3 53.3 732.6 53.7Q731.8 54.0 731.4 54.7Q731.0 55.3 731.0 56.2L731.0 56.2Q731.0 57.1 731.4 57.8Q731.8 58.4 732.6 58.8Q733.3 59.2 734.2 59.2Z "/></g><mask id="satori_om-id-3-1"><rect x="672" y="81" width="66" height="13" fill="#fff" mask="url(#satori_om-id)"/></mask><g mask="url(#satori_om-id)" clip-path="url(#satori_cp-id)"><path fill="rgba(200,195,225,0.45)" d="M676.2 92.1L676.2 92.1Q675.2 92.1 674.3 91.6Q673.5 91.1 673.0 90.2Q672.5 89.3 672.5 88.0L672.5 88.0Q672.5 86.7 673.0 85.8Q673.5 84.9 674.3 84.4Q675.2 83.9 676.2 83.9L676.2 83.9Q676.9 83.9 677.5 84.1Q678.1 84.3 678.5 84.6Q679.0 85.0 679.3 85.5Q679.6 86.1 679.7 86.7L679.7 86.7L678.0 86.7Q678.0 86.4 677.8 86.1Q677.6 85.9 677.4 85.7Q677.2 85.5 676.9 85.4Q676.6 85.3 676.3 85.3L676.3 85.3Q675.6 85.3 675.2 85.7Q674.7 86.0 674.4 86.6Q674.2 87.2 674.2 88.0L674.2 88.0Q674.2 88.9 674.4 89.5Q674.7 90.1 675.2 90.4Q675.6 90.7 676.2 90.7L676.2 90.7Q676.6 90.7 676.9 90.6Q677.2 90.5 677.4 90.3Q677.6 90.1 677.8 89.8Q678.0 89.6 678.0 89.3L678.0 89.3L679.7 89.3Q679.6 89.8 679.3 90.3Q679.1 90.8 678.6 91.2Q678.2 91.6 677.6 91.9Q677.0 92.1 676.2 92.1ZM685.9 92.1L685.9 92.1Q684.8 92.1 684.0 91.6Q683.1 91.1 682.6 90.2Q682.1 89.3 682.1 88.0L682.1 88.0Q682.1 86.7 682.6 85.8Q683.1 84.9 684.0 84.4Q684.8 83.9 685.9 83.9L685.9 83.9Q686.9 83.9 687.8 84.4Q688.6 84.9 689.1 85.8Q689.6 86.7 689.6 88.0L689.6 88.0Q689.6 89.3 689.1 90.2Q688.6 91.1 687.8 91.6Q686.9 92.1 685.9 92.1ZM685.9 90.7L685.9 90.7Q686.5 90.7 687.0 90.3Q687.4 90.0 687.7 89.5Q687.9 88.9 687.9 88.0L687.9 88.0Q687.9 87.1 687.7 86.5Q687.4 86.0 687.0 85.6Q686.5 85.3 685.9 85.3L685.9 85.3Q685.3 85.3 684.8 85.7Q684.3 86.0 684.1 86.6Q683.8 87.1 683.8 88.0L683.8 88.0Q683.8 88.9 684.1 89.4Q684.3 90.0 684.8 90.3Q685.3 90.7 685.9 90.7ZM694.0 92L692.3 92L692.3 84.0L694.9 84.0L696.2 87.7Q696.2 87.9 696.3 88.3Q696.4 88.7 696.5 89.2L696.5 89.2Q696.7 89.7 696.7 90.1L696.7 90.1Q696.8 89.7 696.9 89.2L696.9 89.2Q697.0 88.8 697.2 88.3Q697.3 87.9 697.3 87.7L697.3 87.7L698.6 84.0L701.1 84.0L701.1 92L699.5 92L699.5 88.2Q699.5 88.0 699.5 87.6Q699.5 87.2 699.5 86.7Q699.5 86.3 699.5 85.8L699.5 85.8Q699.6 85.6 699.6 85.4L699.6 85.4Q699.5 85.6 699.4 85.9L699.4 85.9Q699.3 86.3 699.2 86.8Q699.1 87.2 698.9 87.6Q698.8 88.0 698.8 88.2L698.8 88.2L697.4 92L696.0 92L694.7 88.2Q694.6 88.0 694.5 87.6Q694.4 87.2 694.3 86.8Q694.1 86.4 694.0 85.9L694.0 85.9Q694.0 85.7 693.9 85.5L693.9 85.5Q693.9 85.6 693.9 85.8L693.9 85.8Q693.9 86.2 693.9 86.7Q693.9 87.2 694.0 87.6Q694.0 88.0 694.0 88.2L694.0 88.2L694.0 92ZM705.7 92L704.1 92L704.1 84.0L706.6 84.0L707.9 87.7Q708.0 87.9 708.1 88.3Q708.2 88.7 708.3 89.2L708.3 89.2Q708.4 89.7 708.5 90.1L708.5 90.1Q708.6 89.7 708.7 89.2L708.7 89.2Q708.8 88.8 708.9 88.3Q709.0 87.9 709.1 87.7L709.1 87.7L710.4 84.0L712.9 84.0L712.9 92L711.2 92L711.2 88.2Q711.2 88.0 711.2 87.6Q711.3 87.2 711.3 86.7Q711.3 86.3 711.3 85.8L711.3 85.8Q711.3 85.6 711.3 85.4L711.3 85.4Q711.2 85.6 711.2 85.9L711.2 85.9Q711.1 86.3 710.9 86.8Q710.8 87.2 710.7 87.6Q710.6 88.0 710.5 88.2L710.5 88.2L709.2 92L707.8 92L706.4 88.2Q706.4 88.0 706.3 87.6Q706.1 87.2 706.0 86.8Q705.9 86.4 705.8 85.9L705.8 85.9Q705.7 85.7 705.7 85.5L705.7 85.5Q705.7 85.6 705.7 85.8L705.7 85.8Q705.7 86.2 705.7 86.7Q705.7 87.2 705.7 87.6Q705.7 88.0 705.7 88.2L705.7 88.2L705.7 92ZM715.8 84.0L717.5 84.0L717.5 92L715.8 92L715.8 84.0ZM722.5 85.4L720.1 85.4L720.1 84.0L726.6 84.0L726.6 85.4L724.2 85.4L724.2 92L722.5 92L722.5 85.4ZM732.2 92.1L732.2 92.1Q731.2 92.1 730.5 91.8Q729.8 91.5 729.4 90.9Q729.0 90.4 729.0 89.5L729.0 89.5L730.6 89.5Q730.6 89.9 730.8 90.2Q731.0 90.5 731.4 90.6Q731.7 90.7 732.2 90.7L732.2 90.7Q732.6 90.7 732.9 90.6Q733.3 90.5 733.5 90.2Q733.6 90.0 733.6 89.7L733.6 89.7Q733.6 89.4 733.5 89.3Q733.3 89.1 733.0 88.9Q732.7 88.8 732.3 88.7L732.3 88.7L731.4 88.5Q730.4 88.2 729.8 87.7Q729.2 87.2 729.2 86.3L729.2 86.3Q729.2 85.6 729.6 85.0Q730.0 84.5 730.7 84.2Q731.3 83.9 732.2 83.9L732.2 83.9Q733.1 83.9 733.8 84.2Q734.4 84.5 734.8 85.0Q735.2 85.6 735.2 86.3L735.2 86.3L733.6 86.3Q733.6 85.8 733.2 85.5Q732.8 85.3 732.2 85.3L732.2 85.3Q731.8 85.3 731.5 85.4Q731.2 85.5 731.0 85.7Q730.9 85.9 730.9 86.2L730.9 86.2Q730.9 86.5 731.1 86.7Q731.2 86.9 731.5 87.0Q731.8 87.1 732.2 87.2L732.2 87.2L732.9 87.4Q733.4 87.5 733.8 87.7Q734.3 87.9 734.6 88.2Q734.9 88.4 735.1 88.8Q735.3 89.2 735.3 89.7L735.3 89.7Q735.3 90.4 734.9 91.0Q734.6 91.5 733.9 91.8Q733.2 92.1 732.2 92.1Z "/></g></svg>