<!-- Generated by readme-aura https://github.com/collectioneur/readme-aura -->
<svg width="860" height="140" viewBox="0 0 860 140" xmlns="http://www.w3.org/2000/svg"><defs><clipPath id="satori_bc-id"><path x="0" y="0" width="860" height="140" d="M16,0 h828 a16,16 0 0 1 16,16 v108 a16,16 0 0 1 -16,16 h-828 a16,16 0 0 1 -16,-16 v-108 a16,16 0 0 1 16,-16"/></clipPath></defs><clipPath id="satori_cp-id"><path x="0" y="0" width="860" height="140" d="M16,0 h828 a16,16 0 0 1 16,16 v108 a16,16 0 0 1 -16,16 h-828 a16,16 0 0 1 -16,-16 v-108 a16,16 0 0 1 16,-16"/></clipPath><mask id="satori_om-id"><rect x="1" y="1" width="858" height="138" fill="#fff"/><path width="860" height="140" fill="none" stroke="#000" stroke-width="2" d="M4.686,4.686 A16,16 0 0 1 16,0 h828 a16,16 0 0 1 16,16 v108 a16,16 0 0 1 -16,16 h-828 a16,16 0 0 1 -16,-16 v-108 A16,16 0 0 1 4.686,4.686"/></mask><path x="0" y="0" width="860" height="140" fill="#08080c" d="M16,0 h828 a16,16 0 0 1 16,16 v108 a16,16 0 0 1 -16,16 h-828 a16,16 0 0 1 -16,-16 v-108 a16,16 0 0 1 16,-16"/><path width="860" height="140" clip-path="url(#satori_bc-id)" fill="none" stroke="rgba(110,80,220,0.18)" stroke-width="2" d="M4.686,4.686 A16,16 0 0 1 16,0 h828 a16,16 0 0 1 16,16 v108 a16,16 0 0 1 -16,16 h-828 a16,16 0 0 1 -16,-16 v-108 A16,16 0 0 1 4.686,4.686"/><clipPath id="satori_cp-id-0" clip-path="url(#satori_cp-id)"><rect x="1" y="1" width="860" height="140"/></clipPath><mask id="satori_om-id-0"><rect x="1" y="1" width="860" height="140" fill="#fff" mask="url(#satori_om-id)"/></mask><svg x="1" y="1" width="860" height="140" preserveAspectRatio="none" clip-path="url(#satori_cp-id-0)" mask="url(#satori_om-id-0)"><defs><radialGradient id="g1" cx="50%" cy="50%" r="50%"><stop offset="0%" stop-color="rgba(110,20,210,0.65)"></stop><stop offset="45%" stop-color="rgba(80,15,170,0.28)"></stop><stop offset="70%" stop-color="rgba(80,15,170,0)"></stop></radialGradient><radialGradient id="g2" cx="50%" cy="50%" r="50%"><stop offset="0%" stop-color="rgba(40,70,255,0.55)"></stop><stop offset="45%" stop-color="rgba(20,50,200,0.22)"></stop><stop offset="70%" stop-color="rgba(20,50,200,0)"></stop></radialGradient><radialGradient id="g3" cx="50%" cy="50%" r="50%"><stop offset="0%" stop-color="rgba(0,140,255,0.42)"></stop><stop offset="70%" stop-color="rgba(0,140,255,0)"></stop></radialGradient><radialGradient id="g4" cx="50%" cy="50%" r="50%"><stop offset="0%" stop-color="rgba(0,195,235,0.30)"></stop><stop offset="70%" stop-color="rgba(0,195,235,0)"></stop></radialGradient><radialGradient id="g5" cx="50%" cy="50%" r="50%"><stop offset="0%" stop-color="rgba(100,30,210,0.40)"></stop><stop offset="70%" stop-color="rgba(100,30,210,0)"></stop></radialGradient></defs><ellipse id="glow-1" cx="710" cy="150" rx="210" ry="150" fill="url(#g1)"></ellipse><ellipse id="glow-2" cx="550" cy="140" rx="190" ry="140" fill="url(#g2)"></ellipse><ellipse id="glow-3" cx="400" cy="130" rx="170" ry="130" fill="url(#g3)"></ellipse><ellipse id="glow-4" cx="250" cy="140" rx="150" ry="120" fill="url(#g4)"></ellipse><ellipse id="glow-5" cx="100" cy="150" rx="130" ry="110" fill="url(#g5)"></ellipse><style>

         @keyframes float-slow {
           0%, 100% { transform: translateX(0px); opacity: 0.8; }
           50% { transform: translateX(350px); opacity: 1.2; }
         }
         @keyframes float-medium {
           0%, 100% { transform: translateX(0px); opacity: 0.7; }
           50% { transform: translateX(-250px); opacity: 1.1; }
         }
         @keyframes float-fast {
           0%, 100% { transform: translateX(0px); opacity: 0.9; }
           50% { transform: translateX(200px); opacity: 0.6; }
         }
         @keyframes float-diagonal {
           0%, 100% { transform: translate(0px, 0px); opacity: 0.75; }
           50% { transform: translate(120px, 30px); opacity: 1.0; }
         }
         @keyframes float-wave {
           0%, 100% { transform: translateX(0px); opacity: 0.65; }
           33% { transform: translateX(-160px); opacity: 0.9; }
           66% { transform: translateX(80px); opacity: 1.0; }
         }
         @keyframes float-pulse {
           0%, 100% { transform: scale(1); opacity: 0.8; }
           50% { transform: scale(1.3); opacity: 0.4; }
         }
         #glow-1 { animation: float-slow 8s ease-in-out infinite; }
         #glow-2 { animation: float-medium 12s ease-in-out infinite; }
         #glow-3 { animation: float-fast 9s ease-in-out infinite; }
         #glow-4 { animation: float-diagonal 10s ease-in-out infinite; }
         #glow-5 { animation: float-wave 14s ease-in-out infinite; }
       
</style>
</svg><mask id="satori_om-id-0-0"><rect x="1" y="1" width="0" height="140" fill="#fff" mask="url(#satori_om-id)"/></mask><mask id="satori_om-id-0-0-0"><rect x="1" y="1" width="0" height="140" fill="#fff" mask="url(#satori_om-id)"/></mask><mask id="satori_om-id-0-0-0-0"><rect x="1" y="1" width="0" height="140" fill="#fff" mask="url(#satori_om-id)"/></mask><mask id="satori_om-id-0-0-0-1"><rect x="1" y="1" width="0" height="140" fill="#fff" mask="url(#satori_om-id)"/></mask><mask id="satori_om-id-0-0-0-2"><rect x="1" y="1" width="0" height="140" fill="#fff" mask="url(#satori_om-id)"/></mask><mask id="satori_om-id-0-0-1"><rect x="1" y="1" width="0" height="140" fill="#fff" mask="url(#satori_om-id)"/></mask><mask id="satori_om-id-0-0-1-0"><rect x="1" y="1" width="0" height="140" fill="#fff" mask="url(#satori_om-id)"/></mask><mask id="satori_om-id-0-0-1-1"><rect x="1" y="1" width="0" height="140" fill="#fff" mask="url(#satori_om-id)"/></mask><mask id="satori_om-id-0-0-1-2"><rect x="1" y="1" width="0" height="140" fill="#fff" mask="url(#satori_om-id)"/></mask><mask id="satori_om-id-0-0-2"><rect x="1" y="1" width="0" height="140" fill="#fff" mask="url(#satori_om-id)"/></mask><mask id="satori_om-id-0-0-2-0"><rect x="1" y="1" width="0" height="140" fill="#fff" mask="url(#satori_om-id)"/></mask><mask id="satori_om-id-0-0-2-1"><rect x="1" y="1" width="0" height="140" fill="#fff" mask="url(#satori_om-id)"/></mask><mask id="satori_om-id-0-0-3"><rect x="1" y="1" width="0" height="140" fill="#fff" mask="url(#satori_om-id)"/></mask><mask id="satori_om-id-0-0-3-0"><rect x="1" y="1" width="0" height="140" fill="#fff" mask="url(#satori_om-id)"/></mask><mask id="satori_om-id-0-0-3-1"><rect x="1" y="1" width="0" height="140" fill="#fff" mask="url(#satori_om-id)"/></mask><mask id="satori_om-id-0-0-4"><rect x="1" y="1" width="0" height="140" fill="#fff" mask="url(#satori_om-id)"/></mask><mask id="satori_om-id-0-0-4-0"><rect x="1" y="1" width="0" height="140" fill="#fff" mask="url(#satori_om-id)"/></mask><mask id="satori_om-id-0-0-4-1"><rect x="1" y="1" width="0" height="140" fill="#fff" mask="url(#satori_om-id)"/></mask><mask id="satori_om-id-0-1"><rect x="1" y="1" width="0" height="140" fill="#fff" mask="url(#satori_om-id)"/></mask><mask id="satori_om-id-0-2"><rect x="1" y="1" width="0" height="140" fill="#fff" mask="url(#satori_om-id)"/></mask><mask id="satori_om-id-0-3"><rect x="1" y="1" width="0" height="140" fill="#fff" mask="url(#satori_om-id)"/></mask><mask id="satori_om-id-0-4"><rect x="1" y="1" width="0" height="140" fill="#fff" mask="url(#satori_om-id)"/></mask><mask id="satori_om-id-0-5"><rect x="1" y="1" width="0" height="140" fill="#fff" mask="url(#satori_om-id)"/></mask><defs><clipPath id="satori_bc-id-1" clip-path="url(#satori_cp-id)"><rect x="1" y="30" width="274" height="80"/></clipPath></defs><mask id="satori_om-id-1"><rect x="1" y="30" width="273" height="80" fill="#fff" mask="url(#satori_om-id)"/><path width="274" height="80" fill="none" stroke="#000" stroke-width="2" d="M275,30 A0,0 0 0 1 275,30 v80 A0,0 0 0 1 275,110"/></mask><path width="274" height="80" clip-path="url(#satori_bc-id-1)" fill="none" stroke="rgba(255,255,255,0.06)" stroke-width="2" d="M275,30 A0,0 0 0 1 275,30 v80 A0,0 0 0 1 275,110"/><mask id="satori_om-id-1-0"><rect x="122" y="46" width="32" height="30" fill="#fff" mask="url(#satori_om-id)"/></mask><g mask="url(#satori_om-id)" clip-path="url(#satori_cp-id)"><path fill="#a78bfa" d="M128.2 50.2L133.0 50.2L133.0 72L128.5 72L128.5 54.1L128.4 54.1L123.4 57.7L123.4 53.6L128.2 50.2ZM144.1 72.3L144.1 72.3Q141.9 72.3 140.1 71.5Q138.4 70.6 137.4 69.2Q136.4 67.7 136.3 65.9L136.3 65.9L140.7 65.9Q140.7 66.7 141.2 67.4Q141.7 68.0 142.4 68.4Q143.2 68.7 144.1 68.7L144.1 68.7Q145.2 68.7 146.1 68.3Q146.9 67.8 147.4 66.9Q147.9 66.0 147.9 64.9L147.9 64.9Q147.9 63.7 147.4 62.8Q146.9 61.9 146.0 61.4Q145.2 60.9 144.1 60.9L144.1 60.9Q143.1 60.9 142.2 61.3Q141.3 61.7 140.8 62.3L140.8 62.3L136.8 61.6L137.8 50.2L151.0 50.2L151.0 53.9L141.5 53.9L141.0 59.4L141.1 59.4Q141.7 58.6 142.8 58.1Q144.0 57.6 145.4 57.6L145.4 57.6Q146.8 57.6 148.1 58.1Q149.3 58.6 150.3 59.6Q151.2 60.5 151.7 61.9Q152.2 63.2 152.2 64.7L152.2 64.7Q152.2 66.9 151.2 68.6Q150.2 70.3 148.4 71.3Q146.5 72.3 144.1 72.3Z "/></g><mask id="satori_om-id-1-1"><rect x="115" y="81" width="45" height="13" fill="#fff" mask="url(#satori_om-id)"/></mask><g mask="url(#satori_om-id)" clip-path="url(#satori_cp-id)"><path fill="rgba(200,195,225,0.45)" d="M117.4 92L115.7 92L115.7 84.0L118.8 84.0Q119.8 84.0 120.4 84.3Q121.0 84.6 121.4 85.2Q121.7 85.8 121.7 86.6Q121.7 87.4 121.4 88.0Q121.0 88.5 120.4 88.8L120.4 88.8Q120.3 88.9 120.3 88.9L120.3 88.9L122.0 92L120.2 92L118.6 89.1L117.4 89.1L117.4 92ZM117.4 85.4L117.4 87.8L118.5 87.8Q119.0 87.8 119.4 87.7Q119.7 87.5 119.9 87.3Q120.0 87.0 120.0 86.6L120.0 86.6Q120.0 86.2 119.9 85.9Q119.7 85.6 119.4 85.5Q119.0 85.4 118.5 85.4L118.5 85.4L117.4 85.4ZM129.8 92L124.4 92L124.4 84.0L129.8 84.0L129.8 85.4L126.1 85.4L126.1 87.3L129.5 87.3L129.5 88.6L126.1 88.6L126.1 90.6L129.8 90.6L129.8 92ZM134.3 92L132.6 92L132.6 84.0L135.8 84.0Q136.7 84.0 137.3 84.3Q137.9 84.7 138.3 85.3Q138.6 85.9 138.6 86.7L138.6 86.7Q138.6 87.5 138.3 88.1Q137.9 88.7 137.3 89.0Q136.6 89.4 135.7 89.4L135.7 89.4L134.3 89.4L134.3 92ZM134.3 85.4L134.3 88.1L135.5 88.1Q136.0 88.1 136.3 87.9Q136.6 87.7 136.8 87.4Q136.9 87.1 136.9 86.7Q136.9 86.3 136.8 86.0Q136.6 85.7 136.3 85.5Q136.0 85.4 135.4 85.4L135.4 85.4L134.3 85.4ZM144.8 92.1L144.8 92.1Q143.7 92.1 142.9 91.6Q142.0 91.1 141.5 90.2Q141.0 89.3 141.0 88.0L141.0 88.0Q141.0 86.7 141.5 85.8Q142.0 84.9 142.9 84.4Q143.7 83.9 144.8 83.9L144.8 83.9Q145.8 83.9 146.7 84.4Q147.5 84.9 148.0 85.8Q148.5 86.7 148.5 88.0L148.5 88.0Q148.5 89.3 148.0 90.2Q147.5 91.1 146.7 91.6Q145.8 92.1 144.8 92.1ZM144.8 90.7L144.8 90.7Q145.4 90.7 145.9 90.3Q146.3 90.0 146.6 89.5Q146.8 88.9 146.8 88.0L146.8 88.0Q146.8 87.1 146.6 86.5Q146.3 86.0 145.9 85.6Q145.4 85.3 144.8 85.3L144.8 85.3Q144.2 85.3 143.7 85.7Q143.2 86.0 143.0 86.6Q142.7 87.1 142.7 88.0L142.7 88.0Q142.7 88.9 143.0 89.4Q143.2 90.0 143.7 90.3Q144.2 90.7 144.8 90.7ZM154.2 92.1L154.2 92.1Q153.2 92.1 152.5 91.8Q151.8 91.5 151.4 90.9Q151.0 90.4 151.0 89.5L151.0 89.5L152.6 89.5Q152.6 89.9 152.8 90.2Q153.0 90.5 153.4 90.6Q153.7 90.7 154.2 90.7L154.2 90.7Q154.6 90.7 154.9 90.6Q155.2 90.5 155.4 90.2Q155.6 90.0 155.6 89.7L155.6 89.7Q155.6 89.4 155.4 89.3Q155.3 89.1 155.0 88.9Q154.7 88.8 154.2 88.7L154.2 88.7L153.3 88.5Q152.3 88.2 151.8 87.7Q151.2 87.2 151.2 86.3L151.2 86.3Q151.2 85.6 151.6 85.0Q152.0 84.5 152.6 84.2Q153.3 83.9 154.2 83.9L154.2 83.9Q155.1 83.9 155.7 84.2Q156.4 84.5 156.8 85.0Q157.1 85.6 157.1 86.3L157.1 86.3L155.6 86.3Q155.5 85.8 155.2 85.5Q154.8 85.3 154.2 85.3L154.2 85.3Q153.8 85.3 153.5 85.4Q153.2 85.5 153.0 85.7Q152.9 85.9 152.9 86.2L152.9 86.2Q152.9 86.5 153.0 86.7Q153.2 86.9 153.5 87.0Q153.8 87.1 154.1 87.2L154.1 87.2L154.9 87.4Q155.4 87.5 155.8 87.7Q156.2 87.9 156.6 88.2Q156.9 88.4 157.1 88.8Q157.3 89.2 157.3 89.7L157.3 89.7Q157.3 90.4 156.9 91.0Q156.5 91.5 155.8 91.8Q155.1 92.1 154.2 92.1Z "/></g><defs><clipPath id="satori_bc-id-2" clip-path="url(#satori_cp-id)"><rect x="275" y="30" width="277" height="80"/></clipPath></defs><mask id="satori_om-id-2"><rect x="275" y="30" width="276" height="80" fill="#fff" mask="url(#satori_om-id)"/><path width="277" height="80" fill="none" stroke="#000" stroke-width="2" d="M552,30 A0,0 0 0 1 552,30 v80 A0,0 0 0 1 552,110"/></mask><path width="277" height="80" clip-path="url(#satori_bc-id-2)" fill="none" stroke="rgba(255,255,255,0.06)" stroke-width="2" d="M552,30 A0,0 0 0 1 552,30 v80 A0,0 0 0 1 552,110"/><mask id="satori_om-id-2-0"><rect x="389" y="46" width="47" height="30" fill="#fff" mask="url(#satori_om-id)"/></mask><g mask="url(#satori_om-id)" clip-path="url(#satori_cp-id)"><path fill="#60a5fa" d="M395.2 50.2L400.0 50.2L400.0 72L395.5 72L395.5 54.1L395.4 54.1L390.4 57.7L390.4 53.6L395.2 50.2ZM408.1 50.2L412.9 50.2L412.9 72L408.4 72L408.4 54.1L408.3 54.1L403.3 57.7L403.3 53.6L408.1 50.2ZM426.8 68.1L416.3 68.1L416.3 64.6L425.5 50.2L431.1 50.2L431.1 64.5L433.8 64.5L433.8 68.1L431.1 68.1L431.1 72L426.8 72L426.8 68.1ZM420.9 64.5L426.9 64.5L426.9 55.1L426.7 55.1L420.9 64.3L420.9 64.5Z "/></g><mask id="satori_om-id-2-1"><rect x="390" y="81" width="45" height="13" fill="#fff" mask="url(#satori_om-id)"/></mask><g mask="url(#satori_om-id)" clip-path="url(#satori_cp-id)"><path fill="rgba(200,195,225,0.45)" d="M393.7 92.1L393.7 92.1Q392.7 92.1 392.0 91.8Q391.3 91.5 390.9 90.9Q390.5 90.4 390.5 89.5L390.5 89.5L392.1 89.5Q392.1 89.9 392.3 90.2Q392.5 90.5 392.9 90.6Q393.2 90.7 393.6 90.7L393.6 90.7Q394.1 90.7 394.4 90.6Q394.7 90.5 394.9 90.2Q395.1 90.0 395.1 89.7L395.1 89.7Q395.1 89.4 394.9 89.3Q394.8 89.1 394.5 88.9Q394.2 88.8 393.7 88.7L393.7 88.7L392.8 88.5Q391.8 88.2 391.2 87.7Q390.7 87.2 390.7 86.3L390.7 86.3Q390.7 85.6 391.1 85.0Q391.5 84.5 392.1 84.2Q392.8 83.9 393.7 83.9L393.7 83.9Q394.6 83.9 395.2 84.2Q395.9 84.5 396.3 85.0Q396.6 85.6 396.6 86.3L396.6 86.3L395.1 86.3Q395.0 85.8 394.6 85.5Q394.3 85.3 393.7 85.3L393.7 85.3Q393.2 85.3 393.0 85.4Q392.7 85.5 392.5 85.7Q392.4 85.9 392.4 86.2L392.4 86.2Q392.4 86.5 392.5 86.7Q392.7 86.9 393.0 87.0Q393.3 87.1 393.6 87.2L393.6 87.2L394.4 87.4Q394.9 87.5 395.3 87.7Q395.7 87.9 396.1 88.2Q396.4 88.4 396.6 88.8Q396.7 89.2 396.7 89.7L396.7 89.7Q396.7 90.4 396.4 91.0Q396.0 91.5 395.3 91.8Q394.6 92.1 393.7 92.1ZM401.6 85.4L399.1 85.4L399.1 84.0L405.6 84.0L405.6 85.4L403.2 85.4L403.2 92L401.6 92L401.6 85.4ZM409.6 92L407.8 92L410.5 84.0L412.7 84.0L415.5 92L413.7 92L413.1 90.1L410.2 90.1L409.6 92ZM410.6 88.9L412.6 88.9L412.4 88.1Q412.2 87.4 411.9 86.5L411.9 86.5Q411.8 85.9 411.6 85.3L411.6 85.3Q411.4 85.9 411.3 86.5L411.3 86.5Q411.1 87.4 410.9 88.1L410.9 88.1L410.6 88.9ZM419.6 92L418.0 92L418.0 84.0L421.1 84.0Q422.0 84.0 422.7 84.3Q423.3 84.6 423.6 85.2Q424.0 85.8 424.0 86.6Q424.0 87.4 423.6 88.0Q423.3 88.5 422.6 88.8L422.6 88.8Q422.6 88.9 422.5 88.9L422.5 88.9L424.3 92L422.4 92L420.9 89.1L419.6 89.1L419.6 92ZM419.6 85.4L419.6 87.8L420.8 87.8Q421.3 87.8 421.6 87.7Q422.0 87.5 422.1 87.3Q422.3 87.0 422.3 86.6L422.3 86.6Q422.3 86.2 422.1 85.9Q422.0 85.6 421.6 85.5Q421.3 85.4 420.8 85.4L420.8 85.4L419.6 85.4ZM429.6 92.1L429.6 92.1Q428.7 92.1 428.0 91.8Q427.3 91.5 426.9 90.9Q426.5 90.4 426.4 89.5L426.4 89.5L428.0 89.5Q428.1 89.9 428.3 90.2Q428.5 90.5 428.8 90.6Q429.2 90.7 429.6 90.7L429.6 90.7Q430.1 90.7 430.4 90.6Q430.7 90.5 430.9 90.2Q431.1 90.0 431.1 89.7L431.1 89.7Q431.1 89.4 430.9 89.3Q430.8 89.1 430.4 88.9Q430.1 88.8 429.7 88.7L429.7 88.7L428.8 88.5Q427.8 88.2 427.2 87.7Q426.7 87.2 426.7 86.3L426.7 86.3Q426.7 85.6 427.0 85.0Q427.4 84.5 428.1 84.2Q428.8 83.9 429.7 83.9L429.7 83.9Q430.5 83.9 431.2 84.2Q431.9 84.5 432.2 85.0Q432.6 85.6 432.6 86.3L432.6 86.3L431.0 86.3Q431.0 85.8 430.6 85.5Q430.3 85.3 429.6 85.3L429.6 85.3Q429.2 85.3 428.9 85.4Q428.6 85.5 428.5 85.7Q428.3 85.9 428.3 86.2L428.3 86.2Q428.3 86.5 428.5 86.7Q428.7 86.9 429.0 87.0Q429.3 87.1 429.6 87.2L429.6 87.2L430.3 87.4Q430.8 87.5 431.3 87.7Q431.7 87.9 432.0 88.2Q432.4 88.4 432.5 88.8Q432.7 89.2 432.7 89.7L432.7 89.7Q432.7 90.4 432.4 91.0Q432.0 91.5 431.3 91.8Q430.6 92.1 429.6 92.1Z "/></g><mask id="satori_om-id-3"><rect x="552" y="30" width="307" height="80" fill="#fff" mask="url(#satori_om-id)"/></mask><mask id="satori_om-id-3-0"><rect x="666" y="46" width="79" height="30" fill="#fff" mask="url(#satori_om-id)"/></mask><g mask="url(#satori_om-id)" clip-path="url(#satori_cp-id)"><path fill="#f59e0b" d="M683.3 72L667.8 72L667.8 68.8L675.6 61.5Q676.5 60.6 677.2 59.8Q677.9 59.0 678.3 58.2Q678.6 57.5 678.6 56.6L678.6 56.6Q678.6 55.6 678.2 54.9Q677.7 54.2 677.0 53.8Q676.2 53.5 675.2 53.5L675.2 53.5Q674.2 53.5 673.5 53.9Q672.7 54.3 672.3 55.0Q671.9 55.8 671.9 56.9L671.9 56.9L667.6 56.9Q667.6 54.7 668.6 53.2Q669.6 51.6 671.3 50.7Q673.0 49.9 675.3 49.9L675.3 49.9Q677.6 49.9 679.3 50.7Q681.0 51.5 682.0 53.0Q683.0 54.4 683.0 56.3L683.0 56.3Q683.0 57.5 682.5 58.7Q682.0 59.9 680.8 61.4Q679.6 62.9 677.3 64.9L677.3 64.9L674.0 68.2L674.0 68.3L683.3 68.3L683.3 72ZM696.4 68.1L685.9 68.1L685.9 64.6L695.0 50.2L700.6 50.2L700.6 64.5L703.4 64.5L703.4 68.1L700.6 68.1L700.6 72L696.4 72L696.4 68.1ZM690.4 64.5L696.4 64.5L696.4 55.1L696.3 55.1L690.4 64.3L690.4 64.5ZM714.8 72.3L714.8 72.3Q712.1 72.3 710.1 71.0Q708.2 69.6 707.1 67.1Q706.1 64.6 706.1 61.1L706.1 61.1Q706.1 57.6 707.1 55.1Q708.2 52.5 710.1 51.2Q712.1 49.9 714.8 49.9L714.8 49.9Q717.6 49.9 719.5 51.2Q721.5 52.6 722.5 55.1Q723.6 57.6 723.6 61.1L723.6 61.1Q723.6 64.6 722.5 67.1Q721.5 69.6 719.5 71.0Q717.6 72.3 714.8 72.3ZM714.8 68.6L714.8 68.6Q716.2 68.6 717.1 67.7Q718.0 66.8 718.5 65.2Q719.0 63.5 719.0 61.1L719.0 61.1Q719.0 58.7 718.5 57.0Q718.0 55.3 717.1 54.5Q716.2 53.6 714.8 53.6L714.8 53.6Q713.5 53.6 712.6 54.5Q711.6 55.3 711.1 57.0Q710.6 58.7 710.6 61.1L710.6 61.1Q710.6 63.5 711.1 65.2Q711.6 66.8 712.6 67.7Q713.5 68.6 714.8 68.6ZM742.2 72L726.8 72L726.8 68.8L734.5 61.5Q735.5 60.6 736.2 59.8Q736.9 59.0 737.2 58.2Q737.6 57.5 737.6 56.6L737.6 56.6Q737.6 55.6 737.1 54.9Q736.7 54.2 735.9 53.8Q735.2 53.5 734.2 53.5L734.2 53.5Q733.2 53.5 732.4 53.9Q731.7 54.3 731.2 55.0Q730.8 55.8 730.8 56.9L730.8 56.9L726.6 56.9Q726.6 54.7 727.5 53.2Q728.5 51.6 730.2 50.7Q732.0 49.9 734.2 49.9L734.2 49.9Q736.5 49.9 738.3 50.7Q740.0 51.5 740.9 53.0Q741.9 54.4 741.9 56.3L741.9 56.3Q741.9 57.5 741.4 58.7Q741.0 59.9 739.7 61.4Q738.5 62.9 736.3 64.9L736.3 64.9L733.0 68.2L733.0 68.3L742.2 68.3L742.2 72Z "/></g><mask id="satori_om-id-3-1"><rect x="673" y="81" width="66" height="13" fill="#fff" mask="url(#satori_om-id)"/></mask><g mask="url(#satori_om-id)" clip-path="url(#satori_cp-id)"><path fill="rgba(200,195,225,0.45)" d="M677.2 92.1L677.2 92.1Q676.2 92.1 675.3 91.6Q674.5 91.1 674.0 90.2Q673.5 89.3 673.5 88.0L673.5 88.0Q673.5 86.7 674.0 85.8Q674.5 84.9 675.3 84.4Q676.2 83.9 677.2 83.9L677.2 83.9Q677.9 83.9 678.5 84.1Q679.1 84.3 679.5 84.6Q680.0 85.0 680.3 85.5Q680.6 86.1 680.7 86.7L680.7 86.7L679.0 86.7Q679.0 86.4 678.8 86.1Q678.6 85.9 678.4 85.7Q678.2 85.5 677.9 85.4Q677.6 85.3 677.3 85.3L677.3 85.3Q676.6 85.3 676.2 85.7Q675.7 86.0 675.4 86.6Q675.2 87.2 675.2 88.0L675.2 88.0Q675.2 88.9 675.4 89.5Q675.7 90.1 676.2 90.4Q676.6 90.7 677.2 90.7L677.2 90.7Q677.6 90.7 677.9 90.6Q678.2 90.5 678.4 90.3Q678.6 90.1 678.8 89.8Q679.0 89.6 679.0 89.3L679.0 89.3L680.7 89.3Q680.6 89.8 680.3 90.3Q680.1 90.8 679.6 91.2Q679.2 91.6 678.6 91.9Q678.0 92.1 677.2 92.1ZM686.9 92.1L686.9 92.1Q685.8 92.1 685.0 91.6Q684.1 91.1 683.6 90.2Q683.1 89.3 683.1 88.0L683.1 88.0Q683.1 86.7 683.6 85.8Q684.1 84.9 685.0 84.4Q685.8 83.9 686.9 83.9L686.9 83.9Q687.9 83.9 688.8 84.4Q689.6 84.9 690.1 85.8Q690.6 86.7 690.6 88.0L690.6 88.0Q690.6 89.3 690.1 90.2Q689.6 91.1 688.8 91.6Q687.9 92.1 686.9 92.1ZM686.9 90.7L686.9 90.7Q687.5 90.7 688.0 90.3Q688.4 90.0 688.7 89.5Q688.9 88.9 688.9 88.0L688.9 88.0Q688.9 87.1 688.7 86.5Q688.4 86.0 688.0 85.6Q687.5 85.3 686.9 85.3L686.9 85.3Q686.3 85.3 685.8 85.7Q685.3 86.0 685.1 86.6Q684.8 87.1 684.8 88.0L684.8 88.0Q684.8 88.9 685.1 89.4Q685.3 90.0 685.8 90.3Q686.3 90.7 686.9 90.7ZM695.0 92L693.3 92L693.3 84.0L695.9 84.0L697.2 87.7Q697.2 87.9 697.3 88.3Q697.4 88.7 697.5 89.2L697.5 89.2Q697.7 89.7 697.7 90.1L697.7 90.1Q697.8 89.7 697.9 89.2L697.9 89.2Q698.0 88.8 698.2 88.3Q698.3 87.9 698.3 87.7L698.3 87.7L699.6 84.0L702.1 84.0L702.1 92L700.5 92L700.5 88.2Q700.5 88.0 700.5 87.6Q700.5 87.2 700.5 86.7Q700.5 86.3 700.5 85.8L700.5 85.8Q700.6 85.6 700.6 85.4L700.6 85.4Q700.5 85.6 700.4 85.9L700.4 85.9Q700.3 86.3 700.2 86.8Q700.1 87.2 699.9 87.6Q699.8 88.0 699.8 88.2L699.8 88.2L698.4 92L697.0 92L695.7 88.2Q695.6 88.0 695.5 87.6Q695.4 87.2 695.3 86.8Q695.1 86.4 695.0 85.9L695.0 85.9Q695.0 85.7 694.9 85.5L694.9 85.5Q694.9 85.6 694.9 85.8L694.9 85.8Q694.9 86.2 694.9 86.7Q694.9 87.2 695.0 87.6Q695.0 88.0 695.0 88.2L695.0 88.2L695.0 92ZM706.7 92L705.1 92L705.1 84.0L707.6 84.0L708.9 87.7Q709.0 87.9 709.1 88.3Q709.2 88.7 709.3 89.2L709.3 89.2Q709.4 89.7 709.5 90.1L709.5 90.1Q709.6 89.7 709.7 89.2L709.7 89.2Q709.8 88.8 709.9 88.3Q710.0 87.9 710.1 87.7L710.1 87.7L711.4 84.0L713.9 84.0L713.9 92L712.2 92L712.2 88.2Q712.2 88.0 712.2 87.6Q712.3 87.2 712.3 86.7Q712.3 86.3 712.3 85.8L712.3 85.8Q712.3 85.6 712.3 85.4L712.3 85.4Q712.2 85.6 712.2 85.9L712.2 85.9Q712.1 86.3 711.9 86.8Q711.8 87.2 711.7 87.6Q711.6 88.0 711.5 88.2L711.5 88.2L710.2 92L708.8 92L707.4 88.2Q707.4 88.0 707.3 87.6Q707.1 87.2 707.0 86.8Q706.9 86.4 706.8 85.9L706.8 85.9Q706.7 85.7 706.7 85.5L706.7 85.5Q706.7 85.6 706.7 85.8L706.7 85.8Q706.7 86.2 706.7 86.7Q706.7 87.2 706.7 87.6Q706.7 88.0 706.7 88.2L706.7 88.2L706.7 92ZM716.8 84.0L718.5 84.0L718.5 92L716.8 92L716.8 84.0ZM723.5 85.4L721.1 85.4L721.1 84.0L727.6 84.0L727.6 85.4L725.2 85.4L725.2 92L723.5 92L723.5 85.4ZM733.2 92.1L733.2 92.1Q732.2 92.1 731.5 91.8Q730.8 91.5 730.4 90.9Q730.0 90.4 730.0 89.5L730.0 89.5L731.6 89.5Q731.6 89.9 731.8 90.2Q732.0 90.5 732.4 90.6Q732.7 90.7 733.2 90.7L733.2 90.7Q733.6 90.7 733.9 90.6Q734.3 90.5 734.5 90.2Q734.6 90.0 734.6 89.7L734.6 89.7Q734.6 89.4 734.5 89.3Q734.3 89.1 734.0 88.9Q733.7 88.8 733.3 88.7L733.3 88.7L732.4 88.5Q731.4 88.2 730.8 87.7Q730.2 87.2 730.2 86.3L730.2 86.3Q730.2 85.6 730.6 85.0Q731.0 84.5 731.7 84.2Q732.3 83.9 733.2 83.9L733.2 83.9Q734.1 83.9 734.8 84.2Q735.4 84.5 735.8 85.0Q736.2 85.6 736.2 86.3L736.2 86.3L734.6 86.3Q734.6 85.8 734.2 85.5Q733.8 85.3 733.2 85.3L733.2 85.3Q732.8 85.3 732.5 85.4Q732.2 85.5 732.0 85.7Q731.9 85.9 731.9 86.2L731.9 86.2Q731.9 86.5 732.1 86.7Q732.2 86.9 732.5 87.0Q732.8 87.1 733.2 87.2L733.2 87.2L733.9 87.4Q734.4 87.5 734.8 87.7Q735.3 87.9 735.6 88.2Q735.9 88.4 736.1 88.8Q736.3 89.2 736.3 89.7L736.3 89.7Q736.3 90.4 735.9 91.0Q735.6 91.5 734.9 91.8Q734.2 92.1 733.2 92.1Z "/></g></svg>