<!-- Generated by readme-aura https://github.com/collectioneur/readme-aura -->
<svg width="860" height="140" viewBox="0 0 860 140" xmlns="http://www.w3.org/2000/svg"><defs><clipPath id="satori_bc-id"><path x="0" y="0" width="860" height="140" d="M16,0 h828 a16,16 0 0 1 16,16 v108 a16,16 0 0 1 -16,16 h-828 a16,16 0 0 1 -16,-16 v-108 a16,16 0 0 1 16,-16"/></clipPath></defs><clipPath id="satori_cp-id"><path x="0" y="0" width="860" height="140" d="M16,0 h828 a16,16 0 0 1 16,16 v108 a16,16 0 0 1 -16,16 h-828 a16,16 0 0 1 -16,-16 v-108 a16,16 0 0 1 16,-16"/></clipPath><mask id="satori_om-id"><rect x="1" y="1" width="858" height="138" fill="#fff"/><path width="860" height="140" fill="none" stroke="#000" stroke-width="2" d="M4.686,4.686 A16,16 0 0 1 16,0 h828 a16,16 0 0 1 16,16 v108 a16,16 0 0 1 -16,16 h-828 a16,16 0 0 1 -16,-16 v-108 A16,16 0 0 1 4.686,4.686"/></mask><path x="0" y="0" width="860" height="140" fill="#08080c" d="M16,0 h828 a16,16 0 0 1 16,16 v108 a16,16 0 0 1 -16,16 h-828 a16,16 0 0 1 -16,-16 v-108 a16,16 0 0 1 16,-16"/><path width="860" height="140" clip-path="url(#satori_bc-id)" fill="none" stroke="rgba(110,80,220,0.18)" stroke-width="2" d="M4.686,4.686 A16,16 0 0 1 16,0 h828 a16,16 0 0 1 16,16 v108 a16,16 0 0 1 -16,16 h-828 a16,16 0 0 1 -16,-16 v-108 A16,16 0 0 1 4.686,4.686"/><clipPath id="satori_cp-id-0" clip-path="url(#satori_cp-id)"><rect x="1" y="1" width="860" height="140"/></clipPath><mask id="satori_om-id-0"><rect x="1" y="1" width="860" height="140" fill="#fff" mask="url(#satori_om-id)"/></mask><svg x="1" y="1" width="860" height="140" preserveAspectRatio="none" clip-path="url(#satori_cp-id-0)" mask="url(#satori_om-id-0)"><defs><radialGradient id="g1" cx="50%" cy="50%" r="50%"><stop offset="0%" stop-color="rgba(110,20,210,0.65)"></stop><stop offset="45%" stop-color="rgba(80,15,170,0.28)"></stop><stop offset="70%" stop-color="rgba(80,15,170,0)"></stop></radialGradient><radialGradient id="g2" cx="50%" cy="50%" r="50%"><stop offset="0%" stop-color="rgba(40,70,255,0.55)"></stop><stop offset="45%" stop-color="rgba(20,50,200,0.22)"></stop><stop offset="70%" stop-color="rgba(20,50,200,0)"></stop></radialGradient><radialGradient id="g3" cx="50%" cy="50%" r="50%"><stop offset="0%" stop-color="rgba(0,140,255,0.42)"></stop><stop offset="70%" stop-color="rgba(0,140,255,0)"></stop></radialGradient><radialGradient id="g4" cx="50%" cy="50%" r="50%"><stop offset="0%" stop-color="rgba(0,195,235,0.30)"></stop><stop offset="70%" stop-color="rgba(0,195,235,0)"></stop></radialGradient><radialGradient id="g5" cx="50%" cy="50%" r="50%"><stop offset="0%" stop-color="rgba(100,30,210,0.40)"></stop><stop offset="70%" stop-color="rgba(100,30,210,0)"></stop></radialGradient></defs><ellipse id="glow-1" cx="710" cy="150" rx="210" ry="150" fill="url(#g1)"></ellipse><ellipse id="glow-2" cx="550" cy="140" rx="190" ry="140" fill="url(#g2)"></ellipse><ellipse id="glow-3" cx="400" cy="130" rx="170" ry="130" fill="url(#g3)"></ellipse><ellipse id="glow-4" cx="250" cy="140" rx="150" ry="120" fill="url(#g4)"></ellipse><ellipse id="glow-5" cx="100" cy="150" rx="130" ry="110" fill="url(#g5)"></ellipse><style>

         @keyframes float-slow {
           0%, 100% { transform: translateX(0px); opacity: 0.8; }
           50% { transform: translateX(350px); opacity: 1.2; }
         }
         @keyframes float-medium {
           0%, 100% { transform: translateX(0px); opacity: 0.7; }
           50% { transform: translateX(-250px); opacity: 1.1; }
         }
         @keyframes float-fast {
           0%, 100% { transform: translateX(0px); opacity: 0.9; }
           50% { transform: translateX(200px); opacity: 0.6; }
         }
         @keyframes float-diagonal {
           0%, 100% { transform: translate(0px, 0px); opacity: 0.75; }
           50% { transform: translate(120px, 30px); opacity: 1.0; }
         }
         @keyframes float-wave {
           0%, 100% { transform: translateX(0px); opacity: 0.65; }
           33% { transform: translateX(-160px); opacity: 0.9; }
           66% { transform: translateX(80px); opacity: 1.0; }
         }
         @keyframes float-pulse {
           0%, 100% { transform: scale(1); opacity: 0.8; }
           50% { transform: scale(1.3); opacity: 0.4; }
         }
         #glow-1 { animation: float-slow 8s ease-in-out infinite; }
         #glow-2 { animation: float-medium 12s ease-in-out infinite; }
         #glow-3 { animation: float-fast 9s ease-in-out infinite; }
         #glow-4 { animation: float-diagonal 10s ease-in-out infinite; }
         #glow-5 { animation: float-wave 14s ease-in-out infinite; }
       
</style>
</svg><mask id="satori_om-id-0-0"><rect x="1" y="1" width="0" height="140" fill="#fff" mask="url(#satori_om-id)"/></mask><mask id="satori_om-id-0-0-0"><rect x="1" y="1" width="0" height="140" fill="#fff" mask="url(#satori_om-id)"/></mask><mask id="satori_om-id-0-0-0-0"><rect x="1" y="1" width="0" height="140" fill="#fff" mask="url(#satori_om-id)"/></mask><mask id="satori_om-id-0-0-0-1"><rect x="1" y="1" width="0" height="140" fill="#fff" mask="url(#satori_om-id)"/></mask><mask id="satori_om-id-0-0-0-2"><rect x="1" y="1" width="0" height="140" fill="#fff" mask="url(#satori_om-id)"/></mask><mask id="satori_om-id-0-0-1"><rect x="1" y="1" width="0" height="140" fill="#fff" mask="url(#satori_om-id)"/></mask><mask id="satori_om-id-0-0-1-0"><rect x="1" y="1" width="0" height="140" fill="#fff" mask="url(#satori_om-id)"/></mask><mask id="satori_om-id-0-0-1-1"><rect x="1" y="1" width="0" height="140" fill="#fff" mask="url(#satori_om-id)"/></mask><mask id="satori_om-id-0-0-1-2"><rect x="1" y="1" width="0" height="140" fill="#fff" mask="url(#satori_om-id)"/></mask><mask id="satori_om-id-0-0-2"><rect x="1" y="1" width="0" height="140" fill="#fff" mask="url(#satori_om-id)"/></mask><mask id="satori_om-id-0-0-2-0"><rect x="1" y="1" width="0" height="140" fill="#fff" mask="url(#satori_om-id)"/></mask><mask id="satori_om-id-0-0-2-1"><rect x="1" y="1" width="0" height="140" fill="#fff" mask="url(#satori_om-id)"/></mask><mask id="satori_om-id-0-0-3"><rect x="1" y="1" width="0" height="140" fill="#fff" mask="url(#satori_om-id)"/></mask><mask id="satori_om-id-0-0-3-0"><rect x="1" y="1" width="0" height="140" fill="#fff" mask="url(#satori_om-id)"/></mask><mask id="satori_om-id-0-0-3-1"><rect x="1" y="1" width="0" height="140" fill="#fff" mask="url(#satori_om-id)"/></mask><mask id="satori_om-id-0-0-4"><rect x="1" y="1" width="0" height="140" fill="#fff" mask="url(#satori_om-id)"/></mask><mask id="satori_om-id-0-0-4-0"><rect x="1" y="1" width="0" height="140" fill="#fff" mask="url(#satori_om-id)"/></mask><mask id="satori_om-id-0-0-4-1"><rect x="1" y="1" width="0" height="140" fill="#fff" mask="url(#satori_om-id)"/></mask><mask id="satori_om-id-0-1"><rect x="1" y="1" width="0" height="140" fill="#fff" mask="url(#satori_om-id)"/></mask><mask id="satori_om-id-0-2"><rect x="1" y="1" width="0" height="140" fill="#fff" mask="url(#satori_om-id)"/></mask><mask id="satori_om-id-0-3"><rect x="1" y="1" width="0" height="140" fill="#fff" mask="url(#satori_om-id)"/></mask><mask id="satori_om-id-0-4"><rect x="1" y="1" width="0" height="140" fill="#fff" mask="url(#satori_om-id)"/></mask><mask id="satori_om-id-0-5"><rect x="1" y="1" width="0" height="140" fill="#fff" mask="url(#satori_om-id)"/></mask><defs><clipPath id="satori_bc-id-1" clip-path="url(#satori_cp-id)"><rect x="1" y="30" width="276" height="80"/></clipPath></defs><mask id="satori_om-id-1"><rect x="1" y="30" width="275" height="80" fill="#fff" mask="url(#satori_om-id)"/><path width="276" height="80" fill="none" stroke="#000" stroke-width="2" d="M277,30 A0,0 0 0 1 277,30 v80 A0,0 0 0 1 277,110"/></mask><path width="276" height="80" clip-path="url(#satori_bc-id-1)" fill="none" stroke="rgba(255,255,255,0.06)" stroke-width="2" d="M277,30 A0,0 0 0 1 277,30 v80 A0,0 0 0 1 277,110"/><mask id="satori_om-id-1-0"><rect x="123" y="46" width="32" height="30" fill="#fff" mask="url(#satori_om-id)"/></mask><g mask="url(#satori_om-id)" clip-path="url(#satori_cp-id)"><path fill="#a78bfa" d="M129.2 50.2L134.0 50.2L134.0 72L129.5 72L129.5 54.1L129.4 54.1L124.4 57.7L124.4 53.6L129.2 50.2ZM153.2 72L137.8 72L137.8 68.8L145.5 61.5Q146.5 60.6 147.2 59.8Q147.8 59.0 148.2 58.2Q148.6 57.5 148.6 56.6L148.6 56.6Q148.6 55.6 148.1 54.9Q147.7 54.2 146.9 53.8Q146.2 53.5 145.2 53.5L145.2 53.5Q144.2 53.5 143.4 53.9Q142.6 54.3 142.2 55.0Q141.8 55.8 141.8 56.9L141.8 56.9L137.5 56.9Q137.5 54.7 138.5 53.2Q139.5 51.6 141.2 50.7Q143.0 49.9 145.2 49.9L145.2 49.9Q147.5 49.9 149.3 50.7Q151.0 51.5 151.9 53.0Q152.9 54.4 152.9 56.3L152.9 56.3Q152.9 57.5 152.4 58.7Q151.9 59.9 150.7 61.4Q149.5 62.9 147.3 64.9L147.3 64.9L144.0 68.2L144.0 68.3L153.2 68.3L153.2 72Z "/></g><mask id="satori_om-id-1-1"><rect x="116" y="81" width="45" height="13" fill="#fff" mask="url(#satori_om-id)"/></mask><g mask="url(#satori_om-id)" clip-path="url(#satori_cp-id)"><path fill="rgba(200,195,225,0.45)" d="M118.4 92L116.7 92L116.7 84.0L119.8 84.0Q120.8 84.0 121.4 84.3Q122.0 84.6 122.4 85.2Q122.7 85.8 122.7 86.6Q122.7 87.4 122.4 88.0Q122.0 88.5 121.4 88.8L121.4 88.8Q121.3 88.9 121.3 88.9L121.3 88.9L123.0 92L121.2 92L119.6 89.1L118.4 89.1L118.4 92ZM118.4 85.4L118.4 87.8L119.5 87.8Q120.0 87.8 120.4 87.7Q120.7 87.5 120.9 87.3Q121.0 87.0 121.0 86.6L121.0 86.6Q121.0 86.2 120.9 85.9Q120.7 85.6 120.4 85.5Q120.0 85.4 119.5 85.4L119.5 85.4L118.4 85.4ZM130.8 92L125.4 92L125.4 84.0L130.8 84.0L130.8 85.4L127.1 85.4L127.1 87.3L130.5 87.3L130.5 88.6L127.1 88.6L127.1 90.6L130.8 90.6L130.8 92ZM135.3 92L133.6 92L133.6 84.0L136.8 84.0Q137.7 84.0 138.3 84.3Q138.9 84.7 139.3 85.3Q139.6 85.9 139.6 86.7L139.6 86.7Q139.6 87.5 139.3 88.1Q138.9 88.7 138.3 89.0Q137.6 89.4 136.7 89.4L136.7 89.4L135.3 89.4L135.3 92ZM135.3 85.4L135.3 88.1L136.5 88.1Q137.0 88.1 137.3 87.9Q137.6 87.7 137.8 87.4Q137.9 87.1 137.9 86.7Q137.9 86.3 137.8 86.0Q137.6 85.7 137.3 85.5Q137.0 85.4 136.4 85.4L136.4 85.4L135.3 85.4ZM145.8 92.1L145.8 92.1Q144.7 92.1 143.9 91.6Q143.0 91.1 142.5 90.2Q142.0 89.3 142.0 88.0L142.0 88.0Q142.0 86.7 142.5 85.8Q143.0 84.9 143.9 84.4Q144.7 83.9 145.8 83.9L145.8 83.9Q146.8 83.9 147.7 84.4Q148.5 84.9 149.0 85.8Q149.5 86.7 149.5 88.0L149.5 88.0Q149.5 89.3 149.0 90.2Q148.5 91.1 147.7 91.6Q146.8 92.1 145.8 92.1ZM145.8 90.7L145.8 90.7Q146.4 90.7 146.9 90.3Q147.3 90.0 147.6 89.5Q147.8 88.9 147.8 88.0L147.8 88.0Q147.8 87.1 147.6 86.5Q147.3 86.0 146.9 85.6Q146.4 85.3 145.8 85.3L145.8 85.3Q145.2 85.3 144.7 85.7Q144.2 86.0 144.0 86.6Q143.7 87.1 143.7 88.0L143.7 88.0Q143.7 88.9 144.0 89.4Q144.2 90.0 144.7 90.3Q145.2 90.7 145.8 90.7ZM155.2 92.1L155.2 92.1Q154.2 92.1 153.5 91.8Q152.8 91.5 152.4 90.9Q152.0 90.4 152.0 89.5L152.0 89.5L153.6 89.5Q153.6 89.9 153.8 90.2Q154.0 90.5 154.4 90.6Q154.7 90.7 155.2 90.7L155.2 90.7Q155.6 90.7 155.9 90.6Q156.2 90.5 156.4 90.2Q156.6 90.0 156.6 89.7L156.6 89.7Q156.6 89.4 156.4 89.3Q156.3 89.1 156.0 88.9Q155.7 88.8 155.2 88.7L155.2 88.7L154.3 88.5Q153.3 88.2 152.8 87.7Q152.2 87.2 152.2 86.3L152.2 86.3Q152.2 85.6 152.6 85.0Q153.0 84.5 153.6 84.2Q154.3 83.9 155.2 83.9L155.2 83.9Q156.1 83.9 156.7 84.2Q157.4 84.5 157.8 85.0Q158.1 85.6 158.1 86.3L158.1 86.3L156.6 86.3Q156.5 85.8 156.2 85.5Q155.8 85.3 155.2 85.3L155.2 85.3Q154.8 85.3 154.5 85.4Q154.2 85.5 154.0 85.7Q153.9 85.9 153.9 86.2L153.9 86.2Q153.9 86.5 154.0 86.7Q154.2 86.9 154.5 87.0Q154.8 87.1 155.1 87.2L155.1 87.2L155.9 87.4Q156.4 87.5 156.8 87.7Q157.2 87.9 157.6 88.2Q157.9 88.4 158.1 88.8Q158.3 89.2 158.3 89.7L158.3 89.7Q158.3 90.4 157.9 91.0Q157.5 91.5 156.8 91.8Q156.1 92.1 155.2 92.1Z "/></g><defs><clipPath id="satori_bc-id-2" clip-path="url(#satori_cp-id)"><rect x="277" y="30" width="276" height="80"/></clipPath></defs><mask id="satori_om-id-2"><rect x="277" y="30" width="275" height="80" fill="#fff" mask="url(#satori_om-id)"/><path width="276" height="80" fill="none" stroke="#000" stroke-width="2" d="M553,30 A0,0 0 0 1 553,30 v80 A0,0 0 0 1 553,110"/></mask><path width="276" height="80" clip-path="url(#satori_bc-id-2)" fill="none" stroke="rgba(255,255,255,0.06)" stroke-width="2" d="M553,30 A0,0 0 0 1 553,30 v80 A0,0 0 0 1 553,110"/><mask id="satori_om-id-2-0"><rect x="395" y="46" width="40" height="30" fill="#fff" mask="url(#satori_om-id)"/></mask><g mask="url(#satori_om-id)" clip-path="url(#satori_cp-id)"><path fill="#60a5fa" d="M406.9 68.1L396.5 68.1L396.5 64.6L405.6 50.2L411.2 50.2L411.2 64.5L413.9 64.5L413.9 68.1L411.2 68.1L411.2 72L406.9 72L406.9 68.1ZM401.0 64.5L407.0 64.5L407.0 55.1L406.8 55.1L401.0 64.3L401.0 64.5ZM424.6 72.3L424.6 72.3Q422.5 72.3 420.8 71.5Q419.1 70.6 418.1 69.2Q417.1 67.7 416.9 65.9L416.9 65.9L421.3 65.9Q421.6 67.1 422.4 67.8Q423.3 68.5 424.6 68.5L424.6 68.5Q426.0 68.5 427.0 67.6Q428.0 66.8 428.5 65.2Q429.0 63.6 429.0 61.5L429.0 61.5L428.9 61.5Q428.4 62.4 427.6 63.1Q426.7 63.8 425.7 64.1Q424.6 64.5 423.4 64.5L423.4 64.5Q421.5 64.5 419.9 63.6Q418.4 62.7 417.5 61.1Q416.7 59.5 416.7 57.5L416.7 57.5Q416.7 55.2 417.7 53.5Q418.7 51.8 420.5 50.8Q422.4 49.8 424.8 49.9L424.8 49.9Q426.5 49.9 428.0 50.4Q429.5 51.0 430.7 52.2Q432.0 53.5 432.7 55.5Q433.4 57.6 433.4 60.6L433.4 60.6Q433.4 63.3 432.8 65.5Q432.2 67.7 431.0 69.2Q429.9 70.7 428.2 71.5Q426.6 72.3 424.6 72.3ZM424.8 61.2L424.8 61.2Q425.6 61.2 426.3 60.9Q427.0 60.6 427.5 60.1Q428.0 59.5 428.3 58.8Q428.6 58.1 428.6 57.3L428.6 57.3Q428.6 56.3 428.1 55.4Q427.6 54.5 426.7 54.0Q425.9 53.4 424.8 53.4L424.8 53.4Q423.7 53.4 422.9 53.9Q422.0 54.5 421.5 55.4Q421.0 56.2 421.0 57.3L421.0 57.3Q421.0 58.4 421.5 59.3Q422.0 60.2 422.8 60.7Q423.7 61.2 424.8 61.2Z "/></g><mask id="satori_om-id-2-1"><rect x="392" y="81" width="45" height="13" fill="#fff" mask="url(#satori_om-id)"/></mask><g mask="url(#satori_om-id)" clip-path="url(#satori_cp-id)"><path fill="rgba(200,195,225,0.45)" d="M395.7 92.1L395.7 92.1Q394.7 92.1 394.0 91.8Q393.3 91.5 392.9 90.9Q392.5 90.4 392.5 89.5L392.5 89.5L394.1 89.5Q394.1 89.9 394.3 90.2Q394.5 90.5 394.9 90.6Q395.2 90.7 395.6 90.7L395.6 90.7Q396.1 90.7 396.4 90.6Q396.7 90.5 396.9 90.2Q397.1 90.0 397.1 89.7L397.1 89.7Q397.1 89.4 396.9 89.3Q396.8 89.1 396.5 88.9Q396.2 88.8 395.7 88.7L395.7 88.7L394.8 88.5Q393.8 88.2 393.2 87.7Q392.7 87.2 392.7 86.3L392.7 86.3Q392.7 85.6 393.1 85.0Q393.5 84.5 394.1 84.2Q394.8 83.9 395.7 83.9L395.7 83.9Q396.6 83.9 397.2 84.2Q397.9 84.5 398.3 85.0Q398.6 85.6 398.6 86.3L398.6 86.3L397.1 86.3Q397.0 85.8 396.6 85.5Q396.3 85.3 395.7 85.3L395.7 85.3Q395.2 85.3 395.0 85.4Q394.7 85.5 394.5 85.7Q394.4 85.9 394.4 86.2L394.4 86.2Q394.4 86.5 394.5 86.7Q394.7 86.9 395.0 87.0Q395.3 87.1 395.6 87.2L395.6 87.2L396.4 87.4Q396.9 87.5 397.3 87.7Q397.7 87.9 398.1 88.2Q398.4 88.4 398.6 88.8Q398.7 89.2 398.7 89.7L398.7 89.7Q398.7 90.4 398.4 91.0Q398.0 91.5 397.3 91.8Q396.6 92.1 395.7 92.1ZM403.6 85.4L401.1 85.4L401.1 84.0L407.6 84.0L407.6 85.4L405.2 85.4L405.2 92L403.6 92L403.6 85.4ZM411.6 92L409.8 92L412.5 84.0L414.7 84.0L417.5 92L415.7 92L415.1 90.1L412.2 90.1L411.6 92ZM412.6 88.9L414.6 88.9L414.4 88.1Q414.2 87.4 413.9 86.5L413.9 86.5Q413.8 85.9 413.6 85.3L413.6 85.3Q413.4 85.9 413.3 86.5L413.3 86.5Q413.1 87.4 412.9 88.1L412.9 88.1L412.6 88.9ZM421.6 92L420.0 92L420.0 84.0L423.1 84.0Q424.0 84.0 424.7 84.3Q425.3 84.6 425.6 85.2Q426.0 85.8 426.0 86.6Q426.0 87.4 425.6 88.0Q425.3 88.5 424.6 88.8L424.6 88.8Q424.6 88.9 424.5 88.9L424.5 88.9L426.3 92L424.4 92L422.9 89.1L421.6 89.1L421.6 92ZM421.6 85.4L421.6 87.8L422.8 87.8Q423.3 87.8 423.6 87.7Q424.0 87.5 424.1 87.3Q424.3 87.0 424.3 86.6L424.3 86.6Q424.3 86.2 424.1 85.9Q424.0 85.6 423.6 85.5Q423.3 85.4 422.8 85.4L422.8 85.4L421.6 85.4ZM431.6 92.1L431.6 92.1Q430.7 92.1 430.0 91.8Q429.3 91.5 428.9 90.9Q428.5 90.4 428.4 89.5L428.4 89.5L430.0 89.5Q430.1 89.9 430.3 90.2Q430.5 90.5 430.8 90.6Q431.2 90.7 431.6 90.7L431.6 90.7Q432.1 90.7 432.4 90.6Q432.7 90.5 432.9 90.2Q433.1 90.0 433.1 89.7L433.1 89.7Q433.1 89.4 432.9 89.3Q432.8 89.1 432.4 88.9Q432.1 88.8 431.7 88.7L431.7 88.7L430.8 88.5Q429.8 88.2 429.2 87.7Q428.7 87.2 428.7 86.3L428.7 86.3Q428.7 85.6 429.0 85.0Q429.4 84.5 430.1 84.2Q430.8 83.9 431.7 83.9L431.7 83.9Q432.5 83.9 433.2 84.2Q433.9 84.5 434.2 85.0Q434.6 85.6 434.6 86.3L434.6 86.3L433.0 86.3Q433.0 85.8 432.6 85.5Q432.3 85.3 431.6 85.3L431.6 85.3Q431.2 85.3 430.9 85.4Q430.6 85.5 430.5 85.7Q430.3 85.9 430.3 86.2L430.3 86.2Q430.3 86.5 430.5 86.7Q430.7 86.9 431.0 87.0Q431.3 87.1 431.6 87.2L431.6 87.2L432.3 87.4Q432.8 87.5 433.3 87.7Q433.7 87.9 434.0 88.2Q434.4 88.4 434.5 88.8Q434.7 89.2 434.7 89.7L434.7 89.7Q434.7 90.4 434.4 91.0Q434.0 91.5 433.3 91.8Q432.6 92.1 431.6 92.1Z "/></g><mask id="satori_om-id-3"><rect x="553" y="30" width="306" height="80" fill="#fff" mask="url(#satori_om-id)"/></mask><mask id="satori_om-id-3-0"><rect x="668" y="46" width="76" height="30" fill="#fff" mask="url(#satori_om-id)"/></mask><g mask="url(#satori_om-id)" clip-path="url(#satori_cp-id)"><path fill="#f59e0b" d="M685.3 72L669.8 72L669.8 68.8L677.6 61.5Q678.5 60.6 679.2 59.8Q679.9 59.0 680.3 58.2Q680.6 57.5 680.6 56.6L680.6 56.6Q680.6 55.6 680.2 54.9Q679.7 54.2 679.0 53.8Q678.2 53.5 677.2 53.5L677.2 53.5Q676.2 53.5 675.5 53.9Q674.7 54.3 674.3 55.0Q673.9 55.8 673.9 56.9L673.9 56.9L669.6 56.9Q669.6 54.7 670.6 53.2Q671.6 51.6 673.3 50.7Q675.0 49.9 677.3 49.9L677.3 49.9Q679.6 49.9 681.3 50.7Q683.0 51.5 684.0 53.0Q685.0 54.4 685.0 56.3L685.0 56.3Q685.0 57.5 684.5 58.7Q684.0 59.9 682.8 61.4Q681.6 62.9 679.3 64.9L679.3 64.9L676.0 68.2L676.0 68.3L685.3 68.3L685.3 72ZM704.2 72L688.7 72L688.7 68.8L696.4 61.5Q697.4 60.6 698.1 59.8Q698.8 59.0 699.2 58.2Q699.5 57.5 699.5 56.6L699.5 56.6Q699.5 55.6 699.1 54.9Q698.6 54.2 697.9 53.8Q697.1 53.5 696.1 53.5L696.1 53.5Q695.1 53.5 694.4 53.9Q693.6 54.3 693.2 55.0Q692.8 55.8 692.8 56.9L692.8 56.9L688.5 56.9Q688.5 54.7 689.5 53.2Q690.5 51.6 692.2 50.7Q693.9 49.9 696.2 49.9L696.2 49.9Q698.5 49.9 700.2 50.7Q701.9 51.5 702.9 53.0Q703.9 54.4 703.9 56.3L703.9 56.3Q703.9 57.5 703.4 58.7Q702.9 59.9 701.7 61.4Q700.5 62.9 698.2 64.9L698.2 64.9L694.9 68.2L694.9 68.3L704.2 68.3L704.2 72ZM715.1 72.3L715.1 72.3Q713.0 72.3 711.3 71.5Q709.6 70.6 708.6 69.2Q707.6 67.7 707.4 65.9L707.4 65.9L711.8 65.9Q712.1 67.1 712.9 67.8Q713.8 68.5 715.1 68.5L715.1 68.5Q716.5 68.5 717.5 67.6Q718.5 66.8 719.0 65.2Q719.5 63.6 719.5 61.5L719.5 61.5L719.4 61.5Q718.9 62.4 718.1 63.1Q717.2 63.8 716.2 64.1Q715.1 64.5 713.9 64.5L713.9 64.5Q712.0 64.5 710.4 63.6Q708.9 62.7 708.0 61.1Q707.2 59.5 707.2 57.5L707.2 57.5Q707.2 55.2 708.2 53.5Q709.2 51.8 711.1 50.8Q712.9 49.8 715.3 49.9L715.3 49.9Q717.0 49.9 718.5 50.4Q720.0 51.0 721.3 52.2Q722.5 53.5 723.2 55.5Q723.9 57.6 723.9 60.6L723.9 60.6Q723.9 63.3 723.3 65.5Q722.7 67.7 721.5 69.2Q720.4 70.7 718.7 71.5Q717.1 72.3 715.1 72.3ZM715.3 61.2L715.3 61.2Q716.1 61.2 716.8 60.9Q717.5 60.6 718.0 60.1Q718.5 59.5 718.8 58.8Q719.1 58.1 719.1 57.3L719.1 57.3Q719.1 56.3 718.6 55.4Q718.1 54.5 717.2 54.0Q716.4 53.4 715.3 53.4L715.3 53.4Q714.2 53.4 713.4 53.9Q712.5 54.5 712.0 55.4Q711.5 56.2 711.5 57.3L711.5 57.3Q711.5 58.4 712.0 59.3Q712.5 60.2 713.3 60.7Q714.2 61.2 715.3 61.2ZM734.5 72.3L734.5 72.3Q732.2 72.3 730.5 71.5Q728.7 70.6 727.7 69.2Q726.7 67.7 726.6 65.9L726.6 65.9L731.0 65.9Q731.0 66.7 731.5 67.4Q732.0 68.0 732.8 68.4Q733.6 68.7 734.5 68.7L734.5 68.7Q735.6 68.7 736.4 68.3Q737.3 67.8 737.7 66.9Q738.2 66.0 738.2 64.9L738.2 64.9Q738.2 63.7 737.7 62.8Q737.2 61.9 736.4 61.4Q735.5 60.9 734.4 60.9L734.4 60.9Q733.4 60.9 732.5 61.3Q731.6 61.7 731.1 62.3L731.1 62.3L727.1 61.6L728.1 50.2L741.4 50.2L741.4 53.9L731.9 53.9L731.3 59.4L731.4 59.4Q732.0 58.6 733.1 58.1Q734.3 57.6 735.7 57.6L735.7 57.6Q737.2 57.6 738.4 58.1Q739.7 58.6 740.6 59.6Q741.5 60.5 742.0 61.9Q742.6 63.2 742.6 64.7L742.6 64.7Q742.6 66.9 741.5 68.6Q740.5 70.3 738.7 71.3Q736.9 72.3 734.5 72.3Z "/></g><mask id="satori_om-id-3-1"><rect x="673" y="81" width="66" height="13" fill="#fff" mask="url(#satori_om-id)"/></mask><g mask="url(#satori_om-id)" clip-path="url(#satori_cp-id)"><path fill="rgba(200,195,225,0.45)" d="M677.2 92.1L677.2 92.1Q676.2 92.1 675.3 91.6Q674.5 91.1 674.0 90.2Q673.5 89.3 673.5 88.0L673.5 88.0Q673.5 86.7 674.0 85.8Q674.5 84.9 675.3 84.4Q676.2 83.9 677.2 83.9L677.2 83.9Q677.9 83.9 678.5 84.1Q679.1 84.3 679.5 84.6Q680.0 85.0 680.3 85.5Q680.6 86.1 680.7 86.7L680.7 86.7L679.0 86.7Q679.0 86.4 678.8 86.1Q678.6 85.9 678.4 85.7Q678.2 85.5 677.9 85.4Q677.6 85.3 677.3 85.3L677.3 85.3Q676.6 85.3 676.2 85.7Q675.7 86.0 675.4 86.6Q675.2 87.2 675.2 88.0L675.2 88.0Q675.2 88.9 675.4 89.5Q675.7 90.1 676.2 90.4Q676.6 90.7 677.2 90.7L677.2 90.7Q677.6 90.7 677.9 90.6Q678.2 90.5 678.4 90.3Q678.6 90.1 678.8 89.8Q679.0 89.6 679.0 89.3L679.0 89.3L680.7 89.3Q680.6 89.8 680.3 90.3Q680.1 90.8 679.6 91.2Q679.2 91.6 678.6 91.9Q678.0 92.1 677.2 92.1ZM686.9 92.1L686.9 92.1Q685.8 92.1 685.0 91.6Q684.1 91.1 683.6 90.2Q683.1 89.3 683.1 88.0L683.1 88.0Q683.1 86.7 683.6 85.8Q684.1 84.9 685.0 84.4Q685.8 83.9 686.9 83.9L686.9 83.9Q687.9 83.9 688.8 84.4Q689.6 84.9 690.1 85.8Q690.6 86.7 690.6 88.0L690.6 88.0Q690.6 89.3 690.1 90.2Q689.6 91.1 688.8 91.6Q687.9 92.1 686.9 92.1ZM686.9 90.7L686.9 90.7Q687.5 90.7 688.0 90.3Q688.4 90.0 688.7 89.5Q688.9 88.9 688.9 88.0L688.9 88.0Q688.9 87.1 688.7 86.5Q688.4 86.0 688.0 85.6Q687.5 85.3 686.9 85.3L686.9 85.3Q686.3 85.3 685.8 85.7Q685.3 86.0 685.1 86.6Q684.8 87.1 684.8 88.0L684.8 88.0Q684.8 88.9 685.1 89.4Q685.3 90.0 685.8 90.3Q686.3 90.7 686.9 90.7ZM695.0 92L693.3 92L693.3 84.0L695.9 84.0L697.2 87.7Q697.2 87.9 697.3 88.3Q697.4 88.7 697.5 89.2L697.5 89.2Q697.7 89.7 697.7 90.1L697.7 90.1Q697.8 89.7 697.9 89.2L697.9 89.2Q698.0 88.8 698.2 88.3Q698.3 87.9 698.3 87.7L698.3 87.7L699.6 84.0L702.1 84.0L702.1 92L700.5 92L700.5 88.2Q700.5 88.0 700.5 87.6Q700.5 87.2 700.5 86.7Q700.5 86.3 700.5 85.8L700.5 85.8Q700.6 85.6 700.6 85.4L700.6 85.4Q700.5 85.6 700.4 85.9L700.4 85.9Q700.3 86.3 700.2 86.8Q700.1 87.2 699.9 87.6Q699.8 88.0 699.8 88.2L699.8 88.2L698.4 92L697.0 92L695.7 88.2Q695.6 88.0 695.5 87.6Q695.4 87.2 695.3 86.8Q695.1 86.4 695.0 85.9L695.0 85.9Q695.0 85.7 694.9 85.5L694.9 85.5Q694.9 85.6 694.9 85.8L694.9 85.8Q694.9 86.2 694.9 86.7Q694.9 87.2 695.0 87.6Q695.0 88.0 695.0 88.2L695.0 88.2L695.0 92ZM706.7 92L705.1 92L705.1 84.0L707.6 84.0L708.9 87.7Q709.0 87.9 709.1 88.3Q709.2 88.7 709.3 89.2L709.3 89.2Q709.4 89.7 709.5 90.1L709.5 90.1Q709.6 89.7 709.7 89.2L709.7 89.2Q709.8 88.8 709.9 88.3Q710.0 87.9 710.1 87.7L710.1 87.7L711.4 84.0L713.9 84.0L713.9 92L712.2 92L712.2 88.2Q712.2 88.0 712.2 87.6Q712.3 87.2 712.3 86.7Q712.3 86.3 712.3 85.8L712.3 85.8Q712.3 85.6 712.3 85.4L712.3 85.4Q712.2 85.6 712.2 85.9L712.2 85.9Q712.1 86.3 711.9 86.8Q711.8 87.2 711.7 87.6Q711.6 88.0 711.5 88.2L711.5 88.2L710.2 92L708.8 92L707.4 88.2Q707.4 88.0 707.3 87.6Q707.1 87.2 707.0 86.8Q706.9 86.4 706.8 85.9L706.8 85.9Q706.7 85.7 706.7 85.5L706.7 85.5Q706.7 85.6 706.7 85.8L706.7 85.8Q706.7 86.2 706.7 86.7Q706.7 87.2 706.7 87.6Q706.7 88.0 706.7 88.2L706.7 88.2L706.7 92ZM716.8 84.0L718.5 84.0L718.5 92L716.8 92L716.8 84.0ZM723.5 85.4L721.1 85.4L721.1 84.0L727.6 84.0L727.6 85.4L725.2 85.4L725.2 92L723.5 92L723.5 85.4ZM733.2 92.1L733.2 92.1Q732.2 92.1 731.5 91.8Q730.8 91.5 730.4 90.9Q730.0 90.4 730.0 89.5L730.0 89.5L731.6 89.5Q731.6 89.9 731.8 90.2Q732.0 90.5 732.4 90.6Q732.7 90.7 733.2 90.7L733.2 90.7Q733.6 90.7 733.9 90.6Q734.3 90.5 734.5 90.2Q734.6 90.0 734.6 89.7L734.6 89.7Q734.6 89.4 734.5 89.3Q734.3 89.1 734.0 88.9Q733.7 88.8 733.3 88.7L733.3 88.7L732.4 88.5Q731.4 88.2 730.8 87.7Q730.2 87.2 730.2 86.3L730.2 86.3Q730.2 85.6 730.6 85.0Q731.0 84.5 731.7 84.2Q732.3 83.9 733.2 83.9L733.2 83.9Q734.1 83.9 734.8 84.2Q735.4 84.5 735.8 85.0Q736.2 85.6 736.2 86.3L736.2 86.3L734.6 86.3Q734.6 85.8 734.2 85.5Q733.8 85.3 733.2 85.3L733.2 85.3Q732.8 85.3 732.5 85.4Q732.2 85.5 732.0 85.7Q731.9 85.9 731.9 86.2L731.9 86.2Q731.9 86.5 732.1 86.7Q732.2 86.9 732.5 87.0Q732.8 87.1 733.2 87.2L733.2 87.2L733.9 87.4Q734.4 87.5 734.8 87.7Q735.3 87.9 735.6 88.2Q735.9 88.4 736.1 88.8Q736.3 89.2 736.3 89.7L736.3 89.7Q736.3 90.4 735.9 91.0Q735.6 91.5 734.9 91.8Q734.2 92.1 733.2 92.1Z "/></g></svg>