<!-- Generated by readme-aura https://github.com/collectioneur/readme-aura -->
<svg width="860" height="140" viewBox="0 0 860 140" xmlns="http://www.w3.org/2000/svg"><defs><clipPath id="satori_bc-id"><path x="0" y="0" width="860" height="140" d="M16,0 h828 a16,16 0 0 1 16,16 v108 a16,16 0 0 1 -16,16 h-828 a16,16 0 0 1 -16,-16 v-108 a16,16 0 0 1 16,-16"/></clipPath></defs><clipPath id="satori_cp-id"><path x="0" y="0" width="860" height="140" d="M16,0 h828 a16,16 0 0 1 16,16 v108 a16,16 0 0 1 -16,16 h-828 a16,16 0 0 1 -16,-16 v-108 a16,16 0 0 1 16,-16"/></clipPath><mask id="satori_om-id"><rect x="1" y="1" width="858" height="138" fill="#fff"/><path width="860" height="140" fill="none" stroke="#000" stroke-width="2" d="M4.686,4.686 A16,16 0 0 1 16,0 h828 a16,16 0 0 1 16,16 v108 a16,16 0 0 1 -16,16 h-828 a16,16 0 0 1 -16,-16 v-108 A16,16 0 0 1 4.686,4.686"/></mask><path x="0" y="0" width="860" height="140" fill="#08080c" d="M16,0 h828 a16,16 0 0 1 16,16 v108 a16,16 0 0 1 -16,16 h-828 a16,16 0 0 1 -16,-16 v-108 a16,16 0 0 1 16,-16"/><path width="860" height="140" clip-path="url(#satori_bc-id)" fill="none" stroke="rgba(110,80,220,0.18)" stroke-width="2" d="M4.686,4.686 A16,16 0 0 1 16,0 h828 a16,16 0 0 1 16,16 v108 a16,16 0 0 1 -16,16 h-828 a16,16 0 0 1 -16,-16 v-108 A16,16 0 0 1 4.686,4.686"/><clipPath id="satori_cp-id-0" clip-path="url(#satori_cp-id)"><rect x="1" y="1" width="860" height="140"/></clipPath><mask id="satori_om-id-0"><rect x="1" y="1" width="860" height="140" fill="#fff" mask="url(#satori_om-id)"/></mask><svg x="1" y="1" width="860" height="140" preserveAspectRatio="none" clip-path="url(#satori_cp-id-0)" mask="url(#satori_om-id-0)"><defs><radialGradient id="g1" cx="50%" cy="50%" r="50%"><stop offset="0%" stop-color="rgba(110,20,210,0.65)"></stop><stop offset="45%" stop-color="rgba(80,15,170,0.28)"></stop><stop offset="70%" stop-color="rgba(80,15,170,0)"></stop></radialGradient><radialGradient id="g2" cx="50%" cy="50%" r="50%"><stop offset="0%" stop-color="rgba(40,70,255,0.55)"></stop><stop offset="45%" stop-color="rgba(20,50,200,0.22)"></stop><stop offset="70%" stop-color="rgba(20,50,200,0)"></stop></radialGradient><radialGradient id="g3" cx="50%" cy="50%" r="50%"><stop offset="0%" stop-color="rgba(0,140,255,0.42)"></stop><stop offset="70%" stop-color="rgba(0,140,255,0)"></stop></radialGradient><radialGradient id="g4" cx="50%" cy="50%" r="50%"><stop offset="0%" stop-color="rgba(0,195,235,0.30)"></stop><stop offset="70%" stop-color="rgba(0,195,235,0)"></stop></radialGradient><radialGradient id="g5" cx="50%" cy="50%" r="50%"><stop offset="0%" stop-color="rgba(100,30,210,0.40)"></stop><stop offset="70%" stop-color="rgba(100,30,210,0)"></stop></radialGradient></defs><ellipse id="glow-1" cx="710" cy="150" rx="210" ry="150" fill="url(#g1)"></ellipse><ellipse id="glow-2" cx="550" cy="140" rx="190" ry="140" fill="url(#g2)"></ellipse><ellipse id="glow-3" cx="400" cy="130" rx="170" ry="130" fill="url(#g3)"></ellipse><ellipse id="glow-4" cx="250" cy="140" rx="150" ry="120" fill="url(#g4)"></ellipse><ellipse id="glow-5" cx="100" cy="150" rx="130" ry="110" fill="url(#g5)"></ellipse><style>

         @keyframes float-slow {
           0%, 100% { transform: translateX(0px); opacity: 0.8; }
           50% { transform: translateX(350px); opacity: 1.2; }
         }
         @keyframes float-medium {
           0%, 100% { transform: translateX(0px); opacity: 0.7; }
           50% { transform: translateX(-250px); opacity: 1.1; }
         }
         @keyframes float-fast {
           0%, 100% { transform: translateX(0px); opacity: 0.9; }
           50% { transform: translateX(200px); opacity: 0.6; }
         }
         @keyframes float-diagonal {
           0%, 100% { transform: translate(0px, 0px); opacity: 0.75; }
           50% { transform: translate(120px, 30px); opacity: 1.0; }
         }
         @keyframes float-wave {
           0%, 100% { transform: translateX(0px); opacity: 0.65; }
           33% { transform: translateX(-160px); opacity: 0.9; }
           66% { transform: translateX(80px); opacity: 1.0; }
         }
         @keyframes float-pulse {
           0%, 100% { transform: scale(1); opacity: 0.8; }
           50% { transform: scale(1.3); opacity: 0.4; }
         }
         #glow-1 { animation: float-slow 8s ease-in-out infinite; }
         #glow-2 { animation: float-medium 12s ease-in-out infinite; }
         #glow-3 { animation: float-fast 9s ease-in-out infinite; }
         #glow-4 { animation: float-diagonal 10s ease-in-out infinite; }
         #glow-5 { animation: float-wave 14s ease-in-out infinite; }
       
</style>
</svg><mask id="satori_om-id-0-0"><rect x="1" y="1" width="0" height="140" fill="#fff" mask="url(#satori_om-id)"/></mask><mask id="satori_om-id-0-0-0"><rect x="1" y="1" width="0" height="140" fill="#fff" mask="url(#satori_om-id)"/></mask><mask id="satori_om-id-0-0-0-0"><rect x="1" y="1" width="0" height="140" fill="#fff" mask="url(#satori_om-id)"/></mask><mask id="satori_om-id-0-0-0-1"><rect x="1" y="1" width="0" height="140" fill="#fff" mask="url(#satori_om-id)"/></mask><mask id="satori_om-id-0-0-0-2"><rect x="1" y="1" width="0" height="140" fill="#fff" mask="url(#satori_om-id)"/></mask><mask id="satori_om-id-0-0-1"><rect x="1" y="1" width="0" height="140" fill="#fff" mask="url(#satori_om-id)"/></mask><mask id="satori_om-id-0-0-1-0"><rect x="1" y="1" width="0" height="140" fill="#fff" mask="url(#satori_om-id)"/></mask><mask id="satori_om-id-0-0-1-1"><rect x="1" y="1" width="0" height="140" fill="#fff" mask="url(#satori_om-id)"/></mask><mask id="satori_om-id-0-0-1-2"><rect x="1" y="1" width="0" height="140" fill="#fff" mask="url(#satori_om-id)"/></mask><mask id="satori_om-id-0-0-2"><rect x="1" y="1" width="0" height="140" fill="#fff" mask="url(#satori_om-id)"/></mask><mask id="satori_om-id-0-0-2-0"><rect x="1" y="1" width="0" height="140" fill="#fff" mask="url(#satori_om-id)"/></mask><mask id="satori_om-id-0-0-2-1"><rect x="1" y="1" width="0" height="140" fill="#fff" mask="url(#satori_om-id)"/></mask><mask id="satori_om-id-0-0-3"><rect x="1" y="1" width="0" height="140" fill="#fff" mask="url(#satori_om-id)"/></mask><mask id="satori_om-id-0-0-3-0"><rect x="1" y="1" width="0" height="140" fill="#fff" mask="url(#satori_om-id)"/></mask><mask id="satori_om-id-0-0-3-1"><rect x="1" y="1" width="0" height="140" fill="#fff" mask="url(#satori_om-id)"/></mask><mask id="satori_om-id-0-0-4"><rect x="1" y="1" width="0" height="140" fill="#fff" mask="url(#satori_om-id)"/></mask><mask id="satori_om-id-0-0-4-0"><rect x="1" y="1" width="0" height="140" fill="#fff" mask="url(#satori_om-id)"/></mask><mask id="satori_om-id-0-0-4-1"><rect x="1" y="1" width="0" height="140" fill="#fff" mask="url(#satori_om-id)"/></mask><mask id="satori_om-id-0-1"><rect x="1" y="1" width="0" height="140" fill="#fff" mask="url(#satori_om-id)"/></mask><mask id="satori_om-id-0-2"><rect x="1" y="1" width="0" height="140" fill="#fff" mask="url(#satori_om-id)"/></mask><mask id="satori_om-id-0-3"><rect x="1" y="1" width="0" height="140" fill="#fff" mask="url(#satori_om-id)"/></mask><mask id="satori_om-id-0-4"><rect x="1" y="1" width="0" height="140" fill="#fff" mask="url(#satori_om-id)"/></mask><mask id="satori_om-id-0-5"><rect x="1" y="1" width="0" height="140" fill="#fff" mask="url(#satori_om-id)"/></mask><defs><clipPath id="satori_bc-id-1" clip-path="url(#satori_cp-id)"><rect x="1" y="30" width="275" height="80"/></clipPath></defs><mask id="satori_om-id-1"><rect x="1" y="30" width="274" height="80" fill="#fff" mask="url(#satori_om-id)"/><path width="275" height="80" fill="none" stroke="#000" stroke-width="2" d="M276,30 A0,0 0 0 1 276,30 v80 A0,0 0 0 1 276,110"/></mask><path width="275" height="80" clip-path="url(#satori_bc-id-1)" fill="none" stroke="rgba(255,255,255,0.06)" stroke-width="2" d="M276,30 A0,0 0 0 1 276,30 v80 A0,0 0 0 1 276,110"/><mask id="satori_om-id-1-0"><rect x="121" y="46" width="33" height="30" fill="#fff" mask="url(#satori_om-id)"/></mask><g mask="url(#satori_om-id)" clip-path="url(#satori_cp-id)"><path fill="#a78bfa" d="M127.2 50.2L132.0 50.2L132.0 72L127.5 72L127.5 54.1L127.4 54.1L122.4 57.7L122.4 53.6L127.2 50.2ZM143.6 72.3L143.6 72.3Q141.2 72.3 139.4 71.5Q137.5 70.7 136.5 69.2Q135.4 67.8 135.4 65.9L135.4 65.9L139.9 65.9Q139.9 66.7 140.4 67.3Q140.9 67.9 141.7 68.3Q142.6 68.6 143.6 68.6L143.6 68.6Q144.7 68.6 145.5 68.2Q146.3 67.8 146.8 67.2Q147.3 66.5 147.3 65.6L147.3 65.6Q147.3 64.7 146.8 64.0Q146.3 63.3 145.4 62.9Q144.5 62.5 143.2 62.5L143.2 62.5L141.2 62.5L141.2 59.2L143.2 59.2Q144.3 59.2 145.1 58.8Q145.9 58.5 146.3 57.8Q146.8 57.2 146.8 56.3L146.8 56.3Q146.8 55.4 146.4 54.8Q146.0 54.2 145.3 53.8Q144.6 53.5 143.6 53.5L143.6 53.5Q142.7 53.5 141.9 53.8Q141.1 54.1 140.6 54.8Q140.1 55.4 140.1 56.2L140.1 56.2L135.8 56.2Q135.8 54.4 136.9 52.9Q137.9 51.5 139.7 50.7Q141.4 49.9 143.7 49.9L143.7 49.9Q145.9 49.9 147.6 50.7Q149.3 51.5 150.2 52.9Q151.1 54.3 151.1 56.0L151.1 56.0Q151.1 57.8 150.0 59.1Q148.9 60.3 147.0 60.6L147.0 60.6L147.0 60.8Q148.6 61.0 149.7 61.7Q150.8 62.4 151.4 63.5Q151.9 64.5 151.9 65.9L151.9 65.9Q151.9 67.7 150.9 69.2Q149.8 70.6 147.9 71.5Q146.0 72.3 143.6 72.3Z "/></g><mask id="satori_om-id-1-1"><rect x="115" y="81" width="45" height="13" fill="#fff" mask="url(#satori_om-id)"/></mask><g mask="url(#satori_om-id)" clip-path="url(#satori_cp-id)"><path fill="rgba(200,195,225,0.45)" d="M117.4 92L115.7 92L115.7 84.0L118.8 84.0Q119.8 84.0 120.4 84.3Q121.0 84.6 121.4 85.2Q121.7 85.8 121.7 86.6Q121.7 87.4 121.4 88.0Q121.0 88.5 120.4 88.8L120.4 88.8Q120.3 88.9 120.3 88.9L120.3 88.9L122.0 92L120.2 92L118.6 89.1L117.4 89.1L117.4 92ZM117.4 85.4L117.4 87.8L118.5 87.8Q119.0 87.8 119.4 87.7Q119.7 87.5 119.9 87.3Q120.0 87.0 120.0 86.6L120.0 86.6Q120.0 86.2 119.9 85.9Q119.7 85.6 119.4 85.5Q119.0 85.4 118.5 85.4L118.5 85.4L117.4 85.4ZM129.8 92L124.4 92L124.4 84.0L129.8 84.0L129.8 85.4L126.1 85.4L126.1 87.3L129.5 87.3L129.5 88.6L126.1 88.6L126.1 90.6L129.8 90.6L129.8 92ZM134.3 92L132.6 92L132.6 84.0L135.8 84.0Q136.7 84.0 137.3 84.3Q137.9 84.7 138.3 85.3Q138.6 85.9 138.6 86.7L138.6 86.7Q138.6 87.5 138.3 88.1Q137.9 88.7 137.3 89.0Q136.6 89.4 135.7 89.4L135.7 89.4L134.3 89.4L134.3 92ZM134.3 85.4L134.3 88.1L135.5 88.1Q136.0 88.1 136.3 87.9Q136.6 87.7 136.8 87.4Q136.9 87.1 136.9 86.7Q136.9 86.3 136.8 86.0Q136.6 85.7 136.3 85.5Q136.0 85.4 135.4 85.4L135.4 85.4L134.3 85.4ZM144.8 92.1L144.8 92.1Q143.7 92.1 142.9 91.6Q142.0 91.1 141.5 90.2Q141.0 89.3 141.0 88.0L141.0 88.0Q141.0 86.7 141.5 85.8Q142.0 84.9 142.9 84.4Q143.7 83.9 144.8 83.9L144.8 83.9Q145.8 83.9 146.7 84.4Q147.5 84.9 148.0 85.8Q148.5 86.7 148.5 88.0L148.5 88.0Q148.5 89.3 148.0 90.2Q147.5 91.1 146.7 91.6Q145.8 92.1 144.8 92.1ZM144.8 90.7L144.8 90.7Q145.4 90.7 145.9 90.3Q146.3 90.0 146.6 89.5Q146.8 88.9 146.8 88.0L146.8 88.0Q146.8 87.1 146.6 86.5Q146.3 86.0 145.9 85.6Q145.4 85.3 144.8 85.3L144.8 85.3Q144.2 85.3 143.7 85.7Q143.2 86.0 143.0 86.6Q142.7 87.1 142.7 88.0L142.7 88.0Q142.7 88.9 143.0 89.4Q143.2 90.0 143.7 90.3Q144.2 90.7 144.8 90.7ZM154.2 92.1L154.2 92.1Q153.2 92.1 152.5 91.8Q151.8 91.5 151.4 90.9Q151.0 90.4 151.0 89.5L151.0 89.5L152.6 89.5Q152.6 89.9 152.8 90.2Q153.0 90.5 153.4 90.6Q153.7 90.7 154.2 90.7L154.2 90.7Q154.6 90.7 154.9 90.6Q155.2 90.5 155.4 90.2Q155.6 90.0 155.6 89.7L155.6 89.7Q155.6 89.4 155.4 89.3Q155.3 89.1 155.0 88.9Q154.7 88.8 154.2 88.7L154.2 88.7L153.3 88.5Q152.3 88.2 151.8 87.7Q151.2 87.2 151.2 86.3L151.2 86.3Q151.2 85.6 151.6 85.0Q152.0 84.5 152.6 84.2Q153.3 83.9 154.2 83.9L154.2 83.9Q155.1 83.9 155.7 84.2Q156.4 84.5 156.8 85.0Q157.1 85.6 157.1 86.3L157.1 86.3L155.6 86.3Q155.5 85.8 155.2 85.5Q154.8 85.3 154.2 85.3L154.2 85.3Q153.8 85.3 153.5 85.4Q153.2 85.5 153.0 85.7Q152.9 85.9 152.9 86.2L152.9 86.2Q152.9 86.5 153.0 86.7Q153.2 86.9 153.5 87.0Q153.8 87.1 154.1 87.2L154.1 87.2L154.9 87.4Q155.4 87.5 155.8 87.7Q156.2 87.9 156.6 88.2Q156.9 88.4 157.1 88.8Q157.3 89.2 157.3 89.7L157.3 89.7Q157.3 90.4 156.9 91.0Q156.5 91.5 155.8 91.8Q155.1 92.1 154.2 92.1Z "/></g><defs><clipPath id="satori_bc-id-2" clip-path="url(#satori_cp-id)"><rect x="276" y="30" width="275" height="80"/></clipPath></defs><mask id="satori_om-id-2"><rect x="276" y="30" width="274" height="80" fill="#fff" mask="url(#satori_om-id)"/><path width="275" height="80" fill="none" stroke="#000" stroke-width="2" d="M551,30 A0,0 0 0 1 551,30 v80 A0,0 0 0 1 551,110"/></mask><path width="275" height="80" clip-path="url(#satori_bc-id-2)" fill="none" stroke="rgba(255,255,255,0.06)" stroke-width="2" d="M551,30 A0,0 0 0 1 551,30 v80 A0,0 0 0 1 551,110"/><mask id="satori_om-id-2-0"><rect x="390" y="46" width="46" height="30" fill="#fff" mask="url(#satori_om-id)"/></mask><g mask="url(#satori_om-id)" clip-path="url(#satori_cp-id)"><path fill="#60a5fa" d="M396.2 50.2L401.0 50.2L401.0 72L396.5 72L396.5 54.1L396.4 54.1L391.4 57.7L391.4 53.6L396.2 50.2ZM409.1 50.2L413.9 50.2L413.9 72L409.4 72L409.4 54.1L409.3 54.1L404.3 57.7L404.3 53.6L409.1 50.2ZM425.5 72.3L425.5 72.3Q423.1 72.3 421.3 71.5Q419.5 70.7 418.4 69.2Q417.3 67.8 417.3 65.9L417.3 65.9L421.8 65.9Q421.9 66.7 422.4 67.3Q422.8 67.9 423.7 68.3Q424.5 68.6 425.5 68.6L425.5 68.6Q426.6 68.6 427.4 68.2Q428.3 67.8 428.7 67.2Q429.2 66.5 429.2 65.6L429.2 65.6Q429.2 64.7 428.7 64.0Q428.2 63.3 427.3 62.9Q426.4 62.5 425.1 62.5L425.1 62.5L423.1 62.5L423.1 59.2L425.1 59.2Q426.2 59.2 427.0 58.8Q427.8 58.5 428.3 57.8Q428.7 57.2 428.7 56.3L428.7 56.3Q428.7 55.4 428.3 54.8Q427.9 54.2 427.2 53.8Q426.5 53.5 425.6 53.5L425.6 53.5Q424.6 53.5 423.8 53.8Q423.0 54.1 422.5 54.8Q422.1 55.4 422.1 56.2L422.1 56.2L417.7 56.2Q417.8 54.4 418.8 52.9Q419.8 51.5 421.6 50.7Q423.4 49.9 425.6 49.9L425.6 49.9Q427.8 49.9 429.5 50.7Q431.2 51.5 432.1 52.9Q433.1 54.3 433.1 56.0L433.1 56.0Q433.1 57.8 431.9 59.1Q430.8 60.3 429.0 60.6L429.0 60.6L429.0 60.8Q430.6 61.0 431.7 61.7Q432.7 62.4 433.3 63.5Q433.9 64.5 433.9 65.9L433.9 65.9Q433.9 67.7 432.8 69.2Q431.7 70.6 429.8 71.5Q428.0 72.3 425.5 72.3Z "/></g><mask id="satori_om-id-2-1"><rect x="391" y="81" width="45" height="13" fill="#fff" mask="url(#satori_om-id)"/></mask><g mask="url(#satori_om-id)" clip-path="url(#satori_cp-id)"><path fill="rgba(200,195,225,0.45)" d="M394.7 92.1L394.7 92.1Q393.7 92.1 393.0 91.8Q392.3 91.5 391.9 90.9Q391.5 90.4 391.5 89.5L391.5 89.5L393.1 89.5Q393.1 89.9 393.3 90.2Q393.5 90.5 393.9 90.6Q394.2 90.7 394.6 90.7L394.6 90.7Q395.1 90.7 395.4 90.6Q395.7 90.5 395.9 90.2Q396.1 90.0 396.1 89.7L396.1 89.7Q396.1 89.4 395.9 89.3Q395.8 89.1 395.5 88.9Q395.2 88.8 394.7 88.7L394.7 88.7L393.8 88.5Q392.8 88.2 392.2 87.7Q391.7 87.2 391.7 86.3L391.7 86.3Q391.7 85.6 392.1 85.0Q392.5 84.5 393.1 84.2Q393.8 83.9 394.7 83.9L394.7 83.9Q395.6 83.9 396.2 84.2Q396.9 84.5 397.3 85.0Q397.6 85.6 397.6 86.3L397.6 86.3L396.1 86.3Q396.0 85.8 395.6 85.5Q395.3 85.3 394.7 85.3L394.7 85.3Q394.2 85.3 394.0 85.4Q393.7 85.5 393.5 85.7Q393.4 85.9 393.4 86.2L393.4 86.2Q393.4 86.5 393.5 86.7Q393.7 86.9 394.0 87.0Q394.3 87.1 394.6 87.2L394.6 87.2L395.4 87.4Q395.9 87.5 396.3 87.7Q396.7 87.9 397.1 88.2Q397.4 88.4 397.6 88.8Q397.7 89.2 397.7 89.7L397.7 89.7Q397.7 90.4 397.4 91.0Q397.0 91.5 396.3 91.8Q395.6 92.1 394.7 92.1ZM402.6 85.4L400.1 85.4L400.1 84.0L406.6 84.0L406.6 85.4L404.2 85.4L404.2 92L402.6 92L402.6 85.4ZM410.6 92L408.8 92L411.5 84.0L413.7 84.0L416.5 92L414.7 92L414.1 90.1L411.2 90.1L410.6 92ZM411.6 88.9L413.6 88.9L413.4 88.1Q413.2 87.4 412.9 86.5L412.9 86.5Q412.8 85.9 412.6 85.3L412.6 85.3Q412.4 85.9 412.3 86.5L412.3 86.5Q412.1 87.4 411.9 88.1L411.9 88.1L411.6 88.9ZM420.6 92L419.0 92L419.0 84.0L422.1 84.0Q423.0 84.0 423.7 84.3Q424.3 84.6 424.6 85.2Q425.0 85.8 425.0 86.6Q425.0 87.4 424.6 88.0Q424.3 88.5 423.6 88.8L423.6 88.8Q423.6 88.9 423.5 88.9L423.5 88.9L425.3 92L423.4 92L421.9 89.1L420.6 89.1L420.6 92ZM420.6 85.4L420.6 87.8L421.8 87.8Q422.3 87.8 422.6 87.7Q423.0 87.5 423.1 87.3Q423.3 87.0 423.3 86.6L423.3 86.6Q423.3 86.2 423.1 85.9Q423.0 85.6 422.6 85.5Q422.3 85.4 421.8 85.4L421.8 85.4L420.6 85.4ZM430.6 92.1L430.6 92.1Q429.7 92.1 429.0 91.8Q428.3 91.5 427.9 90.9Q427.5 90.4 427.4 89.5L427.4 89.5L429.0 89.5Q429.1 89.9 429.3 90.2Q429.5 90.5 429.8 90.6Q430.2 90.7 430.6 90.7L430.6 90.7Q431.1 90.7 431.4 90.6Q431.7 90.5 431.9 90.2Q432.1 90.0 432.1 89.7L432.1 89.7Q432.1 89.4 431.9 89.3Q431.8 89.1 431.4 88.9Q431.1 88.8 430.7 88.7L430.7 88.7L429.8 88.5Q428.8 88.2 428.2 87.7Q427.7 87.2 427.7 86.3L427.7 86.3Q427.7 85.6 428.0 85.0Q428.4 84.5 429.1 84.2Q429.8 83.9 430.7 83.9L430.7 83.9Q431.5 83.9 432.2 84.2Q432.9 84.5 433.2 85.0Q433.6 85.6 433.6 86.3L433.6 86.3L432.0 86.3Q432.0 85.8 431.6 85.5Q431.3 85.3 430.6 85.3L430.6 85.3Q430.2 85.3 429.9 85.4Q429.6 85.5 429.5 85.7Q429.3 85.9 429.3 86.2L429.3 86.2Q429.3 86.5 429.5 86.7Q429.7 86.9 430.0 87.0Q430.3 87.1 430.6 87.2L430.6 87.2L431.3 87.4Q431.8 87.5 432.3 87.7Q432.7 87.9 433.0 88.2Q433.4 88.4 433.5 88.8Q433.7 89.2 433.7 89.7L433.7 89.7Q433.7 90.4 433.4 91.0Q433.0 91.5 432.3 91.8Q431.6 92.1 430.6 92.1Z "/></g><mask id="satori_om-id-3"><rect x="551" y="30" width="308" height="80" fill="#fff" mask="url(#satori_om-id)"/></mask><mask id="satori_om-id-3-0"><rect x="665" y="46" width="79" height="30" fill="#fff" mask="url(#satori_om-id)"/></mask><g mask="url(#satori_om-id)" clip-path="url(#satori_cp-id)"><path fill="#f59e0b" d="M682.3 72L666.8 72L666.8 68.8L674.6 61.5Q675.5 60.6 676.2 59.8Q676.9 59.0 677.3 58.2Q677.6 57.5 677.6 56.6L677.6 56.6Q677.6 55.6 677.2 54.9Q676.7 54.2 676.0 53.8Q675.2 53.5 674.2 53.5L674.2 53.5Q673.2 53.5 672.5 53.9Q671.7 54.3 671.3 55.0Q670.9 55.8 670.9 56.9L670.9 56.9L666.6 56.9Q666.6 54.7 667.6 53.2Q668.6 51.6 670.3 50.7Q672.0 49.9 674.3 49.9L674.3 49.9Q676.6 49.9 678.3 50.7Q680.0 51.5 681.0 53.0Q682.0 54.4 682.0 56.3L682.0 56.3Q682.0 57.5 681.5 58.7Q681.0 59.9 679.8 61.4Q678.6 62.9 676.3 64.9L676.3 64.9L673.0 68.2L673.0 68.3L682.3 68.3L682.3 72ZM693.5 72.3L693.5 72.3Q691.2 72.3 689.3 71.5Q687.5 70.7 686.4 69.2Q685.4 67.8 685.3 65.9L685.3 65.9L689.8 65.9Q689.9 66.7 690.4 67.3Q690.9 67.9 691.7 68.3Q692.5 68.6 693.6 68.6L693.6 68.6Q694.6 68.6 695.5 68.2Q696.3 67.8 696.8 67.2Q697.2 66.5 697.2 65.6L697.2 65.6Q697.2 64.7 696.7 64.0Q696.2 63.3 695.3 62.9Q694.4 62.5 693.2 62.5L693.2 62.5L691.1 62.5L691.1 59.2L693.2 59.2Q694.2 59.2 695.0 58.8Q695.8 58.5 696.3 57.8Q696.8 57.2 696.8 56.3L696.8 56.3Q696.8 55.4 696.4 54.8Q696.0 54.2 695.3 53.8Q694.5 53.5 693.6 53.5L693.6 53.5Q692.6 53.5 691.9 53.8Q691.1 54.1 690.6 54.8Q690.1 55.4 690.1 56.2L690.1 56.2L685.8 56.2Q685.8 54.4 686.8 52.9Q687.9 51.5 689.6 50.7Q691.4 49.9 693.6 49.9L693.6 49.9Q695.9 49.9 697.5 50.7Q699.2 51.5 700.2 52.9Q701.1 54.3 701.1 56.0L701.1 56.0Q701.1 57.8 700.0 59.1Q698.8 60.3 697.0 60.6L697.0 60.6L697.0 60.8Q698.6 61.0 699.7 61.7Q700.8 62.4 701.3 63.5Q701.9 64.5 701.9 65.9L701.9 65.9Q701.9 67.7 700.8 69.2Q699.7 70.6 697.9 71.5Q696.0 72.3 693.5 72.3ZM713.0 72.3L713.0 72.3Q710.6 72.3 708.7 71.5Q706.8 70.7 705.7 69.3Q704.6 67.9 704.6 66.1L704.6 66.1Q704.6 64.8 705.3 63.6Q705.9 62.5 706.9 61.7Q708.0 60.9 709.3 60.7L709.3 60.7L709.3 60.6Q707.6 60.2 706.5 58.9Q705.4 57.5 705.4 55.7L705.4 55.7Q705.4 54.1 706.4 52.7Q707.4 51.4 709.1 50.6Q710.8 49.9 713.0 49.9L713.0 49.9Q715.2 49.9 716.9 50.6Q718.6 51.4 719.6 52.7Q720.6 54.1 720.6 55.7L720.6 55.7Q720.6 57.5 719.5 58.9Q718.4 60.2 716.7 60.6L716.7 60.6L716.7 60.7Q718.0 60.9 719.1 61.7Q720.2 62.5 720.8 63.6Q721.4 64.8 721.4 66.1L721.4 66.1Q721.4 67.9 720.3 69.3Q719.3 70.7 717.4 71.5Q715.5 72.3 713.0 72.3ZM713.0 69.0L713.0 69.0Q714.1 69.0 715.0 68.6Q715.8 68.2 716.3 67.5Q716.8 66.7 716.8 65.8L716.8 65.8Q716.8 64.8 716.3 64.1Q715.8 63.3 714.9 62.9Q714.1 62.5 713.0 62.5L713.0 62.5Q711.9 62.5 711.1 62.9Q710.2 63.3 709.8 64.1Q709.3 64.8 709.3 65.8L709.3 65.8Q709.3 66.7 709.7 67.4Q710.2 68.2 711.1 68.6Q711.9 69.0 713.0 69.0ZM713.0 59.2L713.0 59.2Q714.0 59.2 714.7 58.8Q715.4 58.4 715.8 57.8Q716.2 57.1 716.2 56.2L716.2 56.2Q716.2 55.3 715.8 54.7Q715.4 54.0 714.7 53.7Q714.0 53.3 713.0 53.3L713.0 53.3Q712.1 53.3 711.3 53.7Q710.6 54.0 710.2 54.7Q709.8 55.3 709.8 56.2L709.8 56.2Q709.8 57.1 710.2 57.8Q710.6 58.4 711.3 58.8Q712.1 59.2 713.0 59.2ZM734.7 68.1L724.3 68.1L724.3 64.6L733.4 50.2L739.0 50.2L739.0 64.5L741.7 64.5L741.7 68.1L739.0 68.1L739.0 72L734.7 72L734.7 68.1ZM728.8 64.5L734.8 64.5L734.8 55.1L734.6 55.1L728.8 64.3L728.8 64.5Z "/></g><mask id="satori_om-id-3-1"><rect x="672" y="81" width="66" height="13" fill="#fff" mask="url(#satori_om-id)"/></mask><g mask="url(#satori_om-id)" clip-path="url(#satori_cp-id)"><path fill="rgba(200,195,225,0.45)" d="M676.2 92.1L676.2 92.1Q675.2 92.1 674.3 91.6Q673.5 91.1 673.0 90.2Q672.5 89.3 672.5 88.0L672.5 88.0Q672.5 86.7 673.0 85.8Q673.5 84.9 674.3 84.4Q675.2 83.9 676.2 83.9L676.2 83.9Q676.9 83.9 677.5 84.1Q678.1 84.3 678.5 84.6Q679.0 85.0 679.3 85.5Q679.6 86.1 679.7 86.7L679.7 86.7L678.0 86.7Q678.0 86.4 677.8 86.1Q677.6 85.9 677.4 85.7Q677.2 85.5 676.9 85.4Q676.6 85.3 676.3 85.3L676.3 85.3Q675.6 85.3 675.2 85.7Q674.7 86.0 674.4 86.6Q674.2 87.2 674.2 88.0L674.2 88.0Q674.2 88.9 674.4 89.5Q674.7 90.1 675.2 90.4Q675.6 90.7 676.2 90.7L676.2 90.7Q676.6 90.7 676.9 90.6Q677.2 90.5 677.4 90.3Q677.6 90.1 677.8 89.8Q678.0 89.6 678.0 89.3L678.0 89.3L679.7 89.3Q679.6 89.8 679.3 90.3Q679.1 90.8 678.6 91.2Q678.2 91.6 677.6 91.9Q677.0 92.1 676.2 92.1ZM685.9 92.1L685.9 92.1Q684.8 92.1 684.0 91.6Q683.1 91.1 682.6 90.2Q682.1 89.3 682.1 88.0L682.1 88.0Q682.1 86.7 682.6 85.8Q683.1 84.9 684.0 84.4Q684.8 83.9 685.9 83.9L685.9 83.9Q686.9 83.9 687.8 84.4Q688.6 84.9 689.1 85.8Q689.6 86.7 689.6 88.0L689.6 88.0Q689.6 89.3 689.1 90.2Q688.6 91.1 687.8 91.6Q686.9 92.1 685.9 92.1ZM685.9 90.7L685.9 90.7Q686.5 90.7 687.0 90.3Q687.4 90.0 687.7 89.5Q687.9 88.9 687.9 88.0L687.9 88.0Q687.9 87.1 687.7 86.5Q687.4 86.0 687.0 85.6Q686.5 85.3 685.9 85.3L685.9 85.3Q685.3 85.3 684.8 85.7Q684.3 86.0 684.1 86.6Q683.8 87.1 683.8 88.0L683.8 88.0Q683.8 88.9 684.1 89.4Q684.3 90.0 684.8 90.3Q685.3 90.7 685.9 90.7ZM694.0 92L692.3 92L692.3 84.0L694.9 84.0L696.2 87.7Q696.2 87.9 696.3 88.3Q696.4 88.7 696.5 89.2L696.5 89.2Q696.7 89.7 696.7 90.1L696.7 90.1Q696.8 89.7 696.9 89.2L696.9 89.2Q697.0 88.8 697.2 88.3Q697.3 87.9 697.3 87.7L697.3 87.7L698.6 84.0L701.1 84.0L701.1 92L699.5 92L699.5 88.2Q699.5 88.0 699.5 87.6Q699.5 87.2 699.5 86.7Q699.5 86.3 699.5 85.8L699.5 85.8Q699.6 85.6 699.6 85.4L699.6 85.4Q699.5 85.6 699.4 85.9L699.4 85.9Q699.3 86.3 699.2 86.8Q699.1 87.2 698.9 87.6Q698.8 88.0 698.8 88.2L698.8 88.2L697.4 92L696.0 92L694.7 88.2Q694.6 88.0 694.5 87.6Q694.4 87.2 694.3 86.8Q694.1 86.4 694.0 85.9L694.0 85.9Q694.0 85.7 693.9 85.5L693.9 85.5Q693.9 85.6 693.9 85.8L693.9 85.8Q693.9 86.2 693.9 86.7Q693.9 87.2 694.0 87.6Q694.0 88.0 694.0 88.2L694.0 88.2L694.0 92ZM705.7 92L704.1 92L704.1 84.0L706.6 84.0L707.9 87.7Q708.0 87.9 708.1 88.3Q708.2 88.7 708.3 89.2L708.3 89.2Q708.4 89.7 708.5 90.1L708.5 90.1Q708.6 89.7 708.7 89.2L708.7 89.2Q708.8 88.8 708.9 88.3Q709.0 87.9 709.1 87.7L709.1 87.7L710.4 84.0L712.9 84.0L712.9 92L711.2 92L711.2 88.2Q711.2 88.0 711.2 87.6Q711.3 87.2 711.3 86.7Q711.3 86.3 711.3 85.8L711.3 85.8Q711.3 85.6 711.3 85.4L711.3 85.4Q711.2 85.6 711.2 85.9L711.2 85.9Q711.1 86.3 710.9 86.8Q710.8 87.2 710.7 87.6Q710.6 88.0 710.5 88.2L710.5 88.2L709.2 92L707.8 92L706.4 88.2Q706.4 88.0 706.3 87.6Q706.1 87.2 706.0 86.8Q705.9 86.4 705.8 85.9L705.8 85.9Q705.7 85.7 705.7 85.5L705.7 85.5Q705.7 85.6 705.7 85.8L705.7 85.8Q705.7 86.2 705.7 86.7Q705.7 87.2 705.7 87.6Q705.7 88.0 705.7 88.2L705.7 88.2L705.7 92ZM715.8 84.0L717.5 84.0L717.5 92L715.8 92L715.8 84.0ZM722.5 85.4L720.1 85.4L720.1 84.0L726.6 84.0L726.6 85.4L724.2 85.4L724.2 92L722.5 92L722.5 85.4ZM732.2 92.1L732.2 92.1Q731.2 92.1 730.5 91.8Q729.8 91.5 729.4 90.9Q729.0 90.4 729.0 89.5L729.0 89.5L730.6 89.5Q730.6 89.9 730.8 90.2Q731.0 90.5 731.4 90.6Q731.7 90.7 732.2 90.7L732.2 90.7Q732.6 90.7 732.9 90.6Q733.3 90.5 733.5 90.2Q733.6 90.0 733.6 89.7L733.6 89.7Q733.6 89.4 733.5 89.3Q733.3 89.1 733.0 88.9Q732.7 88.8 732.3 88.7L732.3 88.7L731.4 88.5Q730.4 88.2 729.8 87.7Q729.2 87.2 729.2 86.3L729.2 86.3Q729.2 85.6 729.6 85.0Q730.0 84.5 730.7 84.2Q731.3 83.9 732.2 83.9L732.2 83.9Q733.1 83.9 733.8 84.2Q734.4 84.5 734.8 85.0Q735.2 85.6 735.2 86.3L735.2 86.3L733.6 86.3Q733.6 85.8 733.2 85.5Q732.8 85.3 732.2 85.3L732.2 85.3Q731.8 85.3 731.5 85.4Q731.2 85.5 731.0 85.7Q730.9 85.9 730.9 86.2L730.9 86.2Q730.9 86.5 731.1 86.7Q731.2 86.9 731.5 87.0Q731.8 87.1 732.2 87.2L732.2 87.2L732.9 87.4Q733.4 87.5 733.8 87.7Q734.3 87.9 734.6 88.2Q734.9 88.4 735.1 88.8Q735.3 89.2 735.3 89.7L735.3 89.7Q735.3 90.4 734.9 91.0Q734.6 91.5 733.9 91.8Q733.2 92.1 732.2 92.1Z "/></g></svg>