<!-- Generated by readme-aura https://github.com/collectioneur/readme-aura -->
<svg width="860" height="140" viewBox="0 0 860 140" xmlns="http://www.w3.org/2000/svg"><defs><clipPath id="satori_bc-id"><path x="0" y="0" width="860" height="140" d="M16,0 h828 a16,16 0 0 1 16,16 v108 a16,16 0 0 1 -16,16 h-828 a16,16 0 0 1 -16,-16 v-108 a16,16 0 0 1 16,-16"/></clipPath></defs><clipPath id="satori_cp-id"><path x="0" y="0" width="860" height="140" d="M16,0 h828 a16,16 0 0 1 16,16 v108 a16,16 0 0 1 -16,16 h-828 a16,16 0 0 1 -16,-16 v-108 a16,16 0 0 1 16,-16"/></clipPath><mask id="satori_om-id"><rect x="1" y="1" width="858" height="138" fill="#fff"/><path width="860" height="140" fill="none" stroke="#000" stroke-width="2" d="M4.686,4.686 A16,16 0 0 1 16,0 h828 a16,16 0 0 1 16,16 v108 a16,16 0 0 1 -16,16 h-828 a16,16 0 0 1 -16,-16 v-108 A16,16 0 0 1 4.686,4.686"/></mask><path x="0" y="0" width="860" height="140" fill="#08080c" d="M16,0 h828 a16,16 0 0 1 16,16 v108 a16,16 0 0 1 -16,16 h-828 a16,16 0 0 1 -16,-16 v-108 a16,16 0 0 1 16,-16"/><path width="860" height="140" clip-path="url(#satori_bc-id)" fill="none" stroke="rgba(110,80,220,0.18)" stroke-width="2" d="M4.686,4.686 A16,16 0 0 1 16,0 h828 a16,16 0 0 1 16,16 v108 a16,16 0 0 1 -16,16 h-828 a16,16 0 0 1 -16,-16 v-108 A16,16 0 0 1 4.686,4.686"/><clipPath id="satori_cp-id-0" clip-path="url(#satori_cp-id)"><rect x="1" y="1" width="860" height="140"/></clipPath><mask id="satori_om-id-0"><rect x="1" y="1" width="860" height="140" fill="#fff" mask="url(#satori_om-id)"/></mask><svg x="1" y="1" width="860" height="140" preserveAspectRatio="none" clip-path="url(#satori_cp-id-0)" mask="url(#satori_om-id-0)"><defs><radialGradient id="g1" cx="50%" cy="50%" r="50%"><stop offset="0%" stop-color="rgba(110,20,210,0.65)"></stop><stop offset="45%" stop-color="rgba(80,15,170,0.28)"></stop><stop offset="70%" stop-color="rgba(80,15,170,0)"></stop></radialGradient><radialGradient id="g2" cx="50%" cy="50%" r="50%"><stop offset="0%" stop-color="rgba(40,70,255,0.55)"></stop><stop offset="45%" stop-color="rgba(20,50,200,0.22)"></stop><stop offset="70%" stop-color="rgba(20,50,200,0)"></stop></radialGradient><radialGradient id="g3" cx="50%" cy="50%" r="50%"><stop offset="0%" stop-color="rgba(0,140,255,0.42)"></stop><stop offset="70%" stop-color="rgba(0,140,255,0)"></stop></radialGradient><radialGradient id="g4" cx="50%" cy="50%" r="50%"><stop offset="0%" stop-color="rgba(0,195,235,0.30)"></stop><stop offset="70%" stop-color="rgba(0,195,235,0)"></stop></radialGradient><radialGradient id="g5" cx="50%" cy="50%" r="50%"><stop offset="0%" stop-color="rgba(100,30,210,0.40)"></stop><stop offset="70%" stop-color="rgba(100,30,210,0)"></stop></radialGradient></defs><ellipse id="glow-1" cx="710" cy="150" rx="210" ry="150" fill="url(#g1)"></ellipse><ellipse id="glow-2" cx="550" cy="140" rx="190" ry="140" fill="url(#g2)"></ellipse><ellipse id="glow-3" cx="400" cy="130" rx="170" ry="130" fill="url(#g3)"></ellipse><ellipse id="glow-4" cx="250" cy="140" rx="150" ry="120" fill="url(#g4)"></ellipse><ellipse id="glow-5" cx="100" cy="150" rx="130" ry="110" fill="url(#g5)"></ellipse><style>

         @keyframes float-slow {
           0%, 100% { transform: translateX(0px); opacity: 0.8; }
           50% { transform: translateX(350px); opacity: 1.2; }
         }
         @keyframes float-medium {
           0%, 100% { transform: translateX(0px); opacity: 0.7; }
           50% { transform: translateX(-250px); opacity: 1.1; }
         }
         @keyframes float-fast {
           0%, 100% { transform: translateX(0px); opacity: 0.9; }
           50% { transform: translateX(200px); opacity: 0.6; }
         }
         @keyframes float-diagonal {
           0%, 100% { transform: translate(0px, 0px); opacity: 0.75; }
           50% { transform: translate(120px, 30px); opacity: 1.0; }
         }
         @keyframes float-wave {
           0%, 100% { transform: translateX(0px); opacity: 0.65; }
           33% { transform: translateX(-160px); opacity: 0.9; }
           66% { transform: translateX(80px); opacity: 1.0; }
         }
         @keyframes float-pulse {
           0%, 100% { transform: scale(1); opacity: 0.8; }
           50% { transform: scale(1.3); opacity: 0.4; }
         }
         #glow-1 { animation: float-slow 8s ease-in-out infinite; }
         #glow-2 { animation: float-medium 12s ease-in-out infinite; }
         #glow-3 { animation: float-fast 9s ease-in-out infinite; }
         #glow-4 { animation: float-diagonal 10s ease-in-out infinite; }
         #glow-5 { animation: float-wave 14s ease-in-out infinite; }
       
</style>
</svg><mask id="satori_om-id-0-0"><rect x="1" y="1" width="0" height="140" fill="#fff" mask="url(#satori_om-id)"/></mask><mask id="satori_om-id-0-0-0"><rect x="1" y="1" width="0" height="140" fill="#fff" mask="url(#satori_om-id)"/></mask><mask id="satori_om-id-0-0-0-0"><rect x="1" y="1" width="0" height="140" fill="#fff" mask="url(#satori_om-id)"/></mask><mask id="satori_om-id-0-0-0-1"><rect x="1" y="1" width="0" height="140" fill="#fff" mask="url(#satori_om-id)"/></mask><mask id="satori_om-id-0-0-0-2"><rect x="1" y="1" width="0" height="140" fill="#fff" mask="url(#satori_om-id)"/></mask><mask id="satori_om-id-0-0-1"><rect x="1" y="1" width="0" height="140" fill="#fff" mask="url(#satori_om-id)"/></mask><mask id="satori_om-id-0-0-1-0"><rect x="1" y="1" width="0" height="140" fill="#fff" mask="url(#satori_om-id)"/></mask><mask id="satori_om-id-0-0-1-1"><rect x="1" y="1" width="0" height="140" fill="#fff" mask="url(#satori_om-id)"/></mask><mask id="satori_om-id-0-0-1-2"><rect x="1" y="1" width="0" height="140" fill="#fff" mask="url(#satori_om-id)"/></mask><mask id="satori_om-id-0-0-2"><rect x="1" y="1" width="0" height="140" fill="#fff" mask="url(#satori_om-id)"/></mask><mask id="satori_om-id-0-0-2-0"><rect x="1" y="1" width="0" height="140" fill="#fff" mask="url(#satori_om-id)"/></mask><mask id="satori_om-id-0-0-2-1"><rect x="1" y="1" width="0" height="140" fill="#fff" mask="url(#satori_om-id)"/></mask><mask id="satori_om-id-0-0-3"><rect x="1" y="1" width="0" height="140" fill="#fff" mask="url(#satori_om-id)"/></mask><mask id="satori_om-id-0-0-3-0"><rect x="1" y="1" width="0" height="140" fill="#fff" mask="url(#satori_om-id)"/></mask><mask id="satori_om-id-0-0-3-1"><rect x="1" y="1" width="0" height="140" fill="#fff" mask="url(#satori_om-id)"/></mask><mask id="satori_om-id-0-0-4"><rect x="1" y="1" width="0" height="140" fill="#fff" mask="url(#satori_om-id)"/></mask><mask id="satori_om-id-0-0-4-0"><rect x="1" y="1" width="0" height="140" fill="#fff" mask="url(#satori_om-id)"/></mask><mask id="satori_om-id-0-0-4-1"><rect x="1" y="1" width="0" height="140" fill="#fff" mask="url(#satori_om-id)"/></mask><mask id="satori_om-id-0-1"><rect x="1" y="1" width="0" height="140" fill="#fff" mask="url(#satori_om-id)"/></mask><mask id="satori_om-id-0-2"><rect x="1" y="1" width="0" height="140" fill="#fff" mask="url(#satori_om-id)"/></mask><mask id="satori_om-id-0-3"><rect x="1" y="1" width="0" height="140" fill="#fff" mask="url(#satori_om-id)"/></mask><mask id="satori_om-id-0-4"><rect x="1" y="1" width="0" height="140" fill="#fff" mask="url(#satori_om-id)"/></mask><mask id="satori_om-id-0-5"><rect x="1" y="1" width="0" height="140" fill="#fff" mask="url(#satori_om-id)"/></mask><defs><clipPath id="satori_bc-id-1" clip-path="url(#satori_cp-id)"><rect x="1" y="30" width="272" height="80"/></clipPath></defs><mask id="satori_om-id-1"><rect x="1" y="30" width="271" height="80" fill="#fff" mask="url(#satori_om-id)"/><path width="272" height="80" fill="none" stroke="#000" stroke-width="2" d="M273,30 A0,0 0 0 1 273,30 v80 A0,0 0 0 1 273,110"/></mask><path width="272" height="80" clip-path="url(#satori_bc-id-1)" fill="none" stroke="rgba(255,255,255,0.06)" stroke-width="2" d="M273,30 A0,0 0 0 1 273,30 v80 A0,0 0 0 1 273,110"/><mask id="satori_om-id-1-0"><rect x="120" y="46" width="33" height="30" fill="#fff" mask="url(#satori_om-id)"/></mask><g mask="url(#satori_om-id)" clip-path="url(#satori_cp-id)"><path fill="#a78bfa" d="M126.2 50.2L131.0 50.2L131.0 72L126.5 72L126.5 54.1L126.4 54.1L121.4 57.7L121.4 53.6L126.2 50.2ZM142.6 72.3L142.6 72.3Q140.2 72.3 138.4 71.5Q136.5 70.7 135.5 69.2Q134.4 67.8 134.4 65.9L134.4 65.9L138.9 65.9Q138.9 66.7 139.4 67.3Q139.9 67.9 140.7 68.3Q141.6 68.6 142.6 68.6L142.6 68.6Q143.7 68.6 144.5 68.2Q145.3 67.8 145.8 67.2Q146.3 66.5 146.3 65.6L146.3 65.6Q146.3 64.7 145.8 64.0Q145.3 63.3 144.4 62.9Q143.5 62.5 142.2 62.5L142.2 62.5L140.2 62.5L140.2 59.2L142.2 59.2Q143.3 59.2 144.1 58.8Q144.9 58.5 145.3 57.8Q145.8 57.2 145.8 56.3L145.8 56.3Q145.8 55.4 145.4 54.8Q145.0 54.2 144.3 53.8Q143.6 53.5 142.6 53.5L142.6 53.5Q141.7 53.5 140.9 53.8Q140.1 54.1 139.6 54.8Q139.1 55.4 139.1 56.2L139.1 56.2L134.8 56.2Q134.8 54.4 135.9 52.9Q136.9 51.5 138.7 50.7Q140.4 49.9 142.7 49.9L142.7 49.9Q144.9 49.9 146.6 50.7Q148.3 51.5 149.2 52.9Q150.1 54.3 150.1 56.0L150.1 56.0Q150.1 57.8 149.0 59.1Q147.9 60.3 146.0 60.6L146.0 60.6L146.0 60.8Q147.6 61.0 148.7 61.7Q149.8 62.4 150.4 63.5Q150.9 64.5 150.9 65.9L150.9 65.9Q150.9 67.7 149.9 69.2Q148.8 70.6 146.9 71.5Q145.0 72.3 142.6 72.3Z "/></g><mask id="satori_om-id-1-1"><rect x="114" y="81" width="45" height="13" fill="#fff" mask="url(#satori_om-id)"/></mask><g mask="url(#satori_om-id)" clip-path="url(#satori_cp-id)"><path fill="rgba(200,195,225,0.45)" d="M116.4 92L114.7 92L114.7 84.0L117.8 84.0Q118.8 84.0 119.4 84.3Q120.0 84.6 120.4 85.2Q120.7 85.8 120.7 86.6Q120.7 87.4 120.4 88.0Q120.0 88.5 119.4 88.8L119.4 88.8Q119.3 88.9 119.3 88.9L119.3 88.9L121.0 92L119.2 92L117.6 89.1L116.4 89.1L116.4 92ZM116.4 85.4L116.4 87.8L117.5 87.8Q118.0 87.8 118.4 87.7Q118.7 87.5 118.9 87.3Q119.0 87.0 119.0 86.6L119.0 86.6Q119.0 86.2 118.9 85.9Q118.7 85.6 118.4 85.5Q118.0 85.4 117.5 85.4L117.5 85.4L116.4 85.4ZM128.8 92L123.4 92L123.4 84.0L128.8 84.0L128.8 85.4L125.1 85.4L125.1 87.3L128.5 87.3L128.5 88.6L125.1 88.6L125.1 90.6L128.8 90.6L128.8 92ZM133.3 92L131.6 92L131.6 84.0L134.8 84.0Q135.7 84.0 136.3 84.3Q136.9 84.7 137.3 85.3Q137.6 85.9 137.6 86.7L137.6 86.7Q137.6 87.5 137.3 88.1Q136.9 88.7 136.3 89.0Q135.6 89.4 134.7 89.4L134.7 89.4L133.3 89.4L133.3 92ZM133.3 85.4L133.3 88.1L134.5 88.1Q135.0 88.1 135.3 87.9Q135.6 87.7 135.8 87.4Q135.9 87.1 135.9 86.7Q135.9 86.3 135.8 86.0Q135.6 85.7 135.3 85.5Q135.0 85.4 134.4 85.4L134.4 85.4L133.3 85.4ZM143.8 92.1L143.8 92.1Q142.7 92.1 141.9 91.6Q141.0 91.1 140.5 90.2Q140.0 89.3 140.0 88.0L140.0 88.0Q140.0 86.7 140.5 85.8Q141.0 84.9 141.9 84.4Q142.7 83.9 143.8 83.9L143.8 83.9Q144.8 83.9 145.7 84.4Q146.5 84.9 147.0 85.8Q147.5 86.7 147.5 88.0L147.5 88.0Q147.5 89.3 147.0 90.2Q146.5 91.1 145.7 91.6Q144.8 92.1 143.8 92.1ZM143.8 90.7L143.8 90.7Q144.4 90.7 144.9 90.3Q145.3 90.0 145.6 89.5Q145.8 88.9 145.8 88.0L145.8 88.0Q145.8 87.1 145.6 86.5Q145.3 86.0 144.9 85.6Q144.4 85.3 143.8 85.3L143.8 85.3Q143.2 85.3 142.7 85.7Q142.2 86.0 142.0 86.6Q141.7 87.1 141.7 88.0L141.7 88.0Q141.7 88.9 142.0 89.4Q142.2 90.0 142.7 90.3Q143.2 90.7 143.8 90.7ZM153.2 92.1L153.2 92.1Q152.2 92.1 151.5 91.8Q150.8 91.5 150.4 90.9Q150.0 90.4 150.0 89.5L150.0 89.5L151.6 89.5Q151.6 89.9 151.8 90.2Q152.0 90.5 152.4 90.6Q152.7 90.7 153.2 90.7L153.2 90.7Q153.6 90.7 153.9 90.6Q154.2 90.5 154.4 90.2Q154.6 90.0 154.6 89.7L154.6 89.7Q154.6 89.4 154.4 89.3Q154.3 89.1 154.0 88.9Q153.7 88.8 153.2 88.7L153.2 88.7L152.3 88.5Q151.3 88.2 150.8 87.7Q150.2 87.2 150.2 86.3L150.2 86.3Q150.2 85.6 150.6 85.0Q151.0 84.5 151.6 84.2Q152.3 83.9 153.2 83.9L153.2 83.9Q154.1 83.9 154.7 84.2Q155.4 84.5 155.8 85.0Q156.1 85.6 156.1 86.3L156.1 86.3L154.6 86.3Q154.5 85.8 154.2 85.5Q153.8 85.3 153.2 85.3L153.2 85.3Q152.8 85.3 152.5 85.4Q152.2 85.5 152.0 85.7Q151.9 85.9 151.9 86.2L151.9 86.2Q151.9 86.5 152.0 86.7Q152.2 86.9 152.5 87.0Q152.8 87.1 153.1 87.2L153.1 87.2L153.9 87.4Q154.4 87.5 154.8 87.7Q155.2 87.9 155.6 88.2Q155.9 88.4 156.1 88.8Q156.3 89.2 156.3 89.7L156.3 89.7Q156.3 90.4 155.9 91.0Q155.5 91.5 154.8 91.8Q154.1 92.1 153.2 92.1Z "/></g><defs><clipPath id="satori_bc-id-2" clip-path="url(#satori_cp-id)"><rect x="273" y="30" width="281" height="80"/></clipPath></defs><mask id="satori_om-id-2"><rect x="273" y="30" width="280" height="80" fill="#fff" mask="url(#satori_om-id)"/><path width="281" height="80" fill="none" stroke="#000" stroke-width="2" d="M554,30 A0,0 0 0 1 554,30 v80 A0,0 0 0 1 554,110"/></mask><path width="281" height="80" clip-path="url(#satori_bc-id-2)" fill="none" stroke="rgba(255,255,255,0.06)" stroke-width="2" d="M554,30 A0,0 0 0 1 554,30 v80 A0,0 0 0 1 554,110"/><mask id="satori_om-id-2-0"><rect x="386" y="46" width="53" height="30" fill="#fff" mask="url(#satori_om-id)"/></mask><g mask="url(#satori_om-id)" clip-path="url(#satori_cp-id)"><path fill="#60a5fa" d="M392.2 50.2L397.0 50.2L397.0 72L392.5 72L392.5 54.1L392.4 54.1L387.4 57.7L387.4 53.6L392.2 50.2ZM409.0 72.3L409.0 72.3Q406.3 72.3 404.3 71.0Q402.4 69.6 401.4 67.1Q400.3 64.6 400.3 61.1L400.3 61.1Q400.3 57.6 401.4 55.1Q402.4 52.5 404.3 51.2Q406.3 49.9 409.0 49.9L409.0 49.9Q411.8 49.9 413.8 51.2Q415.7 52.6 416.7 55.1Q417.8 57.6 417.8 61.1L417.8 61.1Q417.8 64.6 416.8 67.1Q415.7 69.6 413.8 71.0Q411.8 72.3 409.0 72.3ZM409.0 68.6L409.0 68.6Q410.4 68.6 411.3 67.7Q412.3 66.8 412.7 65.2Q413.2 63.5 413.2 61.1L413.2 61.1Q413.2 58.7 412.7 57.0Q412.3 55.3 411.3 54.5Q410.4 53.6 409.0 53.6L409.0 53.6Q407.7 53.6 406.8 54.5Q405.8 55.3 405.4 57.0Q404.9 58.7 404.9 61.1L404.9 61.1Q404.9 63.5 405.4 65.2Q405.8 66.8 406.8 67.7Q407.7 68.6 409.0 68.6ZM429.2 72.3L429.2 72.3Q427.5 72.3 426.0 71.7Q424.4 71.2 423.2 69.9Q422.0 68.7 421.3 66.7Q420.5 64.6 420.5 61.6L420.5 61.6Q420.5 58.8 421.2 56.7Q421.8 54.5 422.9 53.0Q424.1 51.5 425.7 50.7Q427.3 49.9 429.3 49.9L429.3 49.9Q431.5 49.9 433.2 50.7Q434.8 51.6 435.8 53.0Q436.8 54.4 437.0 56.2L437.0 56.2L432.7 56.2Q432.4 55.1 431.5 54.4Q430.6 53.7 429.3 53.7L429.3 53.7Q427.9 53.7 426.9 54.6Q425.9 55.4 425.4 57.0Q424.9 58.6 424.9 60.7L424.9 60.7L425.1 60.7Q425.6 59.8 426.4 59.1Q427.2 58.4 428.3 58.0Q429.4 57.7 430.6 57.7L430.6 57.7Q432.5 57.7 434.0 58.6Q435.5 59.5 436.4 61.1Q437.3 62.7 437.3 64.7L437.3 64.7Q437.3 66.9 436.3 68.6Q435.2 70.3 433.4 71.3Q431.6 72.3 429.2 72.3ZM429.2 68.7L429.2 68.7Q430.2 68.7 431.1 68.2Q431.9 67.7 432.4 66.8Q432.9 65.9 432.9 64.8L432.9 64.8Q432.9 63.7 432.5 62.8Q432.0 62.0 431.1 61.4Q430.3 60.9 429.2 60.9L429.2 60.9Q428.4 60.9 427.7 61.2Q427.0 61.5 426.5 62.1Q426.0 62.6 425.7 63.3Q425.4 64.0 425.4 64.8L425.4 64.8Q425.4 65.9 425.9 66.8Q426.4 67.7 427.2 68.2Q428.1 68.7 429.2 68.7Z "/></g><mask id="satori_om-id-2-1"><rect x="390" y="81" width="45" height="13" fill="#fff" mask="url(#satori_om-id)"/></mask><g mask="url(#satori_om-id)" clip-path="url(#satori_cp-id)"><path fill="rgba(200,195,225,0.45)" d="M393.7 92.1L393.7 92.1Q392.7 92.1 392.0 91.8Q391.3 91.5 390.9 90.9Q390.5 90.4 390.5 89.5L390.5 89.5L392.1 89.5Q392.1 89.9 392.3 90.2Q392.5 90.5 392.9 90.6Q393.2 90.7 393.6 90.7L393.6 90.7Q394.1 90.7 394.4 90.6Q394.7 90.5 394.9 90.2Q395.1 90.0 395.1 89.7L395.1 89.7Q395.1 89.4 394.9 89.3Q394.8 89.1 394.5 88.9Q394.2 88.8 393.7 88.7L393.7 88.7L392.8 88.5Q391.8 88.2 391.2 87.7Q390.7 87.2 390.7 86.3L390.7 86.3Q390.7 85.6 391.1 85.0Q391.5 84.5 392.1 84.2Q392.8 83.9 393.7 83.9L393.7 83.9Q394.6 83.9 395.2 84.2Q395.9 84.5 396.3 85.0Q396.6 85.6 396.6 86.3L396.6 86.3L395.1 86.3Q395.0 85.8 394.6 85.5Q394.3 85.3 393.7 85.3L393.7 85.3Q393.2 85.3 393.0 85.4Q392.7 85.5 392.5 85.7Q392.4 85.9 392.4 86.2L392.4 86.2Q392.4 86.5 392.5 86.7Q392.7 86.9 393.0 87.0Q393.3 87.1 393.6 87.2L393.6 87.2L394.4 87.4Q394.9 87.5 395.3 87.7Q395.7 87.9 396.1 88.2Q396.4 88.4 396.6 88.8Q396.7 89.2 396.7 89.7L396.7 89.7Q396.7 90.4 396.4 91.0Q396.0 91.5 395.3 91.8Q394.6 92.1 393.7 92.1ZM401.6 85.4L399.1 85.4L399.1 84.0L405.6 84.0L405.6 85.4L403.2 85.4L403.2 92L401.6 92L401.6 85.4ZM409.6 92L407.8 92L410.5 84.0L412.7 84.0L415.5 92L413.7 92L413.1 90.1L410.2 90.1L409.6 92ZM410.6 88.9L412.6 88.9L412.4 88.1Q412.2 87.4 411.9 86.5L411.9 86.5Q411.8 85.9 411.6 85.3L411.6 85.3Q411.4 85.9 411.3 86.5L411.3 86.5Q411.1 87.4 410.9 88.1L410.9 88.1L410.6 88.9ZM419.6 92L418.0 92L418.0 84.0L421.1 84.0Q422.0 84.0 422.7 84.3Q423.3 84.6 423.6 85.2Q424.0 85.8 424.0 86.6Q424.0 87.4 423.6 88.0Q423.3 88.5 422.6 88.8L422.6 88.8Q422.6 88.9 422.5 88.9L422.5 88.9L424.3 92L422.4 92L420.9 89.1L419.6 89.1L419.6 92ZM419.6 85.4L419.6 87.8L420.8 87.8Q421.3 87.8 421.6 87.7Q422.0 87.5 422.1 87.3Q422.3 87.0 422.3 86.6L422.3 86.6Q422.3 86.2 422.1 85.9Q422.0 85.6 421.6 85.5Q421.3 85.4 420.8 85.4L420.8 85.4L419.6 85.4ZM429.6 92.1L429.6 92.1Q428.7 92.1 428.0 91.8Q427.3 91.5 426.9 90.9Q426.5 90.4 426.4 89.5L426.4 89.5L428.0 89.5Q428.1 89.9 428.3 90.2Q428.5 90.5 428.8 90.6Q429.2 90.7 429.6 90.7L429.6 90.7Q430.1 90.7 430.4 90.6Q430.7 90.5 430.9 90.2Q431.1 90.0 431.1 89.7L431.1 89.7Q431.1 89.4 430.9 89.3Q430.8 89.1 430.4 88.9Q430.1 88.8 429.7 88.7L429.7 88.7L428.8 88.5Q427.8 88.2 427.2 87.7Q426.7 87.2 426.7 86.3L426.7 86.3Q426.7 85.6 427.0 85.0Q427.4 84.5 428.1 84.2Q428.8 83.9 429.7 83.9L429.7 83.9Q430.5 83.9 431.2 84.2Q431.9 84.5 432.2 85.0Q432.6 85.6 432.6 86.3L432.6 86.3L431.0 86.3Q431.0 85.8 430.6 85.5Q430.3 85.3 429.6 85.3L429.6 85.3Q429.2 85.3 428.9 85.4Q428.6 85.5 428.5 85.7Q428.3 85.9 428.3 86.2L428.3 86.2Q428.3 86.5 428.5 86.7Q428.7 86.9 429.0 87.0Q429.3 87.1 429.6 87.2L429.6 87.2L430.3 87.4Q430.8 87.5 431.3 87.7Q431.7 87.9 432.0 88.2Q432.4 88.4 432.5 88.8Q432.7 89.2 432.7 89.7L432.7 89.7Q432.7 90.4 432.4 91.0Q432.0 91.5 431.3 91.8Q430.6 92.1 429.6 92.1Z "/></g><mask id="satori_om-id-3"><rect x="554" y="30" width="305" height="80" fill="#fff" mask="url(#satori_om-id)"/></mask><mask id="satori_om-id-3-0"><rect x="667" y="46" width="79" height="30" fill="#fff" mask="url(#satori_om-id)"/></mask><g mask="url(#satori_om-id)" clip-path="url(#satori_cp-id)"><path fill="#f59e0b" d="M684.3 72L668.8 72L668.8 68.8L676.6 61.5Q677.5 60.6 678.2 59.8Q678.9 59.0 679.3 58.2Q679.6 57.5 679.6 56.6L679.6 56.6Q679.6 55.6 679.2 54.9Q678.7 54.2 678.0 53.8Q677.2 53.5 676.2 53.5L676.2 53.5Q675.2 53.5 674.5 53.9Q673.7 54.3 673.3 55.0Q672.9 55.8 672.9 56.9L672.9 56.9L668.6 56.9Q668.6 54.7 669.6 53.2Q670.6 51.6 672.3 50.7Q674.0 49.9 676.3 49.9L676.3 49.9Q678.6 49.9 680.3 50.7Q682.0 51.5 683.0 53.0Q684.0 54.4 684.0 56.3L684.0 56.3Q684.0 57.5 683.5 58.7Q683.0 59.9 681.8 61.4Q680.6 62.9 678.3 64.9L678.3 64.9L675.0 68.2L675.0 68.3L684.3 68.3L684.3 72ZM695.5 72.3L695.5 72.3Q693.2 72.3 691.3 71.5Q689.5 70.7 688.4 69.2Q687.4 67.8 687.3 65.9L687.3 65.9L691.8 65.9Q691.9 66.7 692.4 67.3Q692.9 67.9 693.7 68.3Q694.5 68.6 695.6 68.6L695.6 68.6Q696.6 68.6 697.5 68.2Q698.3 67.8 698.8 67.2Q699.2 66.5 699.2 65.6L699.2 65.6Q699.2 64.7 698.7 64.0Q698.2 63.3 697.3 62.9Q696.4 62.5 695.2 62.5L695.2 62.5L693.1 62.5L693.1 59.2L695.2 59.2Q696.2 59.2 697.0 58.8Q697.8 58.5 698.3 57.8Q698.8 57.2 698.8 56.3L698.8 56.3Q698.8 55.4 698.4 54.8Q698.0 54.2 697.3 53.8Q696.5 53.5 695.6 53.5L695.6 53.5Q694.6 53.5 693.9 53.8Q693.1 54.1 692.6 54.8Q692.1 55.4 692.1 56.2L692.1 56.2L687.8 56.2Q687.8 54.4 688.8 52.9Q689.9 51.5 691.6 50.7Q693.4 49.9 695.6 49.9L695.6 49.9Q697.9 49.9 699.5 50.7Q701.2 51.5 702.2 52.9Q703.1 54.3 703.1 56.0L703.1 56.0Q703.1 57.8 702.0 59.1Q700.8 60.3 699.0 60.6L699.0 60.6L699.0 60.8Q700.6 61.0 701.7 61.7Q702.8 62.4 703.3 63.5Q703.9 64.5 703.9 65.9L703.9 65.9Q703.9 67.7 702.8 69.2Q701.7 70.6 699.9 71.5Q698.0 72.3 695.5 72.3ZM715.3 72.3L715.3 72.3Q713.6 72.3 712.1 71.7Q710.5 71.2 709.3 69.9Q708.1 68.7 707.4 66.7Q706.6 64.6 706.6 61.6L706.6 61.6Q706.6 58.8 707.3 56.7Q707.9 54.5 709.0 53.0Q710.2 51.5 711.8 50.7Q713.4 49.9 715.4 49.9L715.4 49.9Q717.6 49.9 719.3 50.7Q720.9 51.6 721.9 53.0Q722.9 54.4 723.1 56.2L723.1 56.2L718.8 56.2Q718.5 55.1 717.6 54.4Q716.7 53.7 715.4 53.7L715.4 53.7Q714.0 53.7 713.0 54.6Q712.0 55.4 711.5 57.0Q711.0 58.6 711.0 60.7L711.0 60.7L711.2 60.7Q711.7 59.8 712.5 59.1Q713.3 58.4 714.4 58.0Q715.5 57.7 716.7 57.7L716.7 57.7Q718.6 57.7 720.1 58.6Q721.6 59.5 722.5 61.1Q723.4 62.7 723.4 64.7L723.4 64.7Q723.4 66.9 722.4 68.6Q721.3 70.3 719.5 71.3Q717.7 72.3 715.3 72.3ZM715.3 68.7L715.3 68.7Q716.3 68.7 717.2 68.2Q718.0 67.7 718.5 66.8Q719.0 65.9 719.0 64.8L719.0 64.8Q719.0 63.7 718.5 62.8Q718.1 62.0 717.2 61.4Q716.4 60.9 715.3 60.9L715.3 60.9Q714.5 60.9 713.8 61.2Q713.1 61.5 712.6 62.1Q712.1 62.6 711.8 63.3Q711.5 64.0 711.5 64.8L711.5 64.8Q711.5 65.9 712.0 66.8Q712.5 67.7 713.3 68.2Q714.2 68.7 715.3 68.7ZM736.7 68.1L726.2 68.1L726.2 64.6L735.3 50.2L741.0 50.2L741.0 64.5L743.7 64.5L743.7 68.1L741.0 68.1L741.0 72L736.7 72L736.7 68.1ZM730.7 64.5L736.8 64.5L736.8 55.1L736.6 55.1L730.7 64.3L730.7 64.5Z "/></g><mask id="satori_om-id-3-1"><rect x="674" y="81" width="66" height="13" fill="#fff" mask="url(#satori_om-id)"/></mask><g mask="url(#satori_om-id)" clip-path="url(#satori_cp-id)"><path fill="rgba(200,195,225,0.45)" d="M678.2 92.1L678.2 92.1Q677.2 92.1 676.3 91.6Q675.5 91.1 675.0 90.2Q674.5 89.3 674.5 88.0L674.5 88.0Q674.5 86.7 675.0 85.8Q675.5 84.9 676.3 84.4Q677.2 83.9 678.2 83.9L678.2 83.9Q678.9 83.9 679.5 84.1Q680.1 84.3 680.5 84.6Q681.0 85.0 681.3 85.5Q681.6 86.1 681.7 86.7L681.7 86.7L680.0 86.7Q680.0 86.4 679.8 86.1Q679.6 85.9 679.4 85.7Q679.2 85.5 678.9 85.4Q678.6 85.3 678.3 85.3L678.3 85.3Q677.6 85.3 677.2 85.7Q676.7 86.0 676.4 86.6Q676.2 87.2 676.2 88.0L676.2 88.0Q676.2 88.9 676.4 89.5Q676.7 90.1 677.2 90.4Q677.6 90.7 678.2 90.7L678.2 90.7Q678.6 90.7 678.9 90.6Q679.2 90.5 679.4 90.3Q679.6 90.1 679.8 89.8Q680.0 89.6 680.0 89.3L680.0 89.3L681.7 89.3Q681.6 89.8 681.3 90.3Q681.1 90.8 680.6 91.2Q680.2 91.6 679.6 91.9Q679.0 92.1 678.2 92.1ZM687.9 92.1L687.9 92.1Q686.8 92.1 686.0 91.6Q685.1 91.1 684.6 90.2Q684.1 89.3 684.1 88.0L684.1 88.0Q684.1 86.7 684.6 85.8Q685.1 84.9 686.0 84.4Q686.8 83.9 687.9 83.9L687.9 83.9Q688.9 83.9 689.8 84.4Q690.6 84.9 691.1 85.8Q691.6 86.7 691.6 88.0L691.6 88.0Q691.6 89.3 691.1 90.2Q690.6 91.1 689.8 91.6Q688.9 92.1 687.9 92.1ZM687.9 90.7L687.9 90.7Q688.5 90.7 689.0 90.3Q689.4 90.0 689.7 89.5Q689.9 88.9 689.9 88.0L689.9 88.0Q689.9 87.1 689.7 86.5Q689.4 86.0 689.0 85.6Q688.5 85.3 687.9 85.3L687.9 85.3Q687.3 85.3 686.8 85.7Q686.3 86.0 686.1 86.6Q685.8 87.1 685.8 88.0L685.8 88.0Q685.8 88.9 686.1 89.4Q686.3 90.0 686.8 90.3Q687.3 90.7 687.9 90.7ZM696.0 92L694.3 92L694.3 84.0L696.9 84.0L698.2 87.7Q698.2 87.9 698.3 88.3Q698.4 88.7 698.5 89.2L698.5 89.2Q698.7 89.7 698.7 90.1L698.7 90.1Q698.8 89.7 698.9 89.2L698.9 89.2Q699.0 88.8 699.2 88.3Q699.3 87.9 699.3 87.7L699.3 87.7L700.6 84.0L703.1 84.0L703.1 92L701.5 92L701.5 88.2Q701.5 88.0 701.5 87.6Q701.5 87.2 701.5 86.7Q701.5 86.3 701.5 85.8L701.5 85.8Q701.6 85.6 701.6 85.4L701.6 85.4Q701.5 85.6 701.4 85.9L701.4 85.9Q701.3 86.3 701.2 86.8Q701.1 87.2 700.9 87.6Q700.8 88.0 700.8 88.2L700.8 88.2L699.4 92L698.0 92L696.7 88.2Q696.6 88.0 696.5 87.6Q696.4 87.2 696.3 86.8Q696.1 86.4 696.0 85.9L696.0 85.9Q696.0 85.7 695.9 85.5L695.9 85.5Q695.9 85.6 695.9 85.8L695.9 85.8Q695.9 86.2 695.9 86.7Q695.9 87.2 696.0 87.6Q696.0 88.0 696.0 88.2L696.0 88.2L696.0 92ZM707.7 92L706.1 92L706.1 84.0L708.6 84.0L709.9 87.7Q710.0 87.9 710.1 88.3Q710.2 88.7 710.3 89.2L710.3 89.2Q710.4 89.7 710.5 90.1L710.5 90.1Q710.6 89.7 710.7 89.2L710.7 89.2Q710.8 88.8 710.9 88.3Q711.0 87.9 711.1 87.7L711.1 87.7L712.4 84.0L714.9 84.0L714.9 92L713.2 92L713.2 88.2Q713.2 88.0 713.2 87.6Q713.3 87.2 713.3 86.7Q713.3 86.3 713.3 85.8L713.3 85.8Q713.3 85.6 713.3 85.4L713.3 85.4Q713.2 85.6 713.2 85.9L713.2 85.9Q713.1 86.3 712.9 86.8Q712.8 87.2 712.7 87.6Q712.6 88.0 712.5 88.2L712.5 88.2L711.2 92L709.8 92L708.4 88.2Q708.4 88.0 708.3 87.6Q708.1 87.2 708.0 86.8Q707.9 86.4 707.8 85.9L707.8 85.9Q707.7 85.7 707.7 85.5L707.7 85.5Q707.7 85.6 707.7 85.8L707.7 85.8Q707.7 86.2 707.7 86.7Q707.7 87.2 707.7 87.6Q707.7 88.0 707.7 88.2L707.7 88.2L707.7 92ZM717.8 84.0L719.5 84.0L719.5 92L717.8 92L717.8 84.0ZM724.5 85.4L722.1 85.4L722.1 84.0L728.6 84.0L728.6 85.4L726.2 85.4L726.2 92L724.5 92L724.5 85.4ZM734.2 92.1L734.2 92.1Q733.2 92.1 732.5 91.8Q731.8 91.5 731.4 90.9Q731.0 90.4 731.0 89.5L731.0 89.5L732.6 89.5Q732.6 89.9 732.8 90.2Q733.0 90.5 733.4 90.6Q733.7 90.7 734.2 90.7L734.2 90.7Q734.6 90.7 734.9 90.6Q735.3 90.5 735.5 90.2Q735.6 90.0 735.6 89.7L735.6 89.7Q735.6 89.4 735.5 89.3Q735.3 89.1 735.0 88.9Q734.7 88.8 734.3 88.7L734.3 88.7L733.4 88.5Q732.4 88.2 731.8 87.7Q731.2 87.2 731.2 86.3L731.2 86.3Q731.2 85.6 731.6 85.0Q732.0 84.5 732.7 84.2Q733.3 83.9 734.2 83.9L734.2 83.9Q735.1 83.9 735.8 84.2Q736.4 84.5 736.8 85.0Q737.2 85.6 737.2 86.3L737.2 86.3L735.6 86.3Q735.6 85.8 735.2 85.5Q734.8 85.3 734.2 85.3L734.2 85.3Q733.8 85.3 733.5 85.4Q733.2 85.5 733.0 85.7Q732.9 85.9 732.9 86.2L732.9 86.2Q732.9 86.5 733.1 86.7Q733.2 86.9 733.5 87.0Q733.8 87.1 734.2 87.2L734.2 87.2L734.9 87.4Q735.4 87.5 735.8 87.7Q736.3 87.9 736.6 88.2Q736.9 88.4 737.1 88.8Q737.3 89.2 737.3 89.7L737.3 89.7Q737.3 90.4 736.9 91.0Q736.6 91.5 735.9 91.8Q735.2 92.1 734.2 92.1Z "/></g></svg>