<!-- Generated by readme-aura https://github.com/collectioneur/readme-aura -->
<svg width="860" height="140" viewBox="0 0 860 140" xmlns="http://www.w3.org/2000/svg"><defs><clipPath id="satori_bc-id"><path x="0" y="0" width="860" height="140" d="M16,0 h828 a16,16 0 0 1 16,16 v108 a16,16 0 0 1 -16,16 h-828 a16,16 0 0 1 -16,-16 v-108 a16,16 0 0 1 16,-16"/></clipPath></defs><clipPath id="satori_cp-id"><path x="0" y="0" width="860" height="140" d="M16,0 h828 a16,16 0 0 1 16,16 v108 a16,16 0 0 1 -16,16 h-828 a16,16 0 0 1 -16,-16 v-108 a16,16 0 0 1 16,-16"/></clipPath><mask id="satori_om-id"><rect x="1" y="1" width="858" height="138" fill="#fff"/><path width="860" height="140" fill="none" stroke="#000" stroke-width="2" d="M4.686,4.686 A16,16 0 0 1 16,0 h828 a16,16 0 0 1 16,16 v108 a16,16 0 0 1 -16,16 h-828 a16,16 0 0 1 -16,-16 v-108 A16,16 0 0 1 4.686,4.686"/></mask><path x="0" y="0" width="860" height="140" fill="#08080c" d="M16,0 h828 a16,16 0 0 1 16,16 v108 a16,16 0 0 1 -16,16 h-828 a16,16 0 0 1 -16,-16 v-108 a16,16 0 0 1 16,-16"/><path width="860" height="140" clip-path="url(#satori_bc-id)" fill="none" stroke="rgba(110,80,220,0.18)" stroke-width="2" d="M4.686,4.686 A16,16 0 0 1 16,0 h828 a16,16 0 0 1 16,16 v108 a16,16 0 0 1 -16,16 h-828 a16,16 0 0 1 -16,-16 v-108 A16,16 0 0 1 4.686,4.686"/><clipPath id="satori_cp-id-0" clip-path="url(#satori_cp-id)"><rect x="1" y="1" width="860" height="140"/></clipPath><mask id="satori_om-id-0"><rect x="1" y="1" width="860" height="140" fill="#fff" mask="url(#satori_om-id)"/></mask><svg x="1" y="1" width="860" height="140" preserveAspectRatio="none" clip-path="url(#satori_cp-id-0)" mask="url(#satori_om-id-0)"><defs><radialGradient id="g1" cx="50%" cy="50%" r="50%"><stop offset="0%" stop-color="rgba(110,20,210,0.65)"></stop><stop offset="45%" stop-color="rgba(80,15,170,0.28)"></stop><stop offset="70%" stop-color="rgba(80,15,170,0)"></stop></radialGradient><radialGradient id="g2" cx="50%" cy="50%" r="50%"><stop offset="0%" stop-color="rgba(40,70,255,0.55)"></stop><stop offset="45%" stop-color="rgba(20,50,200,0.22)"></stop><stop offset="70%" stop-color="rgba(20,50,200,0)"></stop></radialGradient><radialGradient id="g3" cx="50%" cy="50%" r="50%"><stop offset="0%" stop-color="rgba(0,140,255,0.42)"></stop><stop offset="70%" stop-color="rgba(0,140,255,0)"></stop></radialGradient><radialGradient id="g4" cx="50%" cy="50%" r="50%"><stop offset="0%" stop-color="rgba(0,195,235,0.30)"></stop><stop offset="70%" stop-color="rgba(0,195,235,0)"></stop></radialGradient><radialGradient id="g5" cx="50%" cy="50%" r="50%"><stop offset="0%" stop-color="rgba(100,30,210,0.40)"></stop><stop offset="70%" stop-color="rgba(100,30,210,0)"></stop></radialGradient></defs><ellipse id="glow-1" cx="710" cy="150" rx="210" ry="150" fill="url(#g1)"></ellipse><ellipse id="glow-2" cx="550" cy="140" rx="190" ry="140" fill="url(#g2)"></ellipse><ellipse id="glow-3" cx="400" cy="130" rx="170" ry="130" fill="url(#g3)"></ellipse><ellipse id="glow-4" cx="250" cy="140" rx="150" ry="120" fill="url(#g4)"></ellipse><ellipse id="glow-5" cx="100" cy="150" rx="130" ry="110" fill="url(#g5)"></ellipse><style>

         @keyframes float-slow {
           0%, 100% { transform: translateX(0px); opacity: 0.8; }
           50% { transform: translateX(350px); opacity: 1.2; }
         }
         @keyframes float-medium {
           0%, 100% { transform: translateX(0px); opacity: 0.7; }
           50% { transform: translateX(-250px); opacity: 1.1; }
         }
         @keyframes float-fast {
           0%, 100% { transform: translateX(0px); opacity: 0.9; }
           50% { transform: translateX(200px); opacity: 0.6; }
         }
         @keyframes float-diagonal {
           0%, 100% { transform: translate(0px, 0px); opacity: 0.75; }
           50% { transform: translate(120px, 30px); opacity: 1.0; }
         }
         @keyframes float-wave {
           0%, 100% { transform: translateX(0px); opacity: 0.65; }
           33% { transform: translateX(-160px); opacity: 0.9; }
           66% { transform: translateX(80px); opacity: 1.0; }
         }
         @keyframes float-pulse {
           0%, 100% { transform: scale(1); opacity: 0.8; }
           50% { transform: scale(1.3); opacity: 0.4; }
         }
         #glow-1 { animation: float-slow 8s ease-in-out infinite; }
         #glow-2 { animation: float-medium 12s ease-in-out infinite; }
         #glow-3 { animation: float-fast 9s ease-in-out infinite; }
         #glow-4 { animation: float-diagonal 10s ease-in-out infinite; }
         #glow-5 { animation: float-wave 14s ease-in-out infinite; }
       
</style>
</svg><mask id="satori_om-id-0-0"><rect x="1" y="1" width="0" height="140" fill="#fff" mask="url(#satori_om-id)"/></mask><mask id="satori_om-id-0-0-0"><rect x="1" y="1" width="0" height="140" fill="#fff" mask="url(#satori_om-id)"/></mask><mask id="satori_om-id-0-0-0-0"><rect x="1" y="1" width="0" height="140" fill="#fff" mask="url(#satori_om-id)"/></mask><mask id="satori_om-id-0-0-0-1"><rect x="1" y="1" width="0" height="140" fill="#fff" mask="url(#satori_om-id)"/></mask><mask id="satori_om-id-0-0-0-2"><rect x="1" y="1" width="0" height="140" fill="#fff" mask="url(#satori_om-id)"/></mask><mask id="satori_om-id-0-0-1"><rect x="1" y="1" width="0" height="140" fill="#fff" mask="url(#satori_om-id)"/></mask><mask id="satori_om-id-0-0-1-0"><rect x="1" y="1" width="0" height="140" fill="#fff" mask="url(#satori_om-id)"/></mask><mask id="satori_om-id-0-0-1-1"><rect x="1" y="1" width="0" height="140" fill="#fff" mask="url(#satori_om-id)"/></mask><mask id="satori_om-id-0-0-1-2"><rect x="1" y="1" width="0" height="140" fill="#fff" mask="url(#satori_om-id)"/></mask><mask id="satori_om-id-0-0-2"><rect x="1" y="1" width="0" height="140" fill="#fff" mask="url(#satori_om-id)"/></mask><mask id="satori_om-id-0-0-2-0"><rect x="1" y="1" width="0" height="140" fill="#fff" mask="url(#satori_om-id)"/></mask><mask id="satori_om-id-0-0-2-1"><rect x="1" y="1" width="0" height="140" fill="#fff" mask="url(#satori_om-id)"/></mask><mask id="satori_om-id-0-0-3"><rect x="1" y="1" width="0" height="140" fill="#fff" mask="url(#satori_om-id)"/></mask><mask id="satori_om-id-0-0-3-0"><rect x="1" y="1" width="0" height="140" fill="#fff" mask="url(#satori_om-id)"/></mask><mask id="satori_om-id-0-0-3-1"><rect x="1" y="1" width="0" height="140" fill="#fff" mask="url(#satori_om-id)"/></mask><mask id="satori_om-id-0-0-4"><rect x="1" y="1" width="0" height="140" fill="#fff" mask="url(#satori_om-id)"/></mask><mask id="satori_om-id-0-0-4-0"><rect x="1" y="1" width="0" height="140" fill="#fff" mask="url(#satori_om-id)"/></mask><mask id="satori_om-id-0-0-4-1"><rect x="1" y="1" width="0" height="140" fill="#fff" mask="url(#satori_om-id)"/></mask><mask id="satori_om-id-0-1"><rect x="1" y="1" width="0" height="140" fill="#fff" mask="url(#satori_om-id)"/></mask><mask id="satori_om-id-0-2"><rect x="1" y="1" width="0" height="140" fill="#fff" mask="url(#satori_om-id)"/></mask><mask id="satori_om-id-0-3"><rect x="1" y="1" width="0" height="140" fill="#fff" mask="url(#satori_om-id)"/></mask><mask id="satori_om-id-0-4"><rect x="1" y="1" width="0" height="140" fill="#fff" mask="url(#satori_om-id)"/></mask><mask id="satori_om-id-0-5"><rect x="1" y="1" width="0" height="140" fill="#fff" mask="url(#satori_om-id)"/></mask><defs><clipPath id="satori_bc-id-1" clip-path="url(#satori_cp-id)"><rect x="1" y="30" width="278" height="80"/></clipPath></defs><mask id="satori_om-id-1"><rect x="1" y="30" width="277" height="80" fill="#fff" mask="url(#satori_om-id)"/><path width="278" height="80" fill="none" stroke="#000" stroke-width="2" d="M279,30 A0,0 0 0 1 279,30 v80 A0,0 0 0 1 279,110"/></mask><path width="278" height="80" clip-path="url(#satori_bc-id-1)" fill="none" stroke="rgba(255,255,255,0.06)" stroke-width="2" d="M279,30 A0,0 0 0 1 279,30 v80 A0,0 0 0 1 279,110"/><mask id="satori_om-id-1-0"><rect x="124" y="46" width="32" height="30" fill="#fff" mask="url(#satori_om-id)"/></mask><g mask="url(#satori_om-id)" clip-path="url(#satori_cp-id)"><path fill="#a78bfa" d="M130.2 50.2L135.0 50.2L135.0 72L130.5 72L130.5 54.1L130.4 54.1L125.4 57.7L125.4 53.6L130.2 50.2ZM154.2 72L138.8 72L138.8 68.8L146.5 61.5Q147.5 60.6 148.2 59.8Q148.8 59.0 149.2 58.2Q149.6 57.5 149.6 56.6L149.6 56.6Q149.6 55.6 149.1 54.9Q148.7 54.2 147.9 53.8Q147.2 53.5 146.2 53.5L146.2 53.5Q145.2 53.5 144.4 53.9Q143.6 54.3 143.2 55.0Q142.8 55.8 142.8 56.9L142.8 56.9L138.5 56.9Q138.5 54.7 139.5 53.2Q140.5 51.6 142.2 50.7Q144.0 49.9 146.2 49.9L146.2 49.9Q148.5 49.9 150.3 50.7Q152.0 51.5 152.9 53.0Q153.9 54.4 153.9 56.3L153.9 56.3Q153.9 57.5 153.4 58.7Q152.9 59.9 151.7 61.4Q150.5 62.9 148.3 64.9L148.3 64.9L145.0 68.2L145.0 68.3L154.2 68.3L154.2 72Z "/></g><mask id="satori_om-id-1-1"><rect x="117" y="81" width="45" height="13" fill="#fff" mask="url(#satori_om-id)"/></mask><g mask="url(#satori_om-id)" clip-path="url(#satori_cp-id)"><path fill="rgba(200,195,225,0.45)" d="M119.4 92L117.7 92L117.7 84.0L120.8 84.0Q121.8 84.0 122.4 84.3Q123.0 84.6 123.4 85.2Q123.7 85.8 123.7 86.6Q123.7 87.4 123.4 88.0Q123.0 88.5 122.4 88.8L122.4 88.8Q122.3 88.9 122.3 88.9L122.3 88.9L124.0 92L122.2 92L120.6 89.1L119.4 89.1L119.4 92ZM119.4 85.4L119.4 87.8L120.5 87.8Q121.0 87.8 121.4 87.7Q121.7 87.5 121.9 87.3Q122.0 87.0 122.0 86.6L122.0 86.6Q122.0 86.2 121.9 85.9Q121.7 85.6 121.4 85.5Q121.0 85.4 120.5 85.4L120.5 85.4L119.4 85.4ZM131.8 92L126.4 92L126.4 84.0L131.8 84.0L131.8 85.4L128.1 85.4L128.1 87.3L131.5 87.3L131.5 88.6L128.1 88.6L128.1 90.6L131.8 90.6L131.8 92ZM136.3 92L134.6 92L134.6 84.0L137.8 84.0Q138.7 84.0 139.3 84.3Q139.9 84.7 140.3 85.3Q140.6 85.9 140.6 86.7L140.6 86.7Q140.6 87.5 140.3 88.1Q139.9 88.7 139.3 89.0Q138.6 89.4 137.7 89.4L137.7 89.4L136.3 89.4L136.3 92ZM136.3 85.4L136.3 88.1L137.5 88.1Q138.0 88.1 138.3 87.9Q138.6 87.7 138.8 87.4Q138.9 87.1 138.9 86.7Q138.9 86.3 138.8 86.0Q138.6 85.7 138.3 85.5Q138.0 85.4 137.4 85.4L137.4 85.4L136.3 85.4ZM146.8 92.1L146.8 92.1Q145.7 92.1 144.9 91.6Q144.0 91.1 143.5 90.2Q143.0 89.3 143.0 88.0L143.0 88.0Q143.0 86.7 143.5 85.8Q144.0 84.9 144.9 84.4Q145.7 83.9 146.8 83.9L146.8 83.9Q147.8 83.9 148.7 84.4Q149.5 84.9 150.0 85.8Q150.5 86.7 150.5 88.0L150.5 88.0Q150.5 89.3 150.0 90.2Q149.5 91.1 148.7 91.6Q147.8 92.1 146.8 92.1ZM146.8 90.7L146.8 90.7Q147.4 90.7 147.9 90.3Q148.3 90.0 148.6 89.5Q148.8 88.9 148.8 88.0L148.8 88.0Q148.8 87.1 148.6 86.5Q148.3 86.0 147.9 85.6Q147.4 85.3 146.8 85.3L146.8 85.3Q146.2 85.3 145.7 85.7Q145.2 86.0 145.0 86.6Q144.7 87.1 144.7 88.0L144.7 88.0Q144.7 88.9 145.0 89.4Q145.2 90.0 145.7 90.3Q146.2 90.7 146.8 90.7ZM156.2 92.1L156.2 92.1Q155.2 92.1 154.5 91.8Q153.8 91.5 153.4 90.9Q153.0 90.4 153.0 89.5L153.0 89.5L154.6 89.5Q154.6 89.9 154.8 90.2Q155.0 90.5 155.4 90.6Q155.7 90.7 156.2 90.7L156.2 90.7Q156.6 90.7 156.9 90.6Q157.2 90.5 157.4 90.2Q157.6 90.0 157.6 89.7L157.6 89.7Q157.6 89.4 157.4 89.3Q157.3 89.1 157.0 88.9Q156.7 88.8 156.2 88.7L156.2 88.7L155.3 88.5Q154.3 88.2 153.8 87.7Q153.2 87.2 153.2 86.3L153.2 86.3Q153.2 85.6 153.6 85.0Q154.0 84.5 154.6 84.2Q155.3 83.9 156.2 83.9L156.2 83.9Q157.1 83.9 157.7 84.2Q158.4 84.5 158.8 85.0Q159.1 85.6 159.1 86.3L159.1 86.3L157.6 86.3Q157.5 85.8 157.2 85.5Q156.8 85.3 156.2 85.3L156.2 85.3Q155.8 85.3 155.5 85.4Q155.2 85.5 155.0 85.7Q154.9 85.9 154.9 86.2L154.9 86.2Q154.9 86.5 155.0 86.7Q155.2 86.9 155.5 87.0Q155.8 87.1 156.1 87.2L156.1 87.2L156.9 87.4Q157.4 87.5 157.8 87.7Q158.2 87.9 158.6 88.2Q158.9 88.4 159.1 88.8Q159.3 89.2 159.3 89.7L159.3 89.7Q159.3 90.4 158.9 91.0Q158.5 91.5 157.8 91.8Q157.1 92.1 156.2 92.1Z "/></g><defs><clipPath id="satori_bc-id-2" clip-path="url(#satori_cp-id)"><rect x="279" y="30" width="278" height="80"/></clipPath></defs><mask id="satori_om-id-2"><rect x="279" y="30" width="277" height="80" fill="#fff" mask="url(#satori_om-id)"/><path width="278" height="80" fill="none" stroke="#000" stroke-width="2" d="M557,30 A0,0 0 0 1 557,30 v80 A0,0 0 0 1 557,110"/></mask><path width="278" height="80" clip-path="url(#satori_bc-id-2)" fill="none" stroke="rgba(255,255,255,0.06)" stroke-width="2" d="M557,30 A0,0 0 0 1 557,30 v80 A0,0 0 0 1 557,110"/><mask id="satori_om-id-2-0"><rect x="398" y="46" width="39" height="30" fill="#fff" mask="url(#satori_om-id)"/></mask><g mask="url(#satori_om-id)" clip-path="url(#satori_cp-id)"><path fill="#60a5fa" d="M407.2 72.3L407.2 72.3Q405.0 72.3 403.2 71.5Q401.5 70.6 400.4 69.2Q399.4 67.7 399.4 65.9L399.4 65.9L403.7 65.9Q403.8 66.7 404.2 67.4Q404.7 68.0 405.5 68.4Q406.3 68.7 407.2 68.7L407.2 68.7Q408.3 68.7 409.1 68.3Q410.0 67.8 410.5 66.9Q410.9 66.0 410.9 64.9L410.9 64.9Q410.9 63.7 410.5 62.8Q410.0 61.9 409.1 61.4Q408.3 60.9 407.1 60.9L407.1 60.9Q406.1 60.9 405.2 61.3Q404.3 61.7 403.8 62.3L403.8 62.3L399.8 61.6L400.9 50.2L414.1 50.2L414.1 53.9L404.6 53.9L404.0 59.4L404.1 59.4Q404.7 58.6 405.9 58.1Q407.0 57.6 408.4 57.6L408.4 57.6Q409.9 57.6 411.2 58.1Q412.4 58.6 413.3 59.6Q414.3 60.5 414.8 61.9Q415.3 63.2 415.3 64.7L415.3 64.7Q415.3 66.9 414.3 68.6Q413.2 70.3 411.4 71.3Q409.6 72.3 407.2 72.3ZM426.0 72.3L426.0 72.3Q423.8 72.3 422.2 71.5Q420.5 70.6 419.5 69.2Q418.5 67.7 418.3 65.9L418.3 65.9L422.7 65.9Q422.9 67.1 423.8 67.8Q424.7 68.5 426.0 68.5L426.0 68.5Q427.4 68.5 428.4 67.6Q429.4 66.8 429.9 65.2Q430.4 63.6 430.4 61.5L430.4 61.5L430.3 61.5Q429.8 62.4 428.9 63.1Q428.1 63.8 427.0 64.1Q426.0 64.5 424.8 64.5L424.8 64.5Q422.8 64.5 421.3 63.6Q419.8 62.7 418.9 61.1Q418.0 59.5 418.0 57.5L418.0 57.5Q418.0 55.2 419.1 53.5Q420.1 51.8 421.9 50.8Q423.8 49.8 426.2 49.9L426.2 49.9Q427.8 49.9 429.4 50.4Q430.9 51.0 432.1 52.2Q433.3 53.5 434.1 55.5Q434.8 57.6 434.8 60.6L434.8 60.6Q434.8 63.3 434.2 65.5Q433.5 67.7 432.4 69.2Q431.2 70.7 429.6 71.5Q428.0 72.3 426.0 72.3ZM426.1 61.2L426.1 61.2Q426.9 61.2 427.6 60.9Q428.3 60.6 428.8 60.1Q429.4 59.5 429.7 58.8Q429.9 58.1 429.9 57.3L429.9 57.3Q429.9 56.3 429.5 55.4Q429.0 54.5 428.1 54.0Q427.3 53.4 426.2 53.4L426.2 53.4Q425.1 53.4 424.2 53.9Q423.4 54.5 422.9 55.4Q422.4 56.2 422.4 57.3L422.4 57.3Q422.4 58.4 422.9 59.3Q423.4 60.2 424.2 60.7Q425.1 61.2 426.1 61.2Z "/></g><mask id="satori_om-id-2-1"><rect x="395" y="81" width="45" height="13" fill="#fff" mask="url(#satori_om-id)"/></mask><g mask="url(#satori_om-id)" clip-path="url(#satori_cp-id)"><path fill="rgba(200,195,225,0.45)" d="M398.7 92.1L398.7 92.1Q397.7 92.1 397.0 91.8Q396.3 91.5 395.9 90.9Q395.5 90.4 395.5 89.5L395.5 89.5L397.1 89.5Q397.1 89.9 397.3 90.2Q397.5 90.5 397.9 90.6Q398.2 90.7 398.6 90.7L398.6 90.7Q399.1 90.7 399.4 90.6Q399.7 90.5 399.9 90.2Q400.1 90.0 400.1 89.7L400.1 89.7Q400.1 89.4 399.9 89.3Q399.8 89.1 399.5 88.9Q399.2 88.8 398.7 88.7L398.7 88.7L397.8 88.5Q396.8 88.2 396.2 87.7Q395.7 87.2 395.7 86.3L395.7 86.3Q395.7 85.6 396.1 85.0Q396.5 84.5 397.1 84.2Q397.8 83.9 398.7 83.9L398.7 83.9Q399.6 83.9 400.2 84.2Q400.9 84.5 401.3 85.0Q401.6 85.6 401.6 86.3L401.6 86.3L400.1 86.3Q400.0 85.8 399.6 85.5Q399.3 85.3 398.7 85.3L398.7 85.3Q398.2 85.3 398.0 85.4Q397.7 85.5 397.5 85.7Q397.4 85.9 397.4 86.2L397.4 86.2Q397.4 86.5 397.5 86.7Q397.7 86.9 398.0 87.0Q398.3 87.1 398.6 87.2L398.6 87.2L399.4 87.4Q399.9 87.5 400.3 87.7Q400.7 87.9 401.1 88.2Q401.4 88.4 401.6 88.8Q401.7 89.2 401.7 89.7L401.7 89.7Q401.7 90.4 401.4 91.0Q401.0 91.5 400.3 91.8Q399.6 92.1 398.7 92.1ZM406.6 85.4L404.1 85.4L404.1 84.0L410.6 84.0L410.6 85.4L408.2 85.4L408.2 92L406.6 92L406.6 85.4ZM414.6 92L412.8 92L415.5 84.0L417.7 84.0L420.5 92L418.7 92L418.1 90.1L415.2 90.1L414.6 92ZM415.6 88.9L417.6 88.9L417.4 88.1Q417.2 87.4 416.9 86.5L416.9 86.5Q416.8 85.9 416.6 85.3L416.6 85.3Q416.4 85.9 416.3 86.5L416.3 86.5Q416.1 87.4 415.9 88.1L415.9 88.1L415.6 88.9ZM424.6 92L423.0 92L423.0 84.0L426.1 84.0Q427.0 84.0 427.7 84.3Q428.3 84.6 428.6 85.2Q429.0 85.8 429.0 86.6Q429.0 87.4 428.6 88.0Q428.3 88.5 427.6 88.8L427.6 88.8Q427.6 88.9 427.5 88.9L427.5 88.9L429.3 92L427.4 92L425.9 89.1L424.6 89.1L424.6 92ZM424.6 85.4L424.6 87.8L425.8 87.8Q426.3 87.8 426.6 87.7Q427.0 87.5 427.1 87.3Q427.3 87.0 427.3 86.6L427.3 86.6Q427.3 86.2 427.1 85.9Q427.0 85.6 426.6 85.5Q426.3 85.4 425.8 85.4L425.8 85.4L424.6 85.4ZM434.6 92.1L434.6 92.1Q433.7 92.1 433.0 91.8Q432.3 91.5 431.9 90.9Q431.5 90.4 431.4 89.5L431.4 89.5L433.0 89.5Q433.1 89.9 433.3 90.2Q433.5 90.5 433.8 90.6Q434.2 90.7 434.6 90.7L434.6 90.7Q435.1 90.7 435.4 90.6Q435.7 90.5 435.9 90.2Q436.1 90.0 436.1 89.7L436.1 89.7Q436.1 89.4 435.9 89.3Q435.8 89.1 435.4 88.9Q435.1 88.8 434.7 88.7L434.7 88.7L433.8 88.5Q432.8 88.2 432.2 87.7Q431.7 87.2 431.7 86.3L431.7 86.3Q431.7 85.6 432.0 85.0Q432.4 84.5 433.1 84.2Q433.8 83.9 434.7 83.9L434.7 83.9Q435.5 83.9 436.2 84.2Q436.9 84.5 437.2 85.0Q437.6 85.6 437.6 86.3L437.6 86.3L436.0 86.3Q436.0 85.8 435.6 85.5Q435.3 85.3 434.6 85.3L434.6 85.3Q434.2 85.3 433.9 85.4Q433.6 85.5 433.5 85.7Q433.3 85.9 433.3 86.2L433.3 86.2Q433.3 86.5 433.5 86.7Q433.7 86.9 434.0 87.0Q434.3 87.1 434.6 87.2L434.6 87.2L435.3 87.4Q435.8 87.5 436.3 87.7Q436.7 87.9 437.0 88.2Q437.4 88.4 437.5 88.8Q437.7 89.2 437.7 89.7L437.7 89.7Q437.7 90.4 437.4 91.0Q437.0 91.5 436.3 91.8Q435.6 92.1 434.6 92.1Z "/></g><mask id="satori_om-id-3"><rect x="557" y="30" width="302" height="80" fill="#fff" mask="url(#satori_om-id)"/></mask><mask id="satori_om-id-3-0"><rect x="673" y="46" width="70" height="30" fill="#fff" mask="url(#satori_om-id)"/></mask><g mask="url(#satori_om-id)" clip-path="url(#satori_cp-id)"><path fill="#f59e0b" d="M690.3 72L674.8 72L674.8 68.8L682.6 61.5Q683.5 60.6 684.2 59.8Q684.9 59.0 685.3 58.2Q685.6 57.5 685.6 56.6L685.6 56.6Q685.6 55.6 685.2 54.9Q684.7 54.2 684.0 53.8Q683.2 53.5 682.2 53.5L682.2 53.5Q681.2 53.5 680.5 53.9Q679.7 54.3 679.3 55.0Q678.9 55.8 678.9 56.9L678.9 56.9L674.6 56.9Q674.6 54.7 675.6 53.2Q676.6 51.6 678.3 50.7Q680.0 49.9 682.3 49.9L682.3 49.9Q684.6 49.9 686.3 50.7Q688.0 51.5 689.0 53.0Q690.0 54.4 690.0 56.3L690.0 56.3Q690.0 57.5 689.5 58.7Q689.0 59.9 687.8 61.4Q686.6 62.9 684.3 64.9L684.3 64.9L681.0 68.2L681.0 68.3L690.3 68.3L690.3 72ZM701.5 72.3L701.5 72.3Q699.2 72.3 697.3 71.5Q695.5 70.7 694.4 69.2Q693.4 67.8 693.3 65.9L693.3 65.9L697.8 65.9Q697.9 66.7 698.4 67.3Q698.9 67.9 699.7 68.3Q700.5 68.6 701.6 68.6L701.6 68.6Q702.6 68.6 703.5 68.2Q704.3 67.8 704.8 67.2Q705.2 66.5 705.2 65.6L705.2 65.6Q705.2 64.7 704.7 64.0Q704.2 63.3 703.3 62.9Q702.4 62.5 701.2 62.5L701.2 62.5L699.1 62.5L699.1 59.2L701.2 59.2Q702.2 59.2 703.0 58.8Q703.8 58.5 704.3 57.8Q704.8 57.2 704.8 56.3L704.8 56.3Q704.8 55.4 704.4 54.8Q704.0 54.2 703.3 53.8Q702.5 53.5 701.6 53.5L701.6 53.5Q700.6 53.5 699.9 53.8Q699.1 54.1 698.6 54.8Q698.1 55.4 698.1 56.2L698.1 56.2L693.8 56.2Q693.8 54.4 694.8 52.9Q695.9 51.5 697.6 50.7Q699.4 49.9 701.6 49.9L701.6 49.9Q703.9 49.9 705.5 50.7Q707.2 51.5 708.2 52.9Q709.1 54.3 709.1 56.0L709.1 56.0Q709.1 57.8 708.0 59.1Q706.8 60.3 705.0 60.6L705.0 60.6L705.0 60.8Q706.6 61.0 707.7 61.7Q708.8 62.4 709.3 63.5Q709.9 64.5 709.9 65.9L709.9 65.9Q709.9 67.7 708.8 69.2Q707.7 70.6 705.9 71.5Q704.0 72.3 701.5 72.3ZM717.4 50.2L722.2 50.2L722.2 72L717.8 72L717.8 54.1L717.6 54.1L712.6 57.7L712.6 53.6L717.4 50.2ZM733.4 72.3L733.4 72.3Q731.2 72.3 729.4 71.5Q727.7 70.6 726.6 69.2Q725.6 67.7 725.6 65.9L725.6 65.9L729.9 65.9Q730.0 66.7 730.4 67.4Q730.9 68.0 731.7 68.4Q732.5 68.7 733.4 68.7L733.4 68.7Q734.5 68.7 735.3 68.3Q736.2 67.8 736.7 66.9Q737.1 66.0 737.1 64.9L737.1 64.9Q737.1 63.7 736.7 62.8Q736.2 61.9 735.3 61.4Q734.5 60.9 733.3 60.9L733.3 60.9Q732.3 60.9 731.4 61.3Q730.5 61.7 730.0 62.3L730.0 62.3L726.0 61.6L727.1 50.2L740.3 50.2L740.3 53.9L730.8 53.9L730.2 59.4L730.3 59.4Q730.9 58.6 732.1 58.1Q733.2 57.6 734.6 57.6L734.6 57.6Q736.1 57.6 737.4 58.1Q738.6 58.6 739.5 59.6Q740.5 60.5 741.0 61.9Q741.5 63.2 741.5 64.7L741.5 64.7Q741.5 66.9 740.5 68.6Q739.4 70.3 737.6 71.3Q735.8 72.3 733.4 72.3Z "/></g><mask id="satori_om-id-3-1"><rect x="675" y="81" width="66" height="13" fill="#fff" mask="url(#satori_om-id)"/></mask><g mask="url(#satori_om-id)" clip-path="url(#satori_cp-id)"><path fill="rgba(200,195,225,0.45)" d="M679.2 92.1L679.2 92.1Q678.2 92.1 677.3 91.6Q676.5 91.1 676.0 90.2Q675.5 89.3 675.5 88.0L675.5 88.0Q675.5 86.7 676.0 85.8Q676.5 84.9 677.3 84.4Q678.2 83.9 679.2 83.9L679.2 83.9Q679.9 83.9 680.5 84.1Q681.1 84.3 681.5 84.6Q682.0 85.0 682.3 85.5Q682.6 86.1 682.7 86.7L682.7 86.7L681.0 86.7Q681.0 86.4 680.8 86.1Q680.6 85.9 680.4 85.7Q680.2 85.5 679.9 85.4Q679.6 85.3 679.3 85.3L679.3 85.3Q678.6 85.3 678.2 85.7Q677.7 86.0 677.4 86.6Q677.2 87.2 677.2 88.0L677.2 88.0Q677.2 88.9 677.4 89.5Q677.7 90.1 678.2 90.4Q678.6 90.7 679.2 90.7L679.2 90.7Q679.6 90.7 679.9 90.6Q680.2 90.5 680.4 90.3Q680.6 90.1 680.8 89.8Q681.0 89.6 681.0 89.3L681.0 89.3L682.7 89.3Q682.6 89.8 682.3 90.3Q682.1 90.8 681.6 91.2Q681.2 91.6 680.6 91.9Q680.0 92.1 679.2 92.1ZM688.9 92.1L688.9 92.1Q687.8 92.1 687.0 91.6Q686.1 91.1 685.6 90.2Q685.1 89.3 685.1 88.0L685.1 88.0Q685.1 86.7 685.6 85.8Q686.1 84.9 687.0 84.4Q687.8 83.9 688.9 83.9L688.9 83.9Q689.9 83.9 690.8 84.4Q691.6 84.9 692.1 85.8Q692.6 86.7 692.6 88.0L692.6 88.0Q692.6 89.3 692.1 90.2Q691.6 91.1 690.8 91.6Q689.9 92.1 688.9 92.1ZM688.9 90.7L688.9 90.7Q689.5 90.7 690.0 90.3Q690.4 90.0 690.7 89.5Q690.9 88.9 690.9 88.0L690.9 88.0Q690.9 87.1 690.7 86.5Q690.4 86.0 690.0 85.6Q689.5 85.3 688.9 85.3L688.9 85.3Q688.3 85.3 687.8 85.7Q687.3 86.0 687.1 86.6Q686.8 87.1 686.8 88.0L686.8 88.0Q686.8 88.9 687.1 89.4Q687.3 90.0 687.8 90.3Q688.3 90.7 688.9 90.7ZM697.0 92L695.3 92L695.3 84.0L697.9 84.0L699.2 87.7Q699.2 87.9 699.3 88.3Q699.4 88.7 699.5 89.2L699.5 89.2Q699.7 89.7 699.7 90.1L699.7 90.1Q699.8 89.7 699.9 89.2L699.9 89.2Q700.0 88.8 700.2 88.3Q700.3 87.9 700.3 87.7L700.3 87.7L701.6 84.0L704.1 84.0L704.1 92L702.5 92L702.5 88.2Q702.5 88.0 702.5 87.6Q702.5 87.2 702.5 86.7Q702.5 86.3 702.5 85.8L702.5 85.8Q702.6 85.6 702.6 85.4L702.6 85.4Q702.5 85.6 702.4 85.9L702.4 85.9Q702.3 86.3 702.2 86.8Q702.1 87.2 701.9 87.6Q701.8 88.0 701.8 88.2L701.8 88.2L700.4 92L699.0 92L697.7 88.2Q697.6 88.0 697.5 87.6Q697.4 87.2 697.3 86.8Q697.1 86.4 697.0 85.9L697.0 85.9Q697.0 85.7 696.9 85.5L696.9 85.5Q696.9 85.6 696.9 85.8L696.9 85.8Q696.9 86.2 696.9 86.7Q696.9 87.2 697.0 87.6Q697.0 88.0 697.0 88.2L697.0 88.2L697.0 92ZM708.7 92L707.1 92L707.1 84.0L709.6 84.0L710.9 87.7Q711.0 87.9 711.1 88.3Q711.2 88.7 711.3 89.2L711.3 89.2Q711.4 89.7 711.5 90.1L711.5 90.1Q711.6 89.7 711.7 89.2L711.7 89.2Q711.8 88.8 711.9 88.3Q712.0 87.9 712.1 87.7L712.1 87.7L713.4 84.0L715.9 84.0L715.9 92L714.2 92L714.2 88.2Q714.2 88.0 714.2 87.6Q714.3 87.2 714.3 86.7Q714.3 86.3 714.3 85.8L714.3 85.8Q714.3 85.6 714.3 85.4L714.3 85.4Q714.2 85.6 714.2 85.9L714.2 85.9Q714.1 86.3 713.9 86.8Q713.8 87.2 713.7 87.6Q713.6 88.0 713.5 88.2L713.5 88.2L712.2 92L710.8 92L709.4 88.2Q709.4 88.0 709.3 87.6Q709.1 87.2 709.0 86.8Q708.9 86.4 708.8 85.9L708.8 85.9Q708.7 85.7 708.7 85.5L708.7 85.5Q708.7 85.6 708.7 85.8L708.7 85.8Q708.7 86.2 708.7 86.7Q708.7 87.2 708.7 87.6Q708.7 88.0 708.7 88.2L708.7 88.2L708.7 92ZM718.8 84.0L720.5 84.0L720.5 92L718.8 92L718.8 84.0ZM725.5 85.4L723.1 85.4L723.1 84.0L729.6 84.0L729.6 85.4L727.2 85.4L727.2 92L725.5 92L725.5 85.4ZM735.2 92.1L735.2 92.1Q734.2 92.1 733.5 91.8Q732.8 91.5 732.4 90.9Q732.0 90.4 732.0 89.5L732.0 89.5L733.6 89.5Q733.6 89.9 733.8 90.2Q734.0 90.5 734.4 90.6Q734.7 90.7 735.2 90.7L735.2 90.7Q735.6 90.7 735.9 90.6Q736.3 90.5 736.5 90.2Q736.6 90.0 736.6 89.7L736.6 89.7Q736.6 89.4 736.5 89.3Q736.3 89.1 736.0 88.9Q735.7 88.8 735.3 88.7L735.3 88.7L734.4 88.5Q733.4 88.2 732.8 87.7Q732.2 87.2 732.2 86.3L732.2 86.3Q732.2 85.6 732.6 85.0Q733.0 84.5 733.7 84.2Q734.3 83.9 735.2 83.9L735.2 83.9Q736.1 83.9 736.8 84.2Q737.4 84.5 737.8 85.0Q738.2 85.6 738.2 86.3L738.2 86.3L736.6 86.3Q736.6 85.8 736.2 85.5Q735.8 85.3 735.2 85.3L735.2 85.3Q734.8 85.3 734.5 85.4Q734.2 85.5 734.0 85.7Q733.9 85.9 733.9 86.2L733.9 86.2Q733.9 86.5 734.1 86.7Q734.2 86.9 734.5 87.0Q734.8 87.1 735.2 87.2L735.2 87.2L735.9 87.4Q736.4 87.5 736.8 87.7Q737.3 87.9 737.6 88.2Q737.9 88.4 738.1 88.8Q738.3 89.2 738.3 89.7L738.3 89.7Q738.3 90.4 737.9 91.0Q737.6 91.5 736.9 91.8Q736.2 92.1 735.2 92.1Z "/></g></svg>