<!-- Generated by readme-aura https://github.com/collectioneur/readme-aura -->
<svg width="860" height="140" viewBox="0 0 860 140" xmlns="http://www.w3.org/2000/svg"><defs><clipPath id="satori_bc-id"><path x="0" y="0" width="860" height="140" d="M16,0 h828 a16,16 0 0 1 16,16 v108 a16,16 0 0 1 -16,16 h-828 a16,16 0 0 1 -16,-16 v-108 a16,16 0 0 1 16,-16"/></clipPath></defs><clipPath id="satori_cp-id"><path x="0" y="0" width="860" height="140" d="M16,0 h828 a16,16 0 0 1 16,16 v108 a16,16 0 0 1 -16,16 h-828 a16,16 0 0 1 -16,-16 v-108 a16,16 0 0 1 16,-16"/></clipPath><mask id="satori_om-id"><rect x="1" y="1" width="858" height="138" fill="#fff"/><path width="860" height="140" fill="none" stroke="#000" stroke-width="2" d="M4.686,4.686 A16,16 0 0 1 16,0 h828 a16,16 0 0 1 16,16 v108 a16,16 0 0 1 -16,16 h-828 a16,16 0 0 1 -16,-16 v-108 A16,16 0 0 1 4.686,4.686"/></mask><path x="0" y="0" width="860" height="140" fill="#08080c" d="M16,0 h828 a16,16 0 0 1 16,16 v108 a16,16 0 0 1 -16,16 h-828 a16,16 0 0 1 -16,-16 v-108 a16,16 0 0 1 16,-16"/><path width="860" height="140" clip-path="url(#satori_bc-id)" fill="none" stroke="rgba(110,80,220,0.18)" stroke-width="2" d="M4.686,4.686 A16,16 0 0 1 16,0 h828 a16,16 0 0 1 16,16 v108 a16,16 0 0 1 -16,16 h-828 a16,16 0 0 1 -16,-16 v-108 A16,16 0 0 1 4.686,4.686"/><clipPath id="satori_cp-id-0" clip-path="url(#satori_cp-id)"><rect x="1" y="1" width="860" height="140"/></clipPath><mask id="satori_om-id-0"><rect x="1" y="1" width="860" height="140" fill="#fff" mask="url(#satori_om-id)"/></mask><svg x="1" y="1" width="860" height="140" preserveAspectRatio="none" clip-path="url(#satori_cp-id-0)" mask="url(#satori_om-id-0)"><defs><radialGradient id="g1" cx="50%" cy="50%" r="50%"><stop offset="0%" stop-color="rgba(110,20,210,0.65)"></stop><stop offset="45%" stop-color="rgba(80,15,170,0.28)"></stop><stop offset="70%" stop-color="rgba(80,15,170,0)"></stop></radialGradient><radialGradient id="g2" cx="50%" cy="50%" r="50%"><stop offset="0%" stop-color="rgba(40,70,255,0.55)"></stop><stop offset="45%" stop-color="rgba(20,50,200,0.22)"></stop><stop offset="70%" stop-color="rgba(20,50,200,0)"></stop></radialGradient><radialGradient id="g3" cx="50%" cy="50%" r="50%"><stop offset="0%" stop-color="rgba(0,140,255,0.42)"></stop><stop offset="70%" stop-color="rgba(0,140,255,0)"></stop></radialGradient><radialGradient id="g4" cx="50%" cy="50%" r="50%"><stop offset="0%" stop-color="rgba(0,195,235,0.30)"></stop><stop offset="70%" stop-color="rgba(0,195,235,0)"></stop></radialGradient><radialGradient id="g5" cx="50%" cy="50%" r="50%"><stop offset="0%" stop-color="rgba(100,30,210,0.40)"></stop><stop offset="70%" stop-color="rgba(100,30,210,0)"></stop></radialGradient></defs><ellipse id="glow-1" cx="710" cy="150" rx="210" ry="150" fill="url(#g1)"></ellipse><ellipse id="glow-2" cx="550" cy="140" rx="190" ry="140" fill="url(#g2)"></ellipse><ellipse id="glow-3" cx="400" cy="130" rx="170" ry="130" fill="url(#g3)"></ellipse><ellipse id="glow-4" cx="250" cy="140" rx="150" ry="120" fill="url(#g4)"></ellipse><ellipse id="glow-5" cx="100" cy="150" rx="130" ry="110" fill="url(#g5)"></ellipse><style>

         @keyframes float-slow {
           0%, 100% { transform: translateX(0px); opacity: 0.8; }
           50% { transform: translateX(350px); opacity: 1.2; }
         }
         @keyframes float-medium {
           0%, 100% { transform: translateX(0px); opacity: 0.7; }
           50% { transform: translateX(-250px); opacity: 1.1; }
         }
         @keyframes float-fast {
           0%, 100% { transform: translateX(0px); opacity: 0.9; }
           50% { transform: translateX(200px); opacity: 0.6; }
         }
         @keyframes float-diagonal {
           0%, 100% { transform: translate(0px, 0px); opacity: 0.75; }
           50% { transform: translate(120px, 30px); opacity: 1.0; }
         }
         @keyframes float-wave {
           0%, 100% { transform: translateX(0px); opacity: 0.65; }
           33% { transform: translateX(-160px); opacity: 0.9; }
           66% { transform: translateX(80px); opacity: 1.0; }
         }
         @keyframes float-pulse {
           0%, 100% { transform: scale(1); opacity: 0.8; }
           50% { transform: scale(1.3); opacity: 0.4; }
         }
         #glow-1 { animation: float-slow 8s ease-in-out infinite; }
         #glow-2 { animation: float-medium 12s ease-in-out infinite; }
         #glow-3 { animation: float-fast 9s ease-in-out infinite; }
         #glow-4 { animation: float-diagonal 10s ease-in-out infinite; }
         #glow-5 { animation: float-wave 14s ease-in-out infinite; }
       
</style>
</svg><mask id="satori_om-id-0-0"><rect x="1" y="1" width="0" height="140" fill="#fff" mask="url(#satori_om-id)"/></mask><mask id="satori_om-id-0-0-0"><rect x="1" y="1" width="0" height="140" fill="#fff" mask="url(#satori_om-id)"/></mask><mask id="satori_om-id-0-0-0-0"><rect x="1" y="1" width="0" height="140" fill="#fff" mask="url(#satori_om-id)"/></mask><mask id="satori_om-id-0-0-0-1"><rect x="1" y="1" width="0" height="140" fill="#fff" mask="url(#satori_om-id)"/></mask><mask id="satori_om-id-0-0-0-2"><rect x="1" y="1" width="0" height="140" fill="#fff" mask="url(#satori_om-id)"/></mask><mask id="satori_om-id-0-0-1"><rect x="1" y="1" width="0" height="140" fill="#fff" mask="url(#satori_om-id)"/></mask><mask id="satori_om-id-0-0-1-0"><rect x="1" y="1" width="0" height="140" fill="#fff" mask="url(#satori_om-id)"/></mask><mask id="satori_om-id-0-0-1-1"><rect x="1" y="1" width="0" height="140" fill="#fff" mask="url(#satori_om-id)"/></mask><mask id="satori_om-id-0-0-1-2"><rect x="1" y="1" width="0" height="140" fill="#fff" mask="url(#satori_om-id)"/></mask><mask id="satori_om-id-0-0-2"><rect x="1" y="1" width="0" height="140" fill="#fff" mask="url(#satori_om-id)"/></mask><mask id="satori_om-id-0-0-2-0"><rect x="1" y="1" width="0" height="140" fill="#fff" mask="url(#satori_om-id)"/></mask><mask id="satori_om-id-0-0-2-1"><rect x="1" y="1" width="0" height="140" fill="#fff" mask="url(#satori_om-id)"/></mask><mask id="satori_om-id-0-0-3"><rect x="1" y="1" width="0" height="140" fill="#fff" mask="url(#satori_om-id)"/></mask><mask id="satori_om-id-0-0-3-0"><rect x="1" y="1" width="0" height="140" fill="#fff" mask="url(#satori_om-id)"/></mask><mask id="satori_om-id-0-0-3-1"><rect x="1" y="1" width="0" height="140" fill="#fff" mask="url(#satori_om-id)"/></mask><mask id="satori_om-id-0-0-4"><rect x="1" y="1" width="0" height="140" fill="#fff" mask="url(#satori_om-id)"/></mask><mask id="satori_om-id-0-0-4-0"><rect x="1" y="1" width="0" height="140" fill="#fff" mask="url(#satori_om-id)"/></mask><mask id="satori_om-id-0-0-4-1"><rect x="1" y="1" width="0" height="140" fill="#fff" mask="url(#satori_om-id)"/></mask><mask id="satori_om-id-0-1"><rect x="1" y="1" width="0" height="140" fill="#fff" mask="url(#satori_om-id)"/></mask><mask id="satori_om-id-0-2"><rect x="1" y="1" width="0" height="140" fill="#fff" mask="url(#satori_om-id)"/></mask><mask id="satori_om-id-0-3"><rect x="1" y="1" width="0" height="140" fill="#fff" mask="url(#satori_om-id)"/></mask><mask id="satori_om-id-0-4"><rect x="1" y="1" width="0" height="140" fill="#fff" mask="url(#satori_om-id)"/></mask><mask id="satori_om-id-0-5"><rect x="1" y="1" width="0" height="140" fill="#fff" mask="url(#satori_om-id)"/></mask><defs><clipPath id="satori_bc-id-1" clip-path="url(#satori_cp-id)"><rect x="1" y="30" width="275" height="80"/></clipPath></defs><mask id="satori_om-id-1"><rect x="1" y="30" width="274" height="80" fill="#fff" mask="url(#satori_om-id)"/><path width="275" height="80" fill="none" stroke="#000" stroke-width="2" d="M276,30 A0,0 0 0 1 276,30 v80 A0,0 0 0 1 276,110"/></mask><path width="275" height="80" clip-path="url(#satori_bc-id-1)" fill="none" stroke="rgba(255,255,255,0.06)" stroke-width="2" d="M276,30 A0,0 0 0 1 276,30 v80 A0,0 0 0 1 276,110"/><mask id="satori_om-id-1-0"><rect x="125" y="46" width="26" height="30" fill="#fff" mask="url(#satori_om-id)"/></mask><g mask="url(#satori_om-id)" clip-path="url(#satori_cp-id)"><path fill="#a78bfa" d="M131.2 50.2L136.0 50.2L136.0 72L131.5 72L131.5 54.1L131.4 54.1L126.4 57.7L126.4 53.6L131.2 50.2ZM144.1 50.2L148.9 50.2L148.9 72L144.4 72L144.4 54.1L144.3 54.1L139.3 57.7L139.3 53.6L144.1 50.2Z "/></g><mask id="satori_om-id-1-1"><rect x="116" y="81" width="45" height="13" fill="#fff" mask="url(#satori_om-id)"/></mask><g mask="url(#satori_om-id)" clip-path="url(#satori_cp-id)"><path fill="rgba(200,195,225,0.45)" d="M118.4 92L116.7 92L116.7 84.0L119.8 84.0Q120.8 84.0 121.4 84.3Q122.0 84.6 122.4 85.2Q122.7 85.8 122.7 86.6Q122.7 87.4 122.4 88.0Q122.0 88.5 121.4 88.8L121.4 88.8Q121.3 88.9 121.3 88.9L121.3 88.9L123.0 92L121.2 92L119.6 89.1L118.4 89.1L118.4 92ZM118.4 85.4L118.4 87.8L119.5 87.8Q120.0 87.8 120.4 87.7Q120.7 87.5 120.9 87.3Q121.0 87.0 121.0 86.6L121.0 86.6Q121.0 86.2 120.9 85.9Q120.7 85.6 120.4 85.5Q120.0 85.4 119.5 85.4L119.5 85.4L118.4 85.4ZM130.8 92L125.4 92L125.4 84.0L130.8 84.0L130.8 85.4L127.1 85.4L127.1 87.3L130.5 87.3L130.5 88.6L127.1 88.6L127.1 90.6L130.8 90.6L130.8 92ZM135.3 92L133.6 92L133.6 84.0L136.8 84.0Q137.7 84.0 138.3 84.3Q138.9 84.7 139.3 85.3Q139.6 85.9 139.6 86.7L139.6 86.7Q139.6 87.5 139.3 88.1Q138.9 88.7 138.3 89.0Q137.6 89.4 136.7 89.4L136.7 89.4L135.3 89.4L135.3 92ZM135.3 85.4L135.3 88.1L136.5 88.1Q137.0 88.1 137.3 87.9Q137.6 87.7 137.8 87.4Q137.9 87.1 137.9 86.7Q137.9 86.3 137.8 86.0Q137.6 85.7 137.3 85.5Q137.0 85.4 136.4 85.4L136.4 85.4L135.3 85.4ZM145.8 92.1L145.8 92.1Q144.7 92.1 143.9 91.6Q143.0 91.1 142.5 90.2Q142.0 89.3 142.0 88.0L142.0 88.0Q142.0 86.7 142.5 85.8Q143.0 84.9 143.9 84.4Q144.7 83.9 145.8 83.9L145.8 83.9Q146.8 83.9 147.7 84.4Q148.5 84.9 149.0 85.8Q149.5 86.7 149.5 88.0L149.5 88.0Q149.5 89.3 149.0 90.2Q148.5 91.1 147.7 91.6Q146.8 92.1 145.8 92.1ZM145.8 90.7L145.8 90.7Q146.4 90.7 146.9 90.3Q147.3 90.0 147.6 89.5Q147.8 88.9 147.8 88.0L147.8 88.0Q147.8 87.1 147.6 86.5Q147.3 86.0 146.9 85.6Q146.4 85.3 145.8 85.3L145.8 85.3Q145.2 85.3 144.7 85.7Q144.2 86.0 144.0 86.6Q143.7 87.1 143.7 88.0L143.7 88.0Q143.7 88.9 144.0 89.4Q144.2 90.0 144.7 90.3Q145.2 90.7 145.8 90.7ZM155.2 92.1L155.2 92.1Q154.2 92.1 153.5 91.8Q152.8 91.5 152.4 90.9Q152.0 90.4 152.0 89.5L152.0 89.5L153.6 89.5Q153.6 89.9 153.8 90.2Q154.0 90.5 154.4 90.6Q154.7 90.7 155.2 90.7L155.2 90.7Q155.6 90.7 155.9 90.6Q156.2 90.5 156.4 90.2Q156.6 90.0 156.6 89.7L156.6 89.7Q156.6 89.4 156.4 89.3Q156.3 89.1 156.0 88.9Q155.7 88.8 155.2 88.7L155.2 88.7L154.3 88.5Q153.3 88.2 152.8 87.7Q152.2 87.2 152.2 86.3L152.2 86.3Q152.2 85.6 152.6 85.0Q153.0 84.5 153.6 84.2Q154.3 83.9 155.2 83.9L155.2 83.9Q156.1 83.9 156.7 84.2Q157.4 84.5 157.8 85.0Q158.1 85.6 158.1 86.3L158.1 86.3L156.6 86.3Q156.5 85.8 156.2 85.5Q155.8 85.3 155.2 85.3L155.2 85.3Q154.8 85.3 154.5 85.4Q154.2 85.5 154.0 85.7Q153.9 85.9 153.9 86.2L153.9 86.2Q153.9 86.5 154.0 86.7Q154.2 86.9 154.5 87.0Q154.8 87.1 155.1 87.2L155.1 87.2L155.9 87.4Q156.4 87.5 156.8 87.7Q157.2 87.9 157.6 88.2Q157.9 88.4 158.1 88.8Q158.3 89.2 158.3 89.7L158.3 89.7Q158.3 90.4 157.9 91.0Q157.5 91.5 156.8 91.8Q156.1 92.1 155.2 92.1Z "/></g><defs><clipPath id="satori_bc-id-2" clip-path="url(#satori_cp-id)"><rect x="276" y="30" width="281" height="80"/></clipPath></defs><mask id="satori_om-id-2"><rect x="276" y="30" width="280" height="80" fill="#fff" mask="url(#satori_om-id)"/><path width="281" height="80" fill="none" stroke="#000" stroke-width="2" d="M557,30 A0,0 0 0 1 557,30 v80 A0,0 0 0 1 557,110"/></mask><path width="281" height="80" clip-path="url(#satori_bc-id-2)" fill="none" stroke="rgba(255,255,255,0.06)" stroke-width="2" d="M557,30 A0,0 0 0 1 557,30 v80 A0,0 0 0 1 557,110"/><mask id="satori_om-id-2-0"><rect x="391" y="46" width="50" height="30" fill="#fff" mask="url(#satori_om-id)"/></mask><g mask="url(#satori_om-id)" clip-path="url(#satori_cp-id)"><path fill="#60a5fa" d="M397.2 50.2L402.0 50.2L402.0 72L397.5 72L397.5 54.1L397.4 54.1L392.4 57.7L392.4 53.6L397.2 50.2ZM421.2 72L405.8 72L405.8 68.8L413.5 61.5Q414.5 60.6 415.2 59.8Q415.8 59.0 416.2 58.2Q416.6 57.5 416.6 56.6L416.6 56.6Q416.6 55.6 416.1 54.9Q415.7 54.2 414.9 53.8Q414.2 53.5 413.2 53.5L413.2 53.5Q412.2 53.5 411.4 53.9Q410.6 54.3 410.2 55.0Q409.8 55.8 409.8 56.9L409.8 56.9L405.5 56.9Q405.5 54.7 406.5 53.2Q407.5 51.6 409.2 50.7Q411.0 49.9 413.2 49.9L413.2 49.9Q415.5 49.9 417.3 50.7Q419.0 51.5 419.9 53.0Q420.9 54.4 420.9 56.3L420.9 56.3Q420.9 57.5 420.4 58.7Q419.9 59.9 418.7 61.4Q417.5 62.9 415.3 64.9L415.3 64.9L412.0 68.2L412.0 68.3L421.2 68.3L421.2 72ZM430.1 72L425.4 72L434.5 54.0L434.5 53.9L423.9 53.9L423.9 50.2L439.2 50.2L439.2 53.9L430.1 72Z "/></g><mask id="satori_om-id-2-1"><rect x="393" y="81" width="45" height="13" fill="#fff" mask="url(#satori_om-id)"/></mask><g mask="url(#satori_om-id)" clip-path="url(#satori_cp-id)"><path fill="rgba(200,195,225,0.45)" d="M396.7 92.1L396.7 92.1Q395.7 92.1 395.0 91.8Q394.3 91.5 393.9 90.9Q393.5 90.4 393.5 89.5L393.5 89.5L395.1 89.5Q395.1 89.9 395.3 90.2Q395.5 90.5 395.9 90.6Q396.2 90.7 396.6 90.7L396.6 90.7Q397.1 90.7 397.4 90.6Q397.7 90.5 397.9 90.2Q398.1 90.0 398.1 89.7L398.1 89.7Q398.1 89.4 397.9 89.3Q397.8 89.1 397.5 88.9Q397.2 88.8 396.7 88.7L396.7 88.7L395.8 88.5Q394.8 88.2 394.2 87.7Q393.7 87.2 393.7 86.3L393.7 86.3Q393.7 85.6 394.1 85.0Q394.5 84.5 395.1 84.2Q395.8 83.9 396.7 83.9L396.7 83.9Q397.6 83.9 398.2 84.2Q398.9 84.5 399.3 85.0Q399.6 85.6 399.6 86.3L399.6 86.3L398.1 86.3Q398.0 85.8 397.6 85.5Q397.3 85.3 396.7 85.3L396.7 85.3Q396.2 85.3 396.0 85.4Q395.7 85.5 395.5 85.7Q395.4 85.9 395.4 86.2L395.4 86.2Q395.4 86.5 395.5 86.7Q395.7 86.9 396.0 87.0Q396.3 87.1 396.6 87.2L396.6 87.2L397.4 87.4Q397.9 87.5 398.3 87.7Q398.7 87.9 399.1 88.2Q399.4 88.4 399.6 88.8Q399.7 89.2 399.7 89.7L399.7 89.7Q399.7 90.4 399.4 91.0Q399.0 91.5 398.3 91.8Q397.6 92.1 396.7 92.1ZM404.6 85.4L402.1 85.4L402.1 84.0L408.6 84.0L408.6 85.4L406.2 85.4L406.2 92L404.6 92L404.6 85.4ZM412.6 92L410.8 92L413.5 84.0L415.7 84.0L418.5 92L416.7 92L416.1 90.1L413.2 90.1L412.6 92ZM413.6 88.9L415.6 88.9L415.4 88.1Q415.2 87.4 414.9 86.5L414.9 86.5Q414.8 85.9 414.6 85.3L414.6 85.3Q414.4 85.9 414.3 86.5L414.3 86.5Q414.1 87.4 413.9 88.1L413.9 88.1L413.6 88.9ZM422.6 92L421.0 92L421.0 84.0L424.1 84.0Q425.0 84.0 425.7 84.3Q426.3 84.6 426.6 85.2Q427.0 85.8 427.0 86.6Q427.0 87.4 426.6 88.0Q426.3 88.5 425.6 88.8L425.6 88.8Q425.6 88.9 425.5 88.9L425.5 88.9L427.3 92L425.4 92L423.9 89.1L422.6 89.1L422.6 92ZM422.6 85.4L422.6 87.8L423.8 87.8Q424.3 87.8 424.6 87.7Q425.0 87.5 425.1 87.3Q425.3 87.0 425.3 86.6L425.3 86.6Q425.3 86.2 425.1 85.9Q425.0 85.6 424.6 85.5Q424.3 85.4 423.8 85.4L423.8 85.4L422.6 85.4ZM432.6 92.1L432.6 92.1Q431.7 92.1 431.0 91.8Q430.3 91.5 429.9 90.9Q429.5 90.4 429.4 89.5L429.4 89.5L431.0 89.5Q431.1 89.9 431.3 90.2Q431.5 90.5 431.8 90.6Q432.2 90.7 432.6 90.7L432.6 90.7Q433.1 90.7 433.4 90.6Q433.7 90.5 433.9 90.2Q434.1 90.0 434.1 89.7L434.1 89.7Q434.1 89.4 433.9 89.3Q433.8 89.1 433.4 88.9Q433.1 88.8 432.7 88.7L432.7 88.7L431.8 88.5Q430.8 88.2 430.2 87.7Q429.7 87.2 429.7 86.3L429.7 86.3Q429.7 85.6 430.0 85.0Q430.4 84.5 431.1 84.2Q431.8 83.9 432.7 83.9L432.7 83.9Q433.5 83.9 434.2 84.2Q434.9 84.5 435.2 85.0Q435.6 85.6 435.6 86.3L435.6 86.3L434.0 86.3Q434.0 85.8 433.6 85.5Q433.3 85.3 432.6 85.3L432.6 85.3Q432.2 85.3 431.9 85.4Q431.6 85.5 431.5 85.7Q431.3 85.9 431.3 86.2L431.3 86.2Q431.3 86.5 431.5 86.7Q431.7 86.9 432.0 87.0Q432.3 87.1 432.6 87.2L432.6 87.2L433.3 87.4Q433.8 87.5 434.3 87.7Q434.7 87.9 435.0 88.2Q435.4 88.4 435.5 88.8Q435.7 89.2 435.7 89.7L435.7 89.7Q435.7 90.4 435.4 91.0Q435.0 91.5 434.3 91.8Q433.6 92.1 432.6 92.1Z "/></g><mask id="satori_om-id-3"><rect x="557" y="30" width="302" height="80" fill="#fff" mask="url(#satori_om-id)"/></mask><mask id="satori_om-id-3-0"><rect x="672" y="46" width="73" height="30" fill="#fff" mask="url(#satori_om-id)"/></mask><g mask="url(#satori_om-id)" clip-path="url(#satori_cp-id)"><path fill="#f59e0b" d="M689.3 72L673.8 72L673.8 68.8L681.6 61.5Q682.5 60.6 683.2 59.8Q683.9 59.0 684.3 58.2Q684.6 57.5 684.6 56.6L684.6 56.6Q684.6 55.6 684.2 54.9Q683.7 54.2 683.0 53.8Q682.2 53.5 681.2 53.5L681.2 53.5Q680.2 53.5 679.5 53.9Q678.7 54.3 678.3 55.0Q677.9 55.8 677.9 56.9L677.9 56.9L673.6 56.9Q673.6 54.7 674.6 53.2Q675.6 51.6 677.3 50.7Q679.0 49.9 681.3 49.9L681.3 49.9Q683.6 49.9 685.3 50.7Q687.0 51.5 688.0 53.0Q689.0 54.4 689.0 56.3L689.0 56.3Q689.0 57.5 688.5 58.7Q688.0 59.9 686.8 61.4Q685.6 62.9 683.3 64.9L683.3 64.9L680.0 68.2L680.0 68.3L689.3 68.3L689.3 72ZM702.4 68.1L691.9 68.1L691.9 64.6L701.0 50.2L706.6 50.2L706.6 64.5L709.4 64.5L709.4 68.1L706.6 68.1L706.6 72L702.4 72L702.4 68.1ZM696.4 64.5L702.4 64.5L702.4 55.1L702.3 55.1L696.4 64.3L696.4 64.5ZM715.8 50.2L720.5 50.2L720.5 72L716.1 72L716.1 54.1L715.9 54.1L710.9 57.7L710.9 53.6L715.8 50.2ZM734.4 68.1L724.0 68.1L724.0 64.6L733.1 50.2L738.7 50.2L738.7 64.5L741.4 64.5L741.4 68.1L738.7 68.1L738.7 72L734.4 72L734.4 68.1ZM728.5 64.5L734.5 64.5L734.5 55.1L734.3 55.1L728.5 64.3L728.5 64.5Z "/></g><mask id="satori_om-id-3-1"><rect x="675" y="81" width="66" height="13" fill="#fff" mask="url(#satori_om-id)"/></mask><g mask="url(#satori_om-id)" clip-path="url(#satori_cp-id)"><path fill="rgba(200,195,225,0.45)" d="M679.2 92.1L679.2 92.1Q678.2 92.1 677.3 91.6Q676.5 91.1 676.0 90.2Q675.5 89.3 675.5 88.0L675.5 88.0Q675.5 86.7 676.0 85.8Q676.5 84.9 677.3 84.4Q678.2 83.9 679.2 83.9L679.2 83.9Q679.9 83.9 680.5 84.1Q681.1 84.3 681.5 84.6Q682.0 85.0 682.3 85.5Q682.6 86.1 682.7 86.7L682.7 86.7L681.0 86.7Q681.0 86.4 680.8 86.1Q680.6 85.9 680.4 85.7Q680.2 85.5 679.9 85.4Q679.6 85.3 679.3 85.3L679.3 85.3Q678.6 85.3 678.2 85.7Q677.7 86.0 677.4 86.6Q677.2 87.2 677.2 88.0L677.2 88.0Q677.2 88.9 677.4 89.5Q677.7 90.1 678.2 90.4Q678.6 90.7 679.2 90.7L679.2 90.7Q679.6 90.7 679.9 90.6Q680.2 90.5 680.4 90.3Q680.6 90.1 680.8 89.8Q681.0 89.6 681.0 89.3L681.0 89.3L682.7 89.3Q682.6 89.8 682.3 90.3Q682.1 90.8 681.6 91.2Q681.2 91.6 680.6 91.9Q680.0 92.1 679.2 92.1ZM688.9 92.1L688.9 92.1Q687.8 92.1 687.0 91.6Q686.1 91.1 685.6 90.2Q685.1 89.3 685.1 88.0L685.1 88.0Q685.1 86.7 685.6 85.8Q686.1 84.9 687.0 84.4Q687.8 83.9 688.9 83.9L688.9 83.9Q689.9 83.9 690.8 84.4Q691.6 84.9 692.1 85.8Q692.6 86.7 692.6 88.0L692.6 88.0Q692.6 89.3 692.1 90.2Q691.6 91.1 690.8 91.6Q689.9 92.1 688.9 92.1ZM688.9 90.7L688.9 90.7Q689.5 90.7 690.0 90.3Q690.4 90.0 690.7 89.5Q690.9 88.9 690.9 88.0L690.9 88.0Q690.9 87.1 690.7 86.5Q690.4 86.0 690.0 85.6Q689.5 85.3 688.9 85.3L688.9 85.3Q688.3 85.3 687.8 85.7Q687.3 86.0 687.1 86.6Q686.8 87.1 686.8 88.0L686.8 88.0Q686.8 88.9 687.1 89.4Q687.3 90.0 687.8 90.3Q688.3 90.7 688.9 90.7ZM697.0 92L695.3 92L695.3 84.0L697.9 84.0L699.2 87.7Q699.2 87.9 699.3 88.3Q699.4 88.7 699.5 89.2L699.5 89.2Q699.7 89.7 699.7 90.1L699.7 90.1Q699.8 89.7 699.9 89.2L699.9 89.2Q700.0 88.8 700.2 88.3Q700.3 87.9 700.3 87.7L700.3 87.7L701.6 84.0L704.1 84.0L704.1 92L702.5 92L702.5 88.2Q702.5 88.0 702.5 87.6Q702.5 87.2 702.5 86.7Q702.5 86.3 702.5 85.8L702.5 85.8Q702.6 85.6 702.6 85.4L702.6 85.4Q702.5 85.6 702.4 85.9L702.4 85.9Q702.3 86.3 702.2 86.8Q702.1 87.2 701.9 87.6Q701.8 88.0 701.8 88.2L701.8 88.2L700.4 92L699.0 92L697.7 88.2Q697.6 88.0 697.5 87.6Q697.4 87.2 697.3 86.8Q697.1 86.4 697.0 85.9L697.0 85.9Q697.0 85.7 696.9 85.5L696.9 85.5Q696.9 85.6 696.9 85.8L696.9 85.8Q696.9 86.2 696.9 86.7Q696.9 87.2 697.0 87.6Q697.0 88.0 697.0 88.2L697.0 88.2L697.0 92ZM708.7 92L707.1 92L707.1 84.0L709.6 84.0L710.9 87.7Q711.0 87.9 711.1 88.3Q711.2 88.7 711.3 89.2L711.3 89.2Q711.4 89.7 711.5 90.1L711.5 90.1Q711.6 89.7 711.7 89.2L711.7 89.2Q711.8 88.8 711.9 88.3Q712.0 87.9 712.1 87.7L712.1 87.7L713.4 84.0L715.9 84.0L715.9 92L714.2 92L714.2 88.2Q714.2 88.0 714.2 87.6Q714.3 87.2 714.3 86.7Q714.3 86.3 714.3 85.8L714.3 85.8Q714.3 85.6 714.3 85.4L714.3 85.4Q714.2 85.6 714.2 85.9L714.2 85.9Q714.1 86.3 713.9 86.8Q713.8 87.2 713.7 87.6Q713.6 88.0 713.5 88.2L713.5 88.2L712.2 92L710.8 92L709.4 88.2Q709.4 88.0 709.3 87.6Q709.1 87.2 709.0 86.8Q708.9 86.4 708.8 85.9L708.8 85.9Q708.7 85.7 708.7 85.5L708.7 85.5Q708.7 85.6 708.7 85.8L708.7 85.8Q708.7 86.2 708.7 86.7Q708.7 87.2 708.7 87.6Q708.7 88.0 708.7 88.2L708.7 88.2L708.7 92ZM718.8 84.0L720.5 84.0L720.5 92L718.8 92L718.8 84.0ZM725.5 85.4L723.1 85.4L723.1 84.0L729.6 84.0L729.6 85.4L727.2 85.4L727.2 92L725.5 92L725.5 85.4ZM735.2 92.1L735.2 92.1Q734.2 92.1 733.5 91.8Q732.8 91.5 732.4 90.9Q732.0 90.4 732.0 89.5L732.0 89.5L733.6 89.5Q733.6 89.9 733.8 90.2Q734.0 90.5 734.4 90.6Q734.7 90.7 735.2 90.7L735.2 90.7Q735.6 90.7 735.9 90.6Q736.3 90.5 736.5 90.2Q736.6 90.0 736.6 89.7L736.6 89.7Q736.6 89.4 736.5 89.3Q736.3 89.1 736.0 88.9Q735.7 88.8 735.3 88.7L735.3 88.7L734.4 88.5Q733.4 88.2 732.8 87.7Q732.2 87.2 732.2 86.3L732.2 86.3Q732.2 85.6 732.6 85.0Q733.0 84.5 733.7 84.2Q734.3 83.9 735.2 83.9L735.2 83.9Q736.1 83.9 736.8 84.2Q737.4 84.5 737.8 85.0Q738.2 85.6 738.2 86.3L738.2 86.3L736.6 86.3Q736.6 85.8 736.2 85.5Q735.8 85.3 735.2 85.3L735.2 85.3Q734.8 85.3 734.5 85.4Q734.2 85.5 734.0 85.7Q733.9 85.9 733.9 86.2L733.9 86.2Q733.9 86.5 734.1 86.7Q734.2 86.9 734.5 87.0Q734.8 87.1 735.2 87.2L735.2 87.2L735.9 87.4Q736.4 87.5 736.8 87.7Q737.3 87.9 737.6 88.2Q737.9 88.4 738.1 88.8Q738.3 89.2 738.3 89.7L738.3 89.7Q738.3 90.4 737.9 91.0Q737.6 91.5 736.9 91.8Q736.2 92.1 735.2 92.1Z "/></g></svg>