<!-- Generated by readme-aura https://github.com/collectioneur/readme-aura -->
<svg width="860" height="140" viewBox="0 0 860 140" xmlns="http://www.w3.org/2000/svg"><defs><clipPath id="satori_bc-id"><path x="0" y="0" width="860" height="140" d="M16,0 h828 a16,16 0 0 1 16,16 v108 a16,16 0 0 1 -16,16 h-828 a16,16 0 0 1 -16,-16 v-108 a16,16 0 0 1 16,-16"/></clipPath></defs><clipPath id="satori_cp-id"><path x="0" y="0" width="860" height="140" d="M16,0 h828 a16,16 0 0 1 16,16 v108 a16,16 0 0 1 -16,16 h-828 a16,16 0 0 1 -16,-16 v-108 a16,16 0 0 1 16,-16"/></clipPath><mask id="satori_om-id"><rect x="1" y="1" width="858" height="138" fill="#fff"/><path width="860" height="140" fill="none" stroke="#000" stroke-width="2" d="M4.686,4.686 A16,16 0 0 1 16,0 h828 a16,16 0 0 1 16,16 v108 a16,16 0 0 1 -16,16 h-828 a16,16 0 0 1 -16,-16 v-108 A16,16 0 0 1 4.686,4.686"/></mask><path x="0" y="0" width="860" height="140" fill="#08080c" d="M16,0 h828 a16,16 0 0 1 16,16 v108 a16,16 0 0 1 -16,16 h-828 a16,16 0 0 1 -16,-16 v-108 a16,16 0 0 1 16,-16"/><path width="860" height="140" clip-path="url(#satori_bc-id)" fill="none" stroke="rgba(110,80,220,0.18)" stroke-width="2" d="M4.686,4.686 A16,16 0 0 1 16,0 h828 a16,16 0 0 1 16,16 v108 a16,16 0 0 1 -16,16 h-828 a16,16 0 0 1 -16,-16 v-108 A16,16 0 0 1 4.686,4.686"/><clipPath id="satori_cp-id-0" clip-path="url(#satori_cp-id)"><rect x="1" y="1" width="860" height="140"/></clipPath><mask id="satori_om-id-0"><rect x="1" y="1" width="860" height="140" fill="#fff" mask="url(#satori_om-id)"/></mask><svg x="1" y="1" width="860" height="140" preserveAspectRatio="none" clip-path="url(#satori_cp-id-0)" mask="url(#satori_om-id-0)"><defs><radialGradient id="g1" cx="50%" cy="50%" r="50%"><stop offset="0%" stop-color="rgba(110,20,210,0.65)"></stop><stop offset="45%" stop-color="rgba(80,15,170,0.28)"></stop><stop offset="70%" stop-color="rgba(80,15,170,0)"></stop></radialGradient><radialGradient id="g2" cx="50%" cy="50%" r="50%"><stop offset="0%" stop-color="rgba(40,70,255,0.55)"></stop><stop offset="45%" stop-color="rgba(20,50,200,0.22)"></stop><stop offset="70%" stop-color="rgba(20,50,200,0)"></stop></radialGradient><radialGradient id="g3" cx="50%" cy="50%" r="50%"><stop offset="0%" stop-color="rgba(0,140,255,0.42)"></stop><stop offset="70%" stop-color="rgba(0,140,255,0)"></stop></radialGradient><radialGradient id="g4" cx="50%" cy="50%" r="50%"><stop offset="0%" stop-color="rgba(0,195,235,0.30)"></stop><stop offset="70%" stop-color="rgba(0,195,235,0)"></stop></radialGradient><radialGradient id="g5" cx="50%" cy="50%" r="50%"><stop offset="0%" stop-color="rgba(100,30,210,0.40)"></stop><stop offset="70%" stop-color="rgba(100,30,210,0)"></stop></radialGradient></defs><ellipse id="glow-1" cx="710" cy="150" rx="210" ry="150" fill="url(#g1)"></ellipse><ellipse id="glow-2" cx="550" cy="140" rx="190" ry="140" fill="url(#g2)"></ellipse><ellipse id="glow-3" cx="400" cy="130" rx="170" ry="130" fill="url(#g3)"></ellipse><ellipse id="glow-4" cx="250" cy="140" rx="150" ry="120" fill="url(#g4)"></ellipse><ellipse id="glow-5" cx="100" cy="150" rx="130" ry="110" fill="url(#g5)"></ellipse><style>

         @keyframes float-slow {
           0%, 100% { transform: translateX(0px); opacity: 0.8; }
           50% { transform: translateX(350px); opacity: 1.2; }
         }
         @keyframes float-medium {
           0%, 100% { transform: translateX(0px); opacity: 0.7; }
           50% { transform: translateX(-250px); opacity: 1.1; }
         }
         @keyframes float-fast {
           0%, 100% { transform: translateX(0px); opacity: 0.9; }
           50% { transform: translateX(200px); opacity: 0.6; }
         }
         @keyframes float-diagonal {
           0%, 100% { transform: translate(0px, 0px); opacity: 0.75; }
           50% { transform: translate(120px, 30px); opacity: 1.0; }
         }
         @keyframes float-wave {
           0%, 100% { transform: translateX(0px); opacity: 0.65; }
           33% { transform: translateX(-160px); opacity: 0.9; }
           66% { transform: translateX(80px); opacity: 1.0; }
         }
         @keyframes float-pulse {
           0%, 100% { transform: scale(1); opacity: 0.8; }
           50% { transform: scale(1.3); opacity: 0.4; }
         }
         #glow-1 { animation: float-slow 8s ease-in-out infinite; }
         #glow-2 { animation: float-medium 12s ease-in-out infinite; }
         #glow-3 { animation: float-fast 9s ease-in-out infinite; }
         #glow-4 { animation: float-diagonal 10s ease-in-out infinite; }
         #glow-5 { animation: float-wave 14s ease-in-out infinite; }
       
</style>
</svg><mask id="satori_om-id-0-0"><rect x="1" y="1" width="0" height="140" fill="#fff" mask="url(#satori_om-id)"/></mask><mask id="satori_om-id-0-0-0"><rect x="1" y="1" width="0" height="140" fill="#fff" mask="url(#satori_om-id)"/></mask><mask id="satori_om-id-0-0-0-0"><rect x="1" y="1" width="0" height="140" fill="#fff" mask="url(#satori_om-id)"/></mask><mask id="satori_om-id-0-0-0-1"><rect x="1" y="1" width="0" height="140" fill="#fff" mask="url(#satori_om-id)"/></mask><mask id="satori_om-id-0-0-0-2"><rect x="1" y="1" width="0" height="140" fill="#fff" mask="url(#satori_om-id)"/></mask><mask id="satori_om-id-0-0-1"><rect x="1" y="1" width="0" height="140" fill="#fff" mask="url(#satori_om-id)"/></mask><mask id="satori_om-id-0-0-1-0"><rect x="1" y="1" width="0" height="140" fill="#fff" mask="url(#satori_om-id)"/></mask><mask id="satori_om-id-0-0-1-1"><rect x="1" y="1" width="0" height="140" fill="#fff" mask="url(#satori_om-id)"/></mask><mask id="satori_om-id-0-0-1-2"><rect x="1" y="1" width="0" height="140" fill="#fff" mask="url(#satori_om-id)"/></mask><mask id="satori_om-id-0-0-2"><rect x="1" y="1" width="0" height="140" fill="#fff" mask="url(#satori_om-id)"/></mask><mask id="satori_om-id-0-0-2-0"><rect x="1" y="1" width="0" height="140" fill="#fff" mask="url(#satori_om-id)"/></mask><mask id="satori_om-id-0-0-2-1"><rect x="1" y="1" width="0" height="140" fill="#fff" mask="url(#satori_om-id)"/></mask><mask id="satori_om-id-0-0-3"><rect x="1" y="1" width="0" height="140" fill="#fff" mask="url(#satori_om-id)"/></mask><mask id="satori_om-id-0-0-3-0"><rect x="1" y="1" width="0" height="140" fill="#fff" mask="url(#satori_om-id)"/></mask><mask id="satori_om-id-0-0-3-1"><rect x="1" y="1" width="0" height="140" fill="#fff" mask="url(#satori_om-id)"/></mask><mask id="satori_om-id-0-0-4"><rect x="1" y="1" width="0" height="140" fill="#fff" mask="url(#satori_om-id)"/></mask><mask id="satori_om-id-0-0-4-0"><rect x="1" y="1" width="0" height="140" fill="#fff" mask="url(#satori_om-id)"/></mask><mask id="satori_om-id-0-0-4-1"><rect x="1" y="1" width="0" height="140" fill="#fff" mask="url(#satori_om-id)"/></mask><mask id="satori_om-id-0-1"><rect x="1" y="1" width="0" height="140" fill="#fff" mask="url(#satori_om-id)"/></mask><mask id="satori_om-id-0-2"><rect x="1" y="1" width="0" height="140" fill="#fff" mask="url(#satori_om-id)"/></mask><mask id="satori_om-id-0-3"><rect x="1" y="1" width="0" height="140" fill="#fff" mask="url(#satori_om-id)"/></mask><mask id="satori_om-id-0-4"><rect x="1" y="1" width="0" height="140" fill="#fff" mask="url(#satori_om-id)"/></mask><mask id="satori_om-id-0-5"><rect x="1" y="1" width="0" height="140" fill="#fff" mask="url(#satori_om-id)"/></mask><defs><clipPath id="satori_bc-id-1" clip-path="url(#satori_cp-id)"><rect x="1" y="30" width="277" height="80"/></clipPath></defs><mask id="satori_om-id-1"><rect x="1" y="30" width="276" height="80" fill="#fff" mask="url(#satori_om-id)"/><path width="277" height="80" fill="none" stroke="#000" stroke-width="2" d="M278,30 A0,0 0 0 1 278,30 v80 A0,0 0 0 1 278,110"/></mask><path width="277" height="80" clip-path="url(#satori_bc-id-1)" fill="none" stroke="rgba(255,255,255,0.06)" stroke-width="2" d="M278,30 A0,0 0 0 1 278,30 v80 A0,0 0 0 1 278,110"/><mask id="satori_om-id-1-0"><rect x="123" y="46" width="32" height="30" fill="#fff" mask="url(#satori_om-id)"/></mask><g mask="url(#satori_om-id)" clip-path="url(#satori_cp-id)"><path fill="#a78bfa" d="M129.2 50.2L134.0 50.2L134.0 72L129.5 72L129.5 54.1L129.4 54.1L124.4 57.7L124.4 53.6L129.2 50.2ZM145.1 72.3L145.1 72.3Q142.9 72.3 141.1 71.5Q139.4 70.6 138.4 69.2Q137.4 67.7 137.3 65.9L137.3 65.9L141.7 65.9Q141.7 66.7 142.2 67.4Q142.7 68.0 143.4 68.4Q144.2 68.7 145.1 68.7L145.1 68.7Q146.2 68.7 147.1 68.3Q147.9 67.8 148.4 66.9Q148.9 66.0 148.9 64.9L148.9 64.9Q148.9 63.7 148.4 62.8Q147.9 61.9 147.0 61.4Q146.2 60.9 145.1 60.9L145.1 60.9Q144.1 60.9 143.2 61.3Q142.3 61.7 141.8 62.3L141.8 62.3L137.8 61.6L138.8 50.2L152.0 50.2L152.0 53.9L142.5 53.9L142.0 59.4L142.1 59.4Q142.7 58.6 143.8 58.1Q145.0 57.6 146.4 57.6L146.4 57.6Q147.8 57.6 149.1 58.1Q150.3 58.6 151.3 59.6Q152.2 60.5 152.7 61.9Q153.2 63.2 153.2 64.7L153.2 64.7Q153.2 66.9 152.2 68.6Q151.2 70.3 149.4 71.3Q147.5 72.3 145.1 72.3Z "/></g><mask id="satori_om-id-1-1"><rect x="116" y="81" width="45" height="13" fill="#fff" mask="url(#satori_om-id)"/></mask><g mask="url(#satori_om-id)" clip-path="url(#satori_cp-id)"><path fill="rgba(200,195,225,0.45)" d="M118.4 92L116.7 92L116.7 84.0L119.8 84.0Q120.8 84.0 121.4 84.3Q122.0 84.6 122.4 85.2Q122.7 85.8 122.7 86.6Q122.7 87.4 122.4 88.0Q122.0 88.5 121.4 88.8L121.4 88.8Q121.3 88.9 121.3 88.9L121.3 88.9L123.0 92L121.2 92L119.6 89.1L118.4 89.1L118.4 92ZM118.4 85.4L118.4 87.8L119.5 87.8Q120.0 87.8 120.4 87.7Q120.7 87.5 120.9 87.3Q121.0 87.0 121.0 86.6L121.0 86.6Q121.0 86.2 120.9 85.9Q120.7 85.6 120.4 85.5Q120.0 85.4 119.5 85.4L119.5 85.4L118.4 85.4ZM130.8 92L125.4 92L125.4 84.0L130.8 84.0L130.8 85.4L127.1 85.4L127.1 87.3L130.5 87.3L130.5 88.6L127.1 88.6L127.1 90.6L130.8 90.6L130.8 92ZM135.3 92L133.6 92L133.6 84.0L136.8 84.0Q137.7 84.0 138.3 84.3Q138.9 84.7 139.3 85.3Q139.6 85.9 139.6 86.7L139.6 86.7Q139.6 87.5 139.3 88.1Q138.9 88.7 138.3 89.0Q137.6 89.4 136.7 89.4L136.7 89.4L135.3 89.4L135.3 92ZM135.3 85.4L135.3 88.1L136.5 88.1Q137.0 88.1 137.3 87.9Q137.6 87.7 137.8 87.4Q137.9 87.1 137.9 86.7Q137.9 86.3 137.8 86.0Q137.6 85.7 137.3 85.5Q137.0 85.4 136.4 85.4L136.4 85.4L135.3 85.4ZM145.8 92.1L145.8 92.1Q144.7 92.1 143.9 91.6Q143.0 91.1 142.5 90.2Q142.0 89.3 142.0 88.0L142.0 88.0Q142.0 86.7 142.5 85.8Q143.0 84.9 143.9 84.4Q144.7 83.9 145.8 83.9L145.8 83.9Q146.8 83.9 147.7 84.4Q148.5 84.9 149.0 85.8Q149.5 86.7 149.5 88.0L149.5 88.0Q149.5 89.3 149.0 90.2Q148.5 91.1 147.7 91.6Q146.8 92.1 145.8 92.1ZM145.8 90.7L145.8 90.7Q146.4 90.7 146.9 90.3Q147.3 90.0 147.6 89.5Q147.8 88.9 147.8 88.0L147.8 88.0Q147.8 87.1 147.6 86.5Q147.3 86.0 146.9 85.6Q146.4 85.3 145.8 85.3L145.8 85.3Q145.2 85.3 144.7 85.7Q144.2 86.0 144.0 86.6Q143.7 87.1 143.7 88.0L143.7 88.0Q143.7 88.9 144.0 89.4Q144.2 90.0 144.7 90.3Q145.2 90.7 145.8 90.7ZM155.2 92.1L155.2 92.1Q154.2 92.1 153.5 91.8Q152.8 91.5 152.4 90.9Q152.0 90.4 152.0 89.5L152.0 89.5L153.6 89.5Q153.6 89.9 153.8 90.2Q154.0 90.5 154.4 90.6Q154.7 90.7 155.2 90.7L155.2 90.7Q155.6 90.7 155.9 90.6Q156.2 90.5 156.4 90.2Q156.6 90.0 156.6 89.7L156.6 89.7Q156.6 89.4 156.4 89.3Q156.3 89.1 156.0 88.9Q155.7 88.8 155.2 88.7L155.2 88.7L154.3 88.5Q153.3 88.2 152.8 87.7Q152.2 87.2 152.2 86.3L152.2 86.3Q152.2 85.6 152.6 85.0Q153.0 84.5 153.6 84.2Q154.3 83.9 155.2 83.9L155.2 83.9Q156.1 83.9 156.7 84.2Q157.4 84.5 157.8 85.0Q158.1 85.6 158.1 86.3L158.1 86.3L156.6 86.3Q156.5 85.8 156.2 85.5Q155.8 85.3 155.2 85.3L155.2 85.3Q154.8 85.3 154.5 85.4Q154.2 85.5 154.0 85.7Q153.9 85.9 153.9 86.2L153.9 86.2Q153.9 86.5 154.0 86.7Q154.2 86.9 154.5 87.0Q154.8 87.1 155.1 87.2L155.1 87.2L155.9 87.4Q156.4 87.5 156.8 87.7Q157.2 87.9 157.6 88.2Q157.9 88.4 158.1 88.8Q158.3 89.2 158.3 89.7L158.3 89.7Q158.3 90.4 157.9 91.0Q157.5 91.5 156.8 91.8Q156.1 92.1 155.2 92.1Z "/></g><defs><clipPath id="satori_bc-id-2" clip-path="url(#satori_cp-id)"><rect x="278" y="30" width="277" height="80"/></clipPath></defs><mask id="satori_om-id-2"><rect x="278" y="30" width="276" height="80" fill="#fff" mask="url(#satori_om-id)"/><path width="277" height="80" fill="none" stroke="#000" stroke-width="2" d="M555,30 A0,0 0 0 1 555,30 v80 A0,0 0 0 1 555,110"/></mask><path width="277" height="80" clip-path="url(#satori_bc-id-2)" fill="none" stroke="rgba(255,255,255,0.06)" stroke-width="2" d="M555,30 A0,0 0 0 1 555,30 v80 A0,0 0 0 1 555,110"/><mask id="satori_om-id-2-0"><rect x="393" y="46" width="46" height="30" fill="#fff" mask="url(#satori_om-id)"/></mask><g mask="url(#satori_om-id)" clip-path="url(#satori_cp-id)"><path fill="#60a5fa" d="M399.2 50.2L404.0 50.2L404.0 72L399.5 72L399.5 54.1L399.4 54.1L394.4 57.7L394.4 53.6L399.2 50.2ZM412.1 50.2L416.9 50.2L416.9 72L412.4 72L412.4 54.1L412.3 54.1L407.3 57.7L407.3 53.6L412.1 50.2ZM428.2 72.3L428.2 72.3Q426.0 72.3 424.4 71.5Q422.7 70.6 421.7 69.2Q420.7 67.7 420.5 65.9L420.5 65.9L424.9 65.9Q425.2 67.1 426.0 67.8Q426.9 68.5 428.2 68.5L428.2 68.5Q429.6 68.5 430.6 67.6Q431.6 66.8 432.1 65.2Q432.6 63.6 432.6 61.5L432.6 61.5L432.5 61.5Q432.0 62.4 431.1 63.1Q430.3 63.8 429.2 64.1Q428.2 64.5 427.0 64.5L427.0 64.5Q425.1 64.5 423.5 63.6Q422.0 62.7 421.1 61.1Q420.2 59.5 420.2 57.5L420.2 57.5Q420.2 55.2 421.3 53.5Q422.3 51.8 424.1 50.8Q426.0 49.8 428.4 49.9L428.4 49.9Q430.0 49.9 431.6 50.4Q433.1 51.0 434.3 52.2Q435.6 53.5 436.3 55.5Q437.0 57.6 437.0 60.6L437.0 60.6Q437.0 63.3 436.4 65.5Q435.7 67.7 434.6 69.2Q433.4 70.7 431.8 71.5Q430.2 72.3 428.2 72.3ZM428.3 61.2L428.3 61.2Q429.2 61.2 429.8 60.9Q430.5 60.6 431.1 60.1Q431.6 59.5 431.9 58.8Q432.2 58.1 432.2 57.3L432.2 57.3Q432.2 56.3 431.7 55.4Q431.2 54.5 430.3 54.0Q429.5 53.4 428.4 53.4L428.4 53.4Q427.3 53.4 426.4 53.9Q425.6 54.5 425.1 55.4Q424.6 56.2 424.6 57.3L424.6 57.3Q424.6 58.4 425.1 59.3Q425.6 60.2 426.4 60.7Q427.3 61.2 428.3 61.2Z "/></g><mask id="satori_om-id-2-1"><rect x="394" y="81" width="45" height="13" fill="#fff" mask="url(#satori_om-id)"/></mask><g mask="url(#satori_om-id)" clip-path="url(#satori_cp-id)"><path fill="rgba(200,195,225,0.45)" d="M397.7 92.1L397.7 92.1Q396.7 92.1 396.0 91.8Q395.3 91.5 394.9 90.9Q394.5 90.4 394.5 89.5L394.5 89.5L396.1 89.5Q396.1 89.9 396.3 90.2Q396.5 90.5 396.9 90.6Q397.2 90.7 397.6 90.7L397.6 90.7Q398.1 90.7 398.4 90.6Q398.7 90.5 398.9 90.2Q399.1 90.0 399.1 89.7L399.1 89.7Q399.1 89.4 398.9 89.3Q398.8 89.1 398.5 88.9Q398.2 88.8 397.7 88.7L397.7 88.7L396.8 88.5Q395.8 88.2 395.2 87.7Q394.7 87.2 394.7 86.3L394.7 86.3Q394.7 85.6 395.1 85.0Q395.5 84.5 396.1 84.2Q396.8 83.9 397.7 83.9L397.7 83.9Q398.6 83.9 399.2 84.2Q399.9 84.5 400.3 85.0Q400.6 85.6 400.6 86.3L400.6 86.3L399.1 86.3Q399.0 85.8 398.6 85.5Q398.3 85.3 397.7 85.3L397.7 85.3Q397.2 85.3 397.0 85.4Q396.7 85.5 396.5 85.7Q396.4 85.9 396.4 86.2L396.4 86.2Q396.4 86.5 396.5 86.7Q396.7 86.9 397.0 87.0Q397.3 87.1 397.6 87.2L397.6 87.2L398.4 87.4Q398.9 87.5 399.3 87.7Q399.7 87.9 400.1 88.2Q400.4 88.4 400.6 88.8Q400.7 89.2 400.7 89.7L400.7 89.7Q400.7 90.4 400.4 91.0Q400.0 91.5 399.3 91.8Q398.6 92.1 397.7 92.1ZM405.6 85.4L403.1 85.4L403.1 84.0L409.6 84.0L409.6 85.4L407.2 85.4L407.2 92L405.6 92L405.6 85.4ZM413.6 92L411.8 92L414.5 84.0L416.7 84.0L419.5 92L417.7 92L417.1 90.1L414.2 90.1L413.6 92ZM414.6 88.9L416.6 88.9L416.4 88.1Q416.2 87.4 415.9 86.5L415.9 86.5Q415.8 85.9 415.6 85.3L415.6 85.3Q415.4 85.9 415.3 86.5L415.3 86.5Q415.1 87.4 414.9 88.1L414.9 88.1L414.6 88.9ZM423.6 92L422.0 92L422.0 84.0L425.1 84.0Q426.0 84.0 426.7 84.3Q427.3 84.6 427.6 85.2Q428.0 85.8 428.0 86.6Q428.0 87.4 427.6 88.0Q427.3 88.5 426.6 88.8L426.6 88.8Q426.6 88.9 426.5 88.9L426.5 88.9L428.3 92L426.4 92L424.9 89.1L423.6 89.1L423.6 92ZM423.6 85.4L423.6 87.8L424.8 87.8Q425.3 87.8 425.6 87.7Q426.0 87.5 426.1 87.3Q426.3 87.0 426.3 86.6L426.3 86.6Q426.3 86.2 426.1 85.9Q426.0 85.6 425.6 85.5Q425.3 85.4 424.8 85.4L424.8 85.4L423.6 85.4ZM433.6 92.1L433.6 92.1Q432.7 92.1 432.0 91.8Q431.3 91.5 430.9 90.9Q430.5 90.4 430.4 89.5L430.4 89.5L432.0 89.5Q432.1 89.9 432.3 90.2Q432.5 90.5 432.8 90.6Q433.2 90.7 433.6 90.7L433.6 90.7Q434.1 90.7 434.4 90.6Q434.7 90.5 434.9 90.2Q435.1 90.0 435.1 89.7L435.1 89.7Q435.1 89.4 434.9 89.3Q434.8 89.1 434.4 88.9Q434.1 88.8 433.7 88.7L433.7 88.7L432.8 88.5Q431.8 88.2 431.2 87.7Q430.7 87.2 430.7 86.3L430.7 86.3Q430.7 85.6 431.0 85.0Q431.4 84.5 432.1 84.2Q432.8 83.9 433.7 83.9L433.7 83.9Q434.5 83.9 435.2 84.2Q435.9 84.5 436.2 85.0Q436.6 85.6 436.6 86.3L436.6 86.3L435.0 86.3Q435.0 85.8 434.6 85.5Q434.3 85.3 433.6 85.3L433.6 85.3Q433.2 85.3 432.9 85.4Q432.6 85.5 432.5 85.7Q432.3 85.9 432.3 86.2L432.3 86.2Q432.3 86.5 432.5 86.7Q432.7 86.9 433.0 87.0Q433.3 87.1 433.6 87.2L433.6 87.2L434.3 87.4Q434.8 87.5 435.3 87.7Q435.7 87.9 436.0 88.2Q436.4 88.4 436.5 88.8Q436.7 89.2 436.7 89.7L436.7 89.7Q436.7 90.4 436.4 91.0Q436.0 91.5 435.3 91.8Q434.6 92.1 433.6 92.1Z "/></g><mask id="satori_om-id-3"><rect x="555" y="30" width="304" height="80" fill="#fff" mask="url(#satori_om-id)"/></mask><mask id="satori_om-id-3-0"><rect x="670" y="46" width="73" height="30" fill="#fff" mask="url(#satori_om-id)"/></mask><g mask="url(#satori_om-id)" clip-path="url(#satori_cp-id)"><path fill="#f59e0b" d="M687.3 72L671.8 72L671.8 68.8L679.6 61.5Q680.5 60.6 681.2 59.8Q681.9 59.0 682.3 58.2Q682.6 57.5 682.6 56.6L682.6 56.6Q682.6 55.6 682.2 54.9Q681.7 54.2 681.0 53.8Q680.2 53.5 679.2 53.5L679.2 53.5Q678.2 53.5 677.5 53.9Q676.7 54.3 676.3 55.0Q675.9 55.8 675.9 56.9L675.9 56.9L671.6 56.9Q671.6 54.7 672.6 53.2Q673.6 51.6 675.3 50.7Q677.0 49.9 679.3 49.9L679.3 49.9Q681.6 49.9 683.3 50.7Q685.0 51.5 686.0 53.0Q687.0 54.4 687.0 56.3L687.0 56.3Q687.0 57.5 686.5 58.7Q686.0 59.9 684.8 61.4Q683.6 62.9 681.3 64.9L681.3 64.9L678.0 68.2L678.0 68.3L687.3 68.3L687.3 72ZM700.4 68.1L689.9 68.1L689.9 64.6L699.0 50.2L704.6 50.2L704.6 64.5L707.4 64.5L707.4 68.1L704.6 68.1L704.6 72L700.4 72L700.4 68.1ZM694.4 64.5L700.4 64.5L700.4 55.1L700.3 55.1L694.4 64.3L694.4 64.5ZM720.6 68.1L710.2 68.1L710.2 64.6L719.3 50.2L724.9 50.2L724.9 64.5L727.7 64.5L727.7 68.1L724.9 68.1L724.9 72L720.6 72L720.6 68.1ZM714.7 64.5L720.7 64.5L720.7 55.1L720.6 55.1L714.7 64.3L714.7 64.5ZM734.0 50.2L738.8 50.2L738.8 72L734.4 72L734.4 54.1L734.2 54.1L729.2 57.7L729.2 53.6L734.0 50.2Z "/></g><mask id="satori_om-id-3-1"><rect x="674" y="81" width="66" height="13" fill="#fff" mask="url(#satori_om-id)"/></mask><g mask="url(#satori_om-id)" clip-path="url(#satori_cp-id)"><path fill="rgba(200,195,225,0.45)" d="M678.2 92.1L678.2 92.1Q677.2 92.1 676.3 91.6Q675.5 91.1 675.0 90.2Q674.5 89.3 674.5 88.0L674.5 88.0Q674.5 86.7 675.0 85.8Q675.5 84.9 676.3 84.4Q677.2 83.9 678.2 83.9L678.2 83.9Q678.9 83.9 679.5 84.1Q680.1 84.3 680.5 84.6Q681.0 85.0 681.3 85.5Q681.6 86.1 681.7 86.7L681.7 86.7L680.0 86.7Q680.0 86.4 679.8 86.1Q679.6 85.9 679.4 85.7Q679.2 85.5 678.9 85.4Q678.6 85.3 678.3 85.3L678.3 85.3Q677.6 85.3 677.2 85.7Q676.7 86.0 676.4 86.6Q676.2 87.2 676.2 88.0L676.2 88.0Q676.2 88.9 676.4 89.5Q676.7 90.1 677.2 90.4Q677.6 90.7 678.2 90.7L678.2 90.7Q678.6 90.7 678.9 90.6Q679.2 90.5 679.4 90.3Q679.6 90.1 679.8 89.8Q680.0 89.6 680.0 89.3L680.0 89.3L681.7 89.3Q681.6 89.8 681.3 90.3Q681.1 90.8 680.6 91.2Q680.2 91.6 679.6 91.9Q679.0 92.1 678.2 92.1ZM687.9 92.1L687.9 92.1Q686.8 92.1 686.0 91.6Q685.1 91.1 684.6 90.2Q684.1 89.3 684.1 88.0L684.1 88.0Q684.1 86.7 684.6 85.8Q685.1 84.9 686.0 84.4Q686.8 83.9 687.9 83.9L687.9 83.9Q688.9 83.9 689.8 84.4Q690.6 84.9 691.1 85.8Q691.6 86.7 691.6 88.0L691.6 88.0Q691.6 89.3 691.1 90.2Q690.6 91.1 689.8 91.6Q688.9 92.1 687.9 92.1ZM687.9 90.7L687.9 90.7Q688.5 90.7 689.0 90.3Q689.4 90.0 689.7 89.5Q689.9 88.9 689.9 88.0L689.9 88.0Q689.9 87.1 689.7 86.5Q689.4 86.0 689.0 85.6Q688.5 85.3 687.9 85.3L687.9 85.3Q687.3 85.3 686.8 85.7Q686.3 86.0 686.1 86.6Q685.8 87.1 685.8 88.0L685.8 88.0Q685.8 88.9 686.1 89.4Q686.3 90.0 686.8 90.3Q687.3 90.7 687.9 90.7ZM696.0 92L694.3 92L694.3 84.0L696.9 84.0L698.2 87.7Q698.2 87.9 698.3 88.3Q698.4 88.7 698.5 89.2L698.5 89.2Q698.7 89.7 698.7 90.1L698.7 90.1Q698.8 89.7 698.9 89.2L698.9 89.2Q699.0 88.8 699.2 88.3Q699.3 87.9 699.3 87.7L699.3 87.7L700.6 84.0L703.1 84.0L703.1 92L701.5 92L701.5 88.2Q701.5 88.0 701.5 87.6Q701.5 87.2 701.5 86.7Q701.5 86.3 701.5 85.8L701.5 85.8Q701.6 85.6 701.6 85.4L701.6 85.4Q701.5 85.6 701.4 85.9L701.4 85.9Q701.3 86.3 701.2 86.8Q701.1 87.2 700.9 87.6Q700.8 88.0 700.8 88.2L700.8 88.2L699.4 92L698.0 92L696.7 88.2Q696.6 88.0 696.5 87.6Q696.4 87.2 696.3 86.8Q696.1 86.4 696.0 85.9L696.0 85.9Q696.0 85.7 695.9 85.5L695.9 85.5Q695.9 85.6 695.9 85.8L695.9 85.8Q695.9 86.2 695.9 86.7Q695.9 87.2 696.0 87.6Q696.0 88.0 696.0 88.2L696.0 88.2L696.0 92ZM707.7 92L706.1 92L706.1 84.0L708.6 84.0L709.9 87.7Q710.0 87.9 710.1 88.3Q710.2 88.7 710.3 89.2L710.3 89.2Q710.4 89.7 710.5 90.1L710.5 90.1Q710.6 89.7 710.7 89.2L710.7 89.2Q710.8 88.8 710.9 88.3Q711.0 87.9 711.1 87.7L711.1 87.7L712.4 84.0L714.9 84.0L714.9 92L713.2 92L713.2 88.2Q713.2 88.0 713.2 87.6Q713.3 87.2 713.3 86.7Q713.3 86.3 713.3 85.8L713.3 85.8Q713.3 85.6 713.3 85.4L713.3 85.4Q713.2 85.6 713.2 85.9L713.2 85.9Q713.1 86.3 712.9 86.8Q712.8 87.2 712.7 87.6Q712.6 88.0 712.5 88.2L712.5 88.2L711.2 92L709.8 92L708.4 88.2Q708.4 88.0 708.3 87.6Q708.1 87.2 708.0 86.8Q707.9 86.4 707.8 85.9L707.8 85.9Q707.7 85.7 707.7 85.5L707.7 85.5Q707.7 85.6 707.7 85.8L707.7 85.8Q707.7 86.2 707.7 86.7Q707.7 87.2 707.7 87.6Q707.7 88.0 707.7 88.2L707.7 88.2L707.7 92ZM717.8 84.0L719.5 84.0L719.5 92L717.8 92L717.8 84.0ZM724.5 85.4L722.1 85.4L722.1 84.0L728.6 84.0L728.6 85.4L726.2 85.4L726.2 92L724.5 92L724.5 85.4ZM734.2 92.1L734.2 92.1Q733.2 92.1 732.5 91.8Q731.8 91.5 731.4 90.9Q731.0 90.4 731.0 89.5L731.0 89.5L732.6 89.5Q732.6 89.9 732.8 90.2Q733.0 90.5 733.4 90.6Q733.7 90.7 734.2 90.7L734.2 90.7Q734.6 90.7 734.9 90.6Q735.3 90.5 735.5 90.2Q735.6 90.0 735.6 89.7L735.6 89.7Q735.6 89.4 735.5 89.3Q735.3 89.1 735.0 88.9Q734.7 88.8 734.3 88.7L734.3 88.7L733.4 88.5Q732.4 88.2 731.8 87.7Q731.2 87.2 731.2 86.3L731.2 86.3Q731.2 85.6 731.6 85.0Q732.0 84.5 732.7 84.2Q733.3 83.9 734.2 83.9L734.2 83.9Q735.1 83.9 735.8 84.2Q736.4 84.5 736.8 85.0Q737.2 85.6 737.2 86.3L737.2 86.3L735.6 86.3Q735.6 85.8 735.2 85.5Q734.8 85.3 734.2 85.3L734.2 85.3Q733.8 85.3 733.5 85.4Q733.2 85.5 733.0 85.7Q732.9 85.9 732.9 86.2L732.9 86.2Q732.9 86.5 733.1 86.7Q733.2 86.9 733.5 87.0Q733.8 87.1 734.2 87.2L734.2 87.2L734.9 87.4Q735.4 87.5 735.8 87.7Q736.3 87.9 736.6 88.2Q736.9 88.4 737.1 88.8Q737.3 89.2 737.3 89.7L737.3 89.7Q737.3 90.4 736.9 91.0Q736.6 91.5 735.9 91.8Q735.2 92.1 734.2 92.1Z "/></g></svg>