<!-- Generated by readme-aura https://github.com/collectioneur/readme-aura -->
<svg width="860" height="140" viewBox="0 0 860 140" xmlns="http://www.w3.org/2000/svg"><defs><clipPath id="satori_bc-id"><path x="0" y="0" width="860" height="140" d="M16,0 h828 a16,16 0 0 1 16,16 v108 a16,16 0 0 1 -16,16 h-828 a16,16 0 0 1 -16,-16 v-108 a16,16 0 0 1 16,-16"/></clipPath></defs><clipPath id="satori_cp-id"><path x="0" y="0" width="860" height="140" d="M16,0 h828 a16,16 0 0 1 16,16 v108 a16,16 0 0 1 -16,16 h-828 a16,16 0 0 1 -16,-16 v-108 a16,16 0 0 1 16,-16"/></clipPath><mask id="satori_om-id"><rect x="1" y="1" width="858" height="138" fill="#fff"/><path width="860" height="140" fill="none" stroke="#000" stroke-width="2" d="M4.686,4.686 A16,16 0 0 1 16,0 h828 a16,16 0 0 1 16,16 v108 a16,16 0 0 1 -16,16 h-828 a16,16 0 0 1 -16,-16 v-108 A16,16 0 0 1 4.686,4.686"/></mask><path x="0" y="0" width="860" height="140" fill="#08080c" d="M16,0 h828 a16,16 0 0 1 16,16 v108 a16,16 0 0 1 -16,16 h-828 a16,16 0 0 1 -16,-16 v-108 a16,16 0 0 1 16,-16"/><path width="860" height="140" clip-path="url(#satori_bc-id)" fill="none" stroke="rgba(110,80,220,0.18)" stroke-width="2" d="M4.686,4.686 A16,16 0 0 1 16,0 h828 a16,16 0 0 1 16,16 v108 a16,16 0 0 1 -16,16 h-828 a16,16 0 0 1 -16,-16 v-108 A16,16 0 0 1 4.686,4.686"/><clipPath id="satori_cp-id-0" clip-path="url(#satori_cp-id)"><rect x="1" y="1" width="860" height="140"/></clipPath><mask id="satori_om-id-0"><rect x="1" y="1" width="860" height="140" fill="#fff" mask="url(#satori_om-id)"/></mask><svg x="1" y="1" width="860" height="140" preserveAspectRatio="none" clip-path="url(#satori_cp-id-0)" mask="url(#satori_om-id-0)"><defs><radialGradient id="g1" cx="50%" cy="50%" r="50%"><stop offset="0%" stop-color="rgba(110,20,210,0.65)"></stop><stop offset="45%" stop-color="rgba(80,15,170,0.28)"></stop><stop offset="70%" stop-color="rgba(80,15,170,0)"></stop></radialGradient><radialGradient id="g2" cx="50%" cy="50%" r="50%"><stop offset="0%" stop-color="rgba(40,70,255,0.55)"></stop><stop offset="45%" stop-color="rgba(20,50,200,0.22)"></stop><stop offset="70%" stop-color="rgba(20,50,200,0)"></stop></radialGradient><radialGradient id="g3" cx="50%" cy="50%" r="50%"><stop offset="0%" stop-color="rgba(0,140,255,0.42)"></stop><stop offset="70%" stop-color="rgba(0,140,255,0)"></stop></radialGradient><radialGradient id="g4" cx="50%" cy="50%" r="50%"><stop offset="0%" stop-color="rgba(0,195,235,0.30)"></stop><stop offset="70%" stop-color="rgba(0,195,235,0)"></stop></radialGradient><radialGradient id="g5" cx="50%" cy="50%" r="50%"><stop offset="0%" stop-color="rgba(100,30,210,0.40)"></stop><stop offset="70%" stop-color="rgba(100,30,210,0)"></stop></radialGradient></defs><ellipse id="glow-1" cx="710" cy="150" rx="210" ry="150" fill="url(#g1)"></ellipse><ellipse id="glow-2" cx="550" cy="140" rx="190" ry="140" fill="url(#g2)"></ellipse><ellipse id="glow-3" cx="400" cy="130" rx="170" ry="130" fill="url(#g3)"></ellipse><ellipse id="glow-4" cx="250" cy="140" rx="150" ry="120" fill="url(#g4)"></ellipse><ellipse id="glow-5" cx="100" cy="150" rx="130" ry="110" fill="url(#g5)"></ellipse><style>

         @keyframes float-slow {
           0%, 100% { transform: translateX(0px); opacity: 0.8; }
           50% { transform: translateX(350px); opacity: 1.2; }
         }
         @keyframes float-medium {
           0%, 100% { transform: translateX(0px); opacity: 0.7; }
           50% { transform: translateX(-250px); opacity: 1.1; }
         }
         @keyframes float-fast {
           0%, 100% { transform: translateX(0px); opacity: 0.9; }
           50% { transform: translateX(200px); opacity: 0.6; }
         }
         @keyframes float-diagonal {
           0%, 100% { transform: translate(0px, 0px); opacity: 0.75; }
           50% { transform: translate(120px, 30px); opacity: 1.0; }
         }
         @keyframes float-wave {
           0%, 100% { transform: translateX(0px); opacity: 0.65; }
           33% { transform: translateX(-160px); opacity: 0.9; }
           66% { transform: translateX(80px); opacity: 1.0; }
         }
         @keyframes float-pulse {
           0%, 100% { transform: scale(1); opacity: 0.8; }
           50% { transform: scale(1.3); opacity: 0.4; }
         }
         #glow-1 { animation: float-slow 8s ease-in-out infinite; }
         #glow-2 { animation: float-medium 12s ease-in-out infinite; }
         #glow-3 { animation: float-fast 9s ease-in-out infinite; }
         #glow-4 { animation: float-diagonal 10s ease-in-out infinite; }
         #glow-5 { animation: float-wave 14s ease-in-out infinite; }
       
</style>
</svg><mask id="satori_om-id-0-0"><rect x="1" y="1" width="0" height="140" fill="#fff" mask="url(#satori_om-id)"/></mask><mask id="satori_om-id-0-0-0"><rect x="1" y="1" width="0" height="140" fill="#fff" mask="url(#satori_om-id)"/></mask><mask id="satori_om-id-0-0-0-0"><rect x="1" y="1" width="0" height="140" fill="#fff" mask="url(#satori_om-id)"/></mask><mask id="satori_om-id-0-0-0-1"><rect x="1" y="1" width="0" height="140" fill="#fff" mask="url(#satori_om-id)"/></mask><mask id="satori_om-id-0-0-0-2"><rect x="1" y="1" width="0" height="140" fill="#fff" mask="url(#satori_om-id)"/></mask><mask id="satori_om-id-0-0-1"><rect x="1" y="1" width="0" height="140" fill="#fff" mask="url(#satori_om-id)"/></mask><mask id="satori_om-id-0-0-1-0"><rect x="1" y="1" width="0" height="140" fill="#fff" mask="url(#satori_om-id)"/></mask><mask id="satori_om-id-0-0-1-1"><rect x="1" y="1" width="0" height="140" fill="#fff" mask="url(#satori_om-id)"/></mask><mask id="satori_om-id-0-0-1-2"><rect x="1" y="1" width="0" height="140" fill="#fff" mask="url(#satori_om-id)"/></mask><mask id="satori_om-id-0-0-2"><rect x="1" y="1" width="0" height="140" fill="#fff" mask="url(#satori_om-id)"/></mask><mask id="satori_om-id-0-0-2-0"><rect x="1" y="1" width="0" height="140" fill="#fff" mask="url(#satori_om-id)"/></mask><mask id="satori_om-id-0-0-2-1"><rect x="1" y="1" width="0" height="140" fill="#fff" mask="url(#satori_om-id)"/></mask><mask id="satori_om-id-0-0-3"><rect x="1" y="1" width="0" height="140" fill="#fff" mask="url(#satori_om-id)"/></mask><mask id="satori_om-id-0-0-3-0"><rect x="1" y="1" width="0" height="140" fill="#fff" mask="url(#satori_om-id)"/></mask><mask id="satori_om-id-0-0-3-1"><rect x="1" y="1" width="0" height="140" fill="#fff" mask="url(#satori_om-id)"/></mask><mask id="satori_om-id-0-0-4"><rect x="1" y="1" width="0" height="140" fill="#fff" mask="url(#satori_om-id)"/></mask><mask id="satori_om-id-0-0-4-0"><rect x="1" y="1" width="0" height="140" fill="#fff" mask="url(#satori_om-id)"/></mask><mask id="satori_om-id-0-0-4-1"><rect x="1" y="1" width="0" height="140" fill="#fff" mask="url(#satori_om-id)"/></mask><mask id="satori_om-id-0-1"><rect x="1" y="1" width="0" height="140" fill="#fff" mask="url(#satori_om-id)"/></mask><mask id="satori_om-id-0-2"><rect x="1" y="1" width="0" height="140" fill="#fff" mask="url(#satori_om-id)"/></mask><mask id="satori_om-id-0-3"><rect x="1" y="1" width="0" height="140" fill="#fff" mask="url(#satori_om-id)"/></mask><mask id="satori_om-id-0-4"><rect x="1" y="1" width="0" height="140" fill="#fff" mask="url(#satori_om-id)"/></mask><mask id="satori_om-id-0-5"><rect x="1" y="1" width="0" height="140" fill="#fff" mask="url(#satori_om-id)"/></mask><defs><clipPath id="satori_bc-id-1" clip-path="url(#satori_cp-id)"><rect x="1" y="30" width="274" height="80"/></clipPath></defs><mask id="satori_om-id-1"><rect x="1" y="30" width="273" height="80" fill="#fff" mask="url(#satori_om-id)"/><path width="274" height="80" fill="none" stroke="#000" stroke-width="2" d="M275,30 A0,0 0 0 1 275,30 v80 A0,0 0 0 1 275,110"/></mask><path width="274" height="80" clip-path="url(#satori_bc-id-1)" fill="none" stroke="rgba(255,255,255,0.06)" stroke-width="2" d="M275,30 A0,0 0 0 1 275,30 v80 A0,0 0 0 1 275,110"/><mask id="satori_om-id-1-0"><rect x="122" y="46" width="32" height="30" fill="#fff" mask="url(#satori_om-id)"/></mask><g mask="url(#satori_om-id)" clip-path="url(#satori_cp-id)"><path fill="#a78bfa" d="M128.2 50.2L133.0 50.2L133.0 72L128.5 72L128.5 54.1L128.4 54.1L123.4 57.7L123.4 53.6L128.2 50.2ZM152.2 72L136.8 72L136.8 68.8L144.5 61.5Q145.5 60.6 146.2 59.8Q146.8 59.0 147.2 58.2Q147.6 57.5 147.6 56.6L147.6 56.6Q147.6 55.6 147.1 54.9Q146.7 54.2 145.9 53.8Q145.2 53.5 144.2 53.5L144.2 53.5Q143.2 53.5 142.4 53.9Q141.6 54.3 141.2 55.0Q140.8 55.8 140.8 56.9L140.8 56.9L136.5 56.9Q136.5 54.7 137.5 53.2Q138.5 51.6 140.2 50.7Q142.0 49.9 144.2 49.9L144.2 49.9Q146.5 49.9 148.3 50.7Q150.0 51.5 150.9 53.0Q151.9 54.4 151.9 56.3L151.9 56.3Q151.9 57.5 151.4 58.7Q150.9 59.9 149.7 61.4Q148.5 62.9 146.3 64.9L146.3 64.9L143.0 68.2L143.0 68.3L152.2 68.3L152.2 72Z "/></g><mask id="satori_om-id-1-1"><rect x="115" y="81" width="45" height="13" fill="#fff" mask="url(#satori_om-id)"/></mask><g mask="url(#satori_om-id)" clip-path="url(#satori_cp-id)"><path fill="rgba(200,195,225,0.45)" d="M117.4 92L115.7 92L115.7 84.0L118.8 84.0Q119.8 84.0 120.4 84.3Q121.0 84.6 121.4 85.2Q121.7 85.8 121.7 86.6Q121.7 87.4 121.4 88.0Q121.0 88.5 120.4 88.8L120.4 88.8Q120.3 88.9 120.3 88.9L120.3 88.9L122.0 92L120.2 92L118.6 89.1L117.4 89.1L117.4 92ZM117.4 85.4L117.4 87.8L118.5 87.8Q119.0 87.8 119.4 87.7Q119.7 87.5 119.9 87.3Q120.0 87.0 120.0 86.6L120.0 86.6Q120.0 86.2 119.9 85.9Q119.7 85.6 119.4 85.5Q119.0 85.4 118.5 85.4L118.5 85.4L117.4 85.4ZM129.8 92L124.4 92L124.4 84.0L129.8 84.0L129.8 85.4L126.1 85.4L126.1 87.3L129.5 87.3L129.5 88.6L126.1 88.6L126.1 90.6L129.8 90.6L129.8 92ZM134.3 92L132.6 92L132.6 84.0L135.8 84.0Q136.7 84.0 137.3 84.3Q137.9 84.7 138.3 85.3Q138.6 85.9 138.6 86.7L138.6 86.7Q138.6 87.5 138.3 88.1Q137.9 88.7 137.3 89.0Q136.6 89.4 135.7 89.4L135.7 89.4L134.3 89.4L134.3 92ZM134.3 85.4L134.3 88.1L135.5 88.1Q136.0 88.1 136.3 87.9Q136.6 87.7 136.8 87.4Q136.9 87.1 136.9 86.7Q136.9 86.3 136.8 86.0Q136.6 85.7 136.3 85.5Q136.0 85.4 135.4 85.4L135.4 85.4L134.3 85.4ZM144.8 92.1L144.8 92.1Q143.7 92.1 142.9 91.6Q142.0 91.1 141.5 90.2Q141.0 89.3 141.0 88.0L141.0 88.0Q141.0 86.7 141.5 85.8Q142.0 84.9 142.9 84.4Q143.7 83.9 144.8 83.9L144.8 83.9Q145.8 83.9 146.7 84.4Q147.5 84.9 148.0 85.8Q148.5 86.7 148.5 88.0L148.5 88.0Q148.5 89.3 148.0 90.2Q147.5 91.1 146.7 91.6Q145.8 92.1 144.8 92.1ZM144.8 90.7L144.8 90.7Q145.4 90.7 145.9 90.3Q146.3 90.0 146.6 89.5Q146.8 88.9 146.8 88.0L146.8 88.0Q146.8 87.1 146.6 86.5Q146.3 86.0 145.9 85.6Q145.4 85.3 144.8 85.3L144.8 85.3Q144.2 85.3 143.7 85.7Q143.2 86.0 143.0 86.6Q142.7 87.1 142.7 88.0L142.7 88.0Q142.7 88.9 143.0 89.4Q143.2 90.0 143.7 90.3Q144.2 90.7 144.8 90.7ZM154.2 92.1L154.2 92.1Q153.2 92.1 152.5 91.8Q151.8 91.5 151.4 90.9Q151.0 90.4 151.0 89.5L151.0 89.5L152.6 89.5Q152.6 89.9 152.8 90.2Q153.0 90.5 153.4 90.6Q153.7 90.7 154.2 90.7L154.2 90.7Q154.6 90.7 154.9 90.6Q155.2 90.5 155.4 90.2Q155.6 90.0 155.6 89.7L155.6 89.7Q155.6 89.4 155.4 89.3Q155.3 89.1 155.0 88.9Q154.7 88.8 154.2 88.7L154.2 88.7L153.3 88.5Q152.3 88.2 151.8 87.7Q151.2 87.2 151.2 86.3L151.2 86.3Q151.2 85.6 151.6 85.0Q152.0 84.5 152.6 84.2Q153.3 83.9 154.2 83.9L154.2 83.9Q155.1 83.9 155.7 84.2Q156.4 84.5 156.8 85.0Q157.1 85.6 157.1 86.3L157.1 86.3L155.6 86.3Q155.5 85.8 155.2 85.5Q154.8 85.3 154.2 85.3L154.2 85.3Q153.8 85.3 153.5 85.4Q153.2 85.5 153.0 85.7Q152.9 85.9 152.9 86.2L152.9 86.2Q152.9 86.5 153.0 86.7Q153.2 86.9 153.5 87.0Q153.8 87.1 154.1 87.2L154.1 87.2L154.9 87.4Q155.4 87.5 155.8 87.7Q156.2 87.9 156.6 88.2Q156.9 88.4 157.1 88.8Q157.3 89.2 157.3 89.7L157.3 89.7Q157.3 90.4 156.9 91.0Q156.5 91.5 155.8 91.8Q155.1 92.1 154.2 92.1Z "/></g><defs><clipPath id="satori_bc-id-2" clip-path="url(#satori_cp-id)"><rect x="275" y="30" width="281" height="80"/></clipPath></defs><mask id="satori_om-id-2"><rect x="275" y="30" width="280" height="80" fill="#fff" mask="url(#satori_om-id)"/><path width="281" height="80" fill="none" stroke="#000" stroke-width="2" d="M556,30 A0,0 0 0 1 556,30 v80 A0,0 0 0 1 556,110"/></mask><path width="281" height="80" clip-path="url(#satori_bc-id-2)" fill="none" stroke="rgba(255,255,255,0.06)" stroke-width="2" d="M556,30 A0,0 0 0 1 556,30 v80 A0,0 0 0 1 556,110"/><mask id="satori_om-id-2-0"><rect x="389" y="46" width="52" height="30" fill="#fff" mask="url(#satori_om-id)"/></mask><g mask="url(#satori_om-id)" clip-path="url(#satori_cp-id)"><path fill="#60a5fa" d="M395.2 50.2L400.0 50.2L400.0 72L395.5 72L395.5 54.1L395.4 54.1L390.4 57.7L390.4 53.6L395.2 50.2ZM411.1 72.3L411.1 72.3Q408.9 72.3 407.1 71.5Q405.4 70.6 404.4 69.2Q403.4 67.7 403.3 65.9L403.3 65.9L407.7 65.9Q407.7 66.7 408.2 67.4Q408.7 68.0 409.4 68.4Q410.2 68.7 411.1 68.7L411.1 68.7Q412.2 68.7 413.1 68.3Q413.9 67.8 414.4 66.9Q414.9 66.0 414.9 64.9L414.9 64.9Q414.9 63.7 414.4 62.8Q413.9 61.9 413.0 61.4Q412.2 60.9 411.1 60.9L411.1 60.9Q410.1 60.9 409.2 61.3Q408.3 61.7 407.8 62.3L407.8 62.3L403.8 61.6L404.8 50.2L418.0 50.2L418.0 53.9L408.5 53.9L408.0 59.4L408.1 59.4Q408.7 58.6 409.8 58.1Q411.0 57.6 412.4 57.6L412.4 57.6Q413.8 57.6 415.1 58.1Q416.3 58.6 417.3 59.6Q418.2 60.5 418.7 61.9Q419.2 63.2 419.2 64.7L419.2 64.7Q419.2 66.9 418.2 68.6Q417.2 70.3 415.4 71.3Q413.5 72.3 411.1 72.3ZM432.5 68.1L422.1 68.1L422.1 64.6L431.2 50.2L436.8 50.2L436.8 64.5L439.5 64.5L439.5 68.1L436.8 68.1L436.8 72L432.5 72L432.5 68.1ZM426.6 64.5L432.6 64.5L432.6 55.1L432.4 55.1L426.6 64.3L426.6 64.5Z "/></g><mask id="satori_om-id-2-1"><rect x="393" y="81" width="45" height="13" fill="#fff" mask="url(#satori_om-id)"/></mask><g mask="url(#satori_om-id)" clip-path="url(#satori_cp-id)"><path fill="rgba(200,195,225,0.45)" d="M396.7 92.1L396.7 92.1Q395.7 92.1 395.0 91.8Q394.3 91.5 393.9 90.9Q393.5 90.4 393.5 89.5L393.5 89.5L395.1 89.5Q395.1 89.9 395.3 90.2Q395.5 90.5 395.9 90.6Q396.2 90.7 396.6 90.7L396.6 90.7Q397.1 90.7 397.4 90.6Q397.7 90.5 397.9 90.2Q398.1 90.0 398.1 89.7L398.1 89.7Q398.1 89.4 397.9 89.3Q397.8 89.1 397.5 88.9Q397.2 88.8 396.7 88.7L396.7 88.7L395.8 88.5Q394.8 88.2 394.2 87.7Q393.7 87.2 393.7 86.3L393.7 86.3Q393.7 85.6 394.1 85.0Q394.5 84.5 395.1 84.2Q395.8 83.9 396.7 83.9L396.7 83.9Q397.6 83.9 398.2 84.2Q398.9 84.5 399.3 85.0Q399.6 85.6 399.6 86.3L399.6 86.3L398.1 86.3Q398.0 85.8 397.6 85.5Q397.3 85.3 396.7 85.3L396.7 85.3Q396.2 85.3 396.0 85.4Q395.7 85.5 395.5 85.7Q395.4 85.9 395.4 86.2L395.4 86.2Q395.4 86.5 395.5 86.7Q395.7 86.9 396.0 87.0Q396.3 87.1 396.6 87.2L396.6 87.2L397.4 87.4Q397.9 87.5 398.3 87.7Q398.7 87.9 399.1 88.2Q399.4 88.4 399.6 88.8Q399.7 89.2 399.7 89.7L399.7 89.7Q399.7 90.4 399.4 91.0Q399.0 91.5 398.3 91.8Q397.6 92.1 396.7 92.1ZM404.6 85.4L402.1 85.4L402.1 84.0L408.6 84.0L408.6 85.4L406.2 85.4L406.2 92L404.6 92L404.6 85.4ZM412.6 92L410.8 92L413.5 84.0L415.7 84.0L418.5 92L416.7 92L416.1 90.1L413.2 90.1L412.6 92ZM413.6 88.9L415.6 88.9L415.4 88.1Q415.2 87.4 414.9 86.5L414.9 86.5Q414.8 85.9 414.6 85.3L414.6 85.3Q414.4 85.9 414.3 86.5L414.3 86.5Q414.1 87.4 413.9 88.1L413.9 88.1L413.6 88.9ZM422.6 92L421.0 92L421.0 84.0L424.1 84.0Q425.0 84.0 425.7 84.3Q426.3 84.6 426.6 85.2Q427.0 85.8 427.0 86.6Q427.0 87.4 426.6 88.0Q426.3 88.5 425.6 88.8L425.6 88.8Q425.6 88.9 425.5 88.9L425.5 88.9L427.3 92L425.4 92L423.9 89.1L422.6 89.1L422.6 92ZM422.6 85.4L422.6 87.8L423.8 87.8Q424.3 87.8 424.6 87.7Q425.0 87.5 425.1 87.3Q425.3 87.0 425.3 86.6L425.3 86.6Q425.3 86.2 425.1 85.9Q425.0 85.6 424.6 85.5Q424.3 85.4 423.8 85.4L423.8 85.4L422.6 85.4ZM432.6 92.1L432.6 92.1Q431.7 92.1 431.0 91.8Q430.3 91.5 429.9 90.9Q429.5 90.4 429.4 89.5L429.4 89.5L431.0 89.5Q431.1 89.9 431.3 90.2Q431.5 90.5 431.8 90.6Q432.2 90.7 432.6 90.7L432.6 90.7Q433.1 90.7 433.4 90.6Q433.7 90.5 433.9 90.2Q434.1 90.0 434.1 89.7L434.1 89.7Q434.1 89.4 433.9 89.3Q433.8 89.1 433.4 88.9Q433.1 88.8 432.7 88.7L432.7 88.7L431.8 88.5Q430.8 88.2 430.2 87.7Q429.7 87.2 429.7 86.3L429.7 86.3Q429.7 85.6 430.0 85.0Q430.4 84.5 431.1 84.2Q431.8 83.9 432.7 83.9L432.7 83.9Q433.5 83.9 434.2 84.2Q434.9 84.5 435.2 85.0Q435.6 85.6 435.6 86.3L435.6 86.3L434.0 86.3Q434.0 85.8 433.6 85.5Q433.3 85.3 432.6 85.3L432.6 85.3Q432.2 85.3 431.9 85.4Q431.6 85.5 431.5 85.7Q431.3 85.9 431.3 86.2L431.3 86.2Q431.3 86.5 431.5 86.7Q431.7 86.9 432.0 87.0Q432.3 87.1 432.6 87.2L432.6 87.2L433.3 87.4Q433.8 87.5 434.3 87.7Q434.7 87.9 435.0 88.2Q435.4 88.4 435.5 88.8Q435.7 89.2 435.7 89.7L435.7 89.7Q435.7 90.4 435.4 91.0Q435.0 91.5 434.3 91.8Q433.6 92.1 432.6 92.1Z "/></g><mask id="satori_om-id-3"><rect x="556" y="30" width="303" height="80" fill="#fff" mask="url(#satori_om-id)"/></mask><mask id="satori_om-id-3-0"><rect x="670" y="46" width="75" height="30" fill="#fff" mask="url(#satori_om-id)"/></mask><g mask="url(#satori_om-id)" clip-path="url(#satori_cp-id)"><path fill="#f59e0b" d="M680.0 72.3L680.0 72.3Q678.4 72.3 676.8 71.7Q675.3 71.2 674.0 69.9Q672.8 68.7 672.1 66.7Q671.4 64.6 671.4 61.6L671.4 61.6Q671.4 58.8 672.0 56.7Q672.6 54.5 673.8 53.0Q674.9 51.5 676.5 50.7Q678.2 49.9 680.2 49.9L680.2 49.9Q682.3 49.9 684.0 50.7Q685.6 51.6 686.7 53.0Q687.7 54.4 687.9 56.2L687.9 56.2L683.5 56.2Q683.2 55.1 682.3 54.4Q681.5 53.7 680.2 53.7L680.2 53.7Q678.7 53.7 677.8 54.6Q676.8 55.4 676.3 57.0Q675.8 58.6 675.8 60.7L675.8 60.7L675.9 60.7Q676.4 59.8 677.2 59.1Q678.1 58.4 679.1 58.0Q680.2 57.7 681.4 57.7L681.4 57.7Q683.3 57.7 684.8 58.6Q686.4 59.5 687.2 61.1Q688.1 62.7 688.1 64.7L688.1 64.7Q688.1 66.9 687.1 68.6Q686.1 70.3 684.3 71.3Q682.4 72.3 680.0 72.3ZM680.0 68.7L680.0 68.7Q681.1 68.7 681.9 68.2Q682.8 67.7 683.3 66.8Q683.8 65.9 683.8 64.8L683.8 64.8Q683.8 63.7 683.3 62.8Q682.8 62.0 682.0 61.4Q681.1 60.9 680.0 60.9L680.0 60.9Q679.2 60.9 678.5 61.2Q677.8 61.5 677.3 62.1Q676.8 62.6 676.5 63.3Q676.2 64.0 676.2 64.8L676.2 64.8Q676.2 65.9 676.7 66.8Q677.2 67.7 678.0 68.2Q678.9 68.7 680.0 68.7ZM698.7 72.3L698.7 72.3Q696.4 72.3 694.7 71.5Q692.9 70.6 691.9 69.2Q690.9 67.7 690.8 65.9L690.8 65.9L695.2 65.9Q695.3 66.7 695.7 67.4Q696.2 68.0 697.0 68.4Q697.8 68.7 698.7 68.7L698.7 68.7Q699.8 68.7 700.6 68.3Q701.5 67.8 701.9 66.9Q702.4 66.0 702.4 64.9L702.4 64.9Q702.4 63.7 701.9 62.8Q701.5 61.9 700.6 61.4Q699.7 60.9 698.6 60.9L698.6 60.9Q697.6 60.9 696.7 61.3Q695.8 61.7 695.3 62.3L695.3 62.3L691.3 61.6L692.4 50.2L705.6 50.2L705.6 53.9L696.1 53.9L695.5 59.4L695.6 59.4Q696.2 58.6 697.4 58.1Q698.5 57.6 699.9 57.6L699.9 57.6Q701.4 57.6 702.6 58.1Q703.9 58.6 704.8 59.6Q705.7 60.5 706.3 61.9Q706.8 63.2 706.8 64.7L706.8 64.7Q706.8 66.9 705.7 68.6Q704.7 70.3 702.9 71.3Q701.1 72.3 698.7 72.3ZM717.8 72.3L717.8 72.3Q715.4 72.3 713.6 71.5Q711.7 70.7 710.7 69.2Q709.6 67.8 709.6 65.9L709.6 65.9L714.1 65.9Q714.1 66.7 714.6 67.3Q715.1 67.9 716.0 68.3Q716.8 68.6 717.8 68.6L717.8 68.6Q718.9 68.6 719.7 68.2Q720.5 67.8 721.0 67.2Q721.5 66.5 721.5 65.6L721.5 65.6Q721.5 64.7 721.0 64.0Q720.5 63.3 719.6 62.9Q718.7 62.5 717.4 62.5L717.4 62.5L715.4 62.5L715.4 59.2L717.4 59.2Q718.5 59.2 719.3 58.8Q720.1 58.5 720.5 57.8Q721.0 57.2 721.0 56.3L721.0 56.3Q721.0 55.4 720.6 54.8Q720.2 54.2 719.5 53.8Q718.8 53.5 717.8 53.5L717.8 53.5Q716.9 53.5 716.1 53.8Q715.3 54.1 714.8 54.8Q714.3 55.4 714.3 56.2L714.3 56.2L710.0 56.2Q710.0 54.4 711.1 52.9Q712.1 51.5 713.9 50.7Q715.7 49.9 717.9 49.9L717.9 49.9Q720.1 49.9 721.8 50.7Q723.5 51.5 724.4 52.9Q725.3 54.3 725.3 56.0L725.3 56.0Q725.3 57.8 724.2 59.1Q723.1 60.3 721.3 60.6L721.3 60.6L721.3 60.8Q722.8 61.0 723.9 61.7Q725.0 62.4 725.6 63.5Q726.1 64.5 726.1 65.9L726.1 65.9Q726.1 67.7 725.1 69.2Q724.0 70.6 722.1 71.5Q720.2 72.3 717.8 72.3ZM734.7 72L730.1 72L739.2 54.0L739.2 53.9L728.6 53.9L728.6 50.2L743.9 50.2L743.9 53.9L734.7 72Z "/></g><mask id="satori_om-id-3-1"><rect x="675" y="81" width="66" height="13" fill="#fff" mask="url(#satori_om-id)"/></mask><g mask="url(#satori_om-id)" clip-path="url(#satori_cp-id)"><path fill="rgba(200,195,225,0.45)" d="M679.2 92.1L679.2 92.1Q678.2 92.1 677.3 91.6Q676.5 91.1 676.0 90.2Q675.5 89.3 675.5 88.0L675.5 88.0Q675.5 86.7 676.0 85.8Q676.5 84.9 677.3 84.4Q678.2 83.9 679.2 83.9L679.2 83.9Q679.9 83.9 680.5 84.1Q681.1 84.3 681.5 84.6Q682.0 85.0 682.3 85.5Q682.6 86.1 682.7 86.7L682.7 86.7L681.0 86.7Q681.0 86.4 680.8 86.1Q680.6 85.9 680.4 85.7Q680.2 85.5 679.9 85.4Q679.6 85.3 679.3 85.3L679.3 85.3Q678.6 85.3 678.2 85.7Q677.7 86.0 677.4 86.6Q677.2 87.2 677.2 88.0L677.2 88.0Q677.2 88.9 677.4 89.5Q677.7 90.1 678.2 90.4Q678.6 90.7 679.2 90.7L679.2 90.7Q679.6 90.7 679.9 90.6Q680.2 90.5 680.4 90.3Q680.6 90.1 680.8 89.8Q681.0 89.6 681.0 89.3L681.0 89.3L682.7 89.3Q682.6 89.8 682.3 90.3Q682.1 90.8 681.6 91.2Q681.2 91.6 680.6 91.9Q680.0 92.1 679.2 92.1ZM688.9 92.1L688.9 92.1Q687.8 92.1 687.0 91.6Q686.1 91.1 685.6 90.2Q685.1 89.3 685.1 88.0L685.1 88.0Q685.1 86.7 685.6 85.8Q686.1 84.9 687.0 84.4Q687.8 83.9 688.9 83.9L688.9 83.9Q689.9 83.9 690.8 84.4Q691.6 84.9 692.1 85.8Q692.6 86.7 692.6 88.0L692.6 88.0Q692.6 89.3 692.1 90.2Q691.6 91.1 690.8 91.6Q689.9 92.1 688.9 92.1ZM688.9 90.7L688.9 90.7Q689.5 90.7 690.0 90.3Q690.4 90.0 690.7 89.5Q690.9 88.9 690.9 88.0L690.9 88.0Q690.9 87.1 690.7 86.5Q690.4 86.0 690.0 85.6Q689.5 85.3 688.9 85.3L688.9 85.3Q688.3 85.3 687.8 85.7Q687.3 86.0 687.1 86.6Q686.8 87.1 686.8 88.0L686.8 88.0Q686.8 88.9 687.1 89.4Q687.3 90.0 687.8 90.3Q688.3 90.7 688.9 90.7ZM697.0 92L695.3 92L695.3 84.0L697.9 84.0L699.2 87.7Q699.2 87.9 699.3 88.3Q699.4 88.7 699.5 89.2L699.5 89.2Q699.7 89.7 699.7 90.1L699.7 90.1Q699.8 89.7 699.9 89.2L699.9 89.2Q700.0 88.8 700.2 88.3Q700.3 87.9 700.3 87.7L700.3 87.7L701.6 84.0L704.1 84.0L704.1 92L702.5 92L702.5 88.2Q702.5 88.0 702.5 87.6Q702.5 87.2 702.5 86.7Q702.5 86.3 702.5 85.8L702.5 85.8Q702.6 85.6 702.6 85.4L702.6 85.4Q702.5 85.6 702.4 85.9L702.4 85.9Q702.3 86.3 702.2 86.8Q702.1 87.2 701.9 87.6Q701.8 88.0 701.8 88.2L701.8 88.2L700.4 92L699.0 92L697.7 88.2Q697.6 88.0 697.5 87.6Q697.4 87.2 697.3 86.8Q697.1 86.4 697.0 85.9L697.0 85.9Q697.0 85.7 696.9 85.5L696.9 85.5Q696.9 85.6 696.9 85.8L696.9 85.8Q696.9 86.2 696.9 86.7Q696.9 87.2 697.0 87.6Q697.0 88.0 697.0 88.2L697.0 88.2L697.0 92ZM708.7 92L707.1 92L707.1 84.0L709.6 84.0L710.9 87.7Q711.0 87.9 711.1 88.3Q711.2 88.7 711.3 89.2L711.3 89.2Q711.4 89.7 711.5 90.1L711.5 90.1Q711.6 89.7 711.7 89.2L711.7 89.2Q711.8 88.8 711.9 88.3Q712.0 87.9 712.1 87.7L712.1 87.7L713.4 84.0L715.9 84.0L715.9 92L714.2 92L714.2 88.2Q714.2 88.0 714.2 87.6Q714.3 87.2 714.3 86.7Q714.3 86.3 714.3 85.8L714.3 85.8Q714.3 85.6 714.3 85.4L714.3 85.4Q714.2 85.6 714.2 85.9L714.2 85.9Q714.1 86.3 713.9 86.8Q713.8 87.2 713.7 87.6Q713.6 88.0 713.5 88.2L713.5 88.2L712.2 92L710.8 92L709.4 88.2Q709.4 88.0 709.3 87.6Q709.1 87.2 709.0 86.8Q708.9 86.4 708.8 85.9L708.8 85.9Q708.7 85.7 708.7 85.5L708.7 85.5Q708.7 85.6 708.7 85.8L708.7 85.8Q708.7 86.2 708.7 86.7Q708.7 87.2 708.7 87.6Q708.7 88.0 708.7 88.2L708.7 88.2L708.7 92ZM718.8 84.0L720.5 84.0L720.5 92L718.8 92L718.8 84.0ZM725.5 85.4L723.1 85.4L723.1 84.0L729.6 84.0L729.6 85.4L727.2 85.4L727.2 92L725.5 92L725.5 85.4ZM735.2 92.1L735.2 92.1Q734.2 92.1 733.5 91.8Q732.8 91.5 732.4 90.9Q732.0 90.4 732.0 89.5L732.0 89.5L733.6 89.5Q733.6 89.9 733.8 90.2Q734.0 90.5 734.4 90.6Q734.7 90.7 735.2 90.7L735.2 90.7Q735.6 90.7 735.9 90.6Q736.3 90.5 736.5 90.2Q736.6 90.0 736.6 89.7L736.6 89.7Q736.6 89.4 736.5 89.3Q736.3 89.1 736.0 88.9Q735.7 88.8 735.3 88.7L735.3 88.7L734.4 88.5Q733.4 88.2 732.8 87.7Q732.2 87.2 732.2 86.3L732.2 86.3Q732.2 85.6 732.6 85.0Q733.0 84.5 733.7 84.2Q734.3 83.9 735.2 83.9L735.2 83.9Q736.1 83.9 736.8 84.2Q737.4 84.5 737.8 85.0Q738.2 85.6 738.2 86.3L738.2 86.3L736.6 86.3Q736.6 85.8 736.2 85.5Q735.8 85.3 735.2 85.3L735.2 85.3Q734.8 85.3 734.5 85.4Q734.2 85.5 734.0 85.7Q733.9 85.9 733.9 86.2L733.9 86.2Q733.9 86.5 734.1 86.7Q734.2 86.9 734.5 87.0Q734.8 87.1 735.2 87.2L735.2 87.2L735.9 87.4Q736.4 87.5 736.8 87.7Q737.3 87.9 737.6 88.2Q737.9 88.4 738.1 88.8Q738.3 89.2 738.3 89.7L738.3 89.7Q738.3 90.4 737.9 91.0Q737.6 91.5 736.9 91.8Q736.2 92.1 735.2 92.1Z "/></g></svg>