<!-- Generated by readme-aura https://github.com/collectioneur/readme-aura -->
<svg width="860" height="140" viewBox="0 0 860 140" xmlns="http://www.w3.org/2000/svg"><defs><clipPath id="satori_bc-id"><path x="0" y="0" width="860" height="140" d="M16,0 h828 a16,16 0 0 1 16,16 v108 a16,16 0 0 1 -16,16 h-828 a16,16 0 0 1 -16,-16 v-108 a16,16 0 0 1 16,-16"/></clipPath></defs><clipPath id="satori_cp-id"><path x="0" y="0" width="860" height="140" d="M16,0 h828 a16,16 0 0 1 16,16 v108 a16,16 0 0 1 -16,16 h-828 a16,16 0 0 1 -16,-16 v-108 a16,16 0 0 1 16,-16"/></clipPath><mask id="satori_om-id"><rect x="1" y="1" width="858" height="138" fill="#fff"/><path width="860" height="140" fill="none" stroke="#000" stroke-width="2" d="M4.686,4.686 A16,16 0 0 1 16,0 h828 a16,16 0 0 1 16,16 v108 a16,16 0 0 1 -16,16 h-828 a16,16 0 0 1 -16,-16 v-108 A16,16 0 0 1 4.686,4.686"/></mask><path x="0" y="0" width="860" height="140" fill="#08080c" d="M16,0 h828 a16,16 0 0 1 16,16 v108 a16,16 0 0 1 -16,16 h-828 a16,16 0 0 1 -16,-16 v-108 a16,16 0 0 1 16,-16"/><path width="860" height="140" clip-path="url(#satori_bc-id)" fill="none" stroke="rgba(110,80,220,0.18)" stroke-width="2" d="M4.686,4.686 A16,16 0 0 1 16,0 h828 a16,16 0 0 1 16,16 v108 a16,16 0 0 1 -16,16 h-828 a16,16 0 0 1 -16,-16 v-108 A16,16 0 0 1 4.686,4.686"/><clipPath id="satori_cp-id-0" clip-path="url(#satori_cp-id)"><rect x="1" y="1" width="860" height="140"/></clipPath><mask id="satori_om-id-0"><rect x="1" y="1" width="860" height="140" fill="#fff" mask="url(#satori_om-id)"/></mask><svg x="1" y="1" width="860" height="140" preserveAspectRatio="none" clip-path="url(#satori_cp-id-0)" mask="url(#satori_om-id-0)"><defs><radialGradient id="g1" cx="50%" cy="50%" r="50%"><stop offset="0%" stop-color="rgba(110,20,210,0.65)"></stop><stop offset="45%" stop-color="rgba(80,15,170,0.28)"></stop><stop offset="70%" stop-color="rgba(80,15,170,0)"></stop></radialGradient><radialGradient id="g2" cx="50%" cy="50%" r="50%"><stop offset="0%" stop-color="rgba(40,70,255,0.55)"></stop><stop offset="45%" stop-color="rgba(20,50,200,0.22)"></stop><stop offset="70%" stop-color="rgba(20,50,200,0)"></stop></radialGradient><radialGradient id="g3" cx="50%" cy="50%" r="50%"><stop offset="0%" stop-color="rgba(0,140,255,0.42)"></stop><stop offset="70%" stop-color="rgba(0,140,255,0)"></stop></radialGradient><radialGradient id="g4" cx="50%" cy="50%" r="50%"><stop offset="0%" stop-color="rgba(0,195,235,0.30)"></stop><stop offset="70%" stop-color="rgba(0,195,235,0)"></stop></radialGradient><radialGradient id="g5" cx="50%" cy="50%" r="50%"><stop offset="0%" stop-color="rgba(100,30,210,0.40)"></stop><stop offset="70%" stop-color="rgba(100,30,210,0)"></stop></radialGradient></defs><ellipse id="glow-1" cx="710" cy="150" rx="210" ry="150" fill="url(#g1)"></ellipse><ellipse id="glow-2" cx="550" cy="140" rx="190" ry="140" fill="url(#g2)"></ellipse><ellipse id="glow-3" cx="400" cy="130" rx="170" ry="130" fill="url(#g3)"></ellipse><ellipse id="glow-4" cx="250" cy="140" rx="150" ry="120" fill="url(#g4)"></ellipse><ellipse id="glow-5" cx="100" cy="150" rx="130" ry="110" fill="url(#g5)"></ellipse><style>

         @keyframes float-slow {
           0%, 100% { transform: translateX(0px); opacity: 0.8; }
           50% { transform: translateX(350px); opacity: 1.2; }
         }
         @keyframes float-medium {
           0%, 100% { transform: translateX(0px); opacity: 0.7; }
           50% { transform: translateX(-250px); opacity: 1.1; }
         }
         @keyframes float-fast {
           0%, 100% { transform: translateX(0px); opacity: 0.9; }
           50% { transform: translateX(200px); opacity: 0.6; }
         }
         @keyframes float-diagonal {
           0%, 100% { transform: translate(0px, 0px); opacity: 0.75; }
           50% { transform: translate(120px, 30px); opacity: 1.0; }
         }
         @keyframes float-wave {
           0%, 100% { transform: translateX(0px); opacity: 0.65; }
           33% { transform: translateX(-160px); opacity: 0.9; }
           66% { transform: translateX(80px); opacity: 1.0; }
         }
         @keyframes float-pulse {
           0%, 100% { transform: scale(1); opacity: 0.8; }
           50% { transform: scale(1.3); opacity: 0.4; }
         }
         #glow-1 { animation: float-slow 8s ease-in-out infinite; }
         #glow-2 { animation: float-medium 12s ease-in-out infinite; }
         #glow-3 { animation: float-fast 9s ease-in-out infinite; }
         #glow-4 { animation: float-diagonal 10s ease-in-out infinite; }
         #glow-5 { animation: float-wave 14s ease-in-out infinite; }
       
</style>
</svg><mask id="satori_om-id-0-0"><rect x="1" y="1" width="0" height="140" fill="#fff" mask="url(#satori_om-id)"/></mask><mask id="satori_om-id-0-0-0"><rect x="1" y="1" width="0" height="140" fill="#fff" mask="url(#satori_om-id)"/></mask><mask id="satori_om-id-0-0-0-0"><rect x="1" y="1" width="0" height="140" fill="#fff" mask="url(#satori_om-id)"/></mask><mask id="satori_om-id-0-0-0-1"><rect x="1" y="1" width="0" height="140" fill="#fff" mask="url(#satori_om-id)"/></mask><mask id="satori_om-id-0-0-0-2"><rect x="1" y="1" width="0" height="140" fill="#fff" mask="url(#satori_om-id)"/></mask><mask id="satori_om-id-0-0-1"><rect x="1" y="1" width="0" height="140" fill="#fff" mask="url(#satori_om-id)"/></mask><mask id="satori_om-id-0-0-1-0"><rect x="1" y="1" width="0" height="140" fill="#fff" mask="url(#satori_om-id)"/></mask><mask id="satori_om-id-0-0-1-1"><rect x="1" y="1" width="0" height="140" fill="#fff" mask="url(#satori_om-id)"/></mask><mask id="satori_om-id-0-0-1-2"><rect x="1" y="1" width="0" height="140" fill="#fff" mask="url(#satori_om-id)"/></mask><mask id="satori_om-id-0-0-2"><rect x="1" y="1" width="0" height="140" fill="#fff" mask="url(#satori_om-id)"/></mask><mask id="satori_om-id-0-0-2-0"><rect x="1" y="1" width="0" height="140" fill="#fff" mask="url(#satori_om-id)"/></mask><mask id="satori_om-id-0-0-2-1"><rect x="1" y="1" width="0" height="140" fill="#fff" mask="url(#satori_om-id)"/></mask><mask id="satori_om-id-0-0-3"><rect x="1" y="1" width="0" height="140" fill="#fff" mask="url(#satori_om-id)"/></mask><mask id="satori_om-id-0-0-3-0"><rect x="1" y="1" width="0" height="140" fill="#fff" mask="url(#satori_om-id)"/></mask><mask id="satori_om-id-0-0-3-1"><rect x="1" y="1" width="0" height="140" fill="#fff" mask="url(#satori_om-id)"/></mask><mask id="satori_om-id-0-0-4"><rect x="1" y="1" width="0" height="140" fill="#fff" mask="url(#satori_om-id)"/></mask><mask id="satori_om-id-0-0-4-0"><rect x="1" y="1" width="0" height="140" fill="#fff" mask="url(#satori_om-id)"/></mask><mask id="satori_om-id-0-0-4-1"><rect x="1" y="1" width="0" height="140" fill="#fff" mask="url(#satori_om-id)"/></mask><mask id="satori_om-id-0-1"><rect x="1" y="1" width="0" height="140" fill="#fff" mask="url(#satori_om-id)"/></mask><mask id="satori_om-id-0-2"><rect x="1" y="1" width="0" height="140" fill="#fff" mask="url(#satori_om-id)"/></mask><mask id="satori_om-id-0-3"><rect x="1" y="1" width="0" height="140" fill="#fff" mask="url(#satori_om-id)"/></mask><mask id="satori_om-id-0-4"><rect x="1" y="1" width="0" height="140" fill="#fff" mask="url(#satori_om-id)"/></mask><mask id="satori_om-id-0-5"><rect x="1" y="1" width="0" height="140" fill="#fff" mask="url(#satori_om-id)"/></mask><defs><clipPath id="satori_bc-id-1" clip-path="url(#satori_cp-id)"><rect x="1" y="30" width="278" height="80"/></clipPath></defs><mask id="satori_om-id-1"><rect x="1" y="30" width="277" height="80" fill="#fff" mask="url(#satori_om-id)"/><path width="278" height="80" fill="none" stroke="#000" stroke-width="2" d="M279,30 A0,0 0 0 1 279,30 v80 A0,0 0 0 1 279,110"/></mask><path width="278" height="80" clip-path="url(#satori_bc-id-1)" fill="none" stroke="rgba(255,255,255,0.06)" stroke-width="2" d="M279,30 A0,0 0 0 1 279,30 v80 A0,0 0 0 1 279,110"/><mask id="satori_om-id-1-0"><rect x="124" y="46" width="32" height="30" fill="#fff" mask="url(#satori_om-id)"/></mask><g mask="url(#satori_om-id)" clip-path="url(#satori_cp-id)"><path fill="#a78bfa" d="M130.2 50.2L135.0 50.2L135.0 72L130.5 72L130.5 54.1L130.4 54.1L125.4 57.7L125.4 53.6L130.2 50.2ZM154.2 72L138.8 72L138.8 68.8L146.5 61.5Q147.5 60.6 148.2 59.8Q148.8 59.0 149.2 58.2Q149.6 57.5 149.6 56.6L149.6 56.6Q149.6 55.6 149.1 54.9Q148.7 54.2 147.9 53.8Q147.2 53.5 146.2 53.5L146.2 53.5Q145.2 53.5 144.4 53.9Q143.6 54.3 143.2 55.0Q142.8 55.8 142.8 56.9L142.8 56.9L138.5 56.9Q138.5 54.7 139.5 53.2Q140.5 51.6 142.2 50.7Q144.0 49.9 146.2 49.9L146.2 49.9Q148.5 49.9 150.3 50.7Q152.0 51.5 152.9 53.0Q153.9 54.4 153.9 56.3L153.9 56.3Q153.9 57.5 153.4 58.7Q152.9 59.9 151.7 61.4Q150.5 62.9 148.3 64.9L148.3 64.9L145.0 68.2L145.0 68.3L154.2 68.3L154.2 72Z "/></g><mask id="satori_om-id-1-1"><rect x="117" y="81" width="45" height="13" fill="#fff" mask="url(#satori_om-id)"/></mask><g mask="url(#satori_om-id)" clip-path="url(#satori_cp-id)"><path fill="rgba(200,195,225,0.45)" d="M119.4 92L117.7 92L117.7 84.0L120.8 84.0Q121.8 84.0 122.4 84.3Q123.0 84.6 123.4 85.2Q123.7 85.8 123.7 86.6Q123.7 87.4 123.4 88.0Q123.0 88.5 122.4 88.8L122.4 88.8Q122.3 88.9 122.3 88.9L122.3 88.9L124.0 92L122.2 92L120.6 89.1L119.4 89.1L119.4 92ZM119.4 85.4L119.4 87.8L120.5 87.8Q121.0 87.8 121.4 87.7Q121.7 87.5 121.9 87.3Q122.0 87.0 122.0 86.6L122.0 86.6Q122.0 86.2 121.9 85.9Q121.7 85.6 121.4 85.5Q121.0 85.4 120.5 85.4L120.5 85.4L119.4 85.4ZM131.8 92L126.4 92L126.4 84.0L131.8 84.0L131.8 85.4L128.1 85.4L128.1 87.3L131.5 87.3L131.5 88.6L128.1 88.6L128.1 90.6L131.8 90.6L131.8 92ZM136.3 92L134.6 92L134.6 84.0L137.8 84.0Q138.7 84.0 139.3 84.3Q139.9 84.7 140.3 85.3Q140.6 85.9 140.6 86.7L140.6 86.7Q140.6 87.5 140.3 88.1Q139.9 88.7 139.3 89.0Q138.6 89.4 137.7 89.4L137.7 89.4L136.3 89.4L136.3 92ZM136.3 85.4L136.3 88.1L137.5 88.1Q138.0 88.1 138.3 87.9Q138.6 87.7 138.8 87.4Q138.9 87.1 138.9 86.7Q138.9 86.3 138.8 86.0Q138.6 85.7 138.3 85.5Q138.0 85.4 137.4 85.4L137.4 85.4L136.3 85.4ZM146.8 92.1L146.8 92.1Q145.7 92.1 144.9 91.6Q144.0 91.1 143.5 90.2Q143.0 89.3 143.0 88.0L143.0 88.0Q143.0 86.7 143.5 85.8Q144.0 84.9 144.9 84.4Q145.7 83.9 146.8 83.9L146.8 83.9Q147.8 83.9 148.7 84.4Q149.5 84.9 150.0 85.8Q150.5 86.7 150.5 88.0L150.5 88.0Q150.5 89.3 150.0 90.2Q149.5 91.1 148.7 91.6Q147.8 92.1 146.8 92.1ZM146.8 90.7L146.8 90.7Q147.4 90.7 147.9 90.3Q148.3 90.0 148.6 89.5Q148.8 88.9 148.8 88.0L148.8 88.0Q148.8 87.1 148.6 86.5Q148.3 86.0 147.9 85.6Q147.4 85.3 146.8 85.3L146.8 85.3Q146.2 85.3 145.7 85.7Q145.2 86.0 145.0 86.6Q144.7 87.1 144.7 88.0L144.7 88.0Q144.7 88.9 145.0 89.4Q145.2 90.0 145.7 90.3Q146.2 90.7 146.8 90.7ZM156.2 92.1L156.2 92.1Q155.2 92.1 154.5 91.8Q153.8 91.5 153.4 90.9Q153.0 90.4 153.0 89.5L153.0 89.5L154.6 89.5Q154.6 89.9 154.8 90.2Q155.0 90.5 155.4 90.6Q155.7 90.7 156.2 90.7L156.2 90.7Q156.6 90.7 156.9 90.6Q157.2 90.5 157.4 90.2Q157.6 90.0 157.6 89.7L157.6 89.7Q157.6 89.4 157.4 89.3Q157.3 89.1 157.0 88.9Q156.7 88.8 156.2 88.7L156.2 88.7L155.3 88.5Q154.3 88.2 153.8 87.7Q153.2 87.2 153.2 86.3L153.2 86.3Q153.2 85.6 153.6 85.0Q154.0 84.5 154.6 84.2Q155.3 83.9 156.2 83.9L156.2 83.9Q157.1 83.9 157.7 84.2Q158.4 84.5 158.8 85.0Q159.1 85.6 159.1 86.3L159.1 86.3L157.6 86.3Q157.5 85.8 157.2 85.5Q156.8 85.3 156.2 85.3L156.2 85.3Q155.8 85.3 155.5 85.4Q155.2 85.5 155.0 85.7Q154.9 85.9 154.9 86.2L154.9 86.2Q154.9 86.5 155.0 86.7Q155.2 86.9 155.5 87.0Q155.8 87.1 156.1 87.2L156.1 87.2L156.9 87.4Q157.4 87.5 157.8 87.7Q158.2 87.9 158.6 88.2Q158.9 88.4 159.1 88.8Q159.3 89.2 159.3 89.7L159.3 89.7Q159.3 90.4 158.9 91.0Q158.5 91.5 157.8 91.8Q157.1 92.1 156.2 92.1Z "/></g><defs><clipPath id="satori_bc-id-2" clip-path="url(#satori_cp-id)"><rect x="279" y="30" width="279" height="80"/></clipPath></defs><mask id="satori_om-id-2"><rect x="279" y="30" width="278" height="80" fill="#fff" mask="url(#satori_om-id)"/><path width="279" height="80" fill="none" stroke="#000" stroke-width="2" d="M558,30 A0,0 0 0 1 558,30 v80 A0,0 0 0 1 558,110"/></mask><path width="279" height="80" clip-path="url(#satori_bc-id-2)" fill="none" stroke="rgba(255,255,255,0.06)" stroke-width="2" d="M558,30 A0,0 0 0 1 558,30 v80 A0,0 0 0 1 558,110"/><mask id="satori_om-id-2-0"><rect x="398" y="46" width="40" height="30" fill="#fff" mask="url(#satori_om-id)"/></mask><g mask="url(#satori_om-id)" clip-path="url(#satori_cp-id)"><path fill="#60a5fa" d="M408.0 72.3L408.0 72.3Q406.4 72.3 404.8 71.7Q403.3 71.2 402.0 69.9Q400.8 68.7 400.1 66.7Q399.4 64.6 399.4 61.6L399.4 61.6Q399.4 58.8 400.0 56.7Q400.6 54.5 401.8 53.0Q402.9 51.5 404.5 50.7Q406.2 49.9 408.2 49.9L408.2 49.9Q410.3 49.9 412.0 50.7Q413.6 51.6 414.7 53.0Q415.7 54.4 415.9 56.2L415.9 56.2L411.5 56.2Q411.2 55.1 410.3 54.4Q409.5 53.7 408.2 53.7L408.2 53.7Q406.7 53.7 405.8 54.6Q404.8 55.4 404.3 57.0Q403.8 58.6 403.8 60.7L403.8 60.7L403.9 60.7Q404.4 59.8 405.2 59.1Q406.1 58.4 407.1 58.0Q408.2 57.7 409.4 57.7L409.4 57.7Q411.3 57.7 412.8 58.6Q414.4 59.5 415.2 61.1Q416.1 62.7 416.1 64.7L416.1 64.7Q416.1 66.9 415.1 68.6Q414.1 70.3 412.3 71.3Q410.4 72.3 408.0 72.3ZM408.0 68.7L408.0 68.7Q409.1 68.7 409.9 68.2Q410.8 67.7 411.3 66.8Q411.8 65.9 411.8 64.8L411.8 64.8Q411.8 63.7 411.3 62.8Q410.8 62.0 410.0 61.4Q409.1 60.9 408.0 60.9L408.0 60.9Q407.2 60.9 406.5 61.2Q405.8 61.5 405.3 62.1Q404.8 62.6 404.5 63.3Q404.2 64.0 404.2 64.8L404.2 64.8Q404.2 65.9 404.7 66.8Q405.2 67.7 406.0 68.2Q406.9 68.7 408.0 68.7ZM427.6 72.3L427.6 72.3Q424.8 72.3 422.9 71.0Q420.9 69.6 419.9 67.1Q418.9 64.6 418.9 61.1L418.9 61.1Q418.9 57.6 419.9 55.1Q420.9 52.5 422.9 51.2Q424.8 49.9 427.6 49.9L427.6 49.9Q430.3 49.9 432.3 51.2Q434.3 52.6 435.3 55.1Q436.3 57.6 436.3 61.1L436.3 61.1Q436.3 64.6 435.3 67.1Q434.3 69.6 432.3 71.0Q430.4 72.3 427.6 72.3ZM427.6 68.6L427.6 68.6Q428.9 68.6 429.9 67.7Q430.8 66.8 431.3 65.2Q431.8 63.5 431.8 61.1L431.8 61.1Q431.8 58.7 431.3 57.0Q430.8 55.3 429.9 54.5Q428.9 53.6 427.6 53.6L427.6 53.6Q426.3 53.6 425.3 54.5Q424.4 55.3 423.9 57.0Q423.4 58.7 423.4 61.1L423.4 61.1Q423.4 63.5 423.9 65.2Q424.4 66.8 425.3 67.7Q426.3 68.6 427.6 68.6Z "/></g><mask id="satori_om-id-2-1"><rect x="395" y="81" width="45" height="13" fill="#fff" mask="url(#satori_om-id)"/></mask><g mask="url(#satori_om-id)" clip-path="url(#satori_cp-id)"><path fill="rgba(200,195,225,0.45)" d="M398.7 92.1L398.7 92.1Q397.7 92.1 397.0 91.8Q396.3 91.5 395.9 90.9Q395.5 90.4 395.5 89.5L395.5 89.5L397.1 89.5Q397.1 89.9 397.3 90.2Q397.5 90.5 397.9 90.6Q398.2 90.7 398.6 90.7L398.6 90.7Q399.1 90.7 399.4 90.6Q399.7 90.5 399.9 90.2Q400.1 90.0 400.1 89.7L400.1 89.7Q400.1 89.4 399.9 89.3Q399.8 89.1 399.5 88.9Q399.2 88.8 398.7 88.7L398.7 88.7L397.8 88.5Q396.8 88.2 396.2 87.7Q395.7 87.2 395.7 86.3L395.7 86.3Q395.7 85.6 396.1 85.0Q396.5 84.5 397.1 84.2Q397.8 83.9 398.7 83.9L398.7 83.9Q399.6 83.9 400.2 84.2Q400.9 84.5 401.3 85.0Q401.6 85.6 401.6 86.3L401.6 86.3L400.1 86.3Q400.0 85.8 399.6 85.5Q399.3 85.3 398.7 85.3L398.7 85.3Q398.2 85.3 398.0 85.4Q397.7 85.5 397.5 85.7Q397.4 85.9 397.4 86.2L397.4 86.2Q397.4 86.5 397.5 86.7Q397.7 86.9 398.0 87.0Q398.3 87.1 398.6 87.2L398.6 87.2L399.4 87.4Q399.9 87.5 400.3 87.7Q400.7 87.9 401.1 88.2Q401.4 88.4 401.6 88.8Q401.7 89.2 401.7 89.7L401.7 89.7Q401.7 90.4 401.4 91.0Q401.0 91.5 400.3 91.8Q399.6 92.1 398.7 92.1ZM406.6 85.4L404.1 85.4L404.1 84.0L410.6 84.0L410.6 85.4L408.2 85.4L408.2 92L406.6 92L406.6 85.4ZM414.6 92L412.8 92L415.5 84.0L417.7 84.0L420.5 92L418.7 92L418.1 90.1L415.2 90.1L414.6 92ZM415.6 88.9L417.6 88.9L417.4 88.1Q417.2 87.4 416.9 86.5L416.9 86.5Q416.8 85.9 416.6 85.3L416.6 85.3Q416.4 85.9 416.3 86.5L416.3 86.5Q416.1 87.4 415.9 88.1L415.9 88.1L415.6 88.9ZM424.6 92L423.0 92L423.0 84.0L426.1 84.0Q427.0 84.0 427.7 84.3Q428.3 84.6 428.6 85.2Q429.0 85.8 429.0 86.6Q429.0 87.4 428.6 88.0Q428.3 88.5 427.6 88.8L427.6 88.8Q427.6 88.9 427.5 88.9L427.5 88.9L429.3 92L427.4 92L425.9 89.1L424.6 89.1L424.6 92ZM424.6 85.4L424.6 87.8L425.8 87.8Q426.3 87.8 426.6 87.7Q427.0 87.5 427.1 87.3Q427.3 87.0 427.3 86.6L427.3 86.6Q427.3 86.2 427.1 85.9Q427.0 85.6 426.6 85.5Q426.3 85.4 425.8 85.4L425.8 85.4L424.6 85.4ZM434.6 92.1L434.6 92.1Q433.7 92.1 433.0 91.8Q432.3 91.5 431.9 90.9Q431.5 90.4 431.4 89.5L431.4 89.5L433.0 89.5Q433.1 89.9 433.3 90.2Q433.5 90.5 433.8 90.6Q434.2 90.7 434.6 90.7L434.6 90.7Q435.1 90.7 435.4 90.6Q435.7 90.5 435.9 90.2Q436.1 90.0 436.1 89.7L436.1 89.7Q436.1 89.4 435.9 89.3Q435.8 89.1 435.4 88.9Q435.1 88.8 434.7 88.7L434.7 88.7L433.8 88.5Q432.8 88.2 432.2 87.7Q431.7 87.2 431.7 86.3L431.7 86.3Q431.7 85.6 432.0 85.0Q432.4 84.5 433.1 84.2Q433.8 83.9 434.7 83.9L434.7 83.9Q435.5 83.9 436.2 84.2Q436.9 84.5 437.2 85.0Q437.6 85.6 437.6 86.3L437.6 86.3L436.0 86.3Q436.0 85.8 435.6 85.5Q435.3 85.3 434.6 85.3L434.6 85.3Q434.2 85.3 433.9 85.4Q433.6 85.5 433.5 85.7Q433.3 85.9 433.3 86.2L433.3 86.2Q433.3 86.5 433.5 86.7Q433.7 86.9 434.0 87.0Q434.3 87.1 434.6 87.2L434.6 87.2L435.3 87.4Q435.8 87.5 436.3 87.7Q436.7 87.9 437.0 88.2Q437.4 88.4 437.5 88.8Q437.7 89.2 437.7 89.7L437.7 89.7Q437.7 90.4 437.4 91.0Q437.0 91.5 436.3 91.8Q435.6 92.1 434.6 92.1Z "/></g><mask id="satori_om-id-3"><rect x="558" y="30" width="301" height="80" fill="#fff" mask="url(#satori_om-id)"/></mask><mask id="satori_om-id-3-0"><rect x="674" y="46" width="69" height="30" fill="#fff" mask="url(#satori_om-id)"/></mask><g mask="url(#satori_om-id)" clip-path="url(#satori_cp-id)"><path fill="#f59e0b" d="M691.3 72L675.8 72L675.8 68.8L683.6 61.5Q684.5 60.6 685.2 59.8Q685.9 59.0 686.3 58.2Q686.6 57.5 686.6 56.6L686.6 56.6Q686.6 55.6 686.2 54.9Q685.7 54.2 685.0 53.8Q684.2 53.5 683.2 53.5L683.2 53.5Q682.2 53.5 681.5 53.9Q680.7 54.3 680.3 55.0Q679.9 55.8 679.9 56.9L679.9 56.9L675.6 56.9Q675.6 54.7 676.6 53.2Q677.6 51.6 679.3 50.7Q681.0 49.9 683.3 49.9L683.3 49.9Q685.6 49.9 687.3 50.7Q689.0 51.5 690.0 53.0Q691.0 54.4 691.0 56.3L691.0 56.3Q691.0 57.5 690.5 58.7Q690.0 59.9 688.8 61.4Q687.6 62.9 685.3 64.9L685.3 64.9L682.0 68.2L682.0 68.3L691.3 68.3L691.3 72ZM702.5 72.3L702.5 72.3Q700.2 72.3 698.3 71.5Q696.5 70.7 695.4 69.2Q694.4 67.8 694.3 65.9L694.3 65.9L698.8 65.9Q698.9 66.7 699.4 67.3Q699.9 67.9 700.7 68.3Q701.5 68.6 702.6 68.6L702.6 68.6Q703.6 68.6 704.5 68.2Q705.3 67.8 705.8 67.2Q706.2 66.5 706.2 65.6L706.2 65.6Q706.2 64.7 705.7 64.0Q705.2 63.3 704.3 62.9Q703.4 62.5 702.2 62.5L702.2 62.5L700.1 62.5L700.1 59.2L702.2 59.2Q703.2 59.2 704.0 58.8Q704.8 58.5 705.3 57.8Q705.8 57.2 705.8 56.3L705.8 56.3Q705.8 55.4 705.4 54.8Q705.0 54.2 704.3 53.8Q703.5 53.5 702.6 53.5L702.6 53.5Q701.6 53.5 700.9 53.8Q700.1 54.1 699.6 54.8Q699.1 55.4 699.1 56.2L699.1 56.2L694.8 56.2Q694.8 54.4 695.8 52.9Q696.9 51.5 698.6 50.7Q700.4 49.9 702.6 49.9L702.6 49.9Q704.9 49.9 706.5 50.7Q708.2 51.5 709.2 52.9Q710.1 54.3 710.1 56.0L710.1 56.0Q710.1 57.8 709.0 59.1Q707.8 60.3 706.0 60.6L706.0 60.6L706.0 60.8Q707.6 61.0 708.7 61.7Q709.8 62.4 710.3 63.5Q710.9 64.5 710.9 65.9L710.9 65.9Q710.9 67.7 709.8 69.2Q708.7 70.6 706.9 71.5Q705.0 72.3 702.5 72.3ZM718.4 50.2L723.2 50.2L723.2 72L718.8 72L718.8 54.1L718.6 54.1L713.6 57.7L713.6 53.6L718.4 50.2ZM732.4 72L727.8 72L736.9 54.0L736.9 53.9L726.3 53.9L726.3 50.2L741.5 50.2L741.5 53.9L732.4 72Z "/></g><mask id="satori_om-id-3-1"><rect x="676" y="81" width="66" height="13" fill="#fff" mask="url(#satori_om-id)"/></mask><g mask="url(#satori_om-id)" clip-path="url(#satori_cp-id)"><path fill="rgba(200,195,225,0.45)" d="M680.2 92.1L680.2 92.1Q679.2 92.1 678.3 91.6Q677.5 91.1 677.0 90.2Q676.5 89.3 676.5 88.0L676.5 88.0Q676.5 86.7 677.0 85.8Q677.5 84.9 678.3 84.4Q679.2 83.9 680.2 83.9L680.2 83.9Q680.9 83.9 681.5 84.1Q682.1 84.3 682.5 84.6Q683.0 85.0 683.3 85.5Q683.6 86.1 683.7 86.7L683.7 86.7L682.0 86.7Q682.0 86.4 681.8 86.1Q681.6 85.9 681.4 85.7Q681.2 85.5 680.9 85.4Q680.6 85.3 680.3 85.3L680.3 85.3Q679.6 85.3 679.2 85.7Q678.7 86.0 678.4 86.6Q678.2 87.2 678.2 88.0L678.2 88.0Q678.2 88.9 678.4 89.5Q678.7 90.1 679.2 90.4Q679.6 90.7 680.2 90.7L680.2 90.7Q680.6 90.7 680.9 90.6Q681.2 90.5 681.4 90.3Q681.6 90.1 681.8 89.8Q682.0 89.6 682.0 89.3L682.0 89.3L683.7 89.3Q683.6 89.8 683.3 90.3Q683.1 90.8 682.6 91.2Q682.2 91.6 681.6 91.9Q681.0 92.1 680.2 92.1ZM689.9 92.1L689.9 92.1Q688.8 92.1 688.0 91.6Q687.1 91.1 686.6 90.2Q686.1 89.3 686.1 88.0L686.1 88.0Q686.1 86.7 686.6 85.8Q687.1 84.9 688.0 84.4Q688.8 83.9 689.9 83.9L689.9 83.9Q690.9 83.9 691.8 84.4Q692.6 84.9 693.1 85.8Q693.6 86.7 693.6 88.0L693.6 88.0Q693.6 89.3 693.1 90.2Q692.6 91.1 691.8 91.6Q690.9 92.1 689.9 92.1ZM689.9 90.7L689.9 90.7Q690.5 90.7 691.0 90.3Q691.4 90.0 691.7 89.5Q691.9 88.9 691.9 88.0L691.9 88.0Q691.9 87.1 691.7 86.5Q691.4 86.0 691.0 85.6Q690.5 85.3 689.9 85.3L689.9 85.3Q689.3 85.3 688.8 85.7Q688.3 86.0 688.1 86.6Q687.8 87.1 687.8 88.0L687.8 88.0Q687.8 88.9 688.1 89.4Q688.3 90.0 688.8 90.3Q689.3 90.7 689.9 90.7ZM698.0 92L696.3 92L696.3 84.0L698.9 84.0L700.2 87.7Q700.2 87.9 700.3 88.3Q700.4 88.7 700.5 89.2L700.5 89.2Q700.7 89.7 700.7 90.1L700.7 90.1Q700.8 89.7 700.9 89.2L700.9 89.2Q701.0 88.8 701.2 88.3Q701.3 87.9 701.3 87.7L701.3 87.7L702.6 84.0L705.1 84.0L705.1 92L703.5 92L703.5 88.2Q703.5 88.0 703.5 87.6Q703.5 87.2 703.5 86.7Q703.5 86.3 703.5 85.8L703.5 85.8Q703.6 85.6 703.6 85.4L703.6 85.4Q703.5 85.6 703.4 85.9L703.4 85.9Q703.3 86.3 703.2 86.8Q703.1 87.2 702.9 87.6Q702.8 88.0 702.8 88.2L702.8 88.2L701.4 92L700.0 92L698.7 88.2Q698.6 88.0 698.5 87.6Q698.4 87.2 698.3 86.8Q698.1 86.4 698.0 85.9L698.0 85.9Q698.0 85.7 697.9 85.5L697.9 85.5Q697.9 85.6 697.9 85.8L697.9 85.8Q697.9 86.2 697.9 86.7Q697.9 87.2 698.0 87.6Q698.0 88.0 698.0 88.2L698.0 88.2L698.0 92ZM709.7 92L708.1 92L708.1 84.0L710.6 84.0L711.9 87.7Q712.0 87.9 712.1 88.3Q712.2 88.7 712.3 89.2L712.3 89.2Q712.4 89.7 712.5 90.1L712.5 90.1Q712.6 89.7 712.7 89.2L712.7 89.2Q712.8 88.8 712.9 88.3Q713.0 87.9 713.1 87.7L713.1 87.7L714.4 84.0L716.9 84.0L716.9 92L715.2 92L715.2 88.2Q715.2 88.0 715.2 87.6Q715.3 87.2 715.3 86.7Q715.3 86.3 715.3 85.8L715.3 85.8Q715.3 85.6 715.3 85.4L715.3 85.4Q715.2 85.6 715.2 85.9L715.2 85.9Q715.1 86.3 714.9 86.8Q714.8 87.2 714.7 87.6Q714.6 88.0 714.5 88.2L714.5 88.2L713.2 92L711.8 92L710.4 88.2Q710.4 88.0 710.3 87.6Q710.1 87.2 710.0 86.8Q709.9 86.4 709.8 85.9L709.8 85.9Q709.7 85.7 709.7 85.5L709.7 85.5Q709.7 85.6 709.7 85.8L709.7 85.8Q709.7 86.2 709.7 86.7Q709.7 87.2 709.7 87.6Q709.7 88.0 709.7 88.2L709.7 88.2L709.7 92ZM719.8 84.0L721.5 84.0L721.5 92L719.8 92L719.8 84.0ZM726.5 85.4L724.1 85.4L724.1 84.0L730.6 84.0L730.6 85.4L728.2 85.4L728.2 92L726.5 92L726.5 85.4ZM736.2 92.1L736.2 92.1Q735.2 92.1 734.5 91.8Q733.8 91.5 733.4 90.9Q733.0 90.4 733.0 89.5L733.0 89.5L734.6 89.5Q734.6 89.9 734.8 90.2Q735.0 90.5 735.4 90.6Q735.7 90.7 736.2 90.7L736.2 90.7Q736.6 90.7 736.9 90.6Q737.3 90.5 737.5 90.2Q737.6 90.0 737.6 89.7L737.6 89.7Q737.6 89.4 737.5 89.3Q737.3 89.1 737.0 88.9Q736.7 88.8 736.3 88.7L736.3 88.7L735.4 88.5Q734.4 88.2 733.8 87.7Q733.2 87.2 733.2 86.3L733.2 86.3Q733.2 85.6 733.6 85.0Q734.0 84.5 734.7 84.2Q735.3 83.9 736.2 83.9L736.2 83.9Q737.1 83.9 737.8 84.2Q738.4 84.5 738.8 85.0Q739.2 85.6 739.2 86.3L739.2 86.3L737.6 86.3Q737.6 85.8 737.2 85.5Q736.8 85.3 736.2 85.3L736.2 85.3Q735.8 85.3 735.5 85.4Q735.2 85.5 735.0 85.7Q734.9 85.9 734.9 86.2L734.9 86.2Q734.9 86.5 735.1 86.7Q735.2 86.9 735.5 87.0Q735.8 87.1 736.2 87.2L736.2 87.2L736.9 87.4Q737.4 87.5 737.8 87.7Q738.3 87.9 738.6 88.2Q738.9 88.4 739.1 88.8Q739.3 89.2 739.3 89.7L739.3 89.7Q739.3 90.4 738.9 91.0Q738.6 91.5 737.9 91.8Q737.2 92.1 736.2 92.1Z "/></g></svg>