<!-- Generated by readme-aura https://github.com/collectioneur/readme-aura -->
<svg width="860" height="140" viewBox="0 0 860 140" xmlns="http://www.w3.org/2000/svg"><defs><clipPath id="satori_bc-id"><path x="0" y="0" width="860" height="140" d="M16,0 h828 a16,16 0 0 1 16,16 v108 a16,16 0 0 1 -16,16 h-828 a16,16 0 0 1 -16,-16 v-108 a16,16 0 0 1 16,-16"/></clipPath></defs><clipPath id="satori_cp-id"><path x="0" y="0" width="860" height="140" d="M16,0 h828 a16,16 0 0 1 16,16 v108 a16,16 0 0 1 -16,16 h-828 a16,16 0 0 1 -16,-16 v-108 a16,16 0 0 1 16,-16"/></clipPath><mask id="satori_om-id"><rect x="1" y="1" width="858" height="138" fill="#fff"/><path width="860" height="140" fill="none" stroke="#000" stroke-width="2" d="M4.686,4.686 A16,16 0 0 1 16,0 h828 a16,16 0 0 1 16,16 v108 a16,16 0 0 1 -16,16 h-828 a16,16 0 0 1 -16,-16 v-108 A16,16 0 0 1 4.686,4.686"/></mask><path x="0" y="0" width="860" height="140" fill="#08080c" d="M16,0 h828 a16,16 0 0 1 16,16 v108 a16,16 0 0 1 -16,16 h-828 a16,16 0 0 1 -16,-16 v-108 a16,16 0 0 1 16,-16"/><path width="860" height="140" clip-path="url(#satori_bc-id)" fill="none" stroke="rgba(110,80,220,0.18)" stroke-width="2" d="M4.686,4.686 A16,16 0 0 1 16,0 h828 a16,16 0 0 1 16,16 v108 a16,16 0 0 1 -16,16 h-828 a16,16 0 0 1 -16,-16 v-108 A16,16 0 0 1 4.686,4.686"/><clipPath id="satori_cp-id-0" clip-path="url(#satori_cp-id)"><rect x="1" y="1" width="860" height="140"/></clipPath><mask id="satori_om-id-0"><rect x="1" y="1" width="860" height="140" fill="#fff" mask="url(#satori_om-id)"/></mask><svg x="1" y="1" width="860" height="140" preserveAspectRatio="none" clip-path="url(#satori_cp-id-0)" mask="url(#satori_om-id-0)"><defs><radialGradient id="g1" cx="50%" cy="50%" r="50%"><stop offset="0%" stop-color="rgba(110,20,210,0.65)"></stop><stop offset="45%" stop-color="rgba(80,15,170,0.28)"></stop><stop offset="70%" stop-color="rgba(80,15,170,0)"></stop></radialGradient><radialGradient id="g2" cx="50%" cy="50%" r="50%"><stop offset="0%" stop-color="rgba(40,70,255,0.55)"></stop><stop offset="45%" stop-color="rgba(20,50,200,0.22)"></stop><stop offset="70%" stop-color="rgba(20,50,200,0)"></stop></radialGradient><radialGradient id="g3" cx="50%" cy="50%" r="50%"><stop offset="0%" stop-color="rgba(0,140,255,0.42)"></stop><stop offset="70%" stop-color="rgba(0,140,255,0)"></stop></radialGradient><radialGradient id="g4" cx="50%" cy="50%" r="50%"><stop offset="0%" stop-color="rgba(0,195,235,0.30)"></stop><stop offset="70%" stop-color="rgba(0,195,235,0)"></stop></radialGradient><radialGradient id="g5" cx="50%" cy="50%" r="50%"><stop offset="0%" stop-color="rgba(100,30,210,0.40)"></stop><stop offset="70%" stop-color="rgba(100,30,210,0)"></stop></radialGradient></defs><ellipse id="glow-1" cx="710" cy="150" rx="210" ry="150" fill="url(#g1)"></ellipse><ellipse id="glow-2" cx="550" cy="140" rx="190" ry="140" fill="url(#g2)"></ellipse><ellipse id="glow-3" cx="400" cy="130" rx="170" ry="130" fill="url(#g3)"></ellipse><ellipse id="glow-4" cx="250" cy="140" rx="150" ry="120" fill="url(#g4)"></ellipse><ellipse id="glow-5" cx="100" cy="150" rx="130" ry="110" fill="url(#g5)"></ellipse><style>

         @keyframes float-slow {
           0%, 100% { transform: translateX(0px); opacity: 0.8; }
           50% { transform: translateX(350px); opacity: 1.2; }
         }
         @keyframes float-medium {
           0%, 100% { transform: translateX(0px); opacity: 0.7; }
           50% { transform: translateX(-250px); opacity: 1.1; }
         }
         @keyframes float-fast {
           0%, 100% { transform: translateX(0px); opacity: 0.9; }
           50% { transform: translateX(200px); opacity: 0.6; }
         }
         @keyframes float-diagonal {
           0%, 100% { transform: translate(0px, 0px); opacity: 0.75; }
           50% { transform: translate(120px, 30px); opacity: 1.0; }
         }
         @keyframes float-wave {
           0%, 100% { transform: translateX(0px); opacity: 0.65; }
           33% { transform: translateX(-160px); opacity: 0.9; }
           66% { transform: translateX(80px); opacity: 1.0; }
         }
         @keyframes float-pulse {
           0%, 100% { transform: scale(1); opacity: 0.8; }
           50% { transform: scale(1.3); opacity: 0.4; }
         }
         #glow-1 { animation: float-slow 8s ease-in-out infinite; }
         #glow-2 { animation: float-medium 12s ease-in-out infinite; }
         #glow-3 { animation: float-fast 9s ease-in-out infinite; }
         #glow-4 { animation: float-diagonal 10s ease-in-out infinite; }
         #glow-5 { animation: float-wave 14s ease-in-out infinite; }
       
</style>
</svg><mask id="satori_om-id-0-0"><rect x="1" y="1" width="0" height="140" fill="#fff" mask="url(#satori_om-id)"/></mask><mask id="satori_om-id-0-0-0"><rect x="1" y="1" width="0" height="140" fill="#fff" mask="url(#satori_om-id)"/></mask><mask id="satori_om-id-0-0-0-0"><rect x="1" y="1" width="0" height="140" fill="#fff" mask="url(#satori_om-id)"/></mask><mask id="satori_om-id-0-0-0-1"><rect x="1" y="1" width="0" height="140" fill="#fff" mask="url(#satori_om-id)"/></mask><mask id="satori_om-id-0-0-0-2"><rect x="1" y="1" width="0" height="140" fill="#fff" mask="url(#satori_om-id)"/></mask><mask id="satori_om-id-0-0-1"><rect x="1" y="1" width="0" height="140" fill="#fff" mask="url(#satori_om-id)"/></mask><mask id="satori_om-id-0-0-1-0"><rect x="1" y="1" width="0" height="140" fill="#fff" mask="url(#satori_om-id)"/></mask><mask id="satori_om-id-0-0-1-1"><rect x="1" y="1" width="0" height="140" fill="#fff" mask="url(#satori_om-id)"/></mask><mask id="satori_om-id-0-0-1-2"><rect x="1" y="1" width="0" height="140" fill="#fff" mask="url(#satori_om-id)"/></mask><mask id="satori_om-id-0-0-2"><rect x="1" y="1" width="0" height="140" fill="#fff" mask="url(#satori_om-id)"/></mask><mask id="satori_om-id-0-0-2-0"><rect x="1" y="1" width="0" height="140" fill="#fff" mask="url(#satori_om-id)"/></mask><mask id="satori_om-id-0-0-2-1"><rect x="1" y="1" width="0" height="140" fill="#fff" mask="url(#satori_om-id)"/></mask><mask id="satori_om-id-0-0-3"><rect x="1" y="1" width="0" height="140" fill="#fff" mask="url(#satori_om-id)"/></mask><mask id="satori_om-id-0-0-3-0"><rect x="1" y="1" width="0" height="140" fill="#fff" mask="url(#satori_om-id)"/></mask><mask id="satori_om-id-0-0-3-1"><rect x="1" y="1" width="0" height="140" fill="#fff" mask="url(#satori_om-id)"/></mask><mask id="satori_om-id-0-0-4"><rect x="1" y="1" width="0" height="140" fill="#fff" mask="url(#satori_om-id)"/></mask><mask id="satori_om-id-0-0-4-0"><rect x="1" y="1" width="0" height="140" fill="#fff" mask="url(#satori_om-id)"/></mask><mask id="satori_om-id-0-0-4-1"><rect x="1" y="1" width="0" height="140" fill="#fff" mask="url(#satori_om-id)"/></mask><mask id="satori_om-id-0-1"><rect x="1" y="1" width="0" height="140" fill="#fff" mask="url(#satori_om-id)"/></mask><mask id="satori_om-id-0-2"><rect x="1" y="1" width="0" height="140" fill="#fff" mask="url(#satori_om-id)"/></mask><mask id="satori_om-id-0-3"><rect x="1" y="1" width="0" height="140" fill="#fff" mask="url(#satori_om-id)"/></mask><mask id="satori_om-id-0-4"><rect x="1" y="1" width="0" height="140" fill="#fff" mask="url(#satori_om-id)"/></mask><mask id="satori_om-id-0-5"><rect x="1" y="1" width="0" height="140" fill="#fff" mask="url(#satori_om-id)"/></mask><defs><clipPath id="satori_bc-id-1" clip-path="url(#satori_cp-id)"><rect x="1" y="30" width="273" height="80"/></clipPath></defs><mask id="satori_om-id-1"><rect x="1" y="30" width="272" height="80" fill="#fff" mask="url(#satori_om-id)"/><path width="273" height="80" fill="none" stroke="#000" stroke-width="2" d="M274,30 A0,0 0 0 1 274,30 v80 A0,0 0 0 1 274,110"/></mask><path width="273" height="80" clip-path="url(#satori_bc-id-1)" fill="none" stroke="rgba(255,255,255,0.06)" stroke-width="2" d="M274,30 A0,0 0 0 1 274,30 v80 A0,0 0 0 1 274,110"/><mask id="satori_om-id-1-0"><rect x="124" y="46" width="26" height="30" fill="#fff" mask="url(#satori_om-id)"/></mask><g mask="url(#satori_om-id)" clip-path="url(#satori_cp-id)"><path fill="#a78bfa" d="M130.2 50.2L135.0 50.2L135.0 72L130.5 72L130.5 54.1L130.4 54.1L125.4 57.7L125.4 53.6L130.2 50.2ZM143.1 50.2L147.9 50.2L147.9 72L143.4 72L143.4 54.1L143.3 54.1L138.3 57.7L138.3 53.6L143.1 50.2Z "/></g><mask id="satori_om-id-1-1"><rect x="115" y="81" width="45" height="13" fill="#fff" mask="url(#satori_om-id)"/></mask><g mask="url(#satori_om-id)" clip-path="url(#satori_cp-id)"><path fill="rgba(200,195,225,0.45)" d="M117.4 92L115.7 92L115.7 84.0L118.8 84.0Q119.8 84.0 120.4 84.3Q121.0 84.6 121.4 85.2Q121.7 85.8 121.7 86.6Q121.7 87.4 121.4 88.0Q121.0 88.5 120.4 88.8L120.4 88.8Q120.3 88.9 120.3 88.9L120.3 88.9L122.0 92L120.2 92L118.6 89.1L117.4 89.1L117.4 92ZM117.4 85.4L117.4 87.8L118.5 87.8Q119.0 87.8 119.4 87.7Q119.7 87.5 119.9 87.3Q120.0 87.0 120.0 86.6L120.0 86.6Q120.0 86.2 119.9 85.9Q119.7 85.6 119.4 85.5Q119.0 85.4 118.5 85.4L118.5 85.4L117.4 85.4ZM129.8 92L124.4 92L124.4 84.0L129.8 84.0L129.8 85.4L126.1 85.4L126.1 87.3L129.5 87.3L129.5 88.6L126.1 88.6L126.1 90.6L129.8 90.6L129.8 92ZM134.3 92L132.6 92L132.6 84.0L135.8 84.0Q136.7 84.0 137.3 84.3Q137.9 84.7 138.3 85.3Q138.6 85.9 138.6 86.7L138.6 86.7Q138.6 87.5 138.3 88.1Q137.9 88.7 137.3 89.0Q136.6 89.4 135.7 89.4L135.7 89.4L134.3 89.4L134.3 92ZM134.3 85.4L134.3 88.1L135.5 88.1Q136.0 88.1 136.3 87.9Q136.6 87.7 136.8 87.4Q136.9 87.1 136.9 86.7Q136.9 86.3 136.8 86.0Q136.6 85.7 136.3 85.5Q136.0 85.4 135.4 85.4L135.4 85.4L134.3 85.4ZM144.8 92.1L144.8 92.1Q143.7 92.1 142.9 91.6Q142.0 91.1 141.5 90.2Q141.0 89.3 141.0 88.0L141.0 88.0Q141.0 86.7 141.5 85.8Q142.0 84.9 142.9 84.4Q143.7 83.9 144.8 83.9L144.8 83.9Q145.8 83.9 146.7 84.4Q147.5 84.9 148.0 85.8Q148.5 86.7 148.5 88.0L148.5 88.0Q148.5 89.3 148.0 90.2Q147.5 91.1 146.7 91.6Q145.8 92.1 144.8 92.1ZM144.8 90.7L144.8 90.7Q145.4 90.7 145.9 90.3Q146.3 90.0 146.6 89.5Q146.8 88.9 146.8 88.0L146.8 88.0Q146.8 87.1 146.6 86.5Q146.3 86.0 145.9 85.6Q145.4 85.3 144.8 85.3L144.8 85.3Q144.2 85.3 143.7 85.7Q143.2 86.0 143.0 86.6Q142.7 87.1 142.7 88.0L142.7 88.0Q142.7 88.9 143.0 89.4Q143.2 90.0 143.7 90.3Q144.2 90.7 144.8 90.7ZM154.2 92.1L154.2 92.1Q153.2 92.1 152.5 91.8Q151.8 91.5 151.4 90.9Q151.0 90.4 151.0 89.5L151.0 89.5L152.6 89.5Q152.6 89.9 152.8 90.2Q153.0 90.5 153.4 90.6Q153.7 90.7 154.2 90.7L154.2 90.7Q154.6 90.7 154.9 90.6Q155.2 90.5 155.4 90.2Q155.6 90.0 155.6 89.7L155.6 89.7Q155.6 89.4 155.4 89.3Q155.3 89.1 155.0 88.9Q154.7 88.8 154.2 88.7L154.2 88.7L153.3 88.5Q152.3 88.2 151.8 87.7Q151.2 87.2 151.2 86.3L151.2 86.3Q151.2 85.6 151.6 85.0Q152.0 84.5 152.6 84.2Q153.3 83.9 154.2 83.9L154.2 83.9Q155.1 83.9 155.7 84.2Q156.4 84.5 156.8 85.0Q157.1 85.6 157.1 86.3L157.1 86.3L155.6 86.3Q155.5 85.8 155.2 85.5Q154.8 85.3 154.2 85.3L154.2 85.3Q153.8 85.3 153.5 85.4Q153.2 85.5 153.0 85.7Q152.9 85.9 152.9 86.2L152.9 86.2Q152.9 86.5 153.0 86.7Q153.2 86.9 153.5 87.0Q153.8 87.1 154.1 87.2L154.1 87.2L154.9 87.4Q155.4 87.5 155.8 87.7Q156.2 87.9 156.6 88.2Q156.9 88.4 157.1 88.8Q157.3 89.2 157.3 89.7L157.3 89.7Q157.3 90.4 156.9 91.0Q156.5 91.5 155.8 91.8Q155.1 92.1 154.2 92.1Z "/></g><defs><clipPath id="satori_bc-id-2" clip-path="url(#satori_cp-id)"><rect x="274" y="30" width="279" height="80"/></clipPath></defs><mask id="satori_om-id-2"><rect x="274" y="30" width="278" height="80" fill="#fff" mask="url(#satori_om-id)"/><path width="279" height="80" fill="none" stroke="#000" stroke-width="2" d="M553,30 A0,0 0 0 1 553,30 v80 A0,0 0 0 1 553,110"/></mask><path width="279" height="80" clip-path="url(#satori_bc-id-2)" fill="none" stroke="rgba(255,255,255,0.06)" stroke-width="2" d="M553,30 A0,0 0 0 1 553,30 v80 A0,0 0 0 1 553,110"/><mask id="satori_om-id-2-0"><rect x="388" y="46" width="51" height="30" fill="#fff" mask="url(#satori_om-id)"/></mask><g mask="url(#satori_om-id)" clip-path="url(#satori_cp-id)"><path fill="#60a5fa" d="M394.2 50.2L399.0 50.2L399.0 72L394.5 72L394.5 54.1L394.4 54.1L389.4 57.7L389.4 53.6L394.2 50.2ZM418.2 72L402.8 72L402.8 68.8L410.5 61.5Q411.5 60.6 412.2 59.8Q412.8 59.0 413.2 58.2Q413.6 57.5 413.6 56.6L413.6 56.6Q413.6 55.6 413.1 54.9Q412.7 54.2 411.9 53.8Q411.2 53.5 410.2 53.5L410.2 53.5Q409.2 53.5 408.4 53.9Q407.6 54.3 407.2 55.0Q406.8 55.8 406.8 56.9L406.8 56.9L402.5 56.9Q402.5 54.7 403.5 53.2Q404.5 51.6 406.2 50.7Q408.0 49.9 410.2 49.9L410.2 49.9Q412.5 49.9 414.3 50.7Q416.0 51.5 416.9 53.0Q417.9 54.4 417.9 56.3L417.9 56.3Q417.9 57.5 417.4 58.7Q416.9 59.9 415.7 61.4Q414.5 62.9 412.3 64.9L412.3 64.9L409.0 68.2L409.0 68.3L418.2 68.3L418.2 72ZM437.1 72L421.6 72L421.6 68.8L429.4 61.5Q430.4 60.6 431.1 59.8Q431.7 59.0 432.1 58.2Q432.5 57.5 432.5 56.6L432.5 56.6Q432.5 55.6 432.0 54.9Q431.6 54.2 430.8 53.8Q430.1 53.5 429.1 53.5L429.1 53.5Q428.1 53.5 427.3 53.9Q426.5 54.3 426.1 55.0Q425.7 55.8 425.7 56.9L425.7 56.9L421.4 56.9Q421.4 54.7 422.4 53.2Q423.4 51.6 425.1 50.7Q426.8 49.9 429.1 49.9L429.1 49.9Q431.4 49.9 433.1 50.7Q434.9 51.5 435.8 53.0Q436.8 54.4 436.8 56.3L436.8 56.3Q436.8 57.5 436.3 58.7Q435.8 59.9 434.6 61.4Q433.4 62.9 431.2 64.9L431.2 64.9L427.9 68.2L427.9 68.3L437.1 68.3L437.1 72Z "/></g><mask id="satori_om-id-2-1"><rect x="391" y="81" width="45" height="13" fill="#fff" mask="url(#satori_om-id)"/></mask><g mask="url(#satori_om-id)" clip-path="url(#satori_cp-id)"><path fill="rgba(200,195,225,0.45)" d="M394.7 92.1L394.7 92.1Q393.7 92.1 393.0 91.8Q392.3 91.5 391.9 90.9Q391.5 90.4 391.5 89.5L391.5 89.5L393.1 89.5Q393.1 89.9 393.3 90.2Q393.5 90.5 393.9 90.6Q394.2 90.7 394.6 90.7L394.6 90.7Q395.1 90.7 395.4 90.6Q395.7 90.5 395.9 90.2Q396.1 90.0 396.1 89.7L396.1 89.7Q396.1 89.4 395.9 89.3Q395.8 89.1 395.5 88.9Q395.2 88.8 394.7 88.7L394.7 88.7L393.8 88.5Q392.8 88.2 392.2 87.7Q391.7 87.2 391.7 86.3L391.7 86.3Q391.7 85.6 392.1 85.0Q392.5 84.5 393.1 84.2Q393.8 83.9 394.7 83.9L394.7 83.9Q395.6 83.9 396.2 84.2Q396.9 84.5 397.3 85.0Q397.6 85.6 397.6 86.3L397.6 86.3L396.1 86.3Q396.0 85.8 395.6 85.5Q395.3 85.3 394.7 85.3L394.7 85.3Q394.2 85.3 394.0 85.4Q393.7 85.5 393.5 85.7Q393.4 85.9 393.4 86.2L393.4 86.2Q393.4 86.5 393.5 86.7Q393.7 86.9 394.0 87.0Q394.3 87.1 394.6 87.2L394.6 87.2L395.4 87.4Q395.9 87.5 396.3 87.7Q396.7 87.9 397.1 88.2Q397.4 88.4 397.6 88.8Q397.7 89.2 397.7 89.7L397.7 89.7Q397.7 90.4 397.4 91.0Q397.0 91.5 396.3 91.8Q395.6 92.1 394.7 92.1ZM402.6 85.4L400.1 85.4L400.1 84.0L406.6 84.0L406.6 85.4L404.2 85.4L404.2 92L402.6 92L402.6 85.4ZM410.6 92L408.8 92L411.5 84.0L413.7 84.0L416.5 92L414.7 92L414.1 90.1L411.2 90.1L410.6 92ZM411.6 88.9L413.6 88.9L413.4 88.1Q413.2 87.4 412.9 86.5L412.9 86.5Q412.8 85.9 412.6 85.3L412.6 85.3Q412.4 85.9 412.3 86.5L412.3 86.5Q412.1 87.4 411.9 88.1L411.9 88.1L411.6 88.9ZM420.6 92L419.0 92L419.0 84.0L422.1 84.0Q423.0 84.0 423.7 84.3Q424.3 84.6 424.6 85.2Q425.0 85.8 425.0 86.6Q425.0 87.4 424.6 88.0Q424.3 88.5 423.6 88.8L423.6 88.8Q423.6 88.9 423.5 88.9L423.5 88.9L425.3 92L423.4 92L421.9 89.1L420.6 89.1L420.6 92ZM420.6 85.4L420.6 87.8L421.8 87.8Q422.3 87.8 422.6 87.7Q423.0 87.5 423.1 87.3Q423.3 87.0 423.3 86.6L423.3 86.6Q423.3 86.2 423.1 85.9Q423.0 85.6 422.6 85.5Q422.3 85.4 421.8 85.4L421.8 85.4L420.6 85.4ZM430.6 92.1L430.6 92.1Q429.7 92.1 429.0 91.8Q428.3 91.5 427.9 90.9Q427.5 90.4 427.4 89.5L427.4 89.5L429.0 89.5Q429.1 89.9 429.3 90.2Q429.5 90.5 429.8 90.6Q430.2 90.7 430.6 90.7L430.6 90.7Q431.1 90.7 431.4 90.6Q431.7 90.5 431.9 90.2Q432.1 90.0 432.1 89.7L432.1 89.7Q432.1 89.4 431.9 89.3Q431.8 89.1 431.4 88.9Q431.1 88.8 430.7 88.7L430.7 88.7L429.8 88.5Q428.8 88.2 428.2 87.7Q427.7 87.2 427.7 86.3L427.7 86.3Q427.7 85.6 428.0 85.0Q428.4 84.5 429.1 84.2Q429.8 83.9 430.7 83.9L430.7 83.9Q431.5 83.9 432.2 84.2Q432.9 84.5 433.2 85.0Q433.6 85.6 433.6 86.3L433.6 86.3L432.0 86.3Q432.0 85.8 431.6 85.5Q431.3 85.3 430.6 85.3L430.6 85.3Q430.2 85.3 429.9 85.4Q429.6 85.5 429.5 85.7Q429.3 85.9 429.3 86.2L429.3 86.2Q429.3 86.5 429.5 86.7Q429.7 86.9 430.0 87.0Q430.3 87.1 430.6 87.2L430.6 87.2L431.3 87.4Q431.8 87.5 432.3 87.7Q432.7 87.9 433.0 88.2Q433.4 88.4 433.5 88.8Q433.7 89.2 433.7 89.7L433.7 89.7Q433.7 90.4 433.4 91.0Q433.0 91.5 432.3 91.8Q431.6 92.1 430.6 92.1Z "/></g><mask id="satori_om-id-3"><rect x="553" y="30" width="306" height="80" fill="#fff" mask="url(#satori_om-id)"/></mask><mask id="satori_om-id-3-0"><rect x="667" y="46" width="79" height="30" fill="#fff" mask="url(#satori_om-id)"/></mask><g mask="url(#satori_om-id)" clip-path="url(#satori_cp-id)"><path fill="#f59e0b" d="M684.3 72L668.8 72L668.8 68.8L676.6 61.5Q677.5 60.6 678.2 59.8Q678.9 59.0 679.3 58.2Q679.6 57.5 679.6 56.6L679.6 56.6Q679.6 55.6 679.2 54.9Q678.7 54.2 678.0 53.8Q677.2 53.5 676.2 53.5L676.2 53.5Q675.2 53.5 674.5 53.9Q673.7 54.3 673.3 55.0Q672.9 55.8 672.9 56.9L672.9 56.9L668.6 56.9Q668.6 54.7 669.6 53.2Q670.6 51.6 672.3 50.7Q674.0 49.9 676.3 49.9L676.3 49.9Q678.6 49.9 680.3 50.7Q682.0 51.5 683.0 53.0Q684.0 54.4 684.0 56.3L684.0 56.3Q684.0 57.5 683.5 58.7Q683.0 59.9 681.8 61.4Q680.6 62.9 678.3 64.9L678.3 64.9L675.0 68.2L675.0 68.3L684.3 68.3L684.3 72ZM697.4 68.1L686.9 68.1L686.9 64.6L696.0 50.2L701.6 50.2L701.6 64.5L704.4 64.5L704.4 68.1L701.6 68.1L701.6 72L697.4 72L697.4 68.1ZM691.4 64.5L697.4 64.5L697.4 55.1L697.3 55.1L691.4 64.3L691.4 64.5ZM715.8 72.3L715.8 72.3Q713.1 72.3 711.1 71.0Q709.2 69.6 708.1 67.1Q707.1 64.6 707.1 61.1L707.1 61.1Q707.1 57.6 708.1 55.1Q709.2 52.5 711.1 51.2Q713.1 49.9 715.8 49.9L715.8 49.9Q718.6 49.9 720.5 51.2Q722.5 52.6 723.5 55.1Q724.6 57.6 724.6 61.1L724.6 61.1Q724.6 64.6 723.5 67.1Q722.5 69.6 720.5 71.0Q718.6 72.3 715.8 72.3ZM715.8 68.6L715.8 68.6Q717.2 68.6 718.1 67.7Q719.0 66.8 719.5 65.2Q720.0 63.5 720.0 61.1L720.0 61.1Q720.0 58.7 719.5 57.0Q719.0 55.3 718.1 54.5Q717.2 53.6 715.8 53.6L715.8 53.6Q714.5 53.6 713.6 54.5Q712.6 55.3 712.1 57.0Q711.6 58.7 711.6 61.1L711.6 61.1Q711.6 63.5 712.1 65.2Q712.6 66.8 713.6 67.7Q714.5 68.6 715.8 68.6ZM735.1 72.3L735.1 72.3Q732.9 72.3 731.2 71.5Q729.4 70.6 728.4 69.2Q727.4 67.7 727.3 65.9L727.3 65.9L731.7 65.9Q731.7 66.7 732.2 67.4Q732.7 68.0 733.4 68.4Q734.2 68.7 735.1 68.7L735.1 68.7Q736.2 68.7 737.1 68.3Q737.9 67.8 738.4 66.9Q738.9 66.0 738.9 64.9L738.9 64.9Q738.9 63.7 738.4 62.8Q737.9 61.9 737.1 61.4Q736.2 60.9 735.1 60.9L735.1 60.9Q734.1 60.9 733.2 61.3Q732.3 61.7 731.8 62.3L731.8 62.3L727.8 61.6L728.8 50.2L742.0 50.2L742.0 53.9L732.5 53.9L732.0 59.4L732.1 59.4Q732.7 58.6 733.8 58.1Q735.0 57.6 736.4 57.6L736.4 57.6Q737.9 57.6 739.1 58.1Q740.4 58.6 741.3 59.6Q742.2 60.5 742.7 61.9Q743.2 63.2 743.2 64.7L743.2 64.7Q743.2 66.9 742.2 68.6Q741.2 70.3 739.4 71.3Q737.5 72.3 735.1 72.3Z "/></g><mask id="satori_om-id-3-1"><rect x="673" y="81" width="66" height="13" fill="#fff" mask="url(#satori_om-id)"/></mask><g mask="url(#satori_om-id)" clip-path="url(#satori_cp-id)"><path fill="rgba(200,195,225,0.45)" d="M677.2 92.1L677.2 92.1Q676.2 92.1 675.3 91.6Q674.5 91.1 674.0 90.2Q673.5 89.3 673.5 88.0L673.5 88.0Q673.5 86.7 674.0 85.8Q674.5 84.9 675.3 84.4Q676.2 83.9 677.2 83.9L677.2 83.9Q677.9 83.9 678.5 84.1Q679.1 84.3 679.5 84.6Q680.0 85.0 680.3 85.5Q680.6 86.1 680.7 86.7L680.7 86.7L679.0 86.7Q679.0 86.4 678.8 86.1Q678.6 85.9 678.4 85.7Q678.2 85.5 677.9 85.4Q677.6 85.3 677.3 85.3L677.3 85.3Q676.6 85.3 676.2 85.7Q675.7 86.0 675.4 86.6Q675.2 87.2 675.2 88.0L675.2 88.0Q675.2 88.9 675.4 89.5Q675.7 90.1 676.2 90.4Q676.6 90.7 677.2 90.7L677.2 90.7Q677.6 90.7 677.9 90.6Q678.2 90.5 678.4 90.3Q678.6 90.1 678.8 89.8Q679.0 89.6 679.0 89.3L679.0 89.3L680.7 89.3Q680.6 89.8 680.3 90.3Q680.1 90.8 679.6 91.2Q679.2 91.6 678.6 91.9Q678.0 92.1 677.2 92.1ZM686.9 92.1L686.9 92.1Q685.8 92.1 685.0 91.6Q684.1 91.1 683.6 90.2Q683.1 89.3 683.1 88.0L683.1 88.0Q683.1 86.7 683.6 85.8Q684.1 84.9 685.0 84.4Q685.8 83.9 686.9 83.9L686.9 83.9Q687.9 83.9 688.8 84.4Q689.6 84.9 690.1 85.8Q690.6 86.7 690.6 88.0L690.6 88.0Q690.6 89.3 690.1 90.2Q689.6 91.1 688.8 91.6Q687.9 92.1 686.9 92.1ZM686.9 90.7L686.9 90.7Q687.5 90.7 688.0 90.3Q688.4 90.0 688.7 89.5Q688.9 88.9 688.9 88.0L688.9 88.0Q688.9 87.1 688.7 86.5Q688.4 86.0 688.0 85.6Q687.5 85.3 686.9 85.3L686.9 85.3Q686.3 85.3 685.8 85.7Q685.3 86.0 685.1 86.6Q684.8 87.1 684.8 88.0L684.8 88.0Q684.8 88.9 685.1 89.4Q685.3 90.0 685.8 90.3Q686.3 90.7 686.9 90.7ZM695.0 92L693.3 92L693.3 84.0L695.9 84.0L697.2 87.7Q697.2 87.9 697.3 88.3Q697.4 88.7 697.5 89.2L697.5 89.2Q697.7 89.7 697.7 90.1L697.7 90.1Q697.8 89.7 697.9 89.2L697.9 89.2Q698.0 88.8 698.2 88.3Q698.3 87.9 698.3 87.7L698.3 87.7L699.6 84.0L702.1 84.0L702.1 92L700.5 92L700.5 88.2Q700.5 88.0 700.5 87.6Q700.5 87.2 700.5 86.7Q700.5 86.3 700.5 85.8L700.5 85.8Q700.6 85.6 700.6 85.4L700.6 85.4Q700.5 85.6 700.4 85.9L700.4 85.9Q700.3 86.3 700.2 86.8Q700.1 87.2 699.9 87.6Q699.8 88.0 699.8 88.2L699.8 88.2L698.4 92L697.0 92L695.7 88.2Q695.6 88.0 695.5 87.6Q695.4 87.2 695.3 86.8Q695.1 86.4 695.0 85.9L695.0 85.9Q695.0 85.7 694.9 85.5L694.9 85.5Q694.9 85.6 694.9 85.8L694.9 85.8Q694.9 86.2 694.9 86.7Q694.9 87.2 695.0 87.6Q695.0 88.0 695.0 88.2L695.0 88.2L695.0 92ZM706.7 92L705.1 92L705.1 84.0L707.6 84.0L708.9 87.7Q709.0 87.9 709.1 88.3Q709.2 88.7 709.3 89.2L709.3 89.2Q709.4 89.7 709.5 90.1L709.5 90.1Q709.6 89.7 709.7 89.2L709.7 89.2Q709.8 88.8 709.9 88.3Q710.0 87.9 710.1 87.7L710.1 87.7L711.4 84.0L713.9 84.0L713.9 92L712.2 92L712.2 88.2Q712.2 88.0 712.2 87.6Q712.3 87.2 712.3 86.7Q712.3 86.3 712.3 85.8L712.3 85.8Q712.3 85.6 712.3 85.4L712.3 85.4Q712.2 85.6 712.2 85.9L712.2 85.9Q712.1 86.3 711.9 86.8Q711.8 87.2 711.7 87.6Q711.6 88.0 711.5 88.2L711.5 88.2L710.2 92L708.8 92L707.4 88.2Q707.4 88.0 707.3 87.6Q707.1 87.2 707.0 86.8Q706.9 86.4 706.8 85.9L706.8 85.9Q706.7 85.7 706.7 85.5L706.7 85.5Q706.7 85.6 706.7 85.8L706.7 85.8Q706.7 86.2 706.7 86.7Q706.7 87.2 706.7 87.6Q706.7 88.0 706.7 88.2L706.7 88.2L706.7 92ZM716.8 84.0L718.5 84.0L718.5 92L716.8 92L716.8 84.0ZM723.5 85.4L721.1 85.4L721.1 84.0L727.6 84.0L727.6 85.4L725.2 85.4L725.2 92L723.5 92L723.5 85.4ZM733.2 92.1L733.2 92.1Q732.2 92.1 731.5 91.8Q730.8 91.5 730.4 90.9Q730.0 90.4 730.0 89.5L730.0 89.5L731.6 89.5Q731.6 89.9 731.8 90.2Q732.0 90.5 732.4 90.6Q732.7 90.7 733.2 90.7L733.2 90.7Q733.6 90.7 733.9 90.6Q734.3 90.5 734.5 90.2Q734.6 90.0 734.6 89.7L734.6 89.7Q734.6 89.4 734.5 89.3Q734.3 89.1 734.0 88.9Q733.7 88.8 733.3 88.7L733.3 88.7L732.4 88.5Q731.4 88.2 730.8 87.7Q730.2 87.2 730.2 86.3L730.2 86.3Q730.2 85.6 730.6 85.0Q731.0 84.5 731.7 84.2Q732.3 83.9 733.2 83.9L733.2 83.9Q734.1 83.9 734.8 84.2Q735.4 84.5 735.8 85.0Q736.2 85.6 736.2 86.3L736.2 86.3L734.6 86.3Q734.6 85.8 734.2 85.5Q733.8 85.3 733.2 85.3L733.2 85.3Q732.8 85.3 732.5 85.4Q732.2 85.5 732.0 85.7Q731.9 85.9 731.9 86.2L731.9 86.2Q731.9 86.5 732.1 86.7Q732.2 86.9 732.5 87.0Q732.8 87.1 733.2 87.2L733.2 87.2L733.9 87.4Q734.4 87.5 734.8 87.7Q735.3 87.9 735.6 88.2Q735.9 88.4 736.1 88.8Q736.3 89.2 736.3 89.7L736.3 89.7Q736.3 90.4 735.9 91.0Q735.6 91.5 734.9 91.8Q734.2 92.1 733.2 92.1Z "/></g></svg>