<!-- Generated by readme-aura https://github.com/collectioneur/readme-aura -->
<svg width="860" height="140" viewBox="0 0 860 140" xmlns="http://www.w3.org/2000/svg"><defs><clipPath id="satori_bc-id"><path x="0" y="0" width="860" height="140" d="M16,0 h828 a16,16 0 0 1 16,16 v108 a16,16 0 0 1 -16,16 h-828 a16,16 0 0 1 -16,-16 v-108 a16,16 0 0 1 16,-16"/></clipPath></defs><clipPath id="satori_cp-id"><path x="0" y="0" width="860" height="140" d="M16,0 h828 a16,16 0 0 1 16,16 v108 a16,16 0 0 1 -16,16 h-828 a16,16 0 0 1 -16,-16 v-108 a16,16 0 0 1 16,-16"/></clipPath><mask id="satori_om-id"><rect x="1" y="1" width="858" height="138" fill="#fff"/><path width="860" height="140" fill="none" stroke="#000" stroke-width="2" d="M4.686,4.686 A16,16 0 0 1 16,0 h828 a16,16 0 0 1 16,16 v108 a16,16 0 0 1 -16,16 h-828 a16,16 0 0 1 -16,-16 v-108 A16,16 0 0 1 4.686,4.686"/></mask><path x="0" y="0" width="860" height="140" fill="#08080c" d="M16,0 h828 a16,16 0 0 1 16,16 v108 a16,16 0 0 1 -16,16 h-828 a16,16 0 0 1 -16,-16 v-108 a16,16 0 0 1 16,-16"/><path width="860" height="140" clip-path="url(#satori_bc-id)" fill="none" stroke="rgba(110,80,220,0.18)" stroke-width="2" d="M4.686,4.686 A16,16 0 0 1 16,0 h828 a16,16 0 0 1 16,16 v108 a16,16 0 0 1 -16,16 h-828 a16,16 0 0 1 -16,-16 v-108 A16,16 0 0 1 4.686,4.686"/><clipPath id="satori_cp-id-0" clip-path="url(#satori_cp-id)"><rect x="1" y="1" width="860" height="140"/></clipPath><mask id="satori_om-id-0"><rect x="1" y="1" width="860" height="140" fill="#fff" mask="url(#satori_om-id)"/></mask><svg x="1" y="1" width="860" height="140" preserveAspectRatio="none" clip-path="url(#satori_cp-id-0)" mask="url(#satori_om-id-0)"><defs><radialGradient id="g1" cx="50%" cy="50%" r="50%"><stop offset="0%" stop-color="rgba(110,20,210,0.65)"></stop><stop offset="45%" stop-color="rgba(80,15,170,0.28)"></stop><stop offset="70%" stop-color="rgba(80,15,170,0)"></stop></radialGradient><radialGradient id="g2" cx="50%" cy="50%" r="50%"><stop offset="0%" stop-color="rgba(40,70,255,0.55)"></stop><stop offset="45%" stop-color="rgba(20,50,200,0.22)"></stop><stop offset="70%" stop-color="rgba(20,50,200,0)"></stop></radialGradient><radialGradient id="g3" cx="50%" cy="50%" r="50%"><stop offset="0%" stop-color="rgba(0,140,255,0.42)"></stop><stop offset="70%" stop-color="rgba(0,140,255,0)"></stop></radialGradient><radialGradient id="g4" cx="50%" cy="50%" r="50%"><stop offset="0%" stop-color="rgba(0,195,235,0.30)"></stop><stop offset="70%" stop-color="rgba(0,195,235,0)"></stop></radialGradient><radialGradient id="g5" cx="50%" cy="50%" r="50%"><stop offset="0%" stop-color="rgba(100,30,210,0.40)"></stop><stop offset="70%" stop-color="rgba(100,30,210,0)"></stop></radialGradient></defs><ellipse id="glow-1" cx="710" cy="150" rx="210" ry="150" fill="url(#g1)"></ellipse><ellipse id="glow-2" cx="550" cy="140" rx="190" ry="140" fill="url(#g2)"></ellipse><ellipse id="glow-3" cx="400" cy="130" rx="170" ry="130" fill="url(#g3)"></ellipse><ellipse id="glow-4" cx="250" cy="140" rx="150" ry="120" fill="url(#g4)"></ellipse><ellipse id="glow-5" cx="100" cy="150" rx="130" ry="110" fill="url(#g5)"></ellipse><style>

         @keyframes float-slow {
           0%, 100% { transform: translateX(0px); opacity: 0.8; }
           50% { transform: translateX(350px); opacity: 1.2; }
         }
         @keyframes float-medium {
           0%, 100% { transform: translateX(0px); opacity: 0.7; }
           50% { transform: translateX(-250px); opacity: 1.1; }
         }
         @keyframes float-fast {
           0%, 100% { transform: translateX(0px); opacity: 0.9; }
           50% { transform: translateX(200px); opacity: 0.6; }
         }
         @keyframes float-diagonal {
           0%, 100% { transform: translate(0px, 0px); opacity: 0.75; }
           50% { transform: translate(120px, 30px); opacity: 1.0; }
         }
         @keyframes float-wave {
           0%, 100% { transform: translateX(0px); opacity: 0.65; }
           33% { transform: translateX(-160px); opacity: 0.9; }
           66% { transform: translateX(80px); opacity: 1.0; }
         }
         @keyframes float-pulse {
           0%, 100% { transform: scale(1); opacity: 0.8; }
           50% { transform: scale(1.3); opacity: 0.4; }
         }
         #glow-1 { animation: float-slow 8s ease-in-out infinite; }
         #glow-2 { animation: float-medium 12s ease-in-out infinite; }
         #glow-3 { animation: float-fast 9s ease-in-out infinite; }
         #glow-4 { animation: float-diagonal 10s ease-in-out infinite; }
         #glow-5 { animation: float-wave 14s ease-in-out infinite; }
       
</style>
</svg><mask id="satori_om-id-0-0"><rect x="1" y="1" width="0" height="140" fill="#fff" mask="url(#satori_om-id)"/></mask><mask id="satori_om-id-0-0-0"><rect x="1" y="1" width="0" height="140" fill="#fff" mask="url(#satori_om-id)"/></mask><mask id="satori_om-id-0-0-0-0"><rect x="1" y="1" width="0" height="140" fill="#fff" mask="url(#satori_om-id)"/></mask><mask id="satori_om-id-0-0-0-1"><rect x="1" y="1" width="0" height="140" fill="#fff" mask="url(#satori_om-id)"/></mask><mask id="satori_om-id-0-0-0-2"><rect x="1" y="1" width="0" height="140" fill="#fff" mask="url(#satori_om-id)"/></mask><mask id="satori_om-id-0-0-1"><rect x="1" y="1" width="0" height="140" fill="#fff" mask="url(#satori_om-id)"/></mask><mask id="satori_om-id-0-0-1-0"><rect x="1" y="1" width="0" height="140" fill="#fff" mask="url(#satori_om-id)"/></mask><mask id="satori_om-id-0-0-1-1"><rect x="1" y="1" width="0" height="140" fill="#fff" mask="url(#satori_om-id)"/></mask><mask id="satori_om-id-0-0-1-2"><rect x="1" y="1" width="0" height="140" fill="#fff" mask="url(#satori_om-id)"/></mask><mask id="satori_om-id-0-0-2"><rect x="1" y="1" width="0" height="140" fill="#fff" mask="url(#satori_om-id)"/></mask><mask id="satori_om-id-0-0-2-0"><rect x="1" y="1" width="0" height="140" fill="#fff" mask="url(#satori_om-id)"/></mask><mask id="satori_om-id-0-0-2-1"><rect x="1" y="1" width="0" height="140" fill="#fff" mask="url(#satori_om-id)"/></mask><mask id="satori_om-id-0-0-3"><rect x="1" y="1" width="0" height="140" fill="#fff" mask="url(#satori_om-id)"/></mask><mask id="satori_om-id-0-0-3-0"><rect x="1" y="1" width="0" height="140" fill="#fff" mask="url(#satori_om-id)"/></mask><mask id="satori_om-id-0-0-3-1"><rect x="1" y="1" width="0" height="140" fill="#fff" mask="url(#satori_om-id)"/></mask><mask id="satori_om-id-0-0-4"><rect x="1" y="1" width="0" height="140" fill="#fff" mask="url(#satori_om-id)"/></mask><mask id="satori_om-id-0-0-4-0"><rect x="1" y="1" width="0" height="140" fill="#fff" mask="url(#satori_om-id)"/></mask><mask id="satori_om-id-0-0-4-1"><rect x="1" y="1" width="0" height="140" fill="#fff" mask="url(#satori_om-id)"/></mask><mask id="satori_om-id-0-1"><rect x="1" y="1" width="0" height="140" fill="#fff" mask="url(#satori_om-id)"/></mask><mask id="satori_om-id-0-2"><rect x="1" y="1" width="0" height="140" fill="#fff" mask="url(#satori_om-id)"/></mask><mask id="satori_om-id-0-3"><rect x="1" y="1" width="0" height="140" fill="#fff" mask="url(#satori_om-id)"/></mask><mask id="satori_om-id-0-4"><rect x="1" y="1" width="0" height="140" fill="#fff" mask="url(#satori_om-id)"/></mask><mask id="satori_om-id-0-5"><rect x="1" y="1" width="0" height="140" fill="#fff" mask="url(#satori_om-id)"/></mask><defs><clipPath id="satori_bc-id-1" clip-path="url(#satori_cp-id)"><rect x="1" y="30" width="275" height="80"/></clipPath></defs><mask id="satori_om-id-1"><rect x="1" y="30" width="274" height="80" fill="#fff" mask="url(#satori_om-id)"/><path width="275" height="80" fill="none" stroke="#000" stroke-width="2" d="M276,30 A0,0 0 0 1 276,30 v80 A0,0 0 0 1 276,110"/></mask><path width="275" height="80" clip-path="url(#satori_bc-id-1)" fill="none" stroke="rgba(255,255,255,0.06)" stroke-width="2" d="M276,30 A0,0 0 0 1 276,30 v80 A0,0 0 0 1 276,110"/><mask id="satori_om-id-1-0"><rect x="125" y="46" width="26" height="30" fill="#fff" mask="url(#satori_om-id)"/></mask><g mask="url(#satori_om-id)" clip-path="url(#satori_cp-id)"><path fill="#a78bfa" d="M131.2 50.2L136.0 50.2L136.0 72L131.5 72L131.5 54.1L131.4 54.1L126.4 57.7L126.4 53.6L131.2 50.2ZM144.1 50.2L148.9 50.2L148.9 72L144.4 72L144.4 54.1L144.3 54.1L139.3 57.7L139.3 53.6L144.1 50.2Z "/></g><mask id="satori_om-id-1-1"><rect x="115" y="81" width="45" height="13" fill="#fff" mask="url(#satori_om-id)"/></mask><g mask="url(#satori_om-id)" clip-path="url(#satori_cp-id)"><path fill="rgba(200,195,225,0.45)" d="M117.4 92L115.7 92L115.7 84.0L118.8 84.0Q119.8 84.0 120.4 84.3Q121.0 84.6 121.4 85.2Q121.7 85.8 121.7 86.6Q121.7 87.4 121.4 88.0Q121.0 88.5 120.4 88.8L120.4 88.8Q120.3 88.9 120.3 88.9L120.3 88.9L122.0 92L120.2 92L118.6 89.1L117.4 89.1L117.4 92ZM117.4 85.4L117.4 87.8L118.5 87.8Q119.0 87.8 119.4 87.7Q119.7 87.5 119.9 87.3Q120.0 87.0 120.0 86.6L120.0 86.6Q120.0 86.2 119.9 85.9Q119.7 85.6 119.4 85.5Q119.0 85.4 118.5 85.4L118.5 85.4L117.4 85.4ZM129.8 92L124.4 92L124.4 84.0L129.8 84.0L129.8 85.4L126.1 85.4L126.1 87.3L129.5 87.3L129.5 88.6L126.1 88.6L126.1 90.6L129.8 90.6L129.8 92ZM134.3 92L132.6 92L132.6 84.0L135.8 84.0Q136.7 84.0 137.3 84.3Q137.9 84.7 138.3 85.3Q138.6 85.9 138.6 86.7L138.6 86.7Q138.6 87.5 138.3 88.1Q137.9 88.7 137.3 89.0Q136.6 89.4 135.7 89.4L135.7 89.4L134.3 89.4L134.3 92ZM134.3 85.4L134.3 88.1L135.5 88.1Q136.0 88.1 136.3 87.9Q136.6 87.7 136.8 87.4Q136.9 87.1 136.9 86.7Q136.9 86.3 136.8 86.0Q136.6 85.7 136.3 85.5Q136.0 85.4 135.4 85.4L135.4 85.4L134.3 85.4ZM144.8 92.1L144.8 92.1Q143.7 92.1 142.9 91.6Q142.0 91.1 141.5 90.2Q141.0 89.3 141.0 88.0L141.0 88.0Q141.0 86.7 141.5 85.8Q142.0 84.9 142.9 84.4Q143.7 83.9 144.8 83.9L144.8 83.9Q145.8 83.9 146.7 84.4Q147.5 84.9 148.0 85.8Q148.5 86.7 148.5 88.0L148.5 88.0Q148.5 89.3 148.0 90.2Q147.5 91.1 146.7 91.6Q145.8 92.1 144.8 92.1ZM144.8 90.7L144.8 90.7Q145.4 90.7 145.9 90.3Q146.3 90.0 146.6 89.5Q146.8 88.9 146.8 88.0L146.8 88.0Q146.8 87.1 146.6 86.5Q146.3 86.0 145.9 85.6Q145.4 85.3 144.8 85.3L144.8 85.3Q144.2 85.3 143.7 85.7Q143.2 86.0 143.0 86.6Q142.7 87.1 142.7 88.0L142.7 88.0Q142.7 88.9 143.0 89.4Q143.2 90.0 143.7 90.3Q144.2 90.7 144.8 90.7ZM154.2 92.1L154.2 92.1Q153.2 92.1 152.5 91.8Q151.8 91.5 151.4 90.9Q151.0 90.4 151.0 89.5L151.0 89.5L152.6 89.5Q152.6 89.9 152.8 90.2Q153.0 90.5 153.4 90.6Q153.7 90.7 154.2 90.7L154.2 90.7Q154.6 90.7 154.9 90.6Q155.2 90.5 155.4 90.2Q155.6 90.0 155.6 89.7L155.6 89.7Q155.6 89.4 155.4 89.3Q155.3 89.1 155.0 88.9Q154.7 88.8 154.2 88.7L154.2 88.7L153.3 88.5Q152.3 88.2 151.8 87.7Q151.2 87.2 151.2 86.3L151.2 86.3Q151.2 85.6 151.6 85.0Q152.0 84.5 152.6 84.2Q153.3 83.9 154.2 83.9L154.2 83.9Q155.1 83.9 155.7 84.2Q156.4 84.5 156.8 85.0Q157.1 85.6 157.1 86.3L157.1 86.3L155.6 86.3Q155.5 85.8 155.2 85.5Q154.8 85.3 154.2 85.3L154.2 85.3Q153.8 85.3 153.5 85.4Q153.2 85.5 153.0 85.7Q152.9 85.9 152.9 86.2L152.9 86.2Q152.9 86.5 153.0 86.7Q153.2 86.9 153.5 87.0Q153.8 87.1 154.1 87.2L154.1 87.2L154.9 87.4Q155.4 87.5 155.8 87.7Q156.2 87.9 156.6 88.2Q156.9 88.4 157.1 88.8Q157.3 89.2 157.3 89.7L157.3 89.7Q157.3 90.4 156.9 91.0Q156.5 91.5 155.8 91.8Q155.1 92.1 154.2 92.1Z "/></g><defs><clipPath id="satori_bc-id-2" clip-path="url(#satori_cp-id)"><rect x="276" y="30" width="281" height="80"/></clipPath></defs><mask id="satori_om-id-2"><rect x="276" y="30" width="280" height="80" fill="#fff" mask="url(#satori_om-id)"/><path width="281" height="80" fill="none" stroke="#000" stroke-width="2" d="M557,30 A0,0 0 0 1 557,30 v80 A0,0 0 0 1 557,110"/></mask><path width="281" height="80" clip-path="url(#satori_bc-id-2)" fill="none" stroke="rgba(255,255,255,0.06)" stroke-width="2" d="M557,30 A0,0 0 0 1 557,30 v80 A0,0 0 0 1 557,110"/><mask id="satori_om-id-2-0"><rect x="390" y="46" width="52" height="30" fill="#fff" mask="url(#satori_om-id)"/></mask><g mask="url(#satori_om-id)" clip-path="url(#satori_cp-id)"><path fill="#60a5fa" d="M396.2 50.2L401.0 50.2L401.0 72L396.5 72L396.5 54.1L396.4 54.1L391.4 57.7L391.4 53.6L396.2 50.2ZM412.6 72.3L412.6 72.3Q410.2 72.3 408.4 71.5Q406.5 70.7 405.5 69.2Q404.4 67.8 404.4 65.9L404.4 65.9L408.9 65.9Q408.9 66.7 409.4 67.3Q409.9 67.9 410.7 68.3Q411.6 68.6 412.6 68.6L412.6 68.6Q413.7 68.6 414.5 68.2Q415.3 67.8 415.8 67.2Q416.3 66.5 416.3 65.6L416.3 65.6Q416.3 64.7 415.8 64.0Q415.3 63.3 414.4 62.9Q413.5 62.5 412.2 62.5L412.2 62.5L410.2 62.5L410.2 59.2L412.2 59.2Q413.3 59.2 414.1 58.8Q414.9 58.5 415.3 57.8Q415.8 57.2 415.8 56.3L415.8 56.3Q415.8 55.4 415.4 54.8Q415.0 54.2 414.3 53.8Q413.6 53.5 412.6 53.5L412.6 53.5Q411.7 53.5 410.9 53.8Q410.1 54.1 409.6 54.8Q409.1 55.4 409.1 56.2L409.1 56.2L404.8 56.2Q404.8 54.4 405.9 52.9Q406.9 51.5 408.7 50.7Q410.4 49.9 412.7 49.9L412.7 49.9Q414.9 49.9 416.6 50.7Q418.3 51.5 419.2 52.9Q420.1 54.3 420.1 56.0L420.1 56.0Q420.1 57.8 419.0 59.1Q417.9 60.3 416.0 60.6L416.0 60.6L416.0 60.8Q417.6 61.0 418.7 61.7Q419.8 62.4 420.4 63.5Q420.9 64.5 420.9 65.9L420.9 65.9Q420.9 67.7 419.9 69.2Q418.8 70.6 416.9 71.5Q415.0 72.3 412.6 72.3ZM431.6 72.3L431.6 72.3Q429.5 72.3 427.8 71.5Q426.1 70.6 425.1 69.2Q424.1 67.7 423.9 65.9L423.9 65.9L428.3 65.9Q428.6 67.1 429.4 67.8Q430.3 68.5 431.6 68.5L431.6 68.5Q433.1 68.5 434.0 67.6Q435.0 66.8 435.5 65.2Q436.0 63.6 436.0 61.5L436.0 61.5L435.9 61.5Q435.4 62.4 434.6 63.1Q433.7 63.8 432.7 64.1Q431.6 64.5 430.4 64.5L430.4 64.5Q428.5 64.5 427.0 63.6Q425.4 62.7 424.5 61.1Q423.7 59.5 423.7 57.5L423.7 57.5Q423.7 55.2 424.7 53.5Q425.7 51.8 427.6 50.8Q429.4 49.8 431.8 49.9L431.8 49.9Q433.5 49.9 435 50.4Q436.5 51.0 437.8 52.2Q439.0 53.5 439.7 55.5Q440.4 57.6 440.4 60.6L440.4 60.6Q440.4 63.3 439.8 65.5Q439.2 67.7 438.0 69.2Q436.9 70.7 435.2 71.5Q433.6 72.3 431.6 72.3ZM431.8 61.2L431.8 61.2Q432.6 61.2 433.3 60.9Q434.0 60.6 434.5 60.1Q435 59.5 435.3 58.8Q435.6 58.1 435.6 57.3L435.6 57.3Q435.6 56.3 435.1 55.4Q434.6 54.5 433.8 54.0Q432.9 53.4 431.8 53.4L431.8 53.4Q430.7 53.4 429.9 53.9Q429.0 54.5 428.5 55.4Q428.0 56.2 428.0 57.3L428.0 57.3Q428.0 58.4 428.5 59.3Q429.0 60.2 429.9 60.7Q430.7 61.2 431.8 61.2Z "/></g><mask id="satori_om-id-2-1"><rect x="394" y="81" width="45" height="13" fill="#fff" mask="url(#satori_om-id)"/></mask><g mask="url(#satori_om-id)" clip-path="url(#satori_cp-id)"><path fill="rgba(200,195,225,0.45)" d="M397.7 92.1L397.7 92.1Q396.7 92.1 396.0 91.8Q395.3 91.5 394.9 90.9Q394.5 90.4 394.5 89.5L394.5 89.5L396.1 89.5Q396.1 89.9 396.3 90.2Q396.5 90.5 396.9 90.6Q397.2 90.7 397.6 90.7L397.6 90.7Q398.1 90.7 398.4 90.6Q398.7 90.5 398.9 90.2Q399.1 90.0 399.1 89.7L399.1 89.7Q399.1 89.4 398.9 89.3Q398.8 89.1 398.5 88.9Q398.2 88.8 397.7 88.7L397.7 88.7L396.8 88.5Q395.8 88.2 395.2 87.7Q394.7 87.2 394.7 86.3L394.7 86.3Q394.7 85.6 395.1 85.0Q395.5 84.5 396.1 84.2Q396.8 83.9 397.7 83.9L397.7 83.9Q398.6 83.9 399.2 84.2Q399.9 84.5 400.3 85.0Q400.6 85.6 400.6 86.3L400.6 86.3L399.1 86.3Q399.0 85.8 398.6 85.5Q398.3 85.3 397.7 85.3L397.7 85.3Q397.2 85.3 397.0 85.4Q396.7 85.5 396.5 85.7Q396.4 85.9 396.4 86.2L396.4 86.2Q396.4 86.5 396.5 86.7Q396.7 86.9 397.0 87.0Q397.3 87.1 397.6 87.2L397.6 87.2L398.4 87.4Q398.9 87.5 399.3 87.7Q399.7 87.9 400.1 88.2Q400.4 88.4 400.6 88.8Q400.7 89.2 400.7 89.7L400.7 89.7Q400.7 90.4 400.4 91.0Q400.0 91.5 399.3 91.8Q398.6 92.1 397.7 92.1ZM405.6 85.4L403.1 85.4L403.1 84.0L409.6 84.0L409.6 85.4L407.2 85.4L407.2 92L405.6 92L405.6 85.4ZM413.6 92L411.8 92L414.5 84.0L416.7 84.0L419.5 92L417.7 92L417.1 90.1L414.2 90.1L413.6 92ZM414.6 88.9L416.6 88.9L416.4 88.1Q416.2 87.4 415.9 86.5L415.9 86.5Q415.8 85.9 415.6 85.3L415.6 85.3Q415.4 85.9 415.3 86.5L415.3 86.5Q415.1 87.4 414.9 88.1L414.9 88.1L414.6 88.9ZM423.6 92L422.0 92L422.0 84.0L425.1 84.0Q426.0 84.0 426.7 84.3Q427.3 84.6 427.6 85.2Q428.0 85.8 428.0 86.6Q428.0 87.4 427.6 88.0Q427.3 88.5 426.6 88.8L426.6 88.8Q426.6 88.9 426.5 88.9L426.5 88.9L428.3 92L426.4 92L424.9 89.1L423.6 89.1L423.6 92ZM423.6 85.4L423.6 87.8L424.8 87.8Q425.3 87.8 425.6 87.7Q426.0 87.5 426.1 87.3Q426.3 87.0 426.3 86.6L426.3 86.6Q426.3 86.2 426.1 85.9Q426.0 85.6 425.6 85.5Q425.3 85.4 424.8 85.4L424.8 85.4L423.6 85.4ZM433.6 92.1L433.6 92.1Q432.7 92.1 432.0 91.8Q431.3 91.5 430.9 90.9Q430.5 90.4 430.4 89.5L430.4 89.5L432.0 89.5Q432.1 89.9 432.3 90.2Q432.5 90.5 432.8 90.6Q433.2 90.7 433.6 90.7L433.6 90.7Q434.1 90.7 434.4 90.6Q434.7 90.5 434.9 90.2Q435.1 90.0 435.1 89.7L435.1 89.7Q435.1 89.4 434.9 89.3Q434.8 89.1 434.4 88.9Q434.1 88.8 433.7 88.7L433.7 88.7L432.8 88.5Q431.8 88.2 431.2 87.7Q430.7 87.2 430.7 86.3L430.7 86.3Q430.7 85.6 431.0 85.0Q431.4 84.5 432.1 84.2Q432.8 83.9 433.7 83.9L433.7 83.9Q434.5 83.9 435.2 84.2Q435.9 84.5 436.2 85.0Q436.6 85.6 436.6 86.3L436.6 86.3L435.0 86.3Q435.0 85.8 434.6 85.5Q434.3 85.3 433.6 85.3L433.6 85.3Q433.2 85.3 432.9 85.4Q432.6 85.5 432.5 85.7Q432.3 85.9 432.3 86.2L432.3 86.2Q432.3 86.5 432.5 86.7Q432.7 86.9 433.0 87.0Q433.3 87.1 433.6 87.2L433.6 87.2L434.3 87.4Q434.8 87.5 435.3 87.7Q435.7 87.9 436.0 88.2Q436.4 88.4 436.5 88.8Q436.7 89.2 436.7 89.7L436.7 89.7Q436.7 90.4 436.4 91.0Q436.0 91.5 435.3 91.8Q434.6 92.1 433.6 92.1Z "/></g><mask id="satori_om-id-3"><rect x="557" y="30" width="302" height="80" fill="#fff" mask="url(#satori_om-id)"/></mask><mask id="satori_om-id-3-0"><rect x="671" y="46" width="73" height="30" fill="#fff" mask="url(#satori_om-id)"/></mask><g mask="url(#satori_om-id)" clip-path="url(#satori_cp-id)"><path fill="#f59e0b" d="M688.3 72L672.8 72L672.8 68.8L680.6 61.5Q681.5 60.6 682.2 59.8Q682.9 59.0 683.3 58.2Q683.6 57.5 683.6 56.6L683.6 56.6Q683.6 55.6 683.2 54.9Q682.7 54.2 682.0 53.8Q681.2 53.5 680.2 53.5L680.2 53.5Q679.2 53.5 678.5 53.9Q677.7 54.3 677.3 55.0Q676.9 55.8 676.9 56.9L676.9 56.9L672.6 56.9Q672.6 54.7 673.6 53.2Q674.6 51.6 676.3 50.7Q678.0 49.9 680.3 49.9L680.3 49.9Q682.6 49.9 684.3 50.7Q686.0 51.5 687.0 53.0Q688.0 54.4 688.0 56.3L688.0 56.3Q688.0 57.5 687.5 58.7Q687.0 59.9 685.8 61.4Q684.6 62.9 682.3 64.9L682.3 64.9L679.0 68.2L679.0 68.3L688.3 68.3L688.3 72ZM701.4 68.1L690.9 68.1L690.9 64.6L700.0 50.2L705.6 50.2L705.6 64.5L708.4 64.5L708.4 68.1L705.6 68.1L705.6 72L701.4 72L701.4 68.1ZM695.4 64.5L701.4 64.5L701.4 55.1L701.3 55.1L695.4 64.3L695.4 64.5ZM721.6 68.1L711.2 68.1L711.2 64.6L720.3 50.2L725.9 50.2L725.9 64.5L728.7 64.5L728.7 68.1L725.9 68.1L725.9 72L721.6 72L721.6 68.1ZM715.7 64.5L721.7 64.5L721.7 55.1L721.6 55.1L715.7 64.3L715.7 64.5ZM735.0 50.2L739.8 50.2L739.8 72L735.4 72L735.4 54.1L735.2 54.1L730.2 57.7L730.2 53.6L735.0 50.2Z "/></g><mask id="satori_om-id-3-1"><rect x="675" y="81" width="66" height="13" fill="#fff" mask="url(#satori_om-id)"/></mask><g mask="url(#satori_om-id)" clip-path="url(#satori_cp-id)"><path fill="rgba(200,195,225,0.45)" d="M679.2 92.1L679.2 92.1Q678.2 92.1 677.3 91.6Q676.5 91.1 676.0 90.2Q675.5 89.3 675.5 88.0L675.5 88.0Q675.5 86.7 676.0 85.8Q676.5 84.9 677.3 84.4Q678.2 83.9 679.2 83.9L679.2 83.9Q679.9 83.9 680.5 84.1Q681.1 84.3 681.5 84.6Q682.0 85.0 682.3 85.5Q682.6 86.1 682.7 86.7L682.7 86.7L681.0 86.7Q681.0 86.4 680.8 86.1Q680.6 85.9 680.4 85.7Q680.2 85.5 679.9 85.4Q679.6 85.3 679.3 85.3L679.3 85.3Q678.6 85.3 678.2 85.7Q677.7 86.0 677.4 86.6Q677.2 87.2 677.2 88.0L677.2 88.0Q677.2 88.9 677.4 89.5Q677.7 90.1 678.2 90.4Q678.6 90.7 679.2 90.7L679.2 90.7Q679.6 90.7 679.9 90.6Q680.2 90.5 680.4 90.3Q680.6 90.1 680.8 89.8Q681.0 89.6 681.0 89.3L681.0 89.3L682.7 89.3Q682.6 89.8 682.3 90.3Q682.1 90.8 681.6 91.2Q681.2 91.6 680.6 91.9Q680.0 92.1 679.2 92.1ZM688.9 92.1L688.9 92.1Q687.8 92.1 687.0 91.6Q686.1 91.1 685.6 90.2Q685.1 89.3 685.1 88.0L685.1 88.0Q685.1 86.7 685.6 85.8Q686.1 84.9 687.0 84.4Q687.8 83.9 688.9 83.9L688.9 83.9Q689.9 83.9 690.8 84.4Q691.6 84.9 692.1 85.8Q692.6 86.7 692.6 88.0L692.6 88.0Q692.6 89.3 692.1 90.2Q691.6 91.1 690.8 91.6Q689.9 92.1 688.9 92.1ZM688.9 90.7L688.9 90.7Q689.5 90.7 690.0 90.3Q690.4 90.0 690.7 89.5Q690.9 88.9 690.9 88.0L690.9 88.0Q690.9 87.1 690.7 86.5Q690.4 86.0 690.0 85.6Q689.5 85.3 688.9 85.3L688.9 85.3Q688.3 85.3 687.8 85.7Q687.3 86.0 687.1 86.6Q686.8 87.1 686.8 88.0L686.8 88.0Q686.8 88.9 687.1 89.4Q687.3 90.0 687.8 90.3Q688.3 90.7 688.9 90.7ZM697.0 92L695.3 92L695.3 84.0L697.9 84.0L699.2 87.7Q699.2 87.9 699.3 88.3Q699.4 88.7 699.5 89.2L699.5 89.2Q699.7 89.7 699.7 90.1L699.7 90.1Q699.8 89.7 699.9 89.2L699.9 89.2Q700.0 88.8 700.2 88.3Q700.3 87.9 700.3 87.7L700.3 87.7L701.6 84.0L704.1 84.0L704.1 92L702.5 92L702.5 88.2Q702.5 88.0 702.5 87.6Q702.5 87.2 702.5 86.7Q702.5 86.3 702.5 85.8L702.5 85.8Q702.6 85.6 702.6 85.4L702.6 85.4Q702.5 85.6 702.4 85.9L702.4 85.9Q702.3 86.3 702.2 86.8Q702.1 87.2 701.9 87.6Q701.8 88.0 701.8 88.2L701.8 88.2L700.4 92L699.0 92L697.7 88.2Q697.6 88.0 697.5 87.6Q697.4 87.2 697.3 86.8Q697.1 86.4 697.0 85.9L697.0 85.9Q697.0 85.7 696.9 85.5L696.9 85.5Q696.9 85.6 696.9 85.8L696.9 85.8Q696.9 86.2 696.9 86.7Q696.9 87.2 697.0 87.6Q697.0 88.0 697.0 88.2L697.0 88.2L697.0 92ZM708.7 92L707.1 92L707.1 84.0L709.6 84.0L710.9 87.7Q711.0 87.9 711.1 88.3Q711.2 88.7 711.3 89.2L711.3 89.2Q711.4 89.7 711.5 90.1L711.5 90.1Q711.6 89.7 711.7 89.2L711.7 89.2Q711.8 88.8 711.9 88.3Q712.0 87.9 712.1 87.7L712.1 87.7L713.4 84.0L715.9 84.0L715.9 92L714.2 92L714.2 88.2Q714.2 88.0 714.2 87.6Q714.3 87.2 714.3 86.7Q714.3 86.3 714.3 85.8L714.3 85.8Q714.3 85.6 714.3 85.4L714.3 85.4Q714.2 85.6 714.2 85.9L714.2 85.9Q714.1 86.3 713.9 86.8Q713.8 87.2 713.7 87.6Q713.6 88.0 713.5 88.2L713.5 88.2L712.2 92L710.8 92L709.4 88.2Q709.4 88.0 709.3 87.6Q709.1 87.2 709.0 86.8Q708.9 86.4 708.8 85.9L708.8 85.9Q708.7 85.7 708.7 85.5L708.7 85.5Q708.7 85.6 708.7 85.8L708.7 85.8Q708.7 86.2 708.7 86.7Q708.7 87.2 708.7 87.6Q708.7 88.0 708.7 88.2L708.7 88.2L708.7 92ZM718.8 84.0L720.5 84.0L720.5 92L718.8 92L718.8 84.0ZM725.5 85.4L723.1 85.4L723.1 84.0L729.6 84.0L729.6 85.4L727.2 85.4L727.2 92L725.5 92L725.5 85.4ZM735.2 92.1L735.2 92.1Q734.2 92.1 733.5 91.8Q732.8 91.5 732.4 90.9Q732.0 90.4 732.0 89.5L732.0 89.5L733.6 89.5Q733.6 89.9 733.8 90.2Q734.0 90.5 734.4 90.6Q734.7 90.7 735.2 90.7L735.2 90.7Q735.6 90.7 735.9 90.6Q736.3 90.5 736.5 90.2Q736.6 90.0 736.6 89.7L736.6 89.7Q736.6 89.4 736.5 89.3Q736.3 89.1 736.0 88.9Q735.7 88.8 735.3 88.7L735.3 88.7L734.4 88.5Q733.4 88.2 732.8 87.7Q732.2 87.2 732.2 86.3L732.2 86.3Q732.2 85.6 732.6 85.0Q733.0 84.5 733.7 84.2Q734.3 83.9 735.2 83.9L735.2 83.9Q736.1 83.9 736.8 84.2Q737.4 84.5 737.8 85.0Q738.2 85.6 738.2 86.3L738.2 86.3L736.6 86.3Q736.6 85.8 736.2 85.5Q735.8 85.3 735.2 85.3L735.2 85.3Q734.8 85.3 734.5 85.4Q734.2 85.5 734.0 85.7Q733.9 85.9 733.9 86.2L733.9 86.2Q733.9 86.5 734.1 86.7Q734.2 86.9 734.5 87.0Q734.8 87.1 735.2 87.2L735.2 87.2L735.9 87.4Q736.4 87.5 736.8 87.7Q737.3 87.9 737.6 88.2Q737.9 88.4 738.1 88.8Q738.3 89.2 738.3 89.7L738.3 89.7Q738.3 90.4 737.9 91.0Q737.6 91.5 736.9 91.8Q736.2 92.1 735.2 92.1Z "/></g></svg>