<!-- Generated by readme-aura https://github.com/collectioneur/readme-aura -->
<svg width="860" height="140" viewBox="0 0 860 140" xmlns="http://www.w3.org/2000/svg"><defs><clipPath id="satori_bc-id"><path x="0" y="0" width="860" height="140" d="M16,0 h828 a16,16 0 0 1 16,16 v108 a16,16 0 0 1 -16,16 h-828 a16,16 0 0 1 -16,-16 v-108 a16,16 0 0 1 16,-16"/></clipPath></defs><clipPath id="satori_cp-id"><path x="0" y="0" width="860" height="140" d="M16,0 h828 a16,16 0 0 1 16,16 v108 a16,16 0 0 1 -16,16 h-828 a16,16 0 0 1 -16,-16 v-108 a16,16 0 0 1 16,-16"/></clipPath><mask id="satori_om-id"><rect x="1" y="1" width="858" height="138" fill="#fff"/><path width="860" height="140" fill="none" stroke="#000" stroke-width="2" d="M4.686,4.686 A16,16 0 0 1 16,0 h828 a16,16 0 0 1 16,16 v108 a16,16 0 0 1 -16,16 h-828 a16,16 0 0 1 -16,-16 v-108 A16,16 0 0 1 4.686,4.686"/></mask><path x="0" y="0" width="860" height="140" fill="#08080c" d="M16,0 h828 a16,16 0 0 1 16,16 v108 a16,16 0 0 1 -16,16 h-828 a16,16 0 0 1 -16,-16 v-108 a16,16 0 0 1 16,-16"/><path width="860" height="140" clip-path="url(#satori_bc-id)" fill="none" stroke="rgba(110,80,220,0.18)" stroke-width="2" d="M4.686,4.686 A16,16 0 0 1 16,0 h828 a16,16 0 0 1 16,16 v108 a16,16 0 0 1 -16,16 h-828 a16,16 0 0 1 -16,-16 v-108 A16,16 0 0 1 4.686,4.686"/><clipPath id="satori_cp-id-0" clip-path="url(#satori_cp-id)"><rect x="1" y="1" width="860" height="140"/></clipPath><mask id="satori_om-id-0"><rect x="1" y="1" width="860" height="140" fill="#fff" mask="url(#satori_om-id)"/></mask><svg x="1" y="1" width="860" height="140" preserveAspectRatio="none" clip-path="url(#satori_cp-id-0)" mask="url(#satori_om-id-0)"><defs><radialGradient id="g1" cx="50%" cy="50%" r="50%"><stop offset="0%" stop-color="rgba(110,20,210,0.65)"></stop><stop offset="45%" stop-color="rgba(80,15,170,0.28)"></stop><stop offset="70%" stop-color="rgba(80,15,170,0)"></stop></radialGradient><radialGradient id="g2" cx="50%" cy="50%" r="50%"><stop offset="0%" stop-color="rgba(40,70,255,0.55)"></stop><stop offset="45%" stop-color="rgba(20,50,200,0.22)"></stop><stop offset="70%" stop-color="rgba(20,50,200,0)"></stop></radialGradient><radialGradient id="g3" cx="50%" cy="50%" r="50%"><stop offset="0%" stop-color="rgba(0,140,255,0.42)"></stop><stop offset="70%" stop-color="rgba(0,140,255,0)"></stop></radialGradient><radialGradient id="g4" cx="50%" cy="50%" r="50%"><stop offset="0%" stop-color="rgba(0,195,235,0.30)"></stop><stop offset="70%" stop-color="rgba(0,195,235,0)"></stop></radialGradient><radialGradient id="g5" cx="50%" cy="50%" r="50%"><stop offset="0%" stop-color="rgba(100,30,210,0.40)"></stop><stop offset="70%" stop-color="rgba(100,30,210,0)"></stop></radialGradient></defs><ellipse id="glow-1" cx="710" cy="150" rx="210" ry="150" fill="url(#g1)"></ellipse><ellipse id="glow-2" cx="550" cy="140" rx="190" ry="140" fill="url(#g2)"></ellipse><ellipse id="glow-3" cx="400" cy="130" rx="170" ry="130" fill="url(#g3)"></ellipse><ellipse id="glow-4" cx="250" cy="140" rx="150" ry="120" fill="url(#g4)"></ellipse><ellipse id="glow-5" cx="100" cy="150" rx="130" ry="110" fill="url(#g5)"></ellipse><style>

         @keyframes float-slow {
           0%, 100% { transform: translateX(0px); opacity: 0.8; }
           50% { transform: translateX(350px); opacity: 1.2; }
         }
         @keyframes float-medium {
           0%, 100% { transform: translateX(0px); opacity: 0.7; }
           50% { transform: translateX(-250px); opacity: 1.1; }
         }
         @keyframes float-fast {
           0%, 100% { transform: translateX(0px); opacity: 0.9; }
           50% { transform: translateX(200px); opacity: 0.6; }
         }
         @keyframes float-diagonal {
           0%, 100% { transform: translate(0px, 0px); opacity: 0.75; }
           50% { transform: translate(120px, 30px); opacity: 1.0; }
         }
         @keyframes float-wave {
           0%, 100% { transform: translateX(0px); opacity: 0.65; }
           33% { transform: translateX(-160px); opacity: 0.9; }
           66% { transform: translateX(80px); opacity: 1.0; }
         }
         @keyframes float-pulse {
           0%, 100% { transform: scale(1); opacity: 0.8; }
           50% { transform: scale(1.3); opacity: 0.4; }
         }
         #glow-1 { animation: float-slow 8s ease-in-out infinite; }
         #glow-2 { animation: float-medium 12s ease-in-out infinite; }
         #glow-3 { animation: float-fast 9s ease-in-out infinite; }
         #glow-4 { animation: float-diagonal 10s ease-in-out infinite; }
         #glow-5 { animation: float-wave 14s ease-in-out infinite; }
       
</style>
</svg><mask id="satori_om-id-0-0"><rect x="1" y="1" width="0" height="140" fill="#fff" mask="url(#satori_om-id)"/></mask><mask id="satori_om-id-0-0-0"><rect x="1" y="1" width="0" height="140" fill="#fff" mask="url(#satori_om-id)"/></mask><mask id="satori_om-id-0-0-0-0"><rect x="1" y="1" width="0" height="140" fill="#fff" mask="url(#satori_om-id)"/></mask><mask id="satori_om-id-0-0-0-1"><rect x="1" y="1" width="0" height="140" fill="#fff" mask="url(#satori_om-id)"/></mask><mask id="satori_om-id-0-0-0-2"><rect x="1" y="1" width="0" height="140" fill="#fff" mask="url(#satori_om-id)"/></mask><mask id="satori_om-id-0-0-1"><rect x="1" y="1" width="0" height="140" fill="#fff" mask="url(#satori_om-id)"/></mask><mask id="satori_om-id-0-0-1-0"><rect x="1" y="1" width="0" height="140" fill="#fff" mask="url(#satori_om-id)"/></mask><mask id="satori_om-id-0-0-1-1"><rect x="1" y="1" width="0" height="140" fill="#fff" mask="url(#satori_om-id)"/></mask><mask id="satori_om-id-0-0-1-2"><rect x="1" y="1" width="0" height="140" fill="#fff" mask="url(#satori_om-id)"/></mask><mask id="satori_om-id-0-0-2"><rect x="1" y="1" width="0" height="140" fill="#fff" mask="url(#satori_om-id)"/></mask><mask id="satori_om-id-0-0-2-0"><rect x="1" y="1" width="0" height="140" fill="#fff" mask="url(#satori_om-id)"/></mask><mask id="satori_om-id-0-0-2-1"><rect x="1" y="1" width="0" height="140" fill="#fff" mask="url(#satori_om-id)"/></mask><mask id="satori_om-id-0-0-3"><rect x="1" y="1" width="0" height="140" fill="#fff" mask="url(#satori_om-id)"/></mask><mask id="satori_om-id-0-0-3-0"><rect x="1" y="1" width="0" height="140" fill="#fff" mask="url(#satori_om-id)"/></mask><mask id="satori_om-id-0-0-3-1"><rect x="1" y="1" width="0" height="140" fill="#fff" mask="url(#satori_om-id)"/></mask><mask id="satori_om-id-0-0-4"><rect x="1" y="1" width="0" height="140" fill="#fff" mask="url(#satori_om-id)"/></mask><mask id="satori_om-id-0-0-4-0"><rect x="1" y="1" width="0" height="140" fill="#fff" mask="url(#satori_om-id)"/></mask><mask id="satori_om-id-0-0-4-1"><rect x="1" y="1" width="0" height="140" fill="#fff" mask="url(#satori_om-id)"/></mask><mask id="satori_om-id-0-1"><rect x="1" y="1" width="0" height="140" fill="#fff" mask="url(#satori_om-id)"/></mask><mask id="satori_om-id-0-2"><rect x="1" y="1" width="0" height="140" fill="#fff" mask="url(#satori_om-id)"/></mask><mask id="satori_om-id-0-3"><rect x="1" y="1" width="0" height="140" fill="#fff" mask="url(#satori_om-id)"/></mask><mask id="satori_om-id-0-4"><rect x="1" y="1" width="0" height="140" fill="#fff" mask="url(#satori_om-id)"/></mask><mask id="satori_om-id-0-5"><rect x="1" y="1" width="0" height="140" fill="#fff" mask="url(#satori_om-id)"/></mask><defs><clipPath id="satori_bc-id-1" clip-path="url(#satori_cp-id)"><rect x="1" y="30" width="275" height="80"/></clipPath></defs><mask id="satori_om-id-1"><rect x="1" y="30" width="274" height="80" fill="#fff" mask="url(#satori_om-id)"/><path width="275" height="80" fill="none" stroke="#000" stroke-width="2" d="M276,30 A0,0 0 0 1 276,30 v80 A0,0 0 0 1 276,110"/></mask><path width="275" height="80" clip-path="url(#satori_bc-id-1)" fill="none" stroke="rgba(255,255,255,0.06)" stroke-width="2" d="M276,30 A0,0 0 0 1 276,30 v80 A0,0 0 0 1 276,110"/><mask id="satori_om-id-1-0"><rect x="122" y="46" width="33" height="30" fill="#fff" mask="url(#satori_om-id)"/></mask><g mask="url(#satori_om-id)" clip-path="url(#satori_cp-id)"><path fill="#a78bfa" d="M128.2 50.2L133.0 50.2L133.0 72L128.5 72L128.5 54.1L128.4 54.1L123.4 57.7L123.4 53.6L128.2 50.2ZM144.6 72.3L144.6 72.3Q142.2 72.3 140.4 71.5Q138.5 70.7 137.5 69.2Q136.4 67.8 136.4 65.9L136.4 65.9L140.9 65.9Q140.9 66.7 141.4 67.3Q141.9 67.9 142.7 68.3Q143.6 68.6 144.6 68.6L144.6 68.6Q145.7 68.6 146.5 68.2Q147.3 67.8 147.8 67.2Q148.3 66.5 148.3 65.6L148.3 65.6Q148.3 64.7 147.8 64.0Q147.3 63.3 146.4 62.9Q145.5 62.5 144.2 62.5L144.2 62.5L142.2 62.5L142.2 59.2L144.2 59.2Q145.3 59.2 146.1 58.8Q146.9 58.5 147.3 57.8Q147.8 57.2 147.8 56.3L147.8 56.3Q147.8 55.4 147.4 54.8Q147.0 54.2 146.3 53.8Q145.6 53.5 144.6 53.5L144.6 53.5Q143.7 53.5 142.9 53.8Q142.1 54.1 141.6 54.8Q141.1 55.4 141.1 56.2L141.1 56.2L136.8 56.2Q136.8 54.4 137.9 52.9Q138.9 51.5 140.7 50.7Q142.4 49.9 144.7 49.9L144.7 49.9Q146.9 49.9 148.6 50.7Q150.3 51.5 151.2 52.9Q152.1 54.3 152.1 56.0L152.1 56.0Q152.1 57.8 151.0 59.1Q149.9 60.3 148.0 60.6L148.0 60.6L148.0 60.8Q149.6 61.0 150.7 61.7Q151.8 62.4 152.4 63.5Q152.9 64.5 152.9 65.9L152.9 65.9Q152.9 67.7 151.9 69.2Q150.8 70.6 148.9 71.5Q147.0 72.3 144.6 72.3Z "/></g><mask id="satori_om-id-1-1"><rect x="116" y="81" width="45" height="13" fill="#fff" mask="url(#satori_om-id)"/></mask><g mask="url(#satori_om-id)" clip-path="url(#satori_cp-id)"><path fill="rgba(200,195,225,0.45)" d="M118.4 92L116.7 92L116.7 84.0L119.8 84.0Q120.8 84.0 121.4 84.3Q122.0 84.6 122.4 85.2Q122.7 85.8 122.7 86.6Q122.7 87.4 122.4 88.0Q122.0 88.5 121.4 88.8L121.4 88.8Q121.3 88.9 121.3 88.9L121.3 88.9L123.0 92L121.2 92L119.6 89.1L118.4 89.1L118.4 92ZM118.4 85.4L118.4 87.8L119.5 87.8Q120.0 87.8 120.4 87.7Q120.7 87.5 120.9 87.3Q121.0 87.0 121.0 86.6L121.0 86.6Q121.0 86.2 120.9 85.9Q120.7 85.6 120.4 85.5Q120.0 85.4 119.5 85.4L119.5 85.4L118.4 85.4ZM130.8 92L125.4 92L125.4 84.0L130.8 84.0L130.8 85.4L127.1 85.4L127.1 87.3L130.5 87.3L130.5 88.6L127.1 88.6L127.1 90.6L130.8 90.6L130.8 92ZM135.3 92L133.6 92L133.6 84.0L136.8 84.0Q137.7 84.0 138.3 84.3Q138.9 84.7 139.3 85.3Q139.6 85.9 139.6 86.7L139.6 86.7Q139.6 87.5 139.3 88.1Q138.9 88.7 138.3 89.0Q137.6 89.4 136.7 89.4L136.7 89.4L135.3 89.4L135.3 92ZM135.3 85.4L135.3 88.1L136.5 88.1Q137.0 88.1 137.3 87.9Q137.6 87.7 137.8 87.4Q137.9 87.1 137.9 86.7Q137.9 86.3 137.8 86.0Q137.6 85.7 137.3 85.5Q137.0 85.4 136.4 85.4L136.4 85.4L135.3 85.4ZM145.8 92.1L145.8 92.1Q144.7 92.1 143.9 91.6Q143.0 91.1 142.5 90.2Q142.0 89.3 142.0 88.0L142.0 88.0Q142.0 86.7 142.5 85.8Q143.0 84.9 143.9 84.4Q144.7 83.9 145.8 83.9L145.8 83.9Q146.8 83.9 147.7 84.4Q148.5 84.9 149.0 85.8Q149.5 86.7 149.5 88.0L149.5 88.0Q149.5 89.3 149.0 90.2Q148.5 91.1 147.7 91.6Q146.8 92.1 145.8 92.1ZM145.8 90.7L145.8 90.7Q146.4 90.7 146.9 90.3Q147.3 90.0 147.6 89.5Q147.8 88.9 147.8 88.0L147.8 88.0Q147.8 87.1 147.6 86.5Q147.3 86.0 146.9 85.6Q146.4 85.3 145.8 85.3L145.8 85.3Q145.2 85.3 144.7 85.7Q144.2 86.0 144.0 86.6Q143.7 87.1 143.7 88.0L143.7 88.0Q143.7 88.9 144.0 89.4Q144.2 90.0 144.7 90.3Q145.2 90.7 145.8 90.7ZM155.2 92.1L155.2 92.1Q154.2 92.1 153.5 91.8Q152.8 91.5 152.4 90.9Q152.0 90.4 152.0 89.5L152.0 89.5L153.6 89.5Q153.6 89.9 153.8 90.2Q154.0 90.5 154.4 90.6Q154.7 90.7 155.2 90.7L155.2 90.7Q155.6 90.7 155.9 90.6Q156.2 90.5 156.4 90.2Q156.6 90.0 156.6 89.7L156.6 89.7Q156.6 89.4 156.4 89.3Q156.3 89.1 156.0 88.9Q155.7 88.8 155.2 88.7L155.2 88.7L154.3 88.5Q153.3 88.2 152.8 87.7Q152.2 87.2 152.2 86.3L152.2 86.3Q152.2 85.6 152.6 85.0Q153.0 84.5 153.6 84.2Q154.3 83.9 155.2 83.9L155.2 83.9Q156.1 83.9 156.7 84.2Q157.4 84.5 157.8 85.0Q158.1 85.6 158.1 86.3L158.1 86.3L156.6 86.3Q156.5 85.8 156.2 85.5Q155.8 85.3 155.2 85.3L155.2 85.3Q154.8 85.3 154.5 85.4Q154.2 85.5 154.0 85.7Q153.9 85.9 153.9 86.2L153.9 86.2Q153.9 86.5 154.0 86.7Q154.2 86.9 154.5 87.0Q154.8 87.1 155.1 87.2L155.1 87.2L155.9 87.4Q156.4 87.5 156.8 87.7Q157.2 87.9 157.6 88.2Q157.9 88.4 158.1 88.8Q158.3 89.2 158.3 89.7L158.3 89.7Q158.3 90.4 157.9 91.0Q157.5 91.5 156.8 91.8Q156.1 92.1 155.2 92.1Z "/></g><defs><clipPath id="satori_bc-id-2" clip-path="url(#satori_cp-id)"><rect x="276" y="30" width="278" height="80"/></clipPath></defs><mask id="satori_om-id-2"><rect x="276" y="30" width="277" height="80" fill="#fff" mask="url(#satori_om-id)"/><path width="278" height="80" fill="none" stroke="#000" stroke-width="2" d="M554,30 A0,0 0 0 1 554,30 v80 A0,0 0 0 1 554,110"/></mask><path width="278" height="80" clip-path="url(#satori_bc-id-2)" fill="none" stroke="rgba(255,255,255,0.06)" stroke-width="2" d="M554,30 A0,0 0 0 1 554,30 v80 A0,0 0 0 1 554,110"/><mask id="satori_om-id-2-0"><rect x="391" y="46" width="47" height="30" fill="#fff" mask="url(#satori_om-id)"/></mask><g mask="url(#satori_om-id)" clip-path="url(#satori_cp-id)"><path fill="#60a5fa" d="M397.2 50.2L402.0 50.2L402.0 72L397.5 72L397.5 54.1L397.4 54.1L392.4 57.7L392.4 53.6L397.2 50.2ZM410.1 50.2L414.9 50.2L414.9 72L410.4 72L410.4 54.1L410.3 54.1L405.3 57.7L405.3 53.6L410.1 50.2ZM427.0 72.3L427.0 72.3Q424.2 72.3 422.3 71.0Q420.3 69.6 419.3 67.1Q418.2 64.6 418.2 61.1L418.2 61.1Q418.2 57.6 419.3 55.1Q420.3 52.5 422.3 51.2Q424.2 49.9 427.0 49.9L427.0 49.9Q429.7 49.9 431.7 51.2Q433.6 52.6 434.7 55.1Q435.7 57.6 435.7 61.1L435.7 61.1Q435.7 64.6 434.7 67.1Q433.7 69.6 431.7 71.0Q429.7 72.3 427.0 72.3ZM427.0 68.6L427.0 68.6Q428.3 68.6 429.3 67.7Q430.2 66.8 430.7 65.2Q431.2 63.5 431.2 61.1L431.2 61.1Q431.2 58.7 430.7 57.0Q430.2 55.3 429.3 54.5Q428.3 53.6 427.0 53.6L427.0 53.6Q425.6 53.6 424.7 54.5Q423.8 55.3 423.3 57.0Q422.8 58.7 422.8 61.1L422.8 61.1Q422.8 63.5 423.3 65.2Q423.8 66.8 424.7 67.7Q425.6 68.6 427.0 68.6Z "/></g><mask id="satori_om-id-2-1"><rect x="392" y="81" width="45" height="13" fill="#fff" mask="url(#satori_om-id)"/></mask><g mask="url(#satori_om-id)" clip-path="url(#satori_cp-id)"><path fill="rgba(200,195,225,0.45)" d="M395.7 92.1L395.7 92.1Q394.7 92.1 394.0 91.8Q393.3 91.5 392.9 90.9Q392.5 90.4 392.5 89.5L392.5 89.5L394.1 89.5Q394.1 89.9 394.3 90.2Q394.5 90.5 394.9 90.6Q395.2 90.7 395.6 90.7L395.6 90.7Q396.1 90.7 396.4 90.6Q396.7 90.5 396.9 90.2Q397.1 90.0 397.1 89.7L397.1 89.7Q397.1 89.4 396.9 89.3Q396.8 89.1 396.5 88.9Q396.2 88.8 395.7 88.7L395.7 88.7L394.8 88.5Q393.8 88.2 393.2 87.7Q392.7 87.2 392.7 86.3L392.7 86.3Q392.7 85.6 393.1 85.0Q393.5 84.5 394.1 84.2Q394.8 83.9 395.7 83.9L395.7 83.9Q396.6 83.9 397.2 84.2Q397.9 84.5 398.3 85.0Q398.6 85.6 398.6 86.3L398.6 86.3L397.1 86.3Q397.0 85.8 396.6 85.5Q396.3 85.3 395.7 85.3L395.7 85.3Q395.2 85.3 395.0 85.4Q394.7 85.5 394.5 85.7Q394.4 85.9 394.4 86.2L394.4 86.2Q394.4 86.5 394.5 86.7Q394.7 86.9 395.0 87.0Q395.3 87.1 395.6 87.2L395.6 87.2L396.4 87.4Q396.9 87.5 397.3 87.7Q397.7 87.9 398.1 88.2Q398.4 88.4 398.6 88.8Q398.7 89.2 398.7 89.7L398.7 89.7Q398.7 90.4 398.4 91.0Q398.0 91.5 397.3 91.8Q396.6 92.1 395.7 92.1ZM403.6 85.4L401.1 85.4L401.1 84.0L407.6 84.0L407.6 85.4L405.2 85.4L405.2 92L403.6 92L403.6 85.4ZM411.6 92L409.8 92L412.5 84.0L414.7 84.0L417.5 92L415.7 92L415.1 90.1L412.2 90.1L411.6 92ZM412.6 88.9L414.6 88.9L414.4 88.1Q414.2 87.4 413.9 86.5L413.9 86.5Q413.8 85.9 413.6 85.3L413.6 85.3Q413.4 85.9 413.3 86.5L413.3 86.5Q413.1 87.4 412.9 88.1L412.9 88.1L412.6 88.9ZM421.6 92L420.0 92L420.0 84.0L423.1 84.0Q424.0 84.0 424.7 84.3Q425.3 84.6 425.6 85.2Q426.0 85.8 426.0 86.6Q426.0 87.4 425.6 88.0Q425.3 88.5 424.6 88.8L424.6 88.8Q424.6 88.9 424.5 88.9L424.5 88.9L426.3 92L424.4 92L422.9 89.1L421.6 89.1L421.6 92ZM421.6 85.4L421.6 87.8L422.8 87.8Q423.3 87.8 423.6 87.7Q424.0 87.5 424.1 87.3Q424.3 87.0 424.3 86.6L424.3 86.6Q424.3 86.2 424.1 85.9Q424.0 85.6 423.6 85.5Q423.3 85.4 422.8 85.4L422.8 85.4L421.6 85.4ZM431.6 92.1L431.6 92.1Q430.7 92.1 430.0 91.8Q429.3 91.5 428.9 90.9Q428.5 90.4 428.4 89.5L428.4 89.5L430.0 89.5Q430.1 89.9 430.3 90.2Q430.5 90.5 430.8 90.6Q431.2 90.7 431.6 90.7L431.6 90.7Q432.1 90.7 432.4 90.6Q432.7 90.5 432.9 90.2Q433.1 90.0 433.1 89.7L433.1 89.7Q433.1 89.4 432.9 89.3Q432.8 89.1 432.4 88.9Q432.1 88.8 431.7 88.7L431.7 88.7L430.8 88.5Q429.8 88.2 429.2 87.7Q428.7 87.2 428.7 86.3L428.7 86.3Q428.7 85.6 429.0 85.0Q429.4 84.5 430.1 84.2Q430.8 83.9 431.7 83.9L431.7 83.9Q432.5 83.9 433.2 84.2Q433.9 84.5 434.2 85.0Q434.6 85.6 434.6 86.3L434.6 86.3L433.0 86.3Q433.0 85.8 432.6 85.5Q432.3 85.3 431.6 85.3L431.6 85.3Q431.2 85.3 430.9 85.4Q430.6 85.5 430.5 85.7Q430.3 85.9 430.3 86.2L430.3 86.2Q430.3 86.5 430.5 86.7Q430.7 86.9 431.0 87.0Q431.3 87.1 431.6 87.2L431.6 87.2L432.3 87.4Q432.8 87.5 433.3 87.7Q433.7 87.9 434.0 88.2Q434.4 88.4 434.5 88.8Q434.7 89.2 434.7 89.7L434.7 89.7Q434.7 90.4 434.4 91.0Q434.0 91.5 433.3 91.8Q432.6 92.1 431.6 92.1Z "/></g><mask id="satori_om-id-3"><rect x="554" y="30" width="305" height="80" fill="#fff" mask="url(#satori_om-id)"/></mask><mask id="satori_om-id-3-0"><rect x="669" y="46" width="76" height="30" fill="#fff" mask="url(#satori_om-id)"/></mask><g mask="url(#satori_om-id)" clip-path="url(#satori_cp-id)"><path fill="#f59e0b" d="M686.3 72L670.8 72L670.8 68.8L678.6 61.5Q679.5 60.6 680.2 59.8Q680.9 59.0 681.3 58.2Q681.6 57.5 681.6 56.6L681.6 56.6Q681.6 55.6 681.2 54.9Q680.7 54.2 680.0 53.8Q679.2 53.5 678.2 53.5L678.2 53.5Q677.2 53.5 676.5 53.9Q675.7 54.3 675.3 55.0Q674.9 55.8 674.9 56.9L674.9 56.9L670.6 56.9Q670.6 54.7 671.6 53.2Q672.6 51.6 674.3 50.7Q676.0 49.9 678.3 49.9L678.3 49.9Q680.6 49.9 682.3 50.7Q684.0 51.5 685.0 53.0Q686.0 54.4 686.0 56.3L686.0 56.3Q686.0 57.5 685.5 58.7Q685.0 59.9 683.8 61.4Q682.6 62.9 680.3 64.9L680.3 64.9L677.0 68.2L677.0 68.3L686.3 68.3L686.3 72ZM697.5 72.3L697.5 72.3Q695.2 72.3 693.3 71.5Q691.5 70.7 690.4 69.2Q689.4 67.8 689.3 65.9L689.3 65.9L693.8 65.9Q693.9 66.7 694.4 67.3Q694.9 67.9 695.7 68.3Q696.5 68.6 697.6 68.6L697.6 68.6Q698.6 68.6 699.5 68.2Q700.3 67.8 700.8 67.2Q701.2 66.5 701.2 65.6L701.2 65.6Q701.2 64.7 700.7 64.0Q700.2 63.3 699.3 62.9Q698.4 62.5 697.2 62.5L697.2 62.5L695.1 62.5L695.1 59.2L697.2 59.2Q698.2 59.2 699.0 58.8Q699.8 58.5 700.3 57.8Q700.8 57.2 700.8 56.3L700.8 56.3Q700.8 55.4 700.4 54.8Q700.0 54.2 699.3 53.8Q698.5 53.5 697.6 53.5L697.6 53.5Q696.6 53.5 695.9 53.8Q695.1 54.1 694.6 54.8Q694.1 55.4 694.1 56.2L694.1 56.2L689.8 56.2Q689.8 54.4 690.8 52.9Q691.9 51.5 693.6 50.7Q695.4 49.9 697.6 49.9L697.6 49.9Q699.9 49.9 701.5 50.7Q703.2 51.5 704.2 52.9Q705.1 54.3 705.1 56.0L705.1 56.0Q705.1 57.8 704.0 59.1Q702.8 60.3 701.0 60.6L701.0 60.6L701.0 60.8Q702.6 61.0 703.7 61.7Q704.8 62.4 705.3 63.5Q705.9 64.5 705.9 65.9L705.9 65.9Q705.9 67.7 704.8 69.2Q703.7 70.6 701.9 71.5Q700.0 72.3 697.5 72.3ZM714.5 72L709.9 72L718.9 54.0L718.9 53.9L708.4 53.9L708.4 50.2L723.6 50.2L723.6 53.9L714.5 72ZM734.0 72.3L734.0 72.3Q731.6 72.3 729.7 71.5Q727.8 70.7 726.7 69.3Q725.7 67.9 725.7 66.1L725.7 66.1Q725.7 64.8 726.3 63.6Q726.9 62.5 728.0 61.7Q729.0 60.9 730.4 60.7L730.4 60.7L730.4 60.6Q728.6 60.2 727.5 58.9Q726.5 57.5 726.5 55.7L726.5 55.7Q726.5 54.1 727.4 52.7Q728.4 51.4 730.1 50.6Q731.8 49.9 734.0 49.9L734.0 49.9Q736.2 49.9 737.9 50.6Q739.7 51.4 740.7 52.7Q741.6 54.1 741.6 55.7L741.6 55.7Q741.6 57.5 740.5 58.9Q739.4 60.2 737.7 60.6L737.7 60.6L737.7 60.7Q739.0 60.9 740.1 61.7Q741.2 62.5 741.8 63.6Q742.4 64.8 742.4 66.1L742.4 66.1Q742.4 67.9 741.4 69.3Q740.3 70.7 738.4 71.5Q736.5 72.3 734.0 72.3ZM734.0 69.0L734.0 69.0Q735.2 69.0 736.0 68.6Q736.8 68.2 737.3 67.5Q737.8 66.7 737.8 65.8L737.8 65.8Q737.8 64.8 737.3 64.1Q736.8 63.3 736.0 62.9Q735.1 62.5 734.0 62.5L734.0 62.5Q733.0 62.5 732.1 62.9Q731.3 63.3 730.8 64.1Q730.3 64.8 730.3 65.8L730.3 65.8Q730.3 66.7 730.8 67.4Q731.2 68.2 732.1 68.6Q732.9 69.0 734.0 69.0ZM734.0 59.2L734.0 59.2Q735.0 59.2 735.7 58.8Q736.4 58.4 736.8 57.8Q737.3 57.1 737.3 56.2L737.3 56.2Q737.3 55.3 736.9 54.7Q736.4 54.0 735.7 53.7Q735.0 53.3 734.0 53.3L734.0 53.3Q733.1 53.3 732.4 53.7Q731.6 54.0 731.2 54.7Q730.8 55.3 730.8 56.2L730.8 56.2Q730.8 57.1 731.2 57.8Q731.6 58.4 732.4 58.8Q733.1 59.2 734.0 59.2Z "/></g><mask id="satori_om-id-3-1"><rect x="674" y="81" width="66" height="13" fill="#fff" mask="url(#satori_om-id)"/></mask><g mask="url(#satori_om-id)" clip-path="url(#satori_cp-id)"><path fill="rgba(200,195,225,0.45)" d="M678.2 92.1L678.2 92.1Q677.2 92.1 676.3 91.6Q675.5 91.1 675.0 90.2Q674.5 89.3 674.5 88.0L674.5 88.0Q674.5 86.7 675.0 85.8Q675.5 84.9 676.3 84.4Q677.2 83.9 678.2 83.9L678.2 83.9Q678.9 83.9 679.5 84.1Q680.1 84.3 680.5 84.6Q681.0 85.0 681.3 85.5Q681.6 86.1 681.7 86.7L681.7 86.7L680.0 86.7Q680.0 86.4 679.8 86.1Q679.6 85.9 679.4 85.7Q679.2 85.5 678.9 85.4Q678.6 85.3 678.3 85.3L678.3 85.3Q677.6 85.3 677.2 85.7Q676.7 86.0 676.4 86.6Q676.2 87.2 676.2 88.0L676.2 88.0Q676.2 88.9 676.4 89.5Q676.7 90.1 677.2 90.4Q677.6 90.7 678.2 90.7L678.2 90.7Q678.6 90.7 678.9 90.6Q679.2 90.5 679.4 90.3Q679.6 90.1 679.8 89.8Q680.0 89.6 680.0 89.3L680.0 89.3L681.7 89.3Q681.6 89.8 681.3 90.3Q681.1 90.8 680.6 91.2Q680.2 91.6 679.6 91.9Q679.0 92.1 678.2 92.1ZM687.9 92.1L687.9 92.1Q686.8 92.1 686.0 91.6Q685.1 91.1 684.6 90.2Q684.1 89.3 684.1 88.0L684.1 88.0Q684.1 86.7 684.6 85.8Q685.1 84.9 686.0 84.4Q686.8 83.9 687.9 83.9L687.9 83.9Q688.9 83.9 689.8 84.4Q690.6 84.9 691.1 85.8Q691.6 86.7 691.6 88.0L691.6 88.0Q691.6 89.3 691.1 90.2Q690.6 91.1 689.8 91.6Q688.9 92.1 687.9 92.1ZM687.9 90.7L687.9 90.7Q688.5 90.7 689.0 90.3Q689.4 90.0 689.7 89.5Q689.9 88.9 689.9 88.0L689.9 88.0Q689.9 87.1 689.7 86.5Q689.4 86.0 689.0 85.6Q688.5 85.3 687.9 85.3L687.9 85.3Q687.3 85.3 686.8 85.7Q686.3 86.0 686.1 86.6Q685.8 87.1 685.8 88.0L685.8 88.0Q685.8 88.9 686.1 89.4Q686.3 90.0 686.8 90.3Q687.3 90.7 687.9 90.7ZM696.0 92L694.3 92L694.3 84.0L696.9 84.0L698.2 87.7Q698.2 87.9 698.3 88.3Q698.4 88.7 698.5 89.2L698.5 89.2Q698.7 89.7 698.7 90.1L698.7 90.1Q698.8 89.7 698.9 89.2L698.9 89.2Q699.0 88.8 699.2 88.3Q699.3 87.9 699.3 87.7L699.3 87.7L700.6 84.0L703.1 84.0L703.1 92L701.5 92L701.5 88.2Q701.5 88.0 701.5 87.6Q701.5 87.2 701.5 86.7Q701.5 86.3 701.5 85.8L701.5 85.8Q701.6 85.6 701.6 85.4L701.6 85.4Q701.5 85.6 701.4 85.9L701.4 85.9Q701.3 86.3 701.2 86.8Q701.1 87.2 700.9 87.6Q700.8 88.0 700.8 88.2L700.8 88.2L699.4 92L698.0 92L696.7 88.2Q696.6 88.0 696.5 87.6Q696.4 87.2 696.3 86.8Q696.1 86.4 696.0 85.9L696.0 85.9Q696.0 85.7 695.9 85.5L695.9 85.5Q695.9 85.6 695.9 85.8L695.9 85.8Q695.9 86.2 695.9 86.7Q695.9 87.2 696.0 87.6Q696.0 88.0 696.0 88.2L696.0 88.2L696.0 92ZM707.7 92L706.1 92L706.1 84.0L708.6 84.0L709.9 87.7Q710.0 87.9 710.1 88.3Q710.2 88.7 710.3 89.2L710.3 89.2Q710.4 89.7 710.5 90.1L710.5 90.1Q710.6 89.7 710.7 89.2L710.7 89.2Q710.8 88.8 710.9 88.3Q711.0 87.9 711.1 87.7L711.1 87.7L712.4 84.0L714.9 84.0L714.9 92L713.2 92L713.2 88.2Q713.2 88.0 713.2 87.6Q713.3 87.2 713.3 86.7Q713.3 86.3 713.3 85.8L713.3 85.8Q713.3 85.6 713.3 85.4L713.3 85.4Q713.2 85.6 713.2 85.9L713.2 85.9Q713.1 86.3 712.9 86.8Q712.8 87.2 712.7 87.6Q712.6 88.0 712.5 88.2L712.5 88.2L711.2 92L709.8 92L708.4 88.2Q708.4 88.0 708.3 87.6Q708.1 87.2 708.0 86.8Q707.9 86.4 707.8 85.9L707.8 85.9Q707.7 85.7 707.7 85.5L707.7 85.5Q707.7 85.6 707.7 85.8L707.7 85.8Q707.7 86.2 707.7 86.7Q707.7 87.2 707.7 87.6Q707.7 88.0 707.7 88.2L707.7 88.2L707.7 92ZM717.8 84.0L719.5 84.0L719.5 92L717.8 92L717.8 84.0ZM724.5 85.4L722.1 85.4L722.1 84.0L728.6 84.0L728.6 85.4L726.2 85.4L726.2 92L724.5 92L724.5 85.4ZM734.2 92.1L734.2 92.1Q733.2 92.1 732.5 91.8Q731.8 91.5 731.4 90.9Q731.0 90.4 731.0 89.5L731.0 89.5L732.6 89.5Q732.6 89.9 732.8 90.2Q733.0 90.5 733.4 90.6Q733.7 90.7 734.2 90.7L734.2 90.7Q734.6 90.7 734.9 90.6Q735.3 90.5 735.5 90.2Q735.6 90.0 735.6 89.7L735.6 89.7Q735.6 89.4 735.5 89.3Q735.3 89.1 735.0 88.9Q734.7 88.8 734.3 88.7L734.3 88.7L733.4 88.5Q732.4 88.2 731.8 87.7Q731.2 87.2 731.2 86.3L731.2 86.3Q731.2 85.6 731.6 85.0Q732.0 84.5 732.7 84.2Q733.3 83.9 734.2 83.9L734.2 83.9Q735.1 83.9 735.8 84.2Q736.4 84.5 736.8 85.0Q737.2 85.6 737.2 86.3L737.2 86.3L735.6 86.3Q735.6 85.8 735.2 85.5Q734.8 85.3 734.2 85.3L734.2 85.3Q733.8 85.3 733.5 85.4Q733.2 85.5 733.0 85.7Q732.9 85.9 732.9 86.2L732.9 86.2Q732.9 86.5 733.1 86.7Q733.2 86.9 733.5 87.0Q733.8 87.1 734.2 87.2L734.2 87.2L734.9 87.4Q735.4 87.5 735.8 87.7Q736.3 87.9 736.6 88.2Q736.9 88.4 737.1 88.8Q737.3 89.2 737.3 89.7L737.3 89.7Q737.3 90.4 736.9 91.0Q736.6 91.5 735.9 91.8Q735.2 92.1 734.2 92.1Z "/></g></svg>